<?xml version="1.0" encoding="UTF-8" standalone="no"?>
<!DOCTYPE svg PUBLIC "-//W3C//DTD SVG 1.1//EN" "http://www.w3.org/Graphics/SVG/1.1/DTD/svg11.dtd">
<svg width="100%" height="100%" viewBox="0 0 403 170" version="1.1" xmlns="http://www.w3.org/2000/svg" xmlns:xlink="http://www.w3.org/1999/xlink" xml:space="preserve" xmlns:serif="http://www.serif.com/" style="fill-rule:evenodd;clip-rule:evenodd;">
    <g transform="matrix(1.00235,0,0,1,-0.38563,0)">
        <path d="M164,85L237,85" style="fill:none;fill-rule:nonzero;stroke:black;stroke-width:1px;"/>
    </g>
    <path d="M91.924,21.213C95.829,17.308 95.829,10.976 91.924,7.071C88.019,3.166 81.687,3.166 77.782,7.071C73.876,10.976 73.876,17.308 77.782,21.213C81.687,25.118 88.019,25.118 91.924,21.213Z" style="fill:rgb(239,35,60);fill-rule:nonzero;"/>
    <path d="M20,78L77,21" style="fill:none;fill-rule:nonzero;stroke:black;stroke-width:1px;"/>
    <path d="M149,78L92,21" style="fill:none;fill-rule:nonzero;stroke:black;stroke-width:1px;"/>
    <path d="M150,93L93,150" style="fill:none;fill-rule:nonzero;stroke:black;stroke-width:1px;"/>
    <path d="M77,150L20,93" style="fill:none;fill-rule:nonzero;stroke:black;stroke-width:1px;"/>
    <path d="M180.662,76L180.662,67.624L183.614,67.624C184.326,67.624 184.862,67.832 185.222,68.248C185.59,68.656 185.774,69.212 185.774,69.916C185.774,70.62 185.59,71.18 185.222,71.596C184.862,72.012 184.326,72.22 183.614,72.22L181.094,72.22L181.094,76L180.662,76ZM181.094,71.824L183.614,71.824C183.902,71.824 184.15,71.78 184.358,71.692C184.574,71.604 184.75,71.488 184.886,71.344C185.03,71.192 185.134,71.016 185.198,70.816C185.27,70.616 185.306,70.404 185.306,70.18L185.306,69.652C185.306,69.436 185.27,69.228 185.198,69.028C185.134,68.828 185.03,68.656 184.886,68.512C184.75,68.36 184.574,68.24 184.358,68.152C184.15,68.064 183.902,68.02 183.614,68.02L181.094,68.02L181.094,71.824ZM191.949,75.088L191.913,75.088C191.801,75.36 191.593,75.604 191.289,75.82C190.993,76.036 190.577,76.144 190.041,76.144C189.361,76.144 188.841,75.948 188.481,75.556C188.121,75.156 187.941,74.58 187.941,73.828L187.941,69.808L188.361,69.808L188.361,73.756C188.361,74.46 188.513,74.972 188.817,75.292C189.121,75.612 189.561,75.772 190.137,75.772C190.369,75.772 190.593,75.74 190.809,75.676C191.033,75.612 191.229,75.516 191.397,75.388C191.565,75.26 191.697,75.1 191.793,74.908C191.897,74.716 191.949,74.492 191.949,74.236L191.949,69.808L192.369,69.808L192.369,76L191.949,76L191.949,75.088ZM197.489,76.144C196.657,76.144 196.005,75.868 195.533,75.316C195.069,74.764 194.837,73.96 194.837,72.904C194.837,71.848 195.069,71.044 195.533,70.492C195.997,69.94 196.629,69.664 197.429,69.664C197.845,69.664 198.213,69.74 198.533,69.892C198.853,70.036 199.121,70.244 199.337,70.516C199.553,70.788 199.717,71.116 199.829,71.5C199.941,71.884 199.997,72.308 199.997,72.772L199.997,72.94L195.293,72.94L195.293,73.252C195.293,74.028 195.481,74.644 195.857,75.1C196.241,75.548 196.785,75.772 197.489,75.772C197.985,75.772 198.405,75.656 198.749,75.424C199.093,75.192 199.357,74.844 199.541,74.38L199.877,74.56C199.693,75.04 199.397,75.424 198.989,75.712C198.589,76 198.089,76.144 197.489,76.144ZM197.429,70.024C196.749,70.024 196.221,70.252 195.845,70.708C195.477,71.164 195.293,71.78 195.293,72.556L195.293,72.604L199.553,72.604L199.553,72.544C199.553,71.768 199.369,71.156 199.001,70.708C198.633,70.252 198.109,70.024 197.429,70.024ZM202.44,76L202.44,69.808L202.86,69.808L202.86,70.72L202.896,70.72C202.952,70.584 203.028,70.452 203.124,70.324C203.228,70.196 203.356,70.084 203.508,69.988C203.66,69.892 203.84,69.816 204.048,69.76C204.256,69.696 204.496,69.664 204.768,69.664C205.448,69.664 205.968,69.864 206.328,70.264C206.688,70.656 206.868,71.228 206.868,71.98L206.868,76L206.448,76L206.448,72.052C206.448,71.348 206.296,70.836 205.992,70.516C205.688,70.196 205.248,70.036 204.672,70.036C204.44,70.036 204.212,70.068 203.988,70.132C203.772,70.196 203.58,70.292 203.412,70.42C203.244,70.548 203.108,70.708 203.004,70.9C202.908,71.092 202.86,71.316 202.86,71.572L202.86,76L202.44,76ZM211.555,76C211.163,76 210.967,75.8 210.967,75.4L210.967,70.18L208.639,70.18L208.639,69.808L210.571,69.808C210.843,69.808 210.979,69.676 210.979,69.412L210.979,67.624L211.387,67.624L211.387,69.808L214.471,69.808L214.471,70.18L211.387,70.18L211.387,75.628L214.471,75.628L214.471,76L211.555,76ZM219.075,76.144C218.243,76.144 217.591,75.868 217.119,75.316C216.655,74.764 216.423,73.96 216.423,72.904C216.423,71.848 216.655,71.044 217.119,70.492C217.583,69.94 218.215,69.664 219.015,69.664C219.431,69.664 219.799,69.74 220.119,69.892C220.439,70.036 220.707,70.244 220.923,70.516C221.139,70.788 221.303,71.116 221.415,71.5C221.527,71.884 221.583,72.308 221.583,72.772L221.583,72.94L216.879,72.94L216.879,73.252C216.879,74.028 217.067,74.644 217.443,75.1C217.827,75.548 218.371,75.772 219.075,75.772C219.571,75.772 219.991,75.656 220.335,75.424C220.679,75.192 220.943,74.844 221.127,74.38L221.463,74.56C221.279,75.04 220.983,75.424 220.575,75.712C220.175,76 219.675,76.144 219.075,76.144ZM219.015,70.024C218.335,70.024 217.807,70.252 217.431,70.708C217.063,71.164 216.879,71.78 216.879,72.556L216.879,72.604L221.139,72.604L221.139,72.544C221.139,71.768 220.955,71.156 220.587,70.708C220.219,70.252 219.695,70.024 219.015,70.024Z" style="fill-rule:nonzero;"/>
    <path d="M21.213,91.924C25.118,88.019 25.118,81.687 21.213,77.782C17.308,73.876 10.976,73.876 7.071,77.782C3.166,81.687 3.166,88.019 7.071,91.924C10.976,95.829 17.308,95.829 21.213,91.924Z" style="fill:rgb(239,35,60);fill-rule:nonzero;"/>
    <path d="M91.924,162.635C95.829,158.729 95.829,152.398 91.924,148.492C88.019,144.587 81.687,144.587 77.782,148.492C73.876,152.398 73.876,158.729 77.782,162.635C81.687,166.54 88.019,166.54 91.924,162.635Z" style="fill:rgb(239,35,60);fill-rule:nonzero;"/>
    <path d="M162.635,91.924C166.54,88.019 166.54,81.687 162.635,77.782C158.729,73.876 152.398,73.876 148.492,77.782C144.587,81.687 144.587,88.019 148.492,91.924C152.398,95.829 158.729,95.829 162.635,91.924Z" style="fill:rgb(239,35,60);fill-rule:nonzero;"/>
    <path d="M324.924,21.213C328.829,17.308 328.829,10.976 324.924,7.071C321.019,3.166 314.687,3.166 310.782,7.071C306.877,10.976 306.877,17.308 310.782,21.213C314.687,25.118 321.019,25.118 324.924,21.213Z" style="fill:rgb(255,183,3);fill-rule:nonzero;"/>
    <path d="M253,78L310,21" style="fill:none;fill-rule:nonzero;stroke:black;stroke-width:1px;"/>
    <path d="M382,78L325,21" style="fill:none;fill-rule:nonzero;stroke:black;stroke-width:1px;"/>
    <path d="M383,93L326,150" style="fill:none;fill-rule:nonzero;stroke:black;stroke-width:1px;"/>
    <path d="M310,150L253,93" style="fill:none;fill-rule:nonzero;stroke:black;stroke-width:1px;"/>
    <path d="M254.213,91.924C258.118,88.019 258.118,81.687 254.213,77.782C250.308,73.876 243.976,73.876 240.071,77.782C236.166,81.687 236.166,88.019 240.071,91.924C243.976,95.829 250.308,95.829 254.213,91.924Z" style="fill:rgb(255,183,3);fill-rule:nonzero;"/>
    <path d="M324.924,162.635C328.829,158.729 328.829,152.398 324.924,148.493C321.019,144.587 314.687,144.587 310.782,148.493C306.877,152.398 306.877,158.729 310.782,162.635C314.687,166.54 321.019,166.54 324.924,162.635Z" style="fill:rgb(255,183,3);fill-rule:nonzero;"/>
    <path d="M395.635,91.924C399.54,88.019 399.54,81.687 395.635,77.782C391.729,73.877 385.398,73.877 381.492,77.782C377.587,81.687 377.587,88.019 381.492,91.924C385.398,95.829 391.729,95.829 395.635,91.924Z" style="fill:rgb(255,183,3);fill-rule:nonzero;"/>
    <g transform="matrix(1,0,0,1,20.7925,50.2273)">
        <text x="130.992px" y="39.015px" style="font-family:'IBMPlexSans', 'IBM Plex Sans', sans-serif;font-size:12px;">A</text>
    </g>
    <g transform="matrix(1,0,0,1,112.37,50.2273)">
        <text x="130.992px" y="39.015px" style="font-family:'IBMPlexSans', 'IBM Plex Sans', sans-serif;font-size:12px;">B</text>
    </g>
</svg>
