<svg width="102" height="88" viewBox="0 0 102 88" fill="none" xmlns="http://www.w3.org/2000/svg">
<path d="M57.2132 21.2132C61.1184 17.308 61.1184 10.9763 57.2132 7.07107C53.308 3.16582 46.9763 3.16582 43.0711 7.07107C39.1658 10.9763 39.1658 17.308 43.0711 21.2132C46.9763 25.1184 53.308 25.1184 57.2132 21.2132Z" fill="#EF233C"/>
<path d="M21.2132 80.2132C25.1184 76.308 25.1184 69.9763 21.2132 66.0711C17.308 62.1658 10.9763 62.1658 7.07107 66.0711C3.16582 69.9763 3.16582 76.308 7.07107 80.2132C10.9763 84.1184 17.308 84.1184 21.2132 80.2132Z" fill="#FFB703"/>
<path d="M94.2132 80.2132C98.1184 76.308 98.1184 69.9763 94.2132 66.0711C90.308 62.1658 83.9763 62.1658 80.0711 66.0711C76.1658 69.9763 76.1658 76.308 80.0711 80.2132C83.9763 84.1184 90.308 84.1184 94.2132 80.2132Z" fill="#023047"/>
<path d="M39.983 21.8706C39.9115 21.6039 39.6373 21.4456 39.3706 21.517L35.0239 22.6817C34.7572 22.7532 34.5989 23.0274 34.6704 23.2941C34.7418 23.5608 35.016 23.7191 35.2827 23.6476L39.1464 22.6124L40.1817 26.4761C40.2532 26.7428 40.5274 26.9011 40.7941 26.8296C41.0608 26.7582 41.2191 26.484 41.1476 26.2173L39.983 21.8706ZM17.433 61.2211L39.933 22.25L39.067 21.75L16.567 60.7211L17.433 61.2211Z" fill="black"/>
<path d="M26.6464 72.6464C26.4512 72.8417 26.4512 73.1583 26.6464 73.3536L29.8284 76.5355C30.0237 76.7308 30.3403 76.7308 30.5355 76.5355C30.7308 76.3403 30.7308 76.0237 30.5355 75.8284L27.7071 73L30.5355 70.1716C30.7308 69.9763 30.7308 69.6597 30.5355 69.4645C30.3403 69.2692 30.0237 69.2692 29.8284 69.4645L26.6464 72.6464ZM74 72.5H27V73.5H74V72.5Z" fill="black"/>
<path d="M81.3706 61.4541C81.6373 61.5256 81.9115 61.3673 81.983 61.1006L83.1476 56.7539C83.2191 56.4872 83.0608 56.213 82.7941 56.1415C82.5274 56.07 82.2532 56.2283 82.1817 56.4951L81.1464 60.3588L77.2827 59.3235C77.016 59.252 76.7418 59.4103 76.6704 59.677C76.5989 59.9438 76.7572 60.2179 77.0239 60.2894L81.3706 61.4541ZM81.933 60.7211L59.433 21.75L58.567 22.25L81.067 61.2211L81.933 60.7211Z" fill="black"/>
</svg>
