<?xml version="1.0" encoding="UTF-8" standalone="no"?>
<!DOCTYPE svg PUBLIC "-//W3C//DTD SVG 1.1//EN" "http://www.w3.org/Graphics/SVG/1.1/DTD/svg11.dtd">
<svg width="100%" height="100%" viewBox="0 0 1050 209" version="1.1" xmlns="http://www.w3.org/2000/svg" xmlns:xlink="http://www.w3.org/1999/xlink" xml:space="preserve" xmlns:serif="http://www.serif.com/" style="fill-rule:evenodd;clip-rule:evenodd;stroke-linejoin:round;stroke-miterlimit:2;">
    <circle cx="12.5" cy="67.5" r="12.5" style="fill:rgb(2,47,71);"/>
    <circle cx="137.5" cy="67.5" r="12.5" style="fill:rgb(2,47,71);"/>
    <path d="M125.04,69.061C125.626,68.475 125.626,67.525 125.04,66.939L115.495,57.393C114.909,56.808 113.959,56.808 113.373,57.393C112.787,57.979 112.787,58.929 113.373,59.515L121.858,68L113.373,76.485C112.787,77.071 112.787,78.021 113.373,78.607C113.959,79.192 114.909,79.192 115.495,78.607L125.04,69.061ZM25,69.5L123.98,69.5L123.98,66.5L25,66.5L25,69.5Z" style="fill-rule:nonzero;"/>
    <path d="M23.939,66.939C23.354,67.525 23.354,68.475 23.939,69.061L33.485,78.607C34.071,79.192 35.021,79.192 35.607,78.607C36.192,78.021 36.192,77.071 35.607,76.485L27.121,68L35.607,59.515C36.192,58.929 36.192,57.979 35.607,57.393C35.021,56.808 34.071,56.808 33.485,57.393L23.939,66.939ZM124.985,66.5L25,66.5L25,69.5L124.985,69.5L124.985,66.5Z" style="fill-rule:nonzero;"/>
    <circle cx="674.5" cy="12.5" r="12.5" style="fill:rgb(241,35,61);"/>
    <circle cx="612.5" cy="126.5" r="12.5" style="fill:rgb(53,80,112);"/>
    <circle cx="737.5" cy="126.5" r="12.5" style="fill:rgb(53,80,112);"/>
    <path d="M610.556,111.398C610.775,112.197 611.6,112.667 612.399,112.448L625.419,108.879C626.217,108.66 626.688,107.835 626.469,107.036C626.25,106.237 625.424,105.767 624.625,105.986L613.052,109.158L609.88,97.585C609.661,96.786 608.836,96.316 608.037,96.535C607.238,96.754 606.768,97.579 606.987,98.378L610.556,111.398ZM659.694,24.256L610.699,110.259L613.306,111.744L662.301,25.741L659.694,24.256Z" style="fill-rule:nonzero;"/>
    <path d="M736.629,112.453C737.431,112.658 738.248,112.174 738.453,111.371L741.795,98.291C742,97.489 741.516,96.672 740.713,96.467C739.91,96.262 739.093,96.746 738.888,97.549L735.918,109.175L724.291,106.205C723.489,106 722.672,106.484 722.467,107.287C722.262,108.09 722.746,108.907 723.549,109.112L736.629,112.453ZM684.71,25.765L735.71,111.765L738.29,110.235L687.29,24.235L684.71,25.765Z" style="fill-rule:nonzero;"/>
    <circle cx="974.5" cy="12.5" r="12.5" style="fill:rgb(2,47,71);"/>
    <circle cx="912.5" cy="126.5" r="12.5" style="fill:rgb(53,80,112);"/>
    <circle cx="1037.5" cy="126.5" r="12.5" style="fill:rgb(241,35,61);"/>
    <path d="M962.447,24.604C962.228,23.805 961.402,23.334 960.604,23.553L947.584,27.122C946.785,27.341 946.315,28.166 946.534,28.965C946.752,29.764 947.578,30.234 948.377,30.015L959.95,26.843L963.122,38.416C963.341,39.215 964.166,39.686 964.965,39.467C965.764,39.248 966.234,38.422 966.015,37.623L962.447,24.604ZM913.303,111.743L962.303,25.743L959.697,24.257L910.697,110.257L913.303,111.743Z" style="fill-rule:nonzero;"/>
    <path d="M1025.04,128.061C1025.63,127.475 1025.63,126.525 1025.04,125.939L1015.49,116.393C1014.91,115.808 1013.96,115.808 1013.37,116.393C1012.79,116.979 1012.79,117.929 1013.37,118.515L1021.86,127L1013.37,135.485C1012.79,136.071 1012.79,137.021 1013.37,137.607C1013.96,138.192 1014.91,138.192 1015.49,137.607L1025.04,128.061ZM925,128.5L1023.98,128.5L1023.98,125.5L925,125.5L925,128.5Z" style="fill-rule:nonzero;"/>
    <path d="M1036.63,112.453C1037.43,112.658 1038.25,112.174 1038.45,111.371L1041.79,98.291C1042,97.489 1041.52,96.672 1040.71,96.467C1039.91,96.262 1039.09,96.746 1038.89,97.549L1035.92,109.175L1024.29,106.205C1023.49,106 1022.67,106.484 1022.47,107.287C1022.26,108.09 1022.75,108.907 1023.55,109.112L1036.63,112.453ZM984.71,25.765L1035.71,111.765L1038.29,110.235L987.29,24.235L984.71,25.765Z" style="fill-rule:nonzero;"/>
    <circle cx="374.5" cy="12.5" r="12.5" style="fill:rgb(241,35,61);"/>
    <circle cx="312.5" cy="126.5" r="12.5" style="fill:rgb(53,80,112);"/>
    <circle cx="437.5" cy="126.5" r="12.5" style="fill:rgb(53,80,112);"/>
    <path d="M362.447,24.604C362.228,23.805 361.402,23.334 360.604,23.553L347.584,27.122C346.785,27.341 346.315,28.166 346.534,28.965C346.752,29.764 347.578,30.234 348.377,30.015L359.95,26.843L363.122,38.416C363.341,39.215 364.166,39.686 364.965,39.467C365.764,39.248 366.234,38.422 366.015,37.623L362.447,24.604ZM313.303,111.743L362.303,25.743L359.697,24.257L310.697,110.257L313.303,111.743Z" style="fill-rule:nonzero;"/>
    <path d="M386.37,23.547C385.568,23.342 384.751,23.827 384.546,24.629L381.205,37.709C380.999,38.512 381.484,39.329 382.287,39.534C383.089,39.739 383.906,39.254 384.111,38.452L387.081,26.825L398.708,29.795C399.511,30 400.327,29.516 400.532,28.713C400.738,27.91 400.253,27.094 399.45,26.889L386.37,23.547ZM438.291,110.234L387.289,24.235L384.709,25.766L435.711,111.765L438.291,110.234Z" style="fill-rule:nonzero;"/>
    <g transform="matrix(1.05547,0,0,1.05547,-7.83756,-6.05078)">
        <g transform="matrix(17.0541,0,0,17.0541,28.0415,182.344)">
            <path d="M0.177,-0L0.093,-0L0.093,-0.698L0.371,-0.698C0.432,-0.698 0.48,-0.681 0.515,-0.647C0.549,-0.613 0.566,-0.564 0.566,-0.5C0.566,-0.449 0.554,-0.407 0.531,-0.374C0.507,-0.341 0.472,-0.319 0.426,-0.308L0.586,-0L0.491,-0L0.34,-0.3L0.177,-0.3L0.177,-0ZM0.371,-0.372C0.404,-0.372 0.43,-0.381 0.449,-0.398C0.467,-0.415 0.476,-0.44 0.476,-0.472L0.476,-0.524C0.476,-0.556 0.467,-0.581 0.449,-0.598C0.43,-0.615 0.404,-0.624 0.371,-0.624L0.177,-0.624L0.177,-0.372L0.371,-0.372Z" style="fill-rule:nonzero;"/>
        </g>
        <g transform="matrix(17.0541,0,0,17.0541,38.7003,182.344)">
            <path d="M0.279,0.012C0.244,0.012 0.212,0.006 0.184,-0.007C0.155,-0.02 0.131,-0.038 0.111,-0.062C0.09,-0.085 0.075,-0.114 0.064,-0.147C0.053,-0.18 0.047,-0.217 0.047,-0.258C0.047,-0.299 0.053,-0.336 0.064,-0.369C0.075,-0.402 0.09,-0.431 0.111,-0.455C0.131,-0.478 0.155,-0.496 0.184,-0.509C0.212,-0.522 0.244,-0.528 0.279,-0.528C0.314,-0.528 0.345,-0.522 0.372,-0.509C0.399,-0.496 0.423,-0.479 0.442,-0.457C0.461,-0.434 0.476,-0.408 0.487,-0.377C0.497,-0.346 0.502,-0.313 0.502,-0.276L0.502,-0.238L0.131,-0.238L0.131,-0.214C0.131,-0.192 0.135,-0.171 0.142,-0.153C0.149,-0.133 0.159,-0.117 0.172,-0.103C0.185,-0.089 0.201,-0.078 0.22,-0.07C0.239,-0.062 0.26,-0.058 0.284,-0.058C0.317,-0.058 0.345,-0.066 0.37,-0.081C0.394,-0.096 0.413,-0.118 0.426,-0.147L0.483,-0.106C0.466,-0.071 0.44,-0.042 0.405,-0.021C0.37,0.001 0.328,0.012 0.279,0.012ZM0.279,-0.461C0.257,-0.461 0.237,-0.457 0.219,-0.45C0.201,-0.442 0.186,-0.431 0.173,-0.417C0.16,-0.403 0.149,-0.387 0.142,-0.368C0.135,-0.349 0.131,-0.328 0.131,-0.305L0.131,-0.298L0.416,-0.298L0.416,-0.309C0.416,-0.355 0.404,-0.392 0.379,-0.42C0.354,-0.447 0.32,-0.461 0.279,-0.461Z" style="fill-rule:nonzero;"/>
        </g>
        <g transform="matrix(17.0541,0,0,17.0541,48.063,182.344)">
            <path d="M0.277,0.012C0.241,0.012 0.209,0.006 0.18,-0.007C0.151,-0.02 0.127,-0.038 0.108,-0.061C0.088,-0.084 0.073,-0.113 0.063,-0.146C0.052,-0.179 0.047,-0.217 0.047,-0.258C0.047,-0.299 0.052,-0.337 0.063,-0.37C0.073,-0.403 0.088,-0.432 0.108,-0.455C0.127,-0.478 0.151,-0.496 0.18,-0.509C0.209,-0.522 0.241,-0.528 0.277,-0.528C0.328,-0.528 0.37,-0.517 0.401,-0.495C0.432,-0.472 0.455,-0.443 0.47,-0.407L0.403,-0.373C0.394,-0.4 0.378,-0.42 0.357,-0.435C0.336,-0.45 0.309,-0.457 0.277,-0.457C0.253,-0.457 0.232,-0.453 0.214,-0.446C0.196,-0.438 0.181,-0.427 0.169,-0.414C0.157,-0.4 0.148,-0.384 0.142,-0.365C0.136,-0.345 0.133,-0.325 0.133,-0.302L0.133,-0.214C0.133,-0.169 0.145,-0.131 0.17,-0.103C0.194,-0.074 0.23,-0.059 0.277,-0.059C0.342,-0.059 0.388,-0.089 0.417,-0.149L0.475,-0.11C0.458,-0.073 0.434,-0.043 0.401,-0.021C0.368,0.001 0.326,0.012 0.277,0.012Z" style="fill-rule:nonzero;"/>
        </g>
        <g transform="matrix(17.0541,0,0,17.0541,56.6413,182.344)">
            <path d="M0.125,-0.637C0.108,-0.637 0.095,-0.641 0.088,-0.65C0.08,-0.658 0.076,-0.669 0.076,-0.682L0.076,-0.695C0.076,-0.708 0.08,-0.719 0.088,-0.728C0.095,-0.736 0.108,-0.74 0.125,-0.74C0.142,-0.74 0.155,-0.736 0.163,-0.728C0.17,-0.719 0.174,-0.708 0.174,-0.695L0.174,-0.682C0.174,-0.669 0.17,-0.658 0.163,-0.65C0.155,-0.641 0.142,-0.637 0.125,-0.637ZM0.085,-0.516L0.165,-0.516L0.165,-0L0.085,-0L0.085,-0.516Z" style="fill-rule:nonzero;"/>
        </g>
        <g transform="matrix(17.0541,0,0,17.0541,60.9048,182.344)">
            <path d="M0.085,-0.516L0.165,-0.516L0.165,-0.432L0.169,-0.432C0.182,-0.465 0.202,-0.489 0.228,-0.505C0.253,-0.52 0.284,-0.528 0.32,-0.528C0.352,-0.528 0.381,-0.522 0.407,-0.509C0.433,-0.496 0.455,-0.478 0.474,-0.455C0.492,-0.432 0.506,-0.403 0.516,-0.37C0.525,-0.337 0.53,-0.299 0.53,-0.258C0.53,-0.217 0.525,-0.179 0.516,-0.146C0.506,-0.113 0.492,-0.084 0.474,-0.061C0.455,-0.038 0.433,-0.02 0.407,-0.007C0.381,0.006 0.352,0.012 0.32,0.012C0.25,0.012 0.2,-0.02 0.169,-0.084L0.165,-0.084L0.165,0.2L0.085,0.2L0.085,-0.516ZM0.298,-0.06C0.343,-0.06 0.379,-0.074 0.405,-0.103C0.431,-0.131 0.444,-0.168 0.444,-0.214L0.444,-0.302C0.444,-0.348 0.431,-0.385 0.405,-0.414C0.379,-0.442 0.343,-0.456 0.298,-0.456C0.28,-0.456 0.263,-0.454 0.247,-0.449C0.23,-0.444 0.216,-0.437 0.204,-0.428C0.192,-0.419 0.183,-0.409 0.176,-0.397C0.169,-0.384 0.165,-0.371 0.165,-0.357L0.165,-0.165C0.165,-0.148 0.169,-0.134 0.176,-0.121C0.183,-0.108 0.192,-0.097 0.204,-0.088C0.216,-0.079 0.23,-0.072 0.247,-0.067C0.263,-0.062 0.28,-0.06 0.298,-0.06Z" style="fill-rule:nonzero;"/>
        </g>
        <g transform="matrix(17.0541,0,0,17.0541,70.7962,182.344)">
            <path d="M0.085,-0L0.085,-0.516L0.165,-0.516L0.165,-0.421L0.17,-0.421C0.179,-0.446 0.196,-0.468 0.22,-0.487C0.244,-0.506 0.277,-0.516 0.319,-0.516L0.35,-0.516L0.35,-0.436L0.303,-0.436C0.26,-0.436 0.226,-0.428 0.202,-0.412C0.177,-0.395 0.165,-0.375 0.165,-0.35L0.165,-0L0.085,-0Z" style="fill-rule:nonzero;"/>
        </g>
        <g transform="matrix(17.0541,0,0,17.0541,76.9697,182.344)">
            <path d="M0.28,0.012C0.245,0.012 0.214,0.006 0.185,-0.007C0.156,-0.02 0.132,-0.038 0.112,-0.062C0.091,-0.085 0.075,-0.114 0.064,-0.147C0.053,-0.18 0.047,-0.217 0.047,-0.258C0.047,-0.299 0.053,-0.336 0.064,-0.369C0.075,-0.402 0.091,-0.431 0.112,-0.455C0.132,-0.478 0.156,-0.496 0.185,-0.509C0.214,-0.522 0.245,-0.528 0.28,-0.528C0.315,-0.528 0.346,-0.522 0.375,-0.509C0.403,-0.496 0.427,-0.478 0.448,-0.455C0.469,-0.431 0.485,-0.402 0.496,-0.369C0.507,-0.336 0.513,-0.299 0.513,-0.258C0.513,-0.217 0.507,-0.18 0.496,-0.147C0.485,-0.114 0.469,-0.085 0.448,-0.062C0.427,-0.038 0.403,-0.02 0.375,-0.007C0.346,0.006 0.315,0.012 0.28,0.012ZM0.28,-0.059C0.323,-0.059 0.359,-0.072 0.386,-0.099C0.413,-0.126 0.427,-0.166 0.427,-0.221L0.427,-0.295C0.427,-0.35 0.413,-0.39 0.386,-0.417C0.359,-0.444 0.323,-0.457 0.28,-0.457C0.237,-0.457 0.201,-0.444 0.174,-0.417C0.147,-0.39 0.133,-0.35 0.133,-0.295L0.133,-0.221C0.133,-0.166 0.147,-0.126 0.174,-0.099C0.201,-0.072 0.237,-0.059 0.28,-0.059Z" style="fill-rule:nonzero;"/>
        </g>
        <g transform="matrix(17.0541,0,0,17.0541,86.52,182.344)">
            <path d="M0.277,0.012C0.241,0.012 0.209,0.006 0.18,-0.007C0.151,-0.02 0.127,-0.038 0.108,-0.061C0.088,-0.084 0.073,-0.113 0.063,-0.146C0.052,-0.179 0.047,-0.217 0.047,-0.258C0.047,-0.299 0.052,-0.337 0.063,-0.37C0.073,-0.403 0.088,-0.432 0.108,-0.455C0.127,-0.478 0.151,-0.496 0.18,-0.509C0.209,-0.522 0.241,-0.528 0.277,-0.528C0.328,-0.528 0.37,-0.517 0.401,-0.495C0.432,-0.472 0.455,-0.443 0.47,-0.407L0.403,-0.373C0.394,-0.4 0.378,-0.42 0.357,-0.435C0.336,-0.45 0.309,-0.457 0.277,-0.457C0.253,-0.457 0.232,-0.453 0.214,-0.446C0.196,-0.438 0.181,-0.427 0.169,-0.414C0.157,-0.4 0.148,-0.384 0.142,-0.365C0.136,-0.345 0.133,-0.325 0.133,-0.302L0.133,-0.214C0.133,-0.169 0.145,-0.131 0.17,-0.103C0.194,-0.074 0.23,-0.059 0.277,-0.059C0.342,-0.059 0.388,-0.089 0.417,-0.149L0.475,-0.11C0.458,-0.073 0.434,-0.043 0.401,-0.021C0.368,0.001 0.326,0.012 0.277,0.012Z" style="fill-rule:nonzero;"/>
        </g>
        <g transform="matrix(17.0541,0,0,17.0541,95.0982,182.344)">
            <path d="M0.125,-0.637C0.108,-0.637 0.095,-0.641 0.088,-0.65C0.08,-0.658 0.076,-0.669 0.076,-0.682L0.076,-0.695C0.076,-0.708 0.08,-0.719 0.088,-0.728C0.095,-0.736 0.108,-0.74 0.125,-0.74C0.142,-0.74 0.155,-0.736 0.163,-0.728C0.17,-0.719 0.174,-0.708 0.174,-0.695L0.174,-0.682C0.174,-0.669 0.17,-0.658 0.163,-0.65C0.155,-0.641 0.142,-0.637 0.125,-0.637ZM0.085,-0.516L0.165,-0.516L0.165,-0L0.085,-0L0.085,-0.516Z" style="fill-rule:nonzero;"/>
        </g>
        <g transform="matrix(17.0541,0,0,17.0541,99.3618,182.344)">
            <path d="M0.415,-0.084L0.411,-0.084C0.38,-0.02 0.329,0.012 0.26,0.012C0.228,0.012 0.199,0.006 0.173,-0.007C0.147,-0.02 0.125,-0.038 0.107,-0.061C0.088,-0.084 0.074,-0.113 0.065,-0.146C0.055,-0.179 0.05,-0.217 0.05,-0.258C0.05,-0.299 0.055,-0.337 0.065,-0.37C0.074,-0.403 0.088,-0.432 0.107,-0.455C0.125,-0.478 0.147,-0.496 0.173,-0.509C0.199,-0.522 0.228,-0.528 0.26,-0.528C0.296,-0.528 0.327,-0.52 0.353,-0.505C0.378,-0.489 0.398,-0.465 0.411,-0.432L0.415,-0.432L0.415,-0.74L0.495,-0.74L0.495,-0L0.415,-0L0.415,-0.084ZM0.282,-0.06C0.3,-0.06 0.317,-0.062 0.334,-0.067C0.35,-0.072 0.364,-0.079 0.376,-0.088C0.388,-0.097 0.398,-0.108 0.405,-0.121C0.412,-0.134 0.415,-0.148 0.415,-0.165L0.415,-0.357C0.415,-0.371 0.412,-0.384 0.405,-0.397C0.398,-0.409 0.388,-0.419 0.376,-0.428C0.364,-0.437 0.35,-0.444 0.334,-0.449C0.317,-0.454 0.3,-0.456 0.282,-0.456C0.237,-0.456 0.201,-0.442 0.175,-0.414C0.149,-0.385 0.136,-0.348 0.136,-0.302L0.136,-0.214C0.136,-0.168 0.149,-0.131 0.175,-0.103C0.201,-0.074 0.237,-0.06 0.282,-0.06Z" style="fill-rule:nonzero;"/>
        </g>
        <g transform="matrix(17.0541,0,0,17.0541,109.253,182.344)">
            <path d="M0.46,-0C0.43,-0 0.409,-0.008 0.396,-0.024C0.383,-0.04 0.374,-0.06 0.371,-0.084L0.366,-0.084C0.355,-0.052 0.336,-0.028 0.31,-0.012C0.284,0.004 0.253,0.012 0.217,0.012C0.162,0.012 0.12,-0.002 0.09,-0.03C0.059,-0.058 0.044,-0.096 0.044,-0.144C0.044,-0.193 0.062,-0.23 0.098,-0.256C0.133,-0.282 0.189,-0.295 0.264,-0.295L0.366,-0.295L0.366,-0.346C0.366,-0.383 0.356,-0.411 0.336,-0.43C0.316,-0.449 0.285,-0.459 0.244,-0.459C0.213,-0.459 0.187,-0.452 0.166,-0.438C0.145,-0.424 0.127,-0.405 0.113,-0.382L0.065,-0.427C0.079,-0.455 0.101,-0.479 0.132,-0.499C0.163,-0.518 0.201,-0.528 0.248,-0.528C0.311,-0.528 0.359,-0.513 0.394,-0.482C0.429,-0.451 0.446,-0.409 0.446,-0.354L0.446,-0.07L0.505,-0.07L0.505,-0L0.46,-0ZM0.23,-0.056C0.25,-0.056 0.268,-0.058 0.285,-0.063C0.302,-0.068 0.316,-0.074 0.328,-0.083C0.34,-0.092 0.349,-0.102 0.356,-0.113C0.363,-0.124 0.366,-0.137 0.366,-0.15L0.366,-0.235L0.26,-0.235C0.214,-0.235 0.181,-0.228 0.16,-0.215C0.138,-0.202 0.128,-0.182 0.128,-0.157L0.128,-0.136C0.128,-0.111 0.137,-0.091 0.156,-0.077C0.174,-0.063 0.199,-0.056 0.23,-0.056Z" style="fill-rule:nonzero;"/>
        </g>
        <g transform="matrix(17.0541,0,0,17.0541,118.36,182.344)">
            <path d="M0.415,-0.084L0.411,-0.084C0.38,-0.02 0.329,0.012 0.26,0.012C0.228,0.012 0.199,0.006 0.173,-0.007C0.147,-0.02 0.125,-0.038 0.107,-0.061C0.088,-0.084 0.074,-0.113 0.065,-0.146C0.055,-0.179 0.05,-0.217 0.05,-0.258C0.05,-0.299 0.055,-0.337 0.065,-0.37C0.074,-0.403 0.088,-0.432 0.107,-0.455C0.125,-0.478 0.147,-0.496 0.173,-0.509C0.199,-0.522 0.228,-0.528 0.26,-0.528C0.296,-0.528 0.327,-0.52 0.353,-0.505C0.378,-0.489 0.398,-0.465 0.411,-0.432L0.415,-0.432L0.415,-0.74L0.495,-0.74L0.495,-0L0.415,-0L0.415,-0.084ZM0.282,-0.06C0.3,-0.06 0.317,-0.062 0.334,-0.067C0.35,-0.072 0.364,-0.079 0.376,-0.088C0.388,-0.097 0.398,-0.108 0.405,-0.121C0.412,-0.134 0.415,-0.148 0.415,-0.165L0.415,-0.357C0.415,-0.371 0.412,-0.384 0.405,-0.397C0.398,-0.409 0.388,-0.419 0.376,-0.428C0.364,-0.437 0.35,-0.444 0.334,-0.449C0.317,-0.454 0.3,-0.456 0.282,-0.456C0.237,-0.456 0.201,-0.442 0.175,-0.414C0.149,-0.385 0.136,-0.348 0.136,-0.302L0.136,-0.214C0.136,-0.168 0.149,-0.131 0.175,-0.103C0.201,-0.074 0.237,-0.06 0.282,-0.06Z" style="fill-rule:nonzero;"/>
        </g>
    </g>
    <g transform="matrix(1.05547,0,0,1.05547,295.877,-6.05078)">
        <g transform="matrix(17.0541,0,0,17.0541,28.0415,182.344)">
            <path d="M0.093,-0L0.093,-0.698L0.371,-0.698C0.434,-0.698 0.482,-0.68 0.516,-0.645C0.549,-0.609 0.566,-0.56 0.566,-0.498C0.566,-0.436 0.549,-0.387 0.516,-0.352C0.482,-0.316 0.434,-0.298 0.371,-0.298L0.177,-0.298L0.177,-0L0.093,-0ZM0.177,-0.372L0.371,-0.372C0.404,-0.372 0.43,-0.381 0.449,-0.398C0.467,-0.415 0.476,-0.44 0.476,-0.472L0.476,-0.524C0.476,-0.556 0.467,-0.581 0.449,-0.598C0.43,-0.615 0.404,-0.624 0.371,-0.624L0.177,-0.624L0.177,-0.372Z" style="fill-rule:nonzero;"/>
        </g>
        <g transform="matrix(17.0541,0,0,17.0541,38.0352,182.344)">
            <path d="M0.28,0.012C0.245,0.012 0.214,0.006 0.185,-0.007C0.156,-0.02 0.132,-0.038 0.112,-0.062C0.091,-0.085 0.075,-0.114 0.064,-0.147C0.053,-0.18 0.047,-0.217 0.047,-0.258C0.047,-0.299 0.053,-0.336 0.064,-0.369C0.075,-0.402 0.091,-0.431 0.112,-0.455C0.132,-0.478 0.156,-0.496 0.185,-0.509C0.214,-0.522 0.245,-0.528 0.28,-0.528C0.315,-0.528 0.346,-0.522 0.375,-0.509C0.403,-0.496 0.427,-0.478 0.448,-0.455C0.469,-0.431 0.485,-0.402 0.496,-0.369C0.507,-0.336 0.513,-0.299 0.513,-0.258C0.513,-0.217 0.507,-0.18 0.496,-0.147C0.485,-0.114 0.469,-0.085 0.448,-0.062C0.427,-0.038 0.403,-0.02 0.375,-0.007C0.346,0.006 0.315,0.012 0.28,0.012ZM0.28,-0.059C0.323,-0.059 0.359,-0.072 0.386,-0.099C0.413,-0.126 0.427,-0.166 0.427,-0.221L0.427,-0.295C0.427,-0.35 0.413,-0.39 0.386,-0.417C0.359,-0.444 0.323,-0.457 0.28,-0.457C0.237,-0.457 0.201,-0.444 0.174,-0.417C0.147,-0.39 0.133,-0.35 0.133,-0.295L0.133,-0.221C0.133,-0.166 0.147,-0.126 0.174,-0.099C0.201,-0.072 0.237,-0.059 0.28,-0.059Z" style="fill-rule:nonzero;"/>
        </g>
        <g transform="matrix(17.0541,0,0,17.0541,47.5855,182.344)">
            <path d="M0.085,-0.516L0.165,-0.516L0.165,-0.432L0.169,-0.432C0.182,-0.465 0.202,-0.489 0.228,-0.505C0.253,-0.52 0.284,-0.528 0.32,-0.528C0.352,-0.528 0.381,-0.522 0.407,-0.509C0.433,-0.496 0.455,-0.478 0.474,-0.455C0.492,-0.432 0.506,-0.403 0.516,-0.37C0.525,-0.337 0.53,-0.299 0.53,-0.258C0.53,-0.217 0.525,-0.179 0.516,-0.146C0.506,-0.113 0.492,-0.084 0.474,-0.061C0.455,-0.038 0.433,-0.02 0.407,-0.007C0.381,0.006 0.352,0.012 0.32,0.012C0.25,0.012 0.2,-0.02 0.169,-0.084L0.165,-0.084L0.165,0.2L0.085,0.2L0.085,-0.516ZM0.298,-0.06C0.343,-0.06 0.379,-0.074 0.405,-0.103C0.431,-0.131 0.444,-0.168 0.444,-0.214L0.444,-0.302C0.444,-0.348 0.431,-0.385 0.405,-0.414C0.379,-0.442 0.343,-0.456 0.298,-0.456C0.28,-0.456 0.263,-0.454 0.247,-0.449C0.23,-0.444 0.216,-0.437 0.204,-0.428C0.192,-0.419 0.183,-0.409 0.176,-0.397C0.169,-0.384 0.165,-0.371 0.165,-0.357L0.165,-0.165C0.165,-0.148 0.169,-0.134 0.176,-0.121C0.183,-0.108 0.192,-0.097 0.204,-0.088C0.216,-0.079 0.23,-0.072 0.247,-0.067C0.263,-0.062 0.28,-0.06 0.298,-0.06Z" style="fill-rule:nonzero;"/>
        </g>
        <g transform="matrix(17.0541,0,0,17.0541,57.4769,182.344)">
            <path d="M0.403,-0.084L0.399,-0.084C0.394,-0.072 0.387,-0.06 0.38,-0.049C0.372,-0.037 0.362,-0.027 0.351,-0.018C0.34,-0.009 0.326,-0.001 0.31,0.004C0.294,0.009 0.275,0.012 0.254,0.012C0.201,0.012 0.158,-0.005 0.127,-0.04C0.096,-0.074 0.08,-0.122 0.08,-0.185L0.08,-0.516L0.16,-0.516L0.16,-0.199C0.16,-0.106 0.199,-0.06 0.278,-0.06C0.294,-0.06 0.31,-0.062 0.325,-0.066C0.339,-0.07 0.353,-0.076 0.365,-0.084C0.376,-0.092 0.386,-0.102 0.393,-0.115C0.4,-0.127 0.403,-0.142 0.403,-0.159L0.403,-0.516L0.483,-0.516L0.483,-0L0.403,-0L0.403,-0.084Z" style="fill-rule:nonzero;"/>
        </g>
        <g transform="matrix(17.0541,0,0,17.0541,67.1636,182.344)">
            <path d="M0.17,-0C0.142,-0 0.121,-0.008 0.107,-0.024C0.092,-0.039 0.085,-0.059 0.085,-0.083L0.085,-0.74L0.165,-0.74L0.165,-0.07L0.241,-0.07L0.241,-0L0.17,-0Z" style="fill-rule:nonzero;"/>
        </g>
        <g transform="matrix(17.0541,0,0,17.0541,71.8023,182.344)">
            <path d="M0.46,-0C0.43,-0 0.409,-0.008 0.396,-0.024C0.383,-0.04 0.374,-0.06 0.371,-0.084L0.366,-0.084C0.355,-0.052 0.336,-0.028 0.31,-0.012C0.284,0.004 0.253,0.012 0.217,0.012C0.162,0.012 0.12,-0.002 0.09,-0.03C0.059,-0.058 0.044,-0.096 0.044,-0.144C0.044,-0.193 0.062,-0.23 0.098,-0.256C0.133,-0.282 0.189,-0.295 0.264,-0.295L0.366,-0.295L0.366,-0.346C0.366,-0.383 0.356,-0.411 0.336,-0.43C0.316,-0.449 0.285,-0.459 0.244,-0.459C0.213,-0.459 0.187,-0.452 0.166,-0.438C0.145,-0.424 0.127,-0.405 0.113,-0.382L0.065,-0.427C0.079,-0.455 0.101,-0.479 0.132,-0.499C0.163,-0.518 0.201,-0.528 0.248,-0.528C0.311,-0.528 0.359,-0.513 0.394,-0.482C0.429,-0.451 0.446,-0.409 0.446,-0.354L0.446,-0.07L0.505,-0.07L0.505,-0L0.46,-0ZM0.23,-0.056C0.25,-0.056 0.268,-0.058 0.285,-0.063C0.302,-0.068 0.316,-0.074 0.328,-0.083C0.34,-0.092 0.349,-0.102 0.356,-0.113C0.363,-0.124 0.366,-0.137 0.366,-0.15L0.366,-0.235L0.26,-0.235C0.214,-0.235 0.181,-0.228 0.16,-0.215C0.138,-0.202 0.128,-0.182 0.128,-0.157L0.128,-0.136C0.128,-0.111 0.137,-0.091 0.156,-0.077C0.174,-0.063 0.199,-0.056 0.23,-0.056Z" style="fill-rule:nonzero;"/>
        </g>
        <g transform="matrix(17.0541,0,0,17.0541,80.9092,182.344)">
            <path d="M0.085,-0L0.085,-0.516L0.165,-0.516L0.165,-0.421L0.17,-0.421C0.179,-0.446 0.196,-0.468 0.22,-0.487C0.244,-0.506 0.277,-0.516 0.319,-0.516L0.35,-0.516L0.35,-0.436L0.303,-0.436C0.26,-0.436 0.226,-0.428 0.202,-0.412C0.177,-0.395 0.165,-0.375 0.165,-0.35L0.165,-0L0.085,-0Z" style="fill-rule:nonzero;"/>
        </g>
        <g transform="matrix(17.0541,0,0,17.0541,87.1681,182.344)">
            <path d="M0.125,-0.637C0.108,-0.637 0.095,-0.641 0.088,-0.65C0.08,-0.658 0.076,-0.669 0.076,-0.682L0.076,-0.695C0.076,-0.708 0.08,-0.719 0.088,-0.728C0.095,-0.736 0.108,-0.74 0.125,-0.74C0.142,-0.74 0.155,-0.736 0.163,-0.728C0.17,-0.719 0.174,-0.708 0.174,-0.695L0.174,-0.682C0.174,-0.669 0.17,-0.658 0.163,-0.65C0.155,-0.641 0.142,-0.637 0.125,-0.637ZM0.085,-0.516L0.165,-0.516L0.165,-0L0.085,-0L0.085,-0.516Z" style="fill-rule:nonzero;"/>
        </g>
        <g transform="matrix(17.0541,0,0,17.0541,91.4316,182.344)">
            <path d="M0.415,-0.084L0.411,-0.084C0.38,-0.02 0.329,0.012 0.26,0.012C0.228,0.012 0.199,0.006 0.173,-0.007C0.147,-0.02 0.125,-0.038 0.107,-0.061C0.088,-0.084 0.074,-0.113 0.065,-0.146C0.055,-0.179 0.05,-0.217 0.05,-0.258C0.05,-0.299 0.055,-0.337 0.065,-0.37C0.074,-0.403 0.088,-0.432 0.107,-0.455C0.125,-0.478 0.147,-0.496 0.173,-0.509C0.199,-0.522 0.228,-0.528 0.26,-0.528C0.296,-0.528 0.327,-0.52 0.353,-0.505C0.378,-0.489 0.398,-0.465 0.411,-0.432L0.415,-0.432L0.415,-0.74L0.495,-0.74L0.495,-0L0.415,-0L0.415,-0.084ZM0.282,-0.06C0.3,-0.06 0.317,-0.062 0.334,-0.067C0.35,-0.072 0.364,-0.079 0.376,-0.088C0.388,-0.097 0.398,-0.108 0.405,-0.121C0.412,-0.134 0.415,-0.148 0.415,-0.165L0.415,-0.357C0.415,-0.371 0.412,-0.384 0.405,-0.397C0.398,-0.409 0.388,-0.419 0.376,-0.428C0.364,-0.437 0.35,-0.444 0.334,-0.449C0.317,-0.454 0.3,-0.456 0.282,-0.456C0.237,-0.456 0.201,-0.442 0.175,-0.414C0.149,-0.385 0.136,-0.348 0.136,-0.302L0.136,-0.214C0.136,-0.168 0.149,-0.131 0.175,-0.103C0.201,-0.074 0.237,-0.06 0.282,-0.06Z" style="fill-rule:nonzero;"/>
        </g>
        <g transform="matrix(17.0541,0,0,17.0541,101.323,182.344)">
            <path d="M0.46,-0C0.43,-0 0.409,-0.008 0.396,-0.024C0.383,-0.04 0.374,-0.06 0.371,-0.084L0.366,-0.084C0.355,-0.052 0.336,-0.028 0.31,-0.012C0.284,0.004 0.253,0.012 0.217,0.012C0.162,0.012 0.12,-0.002 0.09,-0.03C0.059,-0.058 0.044,-0.096 0.044,-0.144C0.044,-0.193 0.062,-0.23 0.098,-0.256C0.133,-0.282 0.189,-0.295 0.264,-0.295L0.366,-0.295L0.366,-0.346C0.366,-0.383 0.356,-0.411 0.336,-0.43C0.316,-0.449 0.285,-0.459 0.244,-0.459C0.213,-0.459 0.187,-0.452 0.166,-0.438C0.145,-0.424 0.127,-0.405 0.113,-0.382L0.065,-0.427C0.079,-0.455 0.101,-0.479 0.132,-0.499C0.163,-0.518 0.201,-0.528 0.248,-0.528C0.311,-0.528 0.359,-0.513 0.394,-0.482C0.429,-0.451 0.446,-0.409 0.446,-0.354L0.446,-0.07L0.505,-0.07L0.505,-0L0.46,-0ZM0.23,-0.056C0.25,-0.056 0.268,-0.058 0.285,-0.063C0.302,-0.068 0.316,-0.074 0.328,-0.083C0.34,-0.092 0.349,-0.102 0.356,-0.113C0.363,-0.124 0.366,-0.137 0.366,-0.15L0.366,-0.235L0.26,-0.235C0.214,-0.235 0.181,-0.228 0.16,-0.215C0.138,-0.202 0.128,-0.182 0.128,-0.157L0.128,-0.136C0.128,-0.111 0.137,-0.091 0.156,-0.077C0.174,-0.063 0.199,-0.056 0.23,-0.056Z" style="fill-rule:nonzero;"/>
        </g>
        <g transform="matrix(17.0541,0,0,17.0541,110.43,182.344)">
            <path d="M0.415,-0.084L0.411,-0.084C0.38,-0.02 0.329,0.012 0.26,0.012C0.228,0.012 0.199,0.006 0.173,-0.007C0.147,-0.02 0.125,-0.038 0.107,-0.061C0.088,-0.084 0.074,-0.113 0.065,-0.146C0.055,-0.179 0.05,-0.217 0.05,-0.258C0.05,-0.299 0.055,-0.337 0.065,-0.37C0.074,-0.403 0.088,-0.432 0.107,-0.455C0.125,-0.478 0.147,-0.496 0.173,-0.509C0.199,-0.522 0.228,-0.528 0.26,-0.528C0.296,-0.528 0.327,-0.52 0.353,-0.505C0.378,-0.489 0.398,-0.465 0.411,-0.432L0.415,-0.432L0.415,-0.74L0.495,-0.74L0.495,-0L0.415,-0L0.415,-0.084ZM0.282,-0.06C0.3,-0.06 0.317,-0.062 0.334,-0.067C0.35,-0.072 0.364,-0.079 0.376,-0.088C0.388,-0.097 0.398,-0.108 0.405,-0.121C0.412,-0.134 0.415,-0.148 0.415,-0.165L0.415,-0.357C0.415,-0.371 0.412,-0.384 0.405,-0.397C0.398,-0.409 0.388,-0.419 0.376,-0.428C0.364,-0.437 0.35,-0.444 0.334,-0.449C0.317,-0.454 0.3,-0.456 0.282,-0.456C0.237,-0.456 0.201,-0.442 0.175,-0.414C0.149,-0.385 0.136,-0.348 0.136,-0.302L0.136,-0.214C0.136,-0.168 0.149,-0.131 0.175,-0.103C0.201,-0.074 0.237,-0.06 0.282,-0.06Z" style="fill-rule:nonzero;"/>
        </g>
    </g>
    <g transform="matrix(1.05547,0,0,1.05547,606.654,-6.05078)">
        <g transform="matrix(17.0541,0,0,17.0541,28.0415,182.344)">
            <path d="M0.53,-0L0.46,-0.206L0.178,-0.206L0.108,-0L0.023,-0L0.267,-0.698L0.374,-0.698L0.618,-0L0.53,-0ZM0.321,-0.62L0.316,-0.62L0.198,-0.28L0.439,-0.28L0.321,-0.62Z" style="fill-rule:nonzero;"/>
        </g>
        <g transform="matrix(17.0541,0,0,17.0541,38.9732,182.344)">
            <path d="M0.277,0.012C0.241,0.012 0.209,0.006 0.18,-0.007C0.151,-0.02 0.127,-0.038 0.108,-0.061C0.088,-0.084 0.073,-0.113 0.063,-0.146C0.052,-0.179 0.047,-0.217 0.047,-0.258C0.047,-0.299 0.052,-0.337 0.063,-0.37C0.073,-0.403 0.088,-0.432 0.108,-0.455C0.127,-0.478 0.151,-0.496 0.18,-0.509C0.209,-0.522 0.241,-0.528 0.277,-0.528C0.328,-0.528 0.37,-0.517 0.401,-0.495C0.432,-0.472 0.455,-0.443 0.47,-0.407L0.403,-0.373C0.394,-0.4 0.378,-0.42 0.357,-0.435C0.336,-0.45 0.309,-0.457 0.277,-0.457C0.253,-0.457 0.232,-0.453 0.214,-0.446C0.196,-0.438 0.181,-0.427 0.169,-0.414C0.157,-0.4 0.148,-0.384 0.142,-0.365C0.136,-0.345 0.133,-0.325 0.133,-0.302L0.133,-0.214C0.133,-0.169 0.145,-0.131 0.17,-0.103C0.194,-0.074 0.23,-0.059 0.277,-0.059C0.342,-0.059 0.388,-0.089 0.417,-0.149L0.475,-0.11C0.458,-0.073 0.434,-0.043 0.401,-0.021C0.368,0.001 0.326,0.012 0.277,0.012Z" style="fill-rule:nonzero;"/>
        </g>
        <g transform="matrix(17.0541,0,0,17.0541,47.5514,182.344)">
            <path d="M0.199,-0C0.171,-0 0.15,-0.008 0.136,-0.024C0.121,-0.039 0.114,-0.06 0.114,-0.085L0.114,-0.446L0.029,-0.446L0.029,-0.516L0.077,-0.516C0.094,-0.516 0.106,-0.52 0.113,-0.527C0.119,-0.534 0.122,-0.546 0.122,-0.563L0.122,-0.659L0.194,-0.659L0.194,-0.516L0.307,-0.516L0.307,-0.446L0.194,-0.446L0.194,-0.07L0.299,-0.07L0.299,-0L0.199,-0Z" style="fill-rule:nonzero;"/>
        </g>
        <g transform="matrix(17.0541,0,0,17.0541,53.5374,182.344)">
            <path d="M0.125,-0.637C0.108,-0.637 0.095,-0.641 0.088,-0.65C0.08,-0.658 0.076,-0.669 0.076,-0.682L0.076,-0.695C0.076,-0.708 0.08,-0.719 0.088,-0.728C0.095,-0.736 0.108,-0.74 0.125,-0.74C0.142,-0.74 0.155,-0.736 0.163,-0.728C0.17,-0.719 0.174,-0.708 0.174,-0.695L0.174,-0.682C0.174,-0.669 0.17,-0.658 0.163,-0.65C0.155,-0.641 0.142,-0.637 0.125,-0.637ZM0.085,-0.516L0.165,-0.516L0.165,-0L0.085,-0L0.085,-0.516Z" style="fill-rule:nonzero;"/>
        </g>
        <g transform="matrix(17.0541,0,0,17.0541,57.8009,182.344)">
            <path d="M0.199,-0L0.018,-0.516L0.098,-0.516L0.188,-0.26L0.244,-0.084L0.249,-0.084L0.305,-0.26L0.397,-0.516L0.474,-0.516L0.292,-0L0.199,-0Z" style="fill-rule:nonzero;"/>
        </g>
        <g transform="matrix(17.0541,0,0,17.0541,66.1915,182.344)">
            <path d="M0.125,-0.637C0.108,-0.637 0.095,-0.641 0.088,-0.65C0.08,-0.658 0.076,-0.669 0.076,-0.682L0.076,-0.695C0.076,-0.708 0.08,-0.719 0.088,-0.728C0.095,-0.736 0.108,-0.74 0.125,-0.74C0.142,-0.74 0.155,-0.736 0.163,-0.728C0.17,-0.719 0.174,-0.708 0.174,-0.695L0.174,-0.682C0.174,-0.669 0.17,-0.658 0.163,-0.65C0.155,-0.641 0.142,-0.637 0.125,-0.637ZM0.085,-0.516L0.165,-0.516L0.165,-0L0.085,-0L0.085,-0.516Z" style="fill-rule:nonzero;"/>
        </g>
        <g transform="matrix(17.0541,0,0,17.0541,70.4551,182.344)">
            <path d="M0.415,-0.084L0.411,-0.084C0.38,-0.02 0.329,0.012 0.26,0.012C0.228,0.012 0.199,0.006 0.173,-0.007C0.147,-0.02 0.125,-0.038 0.107,-0.061C0.088,-0.084 0.074,-0.113 0.065,-0.146C0.055,-0.179 0.05,-0.217 0.05,-0.258C0.05,-0.299 0.055,-0.337 0.065,-0.37C0.074,-0.403 0.088,-0.432 0.107,-0.455C0.125,-0.478 0.147,-0.496 0.173,-0.509C0.199,-0.522 0.228,-0.528 0.26,-0.528C0.296,-0.528 0.327,-0.52 0.353,-0.505C0.378,-0.489 0.398,-0.465 0.411,-0.432L0.415,-0.432L0.415,-0.74L0.495,-0.74L0.495,-0L0.415,-0L0.415,-0.084ZM0.282,-0.06C0.3,-0.06 0.317,-0.062 0.334,-0.067C0.35,-0.072 0.364,-0.079 0.376,-0.088C0.388,-0.097 0.398,-0.108 0.405,-0.121C0.412,-0.134 0.415,-0.148 0.415,-0.165L0.415,-0.357C0.415,-0.371 0.412,-0.384 0.405,-0.397C0.398,-0.409 0.388,-0.419 0.376,-0.428C0.364,-0.437 0.35,-0.444 0.334,-0.449C0.317,-0.454 0.3,-0.456 0.282,-0.456C0.237,-0.456 0.201,-0.442 0.175,-0.414C0.149,-0.385 0.136,-0.348 0.136,-0.302L0.136,-0.214C0.136,-0.168 0.149,-0.131 0.175,-0.103C0.201,-0.074 0.237,-0.06 0.282,-0.06Z" style="fill-rule:nonzero;"/>
        </g>
        <g transform="matrix(17.0541,0,0,17.0541,80.3464,182.344)">
            <path d="M0.46,-0C0.43,-0 0.409,-0.008 0.396,-0.024C0.383,-0.04 0.374,-0.06 0.371,-0.084L0.366,-0.084C0.355,-0.052 0.336,-0.028 0.31,-0.012C0.284,0.004 0.253,0.012 0.217,0.012C0.162,0.012 0.12,-0.002 0.09,-0.03C0.059,-0.058 0.044,-0.096 0.044,-0.144C0.044,-0.193 0.062,-0.23 0.098,-0.256C0.133,-0.282 0.189,-0.295 0.264,-0.295L0.366,-0.295L0.366,-0.346C0.366,-0.383 0.356,-0.411 0.336,-0.43C0.316,-0.449 0.285,-0.459 0.244,-0.459C0.213,-0.459 0.187,-0.452 0.166,-0.438C0.145,-0.424 0.127,-0.405 0.113,-0.382L0.065,-0.427C0.079,-0.455 0.101,-0.479 0.132,-0.499C0.163,-0.518 0.201,-0.528 0.248,-0.528C0.311,-0.528 0.359,-0.513 0.394,-0.482C0.429,-0.451 0.446,-0.409 0.446,-0.354L0.446,-0.07L0.505,-0.07L0.505,-0L0.46,-0ZM0.23,-0.056C0.25,-0.056 0.268,-0.058 0.285,-0.063C0.302,-0.068 0.316,-0.074 0.328,-0.083C0.34,-0.092 0.349,-0.102 0.356,-0.113C0.363,-0.124 0.366,-0.137 0.366,-0.15L0.366,-0.235L0.26,-0.235C0.214,-0.235 0.181,-0.228 0.16,-0.215C0.138,-0.202 0.128,-0.182 0.128,-0.157L0.128,-0.136C0.128,-0.111 0.137,-0.091 0.156,-0.077C0.174,-0.063 0.199,-0.056 0.23,-0.056Z" style="fill-rule:nonzero;"/>
        </g>
        <g transform="matrix(17.0541,0,0,17.0541,89.4533,182.344)">
            <path d="M0.415,-0.084L0.411,-0.084C0.38,-0.02 0.329,0.012 0.26,0.012C0.228,0.012 0.199,0.006 0.173,-0.007C0.147,-0.02 0.125,-0.038 0.107,-0.061C0.088,-0.084 0.074,-0.113 0.065,-0.146C0.055,-0.179 0.05,-0.217 0.05,-0.258C0.05,-0.299 0.055,-0.337 0.065,-0.37C0.074,-0.403 0.088,-0.432 0.107,-0.455C0.125,-0.478 0.147,-0.496 0.173,-0.509C0.199,-0.522 0.228,-0.528 0.26,-0.528C0.296,-0.528 0.327,-0.52 0.353,-0.505C0.378,-0.489 0.398,-0.465 0.411,-0.432L0.415,-0.432L0.415,-0.74L0.495,-0.74L0.495,-0L0.415,-0L0.415,-0.084ZM0.282,-0.06C0.3,-0.06 0.317,-0.062 0.334,-0.067C0.35,-0.072 0.364,-0.079 0.376,-0.088C0.388,-0.097 0.398,-0.108 0.405,-0.121C0.412,-0.134 0.415,-0.148 0.415,-0.165L0.415,-0.357C0.415,-0.371 0.412,-0.384 0.405,-0.397C0.398,-0.409 0.388,-0.419 0.376,-0.428C0.364,-0.437 0.35,-0.444 0.334,-0.449C0.317,-0.454 0.3,-0.456 0.282,-0.456C0.237,-0.456 0.201,-0.442 0.175,-0.414C0.149,-0.385 0.136,-0.348 0.136,-0.302L0.136,-0.214C0.136,-0.168 0.149,-0.131 0.175,-0.103C0.201,-0.074 0.237,-0.06 0.282,-0.06Z" style="fill-rule:nonzero;"/>
        </g>
    </g>
    <g transform="matrix(1.05547,0,0,1.05547,878.575,-6.05078)">
        <g transform="matrix(17.0541,0,0,17.0541,28.0415,182.344)">
            <path d="M0.339,0.012C0.25,0.012 0.181,-0.018 0.132,-0.079C0.083,-0.139 0.058,-0.228 0.058,-0.345C0.058,-0.462 0.083,-0.553 0.132,-0.616C0.181,-0.679 0.25,-0.71 0.339,-0.71C0.398,-0.71 0.447,-0.697 0.487,-0.67C0.526,-0.643 0.557,-0.606 0.579,-0.557L0.511,-0.516C0.497,-0.552 0.476,-0.581 0.447,-0.603C0.418,-0.624 0.382,-0.635 0.339,-0.635C0.309,-0.635 0.282,-0.629 0.259,-0.618C0.235,-0.607 0.215,-0.591 0.199,-0.57C0.182,-0.549 0.17,-0.524 0.161,-0.495C0.152,-0.466 0.148,-0.433 0.148,-0.397L0.148,-0.293C0.148,-0.221 0.165,-0.165 0.198,-0.124C0.231,-0.083 0.278,-0.063 0.339,-0.063C0.384,-0.063 0.421,-0.075 0.451,-0.098C0.481,-0.121 0.503,-0.151 0.517,-0.189L0.584,-0.147C0.562,-0.098 0.53,-0.059 0.489,-0.031C0.448,-0.002 0.398,0.012 0.339,0.012Z" style="fill-rule:nonzero;"/>
        </g>
        <g transform="matrix(17.0541,0,0,17.0541,38.6321,182.344)">
            <path d="M0.125,-0.637C0.108,-0.637 0.095,-0.641 0.088,-0.65C0.08,-0.658 0.076,-0.669 0.076,-0.682L0.076,-0.695C0.076,-0.708 0.08,-0.719 0.088,-0.728C0.095,-0.736 0.108,-0.74 0.125,-0.74C0.142,-0.74 0.155,-0.736 0.163,-0.728C0.17,-0.719 0.174,-0.708 0.174,-0.695L0.174,-0.682C0.174,-0.669 0.17,-0.658 0.163,-0.65C0.155,-0.641 0.142,-0.637 0.125,-0.637ZM0.085,-0.516L0.165,-0.516L0.165,-0L0.085,-0L0.085,-0.516Z" style="fill-rule:nonzero;"/>
        </g>
        <g transform="matrix(17.0541,0,0,17.0541,42.8957,182.344)">
            <path d="M0.279,0.012C0.244,0.012 0.212,0.006 0.184,-0.007C0.155,-0.02 0.131,-0.038 0.111,-0.062C0.09,-0.085 0.075,-0.114 0.064,-0.147C0.053,-0.18 0.047,-0.217 0.047,-0.258C0.047,-0.299 0.053,-0.336 0.064,-0.369C0.075,-0.402 0.09,-0.431 0.111,-0.455C0.131,-0.478 0.155,-0.496 0.184,-0.509C0.212,-0.522 0.244,-0.528 0.279,-0.528C0.314,-0.528 0.345,-0.522 0.372,-0.509C0.399,-0.496 0.423,-0.479 0.442,-0.457C0.461,-0.434 0.476,-0.408 0.487,-0.377C0.497,-0.346 0.502,-0.313 0.502,-0.276L0.502,-0.238L0.131,-0.238L0.131,-0.214C0.131,-0.192 0.135,-0.171 0.142,-0.153C0.149,-0.133 0.159,-0.117 0.172,-0.103C0.185,-0.089 0.201,-0.078 0.22,-0.07C0.239,-0.062 0.26,-0.058 0.284,-0.058C0.317,-0.058 0.345,-0.066 0.37,-0.081C0.394,-0.096 0.413,-0.118 0.426,-0.147L0.483,-0.106C0.466,-0.071 0.44,-0.042 0.405,-0.021C0.37,0.001 0.328,0.012 0.279,0.012ZM0.279,-0.461C0.257,-0.461 0.237,-0.457 0.219,-0.45C0.201,-0.442 0.186,-0.431 0.173,-0.417C0.16,-0.403 0.149,-0.387 0.142,-0.368C0.135,-0.349 0.131,-0.328 0.131,-0.305L0.131,-0.298L0.416,-0.298L0.416,-0.309C0.416,-0.355 0.404,-0.392 0.379,-0.42C0.354,-0.447 0.32,-0.461 0.279,-0.461Z" style="fill-rule:nonzero;"/>
        </g>
        <g transform="matrix(17.0541,0,0,17.0541,52.2584,182.344)">
            <path d="M0.085,-0L0.085,-0.516L0.165,-0.516L0.165,-0.421L0.17,-0.421C0.179,-0.446 0.196,-0.468 0.22,-0.487C0.244,-0.506 0.277,-0.516 0.319,-0.516L0.35,-0.516L0.35,-0.436L0.303,-0.436C0.26,-0.436 0.226,-0.428 0.202,-0.412C0.177,-0.395 0.165,-0.375 0.165,-0.35L0.165,-0L0.085,-0Z" style="fill-rule:nonzero;"/>
        </g>
        <g transform="matrix(17.0541,0,0,17.0541,58.5172,182.344)">
            <path d="M0.085,-0L0.085,-0.516L0.165,-0.516L0.165,-0.421L0.17,-0.421C0.179,-0.446 0.196,-0.468 0.22,-0.487C0.244,-0.506 0.277,-0.516 0.319,-0.516L0.35,-0.516L0.35,-0.436L0.303,-0.436C0.26,-0.436 0.226,-0.428 0.202,-0.412C0.177,-0.395 0.165,-0.375 0.165,-0.35L0.165,-0L0.085,-0Z" style="fill-rule:nonzero;"/>
        </g>
        <g transform="matrix(17.0541,0,0,17.0541,64.6908,182.344)">
            <path d="M0.279,0.012C0.244,0.012 0.212,0.006 0.184,-0.007C0.155,-0.02 0.131,-0.038 0.111,-0.062C0.09,-0.085 0.075,-0.114 0.064,-0.147C0.053,-0.18 0.047,-0.217 0.047,-0.258C0.047,-0.299 0.053,-0.336 0.064,-0.369C0.075,-0.402 0.09,-0.431 0.111,-0.455C0.131,-0.478 0.155,-0.496 0.184,-0.509C0.212,-0.522 0.244,-0.528 0.279,-0.528C0.314,-0.528 0.345,-0.522 0.372,-0.509C0.399,-0.496 0.423,-0.479 0.442,-0.457C0.461,-0.434 0.476,-0.408 0.487,-0.377C0.497,-0.346 0.502,-0.313 0.502,-0.276L0.502,-0.238L0.131,-0.238L0.131,-0.214C0.131,-0.192 0.135,-0.171 0.142,-0.153C0.149,-0.133 0.159,-0.117 0.172,-0.103C0.185,-0.089 0.201,-0.078 0.22,-0.07C0.239,-0.062 0.26,-0.058 0.284,-0.058C0.317,-0.058 0.345,-0.066 0.37,-0.081C0.394,-0.096 0.413,-0.118 0.426,-0.147L0.483,-0.106C0.466,-0.071 0.44,-0.042 0.405,-0.021C0.37,0.001 0.328,0.012 0.279,0.012ZM0.279,-0.461C0.257,-0.461 0.237,-0.457 0.219,-0.45C0.201,-0.442 0.186,-0.431 0.173,-0.417C0.16,-0.403 0.149,-0.387 0.142,-0.368C0.135,-0.349 0.131,-0.328 0.131,-0.305L0.131,-0.298L0.416,-0.298L0.416,-0.309C0.416,-0.355 0.404,-0.392 0.379,-0.42C0.354,-0.447 0.32,-0.461 0.279,-0.461Z" style="fill-rule:nonzero;"/>
        </g>
        <g transform="matrix(17.0541,0,0,17.0541,78.0782,182.344)">
            <path d="M0.328,-0.624L0.328,-0L0.244,-0L0.244,-0.624L0.022,-0.624L0.022,-0.698L0.55,-0.698L0.55,-0.624L0.328,-0.624Z" style="fill-rule:nonzero;"/>
        </g>
        <g transform="matrix(17.0541,0,0,17.0541,87.0658,182.344)">
            <path d="M0.085,-0L0.085,-0.516L0.165,-0.516L0.165,-0.421L0.17,-0.421C0.179,-0.446 0.196,-0.468 0.22,-0.487C0.244,-0.506 0.277,-0.516 0.319,-0.516L0.35,-0.516L0.35,-0.436L0.303,-0.436C0.26,-0.436 0.226,-0.428 0.202,-0.412C0.177,-0.395 0.165,-0.375 0.165,-0.35L0.165,-0L0.085,-0Z" style="fill-rule:nonzero;"/>
        </g>
        <g transform="matrix(17.0541,0,0,17.0541,93.2564,182.344)">
            <path d="M0.46,-0C0.43,-0 0.409,-0.008 0.396,-0.024C0.383,-0.04 0.374,-0.06 0.371,-0.084L0.366,-0.084C0.355,-0.052 0.336,-0.028 0.31,-0.012C0.284,0.004 0.253,0.012 0.217,0.012C0.162,0.012 0.12,-0.002 0.09,-0.03C0.059,-0.058 0.044,-0.096 0.044,-0.144C0.044,-0.193 0.062,-0.23 0.098,-0.256C0.133,-0.282 0.189,-0.295 0.264,-0.295L0.366,-0.295L0.366,-0.346C0.366,-0.383 0.356,-0.411 0.336,-0.43C0.316,-0.449 0.285,-0.459 0.244,-0.459C0.213,-0.459 0.187,-0.452 0.166,-0.438C0.145,-0.424 0.127,-0.405 0.113,-0.382L0.065,-0.427C0.079,-0.455 0.101,-0.479 0.132,-0.499C0.163,-0.518 0.201,-0.528 0.248,-0.528C0.311,-0.528 0.359,-0.513 0.394,-0.482C0.429,-0.451 0.446,-0.409 0.446,-0.354L0.446,-0.07L0.505,-0.07L0.505,-0L0.46,-0ZM0.23,-0.056C0.25,-0.056 0.268,-0.058 0.285,-0.063C0.302,-0.068 0.316,-0.074 0.328,-0.083C0.34,-0.092 0.349,-0.102 0.356,-0.113C0.363,-0.124 0.366,-0.137 0.366,-0.15L0.366,-0.235L0.26,-0.235C0.214,-0.235 0.181,-0.228 0.16,-0.215C0.138,-0.202 0.128,-0.182 0.128,-0.157L0.128,-0.136C0.128,-0.111 0.137,-0.091 0.156,-0.077C0.174,-0.063 0.199,-0.056 0.23,-0.056Z" style="fill-rule:nonzero;"/>
        </g>
        <g transform="matrix(17.0541,0,0,17.0541,102.363,182.344)">
            <path d="M0.085,-0L0.085,-0.516L0.165,-0.516L0.165,-0.432L0.169,-0.432C0.182,-0.461 0.2,-0.485 0.223,-0.502C0.246,-0.519 0.276,-0.528 0.315,-0.528C0.368,-0.528 0.411,-0.511 0.442,-0.477C0.472,-0.442 0.488,-0.394 0.488,-0.331L0.488,-0L0.408,-0L0.408,-0.317C0.408,-0.41 0.369,-0.456 0.291,-0.456C0.275,-0.456 0.26,-0.454 0.245,-0.45C0.23,-0.446 0.216,-0.44 0.204,-0.432C0.192,-0.424 0.183,-0.414 0.176,-0.402C0.169,-0.389 0.165,-0.375 0.165,-0.358L0.165,-0L0.085,-0Z" style="fill-rule:nonzero;"/>
        </g>
        <g transform="matrix(17.0541,0,0,17.0541,112.05,182.344)">
            <path d="M0.24,0.012C0.192,0.012 0.152,0.003 0.12,-0.016C0.087,-0.034 0.059,-0.058 0.036,-0.089L0.093,-0.135C0.113,-0.11 0.135,-0.09 0.16,-0.077C0.185,-0.063 0.213,-0.056 0.246,-0.056C0.28,-0.056 0.307,-0.063 0.326,-0.078C0.345,-0.093 0.354,-0.113 0.354,-0.14C0.354,-0.16 0.347,-0.177 0.335,-0.192C0.322,-0.206 0.298,-0.216 0.264,-0.221L0.223,-0.227C0.199,-0.23 0.177,-0.236 0.157,-0.243C0.137,-0.249 0.119,-0.259 0.105,-0.271C0.09,-0.282 0.078,-0.297 0.07,-0.314C0.061,-0.331 0.057,-0.352 0.057,-0.376C0.057,-0.401 0.062,-0.424 0.071,-0.443C0.08,-0.462 0.093,-0.477 0.11,-0.49C0.126,-0.503 0.145,-0.512 0.168,-0.519C0.191,-0.525 0.215,-0.528 0.241,-0.528C0.283,-0.528 0.318,-0.521 0.347,-0.506C0.375,-0.491 0.4,-0.471 0.421,-0.445L0.368,-0.397C0.357,-0.413 0.34,-0.428 0.318,-0.441C0.296,-0.454 0.268,-0.46 0.235,-0.46C0.202,-0.46 0.177,-0.453 0.16,-0.439C0.142,-0.424 0.134,-0.405 0.134,-0.38C0.134,-0.355 0.142,-0.336 0.16,-0.325C0.177,-0.314 0.201,-0.305 0.233,-0.3L0.273,-0.294C0.33,-0.285 0.371,-0.269 0.395,-0.245C0.419,-0.22 0.431,-0.188 0.431,-0.149C0.431,-0.099 0.414,-0.06 0.38,-0.031C0.346,-0.002 0.299,0.012 0.24,0.012Z" style="fill-rule:nonzero;"/>
        </g>
        <g transform="matrix(17.0541,0,0,17.0541,120.355,182.344)">
            <path d="M0.125,-0.637C0.108,-0.637 0.095,-0.641 0.088,-0.65C0.08,-0.658 0.076,-0.669 0.076,-0.682L0.076,-0.695C0.076,-0.708 0.08,-0.719 0.088,-0.728C0.095,-0.736 0.108,-0.74 0.125,-0.74C0.142,-0.74 0.155,-0.736 0.163,-0.728C0.17,-0.719 0.174,-0.708 0.174,-0.695L0.174,-0.682C0.174,-0.669 0.17,-0.658 0.163,-0.65C0.155,-0.641 0.142,-0.637 0.125,-0.637ZM0.085,-0.516L0.165,-0.516L0.165,-0L0.085,-0L0.085,-0.516Z" style="fill-rule:nonzero;"/>
        </g>
        <g transform="matrix(17.0541,0,0,17.0541,124.619,182.344)">
            <path d="M0.199,-0C0.171,-0 0.15,-0.008 0.136,-0.024C0.121,-0.039 0.114,-0.06 0.114,-0.085L0.114,-0.446L0.029,-0.446L0.029,-0.516L0.077,-0.516C0.094,-0.516 0.106,-0.52 0.113,-0.527C0.119,-0.534 0.122,-0.546 0.122,-0.563L0.122,-0.659L0.194,-0.659L0.194,-0.516L0.307,-0.516L0.307,-0.446L0.194,-0.446L0.194,-0.07L0.299,-0.07L0.299,-0L0.199,-0Z" style="fill-rule:nonzero;"/>
        </g>
        <g transform="matrix(17.0541,0,0,17.0541,130.605,182.344)">
            <path d="M0.125,-0.637C0.108,-0.637 0.095,-0.641 0.088,-0.65C0.08,-0.658 0.076,-0.669 0.076,-0.682L0.076,-0.695C0.076,-0.708 0.08,-0.719 0.088,-0.728C0.095,-0.736 0.108,-0.74 0.125,-0.74C0.142,-0.74 0.155,-0.736 0.163,-0.728C0.17,-0.719 0.174,-0.708 0.174,-0.695L0.174,-0.682C0.174,-0.669 0.17,-0.658 0.163,-0.65C0.155,-0.641 0.142,-0.637 0.125,-0.637ZM0.085,-0.516L0.165,-0.516L0.165,-0L0.085,-0L0.085,-0.516Z" style="fill-rule:nonzero;"/>
        </g>
        <g transform="matrix(17.0541,0,0,17.0541,134.868,182.344)">
            <path d="M0.199,-0L0.018,-0.516L0.098,-0.516L0.188,-0.26L0.244,-0.084L0.249,-0.084L0.305,-0.26L0.397,-0.516L0.474,-0.516L0.292,-0L0.199,-0Z" style="fill-rule:nonzero;"/>
        </g>
        <g transform="matrix(17.0541,0,0,17.0541,143.123,182.344)">
            <path d="M0.28,0.012C0.245,0.012 0.214,0.006 0.185,-0.007C0.156,-0.02 0.132,-0.038 0.112,-0.062C0.091,-0.085 0.075,-0.114 0.064,-0.147C0.053,-0.18 0.047,-0.217 0.047,-0.258C0.047,-0.299 0.053,-0.336 0.064,-0.369C0.075,-0.402 0.091,-0.431 0.112,-0.455C0.132,-0.478 0.156,-0.496 0.185,-0.509C0.214,-0.522 0.245,-0.528 0.28,-0.528C0.315,-0.528 0.346,-0.522 0.375,-0.509C0.403,-0.496 0.427,-0.478 0.448,-0.455C0.469,-0.431 0.485,-0.402 0.496,-0.369C0.507,-0.336 0.513,-0.299 0.513,-0.258C0.513,-0.217 0.507,-0.18 0.496,-0.147C0.485,-0.114 0.469,-0.085 0.448,-0.062C0.427,-0.038 0.403,-0.02 0.375,-0.007C0.346,0.006 0.315,0.012 0.28,0.012ZM0.28,-0.059C0.323,-0.059 0.359,-0.072 0.386,-0.099C0.413,-0.126 0.427,-0.166 0.427,-0.221L0.427,-0.295C0.427,-0.35 0.413,-0.39 0.386,-0.417C0.359,-0.444 0.323,-0.457 0.28,-0.457C0.237,-0.457 0.201,-0.444 0.174,-0.417C0.147,-0.39 0.133,-0.35 0.133,-0.295L0.133,-0.221C0.133,-0.166 0.147,-0.126 0.174,-0.099C0.201,-0.072 0.237,-0.059 0.28,-0.059Z" style="fill-rule:nonzero;"/>
        </g>
    </g>
</svg>
