<?xml version="1.0" encoding="UTF-8" standalone="no"?>
<!DOCTYPE svg PUBLIC "-//W3C//DTD SVG 1.1//EN" "http://www.w3.org/Graphics/SVG/1.1/DTD/svg11.dtd">
<svg width="100%" height="100%" viewBox="0 0 102 75" version="1.1" xmlns="http://www.w3.org/2000/svg" xmlns:xlink="http://www.w3.org/1999/xlink" xml:space="preserve" xmlns:serif="http://www.serif.com/" style="fill-rule:evenodd;clip-rule:evenodd;stroke-linejoin:round;stroke-miterlimit:2;">
    <g transform="matrix(0.730723,0,0,0.730723,23.329,16.4873)">
        <path d="M83.563,71L83.563,70.272L86.475,70.272L86.475,61.844L86.405,61.844L83.717,64.238L83.241,63.706L86.027,61.228L87.301,61.228L87.301,70.272L90.031,70.272L90.031,71L83.563,71Z" style="fill-rule:nonzero;"/>
    </g>
    <path d="M21.213,46.213C25.118,42.308 25.118,35.976 21.213,32.071C17.308,28.166 10.976,28.166 7.071,32.071C3.166,35.976 3.166,42.308 7.071,46.213C10.976,50.118 17.308,50.118 21.213,46.213Z" style="fill:rgb(2,48,71);fill-rule:nonzero;"/>
    <path d="M94.213,46.213C98.118,42.308 98.118,35.976 94.213,32.071C90.308,28.166 83.976,28.166 80.071,32.071C76.166,35.976 76.166,42.308 80.071,46.213C83.976,50.118 90.308,50.118 94.213,46.213Z" style="fill:rgb(239,35,60);fill-rule:nonzero;"/>
    <path d="M74.354,39.354C74.549,39.158 74.549,38.842 74.354,38.646L71.172,35.465C70.976,35.269 70.66,35.269 70.465,35.465C70.269,35.66 70.269,35.976 70.465,36.172L73.293,39L70.465,41.828C70.269,42.024 70.269,42.34 70.465,42.536C70.66,42.731 70.976,42.731 71.172,42.536L74.354,39.354ZM74,38.5L27,38.5L27,39.5L74,39.5L74,38.5Z" style="fill-rule:nonzero;"/>
    <g transform="matrix(0.58752,0,0,0.58752,5.56835,7.09136)">
        <path d="M11.988,15.448L11.828,15.448C11.711,15.949 11.423,16.365 10.964,16.696C10.516,17.027 9.881,17.192 9.06,17.192C8.452,17.192 7.897,17.08 7.396,16.856C6.895,16.621 6.468,16.269 6.116,15.8C5.764,15.331 5.487,14.733 5.284,14.008C5.092,13.272 4.996,12.408 4.996,11.416C4.996,9.421 5.369,7.96 6.116,7.032C6.863,6.104 7.913,5.64 9.268,5.64C10.249,5.64 11.033,5.853 11.62,6.28C12.207,6.696 12.665,7.272 12.996,8.008L11.94,8.648C11.727,8.061 11.401,7.603 10.964,7.272C10.527,6.941 9.961,6.776 9.268,6.776C8.34,6.776 7.625,7.085 7.124,7.704C6.623,8.312 6.372,9.133 6.372,10.168L6.372,12.664C6.372,13.699 6.623,14.525 7.124,15.144C7.625,15.752 8.34,16.056 9.268,16.056C9.631,16.056 9.972,16.003 10.292,15.896C10.623,15.789 10.905,15.635 11.14,15.432C11.385,15.219 11.577,14.963 11.716,14.664C11.855,14.355 11.924,14.008 11.924,13.624L11.924,12.408L9.716,12.408L9.716,11.288L13.172,11.288L13.172,17L11.988,17L11.988,15.448ZM18.515,17.192C17.907,17.192 17.385,17.085 16.947,16.872C16.51,16.659 16.147,16.323 15.859,15.864C15.582,15.395 15.374,14.797 15.235,14.072C15.097,13.336 15.027,12.451 15.027,11.416C15.027,10.381 15.097,9.501 15.235,8.776C15.374,8.04 15.582,7.443 15.859,6.984C16.147,6.515 16.51,6.173 16.947,5.96C17.385,5.747 17.907,5.64 18.515,5.64C19.123,5.64 19.646,5.747 20.083,5.96C20.521,6.173 20.878,6.515 21.155,6.984C21.443,7.443 21.657,8.04 21.795,8.776C21.934,9.501 22.003,10.381 22.003,11.416C22.003,12.451 21.934,13.336 21.795,14.072C21.657,14.797 21.443,15.395 21.155,15.864C20.878,16.323 20.521,16.659 20.083,16.872C19.646,17.085 19.123,17.192 18.515,17.192ZM18.515,16.088C19.283,16.088 19.833,15.816 20.163,15.272C20.494,14.717 20.659,13.944 20.659,12.952L20.659,9.88C20.659,8.888 20.494,8.12 20.163,7.576C19.833,7.021 19.283,6.744 18.515,6.744C17.747,6.744 17.198,7.021 16.867,7.576C16.537,8.12 16.371,8.888 16.371,9.88L16.371,12.952C16.371,13.944 16.537,14.717 16.867,15.272C17.198,15.816 17.747,16.088 18.515,16.088Z" style="fill-rule:nonzero;"/>
    </g>
</svg>
