<?xml version="1.0" encoding="UTF-8" standalone="no"?>
<!DOCTYPE svg PUBLIC "-//W3C//DTD SVG 1.1//EN" "http://www.w3.org/Graphics/SVG/1.1/DTD/svg11.dtd">
<svg width="100%" height="100%" viewBox="0 0 272 101" version="1.1" xmlns="http://www.w3.org/2000/svg" xmlns:xlink="http://www.w3.org/1999/xlink" xml:space="preserve" xmlns:serif="http://www.serif.com/" style="fill-rule:evenodd;clip-rule:evenodd;">
    <g transform="matrix(1,0,0,1,1.83655,-446.542)">
        <path d="M257.349,520.135L222.697,512.017" style="fill:none;fill-rule:nonzero;stroke:rgb(3,149,182);stroke-width:1px;"/>
        <path d="M68.49,474.856L119.805,488.344" style="fill:none;fill-rule:nonzero;stroke:rgb(255,0,105);stroke-width:1px;"/>
        <path d="M192.206,534.895L161.918,515.249" style="fill:none;fill-rule:nonzero;stroke:rgb(3,149,182);stroke-width:1px;"/>
        <path d="M100.844,519.464L161.918,515.249" style="fill:none;fill-rule:nonzero;stroke:rgb(127,121,180);stroke-width:1px;"/>
        <path d="M38.38,491.882L41.167,523.206" style="fill:none;fill-rule:nonzero;stroke:rgb(255,0,105);stroke-width:1px;"/>
        <path d="M119.805,488.344L174.12,479.236" style="fill:none;fill-rule:nonzero;stroke:rgb(127,121,180);stroke-width:1px;"/>
        <path d="M222.697,512.017L161.918,515.249" style="fill:none;fill-rule:nonzero;stroke:rgb(3,149,182);stroke-width:1px;"/>
        <path d="M222.697,512.017L193.901,503.425" style="fill:none;fill-rule:nonzero;stroke:rgb(3,149,182);stroke-width:1px;"/>
        <path d="M222.697,512.017L207.897,475.972" style="fill:none;fill-rule:nonzero;stroke:rgb(3,149,182);stroke-width:1px;"/>
        <path d="M207.897,475.972L174.12,479.236" style="fill:none;fill-rule:nonzero;stroke:rgb(3,149,182);stroke-width:1px;"/>
        <path d="M174.12,479.236L222.697,512.017" style="fill:none;fill-rule:nonzero;stroke:rgb(3,149,182);stroke-width:1px;"/>
        <path d="M161.918,515.249L207.897,475.972" style="fill:none;fill-rule:nonzero;stroke:rgb(3,149,182);stroke-width:1px;"/>
        <path d="M193.901,503.425L161.918,515.249" style="fill:none;fill-rule:nonzero;stroke:rgb(3,149,182);stroke-width:1px;"/>
        <path d="M193.901,503.425L207.897,475.972" style="fill:none;fill-rule:nonzero;stroke:rgb(3,149,182);stroke-width:1px;"/>
        <path d="M119.805,488.344L100.844,519.464" style="fill:none;fill-rule:nonzero;stroke:rgb(255,0,105);stroke-width:1px;"/>
        <path d="M192.206,534.895L222.697,512.017" style="fill:none;fill-rule:nonzero;stroke:rgb(3,149,182);stroke-width:1px;"/>
        <path d="M70.22,506.905L100.844,519.464" style="fill:none;fill-rule:nonzero;stroke:rgb(255,0,105);stroke-width:1px;"/>
        <path d="M70.22,506.905L119.805,488.344" style="fill:none;fill-rule:nonzero;stroke:rgb(255,0,105);stroke-width:1px;"/>
        <path d="M41.167,523.206L100.844,519.464" style="fill:none;fill-rule:nonzero;stroke:rgb(255,0,105);stroke-width:1px;"/>
        <path d="M38.38,491.882L70.22,506.905" style="fill:none;fill-rule:nonzero;stroke:rgb(255,0,105);stroke-width:1px;"/>
        <path d="M38.38,491.882L68.49,474.856" style="fill:none;fill-rule:nonzero;stroke:rgb(255,0,105);stroke-width:1px;"/>
        <path d="M41.167,523.206L70.22,506.905" style="fill:none;fill-rule:nonzero;stroke:rgb(255,0,105);stroke-width:1px;"/>
        <path d="M119.805,488.344L161.918,515.249" style="fill:none;fill-rule:nonzero;stroke:rgb(127,121,180);stroke-width:1px;"/>
        <path d="M100.844,519.464L68.49,474.856" style="fill:none;fill-rule:nonzero;stroke:rgb(255,0,105);stroke-width:1px;"/>
        <path d="M174.12,479.236L192.206,534.895" style="fill:none;fill-rule:nonzero;stroke:rgb(3,149,182);stroke-width:1px;"/>
        <path d="M10.225,482.067L32.661,458.603" style="fill:none;fill-rule:nonzero;stroke:rgb(255,0,105);stroke-width:1px;"/>
        <path d="M10.225,482.067L41.167,523.206" style="fill:none;fill-rule:nonzero;stroke:rgb(255,0,105);stroke-width:1px;"/>
        <path d="M32.661,458.603L70.22,506.905" style="fill:none;fill-rule:nonzero;stroke:rgb(255,0,105);stroke-width:1px;"/>
        <path d="M10.225,482.067L38.38,491.882" style="fill:none;fill-rule:nonzero;stroke:rgb(255,0,105);stroke-width:1px;"/>
        <path d="M68.49,474.856L41.167,523.206" style="fill:none;fill-rule:nonzero;stroke:rgb(255,0,105);stroke-width:1px;"/>
        <path d="M68.49,474.856L10.225,482.067" style="fill:none;fill-rule:nonzero;stroke:rgb(255,0,105);stroke-width:1px;"/>
        <circle cx="68.49" cy="474.856" r="10" style="fill:rgb(239,35,61);"/>
        <circle cx="32.661" cy="458.603" r="10" style="fill:rgb(239,35,61);"/>
        <circle cx="174.12" cy="479.236" r="10" style="fill:rgb(3,149,182);stroke:rgb(3,149,182);stroke-width:1px;stroke-linejoin:round;stroke-miterlimit:2;"/>
        <circle cx="192.206" cy="534.895" r="10" style="fill:rgb(3,149,182);stroke:rgb(3,149,182);stroke-width:1px;stroke-linejoin:round;stroke-miterlimit:2;"/>
        <circle cx="257.349" cy="520.135" r="10" style="fill:rgb(3,149,182);stroke:rgb(3,149,182);stroke-width:1px;stroke-linejoin:round;stroke-miterlimit:2;"/>
        <circle cx="207.897" cy="475.972" r="10" style="fill:rgb(3,149,182);stroke:rgb(3,149,182);stroke-width:1px;stroke-linejoin:round;stroke-miterlimit:2;"/>
        <circle cx="193.901" cy="503.425" r="10" style="fill:rgb(3,149,182);stroke:rgb(3,149,182);stroke-width:1px;stroke-linejoin:round;stroke-miterlimit:2;"/>
        <circle cx="119.805" cy="488.344" r="10" style="fill:rgb(239,35,61);"/>
        <circle cx="161.918" cy="515.249" r="10" style="fill:rgb(3,149,182);stroke:rgb(3,149,182);stroke-width:1px;stroke-linejoin:round;stroke-miterlimit:2;"/>
        <circle cx="222.697" cy="512.017" r="10" style="fill:rgb(3,149,182);stroke:rgb(3,149,182);stroke-width:1px;stroke-linejoin:round;stroke-miterlimit:2;"/>
        <circle cx="41.167" cy="523.206" r="10" style="fill:rgb(239,35,61);"/>
        <circle cx="70.22" cy="506.905" r="10" style="fill:rgb(239,35,61);"/>
        <circle cx="100.844" cy="519.464" r="10" style="fill:rgb(239,35,61);"/>
        <circle cx="38.38" cy="491.882" r="10" style="fill:rgb(239,35,61);"/>
        <circle cx="10.225" cy="482.067" r="10" style="fill:rgb(239,35,61);"/>
    </g>
</svg>
