<?xml version="1.0" encoding="UTF-8" standalone="no"?>
<!DOCTYPE svg PUBLIC "-//W3C//DTD SVG 1.1//EN" "http://www.w3.org/Graphics/SVG/1.1/DTD/svg11.dtd">
<svg width="100%" height="100%" viewBox="0 0 770 505" version="1.1" xmlns="http://www.w3.org/2000/svg" xmlns:xlink="http://www.w3.org/1999/xlink" xml:space="preserve" xmlns:serif="http://www.serif.com/" style="fill-rule:evenodd;clip-rule:evenodd;">
    <path d="M116.646,173.354C116.842,173.549 117.158,173.549 117.354,173.354L120.536,170.172C120.731,169.976 120.731,169.66 120.536,169.464C120.34,169.269 120.024,169.269 119.828,169.464L117,172.293L114.172,169.464C113.976,169.269 113.66,169.269 113.464,169.464C113.269,169.66 113.269,169.976 113.464,170.172L116.646,173.354ZM116.5,93L116.5,173L117.5,173L117.5,93L116.5,93Z" style="fill-rule:nonzero;"/>
    <path d="M376.646,445.354C376.842,445.549 377.158,445.549 377.354,445.354L380.536,442.172C380.731,441.976 380.731,441.66 380.536,441.464C380.34,441.269 380.024,441.269 379.828,441.464L377,444.293L374.172,441.464C373.976,441.269 373.66,441.269 373.464,441.464C373.269,441.66 373.269,441.976 373.464,442.172L376.646,445.354ZM376.5,365L376.5,445L377.5,445L377.5,365L376.5,365Z" style="fill-rule:nonzero;"/>
    <path d="M116.646,362.354C116.842,362.549 117.158,362.549 117.354,362.354L120.536,359.172C120.731,358.976 120.731,358.66 120.536,358.464C120.34,358.269 120.024,358.269 119.828,358.464L117,361.293L114.172,358.464C113.976,358.269 113.66,358.269 113.464,358.464C113.269,358.66 113.269,358.976 113.464,359.172L116.646,362.354ZM116.5,318L116.5,362L117.5,362L117.5,318L116.5,318Z" style="fill-rule:nonzero;"/>
    <path d="M116.646,472.354C116.842,472.549 117.158,472.549 117.354,472.354L120.536,469.172C120.731,468.976 120.731,468.66 120.536,468.464C120.34,468.269 120.024,468.269 119.828,468.464L117,471.293L114.172,468.464C113.976,468.269 113.66,468.269 113.464,468.464C113.269,468.66 113.269,468.976 113.464,469.172L116.646,472.354ZM116.5,427L116.5,472L117.5,472L117.5,427L116.5,427Z" style="fill-rule:nonzero;"/>
    <path d="M117.354,372.646C117.158,372.451 116.842,372.451 116.646,372.646L113.464,375.828C113.269,376.024 113.269,376.34 113.464,376.536C113.66,376.731 113.976,376.731 114.172,376.536L117,373.707L119.828,376.536C120.024,376.731 120.34,376.731 120.536,376.536C120.731,376.34 120.731,376.024 120.536,375.828L117.354,372.646ZM117.5,416L117.5,373L116.5,373L116.5,416L117.5,416Z" style="fill-rule:nonzero;"/>
    <path d="M639.646,387.354C639.842,387.549 640.158,387.549 640.354,387.354L643.536,384.172C643.731,383.976 643.731,383.66 643.536,383.464C643.34,383.269 643.024,383.269 642.828,383.464L640,386.293L637.172,383.464C636.976,383.269 636.66,383.269 636.464,383.464C636.269,383.66 636.269,383.976 636.464,384.172L639.646,387.354ZM639.5,344L639.5,387L640.5,387L640.5,344L639.5,344Z" style="fill-rule:nonzero;"/>
    <path d="M632.235,404.087C632.168,403.819 631.897,403.656 631.629,403.723L627.263,404.815C626.995,404.882 626.832,405.153 626.899,405.421C626.966,405.689 627.238,405.852 627.506,405.785L631.386,404.815L632.356,408.695C632.423,408.963 632.695,409.126 632.963,409.059C633.231,408.992 633.393,408.721 633.326,408.453L632.235,404.087ZM608.929,443.216L632.179,404.466L631.321,403.951L608.071,442.701L608.929,443.216Z" style="fill-rule:nonzero;"/>
    <path d="M647.371,403.723C647.103,403.656 646.832,403.819 646.765,404.087L645.674,408.453C645.607,408.721 645.769,408.992 646.037,409.059C646.305,409.126 646.577,408.963 646.644,408.695L647.614,404.815L651.494,405.785C651.762,405.852 652.034,405.689 652.101,405.421C652.168,405.153 652.005,404.882 651.737,404.815L647.371,403.723ZM670.929,442.701L647.679,403.951L646.821,404.466L670.071,443.216L670.929,442.701Z" style="fill-rule:nonzero;"/>
    <path d="M642.354,87.646C642.158,87.451 641.842,87.451 641.646,87.646L638.464,90.828C638.269,91.024 638.269,91.34 638.464,91.536C638.66,91.731 638.976,91.731 639.172,91.536L642,88.707L644.828,91.536C645.024,91.731 645.34,91.731 645.536,91.536C645.731,91.34 645.731,91.024 645.536,90.828L642.354,87.646ZM642.5,132L642.5,88L641.5,88L641.5,132L642.5,132Z" style="fill-rule:nonzero;"/>
    <path d="M603.92,184.222C603.95,184.496 604.197,184.694 604.472,184.664L608.944,184.167C609.219,184.136 609.417,183.889 609.386,183.615C609.356,183.34 609.108,183.142 608.834,183.173L604.858,183.615L604.417,179.639C604.386,179.365 604.139,179.167 603.865,179.197C603.59,179.228 603.392,179.475 603.423,179.749L603.92,184.222ZM633.693,146.771L604.026,183.854L604.807,184.479L634.474,147.396L633.693,146.771Z" style="fill-rule:nonzero;"/>
    <path d="M678.528,184.664C678.803,184.694 679.05,184.496 679.08,184.222L679.577,179.749C679.608,179.475 679.41,179.228 679.135,179.197C678.861,179.167 678.614,179.365 678.583,179.639L678.142,183.615L674.166,183.173C673.892,183.142 673.644,183.34 673.614,183.615C673.583,183.889 673.781,184.136 674.056,184.167L678.528,184.664ZM648.526,147.396L678.193,184.479L678.974,183.854L649.307,146.771L648.526,147.396Z" style="fill-rule:nonzero;"/>
    <path d="M377.646,140.354C377.842,140.549 378.158,140.549 378.354,140.354L381.536,137.172C381.731,136.976 381.731,136.66 381.536,136.464C381.34,136.269 381.024,136.269 380.828,136.464L378,139.293L375.172,136.464C374.976,136.269 374.66,136.269 374.464,136.464C374.269,136.66 374.269,136.976 374.464,137.172L377.646,140.354ZM377.5,88L377.5,140L378.5,140L378.5,88L377.5,88Z" style="fill-rule:nonzero;"/>
    <path d="M378.354,152.646C378.158,152.451 377.842,152.451 377.646,152.646L374.464,155.828C374.269,156.024 374.269,156.34 374.464,156.536C374.66,156.731 374.976,156.731 375.172,156.536L378,153.707L380.828,156.536C381.024,156.731 381.34,156.731 381.536,156.536C381.731,156.34 381.731,156.024 381.536,155.828L378.354,152.646ZM378.5,204L378.5,153L377.5,153L377.5,204L378.5,204Z" style="fill-rule:nonzero;"/>
    <path d="M545.646,114.354C545.842,114.549 546.158,114.549 546.354,114.354L549.536,111.172C549.731,110.976 549.731,110.66 549.536,110.464C549.34,110.269 549.024,110.269 548.828,110.464L546,113.293L543.172,110.464C542.976,110.269 542.66,110.269 542.464,110.464C542.269,110.66 542.269,110.976 542.464,111.172L545.646,114.354ZM545.5,77L545.5,114L546.5,114L546.5,77L545.5,77Z" style="fill-rule:nonzero;"/>
    <path d="M545.646,114.354C545.842,114.549 546.158,114.549 546.354,114.354L549.536,111.172C549.731,110.976 549.731,110.66 549.536,110.464C549.34,110.269 549.024,110.269 548.828,110.464L546,113.293L543.172,110.464C542.976,110.269 542.66,110.269 542.464,110.464C542.269,110.66 542.269,110.976 542.464,111.172L545.646,114.354ZM545.5,77L545.5,114L546.5,114L546.5,77L545.5,77Z" style="fill-rule:nonzero;"/>
    <path d="M545.646,207.354C545.842,207.549 546.158,207.549 546.354,207.354L549.536,204.172C549.731,203.976 549.731,203.66 549.536,203.464C549.34,203.269 549.024,203.269 548.828,203.464L546,206.293L543.172,203.464C542.976,203.269 542.66,203.269 542.464,203.464C542.269,203.66 542.269,203.976 542.464,204.172L545.646,207.354ZM545.5,170L545.5,207L546.5,207L546.5,170L545.5,170Z" style="fill-rule:nonzero;"/>
    <path d="M455.646,114.354C455.842,114.549 456.158,114.549 456.354,114.354L459.536,111.172C459.731,110.976 459.731,110.66 459.536,110.464C459.34,110.269 459.024,110.269 458.828,110.464L456,113.293L453.172,110.464C452.976,110.269 452.66,110.269 452.464,110.464C452.269,110.66 452.269,110.976 452.464,111.172L455.646,114.354ZM455.5,77L455.5,114L456.5,114L456.5,77L455.5,77Z" style="fill-rule:nonzero;"/>
    <path d="M455.646,161.354C455.842,161.549 456.158,161.549 456.354,161.354L459.536,158.172C459.731,157.976 459.731,157.66 459.536,157.464C459.34,157.269 459.024,157.269 458.828,157.464L456,160.293L453.172,157.464C452.976,157.269 452.66,157.269 452.464,157.464C452.269,157.66 452.269,157.976 452.464,158.172L455.646,161.354ZM455.5,124L455.5,161L456.5,161L456.5,124L455.5,124Z" style="fill-rule:nonzero;"/>
    <path d="M456.354,169.646C456.158,169.451 455.842,169.451 455.646,169.646L452.464,172.828C452.269,173.024 452.269,173.34 452.464,173.536C452.66,173.731 452.976,173.731 453.172,173.536L456,170.707L458.828,173.536C459.024,173.731 459.34,173.731 459.536,173.536C459.731,173.34 459.731,173.024 459.536,172.828L456.354,169.646ZM456.5,207L456.5,170L455.5,170L455.5,207L456.5,207Z" style="fill-rule:nonzero;"/>
    <path d="M546.354,123.646C546.158,123.451 545.842,123.451 545.646,123.646L542.464,126.828C542.269,127.024 542.269,127.34 542.464,127.536C542.66,127.731 542.976,127.731 543.172,127.536L546,124.707L548.828,127.536C549.024,127.731 549.34,127.731 549.536,127.536C549.731,127.34 549.731,127.024 549.536,126.828L546.354,123.646ZM546.5,161L546.5,124L545.5,124L545.5,161L546.5,161Z" style="fill-rule:nonzero;"/>
    <rect x="1" y="1" width="248" height="248" style="fill:none;stroke:rgb(0,149,182);stroke-width:2px;"/>
    <rect x="256" y="1" width="513" height="503" style="fill:none;stroke:rgb(2,48,71);stroke-width:2px;"/>
    <rect x="261" y="256" width="248" height="243" style="fill:none;stroke:rgb(255,183,3);stroke-width:2px;"/>
    <rect x="1" y="256" width="248" height="248" style="fill:none;stroke:rgb(46,196,182);stroke-width:2px;"/>
    <rect x="516" y="256" width="248" height="243" style="fill:none;stroke:rgb(239,35,60);stroke-width:2px;"/>
    <path d="M21.027,26L21.027,14.832L25.475,14.832C26.478,14.832 27.246,15.12 27.779,15.696C28.323,16.261 28.595,17.04 28.595,18.032C28.595,19.024 28.323,19.808 27.779,20.384C27.246,20.949 26.478,21.232 25.475,21.232L22.371,21.232L22.371,26L21.027,26ZM22.371,20.048L25.475,20.048C26.008,20.048 26.419,19.909 26.707,19.632C27.006,19.355 27.155,18.96 27.155,18.448L27.155,17.616C27.155,17.104 27.006,16.709 26.707,16.432C26.419,16.155 26.008,16.016 25.475,16.016L22.371,16.016L22.371,20.048ZM33.394,26.192C32.828,26.192 32.316,26.091 31.858,25.888C31.41,25.685 31.02,25.397 30.69,25.024C30.37,24.64 30.119,24.187 29.938,23.664C29.767,23.131 29.682,22.533 29.682,21.872C29.682,21.221 29.767,20.629 29.938,20.096C30.119,19.563 30.37,19.109 30.69,18.736C31.02,18.352 31.41,18.059 31.858,17.856C32.316,17.653 32.828,17.552 33.394,17.552C33.948,17.552 34.444,17.653 34.882,17.856C35.319,18.059 35.692,18.341 36.002,18.704C36.311,19.056 36.546,19.477 36.706,19.968C36.876,20.459 36.962,20.997 36.962,21.584L36.962,22.192L31.026,22.192L31.026,22.576C31.026,22.928 31.079,23.259 31.186,23.568C31.303,23.867 31.463,24.128 31.666,24.352C31.879,24.576 32.135,24.752 32.434,24.88C32.743,25.008 33.09,25.072 33.474,25.072C33.996,25.072 34.45,24.949 34.834,24.704C35.228,24.459 35.532,24.107 35.746,23.648L36.658,24.304C36.391,24.869 35.975,25.328 35.41,25.68C34.844,26.021 34.172,26.192 33.394,26.192ZM33.394,18.624C33.042,18.624 32.722,18.688 32.434,18.816C32.146,18.933 31.895,19.104 31.682,19.328C31.479,19.552 31.319,19.819 31.202,20.128C31.084,20.427 31.026,20.757 31.026,21.12L31.026,21.232L35.586,21.232L35.586,21.056C35.586,20.32 35.383,19.733 34.978,19.296C34.583,18.848 34.055,18.624 33.394,18.624ZM39.071,26L39.071,17.744L40.351,17.744L40.351,19.264L40.431,19.264C40.58,18.869 40.847,18.517 41.231,18.208C41.615,17.899 42.143,17.744 42.815,17.744L43.311,17.744L43.311,19.024L42.559,19.024C41.866,19.024 41.322,19.157 40.927,19.424C40.543,19.68 40.351,20.005 40.351,20.4L40.351,26L39.071,26ZM45.456,18.864L44.112,18.864L44.112,17.744L45.456,17.744L45.456,16.08C45.456,15.504 45.606,15.04 45.904,14.688C46.203,14.336 46.656,14.16 47.264,14.16L48.512,14.16L48.512,15.28L46.736,15.28L46.736,17.744L51.36,17.744L51.36,26L50.08,26L50.08,18.864L46.736,18.864L46.736,26L45.456,26L45.456,18.864ZM50.72,15.808C50.443,15.808 50.24,15.744 50.112,15.616C49.995,15.477 49.936,15.301 49.936,15.088L49.936,14.88C49.936,14.667 49.995,14.496 50.112,14.368C50.24,14.229 50.443,14.16 50.72,14.16C50.998,14.16 51.195,14.229 51.312,14.368C51.44,14.496 51.504,14.667 51.504,14.88L51.504,15.088C51.504,15.301 51.44,15.477 51.312,15.616C51.195,15.744 50.998,15.808 50.72,15.808ZM55.447,26C54.999,26 54.657,25.877 54.423,25.632C54.199,25.376 54.087,25.056 54.087,24.672L54.087,14.16L55.367,14.16L55.367,24.88L56.583,24.88L56.583,26L55.447,26ZM66.867,26L66.867,23.808L61.475,23.808L61.475,22.624L66.147,14.832L68.147,14.832L68.147,22.688L69.763,22.688L69.763,23.808L68.147,23.808L68.147,26L66.867,26ZM62.739,22.688L66.867,22.688L66.867,15.872L66.787,15.872L62.739,22.688Z" style="fill:rgb(0,149,182);fill-rule:nonzero;"/>
    <path d="M276.027,281L276.027,269.832L280.475,269.832C281.478,269.832 282.246,270.12 282.779,270.696C283.323,271.261 283.595,272.04 283.595,273.032C283.595,274.024 283.323,274.808 282.779,275.384C282.246,275.949 281.478,276.232 280.475,276.232L277.371,276.232L277.371,281L276.027,281ZM277.371,275.048L280.475,275.048C281.008,275.048 281.419,274.909 281.707,274.632C282.006,274.355 282.155,273.96 282.155,273.448L282.155,272.616C282.155,272.104 282.006,271.709 281.707,271.432C281.419,271.155 281.008,271.016 280.475,271.016L277.371,271.016L277.371,275.048ZM288.394,281.192C287.828,281.192 287.316,281.091 286.858,280.888C286.41,280.685 286.02,280.397 285.69,280.024C285.37,279.64 285.119,279.187 284.938,278.664C284.767,278.131 284.682,277.533 284.682,276.872C284.682,276.221 284.767,275.629 284.938,275.096C285.119,274.563 285.37,274.109 285.69,273.736C286.02,273.352 286.41,273.059 286.858,272.856C287.316,272.653 287.828,272.552 288.394,272.552C288.948,272.552 289.444,272.653 289.882,272.856C290.319,273.059 290.692,273.341 291.002,273.704C291.311,274.056 291.546,274.477 291.706,274.968C291.876,275.459 291.962,275.997 291.962,276.584L291.962,277.192L286.026,277.192L286.026,277.576C286.026,277.928 286.079,278.259 286.186,278.568C286.303,278.867 286.463,279.128 286.666,279.352C286.879,279.576 287.135,279.752 287.434,279.88C287.743,280.008 288.09,280.072 288.474,280.072C288.996,280.072 289.45,279.949 289.834,279.704C290.228,279.459 290.532,279.107 290.746,278.648L291.658,279.304C291.391,279.869 290.975,280.328 290.41,280.68C289.844,281.021 289.172,281.192 288.394,281.192ZM288.394,273.624C288.042,273.624 287.722,273.688 287.434,273.816C287.146,273.933 286.895,274.104 286.682,274.328C286.479,274.552 286.319,274.819 286.202,275.128C286.084,275.427 286.026,275.757 286.026,276.12L286.026,276.232L290.586,276.232L290.586,276.056C290.586,275.32 290.383,274.733 289.978,274.296C289.583,273.848 289.055,273.624 288.394,273.624ZM294.071,281L294.071,272.744L295.351,272.744L295.351,274.264L295.431,274.264C295.58,273.869 295.847,273.517 296.231,273.208C296.615,272.899 297.143,272.744 297.815,272.744L298.311,272.744L298.311,274.024L297.559,274.024C296.866,274.024 296.322,274.157 295.927,274.424C295.543,274.68 295.351,275.005 295.351,275.4L295.351,281L294.071,281ZM300.456,273.864L299.112,273.864L299.112,272.744L300.456,272.744L300.456,271.08C300.456,270.504 300.606,270.04 300.904,269.688C301.203,269.336 301.656,269.16 302.264,269.16L303.512,269.16L303.512,270.28L301.736,270.28L301.736,272.744L306.36,272.744L306.36,281L305.08,281L305.08,273.864L301.736,273.864L301.736,281L300.456,281L300.456,273.864ZM305.72,270.808C305.443,270.808 305.24,270.744 305.112,270.616C304.995,270.477 304.936,270.301 304.936,270.088L304.936,269.88C304.936,269.667 304.995,269.496 305.112,269.368C305.24,269.229 305.443,269.16 305.72,269.16C305.998,269.16 306.195,269.229 306.312,269.368C306.44,269.496 306.504,269.667 306.504,269.88L306.504,270.088C306.504,270.301 306.44,270.477 306.312,270.616C306.195,270.744 305.998,270.808 305.72,270.808ZM310.447,281C309.999,281 309.657,280.877 309.423,280.632C309.199,280.376 309.087,280.056 309.087,279.672L309.087,269.16L310.367,269.16L310.367,279.88L311.583,279.88L311.583,281L310.447,281ZM323.835,271.016L318.939,271.016L318.619,275.272L318.731,275.272C318.998,274.899 319.297,274.6 319.627,274.376C319.969,274.152 320.433,274.04 321.019,274.04C321.499,274.04 321.942,274.12 322.347,274.28C322.753,274.44 323.105,274.669 323.403,274.968C323.702,275.256 323.931,275.613 324.091,276.04C324.262,276.467 324.347,276.952 324.347,277.496C324.347,278.04 324.262,278.541 324.091,279C323.921,279.448 323.67,279.837 323.339,280.168C323.019,280.488 322.625,280.739 322.155,280.92C321.697,281.101 321.174,281.192 320.587,281.192C320.118,281.192 319.702,281.139 319.339,281.032C318.987,280.925 318.673,280.781 318.395,280.6C318.118,280.419 317.873,280.216 317.659,279.992C317.457,279.768 317.27,279.533 317.099,279.288L318.107,278.52C318.246,278.744 318.39,278.947 318.539,279.128C318.699,279.309 318.87,279.464 319.051,279.592C319.243,279.72 319.462,279.821 319.707,279.896C319.953,279.96 320.246,279.992 320.587,279.992C321.355,279.992 321.937,279.789 322.331,279.384C322.726,278.979 322.923,278.408 322.923,277.672L322.923,277.512C322.923,276.776 322.726,276.205 322.331,275.8C321.937,275.395 321.355,275.192 320.587,275.192C320.075,275.192 319.67,275.288 319.371,275.48C319.083,275.661 318.822,275.88 318.587,276.136L317.451,275.976L317.851,269.832L323.835,269.832L323.835,271.016Z" style="fill:rgb(255,183,3);fill-rule:nonzero;"/>
    <path d="M271.027,26L271.027,14.832L275.475,14.832C276.478,14.832 277.246,15.12 277.779,15.696C278.323,16.261 278.595,17.04 278.595,18.032C278.595,19.024 278.323,19.808 277.779,20.384C277.246,20.949 276.478,21.232 275.475,21.232L272.371,21.232L272.371,26L271.027,26ZM272.371,20.048L275.475,20.048C276.008,20.048 276.419,19.909 276.707,19.632C277.006,19.355 277.155,18.96 277.155,18.448L277.155,17.616C277.155,17.104 277.006,16.709 276.707,16.432C276.419,16.155 276.008,16.016 275.475,16.016L272.371,16.016L272.371,20.048ZM283.394,26.192C282.828,26.192 282.316,26.091 281.858,25.888C281.41,25.685 281.02,25.397 280.69,25.024C280.37,24.64 280.119,24.187 279.938,23.664C279.767,23.131 279.682,22.533 279.682,21.872C279.682,21.221 279.767,20.629 279.938,20.096C280.119,19.563 280.37,19.109 280.69,18.736C281.02,18.352 281.41,18.059 281.858,17.856C282.316,17.653 282.828,17.552 283.394,17.552C283.948,17.552 284.444,17.653 284.882,17.856C285.319,18.059 285.692,18.341 286.002,18.704C286.311,19.056 286.546,19.477 286.706,19.968C286.876,20.459 286.962,20.997 286.962,21.584L286.962,22.192L281.026,22.192L281.026,22.576C281.026,22.928 281.079,23.259 281.186,23.568C281.303,23.867 281.463,24.128 281.666,24.352C281.879,24.576 282.135,24.752 282.434,24.88C282.743,25.008 283.09,25.072 283.474,25.072C283.996,25.072 284.45,24.949 284.834,24.704C285.228,24.459 285.532,24.107 285.746,23.648L286.658,24.304C286.391,24.869 285.975,25.328 285.41,25.68C284.844,26.021 284.172,26.192 283.394,26.192ZM283.394,18.624C283.042,18.624 282.722,18.688 282.434,18.816C282.146,18.933 281.895,19.104 281.682,19.328C281.479,19.552 281.319,19.819 281.202,20.128C281.084,20.427 281.026,20.757 281.026,21.12L281.026,21.232L285.586,21.232L285.586,21.056C285.586,20.32 285.383,19.733 284.978,19.296C284.583,18.848 284.055,18.624 283.394,18.624ZM289.071,26L289.071,17.744L290.351,17.744L290.351,19.264L290.431,19.264C290.58,18.869 290.847,18.517 291.231,18.208C291.615,17.899 292.143,17.744 292.815,17.744L293.311,17.744L293.311,19.024L292.559,19.024C291.866,19.024 291.322,19.157 290.927,19.424C290.543,19.68 290.351,20.005 290.351,20.4L290.351,26L289.071,26ZM295.456,18.864L294.112,18.864L294.112,17.744L295.456,17.744L295.456,16.08C295.456,15.504 295.606,15.04 295.904,14.688C296.203,14.336 296.656,14.16 297.264,14.16L298.512,14.16L298.512,15.28L296.736,15.28L296.736,17.744L301.36,17.744L301.36,26L300.08,26L300.08,18.864L296.736,18.864L296.736,26L295.456,26L295.456,18.864ZM300.72,15.808C300.443,15.808 300.24,15.744 300.112,15.616C299.995,15.477 299.936,15.301 299.936,15.088L299.936,14.88C299.936,14.667 299.995,14.496 300.112,14.368C300.24,14.229 300.443,14.16 300.72,14.16C300.998,14.16 301.195,14.229 301.312,14.368C301.44,14.496 301.504,14.667 301.504,14.88L301.504,15.088C301.504,15.301 301.44,15.477 301.312,15.616C301.195,15.744 300.998,15.808 300.72,15.808ZM305.447,26C304.999,26 304.657,25.877 304.423,25.632C304.199,25.376 304.087,25.056 304.087,24.672L304.087,14.16L305.367,14.16L305.367,24.88L306.583,24.88L306.583,26L305.447,26ZM315.043,19.568C315.801,19.568 316.366,19.397 316.739,19.056C317.123,18.704 317.315,18.256 317.315,17.712L317.315,17.6C317.315,17.013 317.129,16.576 316.755,16.288C316.393,15.989 315.913,15.84 315.315,15.84C314.739,15.84 314.27,15.968 313.907,16.224C313.545,16.469 313.246,16.805 313.011,17.232L312.019,16.464C312.158,16.24 312.323,16.021 312.515,15.808C312.718,15.584 312.953,15.387 313.219,15.216C313.486,15.045 313.795,14.907 314.147,14.8C314.499,14.693 314.899,14.64 315.347,14.64C315.817,14.64 316.259,14.704 316.675,14.832C317.091,14.949 317.449,15.131 317.747,15.376C318.057,15.611 318.297,15.904 318.467,16.256C318.649,16.608 318.739,17.008 318.739,17.456C318.739,17.819 318.681,18.144 318.563,18.432C318.457,18.72 318.307,18.971 318.115,19.184C317.923,19.397 317.694,19.579 317.427,19.728C317.171,19.877 316.894,19.989 316.595,20.064L316.595,20.128C316.894,20.192 317.182,20.299 317.459,20.448C317.747,20.587 317.998,20.773 318.211,21.008C318.435,21.232 318.611,21.509 318.739,21.84C318.878,22.16 318.947,22.528 318.947,22.944C318.947,23.424 318.857,23.867 318.675,24.272C318.494,24.667 318.238,25.008 317.907,25.296C317.577,25.573 317.177,25.792 316.707,25.952C316.238,26.112 315.721,26.192 315.155,26.192C314.675,26.192 314.249,26.139 313.875,26.032C313.502,25.925 313.171,25.781 312.883,25.6C312.595,25.419 312.339,25.216 312.115,24.992C311.902,24.768 311.71,24.533 311.539,24.288L312.547,23.52C312.686,23.744 312.835,23.947 312.995,24.128C313.166,24.309 313.353,24.464 313.555,24.592C313.758,24.72 313.987,24.821 314.243,24.896C314.499,24.96 314.798,24.992 315.139,24.992C315.929,24.992 316.526,24.816 316.931,24.464C317.337,24.101 317.539,23.589 317.539,22.928L317.539,22.8C317.539,22.139 317.337,21.632 316.931,21.28C316.526,20.917 315.929,20.736 315.139,20.736L313.827,20.736L313.827,19.568L315.043,19.568Z" style="fill:rgb(2,48,71);fill-rule:nonzero;"/>
    <path d="M16.027,282L16.027,270.832L20.475,270.832C21.478,270.832 22.246,271.12 22.779,271.696C23.323,272.261 23.595,273.04 23.595,274.032C23.595,275.024 23.323,275.808 22.779,276.384C22.246,276.949 21.478,277.232 20.475,277.232L17.371,277.232L17.371,282L16.027,282ZM17.371,276.048L20.475,276.048C21.008,276.048 21.419,275.909 21.707,275.632C22.006,275.355 22.155,274.96 22.155,274.448L22.155,273.616C22.155,273.104 22.006,272.709 21.707,272.432C21.419,272.155 21.008,272.016 20.475,272.016L17.371,272.016L17.371,276.048ZM28.394,282.192C27.828,282.192 27.316,282.091 26.858,281.888C26.41,281.685 26.02,281.397 25.69,281.024C25.37,280.64 25.119,280.187 24.938,279.664C24.767,279.131 24.682,278.533 24.682,277.872C24.682,277.221 24.767,276.629 24.938,276.096C25.119,275.563 25.37,275.109 25.69,274.736C26.02,274.352 26.41,274.059 26.858,273.856C27.316,273.653 27.828,273.552 28.394,273.552C28.948,273.552 29.444,273.653 29.882,273.856C30.319,274.059 30.692,274.341 31.002,274.704C31.311,275.056 31.546,275.477 31.706,275.968C31.876,276.459 31.962,276.997 31.962,277.584L31.962,278.192L26.026,278.192L26.026,278.576C26.026,278.928 26.079,279.259 26.186,279.568C26.303,279.867 26.463,280.128 26.666,280.352C26.879,280.576 27.135,280.752 27.434,280.88C27.743,281.008 28.09,281.072 28.474,281.072C28.996,281.072 29.45,280.949 29.834,280.704C30.228,280.459 30.532,280.107 30.746,279.648L31.658,280.304C31.391,280.869 30.975,281.328 30.41,281.68C29.844,282.021 29.172,282.192 28.394,282.192ZM28.394,274.624C28.042,274.624 27.722,274.688 27.434,274.816C27.146,274.933 26.895,275.104 26.682,275.328C26.479,275.552 26.319,275.819 26.202,276.128C26.084,276.427 26.026,276.757 26.026,277.12L26.026,277.232L30.586,277.232L30.586,277.056C30.586,276.32 30.383,275.733 29.978,275.296C29.583,274.848 29.055,274.624 28.394,274.624ZM34.071,282L34.071,273.744L35.351,273.744L35.351,275.264L35.431,275.264C35.58,274.869 35.847,274.517 36.231,274.208C36.615,273.899 37.143,273.744 37.815,273.744L38.311,273.744L38.311,275.024L37.559,275.024C36.866,275.024 36.322,275.157 35.927,275.424C35.543,275.68 35.351,276.005 35.351,276.4L35.351,282L34.071,282ZM40.456,274.864L39.112,274.864L39.112,273.744L40.456,273.744L40.456,272.08C40.456,271.504 40.606,271.04 40.904,270.688C41.203,270.336 41.656,270.16 42.264,270.16L43.512,270.16L43.512,271.28L41.736,271.28L41.736,273.744L46.36,273.744L46.36,282L45.08,282L45.08,274.864L41.736,274.864L41.736,282L40.456,282L40.456,274.864ZM45.72,271.808C45.443,271.808 45.24,271.744 45.112,271.616C44.995,271.477 44.936,271.301 44.936,271.088L44.936,270.88C44.936,270.667 44.995,270.496 45.112,270.368C45.24,270.229 45.443,270.16 45.72,270.16C45.998,270.16 46.195,270.229 46.312,270.368C46.44,270.496 46.504,270.667 46.504,270.88L46.504,271.088C46.504,271.301 46.44,271.477 46.312,271.616C46.195,271.744 45.998,271.808 45.72,271.808ZM50.447,282C49.999,282 49.657,281.877 49.423,281.632C49.199,281.376 49.087,281.056 49.087,280.672L49.087,270.16L50.367,270.16L50.367,280.88L51.583,280.88L51.583,282L50.447,282ZM64.395,282L57.067,282L57.067,280.624L60.715,277.264C61.238,276.784 61.675,276.277 62.027,275.744C62.379,275.2 62.555,274.656 62.555,274.112L62.555,273.92C62.555,273.301 62.385,272.8 62.043,272.416C61.702,272.032 61.185,271.84 60.491,271.84C60.15,271.84 59.851,271.888 59.595,271.984C59.339,272.08 59.115,272.213 58.923,272.384C58.742,272.555 58.587,272.757 58.459,272.992C58.342,273.216 58.246,273.461 58.171,273.728L56.971,273.264C57.078,272.933 57.222,272.613 57.403,272.304C57.595,271.984 57.83,271.701 58.107,271.456C58.395,271.211 58.737,271.013 59.131,270.864C59.536,270.715 60.011,270.64 60.555,270.64C61.099,270.64 61.585,270.72 62.011,270.88C62.438,271.04 62.795,271.264 63.083,271.552C63.371,271.84 63.59,272.181 63.739,272.576C63.899,272.971 63.979,273.408 63.979,273.888C63.979,274.325 63.915,274.731 63.787,275.104C63.67,275.477 63.505,275.835 63.291,276.176C63.078,276.507 62.817,276.832 62.507,277.152C62.209,277.472 61.883,277.792 61.531,278.112L58.523,280.816L64.395,280.816L64.395,282Z" style="fill:rgb(46,196,182);fill-rule:nonzero;"/>
    <path d="M531.027,282L531.027,270.832L535.475,270.832C536.478,270.832 537.246,271.12 537.779,271.696C538.323,272.261 538.595,273.04 538.595,274.032C538.595,275.024 538.323,275.808 537.779,276.384C537.246,276.949 536.478,277.232 535.475,277.232L532.371,277.232L532.371,282L531.027,282ZM532.371,276.048L535.475,276.048C536.008,276.048 536.419,275.909 536.707,275.632C537.006,275.355 537.155,274.96 537.155,274.448L537.155,273.616C537.155,273.104 537.006,272.709 536.707,272.432C536.419,272.155 536.008,272.016 535.475,272.016L532.371,272.016L532.371,276.048ZM543.394,282.192C542.828,282.192 542.316,282.091 541.858,281.888C541.41,281.685 541.02,281.397 540.69,281.024C540.37,280.64 540.119,280.187 539.938,279.664C539.767,279.131 539.682,278.533 539.682,277.872C539.682,277.221 539.767,276.629 539.938,276.096C540.119,275.563 540.37,275.109 540.69,274.736C541.02,274.352 541.41,274.059 541.858,273.856C542.316,273.653 542.828,273.552 543.394,273.552C543.948,273.552 544.444,273.653 544.882,273.856C545.319,274.059 545.692,274.341 546.002,274.704C546.311,275.056 546.546,275.477 546.706,275.968C546.876,276.459 546.962,276.997 546.962,277.584L546.962,278.192L541.026,278.192L541.026,278.576C541.026,278.928 541.079,279.259 541.186,279.568C541.303,279.867 541.463,280.128 541.666,280.352C541.879,280.576 542.135,280.752 542.434,280.88C542.743,281.008 543.09,281.072 543.474,281.072C543.996,281.072 544.45,280.949 544.834,280.704C545.228,280.459 545.532,280.107 545.746,279.648L546.658,280.304C546.391,280.869 545.975,281.328 545.41,281.68C544.844,282.021 544.172,282.192 543.394,282.192ZM543.394,274.624C543.042,274.624 542.722,274.688 542.434,274.816C542.146,274.933 541.895,275.104 541.682,275.328C541.479,275.552 541.319,275.819 541.202,276.128C541.084,276.427 541.026,276.757 541.026,277.12L541.026,277.232L545.586,277.232L545.586,277.056C545.586,276.32 545.383,275.733 544.978,275.296C544.583,274.848 544.055,274.624 543.394,274.624ZM549.071,282L549.071,273.744L550.351,273.744L550.351,275.264L550.431,275.264C550.58,274.869 550.847,274.517 551.231,274.208C551.615,273.899 552.143,273.744 552.815,273.744L553.311,273.744L553.311,275.024L552.559,275.024C551.866,275.024 551.322,275.157 550.927,275.424C550.543,275.68 550.351,276.005 550.351,276.4L550.351,282L549.071,282ZM555.456,274.864L554.112,274.864L554.112,273.744L555.456,273.744L555.456,272.08C555.456,271.504 555.606,271.04 555.904,270.688C556.203,270.336 556.656,270.16 557.264,270.16L558.512,270.16L558.512,271.28L556.736,271.28L556.736,273.744L561.36,273.744L561.36,282L560.08,282L560.08,274.864L556.736,274.864L556.736,282L555.456,282L555.456,274.864ZM560.72,271.808C560.443,271.808 560.24,271.744 560.112,271.616C559.995,271.477 559.936,271.301 559.936,271.088L559.936,270.88C559.936,270.667 559.995,270.496 560.112,270.368C560.24,270.229 560.443,270.16 560.72,270.16C560.998,270.16 561.195,270.229 561.312,270.368C561.44,270.496 561.504,270.667 561.504,270.88L561.504,271.088C561.504,271.301 561.44,271.477 561.312,271.616C561.195,271.744 560.998,271.808 560.72,271.808ZM565.447,282C564.999,282 564.657,281.877 564.423,281.632C564.199,281.376 564.087,281.056 564.087,280.672L564.087,270.16L565.367,270.16L565.367,280.88L566.583,280.88L566.583,282L565.447,282ZM572.275,282L572.275,280.816L575.395,280.816L575.395,271.824L575.283,271.824L572.467,274.448L571.683,273.6L574.643,270.832L576.739,270.832L576.739,280.816L579.619,280.816L579.619,282L572.275,282Z" style="fill:rgb(239,35,60);fill-rule:nonzero;"/>
    <path d="M393.502,357.096C392.856,357.096 392.376,356.856 392.062,356.376C391.752,355.891 391.598,355.168 391.598,354.208C391.598,353.248 391.752,352.528 392.062,352.048C392.376,351.563 392.856,351.32 393.502,351.32C394.147,351.32 394.624,351.563 394.934,352.048C395.248,352.528 395.406,353.248 395.406,354.208C395.406,355.168 395.248,355.891 394.934,356.376C394.624,356.856 394.147,357.096 393.502,357.096ZM393.502,356.68C393.982,356.68 394.334,356.499 394.558,356.136C394.782,355.768 394.894,355.251 394.894,354.584L394.894,353.832C394.894,353.171 394.782,352.656 394.558,352.288C394.334,351.92 393.982,351.736 393.502,351.736C393.022,351.736 392.67,351.92 392.446,352.288C392.222,352.656 392.11,353.171 392.11,353.832L392.11,354.584C392.11,355.251 392.222,355.768 392.446,356.136C392.67,356.499 393.022,356.68 393.502,356.68ZM393.502,354.576C393.363,354.576 393.264,354.547 393.206,354.488C393.147,354.429 393.118,354.357 393.118,354.272L393.118,354.144C393.118,354.059 393.147,353.987 393.206,353.928C393.264,353.869 393.363,353.84 393.502,353.84C393.64,353.84 393.739,353.869 393.798,353.928C393.856,353.987 393.886,354.059 393.886,354.144L393.886,354.272C393.886,354.357 393.856,354.429 393.798,354.488C393.739,354.547 393.64,354.576 393.502,354.576Z" style="fill-rule:nonzero;"/>
    <path d="M137.822,186L137.822,185.584L139.486,185.584L139.486,180.768L139.446,180.768L137.91,182.136L137.638,181.832L139.23,180.416L139.958,180.416L139.958,185.584L141.518,185.584L141.518,186L137.822,186Z" style="fill-rule:nonzero;"/>
    <path d="M134.451,480L130.819,480L130.819,479.512L132.795,477.64C133.067,477.384 133.286,477.125 133.451,476.864C133.616,476.597 133.699,476.317 133.699,476.024L133.699,475.872C133.699,475.525 133.6,475.251 133.403,475.048C133.211,474.84 132.923,474.736 132.539,474.736C132.166,474.736 131.875,474.829 131.667,475.016C131.464,475.197 131.315,475.443 131.219,475.752L130.795,475.6C130.848,475.429 130.92,475.267 131.011,475.112C131.102,474.957 131.216,474.821 131.355,474.704C131.499,474.587 131.67,474.493 131.867,474.424C132.064,474.355 132.291,474.32 132.547,474.32C132.814,474.32 133.048,474.36 133.251,474.44C133.459,474.515 133.632,474.621 133.771,474.76C133.915,474.899 134.022,475.067 134.091,475.264C134.166,475.456 134.203,475.672 134.203,475.912C134.203,476.307 134.102,476.667 133.899,476.992C133.696,477.312 133.424,477.629 133.083,477.944L131.323,479.584L134.451,479.584L134.451,480ZM138.128,480L138.128,478.832L135.312,478.832L135.312,478.408L137.912,474.416L138.584,474.416L138.584,478.44L139.456,478.44L139.456,478.832L138.584,478.832L138.584,480L138.128,480ZM135.744,478.44L138.128,478.44L138.128,474.824L138.104,474.824L135.744,478.44Z" style="fill-rule:nonzero;"/>
    <path d="M559.451,75L555.819,75L555.819,74.512L557.795,72.64C558.067,72.384 558.286,72.125 558.451,71.864C558.616,71.597 558.699,71.317 558.699,71.024L558.699,70.872C558.699,70.525 558.6,70.251 558.403,70.048C558.211,69.84 557.923,69.736 557.539,69.736C557.166,69.736 556.875,69.829 556.667,70.016C556.464,70.197 556.315,70.443 556.219,70.752L555.795,70.6C555.848,70.429 555.92,70.267 556.011,70.112C556.102,69.957 556.216,69.821 556.355,69.704C556.499,69.587 556.67,69.493 556.867,69.424C557.064,69.355 557.291,69.32 557.547,69.32C557.814,69.32 558.048,69.36 558.251,69.44C558.459,69.515 558.632,69.621 558.771,69.76C558.915,69.899 559.022,70.067 559.091,70.264C559.166,70.456 559.203,70.672 559.203,70.912C559.203,71.307 559.102,71.667 558.899,71.992C558.696,72.312 558.424,72.629 558.083,72.944L556.323,74.584L559.451,74.584L559.451,75ZM560.72,75L560.72,74.584L562.384,74.584L562.384,69.768L562.344,69.768L560.808,71.136L560.536,70.832L562.128,69.416L562.856,69.416L562.856,74.584L564.416,74.584L564.416,75L560.72,75Z" style="fill-rule:nonzero;"/>
    <path d="M391.526,85L393.806,79.832L391.094,79.832L391.094,80.984L390.662,80.984L390.662,79.416L394.294,79.416L394.294,79.84L392.046,85L391.526,85Z" style="fill-rule:nonzero;"/>
    <path d="M659.951,339L656.319,339L656.319,338.512L658.295,336.64C658.567,336.384 658.786,336.125 658.951,335.864C659.116,335.597 659.199,335.317 659.199,335.024L659.199,334.872C659.199,334.525 659.1,334.251 658.903,334.048C658.711,333.84 658.423,333.736 658.039,333.736C657.666,333.736 657.375,333.829 657.167,334.016C656.964,334.197 656.815,334.443 656.719,334.752L656.295,334.6C656.348,334.429 656.42,334.267 656.511,334.112C656.602,333.957 656.716,333.821 656.855,333.704C656.999,333.587 657.17,333.493 657.367,333.424C657.564,333.355 657.791,333.32 658.047,333.32C658.314,333.32 658.548,333.36 658.751,333.44C658.959,333.515 659.132,333.621 659.271,333.76C659.415,333.899 659.522,334.067 659.591,334.264C659.666,334.456 659.703,334.672 659.703,334.912C659.703,335.307 659.602,335.667 659.399,335.992C659.196,336.312 658.924,336.629 658.583,336.944L656.823,338.584L659.951,338.584L659.951,339ZM664.724,335.368C664.724,335.8 664.663,336.203 664.54,336.576C664.423,336.944 664.265,337.28 664.068,337.584C663.871,337.888 663.647,338.16 663.396,338.4C663.151,338.635 662.897,338.835 662.636,339L662.012,339C662.321,338.787 662.599,338.573 662.844,338.36C663.089,338.147 663.303,337.923 663.484,337.688C663.665,337.448 663.817,337.195 663.94,336.928C664.063,336.656 664.159,336.355 664.228,336.024L664.188,336.016C664.049,336.267 663.865,336.467 663.636,336.616C663.407,336.76 663.121,336.832 662.78,336.832C662.529,336.832 662.3,336.792 662.092,336.712C661.889,336.632 661.713,336.52 661.564,336.376C661.415,336.227 661.3,336.048 661.22,335.84C661.14,335.627 661.1,335.389 661.1,335.128C661.1,334.856 661.143,334.611 661.228,334.392C661.313,334.168 661.433,333.979 661.588,333.824C661.748,333.664 661.94,333.541 662.164,333.456C662.388,333.365 662.636,333.32 662.908,333.32C663.207,333.32 663.468,333.371 663.692,333.472C663.921,333.568 664.111,333.707 664.26,333.888C664.415,334.064 664.529,334.28 664.604,334.536C664.684,334.787 664.724,335.064 664.724,335.368ZM662.916,336.432C663.332,336.432 663.655,336.317 663.884,336.088C664.119,335.853 664.236,335.541 664.236,335.152L664.236,335.016C664.236,334.627 664.119,334.317 663.884,334.088C663.655,333.853 663.332,333.736 662.916,333.736C662.5,333.736 662.175,333.853 661.94,334.088C661.705,334.317 661.588,334.627 661.588,335.016L661.588,335.152C661.588,335.541 661.705,335.853 661.94,336.088C662.175,336.317 662.5,336.432 662.916,336.432Z" style="fill-rule:nonzero;"/>
    <path d="M657.395,76.864C657.79,76.864 658.096,76.771 658.315,76.584C658.534,76.392 658.643,76.144 658.643,75.84L658.643,75.736C658.643,75.416 658.536,75.171 658.323,75C658.115,74.824 657.843,74.736 657.507,74.736C657.176,74.736 656.912,74.805 656.715,74.944C656.518,75.077 656.36,75.256 656.243,75.48L655.883,75.224C655.947,75.107 656.027,74.995 656.123,74.888C656.224,74.776 656.339,74.677 656.467,74.592C656.6,74.507 656.752,74.44 656.923,74.392C657.099,74.344 657.296,74.32 657.515,74.32C657.75,74.32 657.966,74.352 658.163,74.416C658.366,74.48 658.539,74.573 658.683,74.696C658.827,74.813 658.939,74.96 659.019,75.136C659.104,75.307 659.147,75.501 659.147,75.72C659.147,75.907 659.118,76.075 659.059,76.224C659.006,76.373 658.928,76.501 658.827,76.608C658.731,76.715 658.614,76.805 658.475,76.88C658.342,76.949 658.198,77.003 658.043,77.04L658.043,77.072C658.208,77.099 658.366,77.149 658.515,77.224C658.664,77.293 658.792,77.387 658.899,77.504C659.011,77.621 659.099,77.763 659.163,77.928C659.227,78.093 659.259,78.28 659.259,78.488C659.259,78.728 659.216,78.949 659.131,79.152C659.046,79.349 658.923,79.517 658.763,79.656C658.603,79.795 658.411,79.904 658.187,79.984C657.963,80.059 657.712,80.096 657.435,80.096C657.211,80.096 657.008,80.072 656.827,80.024C656.646,79.981 656.483,79.92 656.339,79.84C656.195,79.755 656.067,79.656 655.955,79.544C655.843,79.432 655.744,79.312 655.659,79.184L656.019,78.912C656.174,79.152 656.36,79.341 656.579,79.48C656.798,79.613 657.083,79.68 657.435,79.68C657.846,79.68 658.168,79.579 658.403,79.376C658.638,79.168 658.755,78.888 658.755,78.536L658.755,78.408C658.755,78.056 658.64,77.781 658.411,77.584C658.187,77.381 657.859,77.28 657.427,77.28L656.723,77.28L656.723,76.864L657.395,76.864ZM660.72,80L660.72,79.584L662.384,79.584L662.384,74.768L662.344,74.768L660.808,76.136L660.536,75.832L662.128,74.416L662.856,74.416L662.856,79.584L664.416,79.584L664.416,80L660.72,80Z" style="fill-rule:nonzero;"/>
    <path d="M465.923,75L465.923,74.584L467.587,74.584L467.587,69.768L467.547,69.768L466.011,71.136L465.739,70.832L467.331,69.416L468.059,69.416L468.059,74.584L469.619,74.584L469.619,75L465.923,75ZM471.424,75L473.704,69.832L470.992,69.832L470.992,70.984L470.56,70.984L470.56,69.416L474.192,69.416L474.192,69.84L471.944,75L471.424,75Z" style="fill-rule:nonzero;"/>
    <path d="M117,91C121.971,91 126,86.971 126,82C126,77.029 121.971,73 117,73C112.029,73 108,77.029 108,82C108,86.971 112.029,91 117,91Z" style="fill:rgb(141,153,174);fill-rule:nonzero;stroke:black;stroke-width:0.5px;"/>
    <path d="M117,193C121.971,193 126,188.971 126,184C126,179.029 121.971,175 117,175C112.029,175 108,179.029 108,184C108,188.971 112.029,193 117,193Z" style="fill:rgb(0,149,182);fill-rule:nonzero;stroke:black;stroke-width:0.5px;"/>
    <path d="M377,363C381.971,363 386,358.971 386,354C386,349.029 381.971,345 377,345C372.029,345 368,349.029 368,354C368,358.971 372.029,363 377,363Z" style="fill:rgb(255,183,3);fill-rule:nonzero;stroke:black;stroke-width:0.5px;"/>
    <path d="M377,465C381.971,465 386,460.971 386,456C386,451.029 381.971,447 377,447C372.029,447 368,451.029 368,456C368,460.971 372.029,465 377,465Z" style="fill:rgb(141,153,174);fill-rule:nonzero;stroke:black;stroke-width:0.5px;"/>
    <path d="M117.5,317C120.538,317 123,314.538 123,311.5C123,308.462 120.538,306 117.5,306C114.462,306 112,308.462 112,311.5C112,314.538 114.462,317 117.5,317Z" style="fill:rgb(141,153,174);fill-rule:nonzero;stroke:black;stroke-width:0.5px;"/>
    <path d="M117.5,373C120.538,373 123,370.538 123,367.5C123,364.462 120.538,362 117.5,362C114.462,362 112,364.462 112,367.5C112,370.538 114.462,373 117.5,373Z" style="fill:rgb(141,153,174);fill-rule:nonzero;stroke:black;stroke-width:0.5px;"/>
    <path d="M117.5,427C120.538,427 123,424.538 123,421.5C123,418.462 120.538,416 117.5,416C114.462,416 112,418.462 112,421.5C112,424.538 114.462,427 117.5,427Z" style="fill:rgb(141,153,174);fill-rule:nonzero;stroke:black;stroke-width:0.5px;"/>
    <path d="M117.5,483C120.538,483 123,480.538 123,477.5C123,474.462 120.538,472 117.5,472C114.462,472 112,474.462 112,477.5C112,480.538 114.462,483 117.5,483Z" style="fill:rgb(46,196,182);fill-rule:nonzero;stroke:black;stroke-width:0.5px;"/>
    <path d="M639.5,342C643.642,342 647,338.642 647,334.5C647,330.358 643.642,327 639.5,327C635.358,327 632,330.358 632,334.5C632,338.642 635.358,342 639.5,342Z" style="fill:rgb(239,35,60);fill-rule:nonzero;stroke:black;stroke-width:0.5px;"/>
    <path d="M639.5,404C643.642,404 647,400.642 647,396.5C647,392.358 643.642,389 639.5,389C635.358,389 632,392.358 632,396.5C632,400.642 635.358,404 639.5,404Z" style="fill:rgb(141,153,174);fill-rule:nonzero;stroke:black;stroke-width:0.5px;"/>
    <path d="M601.5,458C605.642,458 609,454.642 609,450.5C609,446.358 605.642,443 601.5,443C597.358,443 594,446.358 594,450.5C594,454.642 597.358,458 601.5,458Z" style="fill:rgb(239,35,60);fill-rule:nonzero;stroke:black;stroke-width:0.5px;"/>
    <path d="M677.5,458C681.642,458 685,454.642 685,450.5C685,446.358 681.642,443 677.5,443C673.358,443 670,446.358 670,450.5C670,454.642 673.358,458 677.5,458Z" style="fill:rgb(239,35,60);fill-rule:nonzero;stroke:black;stroke-width:0.5px;"/>
    <path d="M641.5,85C645.642,85 649,81.642 649,77.5C649,73.358 645.642,70 641.5,70C637.358,70 634,73.358 634,77.5C634,81.642 637.358,85 641.5,85Z" style="fill:rgb(2,48,71);fill-rule:nonzero;stroke:black;stroke-width:0.5px;"/>
    <path d="M641.5,148C645.642,148 649,144.642 649,140.5C649,136.358 645.642,133 641.5,133C637.358,133 634,136.358 634,140.5C634,144.642 637.358,148 641.5,148Z" style="fill:rgb(141,153,174);fill-rule:nonzero;stroke:black;stroke-width:0.5px;"/>
    <path d="M596.5,199C600.642,199 604,195.642 604,191.5C604,187.358 600.642,184 596.5,184C592.358,184 589,187.358 589,191.5C589,195.642 592.358,199 596.5,199Z" style="fill:rgb(2,48,71);fill-rule:nonzero;stroke:black;stroke-width:0.5px;"/>
    <path d="M686.5,199C690.642,199 694,195.642 694,191.5C694,187.358 690.642,184 686.5,184C682.358,184 679,187.358 679,191.5C679,195.642 682.358,199 686.5,199Z" style="fill:rgb(2,48,71);fill-rule:nonzero;stroke:black;stroke-width:0.5px;"/>
    <path d="M377.5,88C381.09,88 384,85.09 384,81.5C384,77.91 381.09,75 377.5,75C373.91,75 371,77.91 371,81.5C371,85.09 373.91,88 377.5,88Z" style="fill:rgb(2,48,71);fill-rule:nonzero;stroke:black;stroke-width:0.5px;"/>
    <path d="M377.5,153C381.09,153 384,150.09 384,146.5C384,142.91 381.09,140 377.5,140C373.91,140 371,142.91 371,146.5C371,150.09 373.91,153 377.5,153Z" style="fill:rgb(141,153,174);fill-rule:nonzero;stroke:black;stroke-width:0.5px;"/>
    <path d="M377.5,217C381.09,217 384,214.09 384,210.5C384,206.91 381.09,204 377.5,204C373.91,204 371,206.91 371,210.5C371,214.09 373.91,217 377.5,217Z" style="fill:rgb(141,153,174);fill-rule:nonzero;stroke:black;stroke-width:0.5px;"/>
    <path d="M456,77C458.761,77 461,74.761 461,72C461,69.239 458.761,67 456,67C453.239,67 451,69.239 451,72C451,74.761 453.239,77 456,77Z" style="fill:rgb(2,48,71);fill-rule:nonzero;stroke:black;stroke-width:0.5px;"/>
    <path d="M456,124C458.761,124 461,121.761 461,119C461,116.239 458.761,114 456,114C453.239,114 451,116.239 451,119C451,121.761 453.239,124 456,124Z" style="fill:rgb(141,153,174);fill-rule:nonzero;stroke:black;stroke-width:0.5px;"/>
    <path d="M456,170C458.761,170 461,167.761 461,165C461,162.239 458.761,160 456,160C453.239,160 451,162.239 451,165C451,167.761 453.239,170 456,170Z" style="fill:rgb(141,153,174);fill-rule:nonzero;stroke:black;stroke-width:0.5px;"/>
    <path d="M456,217C458.761,217 461,214.761 461,212C461,209.239 458.761,207 456,207C453.239,207 451,209.239 451,212C451,214.761 453.239,217 456,217Z" style="fill:rgb(141,153,174);fill-rule:nonzero;stroke:black;stroke-width:0.5px;"/>
    <path d="M546,77C548.761,77 551,74.761 551,72C551,69.239 548.761,67 546,67C543.239,67 541,69.239 541,72C541,74.761 543.239,77 546,77Z" style="fill:rgb(2,48,71);fill-rule:nonzero;stroke:black;stroke-width:0.5px;"/>
    <path d="M546,124C548.761,124 551,121.761 551,119C551,116.239 548.761,114 546,114C543.239,114 541,116.239 541,119C541,121.761 543.239,124 546,124Z" style="fill:rgb(141,153,174);fill-rule:nonzero;stroke:black;stroke-width:0.5px;"/>
    <path d="M546,171C548.761,171 551,168.761 551,166C551,163.239 548.761,161 546,161C543.239,161 541,163.239 541,166C541,168.761 543.239,171 546,171Z" style="fill:rgb(141,153,174);fill-rule:nonzero;stroke:black;stroke-width:0.5px;"/>
    <path d="M546,217C548.761,217 551,214.761 551,212C551,209.239 548.761,207 546,207C543.239,207 541,209.239 541,212C541,214.761 543.239,217 546,217Z" style="fill:rgb(141,153,174);fill-rule:nonzero;stroke:black;stroke-width:0.5px;"/>
    <path d="M116.055,58.03L115.955,58.03C115.882,58.343 115.702,58.603 115.415,58.81C115.135,59.017 114.738,59.12 114.225,59.12C113.845,59.12 113.498,59.05 113.185,58.91C112.872,58.763 112.605,58.543 112.385,58.25C112.165,57.957 111.992,57.583 111.865,57.13C111.745,56.67 111.685,56.13 111.685,55.51C111.685,54.263 111.918,53.35 112.385,52.77C112.852,52.19 113.508,51.9 114.355,51.9C114.968,51.9 115.458,52.033 115.825,52.3C116.192,52.56 116.478,52.92 116.685,53.38L116.025,53.78C115.892,53.413 115.688,53.127 115.415,52.92C115.142,52.713 114.788,52.61 114.355,52.61C113.775,52.61 113.328,52.803 113.015,53.19C112.702,53.57 112.545,54.083 112.545,54.73L112.545,56.29C112.545,56.937 112.702,57.453 113.015,57.84C113.328,58.22 113.775,58.41 114.355,58.41C114.582,58.41 114.795,58.377 114.995,58.31C115.202,58.243 115.378,58.147 115.525,58.02C115.678,57.887 115.798,57.727 115.885,57.54C115.972,57.347 116.015,57.13 116.015,56.89L116.015,56.13L114.635,56.13L114.635,55.43L116.795,55.43L116.795,59L116.055,59L116.055,58.03ZM120.135,59.12C119.755,59.12 119.428,59.053 119.155,58.92C118.881,58.787 118.655,58.577 118.475,58.29C118.301,57.997 118.171,57.623 118.085,57.17C117.998,56.71 117.955,56.157 117.955,55.51C117.955,54.863 117.998,54.313 118.085,53.86C118.171,53.4 118.301,53.027 118.475,52.74C118.655,52.447 118.881,52.233 119.155,52.1C119.428,51.967 119.755,51.9 120.135,51.9C120.515,51.9 120.841,51.967 121.115,52.1C121.388,52.233 121.611,52.447 121.785,52.74C121.965,53.027 122.098,53.4 122.185,53.86C122.271,54.313 122.315,54.863 122.315,55.51C122.315,56.157 122.271,56.71 122.185,57.17C122.098,57.623 121.965,57.997 121.785,58.29C121.611,58.577 121.388,58.787 121.115,58.92C120.841,59.053 120.515,59.12 120.135,59.12ZM120.135,58.43C120.615,58.43 120.958,58.26 121.165,57.92C121.371,57.573 121.475,57.09 121.475,56.47L121.475,54.55C121.475,53.93 121.371,53.45 121.165,53.11C120.958,52.763 120.615,52.59 120.135,52.59C119.655,52.59 119.311,52.763 119.105,53.11C118.898,53.45 118.795,53.93 118.795,54.55L118.795,56.47C118.795,57.09 118.898,57.573 119.105,57.92C119.311,58.26 119.655,58.43 120.135,58.43Z" style="fill-rule:nonzero;"/>
    <path d="M376.055,310.03L375.955,310.03C375.882,310.343 375.702,310.603 375.415,310.81C375.135,311.017 374.738,311.12 374.225,311.12C373.845,311.12 373.498,311.05 373.185,310.91C372.872,310.763 372.605,310.543 372.385,310.25C372.165,309.957 371.992,309.583 371.865,309.13C371.745,308.67 371.685,308.13 371.685,307.51C371.685,306.263 371.918,305.35 372.385,304.77C372.852,304.19 373.508,303.9 374.355,303.9C374.968,303.9 375.458,304.033 375.825,304.3C376.192,304.56 376.478,304.92 376.685,305.38L376.025,305.78C375.892,305.413 375.688,305.127 375.415,304.92C375.142,304.713 374.788,304.61 374.355,304.61C373.775,304.61 373.328,304.803 373.015,305.19C372.702,305.57 372.545,306.083 372.545,306.73L372.545,308.29C372.545,308.937 372.702,309.453 373.015,309.84C373.328,310.22 373.775,310.41 374.355,310.41C374.582,310.41 374.795,310.377 374.995,310.31C375.202,310.243 375.378,310.147 375.525,310.02C375.678,309.887 375.798,309.727 375.885,309.54C375.972,309.347 376.015,309.13 376.015,308.89L376.015,308.13L374.635,308.13L374.635,307.43L376.795,307.43L376.795,311L376.055,311L376.055,310.03ZM380.135,311.12C379.755,311.12 379.428,311.053 379.155,310.92C378.881,310.787 378.655,310.577 378.475,310.29C378.301,309.997 378.171,309.623 378.085,309.17C377.998,308.71 377.955,308.157 377.955,307.51C377.955,306.863 377.998,306.313 378.085,305.86C378.171,305.4 378.301,305.027 378.475,304.74C378.655,304.447 378.881,304.233 379.155,304.1C379.428,303.967 379.755,303.9 380.135,303.9C380.515,303.9 380.841,303.967 381.115,304.1C381.388,304.233 381.611,304.447 381.785,304.74C381.965,305.027 382.098,305.4 382.185,305.86C382.271,306.313 382.315,306.863 382.315,307.51C382.315,308.157 382.271,308.71 382.185,309.17C382.098,309.623 381.965,309.997 381.785,310.29C381.611,310.577 381.388,310.787 381.115,310.92C380.841,311.053 380.515,311.12 380.135,311.12ZM380.135,310.43C380.615,310.43 380.958,310.26 381.165,309.92C381.371,309.573 381.475,309.09 381.475,308.47L381.475,306.55C381.475,305.93 381.371,305.45 381.165,305.11C380.958,304.763 380.615,304.59 380.135,304.59C379.655,304.59 379.311,304.763 379.105,305.11C378.898,305.45 378.795,305.93 378.795,306.55L378.795,308.47C378.795,309.09 378.898,309.573 379.105,309.92C379.311,310.26 379.655,310.43 380.135,310.43Z" style="fill-rule:nonzero;"/>
    <path d="M116.555,289.03L116.455,289.03C116.382,289.343 116.202,289.603 115.915,289.81C115.635,290.017 115.238,290.12 114.725,290.12C114.345,290.12 113.998,290.05 113.685,289.91C113.372,289.763 113.105,289.543 112.885,289.25C112.665,288.957 112.492,288.583 112.365,288.13C112.245,287.67 112.185,287.13 112.185,286.51C112.185,285.263 112.418,284.35 112.885,283.77C113.352,283.19 114.008,282.9 114.855,282.9C115.468,282.9 115.958,283.033 116.325,283.3C116.692,283.56 116.978,283.92 117.185,284.38L116.525,284.78C116.392,284.413 116.188,284.127 115.915,283.92C115.642,283.713 115.288,283.61 114.855,283.61C114.275,283.61 113.828,283.803 113.515,284.19C113.202,284.57 113.045,285.083 113.045,285.73L113.045,287.29C113.045,287.937 113.202,288.453 113.515,288.84C113.828,289.22 114.275,289.41 114.855,289.41C115.082,289.41 115.295,289.377 115.495,289.31C115.702,289.243 115.878,289.147 116.025,289.02C116.178,288.887 116.298,288.727 116.385,288.54C116.472,288.347 116.515,288.13 116.515,287.89L116.515,287.13L115.135,287.13L115.135,286.43L117.295,286.43L117.295,290L116.555,290L116.555,289.03ZM120.635,290.12C119.915,290.12 119.368,289.94 118.995,289.58C118.628,289.22 118.445,288.727 118.445,288.1C118.445,287.567 118.571,287.16 118.825,286.88C119.078,286.6 119.395,286.433 119.775,286.38L119.775,286.28C119.441,286.207 119.168,286.03 118.955,285.75C118.741,285.47 118.635,285.1 118.635,284.64C118.635,284.053 118.808,283.617 119.155,283.33C119.508,283.043 120.001,282.9 120.635,282.9C121.268,282.9 121.758,283.043 122.105,283.33C122.458,283.617 122.635,284.053 122.635,284.64C122.635,285.1 122.528,285.47 122.315,285.75C122.101,286.03 121.828,286.207 121.495,286.28L121.495,286.38C121.875,286.433 122.191,286.6 122.445,286.88C122.698,287.16 122.825,287.567 122.825,288.1C122.825,288.727 122.638,289.22 122.265,289.58C121.898,289.94 121.355,290.12 120.635,290.12ZM120.635,289.42C121.061,289.42 121.391,289.313 121.625,289.1C121.865,288.887 121.985,288.577 121.985,288.17L121.985,287.91C121.985,287.503 121.865,287.193 121.625,286.98C121.391,286.767 121.061,286.66 120.635,286.66C120.208,286.66 119.875,286.767 119.635,286.98C119.401,287.193 119.285,287.503 119.285,287.91L119.285,288.17C119.285,288.577 119.401,288.887 119.635,289.1C119.875,289.313 120.208,289.42 120.635,289.42ZM120.635,285.99C121.421,285.99 121.815,285.627 121.815,284.9L121.815,284.69C121.815,283.963 121.421,283.6 120.635,283.6C119.848,283.6 119.455,283.963 119.455,284.69L119.455,284.9C119.455,285.627 119.848,285.99 120.635,285.99Z" style="fill-rule:nonzero;"/>
    <path d="M635.855,308.03L635.755,308.03C635.682,308.343 635.502,308.603 635.215,308.81C634.935,309.017 634.538,309.12 634.025,309.12C633.645,309.12 633.298,309.05 632.985,308.91C632.672,308.763 632.405,308.543 632.185,308.25C631.965,307.957 631.792,307.583 631.665,307.13C631.545,306.67 631.485,306.13 631.485,305.51C631.485,304.263 631.718,303.35 632.185,302.77C632.652,302.19 633.308,301.9 634.155,301.9C634.768,301.9 635.258,302.033 635.625,302.3C635.992,302.56 636.278,302.92 636.485,303.38L635.825,303.78C635.692,303.413 635.488,303.127 635.215,302.92C634.942,302.713 634.588,302.61 634.155,302.61C633.575,302.61 633.128,302.803 632.815,303.19C632.502,303.57 632.345,304.083 632.345,304.73L632.345,306.29C632.345,306.937 632.502,307.453 632.815,307.84C633.128,308.22 633.575,308.41 634.155,308.41C634.382,308.41 634.595,308.377 634.795,308.31C635.002,308.243 635.178,308.147 635.325,308.02C635.478,307.887 635.598,307.727 635.685,307.54C635.772,307.347 635.815,307.13 635.815,306.89L635.815,306.13L634.435,306.13L634.435,305.43L636.595,305.43L636.595,309L635.855,309L635.855,308.03ZM638.024,309L638.024,308.3L639.764,308.3L639.764,302.61L639.704,302.61L638.224,303.98L637.774,303.49L639.354,302.02L640.564,302.02L640.564,308.3L642.164,308.3L642.164,309L638.024,309ZM645.335,309.12C644.955,309.12 644.628,309.053 644.355,308.92C644.081,308.787 643.855,308.577 643.675,308.29C643.501,307.997 643.371,307.623 643.285,307.17C643.198,306.71 643.155,306.157 643.155,305.51C643.155,304.863 643.198,304.313 643.285,303.86C643.371,303.4 643.501,303.027 643.675,302.74C643.855,302.447 644.081,302.233 644.355,302.1C644.628,301.967 644.955,301.9 645.335,301.9C645.715,301.9 646.041,301.967 646.315,302.1C646.588,302.233 646.811,302.447 646.985,302.74C647.165,303.027 647.298,303.4 647.385,303.86C647.471,304.313 647.515,304.863 647.515,305.51C647.515,306.157 647.471,306.71 647.385,307.17C647.298,307.623 647.165,307.997 646.985,308.29C646.811,308.577 646.588,308.787 646.315,308.92C646.041,309.053 645.715,309.12 645.335,309.12ZM645.335,308.43C645.815,308.43 646.158,308.26 646.365,307.92C646.571,307.573 646.675,307.09 646.675,306.47L646.675,304.55C646.675,303.93 646.571,303.45 646.365,303.11C646.158,302.763 645.815,302.59 645.335,302.59C644.855,302.59 644.511,302.763 644.305,303.11C644.098,303.45 643.995,303.93 643.995,304.55L643.995,306.47C643.995,307.09 644.098,307.573 644.305,307.92C644.511,308.26 644.855,308.43 645.335,308.43Z" style="fill-rule:nonzero;"/>
    <path d="M638.355,52.03L638.255,52.03C638.182,52.343 638.002,52.603 637.715,52.81C637.435,53.017 637.038,53.12 636.525,53.12C636.145,53.12 635.798,53.05 635.485,52.91C635.172,52.763 634.905,52.543 634.685,52.25C634.465,51.957 634.292,51.583 634.165,51.13C634.045,50.67 633.985,50.13 633.985,49.51C633.985,48.263 634.218,47.35 634.685,46.77C635.152,46.19 635.808,45.9 636.655,45.9C637.268,45.9 637.758,46.033 638.125,46.3C638.492,46.56 638.778,46.92 638.985,47.38L638.325,47.78C638.192,47.413 637.988,47.127 637.715,46.92C637.442,46.713 637.088,46.61 636.655,46.61C636.075,46.61 635.628,46.803 635.315,47.19C635.002,47.57 634.845,48.083 634.845,48.73L634.845,50.29C634.845,50.937 635.002,51.453 635.315,51.84C635.628,52.22 636.075,52.41 636.655,52.41C636.882,52.41 637.095,52.377 637.295,52.31C637.502,52.243 637.678,52.147 637.825,52.02C637.978,51.887 638.098,51.727 638.185,51.54C638.272,51.347 638.315,51.13 638.315,50.89L638.315,50.13L636.935,50.13L636.935,49.43L639.095,49.43L639.095,53L638.355,53L638.355,52.03ZM640.524,53L640.524,52.3L642.264,52.3L642.264,46.61L642.204,46.61L640.724,47.98L640.274,47.49L641.854,46.02L643.064,46.02L643.064,52.3L644.664,52.3L644.664,53L640.524,53ZM645.925,53L645.925,52.3L647.665,52.3L647.665,46.61L647.605,46.61L646.125,47.98L645.675,47.49L647.255,46.02L648.465,46.02L648.465,52.3L650.065,52.3L650.065,53L645.925,53Z" style="fill-rule:nonzero;"/>
    <path d="M376.555,52.03L376.455,52.03C376.382,52.343 376.202,52.603 375.915,52.81C375.635,53.017 375.238,53.12 374.725,53.12C374.345,53.12 373.998,53.05 373.685,52.91C373.372,52.763 373.105,52.543 372.885,52.25C372.665,51.957 372.492,51.583 372.365,51.13C372.245,50.67 372.185,50.13 372.185,49.51C372.185,48.263 372.418,47.35 372.885,46.77C373.352,46.19 374.008,45.9 374.855,45.9C375.468,45.9 375.958,46.033 376.325,46.3C376.692,46.56 376.978,46.92 377.185,47.38L376.525,47.78C376.392,47.413 376.188,47.127 375.915,46.92C375.642,46.713 375.288,46.61 374.855,46.61C374.275,46.61 373.828,46.803 373.515,47.19C373.202,47.57 373.045,48.083 373.045,48.73L373.045,50.29C373.045,50.937 373.202,51.453 373.515,51.84C373.828,52.22 374.275,52.41 374.855,52.41C375.082,52.41 375.295,52.377 375.495,52.31C375.702,52.243 375.878,52.147 376.025,52.02C376.178,51.887 376.298,51.727 376.385,51.54C376.472,51.347 376.515,51.13 376.515,50.89L376.515,50.13L375.135,50.13L375.135,49.43L377.295,49.43L377.295,53L376.555,53L376.555,52.03ZM380.285,48.99C380.705,48.99 381.018,48.89 381.225,48.69C381.438,48.483 381.545,48.203 381.545,47.85L381.545,47.7C381.545,47.307 381.445,47.027 381.245,46.86C381.045,46.693 380.775,46.61 380.435,46.61C380.115,46.61 379.855,46.683 379.655,46.83C379.455,46.977 379.288,47.19 379.155,47.47L378.575,47.02C378.655,46.88 378.751,46.743 378.865,46.61C378.978,46.47 379.111,46.35 379.265,46.25C379.425,46.143 379.605,46.06 379.805,46C380.005,45.933 380.231,45.9 380.485,45.9C380.771,45.9 381.031,45.937 381.265,46.01C381.498,46.077 381.698,46.183 381.865,46.33C382.031,46.47 382.158,46.65 382.245,46.87C382.338,47.09 382.385,47.35 382.385,47.65C382.385,47.883 382.351,48.093 382.285,48.28C382.218,48.467 382.128,48.627 382.015,48.76C381.901,48.893 381.768,49.003 381.615,49.09C381.468,49.177 381.308,49.237 381.135,49.27L381.135,49.37C381.321,49.39 381.498,49.44 381.665,49.52C381.831,49.6 381.978,49.71 382.105,49.85C382.231,49.99 382.328,50.163 382.395,50.37C382.468,50.577 382.505,50.817 382.505,51.09C382.505,51.717 382.318,52.213 381.945,52.58C381.578,52.94 381.051,53.12 380.365,53.12C380.091,53.12 379.848,53.087 379.635,53.02C379.421,52.953 379.231,52.867 379.065,52.76C378.905,52.653 378.761,52.53 378.635,52.39C378.515,52.25 378.405,52.107 378.305,51.96L378.905,51.51C379.065,51.783 379.248,52.003 379.455,52.17C379.668,52.33 379.965,52.41 380.345,52.41C380.778,52.41 381.105,52.307 381.325,52.1C381.551,51.887 381.665,51.563 381.665,51.13L381.665,50.97C381.665,50.537 381.551,50.217 381.325,50.01C381.105,49.797 380.778,49.69 380.345,49.69L379.605,49.69L379.605,48.99L380.285,48.99Z" style="fill-rule:nonzero;"/>
    <path d="M456.055,52.03L455.955,52.03C455.882,52.343 455.702,52.603 455.415,52.81C455.135,53.017 454.738,53.12 454.225,53.12C453.845,53.12 453.498,53.05 453.185,52.91C452.872,52.763 452.605,52.543 452.385,52.25C452.165,51.957 451.992,51.583 451.865,51.13C451.745,50.67 451.685,50.13 451.685,49.51C451.685,48.263 451.918,47.35 452.385,46.77C452.852,46.19 453.508,45.9 454.355,45.9C454.968,45.9 455.458,46.033 455.825,46.3C456.192,46.56 456.478,46.92 456.685,47.38L456.025,47.78C455.892,47.413 455.688,47.127 455.415,46.92C455.142,46.713 454.788,46.61 454.355,46.61C453.775,46.61 453.328,46.803 453.015,47.19C452.702,47.57 452.545,48.083 452.545,48.73L452.545,50.29C452.545,50.937 452.702,51.453 453.015,51.84C453.328,52.22 453.775,52.41 454.355,52.41C454.582,52.41 454.795,52.377 454.995,52.31C455.202,52.243 455.378,52.147 455.525,52.02C455.678,51.887 455.798,51.727 455.885,51.54C455.972,51.347 456.015,51.13 456.015,50.89L456.015,50.13L454.635,50.13L454.635,49.43L456.795,49.43L456.795,53L456.055,53L456.055,52.03ZM459.005,53L461.385,46.71L458.755,46.71L458.755,48.01L458.045,48.01L458.045,46.02L462.195,46.02L462.195,46.72L459.855,53L459.005,53Z" style="fill-rule:nonzero;"/>
    <path d="M547.555,52.03L547.455,52.03C547.382,52.343 547.202,52.603 546.915,52.81C546.635,53.017 546.238,53.12 545.725,53.12C545.345,53.12 544.998,53.05 544.685,52.91C544.372,52.763 544.105,52.543 543.885,52.25C543.665,51.957 543.492,51.583 543.365,51.13C543.245,50.67 543.185,50.13 543.185,49.51C543.185,48.263 543.418,47.35 543.885,46.77C544.352,46.19 545.008,45.9 545.855,45.9C546.468,45.9 546.958,46.033 547.325,46.3C547.692,46.56 547.978,46.92 548.185,47.38L547.525,47.78C547.392,47.413 547.188,47.127 546.915,46.92C546.642,46.713 546.288,46.61 545.855,46.61C545.275,46.61 544.828,46.803 544.515,47.19C544.202,47.57 544.045,48.083 544.045,48.73L544.045,50.29C544.045,50.937 544.202,51.453 544.515,51.84C544.828,52.22 545.275,52.41 545.855,52.41C546.082,52.41 546.295,52.377 546.495,52.31C546.702,52.243 546.878,52.147 547.025,52.02C547.178,51.887 547.298,51.727 547.385,51.54C547.472,51.347 547.515,51.13 547.515,50.89L547.515,50.13L546.135,50.13L546.135,49.43L548.295,49.43L548.295,53L547.555,53L547.555,52.03ZM551.635,53.12C550.915,53.12 550.368,52.94 549.995,52.58C549.628,52.22 549.445,51.727 549.445,51.1C549.445,50.567 549.571,50.16 549.825,49.88C550.078,49.6 550.395,49.433 550.775,49.38L550.775,49.28C550.441,49.207 550.168,49.03 549.955,48.75C549.741,48.47 549.635,48.1 549.635,47.64C549.635,47.053 549.808,46.617 550.155,46.33C550.508,46.043 551.001,45.9 551.635,45.9C552.268,45.9 552.758,46.043 553.105,46.33C553.458,46.617 553.635,47.053 553.635,47.64C553.635,48.1 553.528,48.47 553.315,48.75C553.101,49.03 552.828,49.207 552.495,49.28L552.495,49.38C552.875,49.433 553.191,49.6 553.445,49.88C553.698,50.16 553.825,50.567 553.825,51.1C553.825,51.727 553.638,52.22 553.265,52.58C552.898,52.94 552.355,53.12 551.635,53.12ZM551.635,52.42C552.061,52.42 552.391,52.313 552.625,52.1C552.865,51.887 552.985,51.577 552.985,51.17L552.985,50.91C552.985,50.503 552.865,50.193 552.625,49.98C552.391,49.767 552.061,49.66 551.635,49.66C551.208,49.66 550.875,49.767 550.635,49.98C550.401,50.193 550.285,50.503 550.285,50.91L550.285,51.17C550.285,51.577 550.401,51.887 550.635,52.1C550.875,52.313 551.208,52.42 551.635,52.42ZM551.635,48.99C552.421,48.99 552.815,48.627 552.815,47.9L552.815,47.69C552.815,46.963 552.421,46.6 551.635,46.6C550.848,46.6 550.455,46.963 550.455,47.69L550.455,47.9C550.455,48.627 550.848,48.99 551.635,48.99Z" style="fill-rule:nonzero;"/>
</svg>
