<?xml version="1.0" encoding="UTF-8" standalone="no"?>
<!DOCTYPE svg PUBLIC "-//W3C//DTD SVG 1.1//EN" "http://www.w3.org/Graphics/SVG/1.1/DTD/svg11.dtd">
<svg width="100%" height="100%" viewBox="0 0 977 139" version="1.1" xmlns="http://www.w3.org/2000/svg" xmlns:xlink="http://www.w3.org/1999/xlink" xml:space="preserve" xmlns:serif="http://www.serif.com/" style="fill-rule:evenodd;clip-rule:evenodd;stroke-linejoin:round;stroke-miterlimit:2;">
    <path d="M11.313,48C16.836,48 21.313,43.523 21.313,38C21.313,32.477 16.836,28 11.313,28C5.79,28 1.313,32.477 1.313,38C1.313,43.523 5.79,48 11.313,48Z" style="fill:rgb(0,149,182);fill-rule:nonzero;"/>
    <path d="M111,48C116.523,48 121,43.523 121,38C121,32.477 116.523,28 111,28C105.477,28 101,32.477 101,38C101,43.523 105.477,48 111,48Z" style="fill:rgb(0,149,182);fill-rule:nonzero;"/>
    <path d="M99.354,38.358C99.549,38.163 99.549,37.846 99.354,37.651L96.172,34.469C95.977,34.274 95.66,34.274 95.465,34.469C95.269,34.664 95.269,34.981 95.465,35.176L98.293,38.005L95.464,40.833C95.269,41.028 95.269,41.345 95.464,41.54C95.659,41.735 95.976,41.735 96.171,41.54L99.354,38.358ZM22,38.5L99,38.505L99,37.505L22,37.5L22,38.5Z" style="fill-rule:nonzero;"/>
    <path d="M211,48C216.523,48 221,43.523 221,38C221,32.477 216.523,28 211,28C205.477,28 201,32.477 201,38C201,43.523 205.477,48 211,48Z" style="fill:rgb(0,149,182);fill-rule:nonzero;"/>
    <path d="M310.687,48C316.21,48 320.687,43.523 320.687,38C320.687,32.477 316.21,28 310.687,28C305.164,28 300.687,32.477 300.687,38C300.687,43.523 305.164,48 310.687,48Z" style="fill:rgb(0,149,182);fill-rule:nonzero;"/>
    <path d="M222.334,37.646C222.138,37.842 222.138,38.158 222.334,38.354L225.516,41.536C225.711,41.731 226.028,41.731 226.223,41.536C226.418,41.34 226.418,41.024 226.223,40.828L223.394,38L226.223,35.172C226.418,34.976 226.418,34.66 226.223,34.465C226.028,34.269 225.711,34.269 225.516,34.465L222.334,37.646ZM299.041,38.354C299.236,38.158 299.236,37.842 299.041,37.646L295.859,34.465C295.664,34.269 295.347,34.269 295.152,34.465C294.956,34.66 294.956,34.976 295.152,35.172L297.98,38L295.152,40.828C294.956,41.024 294.956,41.34 295.152,41.536C295.347,41.731 295.664,41.731 295.859,41.536L299.041,38.354ZM222.687,38.5L298.687,38.5L298.687,37.5L222.687,37.5L222.687,38.5Z" style="fill-rule:nonzero;"/>
    <g transform="matrix(1,0,0,1,7.19831,18.8286)">
        <g transform="matrix(14,0,0,14,38.7144,116.286)">
            <path d="M0.525,-0L0.459,-0.197L0.187,-0.197L0.12,-0L0.022,-0L0.264,-0.698L0.386,-0.698L0.627,-0L0.525,-0ZM0.325,-0.609L0.32,-0.609L0.21,-0.283L0.435,-0.283L0.325,-0.609Z" style="fill-rule:nonzero;"/>
        </g>
        <g transform="matrix(14,0,0,14,47.8004,116.286)">
            <path d="M0.082,-0L0.082,-0.518L0.175,-0.518L0.175,-0.419L0.18,-0.419C0.184,-0.432 0.19,-0.444 0.198,-0.456C0.206,-0.468 0.216,-0.478 0.228,-0.488C0.24,-0.497 0.254,-0.504 0.271,-0.51C0.287,-0.515 0.305,-0.518 0.326,-0.518L0.357,-0.518L0.357,-0.425L0.311,-0.425C0.268,-0.425 0.234,-0.417 0.211,-0.402C0.187,-0.386 0.175,-0.365 0.175,-0.34L0.175,-0L0.082,-0Z" style="fill-rule:nonzero;"/>
        </g>
        <g transform="matrix(14,0,0,14,52.9804,116.286)">
            <path d="M0.278,0.012C0.241,0.012 0.208,0.006 0.179,-0.007C0.15,-0.02 0.126,-0.038 0.106,-0.061C0.086,-0.084 0.071,-0.113 0.061,-0.147C0.05,-0.18 0.045,-0.218 0.045,-0.259C0.045,-0.3 0.05,-0.338 0.061,-0.371C0.071,-0.404 0.086,-0.433 0.106,-0.457C0.126,-0.48 0.15,-0.498 0.179,-0.511C0.208,-0.524 0.241,-0.53 0.278,-0.53C0.329,-0.53 0.371,-0.519 0.403,-0.496C0.435,-0.473 0.459,-0.443 0.474,-0.406L0.397,-0.368C0.388,-0.393 0.374,-0.413 0.354,-0.428C0.333,-0.443 0.308,-0.45 0.278,-0.45C0.233,-0.45 0.2,-0.436 0.178,-0.409C0.155,-0.382 0.144,-0.347 0.144,-0.304L0.144,-0.214C0.144,-0.171 0.155,-0.136 0.178,-0.109C0.2,-0.082 0.233,-0.068 0.278,-0.068C0.31,-0.068 0.337,-0.076 0.358,-0.091C0.379,-0.106 0.397,-0.128 0.41,-0.156L0.478,-0.114C0.461,-0.075 0.436,-0.044 0.403,-0.022C0.37,0.001 0.328,0.012 0.278,0.012Z" style="fill-rule:nonzero;"/>
        </g>
        <g transform="matrix(14,0,0,14,59.9664,116.286)">
            <path d="M0.281,0.012C0.246,0.012 0.214,0.006 0.185,-0.007C0.156,-0.02 0.131,-0.038 0.11,-0.062C0.089,-0.085 0.073,-0.114 0.062,-0.147C0.051,-0.18 0.045,-0.218 0.045,-0.259C0.045,-0.3 0.051,-0.338 0.062,-0.371C0.073,-0.404 0.089,-0.433 0.11,-0.457C0.131,-0.48 0.156,-0.498 0.185,-0.511C0.214,-0.524 0.246,-0.53 0.281,-0.53C0.316,-0.53 0.349,-0.524 0.378,-0.511C0.407,-0.498 0.431,-0.48 0.452,-0.457C0.473,-0.433 0.489,-0.404 0.5,-0.371C0.511,-0.338 0.517,-0.3 0.517,-0.259C0.517,-0.218 0.511,-0.18 0.5,-0.147C0.489,-0.114 0.473,-0.085 0.452,-0.062C0.431,-0.038 0.407,-0.02 0.378,-0.007C0.349,0.006 0.316,0.012 0.281,0.012ZM0.281,-0.068C0.322,-0.068 0.355,-0.081 0.38,-0.106C0.405,-0.131 0.418,-0.169 0.418,-0.22L0.418,-0.298C0.418,-0.349 0.405,-0.387 0.38,-0.412C0.355,-0.437 0.322,-0.45 0.281,-0.45C0.24,-0.45 0.207,-0.437 0.182,-0.412C0.157,-0.387 0.144,-0.349 0.144,-0.298L0.144,-0.22C0.144,-0.169 0.157,-0.131 0.182,-0.106C0.207,-0.081 0.24,-0.068 0.281,-0.068Z" style="fill-rule:nonzero;"/>
        </g>
    </g>
    <g transform="matrix(1,0,0,1,181.398,17.8173)">
        <g transform="matrix(14,0,0,14,38.7144,116.286)">
            <path d="M0.187,-0L0.09,-0L0.09,-0.698L0.378,-0.698C0.44,-0.698 0.489,-0.68 0.524,-0.644C0.559,-0.608 0.576,-0.558 0.576,-0.493C0.576,-0.442 0.565,-0.4 0.542,-0.367C0.519,-0.334 0.484,-0.311 0.439,-0.3L0.594,-0L0.485,-0L0.34,-0.29L0.187,-0.29L0.187,-0ZM0.374,-0.374C0.405,-0.374 0.43,-0.382 0.447,-0.399C0.464,-0.415 0.473,-0.438 0.473,-0.468L0.473,-0.518C0.473,-0.548 0.464,-0.571 0.447,-0.588C0.43,-0.604 0.405,-0.612 0.374,-0.612L0.187,-0.612L0.187,-0.374L0.374,-0.374Z" style="fill-rule:nonzero;"/>
        </g>
        <g transform="matrix(14,0,0,14,47.5624,116.286)">
            <path d="M0.28,0.012C0.244,0.012 0.212,0.006 0.183,-0.008C0.154,-0.021 0.129,-0.039 0.109,-0.062C0.088,-0.085 0.073,-0.114 0.062,-0.147C0.05,-0.18 0.045,-0.218 0.045,-0.259C0.045,-0.3 0.05,-0.337 0.062,-0.371C0.073,-0.404 0.088,-0.433 0.109,-0.456C0.129,-0.479 0.154,-0.498 0.183,-0.511C0.212,-0.524 0.244,-0.53 0.28,-0.53C0.316,-0.53 0.348,-0.524 0.377,-0.511C0.405,-0.498 0.429,-0.48 0.448,-0.457C0.467,-0.434 0.482,-0.407 0.492,-0.376C0.502,-0.345 0.507,-0.311 0.507,-0.275L0.507,-0.236L0.142,-0.236L0.142,-0.215C0.142,-0.172 0.155,-0.136 0.18,-0.109C0.205,-0.081 0.241,-0.067 0.288,-0.067C0.321,-0.067 0.349,-0.074 0.372,-0.089C0.395,-0.104 0.414,-0.124 0.428,-0.151L0.488,-0.1C0.47,-0.066 0.443,-0.039 0.407,-0.019C0.371,0.002 0.329,0.012 0.28,0.012ZM0.28,-0.455C0.26,-0.455 0.242,-0.451 0.225,-0.444C0.208,-0.437 0.193,-0.427 0.181,-0.414C0.168,-0.401 0.159,-0.385 0.152,-0.367C0.145,-0.349 0.142,-0.329 0.142,-0.308L0.142,-0.301L0.408,-0.301L0.408,-0.311C0.408,-0.354 0.397,-0.389 0.374,-0.416C0.351,-0.442 0.319,-0.455 0.28,-0.455Z" style="fill-rule:nonzero;"/>
        </g>
        <g transform="matrix(14,0,0,14,55.2904,116.286)">
            <path d="M0.278,0.012C0.241,0.012 0.208,0.006 0.179,-0.007C0.15,-0.02 0.126,-0.038 0.106,-0.061C0.086,-0.084 0.071,-0.113 0.061,-0.147C0.05,-0.18 0.045,-0.218 0.045,-0.259C0.045,-0.3 0.05,-0.338 0.061,-0.371C0.071,-0.404 0.086,-0.433 0.106,-0.457C0.126,-0.48 0.15,-0.498 0.179,-0.511C0.208,-0.524 0.241,-0.53 0.278,-0.53C0.329,-0.53 0.371,-0.519 0.403,-0.496C0.435,-0.473 0.459,-0.443 0.474,-0.406L0.397,-0.368C0.388,-0.393 0.374,-0.413 0.354,-0.428C0.333,-0.443 0.308,-0.45 0.278,-0.45C0.233,-0.45 0.2,-0.436 0.178,-0.409C0.155,-0.382 0.144,-0.347 0.144,-0.304L0.144,-0.214C0.144,-0.171 0.155,-0.136 0.178,-0.109C0.2,-0.082 0.233,-0.068 0.278,-0.068C0.31,-0.068 0.337,-0.076 0.358,-0.091C0.379,-0.106 0.397,-0.128 0.41,-0.156L0.478,-0.114C0.461,-0.075 0.436,-0.044 0.403,-0.022C0.37,0.001 0.328,0.012 0.278,0.012Z" style="fill-rule:nonzero;"/>
        </g>
        <g transform="matrix(14,0,0,14,62.3604,116.286)">
            <path d="M0.129,-0.626C0.11,-0.626 0.096,-0.631 0.087,-0.64C0.078,-0.649 0.073,-0.662 0.073,-0.677L0.073,-0.691C0.073,-0.706 0.078,-0.719 0.087,-0.728C0.096,-0.737 0.11,-0.742 0.129,-0.742C0.148,-0.742 0.163,-0.737 0.172,-0.728C0.181,-0.719 0.185,-0.706 0.185,-0.691L0.185,-0.677C0.185,-0.662 0.181,-0.649 0.172,-0.64C0.163,-0.631 0.148,-0.626 0.129,-0.626ZM0.082,-0.518L0.175,-0.518L0.175,-0L0.082,-0L0.082,-0.518Z" style="fill-rule:nonzero;"/>
        </g>
        <g transform="matrix(14,0,0,14,65.9584,116.286)">
            <path d="M0.082,-0.518L0.175,-0.518L0.175,-0.433L0.179,-0.433C0.191,-0.465 0.21,-0.489 0.236,-0.506C0.261,-0.522 0.292,-0.53 0.328,-0.53C0.361,-0.53 0.39,-0.524 0.416,-0.512C0.441,-0.499 0.463,-0.481 0.481,-0.458C0.499,-0.434 0.513,-0.405 0.522,-0.372C0.531,-0.339 0.536,-0.301 0.536,-0.259C0.536,-0.217 0.531,-0.179 0.522,-0.146C0.513,-0.113 0.499,-0.084 0.481,-0.061C0.463,-0.037 0.441,-0.019 0.416,-0.007C0.39,0.006 0.361,0.012 0.328,0.012C0.292,0.012 0.261,0.004 0.236,-0.013C0.21,-0.029 0.191,-0.053 0.179,-0.085L0.175,-0.085L0.175,0.2L0.082,0.2L0.082,-0.518ZM0.301,-0.069C0.343,-0.069 0.376,-0.082 0.401,-0.109C0.425,-0.136 0.437,-0.171 0.437,-0.215L0.437,-0.303C0.437,-0.347 0.425,-0.382 0.401,-0.409C0.376,-0.436 0.343,-0.449 0.301,-0.449C0.284,-0.449 0.267,-0.447 0.252,-0.442C0.237,-0.437 0.223,-0.431 0.212,-0.422C0.201,-0.413 0.192,-0.403 0.185,-0.392C0.178,-0.381 0.175,-0.368 0.175,-0.354L0.175,-0.164C0.175,-0.15 0.178,-0.137 0.185,-0.126C0.192,-0.115 0.201,-0.105 0.212,-0.096C0.223,-0.087 0.237,-0.081 0.252,-0.076C0.267,-0.071 0.284,-0.069 0.301,-0.069Z" style="fill-rule:nonzero;"/>
        </g>
        <g transform="matrix(14,0,0,14,74.1484,116.286)">
            <path d="M0.082,-0L0.082,-0.518L0.175,-0.518L0.175,-0.419L0.18,-0.419C0.184,-0.432 0.19,-0.444 0.198,-0.456C0.206,-0.468 0.216,-0.478 0.228,-0.488C0.24,-0.497 0.254,-0.504 0.271,-0.51C0.287,-0.515 0.305,-0.518 0.326,-0.518L0.357,-0.518L0.357,-0.425L0.311,-0.425C0.268,-0.425 0.234,-0.417 0.211,-0.402C0.187,-0.386 0.175,-0.365 0.175,-0.34L0.175,-0L0.082,-0Z" style="fill-rule:nonzero;"/>
        </g>
        <g transform="matrix(14,0,0,14,79.3284,116.286)">
            <path d="M0.281,0.012C0.246,0.012 0.214,0.006 0.185,-0.007C0.156,-0.02 0.131,-0.038 0.11,-0.062C0.089,-0.085 0.073,-0.114 0.062,-0.147C0.051,-0.18 0.045,-0.218 0.045,-0.259C0.045,-0.3 0.051,-0.338 0.062,-0.371C0.073,-0.404 0.089,-0.433 0.11,-0.457C0.131,-0.48 0.156,-0.498 0.185,-0.511C0.214,-0.524 0.246,-0.53 0.281,-0.53C0.316,-0.53 0.349,-0.524 0.378,-0.511C0.407,-0.498 0.431,-0.48 0.452,-0.457C0.473,-0.433 0.489,-0.404 0.5,-0.371C0.511,-0.338 0.517,-0.3 0.517,-0.259C0.517,-0.218 0.511,-0.18 0.5,-0.147C0.489,-0.114 0.473,-0.085 0.452,-0.062C0.431,-0.038 0.407,-0.02 0.378,-0.007C0.349,0.006 0.316,0.012 0.281,0.012ZM0.281,-0.068C0.322,-0.068 0.355,-0.081 0.38,-0.106C0.405,-0.131 0.418,-0.169 0.418,-0.22L0.418,-0.298C0.418,-0.349 0.405,-0.387 0.38,-0.412C0.355,-0.437 0.322,-0.45 0.281,-0.45C0.24,-0.45 0.207,-0.437 0.182,-0.412C0.157,-0.387 0.144,-0.349 0.144,-0.298L0.144,-0.22C0.144,-0.169 0.157,-0.131 0.182,-0.106C0.207,-0.081 0.24,-0.068 0.281,-0.068Z" style="fill-rule:nonzero;"/>
        </g>
        <g transform="matrix(14,0,0,14,87.1964,116.286)">
            <path d="M0.278,0.012C0.241,0.012 0.208,0.006 0.179,-0.007C0.15,-0.02 0.126,-0.038 0.106,-0.061C0.086,-0.084 0.071,-0.113 0.061,-0.147C0.05,-0.18 0.045,-0.218 0.045,-0.259C0.045,-0.3 0.05,-0.338 0.061,-0.371C0.071,-0.404 0.086,-0.433 0.106,-0.457C0.126,-0.48 0.15,-0.498 0.179,-0.511C0.208,-0.524 0.241,-0.53 0.278,-0.53C0.329,-0.53 0.371,-0.519 0.403,-0.496C0.435,-0.473 0.459,-0.443 0.474,-0.406L0.397,-0.368C0.388,-0.393 0.374,-0.413 0.354,-0.428C0.333,-0.443 0.308,-0.45 0.278,-0.45C0.233,-0.45 0.2,-0.436 0.178,-0.409C0.155,-0.382 0.144,-0.347 0.144,-0.304L0.144,-0.214C0.144,-0.171 0.155,-0.136 0.178,-0.109C0.2,-0.082 0.233,-0.068 0.278,-0.068C0.31,-0.068 0.337,-0.076 0.358,-0.091C0.379,-0.106 0.397,-0.128 0.41,-0.156L0.478,-0.114C0.461,-0.075 0.436,-0.044 0.403,-0.022C0.37,0.001 0.328,0.012 0.278,0.012Z" style="fill-rule:nonzero;"/>
        </g>
        <g transform="matrix(14,0,0,14,94.2664,116.286)">
            <path d="M0.129,-0.626C0.11,-0.626 0.096,-0.631 0.087,-0.64C0.078,-0.649 0.073,-0.662 0.073,-0.677L0.073,-0.691C0.073,-0.706 0.078,-0.719 0.087,-0.728C0.096,-0.737 0.11,-0.742 0.129,-0.742C0.148,-0.742 0.163,-0.737 0.172,-0.728C0.181,-0.719 0.185,-0.706 0.185,-0.691L0.185,-0.677C0.185,-0.662 0.181,-0.649 0.172,-0.64C0.163,-0.631 0.148,-0.626 0.129,-0.626ZM0.082,-0.518L0.175,-0.518L0.175,-0L0.082,-0L0.082,-0.518Z" style="fill-rule:nonzero;"/>
        </g>
        <g transform="matrix(14,0,0,14,97.8644,116.286)">
            <path d="M0.41,-0.085L0.406,-0.085C0.394,-0.053 0.375,-0.029 0.35,-0.013C0.324,0.004 0.293,0.012 0.257,0.012C0.224,0.012 0.195,0.006 0.17,-0.007C0.144,-0.019 0.122,-0.037 0.104,-0.061C0.086,-0.084 0.072,-0.113 0.063,-0.146C0.054,-0.179 0.049,-0.217 0.049,-0.259C0.049,-0.301 0.054,-0.339 0.063,-0.372C0.072,-0.405 0.086,-0.434 0.104,-0.458C0.122,-0.481 0.144,-0.499 0.17,-0.512C0.195,-0.524 0.224,-0.53 0.257,-0.53C0.293,-0.53 0.324,-0.522 0.35,-0.506C0.375,-0.489 0.394,-0.465 0.406,-0.433L0.41,-0.433L0.41,-0.74L0.503,-0.74L0.503,-0L0.41,-0L0.41,-0.085ZM0.284,-0.069C0.301,-0.069 0.318,-0.071 0.333,-0.076C0.348,-0.081 0.362,-0.087 0.373,-0.096C0.384,-0.105 0.393,-0.115 0.4,-0.126C0.407,-0.137 0.41,-0.15 0.41,-0.164L0.41,-0.354C0.41,-0.368 0.407,-0.381 0.4,-0.392C0.393,-0.403 0.384,-0.413 0.373,-0.422C0.362,-0.431 0.348,-0.437 0.333,-0.442C0.318,-0.447 0.301,-0.449 0.284,-0.449C0.242,-0.449 0.209,-0.436 0.185,-0.409C0.16,-0.382 0.148,-0.347 0.148,-0.303L0.148,-0.215C0.148,-0.171 0.16,-0.136 0.185,-0.109C0.209,-0.082 0.242,-0.069 0.284,-0.069Z" style="fill-rule:nonzero;"/>
        </g>
        <g transform="matrix(14,0,0,14,106.054,116.286)">
            <path d="M0.459,-0C0.43,-0 0.409,-0.008 0.395,-0.024C0.38,-0.04 0.371,-0.061 0.368,-0.086L0.363,-0.086C0.352,-0.054 0.334,-0.03 0.308,-0.013C0.282,0.004 0.25,0.012 0.213,0.012C0.159,0.012 0.117,-0.002 0.087,-0.03C0.057,-0.057 0.042,-0.095 0.042,-0.143C0.042,-0.193 0.06,-0.231 0.097,-0.258C0.133,-0.284 0.188,-0.297 0.263,-0.297L0.361,-0.297L0.361,-0.344C0.361,-0.379 0.352,-0.405 0.333,-0.424C0.314,-0.443 0.285,-0.452 0.246,-0.452C0.215,-0.452 0.19,-0.445 0.17,-0.432C0.149,-0.418 0.132,-0.4 0.119,-0.378L0.063,-0.429C0.078,-0.457 0.101,-0.481 0.133,-0.501C0.164,-0.52 0.203,-0.53 0.251,-0.53C0.316,-0.53 0.366,-0.515 0.401,-0.484C0.436,-0.452 0.454,-0.409 0.454,-0.352L0.454,-0.079L0.512,-0.079L0.512,-0L0.459,-0ZM0.234,-0.063C0.271,-0.063 0.301,-0.071 0.325,-0.088C0.349,-0.105 0.361,-0.126 0.361,-0.152L0.361,-0.232L0.262,-0.232C0.219,-0.232 0.188,-0.226 0.169,-0.213C0.149,-0.2 0.139,-0.182 0.139,-0.158L0.139,-0.138C0.139,-0.114 0.148,-0.096 0.165,-0.083C0.182,-0.07 0.205,-0.063 0.234,-0.063Z" style="fill-rule:nonzero;"/>
        </g>
        <g transform="matrix(14,0,0,14,113.628,116.286)">
            <path d="M0.41,-0.085L0.406,-0.085C0.394,-0.053 0.375,-0.029 0.35,-0.013C0.324,0.004 0.293,0.012 0.257,0.012C0.224,0.012 0.195,0.006 0.17,-0.007C0.144,-0.019 0.122,-0.037 0.104,-0.061C0.086,-0.084 0.072,-0.113 0.063,-0.146C0.054,-0.179 0.049,-0.217 0.049,-0.259C0.049,-0.301 0.054,-0.339 0.063,-0.372C0.072,-0.405 0.086,-0.434 0.104,-0.458C0.122,-0.481 0.144,-0.499 0.17,-0.512C0.195,-0.524 0.224,-0.53 0.257,-0.53C0.293,-0.53 0.324,-0.522 0.35,-0.506C0.375,-0.489 0.394,-0.465 0.406,-0.433L0.41,-0.433L0.41,-0.74L0.503,-0.74L0.503,-0L0.41,-0L0.41,-0.085ZM0.284,-0.069C0.301,-0.069 0.318,-0.071 0.333,-0.076C0.348,-0.081 0.362,-0.087 0.373,-0.096C0.384,-0.105 0.393,-0.115 0.4,-0.126C0.407,-0.137 0.41,-0.15 0.41,-0.164L0.41,-0.354C0.41,-0.368 0.407,-0.381 0.4,-0.392C0.393,-0.403 0.384,-0.413 0.373,-0.422C0.362,-0.431 0.348,-0.437 0.333,-0.442C0.318,-0.447 0.301,-0.449 0.284,-0.449C0.242,-0.449 0.209,-0.436 0.185,-0.409C0.16,-0.382 0.148,-0.347 0.148,-0.303L0.148,-0.215C0.148,-0.171 0.16,-0.136 0.185,-0.109C0.209,-0.082 0.242,-0.069 0.284,-0.069Z" style="fill-rule:nonzero;"/>
        </g>
    </g>
    <g transform="matrix(1,0,0,1,333.28,17.8173)">
        <g transform="matrix(14,0,0,14,38.7144,116.286)">
            <path d="M0.09,-0L0.09,-0.698L0.378,-0.698C0.409,-0.698 0.437,-0.693 0.462,-0.684C0.487,-0.674 0.507,-0.66 0.525,-0.642C0.542,-0.624 0.554,-0.602 0.563,-0.577C0.572,-0.552 0.576,-0.524 0.576,-0.493C0.576,-0.462 0.572,-0.434 0.563,-0.409C0.554,-0.384 0.542,-0.362 0.525,-0.344C0.507,-0.326 0.487,-0.312 0.462,-0.303C0.437,-0.293 0.409,-0.288 0.378,-0.288L0.187,-0.288L0.187,-0L0.09,-0ZM0.187,-0.374L0.374,-0.374C0.405,-0.374 0.43,-0.382 0.447,-0.399C0.464,-0.415 0.473,-0.438 0.473,-0.468L0.473,-0.518C0.473,-0.548 0.464,-0.571 0.447,-0.588C0.43,-0.604 0.405,-0.612 0.374,-0.612L0.187,-0.612L0.187,-0.374Z" style="fill-rule:nonzero;"/>
        </g>
        <g transform="matrix(14,0,0,14,47.1984,116.286)">
            <path d="M0.082,-0L0.082,-0.518L0.175,-0.518L0.175,-0.419L0.18,-0.419C0.184,-0.432 0.19,-0.444 0.198,-0.456C0.206,-0.468 0.216,-0.478 0.228,-0.488C0.24,-0.497 0.254,-0.504 0.271,-0.51C0.287,-0.515 0.305,-0.518 0.326,-0.518L0.357,-0.518L0.357,-0.425L0.311,-0.425C0.268,-0.425 0.234,-0.417 0.211,-0.402C0.187,-0.386 0.175,-0.365 0.175,-0.34L0.175,-0L0.082,-0Z" style="fill-rule:nonzero;"/>
        </g>
        <g transform="matrix(14,0,0,14,52.3784,116.286)">
            <path d="M0.281,0.012C0.246,0.012 0.214,0.006 0.185,-0.007C0.156,-0.02 0.131,-0.038 0.11,-0.062C0.089,-0.085 0.073,-0.114 0.062,-0.147C0.051,-0.18 0.045,-0.218 0.045,-0.259C0.045,-0.3 0.051,-0.338 0.062,-0.371C0.073,-0.404 0.089,-0.433 0.11,-0.457C0.131,-0.48 0.156,-0.498 0.185,-0.511C0.214,-0.524 0.246,-0.53 0.281,-0.53C0.316,-0.53 0.349,-0.524 0.378,-0.511C0.407,-0.498 0.431,-0.48 0.452,-0.457C0.473,-0.433 0.489,-0.404 0.5,-0.371C0.511,-0.338 0.517,-0.3 0.517,-0.259C0.517,-0.218 0.511,-0.18 0.5,-0.147C0.489,-0.114 0.473,-0.085 0.452,-0.062C0.431,-0.038 0.407,-0.02 0.378,-0.007C0.349,0.006 0.316,0.012 0.281,0.012ZM0.281,-0.068C0.322,-0.068 0.355,-0.081 0.38,-0.106C0.405,-0.131 0.418,-0.169 0.418,-0.22L0.418,-0.298C0.418,-0.349 0.405,-0.387 0.38,-0.412C0.355,-0.437 0.322,-0.45 0.281,-0.45C0.24,-0.45 0.207,-0.437 0.182,-0.412C0.157,-0.387 0.144,-0.349 0.144,-0.298L0.144,-0.22C0.144,-0.169 0.157,-0.131 0.182,-0.106C0.207,-0.081 0.24,-0.068 0.281,-0.068Z" style="fill-rule:nonzero;"/>
        </g>
        <g transform="matrix(14,0,0,14,60.2464,116.286)">
            <path d="M0.082,-0.518L0.175,-0.518L0.175,-0.433L0.179,-0.433C0.191,-0.465 0.21,-0.489 0.236,-0.506C0.261,-0.522 0.292,-0.53 0.328,-0.53C0.361,-0.53 0.39,-0.524 0.416,-0.512C0.441,-0.499 0.463,-0.481 0.481,-0.458C0.499,-0.434 0.513,-0.405 0.522,-0.372C0.531,-0.339 0.536,-0.301 0.536,-0.259C0.536,-0.217 0.531,-0.179 0.522,-0.146C0.513,-0.113 0.499,-0.084 0.481,-0.061C0.463,-0.037 0.441,-0.019 0.416,-0.007C0.39,0.006 0.361,0.012 0.328,0.012C0.292,0.012 0.261,0.004 0.236,-0.013C0.21,-0.029 0.191,-0.053 0.179,-0.085L0.175,-0.085L0.175,0.2L0.082,0.2L0.082,-0.518ZM0.301,-0.069C0.343,-0.069 0.376,-0.082 0.401,-0.109C0.425,-0.136 0.437,-0.171 0.437,-0.215L0.437,-0.303C0.437,-0.347 0.425,-0.382 0.401,-0.409C0.376,-0.436 0.343,-0.449 0.301,-0.449C0.284,-0.449 0.267,-0.447 0.252,-0.442C0.237,-0.437 0.223,-0.431 0.212,-0.422C0.201,-0.413 0.192,-0.403 0.185,-0.392C0.178,-0.381 0.175,-0.368 0.175,-0.354L0.175,-0.164C0.175,-0.15 0.178,-0.137 0.185,-0.126C0.192,-0.115 0.201,-0.105 0.212,-0.096C0.223,-0.087 0.237,-0.081 0.252,-0.076C0.267,-0.071 0.284,-0.069 0.301,-0.069Z" style="fill-rule:nonzero;"/>
        </g>
        <g transform="matrix(14,0,0,14,68.4364,116.286)">
            <path d="M0.459,-0C0.43,-0 0.409,-0.008 0.395,-0.024C0.38,-0.04 0.371,-0.061 0.368,-0.086L0.363,-0.086C0.352,-0.054 0.334,-0.03 0.308,-0.013C0.282,0.004 0.25,0.012 0.213,0.012C0.159,0.012 0.117,-0.002 0.087,-0.03C0.057,-0.057 0.042,-0.095 0.042,-0.143C0.042,-0.193 0.06,-0.231 0.097,-0.258C0.133,-0.284 0.188,-0.297 0.263,-0.297L0.361,-0.297L0.361,-0.344C0.361,-0.379 0.352,-0.405 0.333,-0.424C0.314,-0.443 0.285,-0.452 0.246,-0.452C0.215,-0.452 0.19,-0.445 0.17,-0.432C0.149,-0.418 0.132,-0.4 0.119,-0.378L0.063,-0.429C0.078,-0.457 0.101,-0.481 0.133,-0.501C0.164,-0.52 0.203,-0.53 0.251,-0.53C0.316,-0.53 0.366,-0.515 0.401,-0.484C0.436,-0.452 0.454,-0.409 0.454,-0.352L0.454,-0.079L0.512,-0.079L0.512,-0L0.459,-0ZM0.234,-0.063C0.271,-0.063 0.301,-0.071 0.325,-0.088C0.349,-0.105 0.361,-0.126 0.361,-0.152L0.361,-0.232L0.262,-0.232C0.219,-0.232 0.188,-0.226 0.169,-0.213C0.149,-0.2 0.139,-0.182 0.139,-0.158L0.139,-0.138C0.139,-0.114 0.148,-0.096 0.165,-0.083C0.182,-0.07 0.205,-0.063 0.234,-0.063Z" style="fill-rule:nonzero;"/>
        </g>
        <g transform="matrix(14,0,0,14,76.0104,116.286)">
            <path d="M0.527,0.053C0.527,0.107 0.506,0.147 0.465,0.173C0.423,0.199 0.358,0.212 0.27,0.212C0.187,0.212 0.128,0.201 0.093,0.179C0.057,0.157 0.039,0.126 0.039,0.086C0.039,0.058 0.047,0.036 0.062,0.02C0.077,0.004 0.097,-0.007 0.124,-0.014L0.124,-0.025C0.09,-0.038 0.073,-0.064 0.073,-0.101C0.073,-0.127 0.082,-0.147 0.099,-0.161C0.116,-0.175 0.138,-0.185 0.163,-0.191L0.163,-0.195C0.132,-0.21 0.109,-0.231 0.092,-0.258C0.075,-0.284 0.067,-0.316 0.067,-0.352C0.067,-0.378 0.072,-0.402 0.081,-0.424C0.09,-0.446 0.103,-0.465 0.121,-0.481C0.137,-0.496 0.158,-0.508 0.183,-0.517C0.208,-0.526 0.236,-0.53 0.267,-0.53C0.285,-0.53 0.302,-0.528 0.318,-0.525C0.334,-0.522 0.349,-0.517 0.363,-0.512L0.363,-0.523C0.363,-0.544 0.368,-0.562 0.378,-0.575C0.388,-0.588 0.404,-0.594 0.426,-0.594L0.505,-0.594L0.505,-0.516L0.403,-0.516L0.403,-0.488C0.446,-0.456 0.468,-0.411 0.468,-0.352C0.468,-0.326 0.463,-0.302 0.454,-0.28C0.445,-0.258 0.431,-0.239 0.414,-0.224C0.397,-0.209 0.376,-0.197 0.351,-0.188C0.326,-0.179 0.298,-0.175 0.267,-0.175C0.257,-0.175 0.247,-0.175 0.237,-0.177C0.227,-0.178 0.218,-0.179 0.209,-0.181C0.194,-0.176 0.18,-0.17 0.168,-0.161C0.156,-0.152 0.15,-0.141 0.15,-0.126C0.15,-0.111 0.157,-0.1 0.171,-0.095C0.184,-0.09 0.203,-0.087 0.226,-0.087L0.344,-0.087C0.408,-0.087 0.454,-0.075 0.484,-0.05C0.513,-0.025 0.527,0.01 0.527,0.053ZM0.44,0.062C0.44,0.043 0.432,0.027 0.418,0.016C0.403,0.004 0.376,-0.002 0.338,-0.002L0.164,-0.002C0.136,0.013 0.122,0.035 0.122,0.064C0.122,0.085 0.13,0.103 0.148,0.119C0.165,0.134 0.193,0.141 0.234,0.141L0.304,0.141C0.348,0.141 0.382,0.135 0.405,0.122C0.428,0.109 0.44,0.089 0.44,0.062ZM0.268,-0.245C0.301,-0.245 0.328,-0.253 0.347,-0.268C0.366,-0.283 0.375,-0.307 0.375,-0.339L0.375,-0.365C0.375,-0.397 0.366,-0.421 0.347,-0.436C0.328,-0.451 0.301,-0.459 0.268,-0.459C0.235,-0.459 0.209,-0.451 0.19,-0.436C0.171,-0.421 0.161,-0.397 0.161,-0.365L0.161,-0.339C0.161,-0.307 0.171,-0.283 0.19,-0.268C0.209,-0.253 0.235,-0.245 0.268,-0.245Z" style="fill-rule:nonzero;"/>
        </g>
        <g transform="matrix(14,0,0,14,83.4304,116.286)">
            <path d="M0.459,-0C0.43,-0 0.409,-0.008 0.395,-0.024C0.38,-0.04 0.371,-0.061 0.368,-0.086L0.363,-0.086C0.352,-0.054 0.334,-0.03 0.308,-0.013C0.282,0.004 0.25,0.012 0.213,0.012C0.159,0.012 0.117,-0.002 0.087,-0.03C0.057,-0.057 0.042,-0.095 0.042,-0.143C0.042,-0.193 0.06,-0.231 0.097,-0.258C0.133,-0.284 0.188,-0.297 0.263,-0.297L0.361,-0.297L0.361,-0.344C0.361,-0.379 0.352,-0.405 0.333,-0.424C0.314,-0.443 0.285,-0.452 0.246,-0.452C0.215,-0.452 0.19,-0.445 0.17,-0.432C0.149,-0.418 0.132,-0.4 0.119,-0.378L0.063,-0.429C0.078,-0.457 0.101,-0.481 0.133,-0.501C0.164,-0.52 0.203,-0.53 0.251,-0.53C0.316,-0.53 0.366,-0.515 0.401,-0.484C0.436,-0.452 0.454,-0.409 0.454,-0.352L0.454,-0.079L0.512,-0.079L0.512,-0L0.459,-0ZM0.234,-0.063C0.271,-0.063 0.301,-0.071 0.325,-0.088C0.349,-0.105 0.361,-0.126 0.361,-0.152L0.361,-0.232L0.262,-0.232C0.219,-0.232 0.188,-0.226 0.169,-0.213C0.149,-0.2 0.139,-0.182 0.139,-0.158L0.139,-0.138C0.139,-0.114 0.148,-0.096 0.165,-0.083C0.182,-0.07 0.205,-0.063 0.234,-0.063Z" style="fill-rule:nonzero;"/>
        </g>
        <g transform="matrix(14,0,0,14,91.0044,116.286)">
            <path d="M0.278,0.012C0.241,0.012 0.208,0.006 0.179,-0.007C0.15,-0.02 0.126,-0.038 0.106,-0.061C0.086,-0.084 0.071,-0.113 0.061,-0.147C0.05,-0.18 0.045,-0.218 0.045,-0.259C0.045,-0.3 0.05,-0.338 0.061,-0.371C0.071,-0.404 0.086,-0.433 0.106,-0.457C0.126,-0.48 0.15,-0.498 0.179,-0.511C0.208,-0.524 0.241,-0.53 0.278,-0.53C0.329,-0.53 0.371,-0.519 0.403,-0.496C0.435,-0.473 0.459,-0.443 0.474,-0.406L0.397,-0.368C0.388,-0.393 0.374,-0.413 0.354,-0.428C0.333,-0.443 0.308,-0.45 0.278,-0.45C0.233,-0.45 0.2,-0.436 0.178,-0.409C0.155,-0.382 0.144,-0.347 0.144,-0.304L0.144,-0.214C0.144,-0.171 0.155,-0.136 0.178,-0.109C0.2,-0.082 0.233,-0.068 0.278,-0.068C0.31,-0.068 0.337,-0.076 0.358,-0.091C0.379,-0.106 0.397,-0.128 0.41,-0.156L0.478,-0.114C0.461,-0.075 0.436,-0.044 0.403,-0.022C0.37,0.001 0.328,0.012 0.278,0.012Z" style="fill-rule:nonzero;"/>
        </g>
        <g transform="matrix(14,0,0,14,98.0744,116.286)">
            <path d="M0.129,-0.626C0.11,-0.626 0.096,-0.631 0.087,-0.64C0.078,-0.649 0.073,-0.662 0.073,-0.677L0.073,-0.691C0.073,-0.706 0.078,-0.719 0.087,-0.728C0.096,-0.737 0.11,-0.742 0.129,-0.742C0.148,-0.742 0.163,-0.737 0.172,-0.728C0.181,-0.719 0.185,-0.706 0.185,-0.691L0.185,-0.677C0.185,-0.662 0.181,-0.649 0.172,-0.64C0.163,-0.631 0.148,-0.626 0.129,-0.626ZM0.082,-0.518L0.175,-0.518L0.175,-0L0.082,-0L0.082,-0.518Z" style="fill-rule:nonzero;"/>
        </g>
        <g transform="matrix(14,0,0,14,101.672,116.286)">
            <path d="M0.281,0.012C0.246,0.012 0.214,0.006 0.185,-0.007C0.156,-0.02 0.131,-0.038 0.11,-0.062C0.089,-0.085 0.073,-0.114 0.062,-0.147C0.051,-0.18 0.045,-0.218 0.045,-0.259C0.045,-0.3 0.051,-0.338 0.062,-0.371C0.073,-0.404 0.089,-0.433 0.11,-0.457C0.131,-0.48 0.156,-0.498 0.185,-0.511C0.214,-0.524 0.246,-0.53 0.281,-0.53C0.316,-0.53 0.349,-0.524 0.378,-0.511C0.407,-0.498 0.431,-0.48 0.452,-0.457C0.473,-0.433 0.489,-0.404 0.5,-0.371C0.511,-0.338 0.517,-0.3 0.517,-0.259C0.517,-0.218 0.511,-0.18 0.5,-0.147C0.489,-0.114 0.473,-0.085 0.452,-0.062C0.431,-0.038 0.407,-0.02 0.378,-0.007C0.349,0.006 0.316,0.012 0.281,0.012ZM0.281,-0.068C0.322,-0.068 0.355,-0.081 0.38,-0.106C0.405,-0.131 0.418,-0.169 0.418,-0.22L0.418,-0.298C0.418,-0.349 0.405,-0.387 0.38,-0.412C0.355,-0.437 0.322,-0.45 0.281,-0.45C0.24,-0.45 0.207,-0.437 0.182,-0.412C0.157,-0.387 0.144,-0.349 0.144,-0.298L0.144,-0.22C0.144,-0.169 0.157,-0.131 0.182,-0.106C0.207,-0.081 0.24,-0.068 0.281,-0.068ZM0.29,-0.584L0.231,-0.611L0.319,-0.786L0.401,-0.746L0.29,-0.584Z" style="fill-rule:nonzero;"/>
        </g>
        <g transform="matrix(14,0,0,14,109.54,116.286)">
            <path d="M0.082,-0L0.082,-0.518L0.175,-0.518L0.175,-0.433L0.18,-0.433C0.192,-0.462 0.21,-0.485 0.233,-0.503C0.256,-0.521 0.287,-0.53 0.326,-0.53C0.379,-0.53 0.421,-0.513 0.452,-0.478C0.482,-0.443 0.497,-0.394 0.497,-0.331L0.497,-0L0.404,-0L0.404,-0.317C0.404,-0.405 0.368,-0.449 0.295,-0.449C0.28,-0.449 0.265,-0.447 0.251,-0.443C0.236,-0.439 0.223,-0.433 0.212,-0.426C0.201,-0.418 0.192,-0.408 0.185,-0.397C0.178,-0.385 0.175,-0.371 0.175,-0.355L0.175,-0L0.082,-0Z" style="fill-rule:nonzero;"/>
        </g>
        <g transform="matrix(14,0,0,14,120.866,116.286)">
            <path d="M0.41,-0.085L0.406,-0.085C0.394,-0.053 0.375,-0.029 0.35,-0.013C0.324,0.004 0.293,0.012 0.257,0.012C0.224,0.012 0.195,0.006 0.17,-0.007C0.144,-0.019 0.122,-0.037 0.104,-0.061C0.086,-0.084 0.072,-0.113 0.063,-0.146C0.054,-0.179 0.049,-0.217 0.049,-0.259C0.049,-0.301 0.054,-0.339 0.063,-0.372C0.072,-0.405 0.086,-0.434 0.104,-0.458C0.122,-0.481 0.144,-0.499 0.17,-0.512C0.195,-0.524 0.224,-0.53 0.257,-0.53C0.293,-0.53 0.324,-0.522 0.35,-0.506C0.375,-0.489 0.394,-0.465 0.406,-0.433L0.41,-0.433L0.41,-0.74L0.503,-0.74L0.503,-0L0.41,-0L0.41,-0.085ZM0.284,-0.069C0.301,-0.069 0.318,-0.071 0.333,-0.076C0.348,-0.081 0.362,-0.087 0.373,-0.096C0.384,-0.105 0.393,-0.115 0.4,-0.126C0.407,-0.137 0.41,-0.15 0.41,-0.164L0.41,-0.354C0.41,-0.368 0.407,-0.381 0.4,-0.392C0.393,-0.403 0.384,-0.413 0.373,-0.422C0.362,-0.431 0.348,-0.437 0.333,-0.442C0.318,-0.447 0.301,-0.449 0.284,-0.449C0.242,-0.449 0.209,-0.436 0.185,-0.409C0.16,-0.382 0.148,-0.347 0.148,-0.303L0.148,-0.215C0.148,-0.171 0.16,-0.136 0.185,-0.109C0.209,-0.082 0.242,-0.069 0.284,-0.069Z" style="fill-rule:nonzero;"/>
        </g>
        <g transform="matrix(14,0,0,14,129.056,116.286)">
            <path d="M0.28,0.012C0.244,0.012 0.212,0.006 0.183,-0.008C0.154,-0.021 0.129,-0.039 0.109,-0.062C0.088,-0.085 0.073,-0.114 0.062,-0.147C0.05,-0.18 0.045,-0.218 0.045,-0.259C0.045,-0.3 0.05,-0.337 0.062,-0.371C0.073,-0.404 0.088,-0.433 0.109,-0.456C0.129,-0.479 0.154,-0.498 0.183,-0.511C0.212,-0.524 0.244,-0.53 0.28,-0.53C0.316,-0.53 0.348,-0.524 0.377,-0.511C0.405,-0.498 0.429,-0.48 0.448,-0.457C0.467,-0.434 0.482,-0.407 0.492,-0.376C0.502,-0.345 0.507,-0.311 0.507,-0.275L0.507,-0.236L0.142,-0.236L0.142,-0.215C0.142,-0.172 0.155,-0.136 0.18,-0.109C0.205,-0.081 0.241,-0.067 0.288,-0.067C0.321,-0.067 0.349,-0.074 0.372,-0.089C0.395,-0.104 0.414,-0.124 0.428,-0.151L0.488,-0.1C0.47,-0.066 0.443,-0.039 0.407,-0.019C0.371,0.002 0.329,0.012 0.28,0.012ZM0.28,-0.455C0.26,-0.455 0.242,-0.451 0.225,-0.444C0.208,-0.437 0.193,-0.427 0.181,-0.414C0.168,-0.401 0.159,-0.385 0.152,-0.367C0.145,-0.349 0.142,-0.329 0.142,-0.308L0.142,-0.301L0.408,-0.301L0.408,-0.311C0.408,-0.354 0.397,-0.389 0.374,-0.416C0.351,-0.442 0.319,-0.455 0.28,-0.455Z" style="fill-rule:nonzero;"/>
        </g>
        <g transform="matrix(14,0,0,14,140.088,116.286)">
            <path d="M0.09,-0L0.09,-0.698L0.378,-0.698C0.409,-0.698 0.437,-0.693 0.462,-0.684C0.487,-0.674 0.507,-0.66 0.525,-0.642C0.542,-0.624 0.554,-0.602 0.563,-0.577C0.572,-0.552 0.576,-0.524 0.576,-0.493C0.576,-0.462 0.572,-0.434 0.563,-0.409C0.554,-0.384 0.542,-0.362 0.525,-0.344C0.507,-0.326 0.487,-0.312 0.462,-0.303C0.437,-0.293 0.409,-0.288 0.378,-0.288L0.187,-0.288L0.187,-0L0.09,-0ZM0.187,-0.374L0.374,-0.374C0.405,-0.374 0.43,-0.382 0.447,-0.399C0.464,-0.415 0.473,-0.438 0.473,-0.468L0.473,-0.518C0.473,-0.548 0.464,-0.571 0.447,-0.588C0.43,-0.604 0.405,-0.612 0.374,-0.612L0.187,-0.612L0.187,-0.374Z" style="fill-rule:nonzero;"/>
        </g>
        <g transform="matrix(14,0,0,14,148.432,116.286)">
            <path d="M0.281,0.012C0.246,0.012 0.214,0.006 0.185,-0.007C0.156,-0.02 0.131,-0.038 0.11,-0.062C0.089,-0.085 0.073,-0.114 0.062,-0.147C0.051,-0.18 0.045,-0.218 0.045,-0.259C0.045,-0.3 0.051,-0.338 0.062,-0.371C0.073,-0.404 0.089,-0.433 0.11,-0.457C0.131,-0.48 0.156,-0.498 0.185,-0.511C0.214,-0.524 0.246,-0.53 0.281,-0.53C0.316,-0.53 0.349,-0.524 0.378,-0.511C0.407,-0.498 0.431,-0.48 0.452,-0.457C0.473,-0.433 0.489,-0.404 0.5,-0.371C0.511,-0.338 0.517,-0.3 0.517,-0.259C0.517,-0.218 0.511,-0.18 0.5,-0.147C0.489,-0.114 0.473,-0.085 0.452,-0.062C0.431,-0.038 0.407,-0.02 0.378,-0.007C0.349,0.006 0.316,0.012 0.281,0.012ZM0.281,-0.068C0.322,-0.068 0.355,-0.081 0.38,-0.106C0.405,-0.131 0.418,-0.169 0.418,-0.22L0.418,-0.298C0.418,-0.349 0.405,-0.387 0.38,-0.412C0.355,-0.437 0.322,-0.45 0.281,-0.45C0.24,-0.45 0.207,-0.437 0.182,-0.412C0.157,-0.387 0.144,-0.349 0.144,-0.298L0.144,-0.22C0.144,-0.169 0.157,-0.131 0.182,-0.106C0.207,-0.081 0.24,-0.068 0.281,-0.068Z" style="fill-rule:nonzero;"/>
        </g>
        <g transform="matrix(14,0,0,14,156.3,116.286)">
            <path d="M0.082,-0.518L0.175,-0.518L0.175,-0.433L0.179,-0.433C0.191,-0.465 0.21,-0.489 0.236,-0.506C0.261,-0.522 0.292,-0.53 0.328,-0.53C0.361,-0.53 0.39,-0.524 0.416,-0.512C0.441,-0.499 0.463,-0.481 0.481,-0.458C0.499,-0.434 0.513,-0.405 0.522,-0.372C0.531,-0.339 0.536,-0.301 0.536,-0.259C0.536,-0.217 0.531,-0.179 0.522,-0.146C0.513,-0.113 0.499,-0.084 0.481,-0.061C0.463,-0.037 0.441,-0.019 0.416,-0.007C0.39,0.006 0.361,0.012 0.328,0.012C0.292,0.012 0.261,0.004 0.236,-0.013C0.21,-0.029 0.191,-0.053 0.179,-0.085L0.175,-0.085L0.175,0.2L0.082,0.2L0.082,-0.518ZM0.301,-0.069C0.343,-0.069 0.376,-0.082 0.401,-0.109C0.425,-0.136 0.437,-0.171 0.437,-0.215L0.437,-0.303C0.437,-0.347 0.425,-0.382 0.401,-0.409C0.376,-0.436 0.343,-0.449 0.301,-0.449C0.284,-0.449 0.267,-0.447 0.252,-0.442C0.237,-0.437 0.223,-0.431 0.212,-0.422C0.201,-0.413 0.192,-0.403 0.185,-0.392C0.178,-0.381 0.175,-0.368 0.175,-0.354L0.175,-0.164C0.175,-0.15 0.178,-0.137 0.185,-0.126C0.192,-0.115 0.201,-0.105 0.212,-0.096C0.223,-0.087 0.237,-0.081 0.252,-0.076C0.267,-0.071 0.284,-0.069 0.301,-0.069Z" style="fill-rule:nonzero;"/>
        </g>
        <g transform="matrix(14,0,0,14,164.49,116.286)">
            <path d="M0.399,-0.085L0.394,-0.085C0.389,-0.072 0.383,-0.06 0.376,-0.049C0.368,-0.037 0.358,-0.027 0.347,-0.018C0.335,-0.009 0.321,-0.001 0.305,0.004C0.289,0.009 0.27,0.012 0.249,0.012C0.196,0.012 0.154,-0.005 0.123,-0.04C0.092,-0.075 0.077,-0.124 0.077,-0.187L0.077,-0.518L0.17,-0.518L0.17,-0.201C0.17,-0.113 0.207,-0.069 0.28,-0.069C0.295,-0.069 0.309,-0.071 0.324,-0.075C0.338,-0.078 0.351,-0.084 0.362,-0.092C0.373,-0.1 0.382,-0.11 0.389,-0.122C0.396,-0.134 0.399,-0.148 0.399,-0.164L0.399,-0.518L0.492,-0.518L0.492,-0L0.399,-0L0.399,-0.085Z" style="fill-rule:nonzero;"/>
        </g>
        <g transform="matrix(14,0,0,14,172.526,116.286)">
            <path d="M0.179,-0C0.147,-0 0.123,-0.009 0.107,-0.026C0.09,-0.043 0.082,-0.066 0.082,-0.095L0.082,-0.74L0.175,-0.74L0.175,-0.079L0.249,-0.079L0.249,-0L0.179,-0Z" style="fill-rule:nonzero;"/>
        </g>
        <g transform="matrix(14,0,0,14,176.418,116.286)">
            <path d="M0.459,-0C0.43,-0 0.409,-0.008 0.395,-0.024C0.38,-0.04 0.371,-0.061 0.368,-0.086L0.363,-0.086C0.352,-0.054 0.334,-0.03 0.308,-0.013C0.282,0.004 0.25,0.012 0.213,0.012C0.159,0.012 0.117,-0.002 0.087,-0.03C0.057,-0.057 0.042,-0.095 0.042,-0.143C0.042,-0.193 0.06,-0.231 0.097,-0.258C0.133,-0.284 0.188,-0.297 0.263,-0.297L0.361,-0.297L0.361,-0.344C0.361,-0.379 0.352,-0.405 0.333,-0.424C0.314,-0.443 0.285,-0.452 0.246,-0.452C0.215,-0.452 0.19,-0.445 0.17,-0.432C0.149,-0.418 0.132,-0.4 0.119,-0.378L0.063,-0.429C0.078,-0.457 0.101,-0.481 0.133,-0.501C0.164,-0.52 0.203,-0.53 0.251,-0.53C0.316,-0.53 0.366,-0.515 0.401,-0.484C0.436,-0.452 0.454,-0.409 0.454,-0.352L0.454,-0.079L0.512,-0.079L0.512,-0L0.459,-0ZM0.234,-0.063C0.271,-0.063 0.301,-0.071 0.325,-0.088C0.349,-0.105 0.361,-0.126 0.361,-0.152L0.361,-0.232L0.262,-0.232C0.219,-0.232 0.188,-0.226 0.169,-0.213C0.149,-0.2 0.139,-0.182 0.139,-0.158L0.139,-0.138C0.139,-0.114 0.148,-0.096 0.165,-0.083C0.182,-0.07 0.205,-0.063 0.234,-0.063Z" style="fill-rule:nonzero;"/>
        </g>
        <g transform="matrix(14,0,0,14,183.992,116.286)">
            <path d="M0.082,-0L0.082,-0.518L0.175,-0.518L0.175,-0.419L0.18,-0.419C0.184,-0.432 0.19,-0.444 0.198,-0.456C0.206,-0.468 0.216,-0.478 0.228,-0.488C0.24,-0.497 0.254,-0.504 0.271,-0.51C0.287,-0.515 0.305,-0.518 0.326,-0.518L0.357,-0.518L0.357,-0.425L0.311,-0.425C0.268,-0.425 0.234,-0.417 0.211,-0.402C0.187,-0.386 0.175,-0.365 0.175,-0.34L0.175,-0L0.082,-0Z" style="fill-rule:nonzero;"/>
        </g>
        <g transform="matrix(14,0,0,14,189.242,116.286)">
            <path d="M0.129,-0.626C0.11,-0.626 0.096,-0.631 0.087,-0.64C0.078,-0.649 0.073,-0.662 0.073,-0.677L0.073,-0.691C0.073,-0.706 0.078,-0.719 0.087,-0.728C0.096,-0.737 0.11,-0.742 0.129,-0.742C0.148,-0.742 0.163,-0.737 0.172,-0.728C0.181,-0.719 0.185,-0.706 0.185,-0.691L0.185,-0.677C0.185,-0.662 0.181,-0.649 0.172,-0.64C0.163,-0.631 0.148,-0.626 0.129,-0.626ZM0.082,-0.518L0.175,-0.518L0.175,-0L0.082,-0L0.082,-0.518Z" style="fill-rule:nonzero;"/>
        </g>
        <g transform="matrix(14,0,0,14,192.84,116.286)">
            <path d="M0.41,-0.085L0.406,-0.085C0.394,-0.053 0.375,-0.029 0.35,-0.013C0.324,0.004 0.293,0.012 0.257,0.012C0.224,0.012 0.195,0.006 0.17,-0.007C0.144,-0.019 0.122,-0.037 0.104,-0.061C0.086,-0.084 0.072,-0.113 0.063,-0.146C0.054,-0.179 0.049,-0.217 0.049,-0.259C0.049,-0.301 0.054,-0.339 0.063,-0.372C0.072,-0.405 0.086,-0.434 0.104,-0.458C0.122,-0.481 0.144,-0.499 0.17,-0.512C0.195,-0.524 0.224,-0.53 0.257,-0.53C0.293,-0.53 0.324,-0.522 0.35,-0.506C0.375,-0.489 0.394,-0.465 0.406,-0.433L0.41,-0.433L0.41,-0.74L0.503,-0.74L0.503,-0L0.41,-0L0.41,-0.085ZM0.284,-0.069C0.301,-0.069 0.318,-0.071 0.333,-0.076C0.348,-0.081 0.362,-0.087 0.373,-0.096C0.384,-0.105 0.393,-0.115 0.4,-0.126C0.407,-0.137 0.41,-0.15 0.41,-0.164L0.41,-0.354C0.41,-0.368 0.407,-0.381 0.4,-0.392C0.393,-0.403 0.384,-0.413 0.373,-0.422C0.362,-0.431 0.348,-0.437 0.333,-0.442C0.318,-0.447 0.301,-0.449 0.284,-0.449C0.242,-0.449 0.209,-0.436 0.185,-0.409C0.16,-0.382 0.148,-0.347 0.148,-0.303L0.148,-0.215C0.148,-0.171 0.16,-0.136 0.185,-0.109C0.209,-0.082 0.242,-0.069 0.284,-0.069Z" style="fill-rule:nonzero;"/>
        </g>
        <g transform="matrix(14,0,0,14,201.03,116.286)">
            <path d="M0.459,-0C0.43,-0 0.409,-0.008 0.395,-0.024C0.38,-0.04 0.371,-0.061 0.368,-0.086L0.363,-0.086C0.352,-0.054 0.334,-0.03 0.308,-0.013C0.282,0.004 0.25,0.012 0.213,0.012C0.159,0.012 0.117,-0.002 0.087,-0.03C0.057,-0.057 0.042,-0.095 0.042,-0.143C0.042,-0.193 0.06,-0.231 0.097,-0.258C0.133,-0.284 0.188,-0.297 0.263,-0.297L0.361,-0.297L0.361,-0.344C0.361,-0.379 0.352,-0.405 0.333,-0.424C0.314,-0.443 0.285,-0.452 0.246,-0.452C0.215,-0.452 0.19,-0.445 0.17,-0.432C0.149,-0.418 0.132,-0.4 0.119,-0.378L0.063,-0.429C0.078,-0.457 0.101,-0.481 0.133,-0.501C0.164,-0.52 0.203,-0.53 0.251,-0.53C0.316,-0.53 0.366,-0.515 0.401,-0.484C0.436,-0.452 0.454,-0.409 0.454,-0.352L0.454,-0.079L0.512,-0.079L0.512,-0L0.459,-0ZM0.234,-0.063C0.271,-0.063 0.301,-0.071 0.325,-0.088C0.349,-0.105 0.361,-0.126 0.361,-0.152L0.361,-0.232L0.262,-0.232C0.219,-0.232 0.188,-0.226 0.169,-0.213C0.149,-0.2 0.139,-0.182 0.139,-0.158L0.139,-0.138C0.139,-0.114 0.148,-0.096 0.165,-0.083C0.182,-0.07 0.205,-0.063 0.234,-0.063Z" style="fill-rule:nonzero;"/>
        </g>
        <g transform="matrix(14,0,0,14,208.604,116.286)">
            <path d="M0.41,-0.085L0.406,-0.085C0.394,-0.053 0.375,-0.029 0.35,-0.013C0.324,0.004 0.293,0.012 0.257,0.012C0.224,0.012 0.195,0.006 0.17,-0.007C0.144,-0.019 0.122,-0.037 0.104,-0.061C0.086,-0.084 0.072,-0.113 0.063,-0.146C0.054,-0.179 0.049,-0.217 0.049,-0.259C0.049,-0.301 0.054,-0.339 0.063,-0.372C0.072,-0.405 0.086,-0.434 0.104,-0.458C0.122,-0.481 0.144,-0.499 0.17,-0.512C0.195,-0.524 0.224,-0.53 0.257,-0.53C0.293,-0.53 0.324,-0.522 0.35,-0.506C0.375,-0.489 0.394,-0.465 0.406,-0.433L0.41,-0.433L0.41,-0.74L0.503,-0.74L0.503,-0L0.41,-0L0.41,-0.085ZM0.284,-0.069C0.301,-0.069 0.318,-0.071 0.333,-0.076C0.348,-0.081 0.362,-0.087 0.373,-0.096C0.384,-0.105 0.393,-0.115 0.4,-0.126C0.407,-0.137 0.41,-0.15 0.41,-0.164L0.41,-0.354C0.41,-0.368 0.407,-0.381 0.4,-0.392C0.393,-0.403 0.384,-0.413 0.373,-0.422C0.362,-0.431 0.348,-0.437 0.333,-0.442C0.318,-0.447 0.301,-0.449 0.284,-0.449C0.242,-0.449 0.209,-0.436 0.185,-0.409C0.16,-0.382 0.148,-0.347 0.148,-0.303L0.148,-0.215C0.148,-0.171 0.16,-0.136 0.185,-0.109C0.209,-0.082 0.242,-0.069 0.284,-0.069Z" style="fill-rule:nonzero;"/>
        </g>
    </g>
    <g transform="matrix(1,0,0,1,541.413,17.8173)">
        <g transform="matrix(14,0,0,14,38.7144,116.286)">
            <path d="M0.09,-0L0.09,-0.698L0.378,-0.698C0.409,-0.698 0.437,-0.693 0.462,-0.684C0.487,-0.674 0.507,-0.66 0.525,-0.642C0.542,-0.624 0.554,-0.602 0.563,-0.577C0.572,-0.552 0.576,-0.524 0.576,-0.493C0.576,-0.462 0.572,-0.434 0.563,-0.409C0.554,-0.384 0.542,-0.362 0.525,-0.344C0.507,-0.326 0.487,-0.312 0.462,-0.303C0.437,-0.293 0.409,-0.288 0.378,-0.288L0.187,-0.288L0.187,-0L0.09,-0ZM0.187,-0.374L0.374,-0.374C0.405,-0.374 0.43,-0.382 0.447,-0.399C0.464,-0.415 0.473,-0.438 0.473,-0.468L0.473,-0.518C0.473,-0.548 0.464,-0.571 0.447,-0.588C0.43,-0.604 0.405,-0.612 0.374,-0.612L0.187,-0.612L0.187,-0.374Z" style="fill-rule:nonzero;"/>
        </g>
        <g transform="matrix(14,0,0,14,47.1984,116.286)">
            <path d="M0.082,-0L0.082,-0.518L0.175,-0.518L0.175,-0.419L0.18,-0.419C0.184,-0.432 0.19,-0.444 0.198,-0.456C0.206,-0.468 0.216,-0.478 0.228,-0.488C0.24,-0.497 0.254,-0.504 0.271,-0.51C0.287,-0.515 0.305,-0.518 0.326,-0.518L0.357,-0.518L0.357,-0.425L0.311,-0.425C0.268,-0.425 0.234,-0.417 0.211,-0.402C0.187,-0.386 0.175,-0.365 0.175,-0.34L0.175,-0L0.082,-0Z" style="fill-rule:nonzero;"/>
        </g>
        <g transform="matrix(14,0,0,14,52.3784,116.286)">
            <path d="M0.281,0.012C0.246,0.012 0.214,0.006 0.185,-0.007C0.156,-0.02 0.131,-0.038 0.11,-0.062C0.089,-0.085 0.073,-0.114 0.062,-0.147C0.051,-0.18 0.045,-0.218 0.045,-0.259C0.045,-0.3 0.051,-0.338 0.062,-0.371C0.073,-0.404 0.089,-0.433 0.11,-0.457C0.131,-0.48 0.156,-0.498 0.185,-0.511C0.214,-0.524 0.246,-0.53 0.281,-0.53C0.316,-0.53 0.349,-0.524 0.378,-0.511C0.407,-0.498 0.431,-0.48 0.452,-0.457C0.473,-0.433 0.489,-0.404 0.5,-0.371C0.511,-0.338 0.517,-0.3 0.517,-0.259C0.517,-0.218 0.511,-0.18 0.5,-0.147C0.489,-0.114 0.473,-0.085 0.452,-0.062C0.431,-0.038 0.407,-0.02 0.378,-0.007C0.349,0.006 0.316,0.012 0.281,0.012ZM0.281,-0.068C0.322,-0.068 0.355,-0.081 0.38,-0.106C0.405,-0.131 0.418,-0.169 0.418,-0.22L0.418,-0.298C0.418,-0.349 0.405,-0.387 0.38,-0.412C0.355,-0.437 0.322,-0.45 0.281,-0.45C0.24,-0.45 0.207,-0.437 0.182,-0.412C0.157,-0.387 0.144,-0.349 0.144,-0.298L0.144,-0.22C0.144,-0.169 0.157,-0.131 0.182,-0.106C0.207,-0.081 0.24,-0.068 0.281,-0.068Z" style="fill-rule:nonzero;"/>
        </g>
        <g transform="matrix(14,0,0,14,60.2464,116.286)">
            <path d="M0.082,-0.518L0.175,-0.518L0.175,-0.433L0.179,-0.433C0.191,-0.465 0.21,-0.489 0.236,-0.506C0.261,-0.522 0.292,-0.53 0.328,-0.53C0.361,-0.53 0.39,-0.524 0.416,-0.512C0.441,-0.499 0.463,-0.481 0.481,-0.458C0.499,-0.434 0.513,-0.405 0.522,-0.372C0.531,-0.339 0.536,-0.301 0.536,-0.259C0.536,-0.217 0.531,-0.179 0.522,-0.146C0.513,-0.113 0.499,-0.084 0.481,-0.061C0.463,-0.037 0.441,-0.019 0.416,-0.007C0.39,0.006 0.361,0.012 0.328,0.012C0.292,0.012 0.261,0.004 0.236,-0.013C0.21,-0.029 0.191,-0.053 0.179,-0.085L0.175,-0.085L0.175,0.2L0.082,0.2L0.082,-0.518ZM0.301,-0.069C0.343,-0.069 0.376,-0.082 0.401,-0.109C0.425,-0.136 0.437,-0.171 0.437,-0.215L0.437,-0.303C0.437,-0.347 0.425,-0.382 0.401,-0.409C0.376,-0.436 0.343,-0.449 0.301,-0.449C0.284,-0.449 0.267,-0.447 0.252,-0.442C0.237,-0.437 0.223,-0.431 0.212,-0.422C0.201,-0.413 0.192,-0.403 0.185,-0.392C0.178,-0.381 0.175,-0.368 0.175,-0.354L0.175,-0.164C0.175,-0.15 0.178,-0.137 0.185,-0.126C0.192,-0.115 0.201,-0.105 0.212,-0.096C0.223,-0.087 0.237,-0.081 0.252,-0.076C0.267,-0.071 0.284,-0.069 0.301,-0.069Z" style="fill-rule:nonzero;"/>
        </g>
        <g transform="matrix(14,0,0,14,68.4364,116.286)">
            <path d="M0.459,-0C0.43,-0 0.409,-0.008 0.395,-0.024C0.38,-0.04 0.371,-0.061 0.368,-0.086L0.363,-0.086C0.352,-0.054 0.334,-0.03 0.308,-0.013C0.282,0.004 0.25,0.012 0.213,0.012C0.159,0.012 0.117,-0.002 0.087,-0.03C0.057,-0.057 0.042,-0.095 0.042,-0.143C0.042,-0.193 0.06,-0.231 0.097,-0.258C0.133,-0.284 0.188,-0.297 0.263,-0.297L0.361,-0.297L0.361,-0.344C0.361,-0.379 0.352,-0.405 0.333,-0.424C0.314,-0.443 0.285,-0.452 0.246,-0.452C0.215,-0.452 0.19,-0.445 0.17,-0.432C0.149,-0.418 0.132,-0.4 0.119,-0.378L0.063,-0.429C0.078,-0.457 0.101,-0.481 0.133,-0.501C0.164,-0.52 0.203,-0.53 0.251,-0.53C0.316,-0.53 0.366,-0.515 0.401,-0.484C0.436,-0.452 0.454,-0.409 0.454,-0.352L0.454,-0.079L0.512,-0.079L0.512,-0L0.459,-0ZM0.234,-0.063C0.271,-0.063 0.301,-0.071 0.325,-0.088C0.349,-0.105 0.361,-0.126 0.361,-0.152L0.361,-0.232L0.262,-0.232C0.219,-0.232 0.188,-0.226 0.169,-0.213C0.149,-0.2 0.139,-0.182 0.139,-0.158L0.139,-0.138C0.139,-0.114 0.148,-0.096 0.165,-0.083C0.182,-0.07 0.205,-0.063 0.234,-0.063Z" style="fill-rule:nonzero;"/>
        </g>
        <g transform="matrix(14,0,0,14,76.0104,116.286)">
            <path d="M0.527,0.053C0.527,0.107 0.506,0.147 0.465,0.173C0.423,0.199 0.358,0.212 0.27,0.212C0.187,0.212 0.128,0.201 0.093,0.179C0.057,0.157 0.039,0.126 0.039,0.086C0.039,0.058 0.047,0.036 0.062,0.02C0.077,0.004 0.097,-0.007 0.124,-0.014L0.124,-0.025C0.09,-0.038 0.073,-0.064 0.073,-0.101C0.073,-0.127 0.082,-0.147 0.099,-0.161C0.116,-0.175 0.138,-0.185 0.163,-0.191L0.163,-0.195C0.132,-0.21 0.109,-0.231 0.092,-0.258C0.075,-0.284 0.067,-0.316 0.067,-0.352C0.067,-0.378 0.072,-0.402 0.081,-0.424C0.09,-0.446 0.103,-0.465 0.121,-0.481C0.137,-0.496 0.158,-0.508 0.183,-0.517C0.208,-0.526 0.236,-0.53 0.267,-0.53C0.285,-0.53 0.302,-0.528 0.318,-0.525C0.334,-0.522 0.349,-0.517 0.363,-0.512L0.363,-0.523C0.363,-0.544 0.368,-0.562 0.378,-0.575C0.388,-0.588 0.404,-0.594 0.426,-0.594L0.505,-0.594L0.505,-0.516L0.403,-0.516L0.403,-0.488C0.446,-0.456 0.468,-0.411 0.468,-0.352C0.468,-0.326 0.463,-0.302 0.454,-0.28C0.445,-0.258 0.431,-0.239 0.414,-0.224C0.397,-0.209 0.376,-0.197 0.351,-0.188C0.326,-0.179 0.298,-0.175 0.267,-0.175C0.257,-0.175 0.247,-0.175 0.237,-0.177C0.227,-0.178 0.218,-0.179 0.209,-0.181C0.194,-0.176 0.18,-0.17 0.168,-0.161C0.156,-0.152 0.15,-0.141 0.15,-0.126C0.15,-0.111 0.157,-0.1 0.171,-0.095C0.184,-0.09 0.203,-0.087 0.226,-0.087L0.344,-0.087C0.408,-0.087 0.454,-0.075 0.484,-0.05C0.513,-0.025 0.527,0.01 0.527,0.053ZM0.44,0.062C0.44,0.043 0.432,0.027 0.418,0.016C0.403,0.004 0.376,-0.002 0.338,-0.002L0.164,-0.002C0.136,0.013 0.122,0.035 0.122,0.064C0.122,0.085 0.13,0.103 0.148,0.119C0.165,0.134 0.193,0.141 0.234,0.141L0.304,0.141C0.348,0.141 0.382,0.135 0.405,0.122C0.428,0.109 0.44,0.089 0.44,0.062ZM0.268,-0.245C0.301,-0.245 0.328,-0.253 0.347,-0.268C0.366,-0.283 0.375,-0.307 0.375,-0.339L0.375,-0.365C0.375,-0.397 0.366,-0.421 0.347,-0.436C0.328,-0.451 0.301,-0.459 0.268,-0.459C0.235,-0.459 0.209,-0.451 0.19,-0.436C0.171,-0.421 0.161,-0.397 0.161,-0.365L0.161,-0.339C0.161,-0.307 0.171,-0.283 0.19,-0.268C0.209,-0.253 0.235,-0.245 0.268,-0.245Z" style="fill-rule:nonzero;"/>
        </g>
        <g transform="matrix(14,0,0,14,83.4304,116.286)">
            <path d="M0.459,-0C0.43,-0 0.409,-0.008 0.395,-0.024C0.38,-0.04 0.371,-0.061 0.368,-0.086L0.363,-0.086C0.352,-0.054 0.334,-0.03 0.308,-0.013C0.282,0.004 0.25,0.012 0.213,0.012C0.159,0.012 0.117,-0.002 0.087,-0.03C0.057,-0.057 0.042,-0.095 0.042,-0.143C0.042,-0.193 0.06,-0.231 0.097,-0.258C0.133,-0.284 0.188,-0.297 0.263,-0.297L0.361,-0.297L0.361,-0.344C0.361,-0.379 0.352,-0.405 0.333,-0.424C0.314,-0.443 0.285,-0.452 0.246,-0.452C0.215,-0.452 0.19,-0.445 0.17,-0.432C0.149,-0.418 0.132,-0.4 0.119,-0.378L0.063,-0.429C0.078,-0.457 0.101,-0.481 0.133,-0.501C0.164,-0.52 0.203,-0.53 0.251,-0.53C0.316,-0.53 0.366,-0.515 0.401,-0.484C0.436,-0.452 0.454,-0.409 0.454,-0.352L0.454,-0.079L0.512,-0.079L0.512,-0L0.459,-0ZM0.234,-0.063C0.271,-0.063 0.301,-0.071 0.325,-0.088C0.349,-0.105 0.361,-0.126 0.361,-0.152L0.361,-0.232L0.262,-0.232C0.219,-0.232 0.188,-0.226 0.169,-0.213C0.149,-0.2 0.139,-0.182 0.139,-0.158L0.139,-0.138C0.139,-0.114 0.148,-0.096 0.165,-0.083C0.182,-0.07 0.205,-0.063 0.234,-0.063Z" style="fill-rule:nonzero;"/>
        </g>
        <g transform="matrix(14,0,0,14,91.0044,116.286)">
            <path d="M0.278,0.012C0.241,0.012 0.208,0.006 0.179,-0.007C0.15,-0.02 0.126,-0.038 0.106,-0.061C0.086,-0.084 0.071,-0.113 0.061,-0.147C0.05,-0.18 0.045,-0.218 0.045,-0.259C0.045,-0.3 0.05,-0.338 0.061,-0.371C0.071,-0.404 0.086,-0.433 0.106,-0.457C0.126,-0.48 0.15,-0.498 0.179,-0.511C0.208,-0.524 0.241,-0.53 0.278,-0.53C0.329,-0.53 0.371,-0.519 0.403,-0.496C0.435,-0.473 0.459,-0.443 0.474,-0.406L0.397,-0.368C0.388,-0.393 0.374,-0.413 0.354,-0.428C0.333,-0.443 0.308,-0.45 0.278,-0.45C0.233,-0.45 0.2,-0.436 0.178,-0.409C0.155,-0.382 0.144,-0.347 0.144,-0.304L0.144,-0.214C0.144,-0.171 0.155,-0.136 0.178,-0.109C0.2,-0.082 0.233,-0.068 0.278,-0.068C0.31,-0.068 0.337,-0.076 0.358,-0.091C0.379,-0.106 0.397,-0.128 0.41,-0.156L0.478,-0.114C0.461,-0.075 0.436,-0.044 0.403,-0.022C0.37,0.001 0.328,0.012 0.278,0.012Z" style="fill-rule:nonzero;"/>
        </g>
        <g transform="matrix(14,0,0,14,98.0744,116.286)">
            <path d="M0.129,-0.626C0.11,-0.626 0.096,-0.631 0.087,-0.64C0.078,-0.649 0.073,-0.662 0.073,-0.677L0.073,-0.691C0.073,-0.706 0.078,-0.719 0.087,-0.728C0.096,-0.737 0.11,-0.742 0.129,-0.742C0.148,-0.742 0.163,-0.737 0.172,-0.728C0.181,-0.719 0.185,-0.706 0.185,-0.691L0.185,-0.677C0.185,-0.662 0.181,-0.649 0.172,-0.64C0.163,-0.631 0.148,-0.626 0.129,-0.626ZM0.082,-0.518L0.175,-0.518L0.175,-0L0.082,-0L0.082,-0.518Z" style="fill-rule:nonzero;"/>
        </g>
        <g transform="matrix(14,0,0,14,101.672,116.286)">
            <path d="M0.281,0.012C0.246,0.012 0.214,0.006 0.185,-0.007C0.156,-0.02 0.131,-0.038 0.11,-0.062C0.089,-0.085 0.073,-0.114 0.062,-0.147C0.051,-0.18 0.045,-0.218 0.045,-0.259C0.045,-0.3 0.051,-0.338 0.062,-0.371C0.073,-0.404 0.089,-0.433 0.11,-0.457C0.131,-0.48 0.156,-0.498 0.185,-0.511C0.214,-0.524 0.246,-0.53 0.281,-0.53C0.316,-0.53 0.349,-0.524 0.378,-0.511C0.407,-0.498 0.431,-0.48 0.452,-0.457C0.473,-0.433 0.489,-0.404 0.5,-0.371C0.511,-0.338 0.517,-0.3 0.517,-0.259C0.517,-0.218 0.511,-0.18 0.5,-0.147C0.489,-0.114 0.473,-0.085 0.452,-0.062C0.431,-0.038 0.407,-0.02 0.378,-0.007C0.349,0.006 0.316,0.012 0.281,0.012ZM0.281,-0.068C0.322,-0.068 0.355,-0.081 0.38,-0.106C0.405,-0.131 0.418,-0.169 0.418,-0.22L0.418,-0.298C0.418,-0.349 0.405,-0.387 0.38,-0.412C0.355,-0.437 0.322,-0.45 0.281,-0.45C0.24,-0.45 0.207,-0.437 0.182,-0.412C0.157,-0.387 0.144,-0.349 0.144,-0.298L0.144,-0.22C0.144,-0.169 0.157,-0.131 0.182,-0.106C0.207,-0.081 0.24,-0.068 0.281,-0.068ZM0.29,-0.584L0.231,-0.611L0.319,-0.786L0.401,-0.746L0.29,-0.584Z" style="fill-rule:nonzero;"/>
        </g>
        <g transform="matrix(14,0,0,14,109.54,116.286)">
            <path d="M0.082,-0L0.082,-0.518L0.175,-0.518L0.175,-0.433L0.18,-0.433C0.192,-0.462 0.21,-0.485 0.233,-0.503C0.256,-0.521 0.287,-0.53 0.326,-0.53C0.379,-0.53 0.421,-0.513 0.452,-0.478C0.482,-0.443 0.497,-0.394 0.497,-0.331L0.497,-0L0.404,-0L0.404,-0.317C0.404,-0.405 0.368,-0.449 0.295,-0.449C0.28,-0.449 0.265,-0.447 0.251,-0.443C0.236,-0.439 0.223,-0.433 0.212,-0.426C0.201,-0.418 0.192,-0.408 0.185,-0.397C0.178,-0.385 0.175,-0.371 0.175,-0.355L0.175,-0L0.082,-0Z" style="fill-rule:nonzero;"/>
        </g>
        <g transform="matrix(14,0,0,14,120.866,116.286)">
            <path d="M0.41,-0.085L0.406,-0.085C0.394,-0.053 0.375,-0.029 0.35,-0.013C0.324,0.004 0.293,0.012 0.257,0.012C0.224,0.012 0.195,0.006 0.17,-0.007C0.144,-0.019 0.122,-0.037 0.104,-0.061C0.086,-0.084 0.072,-0.113 0.063,-0.146C0.054,-0.179 0.049,-0.217 0.049,-0.259C0.049,-0.301 0.054,-0.339 0.063,-0.372C0.072,-0.405 0.086,-0.434 0.104,-0.458C0.122,-0.481 0.144,-0.499 0.17,-0.512C0.195,-0.524 0.224,-0.53 0.257,-0.53C0.293,-0.53 0.324,-0.522 0.35,-0.506C0.375,-0.489 0.394,-0.465 0.406,-0.433L0.41,-0.433L0.41,-0.74L0.503,-0.74L0.503,-0L0.41,-0L0.41,-0.085ZM0.284,-0.069C0.301,-0.069 0.318,-0.071 0.333,-0.076C0.348,-0.081 0.362,-0.087 0.373,-0.096C0.384,-0.105 0.393,-0.115 0.4,-0.126C0.407,-0.137 0.41,-0.15 0.41,-0.164L0.41,-0.354C0.41,-0.368 0.407,-0.381 0.4,-0.392C0.393,-0.403 0.384,-0.413 0.373,-0.422C0.362,-0.431 0.348,-0.437 0.333,-0.442C0.318,-0.447 0.301,-0.449 0.284,-0.449C0.242,-0.449 0.209,-0.436 0.185,-0.409C0.16,-0.382 0.148,-0.347 0.148,-0.303L0.148,-0.215C0.148,-0.171 0.16,-0.136 0.185,-0.109C0.209,-0.082 0.242,-0.069 0.284,-0.069Z" style="fill-rule:nonzero;"/>
        </g>
        <g transform="matrix(14,0,0,14,129.056,116.286)">
            <path d="M0.28,0.012C0.244,0.012 0.212,0.006 0.183,-0.008C0.154,-0.021 0.129,-0.039 0.109,-0.062C0.088,-0.085 0.073,-0.114 0.062,-0.147C0.05,-0.18 0.045,-0.218 0.045,-0.259C0.045,-0.3 0.05,-0.337 0.062,-0.371C0.073,-0.404 0.088,-0.433 0.109,-0.456C0.129,-0.479 0.154,-0.498 0.183,-0.511C0.212,-0.524 0.244,-0.53 0.28,-0.53C0.316,-0.53 0.348,-0.524 0.377,-0.511C0.405,-0.498 0.429,-0.48 0.448,-0.457C0.467,-0.434 0.482,-0.407 0.492,-0.376C0.502,-0.345 0.507,-0.311 0.507,-0.275L0.507,-0.236L0.142,-0.236L0.142,-0.215C0.142,-0.172 0.155,-0.136 0.18,-0.109C0.205,-0.081 0.241,-0.067 0.288,-0.067C0.321,-0.067 0.349,-0.074 0.372,-0.089C0.395,-0.104 0.414,-0.124 0.428,-0.151L0.488,-0.1C0.47,-0.066 0.443,-0.039 0.407,-0.019C0.371,0.002 0.329,0.012 0.28,0.012ZM0.28,-0.455C0.26,-0.455 0.242,-0.451 0.225,-0.444C0.208,-0.437 0.193,-0.427 0.181,-0.414C0.168,-0.401 0.159,-0.385 0.152,-0.367C0.145,-0.349 0.142,-0.329 0.142,-0.308L0.142,-0.301L0.408,-0.301L0.408,-0.311C0.408,-0.354 0.397,-0.389 0.374,-0.416C0.351,-0.442 0.319,-0.455 0.28,-0.455Z" style="fill-rule:nonzero;"/>
        </g>
        <g transform="matrix(14,0,0,14,140.088,116.286)">
            <path d="M0.525,-0L0.459,-0.197L0.187,-0.197L0.12,-0L0.022,-0L0.264,-0.698L0.386,-0.698L0.627,-0L0.525,-0ZM0.325,-0.609L0.32,-0.609L0.21,-0.283L0.435,-0.283L0.325,-0.609Z" style="fill-rule:nonzero;"/>
        </g>
        <g transform="matrix(14,0,0,14,149.174,116.286)">
            <path d="M0.278,0.012C0.241,0.012 0.208,0.006 0.179,-0.007C0.15,-0.02 0.126,-0.038 0.106,-0.061C0.086,-0.084 0.071,-0.113 0.061,-0.147C0.05,-0.18 0.045,-0.218 0.045,-0.259C0.045,-0.3 0.05,-0.338 0.061,-0.371C0.071,-0.404 0.086,-0.433 0.106,-0.457C0.126,-0.48 0.15,-0.498 0.179,-0.511C0.208,-0.524 0.241,-0.53 0.278,-0.53C0.329,-0.53 0.371,-0.519 0.403,-0.496C0.435,-0.473 0.459,-0.443 0.474,-0.406L0.397,-0.368C0.388,-0.393 0.374,-0.413 0.354,-0.428C0.333,-0.443 0.308,-0.45 0.278,-0.45C0.233,-0.45 0.2,-0.436 0.178,-0.409C0.155,-0.382 0.144,-0.347 0.144,-0.304L0.144,-0.214C0.144,-0.171 0.155,-0.136 0.178,-0.109C0.2,-0.082 0.233,-0.068 0.278,-0.068C0.31,-0.068 0.337,-0.076 0.358,-0.091C0.379,-0.106 0.397,-0.128 0.41,-0.156L0.478,-0.114C0.461,-0.075 0.436,-0.044 0.403,-0.022C0.37,0.001 0.328,0.012 0.278,0.012Z" style="fill-rule:nonzero;"/>
        </g>
        <g transform="matrix(14,0,0,14,156.244,116.286)">
            <path d="M0.209,-0C0.177,-0 0.153,-0.009 0.136,-0.027C0.119,-0.044 0.111,-0.068 0.111,-0.098L0.111,-0.439L0.028,-0.439L0.028,-0.518L0.074,-0.518C0.091,-0.518 0.103,-0.522 0.11,-0.529C0.117,-0.536 0.12,-0.549 0.12,-0.566L0.12,-0.661L0.204,-0.661L0.204,-0.518L0.315,-0.518L0.315,-0.439L0.204,-0.439L0.204,-0.079L0.307,-0.079L0.307,-0L0.209,-0Z" style="fill-rule:nonzero;"/>
        </g>
        <g transform="matrix(14,0,0,14,161.242,116.286)">
            <path d="M0.129,-0.626C0.11,-0.626 0.096,-0.631 0.087,-0.64C0.078,-0.649 0.073,-0.662 0.073,-0.677L0.073,-0.691C0.073,-0.706 0.078,-0.719 0.087,-0.728C0.096,-0.737 0.11,-0.742 0.129,-0.742C0.148,-0.742 0.163,-0.737 0.172,-0.728C0.181,-0.719 0.185,-0.706 0.185,-0.691L0.185,-0.677C0.185,-0.662 0.181,-0.649 0.172,-0.64C0.163,-0.631 0.148,-0.626 0.129,-0.626ZM0.082,-0.518L0.175,-0.518L0.175,-0L0.082,-0L0.082,-0.518Z" style="fill-rule:nonzero;"/>
        </g>
        <g transform="matrix(14,0,0,14,164.84,116.286)">
            <path d="M0.195,-0L0.016,-0.518L0.109,-0.518L0.194,-0.27L0.248,-0.091L0.254,-0.091L0.309,-0.27L0.395,-0.518L0.484,-0.518L0.304,-0L0.195,-0Z" style="fill-rule:nonzero;"/>
        </g>
        <g transform="matrix(14,0,0,14,171.84,116.286)">
            <path d="M0.129,-0.626C0.11,-0.626 0.096,-0.631 0.087,-0.64C0.078,-0.649 0.073,-0.662 0.073,-0.677L0.073,-0.691C0.073,-0.706 0.078,-0.719 0.087,-0.728C0.096,-0.737 0.11,-0.742 0.129,-0.742C0.148,-0.742 0.163,-0.737 0.172,-0.728C0.181,-0.719 0.185,-0.706 0.185,-0.691L0.185,-0.677C0.185,-0.662 0.181,-0.649 0.172,-0.64C0.163,-0.631 0.148,-0.626 0.129,-0.626ZM0.082,-0.518L0.175,-0.518L0.175,-0L0.082,-0L0.082,-0.518Z" style="fill-rule:nonzero;"/>
        </g>
        <g transform="matrix(14,0,0,14,175.438,116.286)">
            <path d="M0.41,-0.085L0.406,-0.085C0.394,-0.053 0.375,-0.029 0.35,-0.013C0.324,0.004 0.293,0.012 0.257,0.012C0.224,0.012 0.195,0.006 0.17,-0.007C0.144,-0.019 0.122,-0.037 0.104,-0.061C0.086,-0.084 0.072,-0.113 0.063,-0.146C0.054,-0.179 0.049,-0.217 0.049,-0.259C0.049,-0.301 0.054,-0.339 0.063,-0.372C0.072,-0.405 0.086,-0.434 0.104,-0.458C0.122,-0.481 0.144,-0.499 0.17,-0.512C0.195,-0.524 0.224,-0.53 0.257,-0.53C0.293,-0.53 0.324,-0.522 0.35,-0.506C0.375,-0.489 0.394,-0.465 0.406,-0.433L0.41,-0.433L0.41,-0.74L0.503,-0.74L0.503,-0L0.41,-0L0.41,-0.085ZM0.284,-0.069C0.301,-0.069 0.318,-0.071 0.333,-0.076C0.348,-0.081 0.362,-0.087 0.373,-0.096C0.384,-0.105 0.393,-0.115 0.4,-0.126C0.407,-0.137 0.41,-0.15 0.41,-0.164L0.41,-0.354C0.41,-0.368 0.407,-0.381 0.4,-0.392C0.393,-0.403 0.384,-0.413 0.373,-0.422C0.362,-0.431 0.348,-0.437 0.333,-0.442C0.318,-0.447 0.301,-0.449 0.284,-0.449C0.242,-0.449 0.209,-0.436 0.185,-0.409C0.16,-0.382 0.148,-0.347 0.148,-0.303L0.148,-0.215C0.148,-0.171 0.16,-0.136 0.185,-0.109C0.209,-0.082 0.242,-0.069 0.284,-0.069Z" style="fill-rule:nonzero;"/>
        </g>
        <g transform="matrix(14,0,0,14,183.628,116.286)">
            <path d="M0.459,-0C0.43,-0 0.409,-0.008 0.395,-0.024C0.38,-0.04 0.371,-0.061 0.368,-0.086L0.363,-0.086C0.352,-0.054 0.334,-0.03 0.308,-0.013C0.282,0.004 0.25,0.012 0.213,0.012C0.159,0.012 0.117,-0.002 0.087,-0.03C0.057,-0.057 0.042,-0.095 0.042,-0.143C0.042,-0.193 0.06,-0.231 0.097,-0.258C0.133,-0.284 0.188,-0.297 0.263,-0.297L0.361,-0.297L0.361,-0.344C0.361,-0.379 0.352,-0.405 0.333,-0.424C0.314,-0.443 0.285,-0.452 0.246,-0.452C0.215,-0.452 0.19,-0.445 0.17,-0.432C0.149,-0.418 0.132,-0.4 0.119,-0.378L0.063,-0.429C0.078,-0.457 0.101,-0.481 0.133,-0.501C0.164,-0.52 0.203,-0.53 0.251,-0.53C0.316,-0.53 0.366,-0.515 0.401,-0.484C0.436,-0.452 0.454,-0.409 0.454,-0.352L0.454,-0.079L0.512,-0.079L0.512,-0L0.459,-0ZM0.234,-0.063C0.271,-0.063 0.301,-0.071 0.325,-0.088C0.349,-0.105 0.361,-0.126 0.361,-0.152L0.361,-0.232L0.262,-0.232C0.219,-0.232 0.188,-0.226 0.169,-0.213C0.149,-0.2 0.139,-0.182 0.139,-0.158L0.139,-0.138C0.139,-0.114 0.148,-0.096 0.165,-0.083C0.182,-0.07 0.205,-0.063 0.234,-0.063Z" style="fill-rule:nonzero;"/>
        </g>
        <g transform="matrix(14,0,0,14,191.202,116.286)">
            <path d="M0.41,-0.085L0.406,-0.085C0.394,-0.053 0.375,-0.029 0.35,-0.013C0.324,0.004 0.293,0.012 0.257,0.012C0.224,0.012 0.195,0.006 0.17,-0.007C0.144,-0.019 0.122,-0.037 0.104,-0.061C0.086,-0.084 0.072,-0.113 0.063,-0.146C0.054,-0.179 0.049,-0.217 0.049,-0.259C0.049,-0.301 0.054,-0.339 0.063,-0.372C0.072,-0.405 0.086,-0.434 0.104,-0.458C0.122,-0.481 0.144,-0.499 0.17,-0.512C0.195,-0.524 0.224,-0.53 0.257,-0.53C0.293,-0.53 0.324,-0.522 0.35,-0.506C0.375,-0.489 0.394,-0.465 0.406,-0.433L0.41,-0.433L0.41,-0.74L0.503,-0.74L0.503,-0L0.41,-0L0.41,-0.085ZM0.284,-0.069C0.301,-0.069 0.318,-0.071 0.333,-0.076C0.348,-0.081 0.362,-0.087 0.373,-0.096C0.384,-0.105 0.393,-0.115 0.4,-0.126C0.407,-0.137 0.41,-0.15 0.41,-0.164L0.41,-0.354C0.41,-0.368 0.407,-0.381 0.4,-0.392C0.393,-0.403 0.384,-0.413 0.373,-0.422C0.362,-0.431 0.348,-0.437 0.333,-0.442C0.318,-0.447 0.301,-0.449 0.284,-0.449C0.242,-0.449 0.209,-0.436 0.185,-0.409C0.16,-0.382 0.148,-0.347 0.148,-0.303L0.148,-0.215C0.148,-0.171 0.16,-0.136 0.185,-0.109C0.209,-0.082 0.242,-0.069 0.284,-0.069Z" style="fill-rule:nonzero;"/>
        </g>
    </g>
    <g transform="matrix(1,0,0,1,779.8,17.8173)">
        <g transform="matrix(14,0,0,14,38.7144,116.286)">
            <path d="M0.343,0.012C0.254,0.012 0.184,-0.019 0.133,-0.081C0.082,-0.142 0.056,-0.232 0.056,-0.349C0.056,-0.466 0.082,-0.556 0.133,-0.618C0.184,-0.679 0.254,-0.71 0.343,-0.71C0.402,-0.71 0.452,-0.697 0.493,-0.67C0.533,-0.643 0.564,-0.605 0.587,-0.555L0.507,-0.509C0.494,-0.544 0.474,-0.571 0.447,-0.592C0.42,-0.613 0.385,-0.623 0.343,-0.623C0.286,-0.623 0.241,-0.603 0.209,-0.564C0.176,-0.525 0.16,-0.471 0.16,-0.402L0.16,-0.296C0.16,-0.227 0.176,-0.173 0.209,-0.134C0.241,-0.095 0.286,-0.075 0.343,-0.075C0.386,-0.075 0.422,-0.086 0.451,-0.109C0.479,-0.131 0.5,-0.16 0.513,-0.196L0.591,-0.149C0.568,-0.099 0.536,-0.06 0.495,-0.031C0.453,-0.002 0.402,0.012 0.343,0.012Z" style="fill-rule:nonzero;"/>
        </g>
        <g transform="matrix(14,0,0,14,47.4924,116.286)">
            <path d="M0.281,0.012C0.246,0.012 0.214,0.006 0.185,-0.007C0.156,-0.02 0.131,-0.038 0.11,-0.062C0.089,-0.085 0.073,-0.114 0.062,-0.147C0.051,-0.18 0.045,-0.218 0.045,-0.259C0.045,-0.3 0.051,-0.338 0.062,-0.371C0.073,-0.404 0.089,-0.433 0.11,-0.457C0.131,-0.48 0.156,-0.498 0.185,-0.511C0.214,-0.524 0.246,-0.53 0.281,-0.53C0.316,-0.53 0.349,-0.524 0.378,-0.511C0.407,-0.498 0.431,-0.48 0.452,-0.457C0.473,-0.433 0.489,-0.404 0.5,-0.371C0.511,-0.338 0.517,-0.3 0.517,-0.259C0.517,-0.218 0.511,-0.18 0.5,-0.147C0.489,-0.114 0.473,-0.085 0.452,-0.062C0.431,-0.038 0.407,-0.02 0.378,-0.007C0.349,0.006 0.316,0.012 0.281,0.012ZM0.281,-0.068C0.322,-0.068 0.355,-0.081 0.38,-0.106C0.405,-0.131 0.418,-0.169 0.418,-0.22L0.418,-0.298C0.418,-0.349 0.405,-0.387 0.38,-0.412C0.355,-0.437 0.322,-0.45 0.281,-0.45C0.24,-0.45 0.207,-0.437 0.182,-0.412C0.157,-0.387 0.144,-0.349 0.144,-0.298L0.144,-0.22C0.144,-0.169 0.157,-0.131 0.182,-0.106C0.207,-0.081 0.24,-0.068 0.281,-0.068Z" style="fill-rule:nonzero;"/>
        </g>
        <g transform="matrix(14,0,0,14,55.3604,116.286)">
            <path d="M0.082,-0L0.082,-0.518L0.175,-0.518L0.175,-0.433L0.18,-0.433C0.192,-0.462 0.21,-0.485 0.233,-0.503C0.256,-0.521 0.287,-0.53 0.326,-0.53C0.379,-0.53 0.421,-0.513 0.452,-0.478C0.482,-0.443 0.497,-0.394 0.497,-0.331L0.497,-0L0.404,-0L0.404,-0.317C0.404,-0.405 0.368,-0.449 0.295,-0.449C0.28,-0.449 0.265,-0.447 0.251,-0.443C0.236,-0.439 0.223,-0.433 0.212,-0.426C0.201,-0.418 0.192,-0.408 0.185,-0.397C0.178,-0.385 0.175,-0.371 0.175,-0.355L0.175,-0L0.082,-0Z" style="fill-rule:nonzero;"/>
        </g>
        <g transform="matrix(14,0,0,14,63.3824,116.286)">
            <path d="M0.28,0.012C0.244,0.012 0.212,0.006 0.183,-0.008C0.154,-0.021 0.129,-0.039 0.109,-0.062C0.088,-0.085 0.073,-0.114 0.062,-0.147C0.05,-0.18 0.045,-0.218 0.045,-0.259C0.045,-0.3 0.05,-0.337 0.062,-0.371C0.073,-0.404 0.088,-0.433 0.109,-0.456C0.129,-0.479 0.154,-0.498 0.183,-0.511C0.212,-0.524 0.244,-0.53 0.28,-0.53C0.316,-0.53 0.348,-0.524 0.377,-0.511C0.405,-0.498 0.429,-0.48 0.448,-0.457C0.467,-0.434 0.482,-0.407 0.492,-0.376C0.502,-0.345 0.507,-0.311 0.507,-0.275L0.507,-0.236L0.142,-0.236L0.142,-0.215C0.142,-0.172 0.155,-0.136 0.18,-0.109C0.205,-0.081 0.241,-0.067 0.288,-0.067C0.321,-0.067 0.349,-0.074 0.372,-0.089C0.395,-0.104 0.414,-0.124 0.428,-0.151L0.488,-0.1C0.47,-0.066 0.443,-0.039 0.407,-0.019C0.371,0.002 0.329,0.012 0.28,0.012ZM0.28,-0.455C0.26,-0.455 0.242,-0.451 0.225,-0.444C0.208,-0.437 0.193,-0.427 0.181,-0.414C0.168,-0.401 0.159,-0.385 0.152,-0.367C0.145,-0.349 0.142,-0.329 0.142,-0.308L0.142,-0.301L0.408,-0.301L0.408,-0.311C0.408,-0.354 0.397,-0.389 0.374,-0.416C0.351,-0.442 0.319,-0.455 0.28,-0.455Z" style="fill-rule:nonzero;"/>
        </g>
        <g transform="matrix(14,0,0,14,71.1104,116.286)">
            <path d="M0.278,0.012C0.241,0.012 0.208,0.006 0.179,-0.007C0.15,-0.02 0.126,-0.038 0.106,-0.061C0.086,-0.084 0.071,-0.113 0.061,-0.147C0.05,-0.18 0.045,-0.218 0.045,-0.259C0.045,-0.3 0.05,-0.338 0.061,-0.371C0.071,-0.404 0.086,-0.433 0.106,-0.457C0.126,-0.48 0.15,-0.498 0.179,-0.511C0.208,-0.524 0.241,-0.53 0.278,-0.53C0.329,-0.53 0.371,-0.519 0.403,-0.496C0.435,-0.473 0.459,-0.443 0.474,-0.406L0.397,-0.368C0.388,-0.393 0.374,-0.413 0.354,-0.428C0.333,-0.443 0.308,-0.45 0.278,-0.45C0.233,-0.45 0.2,-0.436 0.178,-0.409C0.155,-0.382 0.144,-0.347 0.144,-0.304L0.144,-0.214C0.144,-0.171 0.155,-0.136 0.178,-0.109C0.2,-0.082 0.233,-0.068 0.278,-0.068C0.31,-0.068 0.337,-0.076 0.358,-0.091C0.379,-0.106 0.397,-0.128 0.41,-0.156L0.478,-0.114C0.461,-0.075 0.436,-0.044 0.403,-0.022C0.37,0.001 0.328,0.012 0.278,0.012Z" style="fill-rule:nonzero;"/>
        </g>
        <g transform="matrix(14,0,0,14,78.1804,116.286)">
            <path d="M0.209,-0C0.177,-0 0.153,-0.009 0.136,-0.027C0.119,-0.044 0.111,-0.068 0.111,-0.098L0.111,-0.439L0.028,-0.439L0.028,-0.518L0.074,-0.518C0.091,-0.518 0.103,-0.522 0.11,-0.529C0.117,-0.536 0.12,-0.549 0.12,-0.566L0.12,-0.661L0.204,-0.661L0.204,-0.518L0.315,-0.518L0.315,-0.439L0.204,-0.439L0.204,-0.079L0.307,-0.079L0.307,-0L0.209,-0Z" style="fill-rule:nonzero;"/>
        </g>
        <g transform="matrix(14,0,0,14,83.1784,116.286)">
            <path d="M0.129,-0.626C0.11,-0.626 0.096,-0.631 0.087,-0.64C0.078,-0.649 0.073,-0.662 0.073,-0.677L0.073,-0.691C0.073,-0.706 0.078,-0.719 0.087,-0.728C0.096,-0.737 0.11,-0.742 0.129,-0.742C0.148,-0.742 0.163,-0.737 0.172,-0.728C0.181,-0.719 0.185,-0.706 0.185,-0.691L0.185,-0.677C0.185,-0.662 0.181,-0.649 0.172,-0.64C0.163,-0.631 0.148,-0.626 0.129,-0.626ZM0.082,-0.518L0.175,-0.518L0.175,-0L0.082,-0L0.082,-0.518Z" style="fill-rule:nonzero;"/>
        </g>
        <g transform="matrix(14,0,0,14,86.7764,116.286)">
            <path d="M0.195,-0L0.016,-0.518L0.109,-0.518L0.194,-0.27L0.248,-0.091L0.254,-0.091L0.309,-0.27L0.395,-0.518L0.484,-0.518L0.304,-0L0.195,-0Z" style="fill-rule:nonzero;"/>
        </g>
        <g transform="matrix(14,0,0,14,93.7764,116.286)">
            <path d="M0.129,-0.626C0.11,-0.626 0.096,-0.631 0.087,-0.64C0.078,-0.649 0.073,-0.662 0.073,-0.677L0.073,-0.691C0.073,-0.706 0.078,-0.719 0.087,-0.728C0.096,-0.737 0.11,-0.742 0.129,-0.742C0.148,-0.742 0.163,-0.737 0.172,-0.728C0.181,-0.719 0.185,-0.706 0.185,-0.691L0.185,-0.677C0.185,-0.662 0.181,-0.649 0.172,-0.64C0.163,-0.631 0.148,-0.626 0.129,-0.626ZM0.082,-0.518L0.175,-0.518L0.175,-0L0.082,-0L0.082,-0.518Z" style="fill-rule:nonzero;"/>
        </g>
        <g transform="matrix(14,0,0,14,97.3744,116.286)">
            <path d="M0.41,-0.085L0.406,-0.085C0.394,-0.053 0.375,-0.029 0.35,-0.013C0.324,0.004 0.293,0.012 0.257,0.012C0.224,0.012 0.195,0.006 0.17,-0.007C0.144,-0.019 0.122,-0.037 0.104,-0.061C0.086,-0.084 0.072,-0.113 0.063,-0.146C0.054,-0.179 0.049,-0.217 0.049,-0.259C0.049,-0.301 0.054,-0.339 0.063,-0.372C0.072,-0.405 0.086,-0.434 0.104,-0.458C0.122,-0.481 0.144,-0.499 0.17,-0.512C0.195,-0.524 0.224,-0.53 0.257,-0.53C0.293,-0.53 0.324,-0.522 0.35,-0.506C0.375,-0.489 0.394,-0.465 0.406,-0.433L0.41,-0.433L0.41,-0.74L0.503,-0.74L0.503,-0L0.41,-0L0.41,-0.085ZM0.284,-0.069C0.301,-0.069 0.318,-0.071 0.333,-0.076C0.348,-0.081 0.362,-0.087 0.373,-0.096C0.384,-0.105 0.393,-0.115 0.4,-0.126C0.407,-0.137 0.41,-0.15 0.41,-0.164L0.41,-0.354C0.41,-0.368 0.407,-0.381 0.4,-0.392C0.393,-0.403 0.384,-0.413 0.373,-0.422C0.362,-0.431 0.348,-0.437 0.333,-0.442C0.318,-0.447 0.301,-0.449 0.284,-0.449C0.242,-0.449 0.209,-0.436 0.185,-0.409C0.16,-0.382 0.148,-0.347 0.148,-0.303L0.148,-0.215C0.148,-0.171 0.16,-0.136 0.185,-0.109C0.209,-0.082 0.242,-0.069 0.284,-0.069Z" style="fill-rule:nonzero;"/>
        </g>
        <g transform="matrix(14,0,0,14,105.564,116.286)">
            <path d="M0.459,-0C0.43,-0 0.409,-0.008 0.395,-0.024C0.38,-0.04 0.371,-0.061 0.368,-0.086L0.363,-0.086C0.352,-0.054 0.334,-0.03 0.308,-0.013C0.282,0.004 0.25,0.012 0.213,0.012C0.159,0.012 0.117,-0.002 0.087,-0.03C0.057,-0.057 0.042,-0.095 0.042,-0.143C0.042,-0.193 0.06,-0.231 0.097,-0.258C0.133,-0.284 0.188,-0.297 0.263,-0.297L0.361,-0.297L0.361,-0.344C0.361,-0.379 0.352,-0.405 0.333,-0.424C0.314,-0.443 0.285,-0.452 0.246,-0.452C0.215,-0.452 0.19,-0.445 0.17,-0.432C0.149,-0.418 0.132,-0.4 0.119,-0.378L0.063,-0.429C0.078,-0.457 0.101,-0.481 0.133,-0.501C0.164,-0.52 0.203,-0.53 0.251,-0.53C0.316,-0.53 0.366,-0.515 0.401,-0.484C0.436,-0.452 0.454,-0.409 0.454,-0.352L0.454,-0.079L0.512,-0.079L0.512,-0L0.459,-0ZM0.234,-0.063C0.271,-0.063 0.301,-0.071 0.325,-0.088C0.349,-0.105 0.361,-0.126 0.361,-0.152L0.361,-0.232L0.262,-0.232C0.219,-0.232 0.188,-0.226 0.169,-0.213C0.149,-0.2 0.139,-0.182 0.139,-0.158L0.139,-0.138C0.139,-0.114 0.148,-0.096 0.165,-0.083C0.182,-0.07 0.205,-0.063 0.234,-0.063Z" style="fill-rule:nonzero;"/>
        </g>
        <g transform="matrix(14,0,0,14,113.138,116.286)">
            <path d="M0.41,-0.085L0.406,-0.085C0.394,-0.053 0.375,-0.029 0.35,-0.013C0.324,0.004 0.293,0.012 0.257,0.012C0.224,0.012 0.195,0.006 0.17,-0.007C0.144,-0.019 0.122,-0.037 0.104,-0.061C0.086,-0.084 0.072,-0.113 0.063,-0.146C0.054,-0.179 0.049,-0.217 0.049,-0.259C0.049,-0.301 0.054,-0.339 0.063,-0.372C0.072,-0.405 0.086,-0.434 0.104,-0.458C0.122,-0.481 0.144,-0.499 0.17,-0.512C0.195,-0.524 0.224,-0.53 0.257,-0.53C0.293,-0.53 0.324,-0.522 0.35,-0.506C0.375,-0.489 0.394,-0.465 0.406,-0.433L0.41,-0.433L0.41,-0.74L0.503,-0.74L0.503,-0L0.41,-0L0.41,-0.085ZM0.284,-0.069C0.301,-0.069 0.318,-0.071 0.333,-0.076C0.348,-0.081 0.362,-0.087 0.373,-0.096C0.384,-0.105 0.393,-0.115 0.4,-0.126C0.407,-0.137 0.41,-0.15 0.41,-0.164L0.41,-0.354C0.41,-0.368 0.407,-0.381 0.4,-0.392C0.393,-0.403 0.384,-0.413 0.373,-0.422C0.362,-0.431 0.348,-0.437 0.333,-0.442C0.318,-0.447 0.301,-0.449 0.284,-0.449C0.242,-0.449 0.209,-0.436 0.185,-0.409C0.16,-0.382 0.148,-0.347 0.148,-0.303L0.148,-0.215C0.148,-0.171 0.16,-0.136 0.185,-0.109C0.209,-0.082 0.242,-0.069 0.284,-0.069Z" style="fill-rule:nonzero;"/>
        </g>
        <g transform="matrix(14,0,0,14,124.632,116.286)">
            <path d="M0.628,-0.564L0.623,-0.564L0.566,-0.449L0.406,-0.156L0.246,-0.449L0.189,-0.564L0.184,-0.564L0.184,-0L0.09,-0L0.09,-0.698L0.212,-0.698L0.406,-0.331L0.41,-0.331L0.604,-0.698L0.722,-0.698L0.722,-0L0.628,-0L0.628,-0.564Z" style="fill-rule:nonzero;"/>
        </g>
        <g transform="matrix(14,0,0,14,136,116.286)">
            <path d="M0.399,-0.085L0.394,-0.085C0.389,-0.072 0.383,-0.06 0.376,-0.049C0.368,-0.037 0.358,-0.027 0.347,-0.018C0.335,-0.009 0.321,-0.001 0.305,0.004C0.289,0.009 0.27,0.012 0.249,0.012C0.196,0.012 0.154,-0.005 0.123,-0.04C0.092,-0.075 0.077,-0.124 0.077,-0.187L0.077,-0.518L0.17,-0.518L0.17,-0.201C0.17,-0.113 0.207,-0.069 0.28,-0.069C0.295,-0.069 0.309,-0.071 0.324,-0.075C0.338,-0.078 0.351,-0.084 0.362,-0.092C0.373,-0.1 0.382,-0.11 0.389,-0.122C0.396,-0.134 0.399,-0.148 0.399,-0.164L0.399,-0.518L0.492,-0.518L0.492,-0L0.399,-0L0.399,-0.085ZM0.294,-0.584L0.235,-0.611L0.323,-0.786L0.405,-0.746L0.294,-0.584Z" style="fill-rule:nonzero;"/>
        </g>
        <g transform="matrix(14,0,0,14,144.036,116.286)">
            <path d="M0.179,-0C0.147,-0 0.123,-0.009 0.107,-0.026C0.09,-0.043 0.082,-0.066 0.082,-0.095L0.082,-0.74L0.175,-0.74L0.175,-0.079L0.249,-0.079L0.249,-0L0.179,-0Z" style="fill-rule:nonzero;"/>
        </g>
        <g transform="matrix(14,0,0,14,147.858,116.286)">
            <path d="M0.209,-0C0.177,-0 0.153,-0.009 0.136,-0.027C0.119,-0.044 0.111,-0.068 0.111,-0.098L0.111,-0.439L0.028,-0.439L0.028,-0.518L0.074,-0.518C0.091,-0.518 0.103,-0.522 0.11,-0.529C0.117,-0.536 0.12,-0.549 0.12,-0.566L0.12,-0.661L0.204,-0.661L0.204,-0.518L0.315,-0.518L0.315,-0.439L0.204,-0.439L0.204,-0.079L0.307,-0.079L0.307,-0L0.209,-0Z" style="fill-rule:nonzero;"/>
        </g>
        <g transform="matrix(14,0,0,14,152.856,116.286)">
            <path d="M0.129,-0.626C0.11,-0.626 0.096,-0.631 0.087,-0.64C0.078,-0.649 0.073,-0.662 0.073,-0.677L0.073,-0.691C0.073,-0.706 0.078,-0.719 0.087,-0.728C0.096,-0.737 0.11,-0.742 0.129,-0.742C0.148,-0.742 0.163,-0.737 0.172,-0.728C0.181,-0.719 0.185,-0.706 0.185,-0.691L0.185,-0.677C0.185,-0.662 0.181,-0.649 0.172,-0.64C0.163,-0.631 0.148,-0.626 0.129,-0.626ZM0.082,-0.518L0.175,-0.518L0.175,-0L0.082,-0L0.082,-0.518Z" style="fill-rule:nonzero;"/>
        </g>
        <g transform="matrix(14,0,0,14,156.454,116.286)">
            <path d="M0.082,-0.518L0.175,-0.518L0.175,-0.433L0.179,-0.433C0.191,-0.465 0.21,-0.489 0.236,-0.506C0.261,-0.522 0.292,-0.53 0.328,-0.53C0.361,-0.53 0.39,-0.524 0.416,-0.512C0.441,-0.499 0.463,-0.481 0.481,-0.458C0.499,-0.434 0.513,-0.405 0.522,-0.372C0.531,-0.339 0.536,-0.301 0.536,-0.259C0.536,-0.217 0.531,-0.179 0.522,-0.146C0.513,-0.113 0.499,-0.084 0.481,-0.061C0.463,-0.037 0.441,-0.019 0.416,-0.007C0.39,0.006 0.361,0.012 0.328,0.012C0.292,0.012 0.261,0.004 0.236,-0.013C0.21,-0.029 0.191,-0.053 0.179,-0.085L0.175,-0.085L0.175,0.2L0.082,0.2L0.082,-0.518ZM0.301,-0.069C0.343,-0.069 0.376,-0.082 0.401,-0.109C0.425,-0.136 0.437,-0.171 0.437,-0.215L0.437,-0.303C0.437,-0.347 0.425,-0.382 0.401,-0.409C0.376,-0.436 0.343,-0.449 0.301,-0.449C0.284,-0.449 0.267,-0.447 0.252,-0.442C0.237,-0.437 0.223,-0.431 0.212,-0.422C0.201,-0.413 0.192,-0.403 0.185,-0.392C0.178,-0.381 0.175,-0.368 0.175,-0.354L0.175,-0.164C0.175,-0.15 0.178,-0.137 0.185,-0.126C0.192,-0.115 0.201,-0.105 0.212,-0.096C0.223,-0.087 0.237,-0.081 0.252,-0.076C0.267,-0.071 0.284,-0.069 0.301,-0.069Z" style="fill-rule:nonzero;"/>
        </g>
        <g transform="matrix(14,0,0,14,164.644,116.286)">
            <path d="M0.179,-0C0.147,-0 0.123,-0.009 0.107,-0.026C0.09,-0.043 0.082,-0.066 0.082,-0.095L0.082,-0.74L0.175,-0.74L0.175,-0.079L0.249,-0.079L0.249,-0L0.179,-0Z" style="fill-rule:nonzero;"/>
        </g>
        <g transform="matrix(14,0,0,14,168.536,116.286)">
            <path d="M0.28,0.012C0.244,0.012 0.212,0.006 0.183,-0.008C0.154,-0.021 0.129,-0.039 0.109,-0.062C0.088,-0.085 0.073,-0.114 0.062,-0.147C0.05,-0.18 0.045,-0.218 0.045,-0.259C0.045,-0.3 0.05,-0.337 0.062,-0.371C0.073,-0.404 0.088,-0.433 0.109,-0.456C0.129,-0.479 0.154,-0.498 0.183,-0.511C0.212,-0.524 0.244,-0.53 0.28,-0.53C0.316,-0.53 0.348,-0.524 0.377,-0.511C0.405,-0.498 0.429,-0.48 0.448,-0.457C0.467,-0.434 0.482,-0.407 0.492,-0.376C0.502,-0.345 0.507,-0.311 0.507,-0.275L0.507,-0.236L0.142,-0.236L0.142,-0.215C0.142,-0.172 0.155,-0.136 0.18,-0.109C0.205,-0.081 0.241,-0.067 0.288,-0.067C0.321,-0.067 0.349,-0.074 0.372,-0.089C0.395,-0.104 0.414,-0.124 0.428,-0.151L0.488,-0.1C0.47,-0.066 0.443,-0.039 0.407,-0.019C0.371,0.002 0.329,0.012 0.28,0.012ZM0.28,-0.455C0.26,-0.455 0.242,-0.451 0.225,-0.444C0.208,-0.437 0.193,-0.427 0.181,-0.414C0.168,-0.401 0.159,-0.385 0.152,-0.367C0.145,-0.349 0.142,-0.329 0.142,-0.308L0.142,-0.301L0.408,-0.301L0.408,-0.311C0.408,-0.354 0.397,-0.389 0.374,-0.416C0.351,-0.442 0.319,-0.455 0.28,-0.455Z" style="fill-rule:nonzero;"/>
        </g>
    </g>
    <path d="M461,51C466.523,51 471,46.523 471,41C471,35.477 466.523,31 461,31C455.477,31 451,35.477 451,41C451,46.523 455.477,51 461,51Z" style="fill:rgb(0,149,182);fill-rule:nonzero;"/>
    <path d="M411,51C416.523,51 421,46.523 421,41C421,35.477 416.523,31 411,31C405.477,31 401,35.477 401,41C401,46.523 405.477,51 411,51Z" style="fill:rgb(0,149,182);fill-rule:nonzero;"/>
    <path d="M411,81C416.523,81 421,76.523 421,71C421,65.477 416.523,61 411,61C405.477,61 401,65.477 401,71C401,76.523 405.477,81 411,81Z" style="fill:rgb(0,149,182);fill-rule:nonzero;"/>
    <path d="M411,21C416.523,21 421,16.523 421,11C421,5.477 416.523,1 411,1C405.477,1 401,5.477 401,11C401,16.523 405.477,21 411,21Z" style="fill:rgb(0,149,182);fill-rule:nonzero;"/>
    <path d="M511,51C516.523,51 521,46.523 521,41C521,35.477 516.523,31 511,31C505.477,31 501,35.477 501,41C501,46.523 505.477,51 511,51Z" style="fill:rgb(0,149,182);fill-rule:nonzero;"/>
    <path d="M511,81C516.523,81 521,76.523 521,71C521,65.477 516.523,61 511,61C505.477,61 501,65.477 501,71C501,76.523 505.477,81 511,81Z" style="fill:rgb(0,149,182);fill-rule:nonzero;"/>
    <path d="M511,21C516.523,21 521,16.523 521,11C521,5.477 516.523,1 511,1C505.477,1 501,5.477 501,11C501,16.523 505.477,21 511,21Z" style="fill:rgb(0,149,182);fill-rule:nonzero;"/>
    <path d="M451.102,31.49C451.372,31.433 451.546,31.168 451.489,30.898L450.572,26.493C450.515,26.222 450.251,26.049 449.98,26.105C449.71,26.161 449.536,26.426 449.593,26.697L450.409,30.613L446.493,31.428C446.222,31.485 446.049,31.749 446.105,32.02C446.161,32.29 446.426,32.464 446.697,32.407L451.102,31.49ZM421.726,12.418L450.726,31.418L451.274,30.582L422.274,11.582L421.726,12.418Z" style="fill-rule:nonzero;"/>
    <path d="M470.511,30.898C470.454,31.168 470.628,31.433 470.898,31.49L475.303,32.407C475.574,32.464 475.839,32.29 475.895,32.02C475.951,31.749 475.778,31.485 475.507,31.428L471.591,30.613L472.407,26.697C472.464,26.426 472.29,26.161 472.02,26.105C471.749,26.049 471.485,26.222 471.428,26.493L470.511,30.898ZM499.726,11.582L470.726,30.582L471.274,31.418L500.274,12.418L499.726,11.582Z" style="fill-rule:nonzero;"/>
    <path d="M470.91,50.508C470.638,50.558 470.458,50.819 470.508,51.09L471.321,55.516C471.371,55.788 471.632,55.968 471.903,55.918C472.175,55.868 472.355,55.607 472.305,55.336L471.582,51.401L475.516,50.679C475.788,50.629 475.968,50.368 475.918,50.097C475.868,49.825 475.607,49.645 475.336,49.695L470.91,50.508ZM500.284,70.588L471.284,50.588L470.716,51.412L499.716,71.412L500.284,70.588Z" style="fill-rule:nonzero;"/>
    <path d="M471.646,40.646C471.451,40.842 471.451,41.158 471.646,41.354L474.828,44.536C475.024,44.731 475.34,44.731 475.536,44.536C475.731,44.34 475.731,44.024 475.536,43.828L472.707,41L475.536,38.172C475.731,37.976 475.731,37.66 475.536,37.465C475.34,37.269 475.024,37.269 474.828,37.465L471.646,40.646ZM500,40.5L472,40.5L472,41.5L500,41.5L500,40.5Z" style="fill-rule:nonzero;"/>
    <path d="M451.492,51.09C451.542,50.819 451.362,50.558 451.09,50.508L446.664,49.695C446.393,49.645 446.132,49.825 446.082,50.097C446.032,50.368 446.212,50.629 446.484,50.679L450.418,51.401L449.695,55.336C449.645,55.607 449.825,55.868 450.097,55.918C450.368,55.968 450.629,55.788 450.679,55.516L451.492,51.09ZM422.284,71.412L451.284,51.412L450.716,50.588L421.716,70.588L422.284,71.412Z" style="fill-rule:nonzero;"/>
    <path d="M450.354,41.354C450.549,41.158 450.549,40.842 450.354,40.646L447.172,37.465C446.976,37.269 446.66,37.269 446.464,37.465C446.269,37.66 446.269,37.976 446.464,38.172L449.293,41L446.464,43.828C446.269,44.024 446.269,44.34 446.464,44.536C446.66,44.731 446.976,44.731 447.172,44.536L450.354,41.354ZM422,41.5L450,41.5L450,40.5L422,40.5L422,41.5Z" style="fill-rule:nonzero;"/>
    <path d="M661,51C666.523,51 671,46.523 671,41C671,35.477 666.523,31 661,31C655.477,31 651,35.477 651,41C651,46.523 655.477,51 661,51Z" style="fill:rgb(0,149,182);fill-rule:nonzero;"/>
    <path d="M611,51C616.523,51 621,46.523 621,41C621,35.477 616.523,31 611,31C605.477,31 601,35.477 601,41C601,46.523 605.477,51 611,51Z" style="fill:rgb(0,149,182);fill-rule:nonzero;"/>
    <path d="M611,81C616.523,81 621,76.523 621,71C621,65.477 616.523,61 611,61C605.477,61 601,65.477 601,71C601,76.523 605.477,81 611,81Z" style="fill:rgb(0,149,182);fill-rule:nonzero;"/>
    <path d="M611,21C616.523,21 621,16.523 621,11C621,5.477 616.523,1 611,1C605.477,1 601,5.477 601,11C601,16.523 605.477,21 611,21Z" style="fill:rgb(0,149,182);fill-rule:nonzero;"/>
    <path d="M711,51C716.523,51 721,46.523 721,41C721,35.477 716.523,31 711,31C705.477,31 701,35.477 701,41C701,46.523 705.477,51 711,51Z" style="fill:rgb(0,149,182);fill-rule:nonzero;"/>
    <path d="M711,81C716.523,81 721,76.523 721,71C721,65.477 716.523,61 711,61C705.477,61 701,65.477 701,71C701,76.523 705.477,81 711,81Z" style="fill:rgb(0,149,182);fill-rule:nonzero;"/>
    <path d="M711,21C716.523,21 721,16.523 721,11C721,5.477 716.523,1 711,1C705.477,1 701,5.477 701,11C701,16.523 705.477,21 711,21Z" style="fill:rgb(0,149,182);fill-rule:nonzero;"/>
    <path d="M621.898,11.511C621.628,11.567 621.454,11.832 621.511,12.102L622.428,16.507C622.485,16.778 622.749,16.951 623.02,16.895C623.29,16.839 623.464,16.574 623.407,16.303L622.591,12.387L626.507,11.572C626.778,11.515 626.951,11.251 626.895,10.98C626.839,10.71 626.574,10.536 626.303,10.593L621.898,11.511ZM621.726,12.418L650.726,31.418L651.274,30.582L622.274,11.582L621.726,12.418Z" style="fill-rule:nonzero;"/>
    <path d="M700.489,12.102C700.546,11.832 700.372,11.567 700.102,11.511L695.697,10.593C695.426,10.536 695.161,10.71 695.105,10.98C695.049,11.251 695.222,11.515 695.493,11.572L699.409,12.387L698.593,16.303C698.536,16.574 698.71,16.839 698.98,16.895C699.251,16.951 699.515,16.778 699.572,16.507L700.489,12.102ZM699.726,11.582L670.726,30.582L671.274,31.418L700.274,12.418L699.726,11.582Z" style="fill-rule:nonzero;"/>
    <path d="M700.09,71.492C700.362,71.442 700.542,71.181 700.492,70.91L699.679,66.484C699.629,66.212 699.368,66.032 699.097,66.082C698.825,66.132 698.645,66.393 698.695,66.664L699.418,70.599L695.484,71.321C695.212,71.371 695.032,71.632 695.082,71.903C695.132,72.175 695.393,72.355 695.664,72.305L700.09,71.492ZM700.284,70.588L671.284,50.588L670.716,51.412L699.716,71.412L700.284,70.588Z" style="fill-rule:nonzero;"/>
    <path d="M700.354,41.354C700.549,41.158 700.549,40.842 700.354,40.646L697.172,37.465C696.976,37.269 696.66,37.269 696.464,37.465C696.269,37.66 696.269,37.976 696.464,38.172L699.293,41L696.464,43.828C696.269,44.024 696.269,44.34 696.464,44.536C696.66,44.731 696.976,44.731 697.172,44.536L700.354,41.354ZM700,40.5L672,40.5L672,41.5L700,41.5L700,40.5Z" style="fill-rule:nonzero;"/>
    <path d="M621.508,70.91C621.458,71.181 621.638,71.442 621.91,71.492L626.336,72.305C626.607,72.355 626.868,72.175 626.918,71.903C626.968,71.632 626.788,71.371 626.516,71.321L622.582,70.599L623.305,66.664C623.355,66.393 623.175,66.132 622.903,66.082C622.632,66.032 622.371,66.212 622.321,66.484L621.508,70.91ZM622.284,71.412L651.284,51.412L650.716,50.588L621.716,70.588L622.284,71.412Z" style="fill-rule:nonzero;"/>
    <path d="M621.646,40.646C621.451,40.842 621.451,41.158 621.646,41.354L624.828,44.536C625.024,44.731 625.34,44.731 625.536,44.536C625.731,44.34 625.731,44.024 625.536,43.828L622.707,41L625.536,38.172C625.731,37.976 625.731,37.66 625.536,37.465C625.34,37.269 625.024,37.269 624.828,37.465L621.646,40.646ZM622,41.5L650,41.5L650,40.5L622,40.5L622,41.5Z" style="fill-rule:nonzero;"/>
    <path d="M861,51C866.523,51 871,46.523 871,41C871,35.477 866.523,31 861,31C855.477,31 851,35.477 851,41C851,46.523 855.477,51 861,51Z" style="fill:rgb(0,149,182);fill-rule:nonzero;"/>
    <path d="M911,51C916.523,51 921,46.523 921,41C921,35.477 916.523,31 911,31C905.477,31 901,35.477 901,41C901,46.523 905.477,51 911,51Z" style="fill:rgb(0,149,182);fill-rule:nonzero;"/>
    <path d="M961,51C966.523,51 971,46.523 971,41C971,35.477 966.523,31 961,31C955.477,31 951,35.477 951,41C951,46.523 955.477,51 961,51Z" style="fill:rgb(0,149,182);fill-rule:nonzero;"/>
    <path d="M811,31C816.523,31 821,26.523 821,21C821,15.477 816.523,11 811,11C805.477,11 801,15.477 801,21C801,26.523 805.477,31 811,31Z" style="fill:rgb(0,149,182);fill-rule:nonzero;"/>
    <path d="M811,71C816.523,71 821,66.523 821,61C821,55.477 816.523,51 811,51C805.477,51 801,55.477 801,61C801,66.523 805.477,71 811,71Z" style="fill:rgb(0,149,182);fill-rule:nonzero;"/>
    <path d="M821.698,28.602C821.478,28.768 821.435,29.082 821.601,29.302L824.319,32.889C824.486,33.109 824.799,33.152 825.019,32.986C825.239,32.819 825.283,32.505 825.116,32.285L822.7,29.097L825.889,26.681C826.109,26.514 826.152,26.201 825.985,25.981C825.819,25.761 825.505,25.717 825.285,25.884L821.698,28.602ZM851.068,32.505L822.068,28.505L821.932,29.495L850.932,33.495L851.068,32.505Z" style="fill-rule:nonzero;"/>
    <path d="M821.694,20.604C821.476,20.773 821.436,21.087 821.604,21.306L824.356,24.866C824.525,25.085 824.839,25.125 825.057,24.956C825.276,24.788 825.316,24.474 825.147,24.255L822.701,21.09L825.867,18.644C826.085,18.475 826.125,18.161 825.956,17.943C825.788,17.724 825.474,17.684 825.255,17.853L821.694,20.604ZM900.064,30.504L822.064,20.504L821.936,21.496L899.936,31.496L900.064,30.504Z" style="fill-rule:nonzero;"/>
    <path d="M821.699,12.601C821.478,12.767 821.435,13.081 821.601,13.301L824.313,16.892C824.479,17.113 824.793,17.157 825.013,16.99C825.233,16.824 825.277,16.51 825.111,16.29L822.7,13.098L825.892,10.687C826.113,10.521 826.157,10.207 825.99,9.987C825.824,9.767 825.51,9.723 825.29,9.889L821.699,12.601ZM951.069,30.505L822.069,12.505L821.931,13.495L950.931,31.495L951.069,30.505Z" style="fill-rule:nonzero;"/>
    <path d="M900.396,51.306C900.564,51.087 900.524,50.773 900.306,50.604L896.745,47.853C896.526,47.684 896.212,47.724 896.044,47.943C895.875,48.161 895.915,48.475 896.133,48.644L899.299,51.09L896.853,54.255C896.684,54.474 896.724,54.788 896.943,54.956C897.161,55.125 897.475,55.085 897.644,54.867L900.396,51.306ZM822.064,61.496L900.064,51.496L899.936,50.504L821.936,60.504L822.064,61.496Z" style="fill-rule:nonzero;"/>
    <path d="M951.399,51.301C951.565,51.081 951.522,50.767 951.301,50.601L947.71,47.889C947.49,47.723 947.176,47.767 947.01,47.987C946.843,48.207 946.887,48.521 947.108,48.687L950.3,51.098L947.889,54.29C947.723,54.51 947.767,54.824 947.987,54.99C948.207,55.157 948.521,55.113 948.687,54.893L951.399,51.301ZM822.069,69.495L951.069,51.495L950.931,50.505L821.931,68.505L822.069,69.495Z" style="fill-rule:nonzero;"/>
    <path d="M851.407,48.291C851.567,48.066 851.515,47.754 851.291,47.593L847.629,44.978C847.404,44.817 847.092,44.869 846.931,45.094C846.771,45.319 846.823,45.631 847.048,45.791L850.303,48.116L847.978,51.371C847.817,51.596 847.869,51.908 848.094,52.069C848.319,52.229 848.631,52.177 848.791,51.952L851.407,48.291ZM821.082,53.493L851.082,48.493L850.918,47.507L820.918,52.507L821.082,53.493Z" style="fill-rule:nonzero;"/>
</svg>
