<svg width="120" height="208" viewBox="0 0 120 208" fill="none" xmlns="http://www.w3.org/2000/svg">
<path d="M60 138C65.5228 138 70 133.523 70 128C70 122.477 65.5228 118 60 118C54.4772 118 50 122.477 50 128C50 133.523 54.4772 138 60 138Z" fill="#EF233C"/>
<path d="M60 59C65.5228 59 70 54.5228 70 49C70 43.4772 65.5228 39 60 39C54.4772 39 50 43.4772 50 49C50 54.5228 54.4772 59 60 59Z" fill="#023047"/>
<path d="M10 208C15.5228 208 20 203.523 20 198C20 192.477 15.5228 188 10 188C4.47715 188 0 192.477 0 198C0 203.523 4.47715 208 10 208Z" fill="#023047"/>
<path d="M110 208C115.523 208 120 203.523 120 198C120 192.477 115.523 188 110 188C104.477 188 100 192.477 100 198C100 203.523 104.477 208 110 208Z" fill="#023047"/>
<path d="M59.6464 116.354C59.8417 116.549 60.1583 116.549 60.3536 116.354L63.5355 113.172C63.7308 112.976 63.7308 112.66 63.5355 112.464C63.3403 112.269 63.0237 112.269 62.8284 112.464L60 115.293L57.1716 112.464C56.9763 112.269 56.6597 112.269 56.4645 112.464C56.2692 112.66 56.2692 112.976 56.4645 113.172L59.6464 116.354ZM59.5 59V116H60.5V59H59.5Z" fill="black"/>
<path d="M50.4851 137.879C50.4181 137.611 50.1466 137.448 49.8787 137.515L45.5131 138.606C45.2452 138.673 45.0823 138.945 45.1493 139.213C45.2163 139.481 45.4877 139.643 45.7556 139.576L49.6362 138.606L50.6063 142.487C50.6733 142.755 50.9448 142.918 51.2127 142.851C51.4806 142.784 51.6435 142.512 51.5765 142.244L50.4851 137.879ZM20.4287 188.257L50.4287 138.257L49.5713 137.743L19.5713 187.743L20.4287 188.257Z" fill="black"/>
<path d="M70.1213 137.515C69.8534 137.448 69.5819 137.611 69.5149 137.879L68.4235 142.244C68.3565 142.512 68.5194 142.784 68.7873 142.851C69.0552 142.918 69.3267 142.755 69.3937 142.487L70.3638 138.606L74.2444 139.576C74.5123 139.643 74.7837 139.481 74.8507 139.213C74.9177 138.945 74.7548 138.673 74.4869 138.606L70.1213 137.515ZM100.429 187.743L70.4287 137.743L69.5713 138.257L99.5713 188.257L100.429 187.743Z" fill="black"/>
<path d="M86.5395 54H80.1835V53.146L83.6415 49.87C84.1175 49.422 84.5001 48.9693 84.7895 48.512C85.0788 48.0453 85.2235 47.5553 85.2235 47.042V46.776C85.2235 46.1693 85.0508 45.6887 84.7055 45.334C84.3695 44.97 83.8655 44.788 83.1935 44.788C82.5401 44.788 82.0315 44.9513 81.6675 45.278C81.3128 45.5953 81.0515 46.0247 80.8835 46.566L80.1415 46.3C80.2348 46.0013 80.3608 45.7167 80.5195 45.446C80.6781 45.1753 80.8788 44.9373 81.1215 44.732C81.3735 44.5267 81.6721 44.3633 82.0175 44.242C82.3628 44.1207 82.7595 44.06 83.2075 44.06C83.6741 44.06 84.0848 44.13 84.4395 44.27C84.8035 44.4007 85.1068 44.5873 85.3495 44.83C85.6015 45.0727 85.7881 45.3667 85.9095 45.712C86.0401 46.048 86.1055 46.426 86.1055 46.846C86.1055 47.5367 85.9281 48.1667 85.5735 48.736C85.2188 49.296 84.7428 49.8513 84.1455 50.402L81.0655 53.272H86.5395V54ZM94.892 47.644C94.892 48.4 94.7847 49.1047 94.57 49.758C94.3647 50.402 94.0893 50.99 93.744 51.522C93.3987 52.054 93.0067 52.53 92.568 52.95C92.1387 53.3607 91.6953 53.7107 91.238 54H90.146C90.6873 53.6267 91.1727 53.2533 91.602 52.88C92.0313 52.5067 92.4047 52.1147 92.722 51.704C93.0393 51.284 93.3053 50.8407 93.52 50.374C93.7347 49.898 93.9027 49.3707 94.024 48.792L93.954 48.778C93.7113 49.2167 93.3893 49.5667 92.988 49.828C92.5867 50.08 92.0873 50.206 91.49 50.206C91.0513 50.206 90.65 50.136 90.286 49.996C89.9313 49.856 89.6233 49.66 89.362 49.408C89.1007 49.1467 88.9 48.834 88.76 48.47C88.62 48.0967 88.55 47.6813 88.55 47.224C88.55 46.748 88.6247 46.3187 88.774 45.936C88.9233 45.544 89.1333 45.2127 89.404 44.942C89.684 44.662 90.02 44.4473 90.412 44.298C90.804 44.1393 91.238 44.06 91.714 44.06C92.2367 44.06 92.694 44.1487 93.086 44.326C93.4873 44.494 93.8187 44.7367 94.08 45.054C94.3507 45.362 94.5513 45.74 94.682 46.188C94.822 46.6267 94.892 47.112 94.892 47.644ZM91.728 49.506C92.456 49.506 93.0207 49.3053 93.422 48.904C93.8327 48.4933 94.038 47.9473 94.038 47.266V47.028C94.038 46.3467 93.8327 45.8053 93.422 45.404C93.0207 44.9933 92.456 44.788 91.728 44.788C91 44.788 90.4307 44.9933 90.02 45.404C89.6093 45.8053 89.404 46.3467 89.404 47.028V47.266C89.404 47.9473 89.6093 48.4933 90.02 48.904C90.4307 49.3053 91 49.506 91.728 49.506Z" fill="black"/>
<path d="M82.9415 127.512C83.6321 127.512 84.1688 127.349 84.5515 127.022C84.9341 126.686 85.1255 126.252 85.1255 125.72V125.538C85.1255 124.978 84.9388 124.549 84.5655 124.25C84.2015 123.942 83.7255 123.788 83.1375 123.788C82.5588 123.788 82.0968 123.909 81.7515 124.152C81.4061 124.385 81.1308 124.698 80.9255 125.09L80.2955 124.642C80.4075 124.437 80.5475 124.241 80.7155 124.054C80.8928 123.858 81.0935 123.685 81.3175 123.536C81.5508 123.387 81.8168 123.27 82.1155 123.186C82.4235 123.102 82.7688 123.06 83.1515 123.06C83.5621 123.06 83.9401 123.116 84.2855 123.228C84.6401 123.34 84.9435 123.503 85.1955 123.718C85.4475 123.923 85.6435 124.18 85.7835 124.488C85.9328 124.787 86.0075 125.127 86.0075 125.51C86.0075 125.837 85.9561 126.131 85.8535 126.392C85.7601 126.653 85.6248 126.877 85.4475 127.064C85.2795 127.251 85.0741 127.409 84.8315 127.54C84.5981 127.661 84.3461 127.755 84.0755 127.82V127.876C84.3648 127.923 84.6401 128.011 84.9015 128.142C85.1628 128.263 85.3868 128.427 85.5735 128.632C85.7695 128.837 85.9235 129.085 86.0355 129.374C86.1475 129.663 86.2035 129.99 86.2035 130.354C86.2035 130.774 86.1288 131.161 85.9795 131.516C85.8301 131.861 85.6155 132.155 85.3355 132.398C85.0555 132.641 84.7195 132.832 84.3275 132.972C83.9355 133.103 83.4968 133.168 83.0115 133.168C82.6195 133.168 82.2648 133.126 81.9475 133.042C81.6301 132.967 81.3455 132.86 81.0935 132.72C80.8415 132.571 80.6175 132.398 80.4215 132.202C80.2255 132.006 80.0528 131.796 79.9035 131.572L80.5335 131.096C80.8041 131.516 81.1308 131.847 81.5135 132.09C81.8961 132.323 82.3955 132.44 83.0115 132.44C83.7301 132.44 84.2948 132.263 84.7055 131.908C85.1161 131.544 85.3215 131.054 85.3215 130.438V130.214C85.3215 129.598 85.1208 129.117 84.7195 128.772C84.3275 128.417 83.7535 128.24 82.9975 128.24H81.7655V127.512H82.9415ZM91.7 133.168C90.5707 133.168 89.7307 132.748 89.18 131.908C88.6387 131.059 88.368 129.794 88.368 128.114C88.368 126.434 88.6387 125.174 89.18 124.334C89.7307 123.485 90.5707 123.06 91.7 123.06C92.8293 123.06 93.6647 123.485 94.206 124.334C94.7567 125.174 95.032 126.434 95.032 128.114C95.032 129.794 94.7567 131.059 94.206 131.908C93.6647 132.748 92.8293 133.168 91.7 133.168ZM91.7 132.44C92.54 132.44 93.156 132.123 93.548 131.488C93.94 130.844 94.136 129.939 94.136 128.772V127.456C94.136 126.299 93.94 125.398 93.548 124.754C93.156 124.11 92.54 123.788 91.7 123.788C90.86 123.788 90.244 124.11 89.852 124.754C89.46 125.398 89.264 126.299 89.264 127.456V128.772C89.264 129.939 89.46 130.844 89.852 131.488C90.244 132.123 90.86 132.44 91.7 132.44ZM91.7 128.758C91.4573 128.758 91.2847 128.707 91.182 128.604C91.0793 128.501 91.028 128.375 91.028 128.226V128.002C91.028 127.853 91.0793 127.727 91.182 127.624C91.2847 127.521 91.4573 127.47 91.7 127.47C91.9427 127.47 92.1153 127.521 92.218 127.624C92.3207 127.727 92.372 127.853 92.372 128.002V128.226C92.372 128.375 92.3207 128.501 92.218 128.604C92.1153 128.707 91.9427 128.758 91.7 128.758Z" fill="black"/>
<path d="M54.1678 15.448H54.0078C53.8904 15.9493 53.6024 16.3653 53.1438 16.696C52.6958 17.0267 52.0611 17.192 51.2398 17.192C50.6318 17.192 50.0771 17.08 49.5758 16.856C49.0744 16.6213 48.6478 16.2693 48.2958 15.8C47.9438 15.3307 47.6664 14.7333 47.4638 14.008C47.2718 13.272 47.1758 12.408 47.1758 11.416C47.1758 9.42133 47.5491 7.96 48.2958 7.032C49.0424 6.104 50.0931 5.64 51.4478 5.64C52.4291 5.64 53.2131 5.85333 53.7998 6.28C54.3864 6.696 54.8451 7.272 55.1758 8.008L54.1198 8.648C53.9064 8.06133 53.5811 7.60267 53.1438 7.272C52.7064 6.94133 52.1411 6.776 51.4478 6.776C50.5198 6.776 49.8051 7.08533 49.3038 7.704C48.8024 8.312 48.5518 9.13333 48.5518 10.168V12.664C48.5518 13.6987 48.8024 14.5253 49.3038 15.144C49.8051 15.752 50.5198 16.056 51.4478 16.056C51.8104 16.056 52.1518 16.0027 52.4718 15.896C52.8024 15.7893 53.0851 15.6347 53.3198 15.432C53.5651 15.2187 53.7571 14.9627 53.8958 14.664C54.0344 14.3547 54.1038 14.008 54.1038 13.624V12.408H51.8958V11.288H55.3518V17H54.1678V15.448ZM57.639 17V15.88H60.423V6.776H60.327L57.959 8.968L57.239 8.184L59.767 5.832H61.703V15.88H64.263V17H57.639ZM69.3356 17.192C68.7276 17.192 68.205 17.0853 67.7676 16.872C67.3303 16.6587 66.9676 16.3227 66.6796 15.864C66.4023 15.3947 66.1943 14.7973 66.0556 14.072C65.917 13.336 65.8476 12.4507 65.8476 11.416C65.8476 10.3813 65.917 9.50133 66.0556 8.776C66.1943 8.04 66.4023 7.44267 66.6796 6.984C66.9676 6.51467 67.3303 6.17333 67.7676 5.96C68.205 5.74667 68.7276 5.64 69.3356 5.64C69.9436 5.64 70.4663 5.74667 70.9036 5.96C71.341 6.17333 71.6983 6.51467 71.9756 6.984C72.2636 7.44267 72.477 8.04 72.6156 8.776C72.7543 9.50133 72.8236 10.3813 72.8236 11.416C72.8236 12.4507 72.7543 13.336 72.6156 14.072C72.477 14.7973 72.2636 15.3947 71.9756 15.864C71.6983 16.3227 71.341 16.6587 70.9036 16.872C70.4663 17.0853 69.9436 17.192 69.3356 17.192ZM69.3356 16.088C70.1036 16.088 70.653 15.816 70.9836 15.272C71.3143 14.7173 71.4796 13.944 71.4796 12.952V9.88C71.4796 8.888 71.3143 8.12 70.9836 7.576C70.653 7.02133 70.1036 6.744 69.3356 6.744C68.5676 6.744 68.0183 7.02133 67.6876 7.576C67.357 8.12 67.1916 8.888 67.1916 9.88V12.952C67.1916 13.944 67.357 14.7173 67.6876 15.272C68.0183 15.816 68.5676 16.088 69.3356 16.088Z" fill="black"/>
</svg>
