<svg width="46" height="368" viewBox="0 0 46 368" fill="none" xmlns="http://www.w3.org/2000/svg">
<path d="M10 368C15.5228 368 20 363.523 20 358C20 352.477 15.5228 348 10 348C4.47715 348 0 352.477 0 358C0 363.523 4.47715 368 10 368Z" fill="#EF233C"/>
<path d="M10 168C15.5228 168 20 163.523 20 158C20 152.477 15.5228 148 10 148C4.47715 148 0 152.477 0 158C0 163.523 4.47715 168 10 168Z" fill="#FFB703"/>
<path d="M10 68C15.5228 68 20 63.5228 20 58C20 52.4772 15.5228 48 10 48C4.47715 48 0 52.4772 0 58C0 63.5228 4.47715 68 10 68Z" fill="#023047"/>
<path d="M10 268C15.5228 268 20 263.523 20 258C20 252.477 15.5228 248 10 248C4.47715 248 0 252.477 0 258C0 263.523 4.47715 268 10 268Z" fill="#2EC4B6"/>
<path d="M9.64645 148.354C9.84171 148.549 10.1583 148.549 10.3536 148.354L13.5355 145.172C13.7308 144.976 13.7308 144.66 13.5355 144.464C13.3403 144.269 13.0237 144.269 12.8284 144.464L10 147.293L7.17157 144.464C6.97631 144.269 6.65973 144.269 6.46447 144.464C6.2692 144.66 6.2692 144.976 6.46447 145.172L9.64645 148.354ZM9.5 68L9.5 148H10.5L10.5 68H9.5Z" fill="black"/>
<path d="M9.64645 148.354C9.84171 148.549 10.1583 148.549 10.3536 148.354L13.5355 145.172C13.7308 144.976 13.7308 144.66 13.5355 144.464C13.3403 144.269 13.0237 144.269 12.8284 144.464L10 147.293L7.17157 144.464C6.97631 144.269 6.65973 144.269 6.46447 144.464C6.2692 144.66 6.2692 144.976 6.46447 145.172L9.64645 148.354ZM9.5 68L9.5 148H10.5L10.5 68H9.5Z" fill="black"/>
<path d="M9.64645 348.354C9.84171 348.549 10.1583 348.549 10.3536 348.354L13.5355 345.172C13.7308 344.976 13.7308 344.66 13.5355 344.464C13.3403 344.269 13.0237 344.269 12.8284 344.464L10 347.293L7.17157 344.464C6.97631 344.269 6.65973 344.269 6.46447 344.464C6.2692 344.66 6.2692 344.976 6.46447 345.172L9.64645 348.354ZM9.5 268L9.5 348H10.5L10.5 268H9.5Z" fill="black"/>
<path d="M10.3536 167.646C10.1583 167.451 9.84171 167.451 9.64645 167.646L6.46447 170.828C6.2692 171.024 6.2692 171.34 6.46447 171.536C6.65973 171.731 6.97631 171.731 7.17157 171.536L10 168.707L12.8284 171.536C13.0237 171.731 13.3403 171.731 13.5355 171.536C13.7308 171.34 13.7308 171.024 13.5355 170.828L10.3536 167.646ZM10.5 248L10.5 168H9.5L9.5 248H10.5Z" fill="black"/>
<path d="M36.5395 63H30.1835V62.146L33.6415 58.87C34.1175 58.422 34.5001 57.9693 34.7895 57.512C35.0788 57.0453 35.2235 56.5553 35.2235 56.042V55.776C35.2235 55.1693 35.0508 54.6887 34.7055 54.334C34.3695 53.97 33.8655 53.788 33.1935 53.788C32.5401 53.788 32.0315 53.9513 31.6675 54.278C31.3128 54.5953 31.0515 55.0247 30.8835 55.566L30.1415 55.3C30.2348 55.0013 30.3608 54.7167 30.5195 54.446C30.6781 54.1753 30.8788 53.9373 31.1215 53.732C31.3735 53.5267 31.6721 53.3633 32.0175 53.242C32.3628 53.1207 32.7595 53.06 33.2075 53.06C33.6741 53.06 34.0848 53.13 34.4395 53.27C34.8035 53.4007 35.1068 53.5873 35.3495 53.83C35.6015 54.0727 35.7881 54.3667 35.9095 54.712C36.0401 55.048 36.1055 55.426 36.1055 55.846C36.1055 56.5367 35.9281 57.1667 35.5735 57.736C35.2188 58.296 34.7428 58.8513 34.1455 59.402L31.0655 62.272H36.5395V63ZM38.76 63V62.272H41.672V53.844H41.602L38.914 56.238L38.438 55.706L41.224 53.228H42.498V62.272H45.228V63H38.76Z" fill="black"/>
<path d="M36.5395 163H30.1835V162.146L33.6415 158.87C34.1175 158.422 34.5001 157.969 34.7895 157.512C35.0788 157.045 35.2235 156.555 35.2235 156.042V155.776C35.2235 155.169 35.0508 154.689 34.7055 154.334C34.3695 153.97 33.8655 153.788 33.1935 153.788C32.5401 153.788 32.0315 153.951 31.6675 154.278C31.3128 154.595 31.0515 155.025 30.8835 155.566L30.1415 155.3C30.2348 155.001 30.3608 154.717 30.5195 154.446C30.6781 154.175 30.8788 153.937 31.1215 153.732C31.3735 153.527 31.6721 153.363 32.0175 153.242C32.3628 153.121 32.7595 153.06 33.2075 153.06C33.6741 153.06 34.0848 153.13 34.4395 153.27C34.8035 153.401 35.1068 153.587 35.3495 153.83C35.6015 154.073 35.7881 154.367 35.9095 154.712C36.0401 155.048 36.1055 155.426 36.1055 155.846C36.1055 156.537 35.9281 157.167 35.5735 157.736C35.2188 158.296 34.7428 158.851 34.1455 159.402L31.0655 162.272H36.5395V163ZM44.934 163H38.578V162.146L42.036 158.87C42.512 158.422 42.8947 157.969 43.184 157.512C43.4733 157.045 43.618 156.555 43.618 156.042V155.776C43.618 155.169 43.4453 154.689 43.1 154.334C42.764 153.97 42.26 153.788 41.588 153.788C40.9347 153.788 40.426 153.951 40.062 154.278C39.7073 154.595 39.446 155.025 39.278 155.566L38.536 155.3C38.6293 155.001 38.7553 154.717 38.914 154.446C39.0727 154.175 39.2733 153.937 39.516 153.732C39.768 153.527 40.0667 153.363 40.412 153.242C40.7573 153.121 41.154 153.06 41.602 153.06C42.0687 153.06 42.4793 153.13 42.834 153.27C43.198 153.401 43.5013 153.587 43.744 153.83C43.996 154.073 44.1827 154.367 44.304 154.712C44.4347 155.048 44.5 155.426 44.5 155.846C44.5 156.537 44.3227 157.167 43.968 157.736C43.6133 158.296 43.1373 158.851 42.54 159.402L39.46 162.272H44.934V163Z" fill="black"/>
<path d="M36.5395 263H30.1835V262.146L33.6415 258.87C34.1175 258.422 34.5001 257.969 34.7895 257.512C35.0788 257.045 35.2235 256.555 35.2235 256.042V255.776C35.2235 255.169 35.0508 254.689 34.7055 254.334C34.3695 253.97 33.8655 253.788 33.1935 253.788C32.5401 253.788 32.0315 253.951 31.6675 254.278C31.3128 254.595 31.0515 255.025 30.8835 255.566L30.1415 255.3C30.2348 255.001 30.3608 254.717 30.5195 254.446C30.6781 254.175 30.8788 253.937 31.1215 253.732C31.3735 253.527 31.6721 253.363 32.0175 253.242C32.3628 253.121 32.7595 253.06 33.2075 253.06C33.6741 253.06 34.0848 253.13 34.4395 253.27C34.8035 253.401 35.1068 253.587 35.3495 253.83C35.6015 254.073 35.7881 254.367 35.9095 254.712C36.0401 255.048 36.1055 255.426 36.1055 255.846C36.1055 256.537 35.9281 257.167 35.5735 257.736C35.2188 258.296 34.7428 258.851 34.1455 259.402L31.0655 262.272H36.5395V263ZM41.336 257.512C42.0267 257.512 42.5633 257.349 42.946 257.022C43.3287 256.686 43.52 256.252 43.52 255.72V255.538C43.52 254.978 43.3333 254.549 42.96 254.25C42.596 253.942 42.12 253.788 41.532 253.788C40.9533 253.788 40.4913 253.909 40.146 254.152C39.8007 254.385 39.5253 254.698 39.32 255.09L38.69 254.642C38.802 254.437 38.942 254.241 39.11 254.054C39.2873 253.858 39.488 253.685 39.712 253.536C39.9453 253.387 40.2113 253.27 40.51 253.186C40.818 253.102 41.1633 253.06 41.546 253.06C41.9567 253.06 42.3347 253.116 42.68 253.228C43.0347 253.34 43.338 253.503 43.59 253.718C43.842 253.923 44.038 254.18 44.178 254.488C44.3273 254.787 44.402 255.127 44.402 255.51C44.402 255.837 44.3507 256.131 44.248 256.392C44.1547 256.653 44.0193 256.877 43.842 257.064C43.674 257.251 43.4687 257.409 43.226 257.54C42.9927 257.661 42.7407 257.755 42.47 257.82V257.876C42.7593 257.923 43.0347 258.011 43.296 258.142C43.5573 258.263 43.7813 258.427 43.968 258.632C44.164 258.837 44.318 259.085 44.43 259.374C44.542 259.663 44.598 259.99 44.598 260.354C44.598 260.774 44.5233 261.161 44.374 261.516C44.2247 261.861 44.01 262.155 43.73 262.398C43.45 262.641 43.114 262.832 42.722 262.972C42.33 263.103 41.8913 263.168 41.406 263.168C41.014 263.168 40.6593 263.126 40.342 263.042C40.0247 262.967 39.74 262.86 39.488 262.72C39.236 262.571 39.012 262.398 38.816 262.202C38.62 262.006 38.4473 261.796 38.298 261.572L38.928 261.096C39.1987 261.516 39.5253 261.847 39.908 262.09C40.2907 262.323 40.79 262.44 41.406 262.44C42.1247 262.44 42.6893 262.263 43.1 261.908C43.5107 261.544 43.716 261.054 43.716 260.438V260.214C43.716 259.598 43.5153 259.117 43.114 258.772C42.722 258.417 42.148 258.24 41.392 258.24H40.16V257.512H41.336Z" fill="black"/>
<path d="M36.5395 363H30.1835V362.146L33.6415 358.87C34.1175 358.422 34.5001 357.969 34.7895 357.512C35.0788 357.045 35.2235 356.555 35.2235 356.042V355.776C35.2235 355.169 35.0508 354.689 34.7055 354.334C34.3695 353.97 33.8655 353.788 33.1935 353.788C32.5401 353.788 32.0315 353.951 31.6675 354.278C31.3128 354.595 31.0515 355.025 30.8835 355.566L30.1415 355.3C30.2348 355.001 30.3608 354.717 30.5195 354.446C30.6781 354.175 30.8788 353.937 31.1215 353.732C31.3735 353.527 31.6721 353.363 32.0175 353.242C32.3628 353.121 32.7595 353.06 33.2075 353.06C33.6741 353.06 34.0848 353.13 34.4395 353.27C34.8035 353.401 35.1068 353.587 35.3495 353.83C35.6015 354.073 35.7881 354.367 35.9095 354.712C36.0401 355.048 36.1055 355.426 36.1055 355.846C36.1055 356.537 35.9281 357.167 35.5735 357.736C35.2188 358.296 34.7428 358.851 34.1455 359.402L31.0655 362.272H36.5395V363ZM42.974 363V360.956H38.046V360.214L42.596 353.228H43.772V360.27H45.298V360.956H43.772V363H42.974ZM38.802 360.27H42.974V353.942H42.932L38.802 360.27Z" fill="black"/>
<path d="M8.98806 15.448H8.82806C8.71073 15.9493 8.42273 16.3653 7.96406 16.696C7.51606 17.0267 6.8814 17.192 6.06006 17.192C5.45206 17.192 4.8974 17.08 4.39606 16.856C3.89473 16.6213 3.46806 16.2693 3.11606 15.8C2.76406 15.3307 2.48673 14.7333 2.28406 14.008C2.09206 13.272 1.99606 12.408 1.99606 11.416C1.99606 9.42133 2.3694 7.96 3.11606 7.032C3.86273 6.104 4.9134 5.64 6.26806 5.64C7.2494 5.64 8.0334 5.85333 8.62006 6.28C9.20673 6.696 9.6654 7.272 9.99606 8.008L8.94006 8.648C8.72673 8.06133 8.4014 7.60267 7.96406 7.272C7.52673 6.94133 6.9614 6.776 6.26806 6.776C5.34006 6.776 4.6254 7.08533 4.12406 7.704C3.62273 8.312 3.37206 9.13333 3.37206 10.168V12.664C3.37206 13.6987 3.62273 14.5253 4.12406 15.144C4.6254 15.752 5.34006 16.056 6.26806 16.056C6.63073 16.056 6.97206 16.0027 7.29206 15.896C7.62273 15.7893 7.9054 15.6347 8.14006 15.432C8.3854 15.2187 8.5774 14.9627 8.71606 14.664C8.85473 14.3547 8.92406 14.008 8.92406 13.624V12.408H6.71606V11.288H10.1721V17H8.98806V15.448ZM15.5153 17.192C14.3633 17.192 13.4886 16.904 12.8913 16.328C12.3046 15.752 12.0113 14.9627 12.0113 13.96C12.0113 13.1067 12.214 12.456 12.6193 12.008C13.0246 11.56 13.5313 11.2933 14.1393 11.208V11.048C13.606 10.9307 13.1686 10.648 12.8273 10.2C12.486 9.752 12.3153 9.16 12.3153 8.424C12.3153 7.48533 12.5926 6.78667 13.1473 6.328C13.7126 5.86933 14.502 5.64 15.5153 5.64C16.5286 5.64 17.3126 5.86933 17.8673 6.328C18.4326 6.78667 18.7153 7.48533 18.7153 8.424C18.7153 9.16 18.5446 9.752 18.2033 10.2C17.862 10.648 17.4246 10.9307 16.8913 11.048V11.208C17.4993 11.2933 18.006 11.56 18.4113 12.008C18.8166 12.456 19.0193 13.1067 19.0193 13.96C19.0193 14.9627 18.7206 15.752 18.1233 16.328C17.5366 16.904 16.6673 17.192 15.5153 17.192ZM15.5153 16.072C16.198 16.072 16.726 15.9013 17.0993 15.56C17.4833 15.2187 17.6753 14.7227 17.6753 14.072V13.656C17.6753 13.0053 17.4833 12.5093 17.0993 12.168C16.726 11.8267 16.198 11.656 15.5153 11.656C14.8326 11.656 14.2993 11.8267 13.9153 12.168C13.542 12.5093 13.3553 13.0053 13.3553 13.656V14.072C13.3553 14.7227 13.542 15.2187 13.9153 15.56C14.2993 15.9013 14.8326 16.072 15.5153 16.072ZM15.5153 10.584C16.774 10.584 17.4033 10.0027 17.4033 8.84V8.504C17.4033 7.34133 16.774 6.76 15.5153 6.76C14.2566 6.76 13.6273 7.34133 13.6273 8.504V8.84C13.6273 10.0027 14.2566 10.584 15.5153 10.584Z" fill="black"/>
</svg>
