<svg width="96" height="82" viewBox="0 0 96 82" fill="none" xmlns="http://www.w3.org/2000/svg">
<path d="M17 57.9711L39.5 19" stroke="black"/>
<path d="M72 68H24" stroke="black"/>
<path d="M77.5 57.9711L55 19" stroke="black"/>
<path d="M54.2132 21.2132C58.1184 17.308 58.1184 10.9763 54.2132 7.07107C50.308 3.16582 43.9763 3.16582 40.0711 7.07107C36.1658 10.9763 36.1658 17.308 40.0711 21.2132C43.9763 25.1184 50.308 25.1184 54.2132 21.2132Z" fill="#FFB703"/>
<path d="M21.2132 74.2132C25.1184 70.308 25.1184 63.9763 21.2132 60.0711C17.308 56.1658 10.9763 56.1658 7.07107 60.0711C3.16582 63.9763 3.16582 70.308 7.07107 74.2132C10.9763 78.1184 17.308 78.1184 21.2132 74.2132Z" fill="#FFB703"/>
<path d="M88.2132 74.2132C92.1184 70.308 92.1184 63.9763 88.2132 60.0711C84.308 56.1658 77.9763 56.1658 74.0711 60.0711C70.1658 63.9763 70.1658 70.308 74.0711 74.2132C77.9763 78.1184 84.308 78.1184 88.2132 74.2132Z" fill="#FFB703"/>
</svg>
