<svg width="102" height="75" viewBox="0 0 102 75" fill="none" xmlns="http://www.w3.org/2000/svg">
<path d="M83.5627 71V70.272H86.4747V61.844H86.4047L83.7167 64.238L83.2407 63.706L86.0267 61.228H87.3007V70.272H90.0307V71H83.5627Z" fill="black"/>
<path d="M21.2132 46.2132C25.1184 42.308 25.1184 35.9763 21.2132 32.0711C17.308 28.1658 10.9763 28.1658 7.07107 32.0711C3.16582 35.9763 3.16582 42.308 7.07107 46.2132C10.9763 50.1184 17.308 50.1184 21.2132 46.2132Z" fill="#023047"/>
<path d="M94.2132 46.2132C98.1184 42.308 98.1184 35.9763 94.2132 32.0711C90.308 28.1658 83.9763 28.1658 80.0711 32.0711C76.1658 35.9763 76.1658 42.308 80.0711 46.2132C83.9763 50.1184 90.308 50.1184 94.2132 46.2132Z" fill="#EF233C"/>
<path d="M74.3536 39.3536C74.5488 39.1583 74.5488 38.8417 74.3536 38.6464L71.1716 35.4645C70.9763 35.2692 70.6597 35.2692 70.4645 35.4645C70.2692 35.6597 70.2692 35.9763 70.4645 36.1716L73.2929 39L70.4645 41.8284C70.2692 42.0237 70.2692 42.3403 70.4645 42.5355C70.6597 42.7308 70.9763 42.7308 71.1716 42.5355L74.3536 39.3536ZM74 38.5L27 38.5V39.5L74 39.5V38.5Z" fill="black"/>
<path d="M11.9881 15.448H11.8281C11.7107 15.9493 11.4227 16.3653 10.9641 16.696C10.5161 17.0267 9.8814 17.192 9.06006 17.192C8.45206 17.192 7.8974 17.08 7.39606 16.856C6.89473 16.6213 6.46806 16.2693 6.11606 15.8C5.76406 15.3307 5.48673 14.7333 5.28406 14.008C5.09206 13.272 4.99606 12.408 4.99606 11.416C4.99606 9.42133 5.3694 7.96 6.11606 7.032C6.86273 6.104 7.9134 5.64 9.26806 5.64C10.2494 5.64 11.0334 5.85333 11.6201 6.28C12.2067 6.696 12.6654 7.272 12.9961 8.008L11.9401 8.648C11.7267 8.06133 11.4014 7.60267 10.9641 7.272C10.5267 6.94133 9.9614 6.776 9.26806 6.776C8.34006 6.776 7.6254 7.08533 7.12406 7.704C6.62273 8.312 6.37206 9.13333 6.37206 10.168V12.664C6.37206 13.6987 6.62273 14.5253 7.12406 15.144C7.6254 15.752 8.34006 16.056 9.26806 16.056C9.63073 16.056 9.97206 16.0027 10.2921 15.896C10.6227 15.7893 10.9054 15.6347 11.1401 15.432C11.3854 15.2187 11.5774 14.9627 11.7161 14.664C11.8547 14.3547 11.9241 14.008 11.9241 13.624V12.408H9.71606V11.288H13.1721V17H11.9881V15.448ZM18.5153 17.192C17.9073 17.192 17.3846 17.0853 16.9473 16.872C16.51 16.6587 16.1473 16.3227 15.8593 15.864C15.582 15.3947 15.374 14.7973 15.2353 14.072C15.0966 13.336 15.0273 12.4507 15.0273 11.416C15.0273 10.3813 15.0966 9.50133 15.2353 8.776C15.374 8.04 15.582 7.44267 15.8593 6.984C16.1473 6.51467 16.51 6.17333 16.9473 5.96C17.3846 5.74667 17.9073 5.64 18.5153 5.64C19.1233 5.64 19.646 5.74667 20.0833 5.96C20.5206 6.17333 20.878 6.51467 21.1553 6.984C21.4433 7.44267 21.6566 8.04 21.7953 8.776C21.934 9.50133 22.0033 10.3813 22.0033 11.416C22.0033 12.4507 21.934 13.336 21.7953 14.072C21.6566 14.7973 21.4433 15.3947 21.1553 15.864C20.878 16.3227 20.5206 16.6587 20.0833 16.872C19.646 17.0853 19.1233 17.192 18.5153 17.192ZM18.5153 16.088C19.2833 16.088 19.8326 15.816 20.1633 15.272C20.494 14.7173 20.6593 13.944 20.6593 12.952V9.88C20.6593 8.888 20.494 8.12 20.1633 7.576C19.8326 7.02133 19.2833 6.744 18.5153 6.744C17.7473 6.744 17.198 7.02133 16.8673 7.576C16.5366 8.12 16.3713 8.888 16.3713 9.88V12.952C16.3713 13.944 16.5366 14.7173 16.8673 15.272C17.198 15.816 17.7473 16.088 18.5153 16.088Z" fill="black"/>
</svg>
