<svg width="160" height="75" viewBox="0 0 160 75" fill="none" xmlns="http://www.w3.org/2000/svg">
<path d="M12.2747 71L11.3507 68.018H7.65473L6.71673 71H5.84873L8.95673 61.228H10.0627L13.1567 71H12.2747ZM9.54473 62.124H9.44673L7.85073 67.29H11.1407L9.54473 62.124Z" fill="black"/>
<path d="M76.5907 61.228H79.8247C80.6181 61.228 81.2387 61.4473 81.6867 61.886C82.1347 62.3247 82.3587 62.9407 82.3587 63.734C82.3587 64.3407 82.2281 64.8213 81.9667 65.176C81.7054 65.5213 81.3507 65.764 80.9027 65.904V65.932C81.4721 66.0533 81.9201 66.31 82.2467 66.702C82.5827 67.0847 82.7507 67.612 82.7507 68.284C82.7507 68.676 82.6901 69.04 82.5687 69.376C82.4474 69.7027 82.2747 69.9873 82.0507 70.23C81.8267 70.4727 81.5561 70.664 81.2387 70.804C80.9307 70.9347 80.5854 71 80.2027 71H76.5907V61.228ZM79.9927 70.272C80.6087 70.272 81.0754 70.118 81.3927 69.81C81.7101 69.502 81.8687 69.096 81.8687 68.592V68.018C81.8687 67.514 81.7101 67.108 81.3927 66.8C81.0754 66.492 80.6087 66.338 79.9927 66.338H77.4307V70.272H79.9927ZM79.7547 65.638C80.3147 65.638 80.7394 65.498 81.0287 65.218C81.3274 64.938 81.4767 64.56 81.4767 64.084V63.524C81.4767 63.048 81.3274 62.67 81.0287 62.39C80.7394 62.1007 80.3147 61.956 79.7547 61.956H77.4307V65.638H79.7547Z" fill="black"/>
<path d="M149.839 71.168C147.505 71.168 146.339 69.4833 146.339 66.114C146.339 62.7447 147.505 61.06 149.839 61.06C150.24 61.06 150.595 61.116 150.903 61.228C151.211 61.34 151.481 61.4893 151.715 61.676C151.948 61.8627 152.144 62.082 152.303 62.334C152.471 62.586 152.611 62.852 152.723 63.132L152.009 63.454C151.915 63.2207 151.803 63.0013 151.673 62.796C151.551 62.5907 151.402 62.4133 151.225 62.264C151.057 62.1147 150.856 61.998 150.623 61.914C150.399 61.83 150.137 61.788 149.839 61.788C148.961 61.788 148.308 62.11 147.879 62.754C147.449 63.3887 147.235 64.2893 147.235 65.456V66.772C147.235 67.9387 147.449 68.844 147.879 69.488C148.308 70.1227 148.961 70.44 149.839 70.44C150.137 70.44 150.399 70.398 150.623 70.314C150.856 70.23 151.057 70.1133 151.225 69.964C151.402 69.8147 151.551 69.642 151.673 69.446C151.803 69.2407 151.915 69.0167 152.009 68.774L152.723 69.096C152.611 69.376 152.471 69.642 152.303 69.894C152.144 70.146 151.948 70.3653 151.715 70.552C151.481 70.7387 151.211 70.888 150.903 71C150.595 71.112 150.24 71.168 149.839 71.168Z" fill="black"/>
<path d="M10.1421 49.1421C15.6649 49.1421 20.1421 44.665 20.1421 39.1421C20.1421 33.6193 15.6649 29.1421 10.1421 29.1421C4.61924 29.1421 0.14209 33.6193 0.14209 39.1421C0.14209 44.665 4.61924 49.1421 10.1421 49.1421Z" fill="#EF233C"/>
<path d="M80 49C85.5228 49 90 44.5228 90 39C90 33.4772 85.5228 29 80 29C74.4772 29 70 33.4772 70 39C70 44.5228 74.4772 49 80 49Z" fill="#FFB703"/>
<path d="M70 39L20 39" stroke="black"/>
<path d="M150 49C155.523 49 160 44.5228 160 39C160 33.4772 155.523 29 150 29C144.477 29 140 33.4772 140 39C140 44.5228 144.477 49 150 49Z" fill="#EF233C"/>
<path d="M140 39L90 39" stroke="black"/>
<path d="M7.98806 15.448H7.82806C7.71073 15.9493 7.42273 16.3653 6.96406 16.696C6.51606 17.0267 5.8814 17.192 5.06006 17.192C4.45206 17.192 3.8974 17.08 3.39606 16.856C2.89473 16.6213 2.46806 16.2693 2.11606 15.8C1.76406 15.3307 1.48673 14.7333 1.28406 14.008C1.09206 13.272 0.996063 12.408 0.996063 11.416C0.996063 9.42133 1.3694 7.96 2.11606 7.032C2.86273 6.104 3.9134 5.64 5.26806 5.64C6.2494 5.64 7.0334 5.85333 7.62006 6.28C8.20673 6.696 8.6654 7.272 8.99606 8.008L7.94006 8.648C7.72673 8.06133 7.4014 7.60267 6.96406 7.272C6.52673 6.94133 5.9614 6.776 5.26806 6.776C4.34006 6.776 3.6254 7.08533 3.12406 7.704C2.62273 8.312 2.37206 9.13333 2.37206 10.168V12.664C2.37206 13.6987 2.62273 14.5253 3.12406 15.144C3.6254 15.752 4.34006 16.056 5.26806 16.056C5.63073 16.056 5.97206 16.0027 6.29206 15.896C6.62273 15.7893 6.9054 15.6347 7.14006 15.432C7.3854 15.2187 7.5774 14.9627 7.71606 14.664C7.85473 14.3547 7.92406 14.008 7.92406 13.624V12.408H5.71606V11.288H9.17206V17H7.98806V15.448ZM11.4593 17V15.88H14.2433V6.776H14.1473L11.7793 8.968L11.0593 8.184L13.5873 5.832H15.5233V15.88H18.0833V17H11.4593Z" fill="black"/>
</svg>
