<svg width="50" height="370" viewBox="0 0 50 370" fill="none" xmlns="http://www.w3.org/2000/svg">
<path d="M12 69C17.5228 69 22 64.5228 22 59C22 53.4772 17.5228 49 12 49C6.47715 49 2 53.4772 2 59C2 64.5228 6.47715 69 12 69Z" fill="white" stroke="black"/>
<path d="M12 169C17.5228 169 22 164.523 22 159C22 153.477 17.5228 149 12 149C6.47715 149 2 153.477 2 159C2 164.523 6.47715 169 12 169Z" fill="#B56576" stroke="black"/>
<path d="M12 269C17.5228 269 22 264.523 22 259C22 253.477 17.5228 249 12 249C6.47715 249 2 253.477 2 259C2 264.523 6.47715 269 12 269Z" fill="#355070" stroke="black"/>
<path d="M12 369C17.5228 369 22 364.523 22 359C22 353.477 17.5228 349 12 349C6.47715 349 2 353.477 2 359C2 364.523 6.47715 369 12 369Z" fill="#999999" stroke="black"/>
<path d="M10.9393 150.061C11.5251 150.646 12.4749 150.646 13.0607 150.061L22.6066 140.515C23.1924 139.929 23.1924 138.979 22.6066 138.393C22.0208 137.808 21.0711 137.808 20.4853 138.393L12 146.879L3.51472 138.393C2.92893 137.808 1.97918 137.808 1.3934 138.393C0.807612 138.979 0.807612 139.929 1.3934 140.515L10.9393 150.061ZM10.5 69L10.5 149H13.5L13.5 69H10.5Z" fill="black"/>
<path d="M10.9393 350.061C11.5251 350.646 12.4749 350.646 13.0607 350.061L22.6066 340.515C23.1924 339.929 23.1924 338.979 22.6066 338.393C22.0208 337.808 21.0711 337.808 20.4853 338.393L12 346.879L3.51472 338.393C2.92893 337.808 1.97918 337.808 1.3934 338.393C0.807612 338.979 0.807612 339.929 1.3934 340.515L10.9393 350.061ZM10.5 269L10.5 349H13.5L13.5 269H10.5Z" fill="black"/>
<path d="M13.0607 167.939C12.4749 167.354 11.5251 167.354 10.9393 167.939L1.3934 177.485C0.807612 178.071 0.807612 179.021 1.3934 179.607C1.97918 180.192 2.92893 180.192 3.51472 179.607L12 171.121L20.4853 179.607C21.0711 180.192 22.0208 180.192 22.6066 179.607C23.1924 179.021 23.1924 178.071 22.6066 177.485L13.0607 167.939ZM13.5 249L13.5 169H10.5L10.5 249H13.5Z" fill="black"/>
<path d="M30.164 58.242H32.612C32.612 57.906 32.642 57.57 32.702 57.234C32.774 56.886 32.888 56.574 33.044 56.298C33.2 56.01 33.404 55.782 33.656 55.614C33.92 55.434 34.238 55.344 34.61 55.344C35.162 55.344 35.612 55.518 35.96 55.866C36.32 56.202 36.5 56.676 36.5 57.288C36.5 57.672 36.41 58.014 36.23 58.314C36.062 58.614 35.846 58.884 35.582 59.124C35.33 59.364 35.048 59.586 34.736 59.79C34.424 59.982 34.13 60.174 33.854 60.366C33.314 60.738 32.798 61.104 32.306 61.464C31.826 61.824 31.406 62.22 31.046 62.652C30.686 63.072 30.398 63.552 30.182 64.092C29.978 64.632 29.876 65.268 29.876 66H39.128V63.804H33.17C33.482 63.372 33.842 62.994 34.25 62.67C34.658 62.346 35.078 62.046 35.51 61.77C35.942 61.482 36.368 61.194 36.788 60.906C37.22 60.618 37.604 60.3 37.94 59.952C38.276 59.592 38.546 59.184 38.75 58.728C38.954 58.272 39.056 57.726 39.056 57.09C39.056 56.478 38.936 55.926 38.696 55.434C38.468 54.942 38.156 54.528 37.76 54.192C37.364 53.856 36.902 53.598 36.374 53.418C35.858 53.238 35.312 53.148 34.736 53.148C33.98 53.148 33.308 53.28 32.72 53.544C32.144 53.796 31.664 54.156 31.28 54.624C30.896 55.08 30.608 55.62 30.416 56.244C30.224 56.856 30.14 57.522 30.164 58.242ZM46.556 66V53.4H44.522C44.45 53.88 44.3 54.282 44.072 54.606C43.844 54.93 43.562 55.194 43.226 55.398C42.902 55.59 42.53 55.728 42.11 55.812C41.702 55.884 41.276 55.914 40.832 55.902V57.828H44V66H46.556Z" fill="black"/>
<path d="M30.164 158.242H32.612C32.612 157.906 32.642 157.57 32.702 157.234C32.774 156.886 32.888 156.574 33.044 156.298C33.2 156.01 33.404 155.782 33.656 155.614C33.92 155.434 34.238 155.344 34.61 155.344C35.162 155.344 35.612 155.518 35.96 155.866C36.32 156.202 36.5 156.676 36.5 157.288C36.5 157.672 36.41 158.014 36.23 158.314C36.062 158.614 35.846 158.884 35.582 159.124C35.33 159.364 35.048 159.586 34.736 159.79C34.424 159.982 34.13 160.174 33.854 160.366C33.314 160.738 32.798 161.104 32.306 161.464C31.826 161.824 31.406 162.22 31.046 162.652C30.686 163.072 30.398 163.552 30.182 164.092C29.978 164.632 29.876 165.268 29.876 166H39.128V163.804H33.17C33.482 163.372 33.842 162.994 34.25 162.67C34.658 162.346 35.078 162.046 35.51 161.77C35.942 161.482 36.368 161.194 36.788 160.906C37.22 160.618 37.604 160.3 37.94 159.952C38.276 159.592 38.546 159.184 38.75 158.728C38.954 158.272 39.056 157.726 39.056 157.09C39.056 156.478 38.936 155.926 38.696 155.434C38.468 154.942 38.156 154.528 37.76 154.192C37.364 153.856 36.902 153.598 36.374 153.418C35.858 153.238 35.312 153.148 34.736 153.148C33.98 153.148 33.308 153.28 32.72 153.544C32.144 153.796 31.664 154.156 31.28 154.624C30.896 155.08 30.608 155.62 30.416 156.244C30.224 156.856 30.14 157.522 30.164 158.242ZM40.166 158.242H42.614C42.614 157.906 42.644 157.57 42.704 157.234C42.776 156.886 42.89 156.574 43.046 156.298C43.202 156.01 43.406 155.782 43.658 155.614C43.922 155.434 44.24 155.344 44.612 155.344C45.164 155.344 45.614 155.518 45.962 155.866C46.322 156.202 46.502 156.676 46.502 157.288C46.502 157.672 46.412 158.014 46.232 158.314C46.064 158.614 45.848 158.884 45.584 159.124C45.332 159.364 45.05 159.586 44.738 159.79C44.426 159.982 44.132 160.174 43.856 160.366C43.316 160.738 42.8 161.104 42.308 161.464C41.828 161.824 41.408 162.22 41.048 162.652C40.688 163.072 40.4 163.552 40.184 164.092C39.98 164.632 39.878 165.268 39.878 166H49.13V163.804H43.172C43.484 163.372 43.844 162.994 44.252 162.67C44.66 162.346 45.08 162.046 45.512 161.77C45.944 161.482 46.37 161.194 46.79 160.906C47.222 160.618 47.606 160.3 47.942 159.952C48.278 159.592 48.548 159.184 48.752 158.728C48.956 158.272 49.058 157.726 49.058 157.09C49.058 156.478 48.938 155.926 48.698 155.434C48.47 154.942 48.158 154.528 47.762 154.192C47.366 153.856 46.904 153.598 46.376 153.418C45.86 153.238 45.314 153.148 44.738 153.148C43.982 153.148 43.31 153.28 42.722 153.544C42.146 153.796 41.666 154.156 41.282 154.624C40.898 155.08 40.61 155.62 40.418 156.244C40.226 156.856 40.142 157.522 40.166 158.242Z" fill="black"/>
<path d="M30.164 258.242H32.612C32.612 257.906 32.642 257.57 32.702 257.234C32.774 256.886 32.888 256.574 33.044 256.298C33.2 256.01 33.404 255.782 33.656 255.614C33.92 255.434 34.238 255.344 34.61 255.344C35.162 255.344 35.612 255.518 35.96 255.866C36.32 256.202 36.5 256.676 36.5 257.288C36.5 257.672 36.41 258.014 36.23 258.314C36.062 258.614 35.846 258.884 35.582 259.124C35.33 259.364 35.048 259.586 34.736 259.79C34.424 259.982 34.13 260.174 33.854 260.366C33.314 260.738 32.798 261.104 32.306 261.464C31.826 261.824 31.406 262.22 31.046 262.652C30.686 263.072 30.398 263.552 30.182 264.092C29.978 264.632 29.876 265.268 29.876 266H39.128V263.804H33.17C33.482 263.372 33.842 262.994 34.25 262.67C34.658 262.346 35.078 262.046 35.51 261.77C35.942 261.482 36.368 261.194 36.788 260.906C37.22 260.618 37.604 260.3 37.94 259.952C38.276 259.592 38.546 259.184 38.75 258.728C38.954 258.272 39.056 257.726 39.056 257.09C39.056 256.478 38.936 255.926 38.696 255.434C38.468 254.942 38.156 254.528 37.76 254.192C37.364 253.856 36.902 253.598 36.374 253.418C35.858 253.238 35.312 253.148 34.736 253.148C33.98 253.148 33.308 253.28 32.72 253.544C32.144 253.796 31.664 254.156 31.28 254.624C30.896 255.08 30.608 255.62 30.416 256.244C30.224 256.856 30.14 257.522 30.164 258.242ZM43.604 258.494V260.294C43.916 260.294 44.24 260.306 44.576 260.33C44.924 260.342 45.242 260.408 45.53 260.528C45.818 260.636 46.052 260.816 46.232 261.068C46.424 261.32 46.52 261.686 46.52 262.166C46.52 262.778 46.322 263.264 45.926 263.624C45.53 263.972 45.044 264.146 44.468 264.146C44.096 264.146 43.772 264.08 43.496 263.948C43.232 263.816 43.01 263.642 42.83 263.426C42.65 263.198 42.512 262.934 42.416 262.634C42.32 262.322 42.266 261.998 42.254 261.662H39.824C39.812 262.394 39.914 263.042 40.13 263.606C40.358 264.17 40.676 264.65 41.084 265.046C41.492 265.43 41.984 265.724 42.56 265.928C43.148 266.132 43.796 266.234 44.504 266.234C45.116 266.234 45.704 266.144 46.268 265.964C46.832 265.784 47.33 265.52 47.762 265.172C48.194 264.824 48.536 264.392 48.788 263.876C49.052 263.36 49.184 262.772 49.184 262.112C49.184 261.392 48.986 260.774 48.59 260.258C48.194 259.742 47.648 259.406 46.952 259.25V259.214C47.54 259.046 47.978 258.728 48.266 258.26C48.566 257.792 48.716 257.252 48.716 256.64C48.716 256.076 48.59 255.578 48.338 255.146C48.086 254.714 47.756 254.348 47.348 254.048C46.952 253.748 46.502 253.526 45.998 253.382C45.494 253.226 44.99 253.148 44.486 253.148C43.838 253.148 43.25 253.256 42.722 253.472C42.194 253.676 41.738 253.97 41.354 254.354C40.982 254.738 40.688 255.2 40.472 255.74C40.268 256.268 40.154 256.856 40.13 257.504H42.56C42.548 256.856 42.704 256.322 43.028 255.902C43.364 255.47 43.856 255.254 44.504 255.254C44.972 255.254 45.386 255.398 45.746 255.686C46.106 255.974 46.286 256.388 46.286 256.928C46.286 257.288 46.196 257.576 46.016 257.792C45.848 258.008 45.626 258.176 45.35 258.296C45.086 258.404 44.798 258.47 44.486 258.494C44.174 258.518 43.88 258.518 43.604 258.494Z" fill="black"/>
<path d="M30.164 358.242H32.612C32.612 357.906 32.642 357.57 32.702 357.234C32.774 356.886 32.888 356.574 33.044 356.298C33.2 356.01 33.404 355.782 33.656 355.614C33.92 355.434 34.238 355.344 34.61 355.344C35.162 355.344 35.612 355.518 35.96 355.866C36.32 356.202 36.5 356.676 36.5 357.288C36.5 357.672 36.41 358.014 36.23 358.314C36.062 358.614 35.846 358.884 35.582 359.124C35.33 359.364 35.048 359.586 34.736 359.79C34.424 359.982 34.13 360.174 33.854 360.366C33.314 360.738 32.798 361.104 32.306 361.464C31.826 361.824 31.406 362.22 31.046 362.652C30.686 363.072 30.398 363.552 30.182 364.092C29.978 364.632 29.876 365.268 29.876 366H39.128V363.804H33.17C33.482 363.372 33.842 362.994 34.25 362.67C34.658 362.346 35.078 362.046 35.51 361.77C35.942 361.482 36.368 361.194 36.788 360.906C37.22 360.618 37.604 360.3 37.94 359.952C38.276 359.592 38.546 359.184 38.75 358.728C38.954 358.272 39.056 357.726 39.056 357.09C39.056 356.478 38.936 355.926 38.696 355.434C38.468 354.942 38.156 354.528 37.76 354.192C37.364 353.856 36.902 353.598 36.374 353.418C35.858 353.238 35.312 353.148 34.736 353.148C33.98 353.148 33.308 353.28 32.72 353.544C32.144 353.796 31.664 354.156 31.28 354.624C30.896 355.08 30.608 355.62 30.416 356.244C30.224 356.856 30.14 357.522 30.164 358.242ZM45.116 356.604V360.978H41.804L45.062 356.604H45.116ZM45.116 363.084V366H47.546V363.084H49.22V360.978H47.546V353.4H45.26L39.788 360.744V363.084H45.116Z" fill="black"/>
<path d="M10.6999 16.542L10.9879 18H12.7879V11.052H7.38792V13.158H10.2319C10.1479 14.058 9.84792 14.748 9.33192 15.228C8.82792 15.696 8.10792 15.93 7.17192 15.93C6.53592 15.93 5.99592 15.81 5.55192 15.57C5.10792 15.318 4.74792 14.988 4.47192 14.58C4.19592 14.172 3.99192 13.716 3.85992 13.212C3.73992 12.696 3.67992 12.168 3.67992 11.628C3.67992 11.064 3.73992 10.518 3.85992 9.99C3.99192 9.462 4.19592 8.994 4.47192 8.586C4.74792 8.166 5.10792 7.836 5.55192 7.596C5.99592 7.344 6.53592 7.218 7.17192 7.218C7.85592 7.218 8.43792 7.398 8.91792 7.758C9.39792 8.118 9.72192 8.658 9.88992 9.378H12.5899C12.5179 8.646 12.3199 7.998 11.9959 7.434C11.6719 6.87 11.2579 6.396 10.7539 6.012C10.2619 5.628 9.70392 5.34 9.07992 5.148C8.46792 4.944 7.83192 4.842 7.17192 4.842C6.18792 4.842 5.29992 5.016 4.50792 5.364C3.72792 5.712 3.06792 6.192 2.52792 6.804C1.98792 7.416 1.57392 8.136 1.28592 8.964C0.997922 9.78 0.853922 10.668 0.853922 11.628C0.853922 12.564 0.997922 13.44 1.28592 14.256C1.57392 15.06 1.98792 15.762 2.52792 16.362C3.06792 16.962 3.72792 17.436 4.50792 17.784C5.29992 18.12 6.18792 18.288 7.17192 18.288C7.79592 18.288 8.41392 18.162 9.02592 17.91C9.63792 17.646 10.1959 17.19 10.6999 16.542ZM16.9241 8.82C16.9241 8.532 16.9721 8.28 17.0681 8.064C17.1761 7.848 17.3201 7.668 17.5001 7.524C17.6801 7.38 17.8841 7.272 18.1121 7.2C18.3521 7.116 18.5981 7.074 18.8501 7.074C19.2461 7.074 19.5641 7.134 19.8041 7.254C20.0561 7.374 20.2481 7.524 20.3801 7.704C20.5241 7.884 20.6201 8.076 20.6681 8.28C20.7161 8.472 20.7401 8.652 20.7401 8.82C20.7401 9.36 20.5601 9.774 20.2001 10.062C19.8401 10.338 19.3901 10.476 18.8501 10.476C18.3341 10.476 17.8841 10.338 17.5001 10.062C17.1161 9.774 16.9241 9.36 16.9241 8.82ZM14.6021 8.586C14.6021 9.21 14.7581 9.756 15.0701 10.224C15.3821 10.692 15.8441 11.01 16.4561 11.178V11.214C15.7001 11.394 15.1121 11.754 14.6921 12.294C14.2841 12.834 14.0801 13.506 14.0801 14.31C14.0801 14.994 14.2121 15.582 14.4761 16.074C14.7521 16.566 15.1121 16.974 15.5561 17.298C16.0121 17.622 16.5221 17.856 17.0861 18C17.6621 18.156 18.2561 18.234 18.8681 18.234C19.4561 18.234 20.0321 18.156 20.5961 18C21.1601 17.832 21.6641 17.586 22.1081 17.262C22.5521 16.938 22.9061 16.53 23.1701 16.038C23.4461 15.546 23.5841 14.964 23.5841 14.292C23.5841 13.5 23.3801 12.834 22.9721 12.294C22.5641 11.742 21.9821 11.382 21.2261 11.214V11.178C21.8381 10.974 22.2941 10.638 22.5941 10.17C22.9061 9.702 23.0621 9.156 23.0621 8.532C23.0621 8.22 22.9901 7.872 22.8461 7.488C22.7021 7.092 22.4621 6.726 22.1261 6.39C21.8021 6.042 21.3701 5.748 20.8301 5.508C20.2901 5.268 19.6301 5.148 18.8501 5.148C18.3341 5.148 17.8241 5.22 17.3201 5.364C16.8161 5.508 16.3601 5.724 15.9521 6.012C15.5561 6.3 15.2321 6.66 14.9801 7.092C14.7281 7.524 14.6021 8.022 14.6021 8.586ZM16.6361 14.184C16.6361 13.536 16.8521 13.044 17.2841 12.708C17.7161 12.36 18.2441 12.186 18.8681 12.186C19.1681 12.186 19.4441 12.234 19.6961 12.33C19.9601 12.426 20.1881 12.564 20.3801 12.744C20.5841 12.924 20.7401 13.14 20.8481 13.392C20.9681 13.632 21.0281 13.902 21.0281 14.202C21.0281 14.514 20.9741 14.802 20.8661 15.066C20.7581 15.33 20.6021 15.558 20.3981 15.75C20.2061 15.93 19.9781 16.074 19.7141 16.182C19.4621 16.278 19.1801 16.326 18.8681 16.326C18.5681 16.326 18.2801 16.278 18.0041 16.182C17.7281 16.074 17.4881 15.93 17.2841 15.75C17.0921 15.558 16.9361 15.33 16.8161 15.066C16.6961 14.802 16.6361 14.508 16.6361 14.184Z" fill="black"/>
</svg>
