<?xml version="1.0" encoding="UTF-8" standalone="no"?>
<!DOCTYPE svg PUBLIC "-//W3C//DTD SVG 1.1//EN" "http://www.w3.org/Graphics/SVG/1.1/DTD/svg11.dtd">
<svg width="100%" height="100%" viewBox="0 0 290 321" version="1.1" xmlns="http://www.w3.org/2000/svg" xmlns:xlink="http://www.w3.org/1999/xlink" xml:space="preserve" xmlns:serif="http://www.serif.com/" style="fill-rule:evenodd;clip-rule:evenodd;">
    <circle cx="12.5" cy="12.5" r="12.5" style="fill:rgb(53,80,112);"/>
    <circle cx="65.5" cy="12.5" r="12.5" style="fill:rgb(109,89,122);"/>
    <circle cx="65.5" cy="12.5" r="12.5" style="fill:rgb(109,89,122);"/>
    <circle cx="224.5" cy="12.5" r="12.5" style="fill:rgb(1,142,173);"/>
    <circle cx="171.5" cy="12.5" r="12.5" style="fill:rgb(88,139,139);"/>
    <circle cx="118.5" cy="12.5" r="12.5" style="fill:rgb(181,101,118);"/>
    <path d="M11.521,12.46L12.973,8.464L12.997,8.464L14.425,12.46L11.521,12.46ZM12.373,7.432L9.037,16L10.201,16L11.161,13.42L14.785,13.42L15.721,16L16.981,16L13.633,7.432L12.373,7.432Z" style="fill-rule:nonzero;"/>
    <path d="M169.851,15.04L169.851,8.392L171.771,8.392C172.299,8.392 172.743,8.468 173.103,8.62C173.463,8.764 173.755,8.98 173.979,9.268C174.211,9.548 174.375,9.892 174.471,10.3C174.575,10.7 174.627,11.156 174.627,11.668C174.627,12.196 174.571,12.648 174.459,13.024C174.355,13.392 174.219,13.7 174.051,13.948C173.883,14.196 173.691,14.392 173.475,14.536C173.267,14.68 173.055,14.792 172.839,14.872C172.623,14.944 172.419,14.992 172.227,15.016C172.035,15.032 171.875,15.04 171.747,15.04L169.851,15.04ZM168.711,7.432L168.711,16L171.651,16C172.363,16 172.979,15.9 173.499,15.7C174.019,15.5 174.447,15.212 174.783,14.836C175.119,14.452 175.367,13.984 175.527,13.432C175.687,12.872 175.767,12.232 175.767,11.512C175.767,10.136 175.411,9.112 174.699,8.44C173.987,7.768 172.971,7.432 171.651,7.432L168.711,7.432Z" style="fill-rule:nonzero;"/>
    <path d="M63.969,11.116L63.969,8.392L66.249,8.392C66.497,8.392 66.729,8.408 66.945,8.44C67.169,8.464 67.365,8.524 67.533,8.62C67.701,8.716 67.833,8.852 67.929,9.028C68.025,9.204 68.073,9.444 68.073,9.748C68.073,10.204 67.929,10.548 67.641,10.78C67.361,11.004 66.897,11.116 66.249,11.116L63.969,11.116ZM62.829,7.432L62.829,16L66.969,16C67.393,16 67.765,15.932 68.085,15.796C68.413,15.652 68.685,15.468 68.901,15.244C69.125,15.012 69.293,14.748 69.405,14.452C69.517,14.156 69.573,13.852 69.573,13.54C69.573,13.012 69.433,12.564 69.153,12.196C68.873,11.828 68.469,11.588 67.941,11.476L67.941,11.452C68.349,11.292 68.661,11.048 68.877,10.72C69.101,10.384 69.213,9.988 69.213,9.532C69.213,9.1 69.113,8.736 68.913,8.44C68.721,8.144 68.485,7.912 68.205,7.744C68.077,7.664 67.921,7.604 67.737,7.564C67.561,7.524 67.369,7.496 67.161,7.48C66.953,7.456 66.741,7.444 66.525,7.444C66.317,7.436 66.121,7.432 65.937,7.432L62.829,7.432ZM63.969,15.04L63.969,12.076L66.573,12.076C66.813,12.076 67.045,12.1 67.269,12.148C67.493,12.188 67.689,12.264 67.857,12.376C68.033,12.48 68.173,12.624 68.277,12.808C68.381,12.992 68.433,13.224 68.433,13.504C68.433,13.984 68.289,14.36 68.001,14.632C67.721,14.904 67.329,15.04 66.825,15.04L63.969,15.04Z" style="fill-rule:nonzero;"/>
    <path d="M121.63,10.012L122.77,10.012C122.706,9.556 122.57,9.156 122.362,8.812C122.154,8.46 121.894,8.168 121.582,7.936C121.27,7.704 120.914,7.528 120.514,7.408C120.114,7.288 119.69,7.228 119.242,7.228C118.586,7.228 118.002,7.348 117.49,7.588C116.986,7.82 116.562,8.14 116.218,8.548C115.882,8.956 115.626,9.436 115.45,9.988C115.274,10.532 115.186,11.116 115.186,11.74C115.186,12.364 115.266,12.948 115.426,13.492C115.594,14.036 115.842,14.508 116.17,14.908C116.498,15.308 116.91,15.624 117.406,15.856C117.902,16.08 118.482,16.192 119.146,16.192C120.242,16.192 121.106,15.892 121.738,15.292C122.37,14.692 122.742,13.852 122.854,12.772L121.714,12.772C121.69,13.124 121.618,13.452 121.498,13.756C121.378,14.06 121.21,14.324 120.994,14.548C120.786,14.764 120.534,14.936 120.238,15.064C119.95,15.184 119.618,15.244 119.242,15.244C118.73,15.244 118.29,15.148 117.922,14.956C117.554,14.764 117.25,14.508 117.01,14.188C116.778,13.86 116.606,13.48 116.494,13.048C116.382,12.608 116.326,12.144 116.326,11.656C116.326,11.208 116.382,10.776 116.494,10.36C116.606,9.944 116.778,9.576 117.01,9.256C117.25,8.928 117.55,8.668 117.91,8.476C118.278,8.284 118.718,8.188 119.23,8.188C119.83,8.188 120.346,8.34 120.778,8.644C121.218,8.948 121.502,9.404 121.63,10.012Z" style="fill-rule:nonzero;"/>
    <path d="M222.268,7.432L222.268,16L228.22,16L228.22,15.04L223.408,15.04L223.408,12.076L227.86,12.076L227.86,11.116L223.408,11.116L223.408,8.392L228.184,8.392L228.184,7.432L222.268,7.432Z" style="fill-rule:nonzero;"/>
    <circle cx="277.5" cy="12.5" r="12.5" style="fill:rgb(141,216,193);"/>
    <path d="M274.491,7.432L274.491,16L275.631,16L275.631,12.076L279.567,12.076L279.567,11.116L275.631,11.116L275.631,8.392L280.119,8.392L280.119,7.432L274.491,7.432Z" style="fill-rule:nonzero;"/>
    <path d="M131,85C131,77.273 124.727,71 117,71L67,71C59.273,71 53,77.273 53,85C53,92.727 59.273,99 67,99L117,99C124.727,99 131,92.727 131,85Z" style="fill:rgb(196,196,196);"/>
    <path d="M237,85C237,77.273 230.727,71 223,71L173,71C165.273,71 159,77.273 159,85C159,92.727 165.273,99 173,99L223,99C230.727,99 237,92.727 237,85Z" style="fill:rgb(196,196,196);"/>
    <path d="M237,159C237,151.273 230.727,145 223,145L173,145C165.273,145 159,151.273 159,159C159,166.727 165.273,173 173,173L223,173C230.727,173 237,166.727 237,159Z" style="fill:rgb(196,196,196);"/>
    <path d="M131,233C131,225.273 124.727,219 117,219L67,219C59.273,219 53,225.273 53,233C53,240.727 59.273,247 67,247L117,247C124.727,247 131,240.727 131,233Z" style="fill:rgb(196,196,196);"/>
    <path d="M131,307C131,299.273 124.727,293 117,293L14,293C6.273,293 0,299.273 0,307C0,314.727 6.273,321 14,321L117,321C124.727,321 131,314.727 131,307Z" style="fill:rgb(196,196,196);"/>
    <path d="M85.138,84.116L85.138,81.392L87.418,81.392C87.667,81.392 87.899,81.408 88.115,81.44C88.339,81.464 88.534,81.524 88.703,81.62C88.871,81.716 89.003,81.852 89.099,82.028C89.195,82.204 89.243,82.444 89.243,82.748C89.243,83.204 89.099,83.548 88.811,83.78C88.531,84.004 88.067,84.116 87.418,84.116L85.138,84.116ZM83.999,80.432L83.999,89L88.138,89C88.563,89 88.935,88.932 89.254,88.796C89.583,88.652 89.855,88.468 90.071,88.244C90.295,88.012 90.463,87.748 90.575,87.452C90.687,87.156 90.743,86.852 90.743,86.54C90.743,86.012 90.603,85.564 90.323,85.196C90.043,84.828 89.638,84.588 89.111,84.476L89.111,84.452C89.519,84.292 89.831,84.048 90.047,83.72C90.271,83.384 90.382,82.988 90.382,82.532C90.382,82.1 90.283,81.736 90.083,81.44C89.891,81.144 89.655,80.912 89.375,80.744C89.247,80.664 89.091,80.604 88.906,80.564C88.731,80.524 88.539,80.496 88.331,80.48C88.123,80.456 87.911,80.444 87.695,80.444C87.487,80.436 87.29,80.432 87.107,80.432L83.999,80.432ZM85.138,88.04L85.138,85.076L87.743,85.076C87.983,85.076 88.215,85.1 88.439,85.148C88.662,85.188 88.859,85.264 89.027,85.376C89.203,85.48 89.343,85.624 89.447,85.808C89.551,85.992 89.603,86.224 89.603,86.504C89.603,86.984 89.459,87.36 89.171,87.632C88.891,87.904 88.499,88.04 87.995,88.04L85.138,88.04ZM98.237,83.012L99.377,83.012C99.313,82.556 99.177,82.156 98.969,81.812C98.761,81.46 98.501,81.168 98.189,80.936C97.877,80.704 97.521,80.528 97.121,80.408C96.721,80.288 96.297,80.228 95.849,80.228C95.193,80.228 94.609,80.348 94.097,80.588C93.593,80.82 93.169,81.14 92.825,81.548C92.489,81.956 92.233,82.436 92.057,82.988C91.881,83.532 91.793,84.116 91.793,84.74C91.793,85.364 91.873,85.948 92.033,86.492C92.201,87.036 92.449,87.508 92.777,87.908C93.105,88.308 93.517,88.624 94.013,88.856C94.509,89.08 95.089,89.192 95.753,89.192C96.849,89.192 97.713,88.892 98.345,88.292C98.977,87.692 99.349,86.852 99.461,85.772L98.321,85.772C98.297,86.124 98.225,86.452 98.105,86.756C97.985,87.06 97.817,87.324 97.601,87.548C97.393,87.764 97.141,87.936 96.845,88.064C96.557,88.184 96.225,88.244 95.849,88.244C95.337,88.244 94.897,88.148 94.529,87.956C94.161,87.764 93.857,87.508 93.617,87.188C93.385,86.86 93.213,86.48 93.101,86.048C92.989,85.608 92.933,85.144 92.933,84.656C92.933,84.208 92.989,83.776 93.101,83.36C93.213,82.944 93.385,82.576 93.617,82.256C93.857,81.928 94.157,81.668 94.517,81.476C94.885,81.284 95.325,81.188 95.837,81.188C96.437,81.188 96.953,81.34 97.385,81.644C97.825,81.948 98.109,82.404 98.237,83.012Z" style="fill-rule:nonzero;"/>
    <path d="M191.683,88.04L191.683,81.392L193.603,81.392C194.131,81.392 194.575,81.468 194.935,81.62C195.295,81.764 195.587,81.98 195.811,82.268C196.043,82.548 196.207,82.892 196.303,83.3C196.407,83.7 196.459,84.156 196.459,84.668C196.459,85.196 196.403,85.648 196.291,86.024C196.187,86.392 196.051,86.7 195.883,86.948C195.715,87.196 195.523,87.392 195.307,87.536C195.099,87.68 194.887,87.792 194.671,87.872C194.455,87.944 194.251,87.992 194.059,88.016C193.867,88.032 193.707,88.04 193.579,88.04L191.683,88.04ZM190.543,80.432L190.543,89L193.483,89C194.195,89 194.811,88.9 195.331,88.7C195.851,88.5 196.279,88.212 196.615,87.836C196.951,87.452 197.199,86.984 197.359,86.432C197.519,85.872 197.599,85.232 197.599,84.512C197.599,83.136 197.243,82.112 196.531,81.44C195.819,80.768 194.803,80.432 193.483,80.432L190.543,80.432ZM198.993,80.432L198.993,89L204.945,89L204.945,88.04L200.133,88.04L200.133,85.076L204.585,85.076L204.585,84.116L200.133,84.116L200.133,81.392L204.909,81.392L204.909,80.432L198.993,80.432Z" style="fill-rule:nonzero;"/>
    <path d="M188.738,162.04L188.738,155.392L190.658,155.392C191.186,155.392 191.63,155.468 191.99,155.62C192.35,155.764 192.642,155.98 192.866,156.268C193.098,156.548 193.262,156.892 193.358,157.3C193.462,157.7 193.514,158.156 193.514,158.668C193.514,159.196 193.458,159.648 193.346,160.024C193.242,160.392 193.106,160.7 192.938,160.948C192.77,161.196 192.578,161.392 192.362,161.536C192.154,161.68 191.942,161.792 191.726,161.872C191.51,161.944 191.306,161.992 191.114,162.016C190.922,162.032 190.762,162.04 190.634,162.04L188.738,162.04ZM187.598,154.432L187.598,163L190.538,163C191.25,163 191.866,162.9 192.386,162.7C192.906,162.5 193.334,162.212 193.67,161.836C194.006,161.452 194.254,160.984 194.414,160.432C194.574,159.872 194.654,159.232 194.654,158.512C194.654,157.136 194.298,156.112 193.586,155.44C192.874,154.768 191.858,154.432 190.538,154.432L187.598,154.432ZM196.047,154.432L196.047,163L201.999,163L201.999,162.04L197.187,162.04L197.187,159.076L201.639,159.076L201.639,158.116L197.187,158.116L197.187,155.392L201.963,155.392L201.963,154.432L196.047,154.432ZM203.383,154.432L203.383,163L204.523,163L204.523,159.076L208.459,159.076L208.459,158.116L204.523,158.116L204.523,155.392L209.011,155.392L209.011,154.432L203.383,154.432Z" style="fill-rule:nonzero;"/>
    <path d="M74.301,232.116L74.301,229.392L76.581,229.392C76.829,229.392 77.061,229.408 77.277,229.44C77.501,229.464 77.697,229.524 77.865,229.62C78.033,229.716 78.165,229.852 78.261,230.028C78.357,230.204 78.405,230.444 78.405,230.748C78.405,231.204 78.261,231.548 77.973,231.78C77.693,232.004 77.229,232.116 76.581,232.116L74.301,232.116ZM73.161,228.432L73.161,237L77.301,237C77.725,237 78.097,236.932 78.417,236.796C78.745,236.652 79.017,236.468 79.233,236.244C79.457,236.012 79.625,235.748 79.737,235.452C79.849,235.156 79.905,234.852 79.905,234.54C79.905,234.012 79.765,233.564 79.485,233.196C79.205,232.828 78.801,232.588 78.273,232.476L78.273,232.452C78.681,232.292 78.993,232.048 79.209,231.72C79.433,231.384 79.545,230.988 79.545,230.532C79.545,230.1 79.445,229.736 79.245,229.44C79.053,229.144 78.817,228.912 78.537,228.744C78.409,228.664 78.253,228.604 78.069,228.564C77.893,228.524 77.701,228.496 77.493,228.48C77.285,228.456 77.073,228.444 76.857,228.444C76.649,228.436 76.453,228.432 76.269,228.432L73.161,228.432ZM74.301,236.04L74.301,233.076L76.905,233.076C77.145,233.076 77.377,233.1 77.601,233.148C77.825,233.188 78.021,233.264 78.189,233.376C78.365,233.48 78.505,233.624 78.609,233.808C78.713,233.992 78.765,234.224 78.765,234.504C78.765,234.984 78.621,235.36 78.333,235.632C78.053,235.904 77.661,236.04 77.157,236.04L74.301,236.04ZM87.4,231.012L88.54,231.012C88.476,230.556 88.34,230.156 88.132,229.812C87.924,229.46 87.664,229.168 87.352,228.936C87.04,228.704 86.684,228.528 86.284,228.408C85.884,228.288 85.46,228.228 85.012,228.228C84.356,228.228 83.772,228.348 83.26,228.588C82.756,228.82 82.332,229.14 81.988,229.548C81.652,229.956 81.396,230.436 81.22,230.988C81.044,231.532 80.956,232.116 80.956,232.74C80.956,233.364 81.036,233.948 81.196,234.492C81.364,235.036 81.612,235.508 81.94,235.908C82.268,236.308 82.68,236.624 83.176,236.856C83.672,237.08 84.251,237.192 84.915,237.192C86.012,237.192 86.876,236.892 87.507,236.292C88.14,235.692 88.512,234.852 88.624,233.772L87.484,233.772C87.46,234.124 87.388,234.452 87.268,234.756C87.147,235.06 86.98,235.324 86.763,235.548C86.556,235.764 86.304,235.936 86.007,236.064C85.72,236.184 85.388,236.244 85.012,236.244C84.5,236.244 84.06,236.148 83.692,235.956C83.324,235.764 83.019,235.508 82.78,235.188C82.548,234.86 82.376,234.48 82.263,234.048C82.152,233.608 82.096,233.144 82.096,232.656C82.096,232.208 82.152,231.776 82.263,231.36C82.376,230.944 82.548,230.576 82.78,230.256C83.019,229.928 83.32,229.668 83.68,229.476C84.048,229.284 84.488,229.188 85,229.188C85.6,229.188 86.116,229.34 86.548,229.644C86.988,229.948 87.272,230.404 87.4,231.012ZM91.176,236.04L91.176,229.392L93.096,229.392C93.624,229.392 94.068,229.468 94.428,229.62C94.788,229.764 95.08,229.98 95.304,230.268C95.536,230.548 95.7,230.892 95.796,231.3C95.9,231.7 95.952,232.156 95.952,232.668C95.952,233.196 95.896,233.648 95.784,234.024C95.68,234.392 95.544,234.7 95.376,234.948C95.208,235.196 95.016,235.392 94.8,235.536C94.592,235.68 94.38,235.792 94.164,235.872C93.948,235.944 93.744,235.992 93.552,236.016C93.36,236.032 93.2,236.04 93.072,236.04L91.176,236.04ZM90.036,228.432L90.036,237L92.976,237C93.688,237 94.304,236.9 94.824,236.7C95.344,236.5 95.772,236.212 96.108,235.836C96.444,235.452 96.692,234.984 96.852,234.432C97.012,233.872 97.092,233.232 97.092,232.512C97.092,231.136 96.736,230.112 96.024,229.44C95.312,228.768 94.296,228.432 92.976,228.432L90.036,228.432ZM98.485,228.432L98.485,237L104.437,237L104.437,236.04L99.625,236.04L99.625,233.076L104.077,233.076L104.077,232.116L99.625,232.116L99.625,229.392L104.401,229.392L104.401,228.432L98.485,228.432ZM105.821,228.432L105.821,237L106.961,237L106.961,233.076L110.897,233.076L110.897,232.116L106.961,232.116L106.961,229.392L111.449,229.392L111.449,228.432L105.821,228.432Z" style="fill-rule:nonzero;"/>
    <path d="M44.746,307.46L46.198,303.464L46.222,303.464L47.65,307.46L44.746,307.46ZM45.598,302.432L42.262,311L43.426,311L44.386,308.42L48.01,308.42L48.946,311L50.206,311L46.858,302.432L45.598,302.432ZM52.191,306.116L52.191,303.392L54.471,303.392C54.719,303.392 54.951,303.408 55.167,303.44C55.391,303.464 55.587,303.524 55.755,303.62C55.923,303.716 56.055,303.852 56.151,304.028C56.247,304.204 56.295,304.444 56.295,304.748C56.295,305.204 56.151,305.548 55.863,305.78C55.583,306.004 55.119,306.116 54.471,306.116L52.191,306.116ZM51.051,302.432L51.051,311L55.191,311C55.615,311 55.987,310.932 56.307,310.796C56.635,310.652 56.907,310.468 57.123,310.244C57.347,310.012 57.515,309.748 57.627,309.452C57.739,309.156 57.795,308.852 57.795,308.54C57.795,308.012 57.655,307.564 57.375,307.196C57.095,306.828 56.691,306.588 56.163,306.476L56.163,306.452C56.571,306.292 56.883,306.048 57.099,305.72C57.323,305.384 57.435,304.988 57.435,304.532C57.435,304.1 57.335,303.736 57.135,303.44C56.943,303.144 56.707,302.912 56.427,302.744C56.299,302.664 56.143,302.604 55.959,302.564C55.783,302.524 55.591,302.496 55.383,302.48C55.175,302.456 54.963,302.444 54.747,302.444C54.539,302.436 54.343,302.432 54.159,302.432L51.051,302.432ZM52.191,310.04L52.191,307.076L54.795,307.076C55.035,307.076 55.267,307.1 55.491,307.148C55.715,307.188 55.911,307.264 56.079,307.376C56.255,307.48 56.395,307.624 56.499,307.808C56.603,307.992 56.655,308.224 56.655,308.504C56.655,308.984 56.511,309.36 56.223,309.632C55.943,309.904 55.551,310.04 55.047,310.04L52.191,310.04ZM65.29,305.012L66.43,305.012C66.366,304.556 66.23,304.156 66.022,303.812C65.814,303.46 65.554,303.168 65.242,302.936C64.93,302.704 64.574,302.528 64.174,302.408C63.774,302.288 63.35,302.228 62.902,302.228C62.246,302.228 61.662,302.348 61.15,302.588C60.646,302.82 60.222,303.14 59.878,303.548C59.542,303.956 59.286,304.436 59.11,304.988C58.934,305.532 58.846,306.116 58.846,306.74C58.846,307.364 58.926,307.948 59.086,308.492C59.254,309.036 59.502,309.508 59.83,309.908C60.158,310.308 60.57,310.624 61.066,310.856C61.562,311.08 62.142,311.192 62.806,311.192C63.902,311.192 64.766,310.892 65.398,310.292C66.03,309.692 66.402,308.852 66.514,307.772L65.374,307.772C65.35,308.124 65.278,308.452 65.158,308.756C65.038,309.06 64.87,309.324 64.654,309.548C64.446,309.764 64.194,309.936 63.898,310.064C63.61,310.184 63.278,310.244 62.902,310.244C62.39,310.244 61.95,310.148 61.582,309.956C61.214,309.764 60.91,309.508 60.67,309.188C60.438,308.86 60.266,308.48 60.154,308.048C60.042,307.608 59.986,307.144 59.986,306.656C59.986,306.208 60.042,305.776 60.154,305.36C60.266,304.944 60.438,304.576 60.67,304.256C60.91,303.928 61.21,303.668 61.57,303.476C61.938,303.284 62.378,303.188 62.89,303.188C63.49,303.188 64.006,303.34 64.438,303.644C64.878,303.948 65.162,304.404 65.29,305.012ZM69.066,310.04L69.066,303.392L70.986,303.392C71.514,303.392 71.958,303.468 72.318,303.62C72.678,303.764 72.97,303.98 73.194,304.268C73.426,304.548 73.59,304.892 73.686,305.3C73.79,305.7 73.842,306.156 73.842,306.668C73.842,307.196 73.786,307.648 73.674,308.024C73.57,308.392 73.434,308.7 73.266,308.948C73.098,309.196 72.906,309.392 72.69,309.536C72.482,309.68 72.27,309.792 72.054,309.872C71.838,309.944 71.634,309.992 71.442,310.016C71.25,310.032 71.09,310.04 70.962,310.04L69.066,310.04ZM67.926,302.432L67.926,311L70.866,311C71.578,311 72.194,310.9 72.714,310.7C73.234,310.5 73.662,310.212 73.998,309.836C74.334,309.452 74.582,308.984 74.742,308.432C74.902,307.872 74.982,307.232 74.982,306.512C74.982,305.136 74.626,304.112 73.914,303.44C73.202,302.768 72.186,302.432 70.866,302.432L67.926,302.432ZM76.376,302.432L76.376,311L82.328,311L82.328,310.04L77.516,310.04L77.516,307.076L81.968,307.076L81.968,306.116L77.516,306.116L77.516,303.392L82.292,303.392L82.292,302.432L76.376,302.432ZM83.711,302.432L83.711,311L84.851,311L84.851,307.076L88.787,307.076L88.787,306.116L84.851,306.116L84.851,303.392L89.339,303.392L89.339,302.432L83.711,302.432Z" style="fill-rule:nonzero;"/>
    <path d="M13.5,25L13.5,293" style="fill:none;fill-rule:nonzero;stroke:black;stroke-width:1px;"/>
    <path d="M92.5,99L92.5,219" style="fill:none;fill-rule:nonzero;stroke:black;stroke-width:1px;"/>
    <path d="M198.5,99L198.5,145" style="fill:none;fill-rule:nonzero;stroke:black;stroke-width:1px;"/>
    <path d="M66.5,25L66.5,71" style="fill:none;fill-rule:nonzero;stroke:black;stroke-width:1px;"/>
    <path d="M119.5,25L119.5,71" style="fill:none;fill-rule:nonzero;stroke:black;stroke-width:1px;"/>
    <path d="M172.5,25L172.5,71" style="fill:none;fill-rule:nonzero;stroke:black;stroke-width:1px;"/>
    <path d="M225.5,25L225.5,71" style="fill:none;fill-rule:nonzero;stroke:black;stroke-width:1px;"/>
    <path d="M92.5,247L92.5,293" style="fill:none;fill-rule:nonzero;stroke:black;stroke-width:1px;"/>
    <path d="M277.479,25.143L237.479,159.143" style="fill:none;fill-rule:nonzero;stroke:black;stroke-width:1px;"/>
    <path d="M159.468,159.177L131.468,233.177" style="fill:none;fill-rule:nonzero;stroke:black;stroke-width:1px;"/>
    <path d="M159.468,159.177L131.468,233.177" style="fill:none;fill-rule:nonzero;stroke:black;stroke-width:1px;"/>
</svg>
