<?xml version="1.0" encoding="UTF-8" standalone="no"?>
<!DOCTYPE svg PUBLIC "-//W3C//DTD SVG 1.1//EN" "http://www.w3.org/Graphics/SVG/1.1/DTD/svg11.dtd">
<svg width="100%" height="100%" viewBox="0 0 667 270" version="1.1" xmlns="http://www.w3.org/2000/svg" xmlns:xlink="http://www.w3.org/1999/xlink" xml:space="preserve" xmlns:serif="http://www.serif.com/" style="fill-rule:evenodd;clip-rule:evenodd;">
    <g id="edges">
        <path d="M365.748,60.384L441.195,104.854" style="fill:none;fill-rule:nonzero;stroke:rgb(221,96,140);stroke-width:1px;"/>
        <path d="M278.228,125.55L441.195,104.854" style="fill:none;fill-rule:nonzero;stroke:rgb(221,96,140);stroke-width:1px;"/>
        <path d="M278.228,125.55L365.748,60.384" style="fill:none;fill-rule:nonzero;stroke:rgb(221,96,140);stroke-width:1px;"/>
        <path d="M385.996,152.89L441.195,104.854" style="fill:none;fill-rule:nonzero;stroke:rgb(221,96,140);stroke-width:1px;"/>
        <path d="M385.996,152.89L365.748,60.384" style="fill:none;fill-rule:nonzero;stroke:rgb(221,96,140);stroke-width:1px;"/>
        <path d="M385.996,152.89L278.228,125.55" style="fill:none;fill-rule:nonzero;stroke:rgb(221,96,140);stroke-width:1px;"/>
        <path d="M561.797,87.13L441.195,104.854" style="fill:none;fill-rule:nonzero;stroke:rgb(221,96,140);stroke-width:1px;"/>
        <path d="M604.949,119.212L441.195,104.854" style="fill:none;fill-rule:nonzero;stroke:rgb(221,96,140);stroke-width:1px;"/>
        <path d="M604.679,87.028L441.195,104.854" style="fill:none;fill-rule:nonzero;stroke:rgb(221,96,140);stroke-width:1px;"/>
        <path d="M604.679,87.028L561.797,87.13" style="fill:none;fill-rule:nonzero;stroke:rgb(221,96,140);stroke-width:1px;"/>
        <path d="M604.679,87.028L604.949,119.212" style="fill:none;fill-rule:nonzero;stroke:rgb(221,96,140);stroke-width:1px;"/>
        <path d="M378.079,117.268L441.195,104.854" style="fill:none;fill-rule:nonzero;stroke:rgb(221,96,140);stroke-width:1px;"/>
        <path d="M378.079,117.268L365.748,60.384" style="fill:none;fill-rule:nonzero;stroke:rgb(221,96,140);stroke-width:1px;"/>
        <path d="M378.079,117.268L278.228,125.55" style="fill:none;fill-rule:nonzero;stroke:rgb(221,96,140);stroke-width:1px;"/>
        <path d="M378.079,117.268L385.996,152.89" style="fill:none;fill-rule:nonzero;stroke:rgb(221,96,140);stroke-width:1px;"/>
        <path d="M238.198,62.631L441.195,104.854" style="fill:none;fill-rule:nonzero;stroke:rgb(165,133,167);stroke-width:1px;"/>
        <path d="M238.198,62.631L278.228,125.55" style="fill:none;fill-rule:nonzero;stroke:rgb(165,133,167);stroke-width:1px;"/>
        <path d="M209.535,115.296L278.228,125.55" style="fill:none;fill-rule:nonzero;stroke:rgb(158,157,180);stroke-width:1px;"/>
        <path d="M562.242,119.616L441.195,104.854" style="fill:none;fill-rule:nonzero;stroke:rgb(221,96,140);stroke-width:1px;"/>
        <path d="M562.242,119.616L561.797,87.13" style="fill:none;fill-rule:nonzero;stroke:rgb(221,96,140);stroke-width:1px;"/>
        <path d="M562.242,119.616L604.949,119.212" style="fill:none;fill-rule:nonzero;stroke:rgb(221,96,140);stroke-width:1px;"/>
        <path d="M501.032,125.531L441.195,104.854" style="fill:none;fill-rule:nonzero;stroke:rgb(221,96,140);stroke-width:1px;"/>
        <path d="M448.097,174.91L441.195,104.854" style="fill:none;fill-rule:nonzero;stroke:rgb(221,96,140);stroke-width:1px;"/>
        <path d="M448.097,174.91L385.996,152.89" style="fill:none;fill-rule:nonzero;stroke:rgb(221,96,140);stroke-width:1px;"/>
        <path d="M327.185,118.566L441.195,104.854" style="fill:none;fill-rule:nonzero;stroke:rgb(165,133,167);stroke-width:1px;"/>
        <path d="M327.185,118.566L365.748,60.384" style="fill:none;fill-rule:nonzero;stroke:rgb(165,133,167);stroke-width:1px;"/>
        <path d="M327.185,118.566L278.228,125.55" style="fill:none;fill-rule:nonzero;stroke:rgb(165,133,167);stroke-width:1px;"/>
        <path d="M327.185,118.566L385.996,152.89" style="fill:none;fill-rule:nonzero;stroke:rgb(165,133,167);stroke-width:1px;"/>
        <path d="M656.73,102.817L604.949,119.212" style="fill:none;fill-rule:nonzero;stroke:rgb(206,144,166);stroke-width:1px;"/>
        <path d="M656.73,102.817L604.679,87.028" style="fill:none;fill-rule:nonzero;stroke:rgb(206,144,166);stroke-width:1px;"/>
        <path d="M426.015,31.08L441.195,104.854" style="fill:none;fill-rule:nonzero;stroke:rgb(221,96,140);stroke-width:1px;"/>
        <path d="M426.015,31.08L365.748,60.384" style="fill:none;fill-rule:nonzero;stroke:rgb(221,96,140);stroke-width:1px;"/>
        <path d="M312.925,54.115L441.195,104.854" style="fill:none;fill-rule:nonzero;stroke:rgb(165,133,167);stroke-width:1px;"/>
        <path d="M312.925,54.115L365.748,60.384" style="fill:none;fill-rule:nonzero;stroke:rgb(165,133,167);stroke-width:1px;"/>
        <path d="M446.432,42.787L441.195,104.854" style="fill:none;fill-rule:nonzero;stroke:rgb(221,96,140);stroke-width:1px;"/>
        <path d="M446.432,42.787L365.748,60.384" style="fill:none;fill-rule:nonzero;stroke:rgb(221,96,140);stroke-width:1px;"/>
        <path d="M93.753,247.143L65.098,170.399" style="fill:none;fill-rule:nonzero;stroke:rgb(144,205,206);stroke-width:1px;"/>
        <path d="M93.753,247.143L126.39,259.118" style="fill:none;fill-rule:nonzero;stroke:rgb(192,192,192);stroke-width:1px;"/>
        <path d="M132.943,196.15L278.228,125.55" style="fill:none;fill-rule:nonzero;stroke:rgb(158,157,180);stroke-width:1px;"/>
        <path d="M132.943,196.15L65.098,170.399" style="fill:none;fill-rule:nonzero;stroke:rgb(96,218,221);stroke-width:1px;"/>
        <path d="M132.943,196.15L126.39,259.118" style="fill:none;fill-rule:nonzero;stroke:rgb(144,205,206);stroke-width:1px;"/>
        <path d="M206.27,160.147L278.228,125.55" style="fill:none;fill-rule:nonzero;stroke:rgb(158,157,180);stroke-width:1px;"/>
        <path d="M33.994,121.464L65.098,170.399" style="fill:none;fill-rule:nonzero;stroke:rgb(96,218,221);stroke-width:1px;"/>
        <path d="M33.994,121.464L10.916,109.076" style="fill:none;fill-rule:nonzero;stroke:rgb(96,218,221);stroke-width:1px;"/>
        <path d="M209.398,29.31L365.748,60.384" style="fill:none;fill-rule:nonzero;stroke:rgb(158,157,180);stroke-width:1px;"/>
        <path d="M209.398,29.31L238.198,62.631" style="fill:none;fill-rule:nonzero;stroke:rgb(103,194,208);stroke-width:1px;"/>
        <path d="M183.423,189.43L441.195,104.854" style="fill:none;fill-rule:nonzero;stroke:rgb(165,133,167);stroke-width:1px;"/>
        <path d="M183.423,189.43L126.39,259.118" style="fill:none;fill-rule:nonzero;stroke:rgb(151,181,193);stroke-width:1px;"/>
        <path d="M183.423,189.43L93.753,247.143" style="fill:none;fill-rule:nonzero;stroke:rgb(151,181,193);stroke-width:1px;"/>
        <path d="M183.423,189.43L206.27,160.147" style="fill:none;fill-rule:nonzero;stroke:rgb(103,194,208);stroke-width:1px;"/>
        <path d="M103.487,57.224L278.228,125.55" style="fill:none;fill-rule:nonzero;stroke:rgb(158,157,180);stroke-width:1px;"/>
        <path d="M103.487,57.224L238.198,62.631" style="fill:none;fill-rule:nonzero;stroke:rgb(103,194,208);stroke-width:1px;"/>
        <path d="M103.487,57.224L107.771,10.133" style="fill:none;fill-rule:nonzero;stroke:rgb(96,218,221);stroke-width:1px;"/>
        <path d="M103.487,57.224L59.273,76.019" style="fill:none;fill-rule:nonzero;stroke:rgb(96,218,221);stroke-width:1px;"/>
        <path d="M103.487,57.224L49.266,51.55" style="fill:none;fill-rule:nonzero;stroke:rgb(96,218,221);stroke-width:1px;"/>
        <path d="M103.487,57.224L59.958,29.085" style="fill:none;fill-rule:nonzero;stroke:rgb(96,218,221);stroke-width:1px;"/>
        <path d="M103.487,57.224L79.952,13.104" style="fill:none;fill-rule:nonzero;stroke:rgb(96,218,221);stroke-width:1px;"/>
        <path d="M103.487,57.224L65.098,170.399" style="fill:none;fill-rule:nonzero;stroke:rgb(96,218,221);stroke-width:1px;"/>
        <path d="M103.487,57.224L33.994,121.464" style="fill:none;fill-rule:nonzero;stroke:rgb(96,218,221);stroke-width:1px;"/>
        <path d="M103.487,57.224L209.398,29.31" style="fill:none;fill-rule:nonzero;stroke:rgb(96,218,221);stroke-width:1px;"/>
        <path d="M103.487,57.224L183.423,189.43" style="fill:none;fill-rule:nonzero;stroke:rgb(103,194,208);stroke-width:1px;"/>
        <path d="M134.761,97.023L238.198,62.631" style="fill:none;fill-rule:nonzero;stroke:rgb(103,194,208);stroke-width:1px;"/>
        <path d="M134.761,97.023L209.535,115.296" style="fill:none;fill-rule:nonzero;stroke:rgb(96,218,221);stroke-width:1px;"/>
        <path d="M134.761,97.023L327.185,118.566" style="fill:none;fill-rule:nonzero;stroke:rgb(103,194,208);stroke-width:1px;"/>
        <path d="M134.761,97.023L107.771,10.133" style="fill:none;fill-rule:nonzero;stroke:rgb(96,218,221);stroke-width:1px;"/>
        <path d="M134.761,97.023L59.273,76.019" style="fill:none;fill-rule:nonzero;stroke:rgb(96,218,221);stroke-width:1px;"/>
        <path d="M134.761,97.023L49.266,51.55" style="fill:none;fill-rule:nonzero;stroke:rgb(96,218,221);stroke-width:1px;"/>
        <path d="M134.761,97.023L312.925,54.115" style="fill:none;fill-rule:nonzero;stroke:rgb(103,194,208);stroke-width:1px;"/>
        <path d="M134.761,97.023L59.958,29.085" style="fill:none;fill-rule:nonzero;stroke:rgb(96,218,221);stroke-width:1px;"/>
        <path d="M134.761,97.023L79.952,13.104" style="fill:none;fill-rule:nonzero;stroke:rgb(96,218,221);stroke-width:1px;"/>
        <path d="M134.761,97.023L65.098,170.399" style="fill:none;fill-rule:nonzero;stroke:rgb(96,218,221);stroke-width:1px;"/>
        <path d="M134.761,97.023L10.916,109.076" style="fill:none;fill-rule:nonzero;stroke:rgb(96,218,221);stroke-width:1px;"/>
        <path d="M134.761,97.023L132.943,196.15" style="fill:none;fill-rule:nonzero;stroke:rgb(96,218,221);stroke-width:1px;"/>
        <path d="M134.761,97.023L206.27,160.147" style="fill:none;fill-rule:nonzero;stroke:rgb(96,218,221);stroke-width:1px;"/>
        <path d="M134.761,97.023L33.994,121.464" style="fill:none;fill-rule:nonzero;stroke:rgb(96,218,221);stroke-width:1px;"/>
        <path d="M134.761,97.023L209.398,29.31" style="fill:none;fill-rule:nonzero;stroke:rgb(96,218,221);stroke-width:1px;"/>
        <path d="M134.761,97.023L183.423,189.43" style="fill:none;fill-rule:nonzero;stroke:rgb(103,194,208);stroke-width:1px;"/>
        <path d="M134.761,97.023L103.487,57.224" style="fill:none;fill-rule:nonzero;stroke:rgb(96,218,221);stroke-width:1px;"/>
    </g>
    <g id="nodes">
        <circle cx="441.195" cy="104.854" r="14" style="fill:rgb(221,96,140);stroke:black;stroke-width:1px;"/>
        <circle cx="365.748" cy="60.384" r="10" style="fill:rgb(221,96,140);stroke:black;stroke-width:1px;"/>
        <circle cx="278.228" cy="125.55" r="10" style="fill:rgb(221,96,140);stroke:black;stroke-width:1px;"/>
        <circle cx="385.996" cy="152.89" r="10" style="fill:rgb(221,96,140);stroke:black;stroke-width:1px;"/>
        <circle cx="561.797" cy="87.13" r="10" style="fill:rgb(221,96,140);stroke:black;stroke-width:1px;"/>
        <circle cx="604.949" cy="119.212" r="10" style="fill:rgb(221,96,140);stroke:black;stroke-width:1px;"/>
        <circle cx="604.679" cy="87.028" r="10" style="fill:rgb(221,96,140);stroke:black;stroke-width:1px;"/>
        <circle cx="378.079" cy="117.268" r="10" style="fill:rgb(221,96,140);stroke:black;stroke-width:1px;"/>
        <circle cx="238.198" cy="62.631" r="10" style="fill:rgb(110,170,195);stroke:black;stroke-width:1px;"/>
        <circle cx="209.535" cy="115.296" r="10" style="fill:rgb(96,218,221);stroke:black;stroke-width:1px;"/>
        <circle cx="562.242" cy="119.616" r="10" style="fill:rgb(221,96,140);stroke:black;stroke-width:1px;"/>
        <circle cx="501.032" cy="125.531" r="10" style="fill:rgb(221,96,140);stroke:black;stroke-width:1px;"/>
        <circle cx="448.097" cy="174.91" r="10" style="fill:rgb(221,96,140);stroke:black;stroke-width:1px;"/>
        <circle cx="327.185" cy="118.566" r="10" style="fill:rgb(110,170,195);stroke:black;stroke-width:1px;"/>
        <circle cx="107.771" cy="10.133" r="10" style="fill:rgb(96,218,221);stroke:black;stroke-width:1px;"/>
        <circle cx="59.273" cy="76.019" r="10" style="fill:rgb(96,218,221);stroke:black;stroke-width:1px;"/>
        <circle cx="656.73" cy="102.817" r="10" style="fill:rgb(192,192,192);stroke:black;stroke-width:1px;"/>
        <circle cx="426.015" cy="31.08" r="10" style="fill:rgb(221,96,140);stroke:black;stroke-width:1px;"/>
        <circle cx="49.266" cy="51.55" r="10" style="fill:rgb(96,218,221);stroke:black;stroke-width:1px;"/>
        <circle cx="312.925" cy="54.115" r="10" style="fill:rgb(110,170,195);stroke:black;stroke-width:1px;"/>
        <circle cx="59.958" cy="29.085" r="10" style="fill:rgb(96,218,221);stroke:black;stroke-width:1px;"/>
        <circle cx="446.432" cy="42.787" r="10" style="fill:rgb(221,96,140);stroke:black;stroke-width:1px;"/>
        <circle cx="79.952" cy="13.104" r="10" style="fill:rgb(96,218,221);stroke:black;stroke-width:1px;"/>
        <circle cx="65.098" cy="170.399" r="10" style="fill:rgb(96,218,221);stroke:black;stroke-width:1px;"/>
        <circle cx="126.39" cy="259.118" r="10" style="fill:rgb(192,192,192);stroke:black;stroke-width:1px;"/>
        <circle cx="93.753" cy="247.143" r="10" style="fill:rgb(192,192,192);stroke:black;stroke-width:1px;"/>
        <circle cx="10.916" cy="109.076" r="10" style="fill:rgb(96,218,221);stroke:black;stroke-width:1px;"/>
        <circle cx="132.943" cy="196.15" r="10" style="fill:rgb(96,218,221);stroke:black;stroke-width:1px;"/>
        <circle cx="206.27" cy="160.147" r="10" style="fill:rgb(96,218,221);stroke:black;stroke-width:1px;"/>
        <circle cx="33.994" cy="121.464" r="10" style="fill:rgb(96,218,221);stroke:black;stroke-width:1px;"/>
        <circle cx="209.398" cy="29.31" r="10" style="fill:rgb(96,218,221);stroke:black;stroke-width:1px;"/>
        <circle cx="183.423" cy="189.43" r="10" style="fill:rgb(110,170,195);stroke:black;stroke-width:1px;"/>
        <circle cx="103.487" cy="57.224" r="10" style="fill:rgb(96,218,221);stroke:black;stroke-width:1px;"/>
        <circle cx="134.761" cy="97.023" r="14" style="fill:rgb(96,218,221);stroke:black;stroke-width:1px;"/>
    </g>
    <g id="node-labels">
        <g transform="matrix(1,0,0,1,441.195,107.328)">
            <g transform="matrix(8,0,0,8,-10.448,0)">
                <path d="M0.08,-0.714L0.08,-0L0.17,-0L0.17,-0.594L0.172,-0.594L0.395,-0L0.476,-0L0.699,-0.594L0.701,-0.594L0.701,-0L0.791,-0L0.791,-0.714L0.661,-0.714L0.435,-0.114L0.21,-0.714L0.08,-0.714Z" style="fill-rule:nonzero;"/>
            </g>
            <g transform="matrix(8,0,0,8,-3.48,0)">
                <path d="M0.061,-0.517L0.061,-0L0.146,-0L0.146,-0.23C0.146,-0.263 0.149,-0.293 0.156,-0.319C0.163,-0.344 0.173,-0.366 0.188,-0.384C0.203,-0.402 0.222,-0.416 0.246,-0.425C0.27,-0.434 0.299,-0.439 0.333,-0.439L0.333,-0.529C0.287,-0.53 0.249,-0.521 0.219,-0.501C0.189,-0.481 0.164,-0.45 0.143,-0.408L0.141,-0.408L0.141,-0.517L0.061,-0.517Z" style="fill-rule:nonzero;"/>
            </g>
            <g transform="matrix(8,0,0,8,-1.552,0)">
                <rect x="0.083" y="-0.111" width="0.111" height="0.111" style="fill-rule:nonzero;"/>
            </g>
            <g transform="matrix(8,0,0,8,2.896,0)">
                <path d="M0.078,-0.714L0.078,-0L0.173,-0L0.173,-0.327L0.549,-0.327L0.549,-0L0.644,-0L0.644,-0.714L0.549,-0.714L0.549,-0.407L0.173,-0.407L0.173,-0.714L0.078,-0.714Z" style="fill-rule:nonzero;"/>
            </g>
            <g transform="matrix(8,0,0,8,8.672,0)">
                <path d="M0.154,-0.61L0.154,-0.714L0.069,-0.714L0.069,-0.61L0.154,-0.61ZM0.069,-0.517L0.069,-0L0.154,-0L0.154,-0.517L0.069,-0.517Z" style="fill-rule:nonzero;"/>
            </g>
        </g>
        <g transform="matrix(1,0,0,1,365.748,62.4932)">
            <g transform="matrix(6,0,0,6,-1.668,0)">
                <path d="M0.044,-0.458L0.129,-0.458C0.128,-0.479 0.131,-0.501 0.136,-0.522C0.141,-0.543 0.149,-0.561 0.16,-0.578C0.171,-0.595 0.186,-0.608 0.204,-0.619C0.221,-0.629 0.242,-0.634 0.267,-0.634C0.286,-0.634 0.303,-0.631 0.32,-0.625C0.337,-0.619 0.351,-0.61 0.364,-0.599C0.376,-0.588 0.386,-0.574 0.393,-0.559C0.4,-0.543 0.404,-0.525 0.404,-0.506C0.404,-0.481 0.4,-0.46 0.393,-0.441C0.385,-0.422 0.374,-0.405 0.359,-0.389C0.343,-0.373 0.325,-0.357 0.302,-0.342C0.279,-0.326 0.253,-0.309 0.223,-0.29C0.198,-0.275 0.175,-0.26 0.152,-0.243C0.129,-0.226 0.109,-0.207 0.091,-0.185C0.073,-0.163 0.058,-0.137 0.047,-0.108C0.035,-0.078 0.027,-0.042 0.024,-0L0.487,-0L0.487,-0.075L0.123,-0.075C0.127,-0.097 0.135,-0.117 0.149,-0.134C0.162,-0.151 0.177,-0.166 0.196,-0.181C0.214,-0.196 0.234,-0.21 0.256,-0.223C0.278,-0.236 0.3,-0.249 0.322,-0.262C0.344,-0.276 0.365,-0.291 0.386,-0.306C0.407,-0.321 0.425,-0.339 0.441,-0.358C0.457,-0.377 0.47,-0.398 0.48,-0.422C0.489,-0.446 0.494,-0.474 0.494,-0.505C0.494,-0.538 0.488,-0.568 0.477,-0.593C0.465,-0.618 0.449,-0.64 0.429,-0.657C0.409,-0.674 0.386,-0.687 0.359,-0.696C0.331,-0.705 0.303,-0.709 0.272,-0.709C0.235,-0.709 0.201,-0.703 0.172,-0.69C0.143,-0.677 0.118,-0.66 0.099,-0.638C0.079,-0.615 0.064,-0.589 0.055,-0.558C0.046,-0.527 0.042,-0.494 0.044,-0.458Z" style="fill-rule:nonzero;"/>
            </g>
        </g>
        <g transform="matrix(1,0,0,1,278.228,127.676)">
            <g transform="matrix(6,0,0,6,-1.668,0)">
                <path d="M0.218,-0.405L0.218,-0.333C0.234,-0.335 0.251,-0.336 0.269,-0.336C0.29,-0.336 0.31,-0.333 0.329,-0.328C0.347,-0.322 0.363,-0.313 0.376,-0.302C0.389,-0.29 0.4,-0.276 0.408,-0.259C0.416,-0.242 0.42,-0.222 0.42,-0.2C0.42,-0.179 0.416,-0.16 0.408,-0.143C0.399,-0.126 0.388,-0.111 0.374,-0.1C0.36,-0.088 0.344,-0.079 0.325,-0.073C0.306,-0.066 0.287,-0.063 0.266,-0.063C0.217,-0.063 0.18,-0.078 0.155,-0.107C0.13,-0.135 0.116,-0.173 0.115,-0.219L0.03,-0.219C0.029,-0.182 0.035,-0.15 0.046,-0.121C0.056,-0.092 0.072,-0.068 0.093,-0.049C0.114,-0.029 0.139,-0.014 0.168,-0.004C0.197,0.006 0.23,0.011 0.266,0.011C0.299,0.011 0.331,0.007 0.361,-0.003C0.39,-0.012 0.416,-0.025 0.438,-0.043C0.46,-0.061 0.478,-0.084 0.491,-0.111C0.503,-0.137 0.51,-0.169 0.51,-0.204C0.51,-0.247 0.5,-0.284 0.479,-0.315C0.458,-0.346 0.425,-0.367 0.382,-0.376L0.382,-0.378C0.41,-0.391 0.433,-0.409 0.452,-0.434C0.471,-0.459 0.48,-0.487 0.48,-0.519C0.48,-0.552 0.474,-0.58 0.464,-0.604C0.452,-0.628 0.437,-0.648 0.418,-0.663C0.399,-0.678 0.376,-0.69 0.35,-0.698C0.323,-0.705 0.295,-0.709 0.264,-0.709C0.229,-0.709 0.198,-0.703 0.171,-0.692C0.143,-0.681 0.121,-0.665 0.103,-0.645C0.085,-0.625 0.071,-0.601 0.062,-0.573C0.052,-0.545 0.046,-0.514 0.045,-0.48L0.13,-0.48C0.13,-0.501 0.133,-0.52 0.138,-0.539C0.143,-0.558 0.152,-0.574 0.163,-0.588C0.173,-0.602 0.188,-0.613 0.205,-0.622C0.222,-0.63 0.241,-0.634 0.264,-0.634C0.3,-0.634 0.33,-0.624 0.354,-0.606C0.378,-0.587 0.39,-0.558 0.39,-0.52C0.39,-0.501 0.386,-0.485 0.379,-0.47C0.372,-0.455 0.362,-0.443 0.35,-0.434C0.337,-0.424 0.323,-0.417 0.307,-0.412C0.29,-0.407 0.273,-0.404 0.255,-0.404L0.227,-0.404C0.224,-0.404 0.221,-0.404 0.218,-0.405Z" style="fill-rule:nonzero;"/>
            </g>
        </g>
        <g transform="matrix(1,0,0,1,385.996,155)">
            <g transform="matrix(6,0,0,6,-1.668,0)">
                <path d="M0.339,-0.241L0.101,-0.241L0.337,-0.588L0.339,-0.588L0.339,-0.241ZM0.419,-0.241L0.419,-0.709L0.351,-0.709L0.028,-0.248L0.028,-0.166L0.339,-0.166L0.339,-0L0.419,-0L0.419,-0.166L0.515,-0.166L0.515,-0.241L0.419,-0.241Z" style="fill-rule:nonzero;"/>
            </g>
        </g>
        <g transform="matrix(1,0,0,1,561.797,89.2386)">
            <g transform="matrix(6,0,0,6,-1.668,0)">
                <path d="M0.47,-0.622L0.47,-0.697L0.12,-0.697L0.054,-0.329L0.127,-0.325C0.144,-0.345 0.163,-0.361 0.185,-0.374C0.206,-0.386 0.231,-0.392 0.259,-0.392C0.283,-0.392 0.305,-0.388 0.325,-0.38C0.344,-0.372 0.361,-0.361 0.375,-0.347C0.389,-0.332 0.4,-0.315 0.408,-0.296C0.415,-0.276 0.419,-0.254 0.419,-0.231C0.419,-0.203 0.415,-0.179 0.407,-0.158C0.399,-0.136 0.388,-0.119 0.375,-0.105C0.361,-0.091 0.345,-0.081 0.327,-0.074C0.308,-0.067 0.289,-0.063 0.269,-0.063C0.248,-0.063 0.228,-0.066 0.211,-0.073C0.193,-0.079 0.178,-0.088 0.165,-0.1C0.152,-0.111 0.141,-0.125 0.134,-0.141C0.126,-0.156 0.121,-0.173 0.12,-0.191L0.035,-0.191C0.036,-0.159 0.042,-0.13 0.054,-0.105C0.066,-0.08 0.082,-0.059 0.103,-0.042C0.124,-0.025 0.148,-0.012 0.175,-0.003C0.202,0.007 0.23,0.011 0.261,0.011C0.302,0.011 0.339,0.005 0.37,-0.009C0.401,-0.022 0.426,-0.039 0.447,-0.061C0.468,-0.083 0.483,-0.108 0.494,-0.137C0.504,-0.165 0.509,-0.194 0.509,-0.224C0.509,-0.265 0.503,-0.3 0.491,-0.331C0.479,-0.361 0.463,-0.386 0.442,-0.407C0.421,-0.427 0.397,-0.442 0.369,-0.452C0.341,-0.462 0.311,-0.467 0.28,-0.467C0.256,-0.467 0.232,-0.463 0.208,-0.455C0.183,-0.446 0.163,-0.433 0.148,-0.416L0.146,-0.418L0.184,-0.622L0.47,-0.622Z" style="fill-rule:nonzero;"/>
            </g>
        </g>
        <g transform="matrix(1,0,0,1,604.949,121.338)">
            <g transform="matrix(6,0,0,6,-1.668,0)">
                <path d="M0.414,-0.528L0.499,-0.528C0.494,-0.587 0.474,-0.631 0.439,-0.663C0.404,-0.693 0.358,-0.709 0.299,-0.709C0.248,-0.709 0.206,-0.698 0.173,-0.677C0.14,-0.656 0.113,-0.627 0.093,-0.592C0.073,-0.557 0.059,-0.516 0.051,-0.471C0.042,-0.425 0.038,-0.378 0.038,-0.329C0.038,-0.292 0.041,-0.253 0.047,-0.213C0.052,-0.173 0.064,-0.136 0.081,-0.103C0.098,-0.07 0.123,-0.042 0.155,-0.021C0.187,0 0.229,0.011 0.282,0.011C0.327,0.011 0.364,0.003 0.395,-0.012C0.425,-0.027 0.449,-0.046 0.468,-0.069C0.486,-0.092 0.499,-0.117 0.507,-0.145C0.515,-0.173 0.519,-0.2 0.519,-0.226C0.519,-0.259 0.514,-0.289 0.504,-0.317C0.494,-0.345 0.48,-0.369 0.462,-0.39C0.443,-0.411 0.421,-0.427 0.394,-0.439C0.367,-0.45 0.336,-0.456 0.302,-0.456C0.263,-0.456 0.229,-0.449 0.2,-0.434C0.17,-0.419 0.145,-0.396 0.125,-0.363L0.123,-0.365C0.124,-0.392 0.126,-0.422 0.131,-0.453C0.136,-0.484 0.144,-0.514 0.157,-0.541C0.169,-0.568 0.186,-0.59 0.208,-0.608C0.23,-0.625 0.259,-0.634 0.295,-0.634C0.329,-0.634 0.356,-0.624 0.377,-0.605C0.398,-0.586 0.41,-0.56 0.414,-0.528ZM0.286,-0.381C0.31,-0.381 0.331,-0.377 0.349,-0.368C0.367,-0.359 0.382,-0.348 0.394,-0.334C0.406,-0.319 0.415,-0.302 0.421,-0.283C0.426,-0.263 0.429,-0.242 0.429,-0.22C0.429,-0.199 0.426,-0.18 0.42,-0.161C0.413,-0.141 0.404,-0.125 0.392,-0.11C0.38,-0.095 0.365,-0.084 0.348,-0.076C0.33,-0.067 0.309,-0.063 0.286,-0.063C0.263,-0.063 0.242,-0.067 0.224,-0.076C0.205,-0.084 0.19,-0.095 0.178,-0.109C0.165,-0.123 0.156,-0.14 0.149,-0.159C0.142,-0.178 0.139,-0.199 0.139,-0.221C0.139,-0.243 0.142,-0.264 0.149,-0.284C0.155,-0.303 0.164,-0.32 0.177,-0.335C0.19,-0.349 0.205,-0.36 0.223,-0.369C0.241,-0.377 0.262,-0.381 0.286,-0.381Z" style="fill-rule:nonzero;"/>
            </g>
        </g>
        <g transform="matrix(1,0,0,1,604.679,89.1202)">
            <g transform="matrix(6,0,0,6,-1.668,0)">
                <path d="M0.509,-0.624L0.509,-0.697L0.05,-0.697L0.05,-0.617L0.422,-0.617C0.385,-0.578 0.35,-0.535 0.318,-0.488C0.285,-0.441 0.257,-0.392 0.232,-0.34C0.207,-0.287 0.187,-0.233 0.172,-0.176C0.156,-0.119 0.146,-0.06 0.142,-0L0.237,-0C0.24,-0.055 0.25,-0.112 0.265,-0.171C0.28,-0.23 0.3,-0.287 0.325,-0.342C0.349,-0.397 0.377,-0.449 0.408,-0.498C0.439,-0.547 0.473,-0.589 0.509,-0.624Z" style="fill-rule:nonzero;"/>
            </g>
        </g>
        <g transform="matrix(1,0,0,1,378.079,119.394)">
            <g transform="matrix(6,0,0,6,-1.668,0)">
                <path d="M0.155,-0.525C0.155,-0.543 0.158,-0.559 0.165,-0.572C0.172,-0.585 0.181,-0.597 0.192,-0.606C0.203,-0.615 0.216,-0.622 0.231,-0.627C0.246,-0.632 0.262,-0.634 0.279,-0.634C0.314,-0.634 0.342,-0.625 0.365,-0.607C0.387,-0.588 0.398,-0.561 0.398,-0.525C0.398,-0.489 0.387,-0.461 0.365,-0.441C0.343,-0.421 0.315,-0.411 0.281,-0.411C0.264,-0.411 0.247,-0.413 0.232,-0.418C0.217,-0.423 0.203,-0.43 0.192,-0.439C0.181,-0.448 0.172,-0.46 0.165,-0.475C0.158,-0.489 0.155,-0.506 0.155,-0.525ZM0.065,-0.528C0.065,-0.496 0.074,-0.466 0.092,-0.44C0.11,-0.413 0.134,-0.393 0.164,-0.381C0.124,-0.367 0.093,-0.345 0.072,-0.314C0.051,-0.283 0.04,-0.246 0.04,-0.204C0.04,-0.168 0.046,-0.136 0.059,-0.11C0.071,-0.083 0.088,-0.06 0.11,-0.042C0.131,-0.024 0.157,-0.011 0.186,-0.002C0.215,0.007 0.247,0.011 0.281,0.011C0.314,0.011 0.344,0.006 0.373,-0.003C0.402,-0.012 0.427,-0.026 0.448,-0.045C0.468,-0.063 0.485,-0.085 0.498,-0.112C0.51,-0.139 0.516,-0.169 0.516,-0.204C0.516,-0.248 0.506,-0.285 0.485,-0.316C0.464,-0.346 0.433,-0.368 0.39,-0.381C0.42,-0.394 0.444,-0.414 0.462,-0.441C0.479,-0.467 0.488,-0.496 0.488,-0.528C0.488,-0.551 0.484,-0.573 0.476,-0.595C0.468,-0.616 0.456,-0.635 0.439,-0.653C0.422,-0.67 0.399,-0.683 0.372,-0.694C0.345,-0.704 0.312,-0.709 0.273,-0.709C0.246,-0.709 0.22,-0.705 0.195,-0.697C0.169,-0.689 0.147,-0.677 0.128,-0.662C0.109,-0.647 0.093,-0.628 0.082,-0.606C0.071,-0.583 0.065,-0.557 0.065,-0.528ZM0.13,-0.2C0.13,-0.221 0.134,-0.239 0.142,-0.256C0.149,-0.273 0.16,-0.287 0.174,-0.299C0.187,-0.311 0.203,-0.32 0.222,-0.327C0.24,-0.333 0.259,-0.336 0.28,-0.336C0.3,-0.336 0.319,-0.333 0.337,-0.326C0.354,-0.319 0.37,-0.309 0.383,-0.297C0.396,-0.285 0.407,-0.271 0.415,-0.255C0.422,-0.238 0.426,-0.22 0.426,-0.201C0.426,-0.181 0.423,-0.163 0.416,-0.146C0.409,-0.129 0.399,-0.115 0.386,-0.103C0.373,-0.09 0.357,-0.081 0.34,-0.074C0.322,-0.067 0.302,-0.063 0.281,-0.063C0.237,-0.063 0.201,-0.075 0.173,-0.1C0.144,-0.124 0.13,-0.157 0.13,-0.2Z" style="fill-rule:nonzero;"/>
            </g>
        </g>
        <g transform="matrix(1,0,0,1,238.198,64.7574)">
            <g transform="matrix(6,0,0,6,-1.668,0)">
                <path d="M0.134,-0.171L0.049,-0.171C0.054,-0.11 0.077,-0.064 0.116,-0.034C0.155,-0.004 0.205,0.011 0.264,0.011C0.35,0.011 0.413,-0.022 0.452,-0.088C0.491,-0.153 0.51,-0.247 0.51,-0.37C0.51,-0.437 0.503,-0.493 0.491,-0.537C0.478,-0.58 0.46,-0.615 0.438,-0.64C0.416,-0.665 0.39,-0.683 0.361,-0.694C0.332,-0.704 0.3,-0.709 0.267,-0.709C0.233,-0.709 0.202,-0.703 0.173,-0.692C0.144,-0.681 0.12,-0.665 0.099,-0.645C0.078,-0.624 0.062,-0.6 0.051,-0.572C0.04,-0.543 0.034,-0.512 0.034,-0.478C0.034,-0.443 0.039,-0.411 0.049,-0.382C0.058,-0.353 0.073,-0.328 0.092,-0.307C0.111,-0.286 0.134,-0.27 0.162,-0.259C0.19,-0.247 0.222,-0.241 0.258,-0.241C0.293,-0.241 0.325,-0.25 0.354,-0.268C0.383,-0.285 0.406,-0.309 0.422,-0.339L0.424,-0.337C0.421,-0.244 0.407,-0.175 0.381,-0.131C0.355,-0.086 0.316,-0.063 0.264,-0.063C0.23,-0.063 0.201,-0.072 0.176,-0.091C0.151,-0.11 0.137,-0.136 0.134,-0.171ZM0.409,-0.472C0.409,-0.451 0.406,-0.432 0.399,-0.413C0.392,-0.394 0.383,-0.377 0.37,-0.363C0.357,-0.348 0.342,-0.337 0.324,-0.329C0.306,-0.32 0.286,-0.316 0.264,-0.316C0.243,-0.316 0.225,-0.32 0.208,-0.329C0.191,-0.337 0.176,-0.348 0.164,-0.362C0.151,-0.376 0.141,-0.392 0.135,-0.41C0.128,-0.428 0.124,-0.447 0.124,-0.466C0.124,-0.488 0.127,-0.509 0.132,-0.529C0.137,-0.549 0.145,-0.567 0.156,-0.583C0.167,-0.598 0.181,-0.611 0.199,-0.62C0.216,-0.629 0.238,-0.634 0.263,-0.634C0.287,-0.634 0.308,-0.63 0.326,-0.621C0.344,-0.612 0.359,-0.6 0.372,-0.586C0.384,-0.571 0.393,-0.553 0.4,-0.534C0.406,-0.515 0.409,-0.494 0.409,-0.472Z" style="fill-rule:nonzero;"/>
            </g>
        </g>
        <g transform="matrix(1,0,0,1,209.535,117.422)">
            <g transform="matrix(6,0,0,6,-3.336,0)">
                <path d="M0.356,-0L0.356,-0.709L0.291,-0.709C0.286,-0.682 0.278,-0.66 0.265,-0.643C0.252,-0.626 0.237,-0.612 0.219,-0.602C0.2,-0.592 0.18,-0.585 0.157,-0.582C0.134,-0.578 0.111,-0.576 0.087,-0.576L0.087,-0.508L0.271,-0.508L0.271,-0L0.356,-0Z" style="fill-rule:nonzero;"/>
            </g>
            <g transform="matrix(6,0,0,6,0,0)">
                <path d="M0.132,-0.349C0.132,-0.366 0.132,-0.386 0.133,-0.407C0.133,-0.428 0.135,-0.448 0.138,-0.47C0.141,-0.491 0.145,-0.511 0.151,-0.531C0.156,-0.551 0.165,-0.569 0.176,-0.584C0.187,-0.599 0.2,-0.611 0.217,-0.62C0.234,-0.629 0.254,-0.634 0.278,-0.634C0.302,-0.634 0.322,-0.629 0.339,-0.62C0.356,-0.611 0.37,-0.599 0.381,-0.584C0.392,-0.569 0.4,-0.551 0.406,-0.531C0.411,-0.511 0.416,-0.491 0.419,-0.47C0.422,-0.448 0.423,-0.428 0.424,-0.407C0.424,-0.386 0.424,-0.366 0.424,-0.349C0.424,-0.322 0.423,-0.293 0.422,-0.26C0.42,-0.227 0.415,-0.196 0.406,-0.167C0.397,-0.137 0.382,-0.113 0.362,-0.093C0.342,-0.073 0.314,-0.063 0.278,-0.063C0.242,-0.063 0.214,-0.073 0.194,-0.093C0.174,-0.113 0.16,-0.137 0.151,-0.167C0.141,-0.196 0.136,-0.227 0.135,-0.26C0.133,-0.293 0.132,-0.322 0.132,-0.349ZM0.042,-0.348C0.042,-0.322 0.043,-0.295 0.044,-0.267C0.045,-0.239 0.049,-0.212 0.054,-0.185C0.059,-0.158 0.067,-0.133 0.077,-0.11C0.087,-0.086 0.101,-0.065 0.118,-0.047C0.135,-0.029 0.157,-0.015 0.184,-0.005C0.21,0.006 0.241,0.011 0.278,0.011C0.315,0.011 0.347,0.006 0.373,-0.005C0.399,-0.015 0.421,-0.029 0.438,-0.047C0.455,-0.065 0.469,-0.086 0.479,-0.11C0.489,-0.133 0.497,-0.158 0.502,-0.185C0.507,-0.212 0.511,-0.239 0.512,-0.267C0.513,-0.295 0.514,-0.322 0.514,-0.348C0.514,-0.374 0.513,-0.401 0.512,-0.429C0.511,-0.457 0.507,-0.484 0.502,-0.511C0.497,-0.538 0.489,-0.563 0.479,-0.587C0.469,-0.611 0.455,-0.632 0.438,-0.65C0.421,-0.668 0.399,-0.682 0.373,-0.693C0.346,-0.704 0.315,-0.709 0.278,-0.709C0.241,-0.709 0.21,-0.704 0.184,-0.693C0.157,-0.682 0.135,-0.668 0.118,-0.65C0.101,-0.632 0.087,-0.611 0.077,-0.587C0.067,-0.563 0.059,-0.538 0.054,-0.511C0.049,-0.484 0.045,-0.457 0.044,-0.429C0.043,-0.401 0.042,-0.374 0.042,-0.348Z" style="fill-rule:nonzero;"/>
            </g>
        </g>
        <g transform="matrix(1,0,0,1,562.242,121.726)">
            <g transform="matrix(6,0,0,6,-3.336,0)">
                <path d="M0.356,-0L0.356,-0.709L0.291,-0.709C0.286,-0.682 0.278,-0.66 0.265,-0.643C0.252,-0.626 0.237,-0.612 0.219,-0.602C0.2,-0.592 0.18,-0.585 0.157,-0.582C0.134,-0.578 0.111,-0.576 0.087,-0.576L0.087,-0.508L0.271,-0.508L0.271,-0L0.356,-0Z" style="fill-rule:nonzero;"/>
            </g>
            <g transform="matrix(6,0,0,6,0,0)">
                <path d="M0.356,-0L0.356,-0.709L0.291,-0.709C0.286,-0.682 0.278,-0.66 0.265,-0.643C0.252,-0.626 0.237,-0.612 0.219,-0.602C0.2,-0.592 0.18,-0.585 0.157,-0.582C0.134,-0.578 0.111,-0.576 0.087,-0.576L0.087,-0.508L0.271,-0.508L0.271,-0L0.356,-0Z" style="fill-rule:nonzero;"/>
            </g>
        </g>
        <g transform="matrix(1,0,0,1,501.032,127.64)">
            <g transform="matrix(6,0,0,6,-3.336,0)">
                <path d="M0.356,-0L0.356,-0.709L0.291,-0.709C0.286,-0.682 0.278,-0.66 0.265,-0.643C0.252,-0.626 0.237,-0.612 0.219,-0.602C0.2,-0.592 0.18,-0.585 0.157,-0.582C0.134,-0.578 0.111,-0.576 0.087,-0.576L0.087,-0.508L0.271,-0.508L0.271,-0L0.356,-0Z" style="fill-rule:nonzero;"/>
            </g>
            <g transform="matrix(6,0,0,6,0,0)">
                <path d="M0.044,-0.458L0.129,-0.458C0.128,-0.479 0.131,-0.501 0.136,-0.522C0.141,-0.543 0.149,-0.561 0.16,-0.578C0.171,-0.595 0.186,-0.608 0.204,-0.619C0.221,-0.629 0.242,-0.634 0.267,-0.634C0.286,-0.634 0.303,-0.631 0.32,-0.625C0.337,-0.619 0.351,-0.61 0.364,-0.599C0.376,-0.588 0.386,-0.574 0.393,-0.559C0.4,-0.543 0.404,-0.525 0.404,-0.506C0.404,-0.481 0.4,-0.46 0.393,-0.441C0.385,-0.422 0.374,-0.405 0.359,-0.389C0.343,-0.373 0.325,-0.357 0.302,-0.342C0.279,-0.326 0.253,-0.309 0.223,-0.29C0.198,-0.275 0.175,-0.26 0.152,-0.243C0.129,-0.226 0.109,-0.207 0.091,-0.185C0.073,-0.163 0.058,-0.137 0.047,-0.108C0.035,-0.078 0.027,-0.042 0.024,-0L0.487,-0L0.487,-0.075L0.123,-0.075C0.127,-0.097 0.135,-0.117 0.149,-0.134C0.162,-0.151 0.177,-0.166 0.196,-0.181C0.214,-0.196 0.234,-0.21 0.256,-0.223C0.278,-0.236 0.3,-0.249 0.322,-0.262C0.344,-0.276 0.365,-0.291 0.386,-0.306C0.407,-0.321 0.425,-0.339 0.441,-0.358C0.457,-0.377 0.47,-0.398 0.48,-0.422C0.489,-0.446 0.494,-0.474 0.494,-0.505C0.494,-0.538 0.488,-0.568 0.477,-0.593C0.465,-0.618 0.449,-0.64 0.429,-0.657C0.409,-0.674 0.386,-0.687 0.359,-0.696C0.331,-0.705 0.303,-0.709 0.272,-0.709C0.235,-0.709 0.201,-0.703 0.172,-0.69C0.143,-0.677 0.118,-0.66 0.099,-0.638C0.079,-0.615 0.064,-0.589 0.055,-0.558C0.046,-0.527 0.042,-0.494 0.044,-0.458Z" style="fill-rule:nonzero;"/>
            </g>
        </g>
        <g transform="matrix(1,0,0,1,448.097,177.036)">
            <g transform="matrix(6,0,0,6,-3.336,0)">
                <path d="M0.356,-0L0.356,-0.709L0.291,-0.709C0.286,-0.682 0.278,-0.66 0.265,-0.643C0.252,-0.626 0.237,-0.612 0.219,-0.602C0.2,-0.592 0.18,-0.585 0.157,-0.582C0.134,-0.578 0.111,-0.576 0.087,-0.576L0.087,-0.508L0.271,-0.508L0.271,-0L0.356,-0Z" style="fill-rule:nonzero;"/>
            </g>
            <g transform="matrix(6,0,0,6,0,0)">
                <path d="M0.218,-0.405L0.218,-0.333C0.234,-0.335 0.251,-0.336 0.269,-0.336C0.29,-0.336 0.31,-0.333 0.329,-0.328C0.347,-0.322 0.363,-0.313 0.376,-0.302C0.389,-0.29 0.4,-0.276 0.408,-0.259C0.416,-0.242 0.42,-0.222 0.42,-0.2C0.42,-0.179 0.416,-0.16 0.408,-0.143C0.399,-0.126 0.388,-0.111 0.374,-0.1C0.36,-0.088 0.344,-0.079 0.325,-0.073C0.306,-0.066 0.287,-0.063 0.266,-0.063C0.217,-0.063 0.18,-0.078 0.155,-0.107C0.13,-0.135 0.116,-0.173 0.115,-0.219L0.03,-0.219C0.029,-0.182 0.035,-0.15 0.046,-0.121C0.056,-0.092 0.072,-0.068 0.093,-0.049C0.114,-0.029 0.139,-0.014 0.168,-0.004C0.197,0.006 0.23,0.011 0.266,0.011C0.299,0.011 0.331,0.007 0.361,-0.003C0.39,-0.012 0.416,-0.025 0.438,-0.043C0.46,-0.061 0.478,-0.084 0.491,-0.111C0.503,-0.137 0.51,-0.169 0.51,-0.204C0.51,-0.247 0.5,-0.284 0.479,-0.315C0.458,-0.346 0.425,-0.367 0.382,-0.376L0.382,-0.378C0.41,-0.391 0.433,-0.409 0.452,-0.434C0.471,-0.459 0.48,-0.487 0.48,-0.519C0.48,-0.552 0.474,-0.58 0.464,-0.604C0.452,-0.628 0.437,-0.648 0.418,-0.663C0.399,-0.678 0.376,-0.69 0.35,-0.698C0.323,-0.705 0.295,-0.709 0.264,-0.709C0.229,-0.709 0.198,-0.703 0.171,-0.692C0.143,-0.681 0.121,-0.665 0.103,-0.645C0.085,-0.625 0.071,-0.601 0.062,-0.573C0.052,-0.545 0.046,-0.514 0.045,-0.48L0.13,-0.48C0.13,-0.501 0.133,-0.52 0.138,-0.539C0.143,-0.558 0.152,-0.574 0.163,-0.588C0.173,-0.602 0.188,-0.613 0.205,-0.622C0.222,-0.63 0.241,-0.634 0.264,-0.634C0.3,-0.634 0.33,-0.624 0.354,-0.606C0.378,-0.587 0.39,-0.558 0.39,-0.52C0.39,-0.501 0.386,-0.485 0.379,-0.47C0.372,-0.455 0.362,-0.443 0.35,-0.434C0.337,-0.424 0.323,-0.417 0.307,-0.412C0.29,-0.407 0.273,-0.404 0.255,-0.404L0.227,-0.404C0.224,-0.404 0.221,-0.404 0.218,-0.405Z" style="fill-rule:nonzero;"/>
            </g>
        </g>
        <g transform="matrix(1,0,0,1,327.185,120.676)">
            <g transform="matrix(6,0,0,6,-3.336,0)">
                <path d="M0.356,-0L0.356,-0.709L0.291,-0.709C0.286,-0.682 0.278,-0.66 0.265,-0.643C0.252,-0.626 0.237,-0.612 0.219,-0.602C0.2,-0.592 0.18,-0.585 0.157,-0.582C0.134,-0.578 0.111,-0.576 0.087,-0.576L0.087,-0.508L0.271,-0.508L0.271,-0L0.356,-0Z" style="fill-rule:nonzero;"/>
            </g>
            <g transform="matrix(6,0,0,6,0,0)">
                <path d="M0.339,-0.241L0.101,-0.241L0.337,-0.588L0.339,-0.588L0.339,-0.241ZM0.419,-0.241L0.419,-0.709L0.351,-0.709L0.028,-0.248L0.028,-0.166L0.339,-0.166L0.339,-0L0.419,-0L0.419,-0.166L0.515,-0.166L0.515,-0.241L0.419,-0.241Z" style="fill-rule:nonzero;"/>
            </g>
        </g>
        <g transform="matrix(1,0,0,1,107.771,12.2591)">
            <g transform="matrix(6,0,0,6,-3.336,0)">
                <path d="M0.356,-0L0.356,-0.709L0.291,-0.709C0.286,-0.682 0.278,-0.66 0.265,-0.643C0.252,-0.626 0.237,-0.612 0.219,-0.602C0.2,-0.592 0.18,-0.585 0.157,-0.582C0.134,-0.578 0.111,-0.576 0.087,-0.576L0.087,-0.508L0.271,-0.508L0.271,-0L0.356,-0Z" style="fill-rule:nonzero;"/>
            </g>
            <g transform="matrix(6,0,0,6,0,0)">
                <path d="M0.47,-0.622L0.47,-0.697L0.12,-0.697L0.054,-0.329L0.127,-0.325C0.144,-0.345 0.163,-0.361 0.185,-0.374C0.206,-0.386 0.231,-0.392 0.259,-0.392C0.283,-0.392 0.305,-0.388 0.325,-0.38C0.344,-0.372 0.361,-0.361 0.375,-0.347C0.389,-0.332 0.4,-0.315 0.408,-0.296C0.415,-0.276 0.419,-0.254 0.419,-0.231C0.419,-0.203 0.415,-0.179 0.407,-0.158C0.399,-0.136 0.388,-0.119 0.375,-0.105C0.361,-0.091 0.345,-0.081 0.327,-0.074C0.308,-0.067 0.289,-0.063 0.269,-0.063C0.248,-0.063 0.228,-0.066 0.211,-0.073C0.193,-0.079 0.178,-0.088 0.165,-0.1C0.152,-0.111 0.141,-0.125 0.134,-0.141C0.126,-0.156 0.121,-0.173 0.12,-0.191L0.035,-0.191C0.036,-0.159 0.042,-0.13 0.054,-0.105C0.066,-0.08 0.082,-0.059 0.103,-0.042C0.124,-0.025 0.148,-0.012 0.175,-0.003C0.202,0.007 0.23,0.011 0.261,0.011C0.302,0.011 0.339,0.005 0.37,-0.009C0.401,-0.022 0.426,-0.039 0.447,-0.061C0.468,-0.083 0.483,-0.108 0.494,-0.137C0.504,-0.165 0.509,-0.194 0.509,-0.224C0.509,-0.265 0.503,-0.3 0.491,-0.331C0.479,-0.361 0.463,-0.386 0.442,-0.407C0.421,-0.427 0.397,-0.442 0.369,-0.452C0.341,-0.462 0.311,-0.467 0.28,-0.467C0.256,-0.467 0.232,-0.463 0.208,-0.455C0.183,-0.446 0.163,-0.433 0.148,-0.416L0.146,-0.418L0.184,-0.622L0.47,-0.622Z" style="fill-rule:nonzero;"/>
            </g>
        </g>
        <g transform="matrix(1,0,0,1,59.2731,78.1449)">
            <g transform="matrix(6,0,0,6,-3.336,0)">
                <path d="M0.356,-0L0.356,-0.709L0.291,-0.709C0.286,-0.682 0.278,-0.66 0.265,-0.643C0.252,-0.626 0.237,-0.612 0.219,-0.602C0.2,-0.592 0.18,-0.585 0.157,-0.582C0.134,-0.578 0.111,-0.576 0.087,-0.576L0.087,-0.508L0.271,-0.508L0.271,-0L0.356,-0Z" style="fill-rule:nonzero;"/>
            </g>
            <g transform="matrix(6,0,0,6,0,0)">
                <path d="M0.414,-0.528L0.499,-0.528C0.494,-0.587 0.474,-0.631 0.439,-0.663C0.404,-0.693 0.358,-0.709 0.299,-0.709C0.248,-0.709 0.206,-0.698 0.173,-0.677C0.14,-0.656 0.113,-0.627 0.093,-0.592C0.073,-0.557 0.059,-0.516 0.051,-0.471C0.042,-0.425 0.038,-0.378 0.038,-0.329C0.038,-0.292 0.041,-0.253 0.047,-0.213C0.052,-0.173 0.064,-0.136 0.081,-0.103C0.098,-0.07 0.123,-0.042 0.155,-0.021C0.187,0 0.229,0.011 0.282,0.011C0.327,0.011 0.364,0.003 0.395,-0.012C0.425,-0.027 0.449,-0.046 0.468,-0.069C0.486,-0.092 0.499,-0.117 0.507,-0.145C0.515,-0.173 0.519,-0.2 0.519,-0.226C0.519,-0.259 0.514,-0.289 0.504,-0.317C0.494,-0.345 0.48,-0.369 0.462,-0.39C0.443,-0.411 0.421,-0.427 0.394,-0.439C0.367,-0.45 0.336,-0.456 0.302,-0.456C0.263,-0.456 0.229,-0.449 0.2,-0.434C0.17,-0.419 0.145,-0.396 0.125,-0.363L0.123,-0.365C0.124,-0.392 0.126,-0.422 0.131,-0.453C0.136,-0.484 0.144,-0.514 0.157,-0.541C0.169,-0.568 0.186,-0.59 0.208,-0.608C0.23,-0.625 0.259,-0.634 0.295,-0.634C0.329,-0.634 0.356,-0.624 0.377,-0.605C0.398,-0.586 0.41,-0.56 0.414,-0.528ZM0.286,-0.381C0.31,-0.381 0.331,-0.377 0.349,-0.368C0.367,-0.359 0.382,-0.348 0.394,-0.334C0.406,-0.319 0.415,-0.302 0.421,-0.283C0.426,-0.263 0.429,-0.242 0.429,-0.22C0.429,-0.199 0.426,-0.18 0.42,-0.161C0.413,-0.141 0.404,-0.125 0.392,-0.11C0.38,-0.095 0.365,-0.084 0.348,-0.076C0.33,-0.067 0.309,-0.063 0.286,-0.063C0.263,-0.063 0.242,-0.067 0.224,-0.076C0.205,-0.084 0.19,-0.095 0.178,-0.109C0.165,-0.123 0.156,-0.14 0.149,-0.159C0.142,-0.178 0.139,-0.199 0.139,-0.221C0.139,-0.243 0.142,-0.264 0.149,-0.284C0.155,-0.303 0.164,-0.32 0.177,-0.335C0.19,-0.349 0.205,-0.36 0.223,-0.369C0.241,-0.377 0.262,-0.381 0.286,-0.381Z" style="fill-rule:nonzero;"/>
            </g>
        </g>
        <g transform="matrix(1,0,0,1,656.73,104.927)">
            <g transform="matrix(6,0,0,6,-3.336,0)">
                <path d="M0.356,-0L0.356,-0.709L0.291,-0.709C0.286,-0.682 0.278,-0.66 0.265,-0.643C0.252,-0.626 0.237,-0.612 0.219,-0.602C0.2,-0.592 0.18,-0.585 0.157,-0.582C0.134,-0.578 0.111,-0.576 0.087,-0.576L0.087,-0.508L0.271,-0.508L0.271,-0L0.356,-0Z" style="fill-rule:nonzero;"/>
            </g>
            <g transform="matrix(6,0,0,6,0,0)">
                <path d="M0.509,-0.624L0.509,-0.697L0.05,-0.697L0.05,-0.617L0.422,-0.617C0.385,-0.578 0.35,-0.535 0.318,-0.488C0.285,-0.441 0.257,-0.392 0.232,-0.34C0.207,-0.287 0.187,-0.233 0.172,-0.176C0.156,-0.119 0.146,-0.06 0.142,-0L0.237,-0C0.24,-0.055 0.25,-0.112 0.265,-0.171C0.28,-0.23 0.3,-0.287 0.325,-0.342C0.349,-0.397 0.377,-0.449 0.408,-0.498C0.439,-0.547 0.473,-0.589 0.509,-0.624Z" style="fill-rule:nonzero;"/>
            </g>
        </g>
        <g transform="matrix(1,0,0,1,426.015,33.2059)">
            <g transform="matrix(6,0,0,6,-3.336,0)">
                <path d="M0.356,-0L0.356,-0.709L0.291,-0.709C0.286,-0.682 0.278,-0.66 0.265,-0.643C0.252,-0.626 0.237,-0.612 0.219,-0.602C0.2,-0.592 0.18,-0.585 0.157,-0.582C0.134,-0.578 0.111,-0.576 0.087,-0.576L0.087,-0.508L0.271,-0.508L0.271,-0L0.356,-0Z" style="fill-rule:nonzero;"/>
            </g>
            <g transform="matrix(6,0,0,6,0,0)">
                <path d="M0.155,-0.525C0.155,-0.543 0.158,-0.559 0.165,-0.572C0.172,-0.585 0.181,-0.597 0.192,-0.606C0.203,-0.615 0.216,-0.622 0.231,-0.627C0.246,-0.632 0.262,-0.634 0.279,-0.634C0.314,-0.634 0.342,-0.625 0.365,-0.607C0.387,-0.588 0.398,-0.561 0.398,-0.525C0.398,-0.489 0.387,-0.461 0.365,-0.441C0.343,-0.421 0.315,-0.411 0.281,-0.411C0.264,-0.411 0.247,-0.413 0.232,-0.418C0.217,-0.423 0.203,-0.43 0.192,-0.439C0.181,-0.448 0.172,-0.46 0.165,-0.475C0.158,-0.489 0.155,-0.506 0.155,-0.525ZM0.065,-0.528C0.065,-0.496 0.074,-0.466 0.092,-0.44C0.11,-0.413 0.134,-0.393 0.164,-0.381C0.124,-0.367 0.093,-0.345 0.072,-0.314C0.051,-0.283 0.04,-0.246 0.04,-0.204C0.04,-0.168 0.046,-0.136 0.059,-0.11C0.071,-0.083 0.088,-0.06 0.11,-0.042C0.131,-0.024 0.157,-0.011 0.186,-0.002C0.215,0.007 0.247,0.011 0.281,0.011C0.314,0.011 0.344,0.006 0.373,-0.003C0.402,-0.012 0.427,-0.026 0.448,-0.045C0.468,-0.063 0.485,-0.085 0.498,-0.112C0.51,-0.139 0.516,-0.169 0.516,-0.204C0.516,-0.248 0.506,-0.285 0.485,-0.316C0.464,-0.346 0.433,-0.368 0.39,-0.381C0.42,-0.394 0.444,-0.414 0.462,-0.441C0.479,-0.467 0.488,-0.496 0.488,-0.528C0.488,-0.551 0.484,-0.573 0.476,-0.595C0.468,-0.616 0.456,-0.635 0.439,-0.653C0.422,-0.67 0.399,-0.683 0.372,-0.694C0.345,-0.704 0.312,-0.709 0.273,-0.709C0.246,-0.709 0.22,-0.705 0.195,-0.697C0.169,-0.689 0.147,-0.677 0.128,-0.662C0.109,-0.647 0.093,-0.628 0.082,-0.606C0.071,-0.583 0.065,-0.557 0.065,-0.528ZM0.13,-0.2C0.13,-0.221 0.134,-0.239 0.142,-0.256C0.149,-0.273 0.16,-0.287 0.174,-0.299C0.187,-0.311 0.203,-0.32 0.222,-0.327C0.24,-0.333 0.259,-0.336 0.28,-0.336C0.3,-0.336 0.319,-0.333 0.337,-0.326C0.354,-0.319 0.37,-0.309 0.383,-0.297C0.396,-0.285 0.407,-0.271 0.415,-0.255C0.422,-0.238 0.426,-0.22 0.426,-0.201C0.426,-0.181 0.423,-0.163 0.416,-0.146C0.409,-0.129 0.399,-0.115 0.386,-0.103C0.373,-0.09 0.357,-0.081 0.34,-0.074C0.322,-0.067 0.302,-0.063 0.281,-0.063C0.237,-0.063 0.201,-0.075 0.173,-0.1C0.144,-0.124 0.13,-0.157 0.13,-0.2Z" style="fill-rule:nonzero;"/>
            </g>
        </g>
        <g transform="matrix(1,0,0,1,49.2661,53.6763)">
            <g transform="matrix(6,0,0,6,-3.336,0)">
                <path d="M0.356,-0L0.356,-0.709L0.291,-0.709C0.286,-0.682 0.278,-0.66 0.265,-0.643C0.252,-0.626 0.237,-0.612 0.219,-0.602C0.2,-0.592 0.18,-0.585 0.157,-0.582C0.134,-0.578 0.111,-0.576 0.087,-0.576L0.087,-0.508L0.271,-0.508L0.271,-0L0.356,-0Z" style="fill-rule:nonzero;"/>
            </g>
            <g transform="matrix(6,0,0,6,0,0)">
                <path d="M0.134,-0.171L0.049,-0.171C0.054,-0.11 0.077,-0.064 0.116,-0.034C0.155,-0.004 0.205,0.011 0.264,0.011C0.35,0.011 0.413,-0.022 0.452,-0.088C0.491,-0.153 0.51,-0.247 0.51,-0.37C0.51,-0.437 0.503,-0.493 0.491,-0.537C0.478,-0.58 0.46,-0.615 0.438,-0.64C0.416,-0.665 0.39,-0.683 0.361,-0.694C0.332,-0.704 0.3,-0.709 0.267,-0.709C0.233,-0.709 0.202,-0.703 0.173,-0.692C0.144,-0.681 0.12,-0.665 0.099,-0.645C0.078,-0.624 0.062,-0.6 0.051,-0.572C0.04,-0.543 0.034,-0.512 0.034,-0.478C0.034,-0.443 0.039,-0.411 0.049,-0.382C0.058,-0.353 0.073,-0.328 0.092,-0.307C0.111,-0.286 0.134,-0.27 0.162,-0.259C0.19,-0.247 0.222,-0.241 0.258,-0.241C0.293,-0.241 0.325,-0.25 0.354,-0.268C0.383,-0.285 0.406,-0.309 0.422,-0.339L0.424,-0.337C0.421,-0.244 0.407,-0.175 0.381,-0.131C0.355,-0.086 0.316,-0.063 0.264,-0.063C0.23,-0.063 0.201,-0.072 0.176,-0.091C0.151,-0.11 0.137,-0.136 0.134,-0.171ZM0.409,-0.472C0.409,-0.451 0.406,-0.432 0.399,-0.413C0.392,-0.394 0.383,-0.377 0.37,-0.363C0.357,-0.348 0.342,-0.337 0.324,-0.329C0.306,-0.32 0.286,-0.316 0.264,-0.316C0.243,-0.316 0.225,-0.32 0.208,-0.329C0.191,-0.337 0.176,-0.348 0.164,-0.362C0.151,-0.376 0.141,-0.392 0.135,-0.41C0.128,-0.428 0.124,-0.447 0.124,-0.466C0.124,-0.488 0.127,-0.509 0.132,-0.529C0.137,-0.549 0.145,-0.567 0.156,-0.583C0.167,-0.598 0.181,-0.611 0.199,-0.62C0.216,-0.629 0.238,-0.634 0.263,-0.634C0.287,-0.634 0.308,-0.63 0.326,-0.621C0.344,-0.612 0.359,-0.6 0.372,-0.586C0.384,-0.571 0.393,-0.553 0.4,-0.534C0.406,-0.515 0.409,-0.494 0.409,-0.472Z" style="fill-rule:nonzero;"/>
            </g>
        </g>
        <g transform="matrix(1,0,0,1,312.925,56.2412)">
            <g transform="matrix(6,0,0,6,-3.336,0)">
                <path d="M0.044,-0.458L0.129,-0.458C0.128,-0.479 0.131,-0.501 0.136,-0.522C0.141,-0.543 0.149,-0.561 0.16,-0.578C0.171,-0.595 0.186,-0.608 0.204,-0.619C0.221,-0.629 0.242,-0.634 0.267,-0.634C0.286,-0.634 0.303,-0.631 0.32,-0.625C0.337,-0.619 0.351,-0.61 0.364,-0.599C0.376,-0.588 0.386,-0.574 0.393,-0.559C0.4,-0.543 0.404,-0.525 0.404,-0.506C0.404,-0.481 0.4,-0.46 0.393,-0.441C0.385,-0.422 0.374,-0.405 0.359,-0.389C0.343,-0.373 0.325,-0.357 0.302,-0.342C0.279,-0.326 0.253,-0.309 0.223,-0.29C0.198,-0.275 0.175,-0.26 0.152,-0.243C0.129,-0.226 0.109,-0.207 0.091,-0.185C0.073,-0.163 0.058,-0.137 0.047,-0.108C0.035,-0.078 0.027,-0.042 0.024,-0L0.487,-0L0.487,-0.075L0.123,-0.075C0.127,-0.097 0.135,-0.117 0.149,-0.134C0.162,-0.151 0.177,-0.166 0.196,-0.181C0.214,-0.196 0.234,-0.21 0.256,-0.223C0.278,-0.236 0.3,-0.249 0.322,-0.262C0.344,-0.276 0.365,-0.291 0.386,-0.306C0.407,-0.321 0.425,-0.339 0.441,-0.358C0.457,-0.377 0.47,-0.398 0.48,-0.422C0.489,-0.446 0.494,-0.474 0.494,-0.505C0.494,-0.538 0.488,-0.568 0.477,-0.593C0.465,-0.618 0.449,-0.64 0.429,-0.657C0.409,-0.674 0.386,-0.687 0.359,-0.696C0.331,-0.705 0.303,-0.709 0.272,-0.709C0.235,-0.709 0.201,-0.703 0.172,-0.69C0.143,-0.677 0.118,-0.66 0.099,-0.638C0.079,-0.615 0.064,-0.589 0.055,-0.558C0.046,-0.527 0.042,-0.494 0.044,-0.458Z" style="fill-rule:nonzero;"/>
            </g>
            <g transform="matrix(6,0,0,6,0,0)">
                <path d="M0.132,-0.349C0.132,-0.366 0.132,-0.386 0.133,-0.407C0.133,-0.428 0.135,-0.448 0.138,-0.47C0.141,-0.491 0.145,-0.511 0.151,-0.531C0.156,-0.551 0.165,-0.569 0.176,-0.584C0.187,-0.599 0.2,-0.611 0.217,-0.62C0.234,-0.629 0.254,-0.634 0.278,-0.634C0.302,-0.634 0.322,-0.629 0.339,-0.62C0.356,-0.611 0.37,-0.599 0.381,-0.584C0.392,-0.569 0.4,-0.551 0.406,-0.531C0.411,-0.511 0.416,-0.491 0.419,-0.47C0.422,-0.448 0.423,-0.428 0.424,-0.407C0.424,-0.386 0.424,-0.366 0.424,-0.349C0.424,-0.322 0.423,-0.293 0.422,-0.26C0.42,-0.227 0.415,-0.196 0.406,-0.167C0.397,-0.137 0.382,-0.113 0.362,-0.093C0.342,-0.073 0.314,-0.063 0.278,-0.063C0.242,-0.063 0.214,-0.073 0.194,-0.093C0.174,-0.113 0.16,-0.137 0.151,-0.167C0.141,-0.196 0.136,-0.227 0.135,-0.26C0.133,-0.293 0.132,-0.322 0.132,-0.349ZM0.042,-0.348C0.042,-0.322 0.043,-0.295 0.044,-0.267C0.045,-0.239 0.049,-0.212 0.054,-0.185C0.059,-0.158 0.067,-0.133 0.077,-0.11C0.087,-0.086 0.101,-0.065 0.118,-0.047C0.135,-0.029 0.157,-0.015 0.184,-0.005C0.21,0.006 0.241,0.011 0.278,0.011C0.315,0.011 0.347,0.006 0.373,-0.005C0.399,-0.015 0.421,-0.029 0.438,-0.047C0.455,-0.065 0.469,-0.086 0.479,-0.11C0.489,-0.133 0.497,-0.158 0.502,-0.185C0.507,-0.212 0.511,-0.239 0.512,-0.267C0.513,-0.295 0.514,-0.322 0.514,-0.348C0.514,-0.374 0.513,-0.401 0.512,-0.429C0.511,-0.457 0.507,-0.484 0.502,-0.511C0.497,-0.538 0.489,-0.563 0.479,-0.587C0.469,-0.611 0.455,-0.632 0.438,-0.65C0.421,-0.668 0.399,-0.682 0.373,-0.693C0.346,-0.704 0.315,-0.709 0.278,-0.709C0.241,-0.709 0.21,-0.704 0.184,-0.693C0.157,-0.682 0.135,-0.668 0.118,-0.65C0.101,-0.632 0.087,-0.611 0.077,-0.587C0.067,-0.563 0.059,-0.538 0.054,-0.511C0.049,-0.484 0.045,-0.457 0.044,-0.429C0.043,-0.401 0.042,-0.374 0.042,-0.348Z" style="fill-rule:nonzero;"/>
            </g>
        </g>
        <g transform="matrix(1,0,0,1,59.958,31.1945)">
            <g transform="matrix(6,0,0,6,-3.336,0)">
                <path d="M0.044,-0.458L0.129,-0.458C0.128,-0.479 0.131,-0.501 0.136,-0.522C0.141,-0.543 0.149,-0.561 0.16,-0.578C0.171,-0.595 0.186,-0.608 0.204,-0.619C0.221,-0.629 0.242,-0.634 0.267,-0.634C0.286,-0.634 0.303,-0.631 0.32,-0.625C0.337,-0.619 0.351,-0.61 0.364,-0.599C0.376,-0.588 0.386,-0.574 0.393,-0.559C0.4,-0.543 0.404,-0.525 0.404,-0.506C0.404,-0.481 0.4,-0.46 0.393,-0.441C0.385,-0.422 0.374,-0.405 0.359,-0.389C0.343,-0.373 0.325,-0.357 0.302,-0.342C0.279,-0.326 0.253,-0.309 0.223,-0.29C0.198,-0.275 0.175,-0.26 0.152,-0.243C0.129,-0.226 0.109,-0.207 0.091,-0.185C0.073,-0.163 0.058,-0.137 0.047,-0.108C0.035,-0.078 0.027,-0.042 0.024,-0L0.487,-0L0.487,-0.075L0.123,-0.075C0.127,-0.097 0.135,-0.117 0.149,-0.134C0.162,-0.151 0.177,-0.166 0.196,-0.181C0.214,-0.196 0.234,-0.21 0.256,-0.223C0.278,-0.236 0.3,-0.249 0.322,-0.262C0.344,-0.276 0.365,-0.291 0.386,-0.306C0.407,-0.321 0.425,-0.339 0.441,-0.358C0.457,-0.377 0.47,-0.398 0.48,-0.422C0.489,-0.446 0.494,-0.474 0.494,-0.505C0.494,-0.538 0.488,-0.568 0.477,-0.593C0.465,-0.618 0.449,-0.64 0.429,-0.657C0.409,-0.674 0.386,-0.687 0.359,-0.696C0.331,-0.705 0.303,-0.709 0.272,-0.709C0.235,-0.709 0.201,-0.703 0.172,-0.69C0.143,-0.677 0.118,-0.66 0.099,-0.638C0.079,-0.615 0.064,-0.589 0.055,-0.558C0.046,-0.527 0.042,-0.494 0.044,-0.458Z" style="fill-rule:nonzero;"/>
            </g>
            <g transform="matrix(6,0,0,6,0,0)">
                <path d="M0.356,-0L0.356,-0.709L0.291,-0.709C0.286,-0.682 0.278,-0.66 0.265,-0.643C0.252,-0.626 0.237,-0.612 0.219,-0.602C0.2,-0.592 0.18,-0.585 0.157,-0.582C0.134,-0.578 0.111,-0.576 0.087,-0.576L0.087,-0.508L0.271,-0.508L0.271,-0L0.356,-0Z" style="fill-rule:nonzero;"/>
            </g>
        </g>
        <g transform="matrix(1,0,0,1,446.432,44.897)">
            <g transform="matrix(6,0,0,6,-3.336,0)">
                <path d="M0.044,-0.458L0.129,-0.458C0.128,-0.479 0.131,-0.501 0.136,-0.522C0.141,-0.543 0.149,-0.561 0.16,-0.578C0.171,-0.595 0.186,-0.608 0.204,-0.619C0.221,-0.629 0.242,-0.634 0.267,-0.634C0.286,-0.634 0.303,-0.631 0.32,-0.625C0.337,-0.619 0.351,-0.61 0.364,-0.599C0.376,-0.588 0.386,-0.574 0.393,-0.559C0.4,-0.543 0.404,-0.525 0.404,-0.506C0.404,-0.481 0.4,-0.46 0.393,-0.441C0.385,-0.422 0.374,-0.405 0.359,-0.389C0.343,-0.373 0.325,-0.357 0.302,-0.342C0.279,-0.326 0.253,-0.309 0.223,-0.29C0.198,-0.275 0.175,-0.26 0.152,-0.243C0.129,-0.226 0.109,-0.207 0.091,-0.185C0.073,-0.163 0.058,-0.137 0.047,-0.108C0.035,-0.078 0.027,-0.042 0.024,-0L0.487,-0L0.487,-0.075L0.123,-0.075C0.127,-0.097 0.135,-0.117 0.149,-0.134C0.162,-0.151 0.177,-0.166 0.196,-0.181C0.214,-0.196 0.234,-0.21 0.256,-0.223C0.278,-0.236 0.3,-0.249 0.322,-0.262C0.344,-0.276 0.365,-0.291 0.386,-0.306C0.407,-0.321 0.425,-0.339 0.441,-0.358C0.457,-0.377 0.47,-0.398 0.48,-0.422C0.489,-0.446 0.494,-0.474 0.494,-0.505C0.494,-0.538 0.488,-0.568 0.477,-0.593C0.465,-0.618 0.449,-0.64 0.429,-0.657C0.409,-0.674 0.386,-0.687 0.359,-0.696C0.331,-0.705 0.303,-0.709 0.272,-0.709C0.235,-0.709 0.201,-0.703 0.172,-0.69C0.143,-0.677 0.118,-0.66 0.099,-0.638C0.079,-0.615 0.064,-0.589 0.055,-0.558C0.046,-0.527 0.042,-0.494 0.044,-0.458Z" style="fill-rule:nonzero;"/>
            </g>
            <g transform="matrix(6,0,0,6,0,0)">
                <path d="M0.044,-0.458L0.129,-0.458C0.128,-0.479 0.131,-0.501 0.136,-0.522C0.141,-0.543 0.149,-0.561 0.16,-0.578C0.171,-0.595 0.186,-0.608 0.204,-0.619C0.221,-0.629 0.242,-0.634 0.267,-0.634C0.286,-0.634 0.303,-0.631 0.32,-0.625C0.337,-0.619 0.351,-0.61 0.364,-0.599C0.376,-0.588 0.386,-0.574 0.393,-0.559C0.4,-0.543 0.404,-0.525 0.404,-0.506C0.404,-0.481 0.4,-0.46 0.393,-0.441C0.385,-0.422 0.374,-0.405 0.359,-0.389C0.343,-0.373 0.325,-0.357 0.302,-0.342C0.279,-0.326 0.253,-0.309 0.223,-0.29C0.198,-0.275 0.175,-0.26 0.152,-0.243C0.129,-0.226 0.109,-0.207 0.091,-0.185C0.073,-0.163 0.058,-0.137 0.047,-0.108C0.035,-0.078 0.027,-0.042 0.024,-0L0.487,-0L0.487,-0.075L0.123,-0.075C0.127,-0.097 0.135,-0.117 0.149,-0.134C0.162,-0.151 0.177,-0.166 0.196,-0.181C0.214,-0.196 0.234,-0.21 0.256,-0.223C0.278,-0.236 0.3,-0.249 0.322,-0.262C0.344,-0.276 0.365,-0.291 0.386,-0.306C0.407,-0.321 0.425,-0.339 0.441,-0.358C0.457,-0.377 0.47,-0.398 0.48,-0.422C0.489,-0.446 0.494,-0.474 0.494,-0.505C0.494,-0.538 0.488,-0.568 0.477,-0.593C0.465,-0.618 0.449,-0.64 0.429,-0.657C0.409,-0.674 0.386,-0.687 0.359,-0.696C0.331,-0.705 0.303,-0.709 0.272,-0.709C0.235,-0.709 0.201,-0.703 0.172,-0.69C0.143,-0.677 0.118,-0.66 0.099,-0.638C0.079,-0.615 0.064,-0.589 0.055,-0.558C0.046,-0.527 0.042,-0.494 0.044,-0.458Z" style="fill-rule:nonzero;"/>
            </g>
        </g>
        <g transform="matrix(1,0,0,1,79.9523,15.2299)">
            <g transform="matrix(6,0,0,6,-3.336,0)">
                <path d="M0.044,-0.458L0.129,-0.458C0.128,-0.479 0.131,-0.501 0.136,-0.522C0.141,-0.543 0.149,-0.561 0.16,-0.578C0.171,-0.595 0.186,-0.608 0.204,-0.619C0.221,-0.629 0.242,-0.634 0.267,-0.634C0.286,-0.634 0.303,-0.631 0.32,-0.625C0.337,-0.619 0.351,-0.61 0.364,-0.599C0.376,-0.588 0.386,-0.574 0.393,-0.559C0.4,-0.543 0.404,-0.525 0.404,-0.506C0.404,-0.481 0.4,-0.46 0.393,-0.441C0.385,-0.422 0.374,-0.405 0.359,-0.389C0.343,-0.373 0.325,-0.357 0.302,-0.342C0.279,-0.326 0.253,-0.309 0.223,-0.29C0.198,-0.275 0.175,-0.26 0.152,-0.243C0.129,-0.226 0.109,-0.207 0.091,-0.185C0.073,-0.163 0.058,-0.137 0.047,-0.108C0.035,-0.078 0.027,-0.042 0.024,-0L0.487,-0L0.487,-0.075L0.123,-0.075C0.127,-0.097 0.135,-0.117 0.149,-0.134C0.162,-0.151 0.177,-0.166 0.196,-0.181C0.214,-0.196 0.234,-0.21 0.256,-0.223C0.278,-0.236 0.3,-0.249 0.322,-0.262C0.344,-0.276 0.365,-0.291 0.386,-0.306C0.407,-0.321 0.425,-0.339 0.441,-0.358C0.457,-0.377 0.47,-0.398 0.48,-0.422C0.489,-0.446 0.494,-0.474 0.494,-0.505C0.494,-0.538 0.488,-0.568 0.477,-0.593C0.465,-0.618 0.449,-0.64 0.429,-0.657C0.409,-0.674 0.386,-0.687 0.359,-0.696C0.331,-0.705 0.303,-0.709 0.272,-0.709C0.235,-0.709 0.201,-0.703 0.172,-0.69C0.143,-0.677 0.118,-0.66 0.099,-0.638C0.079,-0.615 0.064,-0.589 0.055,-0.558C0.046,-0.527 0.042,-0.494 0.044,-0.458Z" style="fill-rule:nonzero;"/>
            </g>
            <g transform="matrix(6,0,0,6,0,0)">
                <path d="M0.218,-0.405L0.218,-0.333C0.234,-0.335 0.251,-0.336 0.269,-0.336C0.29,-0.336 0.31,-0.333 0.329,-0.328C0.347,-0.322 0.363,-0.313 0.376,-0.302C0.389,-0.29 0.4,-0.276 0.408,-0.259C0.416,-0.242 0.42,-0.222 0.42,-0.2C0.42,-0.179 0.416,-0.16 0.408,-0.143C0.399,-0.126 0.388,-0.111 0.374,-0.1C0.36,-0.088 0.344,-0.079 0.325,-0.073C0.306,-0.066 0.287,-0.063 0.266,-0.063C0.217,-0.063 0.18,-0.078 0.155,-0.107C0.13,-0.135 0.116,-0.173 0.115,-0.219L0.03,-0.219C0.029,-0.182 0.035,-0.15 0.046,-0.121C0.056,-0.092 0.072,-0.068 0.093,-0.049C0.114,-0.029 0.139,-0.014 0.168,-0.004C0.197,0.006 0.23,0.011 0.266,0.011C0.299,0.011 0.331,0.007 0.361,-0.003C0.39,-0.012 0.416,-0.025 0.438,-0.043C0.46,-0.061 0.478,-0.084 0.491,-0.111C0.503,-0.137 0.51,-0.169 0.51,-0.204C0.51,-0.247 0.5,-0.284 0.479,-0.315C0.458,-0.346 0.425,-0.367 0.382,-0.376L0.382,-0.378C0.41,-0.391 0.433,-0.409 0.452,-0.434C0.471,-0.459 0.48,-0.487 0.48,-0.519C0.48,-0.552 0.474,-0.58 0.464,-0.604C0.452,-0.628 0.437,-0.648 0.418,-0.663C0.399,-0.678 0.376,-0.69 0.35,-0.698C0.323,-0.705 0.295,-0.709 0.264,-0.709C0.229,-0.709 0.198,-0.703 0.171,-0.692C0.143,-0.681 0.121,-0.665 0.103,-0.645C0.085,-0.625 0.071,-0.601 0.062,-0.573C0.052,-0.545 0.046,-0.514 0.045,-0.48L0.13,-0.48C0.13,-0.501 0.133,-0.52 0.138,-0.539C0.143,-0.558 0.152,-0.574 0.163,-0.588C0.173,-0.602 0.188,-0.613 0.205,-0.622C0.222,-0.63 0.241,-0.634 0.264,-0.634C0.3,-0.634 0.33,-0.624 0.354,-0.606C0.378,-0.587 0.39,-0.558 0.39,-0.52C0.39,-0.501 0.386,-0.485 0.379,-0.47C0.372,-0.455 0.362,-0.443 0.35,-0.434C0.337,-0.424 0.323,-0.417 0.307,-0.412C0.29,-0.407 0.273,-0.404 0.255,-0.404L0.227,-0.404C0.224,-0.404 0.221,-0.404 0.218,-0.405Z" style="fill-rule:nonzero;"/>
            </g>
        </g>
        <g transform="matrix(1,0,0,1,65.0979,172.509)">
            <g transform="matrix(6,0,0,6,-3.336,0)">
                <path d="M0.044,-0.458L0.129,-0.458C0.128,-0.479 0.131,-0.501 0.136,-0.522C0.141,-0.543 0.149,-0.561 0.16,-0.578C0.171,-0.595 0.186,-0.608 0.204,-0.619C0.221,-0.629 0.242,-0.634 0.267,-0.634C0.286,-0.634 0.303,-0.631 0.32,-0.625C0.337,-0.619 0.351,-0.61 0.364,-0.599C0.376,-0.588 0.386,-0.574 0.393,-0.559C0.4,-0.543 0.404,-0.525 0.404,-0.506C0.404,-0.481 0.4,-0.46 0.393,-0.441C0.385,-0.422 0.374,-0.405 0.359,-0.389C0.343,-0.373 0.325,-0.357 0.302,-0.342C0.279,-0.326 0.253,-0.309 0.223,-0.29C0.198,-0.275 0.175,-0.26 0.152,-0.243C0.129,-0.226 0.109,-0.207 0.091,-0.185C0.073,-0.163 0.058,-0.137 0.047,-0.108C0.035,-0.078 0.027,-0.042 0.024,-0L0.487,-0L0.487,-0.075L0.123,-0.075C0.127,-0.097 0.135,-0.117 0.149,-0.134C0.162,-0.151 0.177,-0.166 0.196,-0.181C0.214,-0.196 0.234,-0.21 0.256,-0.223C0.278,-0.236 0.3,-0.249 0.322,-0.262C0.344,-0.276 0.365,-0.291 0.386,-0.306C0.407,-0.321 0.425,-0.339 0.441,-0.358C0.457,-0.377 0.47,-0.398 0.48,-0.422C0.489,-0.446 0.494,-0.474 0.494,-0.505C0.494,-0.538 0.488,-0.568 0.477,-0.593C0.465,-0.618 0.449,-0.64 0.429,-0.657C0.409,-0.674 0.386,-0.687 0.359,-0.696C0.331,-0.705 0.303,-0.709 0.272,-0.709C0.235,-0.709 0.201,-0.703 0.172,-0.69C0.143,-0.677 0.118,-0.66 0.099,-0.638C0.079,-0.615 0.064,-0.589 0.055,-0.558C0.046,-0.527 0.042,-0.494 0.044,-0.458Z" style="fill-rule:nonzero;"/>
            </g>
            <g transform="matrix(6,0,0,6,0,0)">
                <path d="M0.339,-0.241L0.101,-0.241L0.337,-0.588L0.339,-0.588L0.339,-0.241ZM0.419,-0.241L0.419,-0.709L0.351,-0.709L0.028,-0.248L0.028,-0.166L0.339,-0.166L0.339,-0L0.419,-0L0.419,-0.166L0.515,-0.166L0.515,-0.241L0.419,-0.241Z" style="fill-rule:nonzero;"/>
            </g>
        </g>
        <g transform="matrix(1,0,0,1,126.39,261.244)">
            <g transform="matrix(6,0,0,6,-3.336,0)">
                <path d="M0.044,-0.458L0.129,-0.458C0.128,-0.479 0.131,-0.501 0.136,-0.522C0.141,-0.543 0.149,-0.561 0.16,-0.578C0.171,-0.595 0.186,-0.608 0.204,-0.619C0.221,-0.629 0.242,-0.634 0.267,-0.634C0.286,-0.634 0.303,-0.631 0.32,-0.625C0.337,-0.619 0.351,-0.61 0.364,-0.599C0.376,-0.588 0.386,-0.574 0.393,-0.559C0.4,-0.543 0.404,-0.525 0.404,-0.506C0.404,-0.481 0.4,-0.46 0.393,-0.441C0.385,-0.422 0.374,-0.405 0.359,-0.389C0.343,-0.373 0.325,-0.357 0.302,-0.342C0.279,-0.326 0.253,-0.309 0.223,-0.29C0.198,-0.275 0.175,-0.26 0.152,-0.243C0.129,-0.226 0.109,-0.207 0.091,-0.185C0.073,-0.163 0.058,-0.137 0.047,-0.108C0.035,-0.078 0.027,-0.042 0.024,-0L0.487,-0L0.487,-0.075L0.123,-0.075C0.127,-0.097 0.135,-0.117 0.149,-0.134C0.162,-0.151 0.177,-0.166 0.196,-0.181C0.214,-0.196 0.234,-0.21 0.256,-0.223C0.278,-0.236 0.3,-0.249 0.322,-0.262C0.344,-0.276 0.365,-0.291 0.386,-0.306C0.407,-0.321 0.425,-0.339 0.441,-0.358C0.457,-0.377 0.47,-0.398 0.48,-0.422C0.489,-0.446 0.494,-0.474 0.494,-0.505C0.494,-0.538 0.488,-0.568 0.477,-0.593C0.465,-0.618 0.449,-0.64 0.429,-0.657C0.409,-0.674 0.386,-0.687 0.359,-0.696C0.331,-0.705 0.303,-0.709 0.272,-0.709C0.235,-0.709 0.201,-0.703 0.172,-0.69C0.143,-0.677 0.118,-0.66 0.099,-0.638C0.079,-0.615 0.064,-0.589 0.055,-0.558C0.046,-0.527 0.042,-0.494 0.044,-0.458Z" style="fill-rule:nonzero;"/>
            </g>
            <g transform="matrix(6,0,0,6,0,0)">
                <path d="M0.47,-0.622L0.47,-0.697L0.12,-0.697L0.054,-0.329L0.127,-0.325C0.144,-0.345 0.163,-0.361 0.185,-0.374C0.206,-0.386 0.231,-0.392 0.259,-0.392C0.283,-0.392 0.305,-0.388 0.325,-0.38C0.344,-0.372 0.361,-0.361 0.375,-0.347C0.389,-0.332 0.4,-0.315 0.408,-0.296C0.415,-0.276 0.419,-0.254 0.419,-0.231C0.419,-0.203 0.415,-0.179 0.407,-0.158C0.399,-0.136 0.388,-0.119 0.375,-0.105C0.361,-0.091 0.345,-0.081 0.327,-0.074C0.308,-0.067 0.289,-0.063 0.269,-0.063C0.248,-0.063 0.228,-0.066 0.211,-0.073C0.193,-0.079 0.178,-0.088 0.165,-0.1C0.152,-0.111 0.141,-0.125 0.134,-0.141C0.126,-0.156 0.121,-0.173 0.12,-0.191L0.035,-0.191C0.036,-0.159 0.042,-0.13 0.054,-0.105C0.066,-0.08 0.082,-0.059 0.103,-0.042C0.124,-0.025 0.148,-0.012 0.175,-0.003C0.202,0.007 0.23,0.011 0.261,0.011C0.302,0.011 0.339,0.005 0.37,-0.009C0.401,-0.022 0.426,-0.039 0.447,-0.061C0.468,-0.083 0.483,-0.108 0.494,-0.137C0.504,-0.165 0.509,-0.194 0.509,-0.224C0.509,-0.265 0.503,-0.3 0.491,-0.331C0.479,-0.361 0.463,-0.386 0.442,-0.407C0.421,-0.427 0.397,-0.442 0.369,-0.452C0.341,-0.462 0.311,-0.467 0.28,-0.467C0.256,-0.467 0.232,-0.463 0.208,-0.455C0.183,-0.446 0.163,-0.433 0.148,-0.416L0.146,-0.418L0.184,-0.622L0.47,-0.622Z" style="fill-rule:nonzero;"/>
            </g>
        </g>
        <g transform="matrix(1,0,0,1,93.7534,249.269)">
            <g transform="matrix(6,0,0,6,-3.336,0)">
                <path d="M0.044,-0.458L0.129,-0.458C0.128,-0.479 0.131,-0.501 0.136,-0.522C0.141,-0.543 0.149,-0.561 0.16,-0.578C0.171,-0.595 0.186,-0.608 0.204,-0.619C0.221,-0.629 0.242,-0.634 0.267,-0.634C0.286,-0.634 0.303,-0.631 0.32,-0.625C0.337,-0.619 0.351,-0.61 0.364,-0.599C0.376,-0.588 0.386,-0.574 0.393,-0.559C0.4,-0.543 0.404,-0.525 0.404,-0.506C0.404,-0.481 0.4,-0.46 0.393,-0.441C0.385,-0.422 0.374,-0.405 0.359,-0.389C0.343,-0.373 0.325,-0.357 0.302,-0.342C0.279,-0.326 0.253,-0.309 0.223,-0.29C0.198,-0.275 0.175,-0.26 0.152,-0.243C0.129,-0.226 0.109,-0.207 0.091,-0.185C0.073,-0.163 0.058,-0.137 0.047,-0.108C0.035,-0.078 0.027,-0.042 0.024,-0L0.487,-0L0.487,-0.075L0.123,-0.075C0.127,-0.097 0.135,-0.117 0.149,-0.134C0.162,-0.151 0.177,-0.166 0.196,-0.181C0.214,-0.196 0.234,-0.21 0.256,-0.223C0.278,-0.236 0.3,-0.249 0.322,-0.262C0.344,-0.276 0.365,-0.291 0.386,-0.306C0.407,-0.321 0.425,-0.339 0.441,-0.358C0.457,-0.377 0.47,-0.398 0.48,-0.422C0.489,-0.446 0.494,-0.474 0.494,-0.505C0.494,-0.538 0.488,-0.568 0.477,-0.593C0.465,-0.618 0.449,-0.64 0.429,-0.657C0.409,-0.674 0.386,-0.687 0.359,-0.696C0.331,-0.705 0.303,-0.709 0.272,-0.709C0.235,-0.709 0.201,-0.703 0.172,-0.69C0.143,-0.677 0.118,-0.66 0.099,-0.638C0.079,-0.615 0.064,-0.589 0.055,-0.558C0.046,-0.527 0.042,-0.494 0.044,-0.458Z" style="fill-rule:nonzero;"/>
            </g>
            <g transform="matrix(6,0,0,6,0,0)">
                <path d="M0.414,-0.528L0.499,-0.528C0.494,-0.587 0.474,-0.631 0.439,-0.663C0.404,-0.693 0.358,-0.709 0.299,-0.709C0.248,-0.709 0.206,-0.698 0.173,-0.677C0.14,-0.656 0.113,-0.627 0.093,-0.592C0.073,-0.557 0.059,-0.516 0.051,-0.471C0.042,-0.425 0.038,-0.378 0.038,-0.329C0.038,-0.292 0.041,-0.253 0.047,-0.213C0.052,-0.173 0.064,-0.136 0.081,-0.103C0.098,-0.07 0.123,-0.042 0.155,-0.021C0.187,0 0.229,0.011 0.282,0.011C0.327,0.011 0.364,0.003 0.395,-0.012C0.425,-0.027 0.449,-0.046 0.468,-0.069C0.486,-0.092 0.499,-0.117 0.507,-0.145C0.515,-0.173 0.519,-0.2 0.519,-0.226C0.519,-0.259 0.514,-0.289 0.504,-0.317C0.494,-0.345 0.48,-0.369 0.462,-0.39C0.443,-0.411 0.421,-0.427 0.394,-0.439C0.367,-0.45 0.336,-0.456 0.302,-0.456C0.263,-0.456 0.229,-0.449 0.2,-0.434C0.17,-0.419 0.145,-0.396 0.125,-0.363L0.123,-0.365C0.124,-0.392 0.126,-0.422 0.131,-0.453C0.136,-0.484 0.144,-0.514 0.157,-0.541C0.169,-0.568 0.186,-0.59 0.208,-0.608C0.23,-0.625 0.259,-0.634 0.295,-0.634C0.329,-0.634 0.356,-0.624 0.377,-0.605C0.398,-0.586 0.41,-0.56 0.414,-0.528ZM0.286,-0.381C0.31,-0.381 0.331,-0.377 0.349,-0.368C0.367,-0.359 0.382,-0.348 0.394,-0.334C0.406,-0.319 0.415,-0.302 0.421,-0.283C0.426,-0.263 0.429,-0.242 0.429,-0.22C0.429,-0.199 0.426,-0.18 0.42,-0.161C0.413,-0.141 0.404,-0.125 0.392,-0.11C0.38,-0.095 0.365,-0.084 0.348,-0.076C0.33,-0.067 0.309,-0.063 0.286,-0.063C0.263,-0.063 0.242,-0.067 0.224,-0.076C0.205,-0.084 0.19,-0.095 0.178,-0.109C0.165,-0.123 0.156,-0.14 0.149,-0.159C0.142,-0.178 0.139,-0.199 0.139,-0.221C0.139,-0.243 0.142,-0.264 0.149,-0.284C0.155,-0.303 0.164,-0.32 0.177,-0.335C0.19,-0.349 0.205,-0.36 0.223,-0.369C0.241,-0.377 0.262,-0.381 0.286,-0.381Z" style="fill-rule:nonzero;"/>
            </g>
        </g>
        <g transform="matrix(1,0,0,1,10.9165,111.186)">
            <g transform="matrix(6,0,0,6,-3.336,0)">
                <path d="M0.044,-0.458L0.129,-0.458C0.128,-0.479 0.131,-0.501 0.136,-0.522C0.141,-0.543 0.149,-0.561 0.16,-0.578C0.171,-0.595 0.186,-0.608 0.204,-0.619C0.221,-0.629 0.242,-0.634 0.267,-0.634C0.286,-0.634 0.303,-0.631 0.32,-0.625C0.337,-0.619 0.351,-0.61 0.364,-0.599C0.376,-0.588 0.386,-0.574 0.393,-0.559C0.4,-0.543 0.404,-0.525 0.404,-0.506C0.404,-0.481 0.4,-0.46 0.393,-0.441C0.385,-0.422 0.374,-0.405 0.359,-0.389C0.343,-0.373 0.325,-0.357 0.302,-0.342C0.279,-0.326 0.253,-0.309 0.223,-0.29C0.198,-0.275 0.175,-0.26 0.152,-0.243C0.129,-0.226 0.109,-0.207 0.091,-0.185C0.073,-0.163 0.058,-0.137 0.047,-0.108C0.035,-0.078 0.027,-0.042 0.024,-0L0.487,-0L0.487,-0.075L0.123,-0.075C0.127,-0.097 0.135,-0.117 0.149,-0.134C0.162,-0.151 0.177,-0.166 0.196,-0.181C0.214,-0.196 0.234,-0.21 0.256,-0.223C0.278,-0.236 0.3,-0.249 0.322,-0.262C0.344,-0.276 0.365,-0.291 0.386,-0.306C0.407,-0.321 0.425,-0.339 0.441,-0.358C0.457,-0.377 0.47,-0.398 0.48,-0.422C0.489,-0.446 0.494,-0.474 0.494,-0.505C0.494,-0.538 0.488,-0.568 0.477,-0.593C0.465,-0.618 0.449,-0.64 0.429,-0.657C0.409,-0.674 0.386,-0.687 0.359,-0.696C0.331,-0.705 0.303,-0.709 0.272,-0.709C0.235,-0.709 0.201,-0.703 0.172,-0.69C0.143,-0.677 0.118,-0.66 0.099,-0.638C0.079,-0.615 0.064,-0.589 0.055,-0.558C0.046,-0.527 0.042,-0.494 0.044,-0.458Z" style="fill-rule:nonzero;"/>
            </g>
            <g transform="matrix(6,0,0,6,0,0)">
                <path d="M0.509,-0.624L0.509,-0.697L0.05,-0.697L0.05,-0.617L0.422,-0.617C0.385,-0.578 0.35,-0.535 0.318,-0.488C0.285,-0.441 0.257,-0.392 0.232,-0.34C0.207,-0.287 0.187,-0.233 0.172,-0.176C0.156,-0.119 0.146,-0.06 0.142,-0L0.237,-0C0.24,-0.055 0.25,-0.112 0.265,-0.171C0.28,-0.23 0.3,-0.287 0.325,-0.342C0.349,-0.397 0.377,-0.449 0.408,-0.498C0.439,-0.547 0.473,-0.589 0.509,-0.624Z" style="fill-rule:nonzero;"/>
            </g>
        </g>
        <g transform="matrix(1,0,0,1,132.943,198.276)">
            <g transform="matrix(6,0,0,6,-3.336,0)">
                <path d="M0.044,-0.458L0.129,-0.458C0.128,-0.479 0.131,-0.501 0.136,-0.522C0.141,-0.543 0.149,-0.561 0.16,-0.578C0.171,-0.595 0.186,-0.608 0.204,-0.619C0.221,-0.629 0.242,-0.634 0.267,-0.634C0.286,-0.634 0.303,-0.631 0.32,-0.625C0.337,-0.619 0.351,-0.61 0.364,-0.599C0.376,-0.588 0.386,-0.574 0.393,-0.559C0.4,-0.543 0.404,-0.525 0.404,-0.506C0.404,-0.481 0.4,-0.46 0.393,-0.441C0.385,-0.422 0.374,-0.405 0.359,-0.389C0.343,-0.373 0.325,-0.357 0.302,-0.342C0.279,-0.326 0.253,-0.309 0.223,-0.29C0.198,-0.275 0.175,-0.26 0.152,-0.243C0.129,-0.226 0.109,-0.207 0.091,-0.185C0.073,-0.163 0.058,-0.137 0.047,-0.108C0.035,-0.078 0.027,-0.042 0.024,-0L0.487,-0L0.487,-0.075L0.123,-0.075C0.127,-0.097 0.135,-0.117 0.149,-0.134C0.162,-0.151 0.177,-0.166 0.196,-0.181C0.214,-0.196 0.234,-0.21 0.256,-0.223C0.278,-0.236 0.3,-0.249 0.322,-0.262C0.344,-0.276 0.365,-0.291 0.386,-0.306C0.407,-0.321 0.425,-0.339 0.441,-0.358C0.457,-0.377 0.47,-0.398 0.48,-0.422C0.489,-0.446 0.494,-0.474 0.494,-0.505C0.494,-0.538 0.488,-0.568 0.477,-0.593C0.465,-0.618 0.449,-0.64 0.429,-0.657C0.409,-0.674 0.386,-0.687 0.359,-0.696C0.331,-0.705 0.303,-0.709 0.272,-0.709C0.235,-0.709 0.201,-0.703 0.172,-0.69C0.143,-0.677 0.118,-0.66 0.099,-0.638C0.079,-0.615 0.064,-0.589 0.055,-0.558C0.046,-0.527 0.042,-0.494 0.044,-0.458Z" style="fill-rule:nonzero;"/>
            </g>
            <g transform="matrix(6,0,0,6,0,0)">
                <path d="M0.155,-0.525C0.155,-0.543 0.158,-0.559 0.165,-0.572C0.172,-0.585 0.181,-0.597 0.192,-0.606C0.203,-0.615 0.216,-0.622 0.231,-0.627C0.246,-0.632 0.262,-0.634 0.279,-0.634C0.314,-0.634 0.342,-0.625 0.365,-0.607C0.387,-0.588 0.398,-0.561 0.398,-0.525C0.398,-0.489 0.387,-0.461 0.365,-0.441C0.343,-0.421 0.315,-0.411 0.281,-0.411C0.264,-0.411 0.247,-0.413 0.232,-0.418C0.217,-0.423 0.203,-0.43 0.192,-0.439C0.181,-0.448 0.172,-0.46 0.165,-0.475C0.158,-0.489 0.155,-0.506 0.155,-0.525ZM0.065,-0.528C0.065,-0.496 0.074,-0.466 0.092,-0.44C0.11,-0.413 0.134,-0.393 0.164,-0.381C0.124,-0.367 0.093,-0.345 0.072,-0.314C0.051,-0.283 0.04,-0.246 0.04,-0.204C0.04,-0.168 0.046,-0.136 0.059,-0.11C0.071,-0.083 0.088,-0.06 0.11,-0.042C0.131,-0.024 0.157,-0.011 0.186,-0.002C0.215,0.007 0.247,0.011 0.281,0.011C0.314,0.011 0.344,0.006 0.373,-0.003C0.402,-0.012 0.427,-0.026 0.448,-0.045C0.468,-0.063 0.485,-0.085 0.498,-0.112C0.51,-0.139 0.516,-0.169 0.516,-0.204C0.516,-0.248 0.506,-0.285 0.485,-0.316C0.464,-0.346 0.433,-0.368 0.39,-0.381C0.42,-0.394 0.444,-0.414 0.462,-0.441C0.479,-0.467 0.488,-0.496 0.488,-0.528C0.488,-0.551 0.484,-0.573 0.476,-0.595C0.468,-0.616 0.456,-0.635 0.439,-0.653C0.422,-0.67 0.399,-0.683 0.372,-0.694C0.345,-0.704 0.312,-0.709 0.273,-0.709C0.246,-0.709 0.22,-0.705 0.195,-0.697C0.169,-0.689 0.147,-0.677 0.128,-0.662C0.109,-0.647 0.093,-0.628 0.082,-0.606C0.071,-0.583 0.065,-0.557 0.065,-0.528ZM0.13,-0.2C0.13,-0.221 0.134,-0.239 0.142,-0.256C0.149,-0.273 0.16,-0.287 0.174,-0.299C0.187,-0.311 0.203,-0.32 0.222,-0.327C0.24,-0.333 0.259,-0.336 0.28,-0.336C0.3,-0.336 0.319,-0.333 0.337,-0.326C0.354,-0.319 0.37,-0.309 0.383,-0.297C0.396,-0.285 0.407,-0.271 0.415,-0.255C0.422,-0.238 0.426,-0.22 0.426,-0.201C0.426,-0.181 0.423,-0.163 0.416,-0.146C0.409,-0.129 0.399,-0.115 0.386,-0.103C0.373,-0.09 0.357,-0.081 0.34,-0.074C0.322,-0.067 0.302,-0.063 0.281,-0.063C0.237,-0.063 0.201,-0.075 0.173,-0.1C0.144,-0.124 0.13,-0.157 0.13,-0.2Z" style="fill-rule:nonzero;"/>
            </g>
        </g>
        <g transform="matrix(1,0,0,1,206.27,162.274)">
            <g transform="matrix(6,0,0,6,-3.336,0)">
                <path d="M0.044,-0.458L0.129,-0.458C0.128,-0.479 0.131,-0.501 0.136,-0.522C0.141,-0.543 0.149,-0.561 0.16,-0.578C0.171,-0.595 0.186,-0.608 0.204,-0.619C0.221,-0.629 0.242,-0.634 0.267,-0.634C0.286,-0.634 0.303,-0.631 0.32,-0.625C0.337,-0.619 0.351,-0.61 0.364,-0.599C0.376,-0.588 0.386,-0.574 0.393,-0.559C0.4,-0.543 0.404,-0.525 0.404,-0.506C0.404,-0.481 0.4,-0.46 0.393,-0.441C0.385,-0.422 0.374,-0.405 0.359,-0.389C0.343,-0.373 0.325,-0.357 0.302,-0.342C0.279,-0.326 0.253,-0.309 0.223,-0.29C0.198,-0.275 0.175,-0.26 0.152,-0.243C0.129,-0.226 0.109,-0.207 0.091,-0.185C0.073,-0.163 0.058,-0.137 0.047,-0.108C0.035,-0.078 0.027,-0.042 0.024,-0L0.487,-0L0.487,-0.075L0.123,-0.075C0.127,-0.097 0.135,-0.117 0.149,-0.134C0.162,-0.151 0.177,-0.166 0.196,-0.181C0.214,-0.196 0.234,-0.21 0.256,-0.223C0.278,-0.236 0.3,-0.249 0.322,-0.262C0.344,-0.276 0.365,-0.291 0.386,-0.306C0.407,-0.321 0.425,-0.339 0.441,-0.358C0.457,-0.377 0.47,-0.398 0.48,-0.422C0.489,-0.446 0.494,-0.474 0.494,-0.505C0.494,-0.538 0.488,-0.568 0.477,-0.593C0.465,-0.618 0.449,-0.64 0.429,-0.657C0.409,-0.674 0.386,-0.687 0.359,-0.696C0.331,-0.705 0.303,-0.709 0.272,-0.709C0.235,-0.709 0.201,-0.703 0.172,-0.69C0.143,-0.677 0.118,-0.66 0.099,-0.638C0.079,-0.615 0.064,-0.589 0.055,-0.558C0.046,-0.527 0.042,-0.494 0.044,-0.458Z" style="fill-rule:nonzero;"/>
            </g>
            <g transform="matrix(6,0,0,6,0,0)">
                <path d="M0.134,-0.171L0.049,-0.171C0.054,-0.11 0.077,-0.064 0.116,-0.034C0.155,-0.004 0.205,0.011 0.264,0.011C0.35,0.011 0.413,-0.022 0.452,-0.088C0.491,-0.153 0.51,-0.247 0.51,-0.37C0.51,-0.437 0.503,-0.493 0.491,-0.537C0.478,-0.58 0.46,-0.615 0.438,-0.64C0.416,-0.665 0.39,-0.683 0.361,-0.694C0.332,-0.704 0.3,-0.709 0.267,-0.709C0.233,-0.709 0.202,-0.703 0.173,-0.692C0.144,-0.681 0.12,-0.665 0.099,-0.645C0.078,-0.624 0.062,-0.6 0.051,-0.572C0.04,-0.543 0.034,-0.512 0.034,-0.478C0.034,-0.443 0.039,-0.411 0.049,-0.382C0.058,-0.353 0.073,-0.328 0.092,-0.307C0.111,-0.286 0.134,-0.27 0.162,-0.259C0.19,-0.247 0.222,-0.241 0.258,-0.241C0.293,-0.241 0.325,-0.25 0.354,-0.268C0.383,-0.285 0.406,-0.309 0.422,-0.339L0.424,-0.337C0.421,-0.244 0.407,-0.175 0.381,-0.131C0.355,-0.086 0.316,-0.063 0.264,-0.063C0.23,-0.063 0.201,-0.072 0.176,-0.091C0.151,-0.11 0.137,-0.136 0.134,-0.171ZM0.409,-0.472C0.409,-0.451 0.406,-0.432 0.399,-0.413C0.392,-0.394 0.383,-0.377 0.37,-0.363C0.357,-0.348 0.342,-0.337 0.324,-0.329C0.306,-0.32 0.286,-0.316 0.264,-0.316C0.243,-0.316 0.225,-0.32 0.208,-0.329C0.191,-0.337 0.176,-0.348 0.164,-0.362C0.151,-0.376 0.141,-0.392 0.135,-0.41C0.128,-0.428 0.124,-0.447 0.124,-0.466C0.124,-0.488 0.127,-0.509 0.132,-0.529C0.137,-0.549 0.145,-0.567 0.156,-0.583C0.167,-0.598 0.181,-0.611 0.199,-0.62C0.216,-0.629 0.238,-0.634 0.263,-0.634C0.287,-0.634 0.308,-0.63 0.326,-0.621C0.344,-0.612 0.359,-0.6 0.372,-0.586C0.384,-0.571 0.393,-0.553 0.4,-0.534C0.406,-0.515 0.409,-0.494 0.409,-0.472Z" style="fill-rule:nonzero;"/>
            </g>
        </g>
        <g transform="matrix(1,0,0,1,33.9937,123.59)">
            <g transform="matrix(6,0,0,6,-3.336,0)">
                <path d="M0.218,-0.405L0.218,-0.333C0.234,-0.335 0.251,-0.336 0.269,-0.336C0.29,-0.336 0.31,-0.333 0.329,-0.328C0.347,-0.322 0.363,-0.313 0.376,-0.302C0.389,-0.29 0.4,-0.276 0.408,-0.259C0.416,-0.242 0.42,-0.222 0.42,-0.2C0.42,-0.179 0.416,-0.16 0.408,-0.143C0.399,-0.126 0.388,-0.111 0.374,-0.1C0.36,-0.088 0.344,-0.079 0.325,-0.073C0.306,-0.066 0.287,-0.063 0.266,-0.063C0.217,-0.063 0.18,-0.078 0.155,-0.107C0.13,-0.135 0.116,-0.173 0.115,-0.219L0.03,-0.219C0.029,-0.182 0.035,-0.15 0.046,-0.121C0.056,-0.092 0.072,-0.068 0.093,-0.049C0.114,-0.029 0.139,-0.014 0.168,-0.004C0.197,0.006 0.23,0.011 0.266,0.011C0.299,0.011 0.331,0.007 0.361,-0.003C0.39,-0.012 0.416,-0.025 0.438,-0.043C0.46,-0.061 0.478,-0.084 0.491,-0.111C0.503,-0.137 0.51,-0.169 0.51,-0.204C0.51,-0.247 0.5,-0.284 0.479,-0.315C0.458,-0.346 0.425,-0.367 0.382,-0.376L0.382,-0.378C0.41,-0.391 0.433,-0.409 0.452,-0.434C0.471,-0.459 0.48,-0.487 0.48,-0.519C0.48,-0.552 0.474,-0.58 0.464,-0.604C0.452,-0.628 0.437,-0.648 0.418,-0.663C0.399,-0.678 0.376,-0.69 0.35,-0.698C0.323,-0.705 0.295,-0.709 0.264,-0.709C0.229,-0.709 0.198,-0.703 0.171,-0.692C0.143,-0.681 0.121,-0.665 0.103,-0.645C0.085,-0.625 0.071,-0.601 0.062,-0.573C0.052,-0.545 0.046,-0.514 0.045,-0.48L0.13,-0.48C0.13,-0.501 0.133,-0.52 0.138,-0.539C0.143,-0.558 0.152,-0.574 0.163,-0.588C0.173,-0.602 0.188,-0.613 0.205,-0.622C0.222,-0.63 0.241,-0.634 0.264,-0.634C0.3,-0.634 0.33,-0.624 0.354,-0.606C0.378,-0.587 0.39,-0.558 0.39,-0.52C0.39,-0.501 0.386,-0.485 0.379,-0.47C0.372,-0.455 0.362,-0.443 0.35,-0.434C0.337,-0.424 0.323,-0.417 0.307,-0.412C0.29,-0.407 0.273,-0.404 0.255,-0.404L0.227,-0.404C0.224,-0.404 0.221,-0.404 0.218,-0.405Z" style="fill-rule:nonzero;"/>
            </g>
            <g transform="matrix(6,0,0,6,0,0)">
                <path d="M0.132,-0.349C0.132,-0.366 0.132,-0.386 0.133,-0.407C0.133,-0.428 0.135,-0.448 0.138,-0.47C0.141,-0.491 0.145,-0.511 0.151,-0.531C0.156,-0.551 0.165,-0.569 0.176,-0.584C0.187,-0.599 0.2,-0.611 0.217,-0.62C0.234,-0.629 0.254,-0.634 0.278,-0.634C0.302,-0.634 0.322,-0.629 0.339,-0.62C0.356,-0.611 0.37,-0.599 0.381,-0.584C0.392,-0.569 0.4,-0.551 0.406,-0.531C0.411,-0.511 0.416,-0.491 0.419,-0.47C0.422,-0.448 0.423,-0.428 0.424,-0.407C0.424,-0.386 0.424,-0.366 0.424,-0.349C0.424,-0.322 0.423,-0.293 0.422,-0.26C0.42,-0.227 0.415,-0.196 0.406,-0.167C0.397,-0.137 0.382,-0.113 0.362,-0.093C0.342,-0.073 0.314,-0.063 0.278,-0.063C0.242,-0.063 0.214,-0.073 0.194,-0.093C0.174,-0.113 0.16,-0.137 0.151,-0.167C0.141,-0.196 0.136,-0.227 0.135,-0.26C0.133,-0.293 0.132,-0.322 0.132,-0.349ZM0.042,-0.348C0.042,-0.322 0.043,-0.295 0.044,-0.267C0.045,-0.239 0.049,-0.212 0.054,-0.185C0.059,-0.158 0.067,-0.133 0.077,-0.11C0.087,-0.086 0.101,-0.065 0.118,-0.047C0.135,-0.029 0.157,-0.015 0.184,-0.005C0.21,0.006 0.241,0.011 0.278,0.011C0.315,0.011 0.347,0.006 0.373,-0.005C0.399,-0.015 0.421,-0.029 0.438,-0.047C0.455,-0.065 0.469,-0.086 0.479,-0.11C0.489,-0.133 0.497,-0.158 0.502,-0.185C0.507,-0.212 0.511,-0.239 0.512,-0.267C0.513,-0.295 0.514,-0.322 0.514,-0.348C0.514,-0.374 0.513,-0.401 0.512,-0.429C0.511,-0.457 0.507,-0.484 0.502,-0.511C0.497,-0.538 0.489,-0.563 0.479,-0.587C0.469,-0.611 0.455,-0.632 0.438,-0.65C0.421,-0.668 0.399,-0.682 0.373,-0.693C0.346,-0.704 0.315,-0.709 0.278,-0.709C0.241,-0.709 0.21,-0.704 0.184,-0.693C0.157,-0.682 0.135,-0.668 0.118,-0.65C0.101,-0.632 0.087,-0.611 0.077,-0.587C0.067,-0.563 0.059,-0.538 0.054,-0.511C0.049,-0.484 0.045,-0.457 0.044,-0.429C0.043,-0.401 0.042,-0.374 0.042,-0.348Z" style="fill-rule:nonzero;"/>
            </g>
        </g>
        <g transform="matrix(1,0,0,1,209.398,31.4358)">
            <g transform="matrix(6,0,0,6,-3.336,0)">
                <path d="M0.218,-0.405L0.218,-0.333C0.234,-0.335 0.251,-0.336 0.269,-0.336C0.29,-0.336 0.31,-0.333 0.329,-0.328C0.347,-0.322 0.363,-0.313 0.376,-0.302C0.389,-0.29 0.4,-0.276 0.408,-0.259C0.416,-0.242 0.42,-0.222 0.42,-0.2C0.42,-0.179 0.416,-0.16 0.408,-0.143C0.399,-0.126 0.388,-0.111 0.374,-0.1C0.36,-0.088 0.344,-0.079 0.325,-0.073C0.306,-0.066 0.287,-0.063 0.266,-0.063C0.217,-0.063 0.18,-0.078 0.155,-0.107C0.13,-0.135 0.116,-0.173 0.115,-0.219L0.03,-0.219C0.029,-0.182 0.035,-0.15 0.046,-0.121C0.056,-0.092 0.072,-0.068 0.093,-0.049C0.114,-0.029 0.139,-0.014 0.168,-0.004C0.197,0.006 0.23,0.011 0.266,0.011C0.299,0.011 0.331,0.007 0.361,-0.003C0.39,-0.012 0.416,-0.025 0.438,-0.043C0.46,-0.061 0.478,-0.084 0.491,-0.111C0.503,-0.137 0.51,-0.169 0.51,-0.204C0.51,-0.247 0.5,-0.284 0.479,-0.315C0.458,-0.346 0.425,-0.367 0.382,-0.376L0.382,-0.378C0.41,-0.391 0.433,-0.409 0.452,-0.434C0.471,-0.459 0.48,-0.487 0.48,-0.519C0.48,-0.552 0.474,-0.58 0.464,-0.604C0.452,-0.628 0.437,-0.648 0.418,-0.663C0.399,-0.678 0.376,-0.69 0.35,-0.698C0.323,-0.705 0.295,-0.709 0.264,-0.709C0.229,-0.709 0.198,-0.703 0.171,-0.692C0.143,-0.681 0.121,-0.665 0.103,-0.645C0.085,-0.625 0.071,-0.601 0.062,-0.573C0.052,-0.545 0.046,-0.514 0.045,-0.48L0.13,-0.48C0.13,-0.501 0.133,-0.52 0.138,-0.539C0.143,-0.558 0.152,-0.574 0.163,-0.588C0.173,-0.602 0.188,-0.613 0.205,-0.622C0.222,-0.63 0.241,-0.634 0.264,-0.634C0.3,-0.634 0.33,-0.624 0.354,-0.606C0.378,-0.587 0.39,-0.558 0.39,-0.52C0.39,-0.501 0.386,-0.485 0.379,-0.47C0.372,-0.455 0.362,-0.443 0.35,-0.434C0.337,-0.424 0.323,-0.417 0.307,-0.412C0.29,-0.407 0.273,-0.404 0.255,-0.404L0.227,-0.404C0.224,-0.404 0.221,-0.404 0.218,-0.405Z" style="fill-rule:nonzero;"/>
            </g>
            <g transform="matrix(6,0,0,6,0,0)">
                <path d="M0.356,-0L0.356,-0.709L0.291,-0.709C0.286,-0.682 0.278,-0.66 0.265,-0.643C0.252,-0.626 0.237,-0.612 0.219,-0.602C0.2,-0.592 0.18,-0.585 0.157,-0.582C0.134,-0.578 0.111,-0.576 0.087,-0.576L0.087,-0.508L0.271,-0.508L0.271,-0L0.356,-0Z" style="fill-rule:nonzero;"/>
            </g>
        </g>
        <g transform="matrix(1,0,0,1,183.423,191.556)">
            <g transform="matrix(6,0,0,6,-3.336,0)">
                <path d="M0.218,-0.405L0.218,-0.333C0.234,-0.335 0.251,-0.336 0.269,-0.336C0.29,-0.336 0.31,-0.333 0.329,-0.328C0.347,-0.322 0.363,-0.313 0.376,-0.302C0.389,-0.29 0.4,-0.276 0.408,-0.259C0.416,-0.242 0.42,-0.222 0.42,-0.2C0.42,-0.179 0.416,-0.16 0.408,-0.143C0.399,-0.126 0.388,-0.111 0.374,-0.1C0.36,-0.088 0.344,-0.079 0.325,-0.073C0.306,-0.066 0.287,-0.063 0.266,-0.063C0.217,-0.063 0.18,-0.078 0.155,-0.107C0.13,-0.135 0.116,-0.173 0.115,-0.219L0.03,-0.219C0.029,-0.182 0.035,-0.15 0.046,-0.121C0.056,-0.092 0.072,-0.068 0.093,-0.049C0.114,-0.029 0.139,-0.014 0.168,-0.004C0.197,0.006 0.23,0.011 0.266,0.011C0.299,0.011 0.331,0.007 0.361,-0.003C0.39,-0.012 0.416,-0.025 0.438,-0.043C0.46,-0.061 0.478,-0.084 0.491,-0.111C0.503,-0.137 0.51,-0.169 0.51,-0.204C0.51,-0.247 0.5,-0.284 0.479,-0.315C0.458,-0.346 0.425,-0.367 0.382,-0.376L0.382,-0.378C0.41,-0.391 0.433,-0.409 0.452,-0.434C0.471,-0.459 0.48,-0.487 0.48,-0.519C0.48,-0.552 0.474,-0.58 0.464,-0.604C0.452,-0.628 0.437,-0.648 0.418,-0.663C0.399,-0.678 0.376,-0.69 0.35,-0.698C0.323,-0.705 0.295,-0.709 0.264,-0.709C0.229,-0.709 0.198,-0.703 0.171,-0.692C0.143,-0.681 0.121,-0.665 0.103,-0.645C0.085,-0.625 0.071,-0.601 0.062,-0.573C0.052,-0.545 0.046,-0.514 0.045,-0.48L0.13,-0.48C0.13,-0.501 0.133,-0.52 0.138,-0.539C0.143,-0.558 0.152,-0.574 0.163,-0.588C0.173,-0.602 0.188,-0.613 0.205,-0.622C0.222,-0.63 0.241,-0.634 0.264,-0.634C0.3,-0.634 0.33,-0.624 0.354,-0.606C0.378,-0.587 0.39,-0.558 0.39,-0.52C0.39,-0.501 0.386,-0.485 0.379,-0.47C0.372,-0.455 0.362,-0.443 0.35,-0.434C0.337,-0.424 0.323,-0.417 0.307,-0.412C0.29,-0.407 0.273,-0.404 0.255,-0.404L0.227,-0.404C0.224,-0.404 0.221,-0.404 0.218,-0.405Z" style="fill-rule:nonzero;"/>
            </g>
            <g transform="matrix(6,0,0,6,0,0)">
                <path d="M0.044,-0.458L0.129,-0.458C0.128,-0.479 0.131,-0.501 0.136,-0.522C0.141,-0.543 0.149,-0.561 0.16,-0.578C0.171,-0.595 0.186,-0.608 0.204,-0.619C0.221,-0.629 0.242,-0.634 0.267,-0.634C0.286,-0.634 0.303,-0.631 0.32,-0.625C0.337,-0.619 0.351,-0.61 0.364,-0.599C0.376,-0.588 0.386,-0.574 0.393,-0.559C0.4,-0.543 0.404,-0.525 0.404,-0.506C0.404,-0.481 0.4,-0.46 0.393,-0.441C0.385,-0.422 0.374,-0.405 0.359,-0.389C0.343,-0.373 0.325,-0.357 0.302,-0.342C0.279,-0.326 0.253,-0.309 0.223,-0.29C0.198,-0.275 0.175,-0.26 0.152,-0.243C0.129,-0.226 0.109,-0.207 0.091,-0.185C0.073,-0.163 0.058,-0.137 0.047,-0.108C0.035,-0.078 0.027,-0.042 0.024,-0L0.487,-0L0.487,-0.075L0.123,-0.075C0.127,-0.097 0.135,-0.117 0.149,-0.134C0.162,-0.151 0.177,-0.166 0.196,-0.181C0.214,-0.196 0.234,-0.21 0.256,-0.223C0.278,-0.236 0.3,-0.249 0.322,-0.262C0.344,-0.276 0.365,-0.291 0.386,-0.306C0.407,-0.321 0.425,-0.339 0.441,-0.358C0.457,-0.377 0.47,-0.398 0.48,-0.422C0.489,-0.446 0.494,-0.474 0.494,-0.505C0.494,-0.538 0.488,-0.568 0.477,-0.593C0.465,-0.618 0.449,-0.64 0.429,-0.657C0.409,-0.674 0.386,-0.687 0.359,-0.696C0.331,-0.705 0.303,-0.709 0.272,-0.709C0.235,-0.709 0.201,-0.703 0.172,-0.69C0.143,-0.677 0.118,-0.66 0.099,-0.638C0.079,-0.615 0.064,-0.589 0.055,-0.558C0.046,-0.527 0.042,-0.494 0.044,-0.458Z" style="fill-rule:nonzero;"/>
            </g>
        </g>
        <g transform="matrix(1,0,0,1,103.487,59.3498)">
            <g transform="matrix(6,0,0,6,-3.336,0)">
                <path d="M0.218,-0.405L0.218,-0.333C0.234,-0.335 0.251,-0.336 0.269,-0.336C0.29,-0.336 0.31,-0.333 0.329,-0.328C0.347,-0.322 0.363,-0.313 0.376,-0.302C0.389,-0.29 0.4,-0.276 0.408,-0.259C0.416,-0.242 0.42,-0.222 0.42,-0.2C0.42,-0.179 0.416,-0.16 0.408,-0.143C0.399,-0.126 0.388,-0.111 0.374,-0.1C0.36,-0.088 0.344,-0.079 0.325,-0.073C0.306,-0.066 0.287,-0.063 0.266,-0.063C0.217,-0.063 0.18,-0.078 0.155,-0.107C0.13,-0.135 0.116,-0.173 0.115,-0.219L0.03,-0.219C0.029,-0.182 0.035,-0.15 0.046,-0.121C0.056,-0.092 0.072,-0.068 0.093,-0.049C0.114,-0.029 0.139,-0.014 0.168,-0.004C0.197,0.006 0.23,0.011 0.266,0.011C0.299,0.011 0.331,0.007 0.361,-0.003C0.39,-0.012 0.416,-0.025 0.438,-0.043C0.46,-0.061 0.478,-0.084 0.491,-0.111C0.503,-0.137 0.51,-0.169 0.51,-0.204C0.51,-0.247 0.5,-0.284 0.479,-0.315C0.458,-0.346 0.425,-0.367 0.382,-0.376L0.382,-0.378C0.41,-0.391 0.433,-0.409 0.452,-0.434C0.471,-0.459 0.48,-0.487 0.48,-0.519C0.48,-0.552 0.474,-0.58 0.464,-0.604C0.452,-0.628 0.437,-0.648 0.418,-0.663C0.399,-0.678 0.376,-0.69 0.35,-0.698C0.323,-0.705 0.295,-0.709 0.264,-0.709C0.229,-0.709 0.198,-0.703 0.171,-0.692C0.143,-0.681 0.121,-0.665 0.103,-0.645C0.085,-0.625 0.071,-0.601 0.062,-0.573C0.052,-0.545 0.046,-0.514 0.045,-0.48L0.13,-0.48C0.13,-0.501 0.133,-0.52 0.138,-0.539C0.143,-0.558 0.152,-0.574 0.163,-0.588C0.173,-0.602 0.188,-0.613 0.205,-0.622C0.222,-0.63 0.241,-0.634 0.264,-0.634C0.3,-0.634 0.33,-0.624 0.354,-0.606C0.378,-0.587 0.39,-0.558 0.39,-0.52C0.39,-0.501 0.386,-0.485 0.379,-0.47C0.372,-0.455 0.362,-0.443 0.35,-0.434C0.337,-0.424 0.323,-0.417 0.307,-0.412C0.29,-0.407 0.273,-0.404 0.255,-0.404L0.227,-0.404C0.224,-0.404 0.221,-0.404 0.218,-0.405Z" style="fill-rule:nonzero;"/>
            </g>
            <g transform="matrix(6,0,0,6,0,0)">
                <path d="M0.218,-0.405L0.218,-0.333C0.234,-0.335 0.251,-0.336 0.269,-0.336C0.29,-0.336 0.31,-0.333 0.329,-0.328C0.347,-0.322 0.363,-0.313 0.376,-0.302C0.389,-0.29 0.4,-0.276 0.408,-0.259C0.416,-0.242 0.42,-0.222 0.42,-0.2C0.42,-0.179 0.416,-0.16 0.408,-0.143C0.399,-0.126 0.388,-0.111 0.374,-0.1C0.36,-0.088 0.344,-0.079 0.325,-0.073C0.306,-0.066 0.287,-0.063 0.266,-0.063C0.217,-0.063 0.18,-0.078 0.155,-0.107C0.13,-0.135 0.116,-0.173 0.115,-0.219L0.03,-0.219C0.029,-0.182 0.035,-0.15 0.046,-0.121C0.056,-0.092 0.072,-0.068 0.093,-0.049C0.114,-0.029 0.139,-0.014 0.168,-0.004C0.197,0.006 0.23,0.011 0.266,0.011C0.299,0.011 0.331,0.007 0.361,-0.003C0.39,-0.012 0.416,-0.025 0.438,-0.043C0.46,-0.061 0.478,-0.084 0.491,-0.111C0.503,-0.137 0.51,-0.169 0.51,-0.204C0.51,-0.247 0.5,-0.284 0.479,-0.315C0.458,-0.346 0.425,-0.367 0.382,-0.376L0.382,-0.378C0.41,-0.391 0.433,-0.409 0.452,-0.434C0.471,-0.459 0.48,-0.487 0.48,-0.519C0.48,-0.552 0.474,-0.58 0.464,-0.604C0.452,-0.628 0.437,-0.648 0.418,-0.663C0.399,-0.678 0.376,-0.69 0.35,-0.698C0.323,-0.705 0.295,-0.709 0.264,-0.709C0.229,-0.709 0.198,-0.703 0.171,-0.692C0.143,-0.681 0.121,-0.665 0.103,-0.645C0.085,-0.625 0.071,-0.601 0.062,-0.573C0.052,-0.545 0.046,-0.514 0.045,-0.48L0.13,-0.48C0.13,-0.501 0.133,-0.52 0.138,-0.539C0.143,-0.558 0.152,-0.574 0.163,-0.588C0.173,-0.602 0.188,-0.613 0.205,-0.622C0.222,-0.63 0.241,-0.634 0.264,-0.634C0.3,-0.634 0.33,-0.624 0.354,-0.606C0.378,-0.587 0.39,-0.558 0.39,-0.52C0.39,-0.501 0.386,-0.485 0.379,-0.47C0.372,-0.455 0.362,-0.443 0.35,-0.434C0.337,-0.424 0.323,-0.417 0.307,-0.412C0.29,-0.407 0.273,-0.404 0.255,-0.404L0.227,-0.404C0.224,-0.404 0.221,-0.404 0.218,-0.405Z" style="fill-rule:nonzero;"/>
            </g>
        </g>
        <g transform="matrix(1,0,0,1,134.761,99.5294)">
            <g transform="matrix(8,0,0,8,-13.636,0)">
                <path d="M0.441,-0.178L0.441,-0.714L0.346,-0.714L0.346,-0.192C0.346,-0.153 0.338,-0.121 0.322,-0.098C0.305,-0.075 0.275,-0.063 0.232,-0.063C0.209,-0.063 0.19,-0.067 0.175,-0.074C0.16,-0.081 0.148,-0.09 0.14,-0.103C0.131,-0.116 0.125,-0.131 0.122,-0.148C0.119,-0.165 0.117,-0.184 0.117,-0.205L0.117,-0.235L0.022,-0.235L0.022,-0.191C0.022,-0.123 0.04,-0.071 0.076,-0.037C0.112,-0.001 0.163,0.016 0.23,0.016C0.27,0.016 0.304,0.011 0.331,-0.001C0.358,-0.012 0.379,-0.026 0.396,-0.045C0.412,-0.063 0.424,-0.084 0.431,-0.107C0.438,-0.13 0.441,-0.154 0.441,-0.178Z" style="fill-rule:nonzero;"/>
            </g>
            <g transform="matrix(8,0,0,8,-9.484,0)">
                <path d="M0.126,-0.258C0.126,-0.289 0.13,-0.317 0.139,-0.342C0.147,-0.366 0.158,-0.386 0.173,-0.403C0.188,-0.42 0.205,-0.432 0.225,-0.441C0.244,-0.45 0.265,-0.454 0.287,-0.454C0.309,-0.454 0.33,-0.45 0.35,-0.441C0.369,-0.432 0.386,-0.42 0.401,-0.403C0.416,-0.386 0.427,-0.366 0.436,-0.342C0.444,-0.317 0.448,-0.289 0.448,-0.258C0.448,-0.227 0.444,-0.199 0.436,-0.175C0.427,-0.15 0.416,-0.13 0.401,-0.114C0.386,-0.097 0.369,-0.085 0.35,-0.076C0.33,-0.067 0.309,-0.063 0.287,-0.063C0.265,-0.063 0.244,-0.067 0.225,-0.076C0.205,-0.085 0.188,-0.097 0.173,-0.114C0.158,-0.13 0.147,-0.15 0.139,-0.175C0.13,-0.199 0.126,-0.227 0.126,-0.258ZM0.036,-0.258C0.036,-0.22 0.041,-0.185 0.052,-0.152C0.063,-0.119 0.079,-0.091 0.1,-0.067C0.121,-0.042 0.148,-0.023 0.179,-0.01C0.21,0.004 0.246,0.011 0.287,0.011C0.328,0.011 0.365,0.004 0.396,-0.01C0.427,-0.023 0.453,-0.042 0.474,-0.067C0.495,-0.091 0.511,-0.119 0.522,-0.152C0.533,-0.185 0.538,-0.22 0.538,-0.258C0.538,-0.296 0.533,-0.331 0.522,-0.365C0.511,-0.398 0.495,-0.426 0.474,-0.451C0.453,-0.475 0.427,-0.494 0.396,-0.508C0.365,-0.522 0.328,-0.529 0.287,-0.529C0.246,-0.529 0.21,-0.522 0.179,-0.508C0.148,-0.494 0.121,-0.475 0.1,-0.451C0.079,-0.426 0.063,-0.398 0.052,-0.365C0.041,-0.331 0.036,-0.296 0.036,-0.258Z" style="fill-rule:nonzero;"/>
            </g>
            <g transform="matrix(8,0,0,8,-4.892,0)">
                <path d="M0.064,-0.714L0.064,-0L0.149,-0L0.149,-0.292C0.149,-0.315 0.152,-0.337 0.159,-0.357C0.165,-0.376 0.174,-0.393 0.187,-0.408C0.2,-0.423 0.216,-0.434 0.235,-0.442C0.254,-0.45 0.276,-0.454 0.302,-0.454C0.335,-0.454 0.36,-0.445 0.379,-0.426C0.398,-0.407 0.407,-0.382 0.407,-0.35L0.407,-0L0.492,-0L0.492,-0.34C0.492,-0.368 0.489,-0.393 0.484,-0.417C0.478,-0.44 0.468,-0.459 0.454,-0.476C0.44,-0.493 0.422,-0.506 0.399,-0.515C0.376,-0.524 0.348,-0.529 0.314,-0.529C0.299,-0.529 0.283,-0.527 0.267,-0.524C0.25,-0.521 0.235,-0.516 0.22,-0.509C0.205,-0.502 0.191,-0.493 0.179,-0.482C0.167,-0.47 0.158,-0.457 0.151,-0.441L0.149,-0.441L0.149,-0.714L0.064,-0.714Z" style="fill-rule:nonzero;"/>
            </g>
            <g transform="matrix(8,0,0,8,-0.444,0)">
                <path d="M0.064,-0.517L0.064,-0L0.149,-0L0.149,-0.292C0.149,-0.315 0.152,-0.337 0.159,-0.357C0.165,-0.376 0.174,-0.393 0.187,-0.408C0.2,-0.423 0.216,-0.434 0.235,-0.442C0.254,-0.45 0.276,-0.454 0.302,-0.454C0.335,-0.454 0.36,-0.445 0.379,-0.426C0.398,-0.407 0.407,-0.382 0.407,-0.35L0.407,-0L0.492,-0L0.492,-0.34C0.492,-0.368 0.489,-0.393 0.484,-0.417C0.478,-0.44 0.468,-0.459 0.454,-0.476C0.44,-0.493 0.422,-0.506 0.399,-0.515C0.376,-0.524 0.348,-0.529 0.314,-0.529C0.237,-0.529 0.181,-0.498 0.146,-0.435L0.144,-0.435L0.144,-0.517L0.064,-0.517Z" style="fill-rule:nonzero;"/>
            </g>
            <g transform="matrix(8,0,0,8,6.228,0)">
                <path d="M0.201,-0.295L0.322,-0.628L0.324,-0.628L0.443,-0.295L0.201,-0.295ZM0.272,-0.714L-0.006,-0L0.091,-0L0.171,-0.215L0.473,-0.215L0.551,-0L0.656,-0L0.377,-0.714L0.272,-0.714Z" style="fill-rule:nonzero;"/>
            </g>
            <g transform="matrix(8,0,0,8,11.412,0)">
                <rect x="0.083" y="-0.111" width="0.111" height="0.111" style="fill-rule:nonzero;"/>
            </g>
        </g>
    </g>
</svg>
