<svg width="977" height="139" viewBox="0 0 977 139" fill="none" xmlns="http://www.w3.org/2000/svg">
<path d="M11.3127 48C16.8356 48 21.3127 43.5228 21.3127 38C21.3127 32.4772 16.8356 28 11.3127 28C5.7899 28 1.31274 32.4772 1.31274 38C1.31274 43.5228 5.7899 48 11.3127 48Z" fill="#999999" stroke="black"/>
<path d="M111 48C116.523 48 121 43.5228 121 38C121 32.4772 116.523 28 111 28C105.477 28 101 32.4772 101 38C101 43.5228 105.477 48 111 48Z" fill="#999999" stroke="black"/>
<path d="M99.3535 38.3581C99.5488 38.1629 99.5488 37.8463 99.3536 37.651L96.1718 34.4688C95.9765 34.2736 95.66 34.2736 95.4647 34.4688C95.2694 34.6641 95.2694 34.9806 95.4646 35.1759L98.2929 38.0045L95.4643 40.8328C95.269 41.028 95.269 41.3446 95.4643 41.5399C95.6595 41.7351 95.9761 41.7352 96.1714 41.5399L99.3535 38.3581ZM22 38.5L99 38.5046L99 37.5046L22 37.5L22 38.5Z" fill="black"/>
<path d="M211 48C216.523 48 221 43.5228 221 38C221 32.4772 216.523 28 211 28C205.477 28 201 32.4772 201 38C201 43.5228 205.477 48 211 48Z" fill="#999999" stroke="black"/>
<path d="M310.687 48C316.21 48 320.687 43.5228 320.687 38C320.687 32.4772 316.21 28 310.687 28C305.164 28 300.687 32.4772 300.687 38C300.687 43.5228 305.164 48 310.687 48Z" fill="#999999" stroke="black"/>
<path d="M222.334 37.6464C222.138 37.8417 222.138 38.1583 222.334 38.3536L225.516 41.5355C225.711 41.7308 226.028 41.7308 226.223 41.5355C226.418 41.3403 226.418 41.0237 226.223 40.8284L223.394 38L226.223 35.1716C226.418 34.9763 226.418 34.6597 226.223 34.4645C226.028 34.2692 225.711 34.2692 225.516 34.4645L222.334 37.6464ZM299.041 38.3536C299.236 38.1583 299.236 37.8417 299.041 37.6464L295.859 34.4645C295.664 34.2692 295.347 34.2692 295.152 34.4645C294.956 34.6597 294.956 34.9763 295.152 35.1716L297.98 38L295.152 40.8284C294.956 41.0237 294.956 41.3403 295.152 41.5355C295.347 41.7308 295.664 41.7308 295.859 41.5355L299.041 38.3536ZM222.687 38.5L298.687 38.5L298.687 37.5L222.687 37.5L222.687 38.5Z" fill="black"/>
<path d="M388.559 128.196V124.344H390.755C391.079 124.344 391.391 124.368 391.691 124.416C391.991 124.464 392.255 124.56 392.483 124.704C392.711 124.836 392.891 125.028 393.023 125.28C393.167 125.532 393.239 125.862 393.239 126.27C393.239 126.678 393.167 127.008 393.023 127.26C392.891 127.512 392.711 127.71 392.483 127.854C392.255 127.986 391.991 128.076 391.691 128.124C391.391 128.172 391.079 128.196 390.755 128.196H388.559ZM385.733 122.148V135H388.559V130.392H391.529C392.333 130.392 393.017 130.278 393.581 130.05C394.145 129.81 394.601 129.498 394.949 129.114C395.309 128.73 395.567 128.292 395.723 127.8C395.891 127.296 395.975 126.786 395.975 126.27C395.975 125.742 395.891 125.232 395.723 124.74C395.567 124.248 395.309 123.81 394.949 123.426C394.601 123.042 394.145 122.736 393.581 122.508C393.017 122.268 392.333 122.148 391.529 122.148H385.733ZM399.737 130.356C399.737 129.984 399.773 129.618 399.845 129.258C399.917 128.898 400.037 128.58 400.205 128.304C400.385 128.028 400.619 127.806 400.907 127.638C401.195 127.458 401.555 127.368 401.987 127.368C402.419 127.368 402.779 127.458 403.067 127.638C403.367 127.806 403.601 128.028 403.769 128.304C403.949 128.58 404.075 128.898 404.147 129.258C404.219 129.618 404.255 129.984 404.255 130.356C404.255 130.728 404.219 131.094 404.147 131.454C404.075 131.802 403.949 132.12 403.769 132.408C403.601 132.684 403.367 132.906 403.067 133.074C402.779 133.242 402.419 133.326 401.987 133.326C401.555 133.326 401.195 133.242 400.907 133.074C400.619 132.906 400.385 132.684 400.205 132.408C400.037 132.12 399.917 131.802 399.845 131.454C399.773 131.094 399.737 130.728 399.737 130.356ZM397.181 130.356C397.181 131.1 397.295 131.772 397.523 132.372C397.751 132.972 398.075 133.488 398.495 133.92C398.915 134.34 399.419 134.664 400.007 134.892C400.595 135.12 401.255 135.234 401.987 135.234C402.719 135.234 403.379 135.12 403.967 134.892C404.567 134.664 405.077 134.34 405.497 133.92C405.917 133.488 406.241 132.972 406.469 132.372C406.697 131.772 406.811 131.1 406.811 130.356C406.811 129.612 406.697 128.94 406.469 128.34C406.241 127.728 405.917 127.212 405.497 126.792C405.077 126.36 404.567 126.03 403.967 125.802C403.379 125.562 402.719 125.442 401.987 125.442C401.255 125.442 400.595 125.562 400.007 125.802C399.419 126.03 398.915 126.36 398.495 126.792C398.075 127.212 397.751 127.728 397.523 128.34C397.295 128.94 397.181 129.612 397.181 130.356ZM413.171 133.326C412.763 133.326 412.415 133.242 412.127 133.074C411.839 132.906 411.605 132.69 411.425 132.426C411.257 132.15 411.131 131.832 411.047 131.472C410.975 131.112 410.939 130.746 410.939 130.374C410.939 129.99 410.975 129.618 411.047 129.258C411.119 128.898 411.239 128.58 411.407 128.304C411.587 128.028 411.815 127.806 412.091 127.638C412.379 127.458 412.733 127.368 413.153 127.368C413.561 127.368 413.903 127.458 414.179 127.638C414.467 127.806 414.701 128.034 414.881 128.322C415.061 128.598 415.187 128.916 415.259 129.276C415.343 129.636 415.385 130.002 415.385 130.374C415.385 130.746 415.349 131.112 415.277 131.472C415.205 131.832 415.079 132.15 414.899 132.426C414.731 132.69 414.503 132.906 414.215 133.074C413.939 133.242 413.591 133.326 413.171 133.326ZM408.473 125.694V138.258H411.029V133.848H411.065C411.377 134.304 411.773 134.652 412.253 134.892C412.745 135.12 413.279 135.234 413.855 135.234C414.539 135.234 415.133 135.102 415.637 134.838C416.153 134.574 416.579 134.22 416.915 133.776C417.263 133.332 417.521 132.822 417.689 132.246C417.857 131.67 417.941 131.07 417.941 130.446C417.941 129.786 417.857 129.156 417.689 128.556C417.521 127.944 417.263 127.41 416.915 126.954C416.567 126.498 416.129 126.132 415.601 125.856C415.073 125.58 414.443 125.442 413.711 125.442C413.135 125.442 412.607 125.556 412.127 125.784C411.647 126.012 411.251 126.378 410.939 126.882H410.903V125.694H408.473ZM428.207 135V125.694H425.651V130.572C425.651 131.52 425.495 132.204 425.183 132.624C424.871 133.032 424.367 133.236 423.671 133.236C423.059 133.236 422.633 133.05 422.393 132.678C422.153 132.294 422.033 131.718 422.033 130.95V125.694H419.477V131.418C419.477 131.994 419.525 132.522 419.621 133.002C419.729 133.47 419.909 133.872 420.161 134.208C420.413 134.532 420.755 134.784 421.187 134.964C421.631 135.144 422.195 135.234 422.879 135.234C423.419 135.234 423.947 135.114 424.463 134.874C424.979 134.634 425.399 134.244 425.723 133.704H425.777V135H428.207ZM430.219 122.148V135H432.775V122.148H430.219ZM434.679 128.556C434.715 127.956 434.865 127.458 435.129 127.062C435.393 126.666 435.729 126.348 436.137 126.108C436.545 125.868 437.001 125.7 437.505 125.604C438.021 125.496 438.537 125.442 439.053 125.442C439.521 125.442 439.995 125.478 440.475 125.55C440.955 125.61 441.393 125.736 441.789 125.928C442.185 126.12 442.509 126.39 442.761 126.738C443.013 127.074 443.139 127.524 443.139 128.088V132.93C443.139 133.35 443.163 133.752 443.211 134.136C443.259 134.52 443.343 134.808 443.463 135H440.871C440.823 134.856 440.781 134.712 440.745 134.568C440.721 134.412 440.703 134.256 440.691 134.1C440.283 134.52 439.803 134.814 439.251 134.982C438.699 135.15 438.135 135.234 437.559 135.234C437.115 135.234 436.701 135.18 436.317 135.072C435.933 134.964 435.597 134.796 435.309 134.568C435.021 134.34 434.793 134.052 434.625 133.704C434.469 133.356 434.391 132.942 434.391 132.462C434.391 131.934 434.481 131.502 434.661 131.166C434.853 130.818 435.093 130.542 435.381 130.338C435.681 130.134 436.017 129.984 436.389 129.888C436.773 129.78 437.157 129.696 437.541 129.636C437.925 129.576 438.303 129.528 438.675 129.492C439.047 129.456 439.377 129.402 439.665 129.33C439.953 129.258 440.181 129.156 440.349 129.024C440.517 128.88 440.595 128.676 440.583 128.412C440.583 128.136 440.535 127.92 440.439 127.764C440.355 127.596 440.235 127.47 440.079 127.386C439.935 127.29 439.761 127.23 439.557 127.206C439.365 127.17 439.155 127.152 438.927 127.152C438.423 127.152 438.027 127.26 437.739 127.476C437.451 127.692 437.283 128.052 437.235 128.556H434.679ZM440.583 130.446C440.475 130.542 440.337 130.62 440.169 130.68C440.013 130.728 439.839 130.77 439.647 130.806C439.467 130.842 439.275 130.872 439.071 130.896C438.867 130.92 438.663 130.95 438.459 130.986C438.267 131.022 438.075 131.07 437.883 131.13C437.703 131.19 437.541 131.274 437.397 131.382C437.265 131.478 437.157 131.604 437.073 131.76C436.989 131.916 436.947 132.114 436.947 132.354C436.947 132.582 436.989 132.774 437.073 132.93C437.157 133.086 437.271 133.212 437.415 133.308C437.559 133.392 437.727 133.452 437.919 133.488C438.111 133.524 438.309 133.542 438.513 133.542C439.017 133.542 439.407 133.458 439.683 133.29C439.959 133.122 440.163 132.924 440.295 132.696C440.427 132.456 440.505 132.216 440.529 131.976C440.565 131.736 440.583 131.544 440.583 131.4V130.446ZM445.123 125.694V135H447.679V130.806C447.679 130.386 447.721 129.996 447.805 129.636C447.889 129.276 448.027 128.964 448.219 128.7C448.423 128.424 448.687 128.208 449.011 128.052C449.335 127.896 449.731 127.818 450.199 127.818C450.355 127.818 450.517 127.83 450.685 127.854C450.853 127.866 450.997 127.884 451.117 127.908V125.532C450.913 125.472 450.727 125.442 450.559 125.442C450.235 125.442 449.923 125.49 449.623 125.586C449.323 125.682 449.041 125.82 448.777 126C448.513 126.168 448.279 126.378 448.075 126.63C447.871 126.87 447.709 127.134 447.589 127.422H447.553V125.694H445.123ZM454.747 124.254V122.148H452.191V124.254H454.747ZM452.191 125.694V135H454.747V125.694H452.191ZM460 125.694V122.904H457.444V125.694H455.896V127.404H457.444V132.894C457.444 133.362 457.522 133.74 457.678 134.028C457.834 134.316 458.044 134.538 458.308 134.694C458.584 134.85 458.896 134.952 459.244 135C459.604 135.06 459.982 135.09 460.378 135.09C460.63 135.09 460.888 135.084 461.152 135.072C461.416 135.06 461.656 135.036 461.872 135V133.02C461.752 133.044 461.626 133.062 461.494 133.074C461.362 133.086 461.224 133.092 461.08 133.092C460.648 133.092 460.36 133.02 460.216 132.876C460.072 132.732 460 132.444 460 132.012V127.404H461.872V125.694H460ZM467.678 136.152L471.566 125.694H468.92L466.886 132.066H466.85L464.744 125.694H462.026L465.284 134.424C465.356 134.604 465.392 134.796 465.392 135C465.392 135.276 465.308 135.528 465.14 135.756C464.984 135.984 464.738 136.116 464.402 136.152C464.15 136.164 463.898 136.158 463.646 136.134C463.394 136.11 463.148 136.086 462.908 136.062V138.168C463.172 138.192 463.43 138.21 463.682 138.222C463.946 138.246 464.21 138.258 464.474 138.258C465.35 138.258 466.034 138.096 466.526 137.772C467.018 137.448 467.402 136.908 467.678 136.152ZM479.628 130.734H476.892C476.88 131.526 477.024 132.21 477.324 132.786C477.624 133.362 478.026 133.836 478.53 134.208C479.046 134.58 479.634 134.85 480.294 135.018C480.966 135.198 481.656 135.288 482.364 135.288C483.24 135.288 484.008 135.186 484.668 134.982C485.34 134.778 485.898 134.496 486.342 134.136C486.798 133.764 487.14 133.326 487.368 132.822C487.596 132.318 487.71 131.772 487.71 131.184C487.71 130.464 487.554 129.876 487.242 129.42C486.942 128.952 486.582 128.58 486.162 128.304C485.742 128.028 485.316 127.83 484.884 127.71C484.464 127.578 484.134 127.488 483.894 127.44C483.09 127.236 482.436 127.068 481.932 126.936C481.44 126.804 481.05 126.672 480.762 126.54C480.486 126.408 480.3 126.264 480.204 126.108C480.108 125.952 480.06 125.748 480.06 125.496C480.06 125.22 480.12 124.992 480.24 124.812C480.36 124.632 480.51 124.482 480.69 124.362C480.882 124.242 481.092 124.158 481.32 124.11C481.548 124.062 481.776 124.038 482.004 124.038C482.352 124.038 482.67 124.068 482.958 124.128C483.258 124.188 483.522 124.29 483.75 124.434C483.978 124.578 484.158 124.776 484.29 125.028C484.434 125.28 484.518 125.598 484.542 125.982H487.278C487.278 125.238 487.134 124.608 486.846 124.092C486.57 123.564 486.192 123.132 485.712 122.796C485.232 122.46 484.68 122.22 484.056 122.076C483.444 121.92 482.802 121.842 482.13 121.842C481.554 121.842 480.978 121.92 480.402 122.076C479.826 122.232 479.31 122.472 478.854 122.796C478.398 123.12 478.026 123.528 477.738 124.02C477.462 124.5 477.324 125.07 477.324 125.73C477.324 126.318 477.432 126.822 477.648 127.242C477.876 127.65 478.17 127.992 478.53 128.268C478.89 128.544 479.298 128.772 479.754 128.952C480.21 129.12 480.678 129.264 481.158 129.384C481.626 129.516 482.088 129.636 482.544 129.744C483 129.852 483.408 129.978 483.768 130.122C484.128 130.266 484.416 130.446 484.632 130.662C484.86 130.878 484.974 131.16 484.974 131.508C484.974 131.832 484.89 132.102 484.722 132.318C484.554 132.522 484.344 132.684 484.092 132.804C483.84 132.924 483.57 133.008 483.282 133.056C482.994 133.092 482.724 133.11 482.472 133.11C482.1 133.11 481.74 133.068 481.392 132.984C481.044 132.888 480.738 132.75 480.474 132.57C480.222 132.378 480.018 132.132 479.862 131.832C479.706 131.532 479.628 131.166 479.628 130.734ZM493.819 133.326C493.411 133.326 493.063 133.242 492.775 133.074C492.487 132.906 492.253 132.69 492.073 132.426C491.905 132.15 491.779 131.832 491.695 131.472C491.623 131.112 491.587 130.746 491.587 130.374C491.587 129.99 491.623 129.618 491.695 129.258C491.767 128.898 491.887 128.58 492.055 128.304C492.235 128.028 492.463 127.806 492.739 127.638C493.027 127.458 493.381 127.368 493.801 127.368C494.209 127.368 494.551 127.458 494.827 127.638C495.115 127.806 495.349 128.034 495.529 128.322C495.709 128.598 495.835 128.916 495.907 129.276C495.991 129.636 496.033 130.002 496.033 130.374C496.033 130.746 495.997 131.112 495.925 131.472C495.853 131.832 495.727 132.15 495.547 132.426C495.379 132.69 495.151 132.906 494.863 133.074C494.587 133.242 494.239 133.326 493.819 133.326ZM489.121 125.694V138.258H491.677V133.848H491.713C492.025 134.304 492.421 134.652 492.901 134.892C493.393 135.12 493.927 135.234 494.503 135.234C495.187 135.234 495.781 135.102 496.285 134.838C496.801 134.574 497.227 134.22 497.563 133.776C497.911 133.332 498.169 132.822 498.337 132.246C498.505 131.67 498.589 131.07 498.589 130.446C498.589 129.786 498.505 129.156 498.337 128.556C498.169 127.944 497.911 127.41 497.563 126.954C497.215 126.498 496.777 126.132 496.249 125.856C495.721 125.58 495.091 125.442 494.359 125.442C493.783 125.442 493.255 125.556 492.775 125.784C492.295 126.012 491.899 126.378 491.587 126.882H491.551V125.694H489.121ZM500.125 125.694V135H502.681V130.806C502.681 130.386 502.723 129.996 502.807 129.636C502.891 129.276 503.029 128.964 503.221 128.7C503.425 128.424 503.689 128.208 504.013 128.052C504.337 127.896 504.733 127.818 505.201 127.818C505.357 127.818 505.519 127.83 505.687 127.854C505.855 127.866 505.999 127.884 506.119 127.908V125.532C505.915 125.472 505.729 125.442 505.561 125.442C505.237 125.442 504.925 125.49 504.625 125.586C504.325 125.682 504.043 125.82 503.779 126C503.515 126.168 503.281 126.378 503.077 126.63C502.873 126.87 502.711 127.134 502.591 127.422H502.555V125.694H500.125ZM513.069 129.348H508.911C508.923 129.168 508.959 128.964 509.019 128.736C509.091 128.508 509.205 128.292 509.361 128.088C509.529 127.884 509.745 127.716 510.009 127.584C510.285 127.44 510.627 127.368 511.035 127.368C511.659 127.368 512.121 127.536 512.421 127.872C512.733 128.208 512.949 128.7 513.069 129.348ZM508.911 130.968H515.625C515.673 130.248 515.613 129.558 515.445 128.898C515.277 128.238 515.001 127.65 514.617 127.134C514.245 126.618 513.765 126.21 513.177 125.91C512.589 125.598 511.899 125.442 511.107 125.442C510.399 125.442 509.751 125.568 509.163 125.82C508.587 126.072 508.089 126.42 507.669 126.864C507.249 127.296 506.925 127.812 506.697 128.412C506.469 129.012 506.355 129.66 506.355 130.356C506.355 131.076 506.463 131.736 506.679 132.336C506.907 132.936 507.225 133.452 507.633 133.884C508.041 134.316 508.539 134.652 509.127 134.892C509.715 135.12 510.375 135.234 511.107 135.234C512.163 135.234 513.063 134.994 513.807 134.514C514.551 134.034 515.103 133.236 515.463 132.12H513.213C513.129 132.408 512.901 132.684 512.529 132.948C512.157 133.2 511.713 133.326 511.197 133.326C510.477 133.326 509.925 133.14 509.541 132.768C509.157 132.396 508.947 131.796 508.911 130.968ZM517.033 128.556C517.069 127.956 517.219 127.458 517.483 127.062C517.747 126.666 518.083 126.348 518.491 126.108C518.899 125.868 519.355 125.7 519.859 125.604C520.375 125.496 520.891 125.442 521.407 125.442C521.875 125.442 522.349 125.478 522.829 125.55C523.309 125.61 523.747 125.736 524.143 125.928C524.539 126.12 524.863 126.39 525.115 126.738C525.367 127.074 525.493 127.524 525.493 128.088V132.93C525.493 133.35 525.517 133.752 525.565 134.136C525.613 134.52 525.697 134.808 525.817 135H523.225C523.177 134.856 523.135 134.712 523.099 134.568C523.075 134.412 523.057 134.256 523.045 134.1C522.637 134.52 522.157 134.814 521.605 134.982C521.053 135.15 520.489 135.234 519.913 135.234C519.469 135.234 519.055 135.18 518.671 135.072C518.287 134.964 517.951 134.796 517.663 134.568C517.375 134.34 517.147 134.052 516.979 133.704C516.823 133.356 516.745 132.942 516.745 132.462C516.745 131.934 516.835 131.502 517.015 131.166C517.207 130.818 517.447 130.542 517.735 130.338C518.035 130.134 518.371 129.984 518.743 129.888C519.127 129.78 519.511 129.696 519.895 129.636C520.279 129.576 520.657 129.528 521.029 129.492C521.401 129.456 521.731 129.402 522.019 129.33C522.307 129.258 522.535 129.156 522.703 129.024C522.871 128.88 522.949 128.676 522.937 128.412C522.937 128.136 522.889 127.92 522.793 127.764C522.709 127.596 522.589 127.47 522.433 127.386C522.289 127.29 522.115 127.23 521.911 127.206C521.719 127.17 521.509 127.152 521.281 127.152C520.777 127.152 520.381 127.26 520.093 127.476C519.805 127.692 519.637 128.052 519.589 128.556H517.033ZM522.937 130.446C522.829 130.542 522.691 130.62 522.523 130.68C522.367 130.728 522.193 130.77 522.001 130.806C521.821 130.842 521.629 130.872 521.425 130.896C521.221 130.92 521.017 130.95 520.813 130.986C520.621 131.022 520.429 131.07 520.237 131.13C520.057 131.19 519.895 131.274 519.751 131.382C519.619 131.478 519.511 131.604 519.427 131.76C519.343 131.916 519.301 132.114 519.301 132.354C519.301 132.582 519.343 132.774 519.427 132.93C519.511 133.086 519.625 133.212 519.769 133.308C519.913 133.392 520.081 133.452 520.273 133.488C520.465 133.524 520.663 133.542 520.867 133.542C521.371 133.542 521.761 133.458 522.037 133.29C522.313 133.122 522.517 132.924 522.649 132.696C522.781 132.456 522.859 132.216 522.883 131.976C522.919 131.736 522.937 131.544 522.937 131.4V130.446ZM534.083 130.32C534.083 130.704 534.047 131.076 533.975 131.436C533.903 131.796 533.783 132.12 533.615 132.408C533.447 132.684 533.219 132.906 532.931 133.074C532.655 133.242 532.307 133.326 531.887 133.326C531.491 133.326 531.149 133.242 530.861 133.074C530.585 132.894 530.351 132.666 530.159 132.39C529.979 132.102 529.847 131.778 529.763 131.418C529.679 131.058 529.637 130.698 529.637 130.338C529.637 129.954 529.673 129.588 529.745 129.24C529.829 128.88 529.955 128.562 530.123 128.286C530.303 128.01 530.537 127.788 530.825 127.62C531.113 127.452 531.467 127.368 531.887 127.368C532.307 127.368 532.655 127.452 532.931 127.62C533.207 127.788 533.429 128.01 533.597 128.286C533.777 128.55 533.903 128.862 533.975 129.222C534.047 129.57 534.083 129.936 534.083 130.32ZM534.119 133.812V135H536.549V122.148H533.993V126.828H533.957C533.669 126.372 533.273 126.03 532.769 125.802C532.277 125.562 531.755 125.442 531.203 125.442C530.519 125.442 529.919 125.58 529.403 125.856C528.887 126.12 528.455 126.474 528.107 126.918C527.771 127.362 527.513 127.878 527.333 128.466C527.165 129.042 527.081 129.642 527.081 130.266C527.081 130.914 527.165 131.538 527.333 132.138C527.513 132.738 527.771 133.272 528.107 133.74C528.455 134.196 528.893 134.562 529.421 134.838C529.949 135.102 530.561 135.234 531.257 135.234C531.869 135.234 532.415 135.126 532.895 134.91C533.387 134.682 533.783 134.316 534.083 133.812H534.119Z" fill="black"/>
<path d="M49.8131 130.032L51.4871 125.316H51.5231L53.1431 130.032H49.8131ZM50.0831 122.148L45.2231 135H48.0671L49.0751 132.138H53.8811L54.8531 135H57.7871L52.9811 122.148H50.0831ZM58.6253 125.694V135H61.1813V130.806C61.1813 130.386 61.2233 129.996 61.3073 129.636C61.3913 129.276 61.5293 128.964 61.7213 128.7C61.9253 128.424 62.1893 128.208 62.5133 128.052C62.8373 127.896 63.2333 127.818 63.7013 127.818C63.8573 127.818 64.0193 127.83 64.1873 127.854C64.3553 127.866 64.4993 127.884 64.6193 127.908V125.532C64.4153 125.472 64.2293 125.442 64.0613 125.442C63.7373 125.442 63.4253 125.49 63.1253 125.586C62.8253 125.682 62.5433 125.82 62.2793 126C62.0153 126.168 61.7813 126.378 61.5773 126.63C61.3733 126.87 61.2113 127.134 61.0913 127.422H61.0553V125.694H58.6253ZM71.641 128.97H74.143C74.107 128.37 73.963 127.854 73.711 127.422C73.459 126.978 73.129 126.612 72.721 126.324C72.325 126.024 71.869 125.802 71.353 125.658C70.849 125.514 70.321 125.442 69.769 125.442C69.013 125.442 68.341 125.568 67.753 125.82C67.165 126.072 66.667 126.426 66.259 126.882C65.851 127.326 65.539 127.86 65.323 128.484C65.119 129.096 65.017 129.762 65.017 130.482C65.017 131.178 65.131 131.82 65.359 132.408C65.587 132.984 65.905 133.482 66.313 133.902C66.721 134.322 67.213 134.652 67.789 134.892C68.377 135.12 69.019 135.234 69.715 135.234C70.951 135.234 71.965 134.91 72.757 134.262C73.549 133.614 74.029 132.672 74.197 131.436H71.731C71.647 132.012 71.437 132.474 71.101 132.822C70.777 133.158 70.309 133.326 69.697 133.326C69.301 133.326 68.965 133.236 68.689 133.056C68.413 132.876 68.191 132.648 68.023 132.372C67.867 132.084 67.753 131.766 67.681 131.418C67.609 131.07 67.573 130.728 67.573 130.392C67.573 130.044 67.609 129.696 67.681 129.348C67.753 128.988 67.873 128.664 68.041 128.376C68.221 128.076 68.449 127.836 68.725 127.656C69.001 127.464 69.343 127.368 69.751 127.368C70.843 127.368 71.473 127.902 71.641 128.97Z" fill="black"/>
<path d="M216.254 127.962V124.344H219.35C219.998 124.344 220.484 124.488 220.808 124.776C221.132 125.052 221.294 125.502 221.294 126.126C221.294 126.774 221.132 127.242 220.808 127.53C220.484 127.818 219.998 127.962 219.35 127.962H216.254ZM213.428 122.148V135H216.254V129.978H219.08C219.788 129.978 220.298 130.134 220.61 130.446C220.922 130.758 221.126 131.25 221.222 131.922C221.294 132.438 221.348 132.978 221.384 133.542C221.42 134.106 221.516 134.592 221.672 135H224.498C224.366 134.82 224.264 134.604 224.192 134.352C224.132 134.088 224.084 133.812 224.048 133.524C224.024 133.236 224.006 132.954 223.994 132.678C223.982 132.402 223.97 132.162 223.958 131.958C223.934 131.634 223.886 131.31 223.814 130.986C223.754 130.662 223.652 130.368 223.508 130.104C223.364 129.828 223.178 129.594 222.95 129.402C222.722 129.198 222.434 129.048 222.086 128.952V128.916C222.806 128.628 223.322 128.208 223.634 127.656C223.958 127.104 224.12 126.45 224.12 125.694C224.12 125.202 224.03 124.746 223.85 124.326C223.682 123.894 223.43 123.516 223.094 123.192C222.77 122.868 222.374 122.616 221.906 122.436C221.45 122.244 220.934 122.148 220.358 122.148H213.428ZM232.412 129.348H228.254C228.266 129.168 228.302 128.964 228.362 128.736C228.434 128.508 228.548 128.292 228.704 128.088C228.872 127.884 229.088 127.716 229.352 127.584C229.628 127.44 229.97 127.368 230.378 127.368C231.002 127.368 231.464 127.536 231.764 127.872C232.076 128.208 232.292 128.7 232.412 129.348ZM228.254 130.968H234.968C235.016 130.248 234.956 129.558 234.788 128.898C234.62 128.238 234.344 127.65 233.96 127.134C233.588 126.618 233.108 126.21 232.52 125.91C231.932 125.598 231.242 125.442 230.45 125.442C229.742 125.442 229.094 125.568 228.506 125.82C227.93 126.072 227.432 126.42 227.012 126.864C226.592 127.296 226.268 127.812 226.04 128.412C225.812 129.012 225.698 129.66 225.698 130.356C225.698 131.076 225.806 131.736 226.022 132.336C226.25 132.936 226.568 133.452 226.976 133.884C227.384 134.316 227.882 134.652 228.47 134.892C229.058 135.12 229.718 135.234 230.45 135.234C231.506 135.234 232.406 134.994 233.15 134.514C233.894 134.034 234.446 133.236 234.806 132.12H232.556C232.472 132.408 232.244 132.684 231.872 132.948C231.5 133.2 231.056 133.326 230.54 133.326C229.82 133.326 229.268 133.14 228.884 132.768C228.5 132.396 228.29 131.796 228.254 130.968ZM242.82 128.97H245.322C245.286 128.37 245.142 127.854 244.89 127.422C244.638 126.978 244.308 126.612 243.9 126.324C243.504 126.024 243.048 125.802 242.532 125.658C242.028 125.514 241.5 125.442 240.948 125.442C240.192 125.442 239.52 125.568 238.932 125.82C238.344 126.072 237.846 126.426 237.438 126.882C237.03 127.326 236.718 127.86 236.502 128.484C236.298 129.096 236.196 129.762 236.196 130.482C236.196 131.178 236.31 131.82 236.538 132.408C236.766 132.984 237.084 133.482 237.492 133.902C237.9 134.322 238.392 134.652 238.968 134.892C239.556 135.12 240.198 135.234 240.894 135.234C242.13 135.234 243.144 134.91 243.936 134.262C244.728 133.614 245.208 132.672 245.376 131.436H242.91C242.826 132.012 242.616 132.474 242.28 132.822C241.956 133.158 241.488 133.326 240.876 133.326C240.48 133.326 240.144 133.236 239.868 133.056C239.592 132.876 239.37 132.648 239.202 132.372C239.046 132.084 238.932 131.766 238.86 131.418C238.788 131.07 238.752 130.728 238.752 130.392C238.752 130.044 238.788 129.696 238.86 129.348C238.932 128.988 239.052 128.664 239.22 128.376C239.4 128.076 239.628 127.836 239.904 127.656C240.18 127.464 240.522 127.368 240.93 127.368C242.022 127.368 242.652 127.902 242.82 128.97ZM249.448 124.254V122.148H246.892V124.254H249.448ZM246.892 125.694V135H249.448V125.694H246.892ZM256.158 133.326C255.75 133.326 255.402 133.242 255.114 133.074C254.826 132.906 254.592 132.69 254.412 132.426C254.244 132.15 254.118 131.832 254.034 131.472C253.962 131.112 253.926 130.746 253.926 130.374C253.926 129.99 253.962 129.618 254.034 129.258C254.106 128.898 254.226 128.58 254.394 128.304C254.574 128.028 254.802 127.806 255.078 127.638C255.366 127.458 255.72 127.368 256.14 127.368C256.548 127.368 256.89 127.458 257.166 127.638C257.454 127.806 257.688 128.034 257.868 128.322C258.048 128.598 258.174 128.916 258.246 129.276C258.33 129.636 258.372 130.002 258.372 130.374C258.372 130.746 258.336 131.112 258.264 131.472C258.192 131.832 258.066 132.15 257.886 132.426C257.718 132.69 257.49 132.906 257.202 133.074C256.926 133.242 256.578 133.326 256.158 133.326ZM251.46 125.694V138.258H254.016V133.848H254.052C254.364 134.304 254.76 134.652 255.24 134.892C255.732 135.12 256.266 135.234 256.842 135.234C257.526 135.234 258.12 135.102 258.624 134.838C259.14 134.574 259.566 134.22 259.902 133.776C260.25 133.332 260.508 132.822 260.676 132.246C260.844 131.67 260.928 131.07 260.928 130.446C260.928 129.786 260.844 129.156 260.676 128.556C260.508 127.944 260.25 127.41 259.902 126.954C259.554 126.498 259.116 126.132 258.588 125.856C258.06 125.58 257.43 125.442 256.698 125.442C256.122 125.442 255.594 125.556 255.114 125.784C254.634 126.012 254.238 126.378 253.926 126.882H253.89V125.694H251.46ZM262.464 125.694V135H265.02V130.806C265.02 130.386 265.062 129.996 265.146 129.636C265.23 129.276 265.368 128.964 265.56 128.7C265.764 128.424 266.028 128.208 266.352 128.052C266.676 127.896 267.072 127.818 267.54 127.818C267.696 127.818 267.858 127.83 268.026 127.854C268.194 127.866 268.338 127.884 268.458 127.908V125.532C268.254 125.472 268.068 125.442 267.9 125.442C267.576 125.442 267.264 125.49 266.964 125.586C266.664 125.682 266.382 125.82 266.118 126C265.854 126.168 265.62 126.378 265.416 126.63C265.212 126.87 265.05 127.134 264.93 127.422H264.894V125.694H262.464ZM271.412 130.356C271.412 129.984 271.448 129.618 271.52 129.258C271.592 128.898 271.712 128.58 271.88 128.304C272.06 128.028 272.294 127.806 272.582 127.638C272.87 127.458 273.23 127.368 273.662 127.368C274.094 127.368 274.454 127.458 274.742 127.638C275.042 127.806 275.276 128.028 275.444 128.304C275.624 128.58 275.75 128.898 275.822 129.258C275.894 129.618 275.93 129.984 275.93 130.356C275.93 130.728 275.894 131.094 275.822 131.454C275.75 131.802 275.624 132.12 275.444 132.408C275.276 132.684 275.042 132.906 274.742 133.074C274.454 133.242 274.094 133.326 273.662 133.326C273.23 133.326 272.87 133.242 272.582 133.074C272.294 132.906 272.06 132.684 271.88 132.408C271.712 132.12 271.592 131.802 271.52 131.454C271.448 131.094 271.412 130.728 271.412 130.356ZM268.856 130.356C268.856 131.1 268.97 131.772 269.198 132.372C269.426 132.972 269.75 133.488 270.17 133.92C270.59 134.34 271.094 134.664 271.682 134.892C272.27 135.12 272.93 135.234 273.662 135.234C274.394 135.234 275.054 135.12 275.642 134.892C276.242 134.664 276.752 134.34 277.172 133.92C277.592 133.488 277.916 132.972 278.144 132.372C278.372 131.772 278.486 131.1 278.486 130.356C278.486 129.612 278.372 128.94 278.144 128.34C277.916 127.728 277.592 127.212 277.172 126.792C276.752 126.36 276.242 126.03 275.642 125.802C275.054 125.562 274.394 125.442 273.662 125.442C272.93 125.442 272.27 125.562 271.682 125.802C271.094 126.03 270.59 126.36 270.17 126.792C269.75 127.212 269.426 127.728 269.198 128.34C268.97 128.94 268.856 129.612 268.856 130.356ZM286.484 128.97H288.986C288.95 128.37 288.806 127.854 288.554 127.422C288.302 126.978 287.972 126.612 287.564 126.324C287.168 126.024 286.712 125.802 286.196 125.658C285.692 125.514 285.164 125.442 284.612 125.442C283.856 125.442 283.184 125.568 282.596 125.82C282.008 126.072 281.51 126.426 281.102 126.882C280.694 127.326 280.382 127.86 280.166 128.484C279.962 129.096 279.86 129.762 279.86 130.482C279.86 131.178 279.974 131.82 280.202 132.408C280.43 132.984 280.748 133.482 281.156 133.902C281.564 134.322 282.056 134.652 282.632 134.892C283.22 135.12 283.862 135.234 284.558 135.234C285.794 135.234 286.808 134.91 287.6 134.262C288.392 133.614 288.872 132.672 289.04 131.436H286.574C286.49 132.012 286.28 132.474 285.944 132.822C285.62 133.158 285.152 133.326 284.54 133.326C284.144 133.326 283.808 133.236 283.532 133.056C283.256 132.876 283.034 132.648 282.866 132.372C282.71 132.084 282.596 131.766 282.524 131.418C282.452 131.07 282.416 130.728 282.416 130.392C282.416 130.044 282.452 129.696 282.524 129.348C282.596 128.988 282.716 128.664 282.884 128.376C283.064 128.076 283.292 127.836 283.568 127.656C283.844 127.464 284.186 127.368 284.594 127.368C285.686 127.368 286.316 127.902 286.484 128.97ZM293.112 124.254V122.148H290.556V124.254H293.112ZM290.556 125.694V135H293.112V125.694H290.556ZM298.364 125.694V122.904H295.808V125.694H294.26V127.404H295.808V132.894C295.808 133.362 295.886 133.74 296.042 134.028C296.198 134.316 296.408 134.538 296.672 134.694C296.948 134.85 297.26 134.952 297.608 135C297.968 135.06 298.346 135.09 298.742 135.09C298.994 135.09 299.252 135.084 299.516 135.072C299.78 135.06 300.02 135.036 300.236 135V133.02C300.116 133.044 299.99 133.062 299.858 133.074C299.726 133.086 299.588 133.092 299.444 133.092C299.012 133.092 298.724 133.02 298.58 132.876C298.436 132.732 298.364 132.444 298.364 132.012V127.404H300.236V125.694H298.364ZM306.042 136.152L309.93 125.694H307.284L305.25 132.066H305.214L303.108 125.694H300.39L303.648 134.424C303.72 134.604 303.756 134.796 303.756 135C303.756 135.276 303.672 135.528 303.504 135.756C303.348 135.984 303.102 136.116 302.766 136.152C302.514 136.164 302.262 136.158 302.01 136.134C301.758 136.11 301.512 136.086 301.272 136.062V138.168C301.536 138.192 301.794 138.21 302.046 138.222C302.31 138.246 302.574 138.258 302.838 138.258C303.714 138.258 304.398 138.096 304.89 137.772C305.382 137.448 305.766 136.908 306.042 136.152Z" fill="black"/>
<path d="M600.812 130.032L602.486 125.316H602.522L604.142 130.032H600.812ZM601.082 122.148L596.222 135H599.066L600.074 132.138H604.88L605.852 135H608.786L603.98 122.148H601.082ZM615.96 128.97H618.462C618.426 128.37 618.282 127.854 618.03 127.422C617.778 126.978 617.448 126.612 617.04 126.324C616.644 126.024 616.188 125.802 615.672 125.658C615.168 125.514 614.64 125.442 614.088 125.442C613.332 125.442 612.66 125.568 612.072 125.82C611.484 126.072 610.986 126.426 610.578 126.882C610.17 127.326 609.858 127.86 609.642 128.484C609.438 129.096 609.336 129.762 609.336 130.482C609.336 131.178 609.45 131.82 609.678 132.408C609.906 132.984 610.224 133.482 610.632 133.902C611.04 134.322 611.532 134.652 612.108 134.892C612.696 135.12 613.338 135.234 614.034 135.234C615.27 135.234 616.284 134.91 617.076 134.262C617.868 133.614 618.348 132.672 618.516 131.436H616.05C615.966 132.012 615.756 132.474 615.42 132.822C615.096 133.158 614.628 133.326 614.016 133.326C613.62 133.326 613.284 133.236 613.008 133.056C612.732 132.876 612.51 132.648 612.342 132.372C612.186 132.084 612.072 131.766 612 131.418C611.928 131.07 611.892 130.728 611.892 130.392C611.892 130.044 611.928 129.696 612 129.348C612.072 128.988 612.192 128.664 612.36 128.376C612.54 128.076 612.768 127.836 613.044 127.656C613.32 127.464 613.662 127.368 614.07 127.368C615.162 127.368 615.792 127.902 615.96 128.97ZM623.2 125.694V122.904H620.644V125.694H619.096V127.404H620.644V132.894C620.644 133.362 620.722 133.74 620.878 134.028C621.034 134.316 621.244 134.538 621.508 134.694C621.784 134.85 622.096 134.952 622.444 135C622.804 135.06 623.182 135.09 623.578 135.09C623.83 135.09 624.088 135.084 624.352 135.072C624.616 135.06 624.856 135.036 625.072 135V133.02C624.952 133.044 624.826 133.062 624.694 133.074C624.562 133.086 624.424 133.092 624.28 133.092C623.848 133.092 623.56 133.02 623.416 132.876C623.272 132.732 623.2 132.444 623.2 132.012V127.404H625.072V125.694H623.2ZM628.916 124.254V122.148H626.36V124.254H628.916ZM626.36 125.694V135H628.916V125.694H626.36ZM636.077 135L639.227 125.694H636.689L634.727 132.048H634.691L632.729 125.694H630.047L633.233 135H636.077ZM642.909 124.254V122.148H640.353V124.254H642.909ZM640.353 125.694V135H642.909V125.694H640.353ZM648.161 125.694V122.904H645.605V125.694H644.057V127.404H645.605V132.894C645.605 133.362 645.683 133.74 645.839 134.028C645.995 134.316 646.205 134.538 646.469 134.694C646.745 134.85 647.057 134.952 647.405 135C647.765 135.06 648.143 135.09 648.539 135.09C648.791 135.09 649.049 135.084 649.313 135.072C649.577 135.06 649.817 135.036 650.033 135V133.02C649.913 133.044 649.787 133.062 649.655 133.074C649.523 133.086 649.385 133.092 649.241 133.092C648.809 133.092 648.521 133.02 648.377 132.876C648.233 132.732 648.161 132.444 648.161 132.012V127.404H650.033V125.694H648.161ZM655.839 136.152L659.727 125.694H657.081L655.047 132.066H655.011L652.905 125.694H650.187L653.445 134.424C653.517 134.604 653.553 134.796 653.553 135C653.553 135.276 653.469 135.528 653.301 135.756C653.145 135.984 652.899 136.116 652.563 136.152C652.311 136.164 652.059 136.158 651.807 136.134C651.555 136.11 651.309 136.086 651.069 136.062V138.168C651.333 138.192 651.591 138.21 651.843 138.222C652.107 138.246 652.371 138.258 652.635 138.258C653.511 138.258 654.195 138.096 654.687 137.772C655.179 137.448 655.563 136.908 655.839 136.152ZM667.789 130.734H665.053C665.041 131.526 665.185 132.21 665.485 132.786C665.785 133.362 666.187 133.836 666.691 134.208C667.207 134.58 667.795 134.85 668.455 135.018C669.127 135.198 669.817 135.288 670.525 135.288C671.401 135.288 672.169 135.186 672.829 134.982C673.501 134.778 674.059 134.496 674.503 134.136C674.959 133.764 675.301 133.326 675.529 132.822C675.757 132.318 675.871 131.772 675.871 131.184C675.871 130.464 675.715 129.876 675.403 129.42C675.103 128.952 674.743 128.58 674.323 128.304C673.903 128.028 673.477 127.83 673.045 127.71C672.625 127.578 672.295 127.488 672.055 127.44C671.251 127.236 670.597 127.068 670.093 126.936C669.601 126.804 669.211 126.672 668.923 126.54C668.647 126.408 668.461 126.264 668.365 126.108C668.269 125.952 668.221 125.748 668.221 125.496C668.221 125.22 668.281 124.992 668.401 124.812C668.521 124.632 668.671 124.482 668.851 124.362C669.043 124.242 669.253 124.158 669.481 124.11C669.709 124.062 669.937 124.038 670.165 124.038C670.513 124.038 670.831 124.068 671.119 124.128C671.419 124.188 671.683 124.29 671.911 124.434C672.139 124.578 672.319 124.776 672.451 125.028C672.595 125.28 672.679 125.598 672.703 125.982H675.439C675.439 125.238 675.295 124.608 675.007 124.092C674.731 123.564 674.353 123.132 673.873 122.796C673.393 122.46 672.841 122.22 672.217 122.076C671.605 121.92 670.963 121.842 670.291 121.842C669.715 121.842 669.139 121.92 668.563 122.076C667.987 122.232 667.471 122.472 667.015 122.796C666.559 123.12 666.187 123.528 665.899 124.02C665.623 124.5 665.485 125.07 665.485 125.73C665.485 126.318 665.593 126.822 665.809 127.242C666.037 127.65 666.331 127.992 666.691 128.268C667.051 128.544 667.459 128.772 667.915 128.952C668.371 129.12 668.839 129.264 669.319 129.384C669.787 129.516 670.249 129.636 670.705 129.744C671.161 129.852 671.569 129.978 671.929 130.122C672.289 130.266 672.577 130.446 672.793 130.662C673.021 130.878 673.135 131.16 673.135 131.508C673.135 131.832 673.051 132.102 672.883 132.318C672.715 132.522 672.505 132.684 672.253 132.804C672.001 132.924 671.731 133.008 671.443 133.056C671.155 133.092 670.885 133.11 670.633 133.11C670.261 133.11 669.901 133.068 669.553 132.984C669.205 132.888 668.899 132.75 668.635 132.57C668.383 132.378 668.179 132.132 668.023 131.832C667.867 131.532 667.789 131.166 667.789 130.734ZM681.981 133.326C681.573 133.326 681.225 133.242 680.937 133.074C680.649 132.906 680.415 132.69 680.235 132.426C680.067 132.15 679.941 131.832 679.857 131.472C679.785 131.112 679.749 130.746 679.749 130.374C679.749 129.99 679.785 129.618 679.857 129.258C679.929 128.898 680.049 128.58 680.217 128.304C680.397 128.028 680.625 127.806 680.901 127.638C681.189 127.458 681.543 127.368 681.963 127.368C682.371 127.368 682.713 127.458 682.989 127.638C683.277 127.806 683.511 128.034 683.691 128.322C683.871 128.598 683.997 128.916 684.069 129.276C684.153 129.636 684.195 130.002 684.195 130.374C684.195 130.746 684.159 131.112 684.087 131.472C684.015 131.832 683.889 132.15 683.709 132.426C683.541 132.69 683.313 132.906 683.025 133.074C682.749 133.242 682.401 133.326 681.981 133.326ZM677.283 125.694V138.258H679.839V133.848H679.875C680.187 134.304 680.583 134.652 681.063 134.892C681.555 135.12 682.089 135.234 682.665 135.234C683.349 135.234 683.943 135.102 684.447 134.838C684.963 134.574 685.389 134.22 685.725 133.776C686.073 133.332 686.331 132.822 686.499 132.246C686.667 131.67 686.751 131.07 686.751 130.446C686.751 129.786 686.667 129.156 686.499 128.556C686.331 127.944 686.073 127.41 685.725 126.954C685.377 126.498 684.939 126.132 684.411 125.856C683.883 125.58 683.253 125.442 682.521 125.442C681.945 125.442 681.417 125.556 680.937 125.784C680.457 126.012 680.061 126.378 679.749 126.882H679.713V125.694H677.283ZM688.286 125.694V135H690.842V130.806C690.842 130.386 690.884 129.996 690.968 129.636C691.052 129.276 691.19 128.964 691.382 128.7C691.586 128.424 691.85 128.208 692.174 128.052C692.498 127.896 692.894 127.818 693.362 127.818C693.518 127.818 693.68 127.83 693.848 127.854C694.016 127.866 694.16 127.884 694.28 127.908V125.532C694.076 125.472 693.89 125.442 693.722 125.442C693.398 125.442 693.086 125.49 692.786 125.586C692.486 125.682 692.204 125.82 691.94 126C691.676 126.168 691.442 126.378 691.238 126.63C691.034 126.87 690.872 127.134 690.752 127.422H690.716V125.694H688.286ZM701.23 129.348H697.072C697.084 129.168 697.12 128.964 697.18 128.736C697.252 128.508 697.366 128.292 697.522 128.088C697.69 127.884 697.906 127.716 698.17 127.584C698.446 127.44 698.788 127.368 699.196 127.368C699.82 127.368 700.282 127.536 700.582 127.872C700.894 128.208 701.11 128.7 701.23 129.348ZM697.072 130.968H703.786C703.834 130.248 703.774 129.558 703.606 128.898C703.438 128.238 703.162 127.65 702.778 127.134C702.406 126.618 701.926 126.21 701.338 125.91C700.75 125.598 700.06 125.442 699.268 125.442C698.56 125.442 697.912 125.568 697.324 125.82C696.748 126.072 696.25 126.42 695.83 126.864C695.41 127.296 695.086 127.812 694.858 128.412C694.63 129.012 694.516 129.66 694.516 130.356C694.516 131.076 694.624 131.736 694.84 132.336C695.068 132.936 695.386 133.452 695.794 133.884C696.202 134.316 696.7 134.652 697.288 134.892C697.876 135.12 698.536 135.234 699.268 135.234C700.324 135.234 701.224 134.994 701.968 134.514C702.712 134.034 703.264 133.236 703.624 132.12H701.374C701.29 132.408 701.062 132.684 700.69 132.948C700.318 133.2 699.874 133.326 699.358 133.326C698.638 133.326 698.086 133.14 697.702 132.768C697.318 132.396 697.108 131.796 697.072 130.968ZM705.194 128.556C705.23 127.956 705.38 127.458 705.644 127.062C705.908 126.666 706.244 126.348 706.652 126.108C707.06 125.868 707.516 125.7 708.02 125.604C708.536 125.496 709.052 125.442 709.568 125.442C710.036 125.442 710.51 125.478 710.99 125.55C711.47 125.61 711.908 125.736 712.304 125.928C712.7 126.12 713.024 126.39 713.276 126.738C713.528 127.074 713.654 127.524 713.654 128.088V132.93C713.654 133.35 713.678 133.752 713.726 134.136C713.774 134.52 713.858 134.808 713.978 135H711.386C711.338 134.856 711.296 134.712 711.26 134.568C711.236 134.412 711.218 134.256 711.206 134.1C710.798 134.52 710.318 134.814 709.766 134.982C709.214 135.15 708.65 135.234 708.074 135.234C707.63 135.234 707.216 135.18 706.832 135.072C706.448 134.964 706.112 134.796 705.824 134.568C705.536 134.34 705.308 134.052 705.14 133.704C704.984 133.356 704.906 132.942 704.906 132.462C704.906 131.934 704.996 131.502 705.176 131.166C705.368 130.818 705.608 130.542 705.896 130.338C706.196 130.134 706.532 129.984 706.904 129.888C707.288 129.78 707.672 129.696 708.056 129.636C708.44 129.576 708.818 129.528 709.19 129.492C709.562 129.456 709.892 129.402 710.18 129.33C710.468 129.258 710.696 129.156 710.864 129.024C711.032 128.88 711.11 128.676 711.098 128.412C711.098 128.136 711.05 127.92 710.954 127.764C710.87 127.596 710.75 127.47 710.594 127.386C710.45 127.29 710.276 127.23 710.072 127.206C709.88 127.17 709.67 127.152 709.442 127.152C708.938 127.152 708.542 127.26 708.254 127.476C707.966 127.692 707.798 128.052 707.75 128.556H705.194ZM711.098 130.446C710.99 130.542 710.852 130.62 710.684 130.68C710.528 130.728 710.354 130.77 710.162 130.806C709.982 130.842 709.79 130.872 709.586 130.896C709.382 130.92 709.178 130.95 708.974 130.986C708.782 131.022 708.59 131.07 708.398 131.13C708.218 131.19 708.056 131.274 707.912 131.382C707.78 131.478 707.672 131.604 707.588 131.76C707.504 131.916 707.462 132.114 707.462 132.354C707.462 132.582 707.504 132.774 707.588 132.93C707.672 133.086 707.786 133.212 707.93 133.308C708.074 133.392 708.242 133.452 708.434 133.488C708.626 133.524 708.824 133.542 709.028 133.542C709.532 133.542 709.922 133.458 710.198 133.29C710.474 133.122 710.678 132.924 710.81 132.696C710.942 132.456 711.02 132.216 711.044 131.976C711.08 131.736 711.098 131.544 711.098 131.4V130.446ZM722.244 130.32C722.244 130.704 722.208 131.076 722.136 131.436C722.064 131.796 721.944 132.12 721.776 132.408C721.608 132.684 721.38 132.906 721.092 133.074C720.816 133.242 720.468 133.326 720.048 133.326C719.652 133.326 719.31 133.242 719.022 133.074C718.746 132.894 718.512 132.666 718.32 132.39C718.14 132.102 718.008 131.778 717.924 131.418C717.84 131.058 717.798 130.698 717.798 130.338C717.798 129.954 717.834 129.588 717.906 129.24C717.99 128.88 718.116 128.562 718.284 128.286C718.464 128.01 718.698 127.788 718.986 127.62C719.274 127.452 719.628 127.368 720.048 127.368C720.468 127.368 720.816 127.452 721.092 127.62C721.368 127.788 721.59 128.01 721.758 128.286C721.938 128.55 722.064 128.862 722.136 129.222C722.208 129.57 722.244 129.936 722.244 130.32ZM722.28 133.812V135H724.71V122.148H722.154V126.828H722.118C721.83 126.372 721.434 126.03 720.93 125.802C720.438 125.562 719.916 125.442 719.364 125.442C718.68 125.442 718.08 125.58 717.564 125.856C717.048 126.12 716.616 126.474 716.268 126.918C715.932 127.362 715.674 127.878 715.494 128.466C715.326 129.042 715.242 129.642 715.242 130.266C715.242 130.914 715.326 131.538 715.494 132.138C715.674 132.738 715.932 133.272 716.268 133.74C716.616 134.196 717.054 134.562 717.582 134.838C718.11 135.102 718.722 135.234 719.418 135.234C720.03 135.234 720.576 135.126 721.056 134.91C721.548 134.682 721.944 134.316 722.244 133.812H722.28Z" fill="black"/>
<path d="M797.452 122.148V135H800.098V125.982H800.134L803.284 135H805.462L808.612 125.892H808.648V135H811.294V122.148H807.316L804.472 130.986H804.436L801.43 122.148H797.452ZM822.242 135V125.694H819.686V130.572C819.686 131.52 819.53 132.204 819.218 132.624C818.906 133.032 818.402 133.236 817.706 133.236C817.094 133.236 816.668 133.05 816.428 132.678C816.188 132.294 816.068 131.718 816.068 130.95V125.694H813.512V131.418C813.512 131.994 813.56 132.522 813.656 133.002C813.764 133.47 813.944 133.872 814.196 134.208C814.448 134.532 814.79 134.784 815.222 134.964C815.666 135.144 816.23 135.234 816.914 135.234C817.454 135.234 817.982 135.114 818.498 134.874C819.014 134.634 819.434 134.244 819.758 133.704H819.812V135H822.242ZM824.254 122.148V135H826.81V122.148H824.254ZM832.063 125.694V122.904H829.507V125.694H827.959V127.404H829.507V132.894C829.507 133.362 829.585 133.74 829.741 134.028C829.897 134.316 830.107 134.538 830.371 134.694C830.647 134.85 830.959 134.952 831.307 135C831.667 135.06 832.045 135.09 832.441 135.09C832.693 135.09 832.951 135.084 833.215 135.072C833.479 135.06 833.719 135.036 833.935 135V133.02C833.815 133.044 833.689 133.062 833.557 133.074C833.425 133.086 833.287 133.092 833.143 133.092C832.711 133.092 832.423 133.02 832.279 132.876C832.135 132.732 832.063 132.444 832.063 132.012V127.404H833.935V125.694H832.063ZM837.779 124.254V122.148H835.223V124.254H837.779ZM835.223 125.694V135H837.779V125.694H835.223ZM844.489 133.326C844.081 133.326 843.733 133.242 843.445 133.074C843.157 132.906 842.923 132.69 842.743 132.426C842.575 132.15 842.449 131.832 842.365 131.472C842.293 131.112 842.257 130.746 842.257 130.374C842.257 129.99 842.293 129.618 842.365 129.258C842.437 128.898 842.557 128.58 842.725 128.304C842.905 128.028 843.133 127.806 843.409 127.638C843.697 127.458 844.051 127.368 844.471 127.368C844.879 127.368 845.221 127.458 845.497 127.638C845.785 127.806 846.019 128.034 846.199 128.322C846.379 128.598 846.505 128.916 846.577 129.276C846.661 129.636 846.703 130.002 846.703 130.374C846.703 130.746 846.667 131.112 846.595 131.472C846.523 131.832 846.397 132.15 846.217 132.426C846.049 132.69 845.821 132.906 845.533 133.074C845.257 133.242 844.909 133.326 844.489 133.326ZM839.791 125.694V138.258H842.347V133.848H842.383C842.695 134.304 843.091 134.652 843.571 134.892C844.063 135.12 844.597 135.234 845.173 135.234C845.857 135.234 846.451 135.102 846.955 134.838C847.471 134.574 847.897 134.22 848.233 133.776C848.581 133.332 848.839 132.822 849.007 132.246C849.175 131.67 849.259 131.07 849.259 130.446C849.259 129.786 849.175 129.156 849.007 128.556C848.839 127.944 848.581 127.41 848.233 126.954C847.885 126.498 847.447 126.132 846.919 125.856C846.391 125.58 845.761 125.442 845.029 125.442C844.453 125.442 843.925 125.556 843.445 125.784C842.965 126.012 842.569 126.378 842.257 126.882H842.221V125.694H839.791ZM850.867 122.148V135H853.423V122.148H850.867ZM861.7 129.348H857.542C857.554 129.168 857.59 128.964 857.65 128.736C857.722 128.508 857.836 128.292 857.992 128.088C858.16 127.884 858.376 127.716 858.64 127.584C858.916 127.44 859.258 127.368 859.666 127.368C860.29 127.368 860.752 127.536 861.052 127.872C861.364 128.208 861.58 128.7 861.7 129.348ZM857.542 130.968H864.256C864.304 130.248 864.244 129.558 864.076 128.898C863.908 128.238 863.632 127.65 863.248 127.134C862.876 126.618 862.396 126.21 861.808 125.91C861.22 125.598 860.53 125.442 859.738 125.442C859.03 125.442 858.382 125.568 857.794 125.82C857.218 126.072 856.72 126.42 856.3 126.864C855.88 127.296 855.556 127.812 855.328 128.412C855.1 129.012 854.986 129.66 854.986 130.356C854.986 131.076 855.094 131.736 855.31 132.336C855.538 132.936 855.856 133.452 856.264 133.884C856.672 134.316 857.17 134.652 857.758 134.892C858.346 135.12 859.006 135.234 859.738 135.234C860.794 135.234 861.694 134.994 862.438 134.514C863.182 134.034 863.734 133.236 864.094 132.12H861.844C861.76 132.408 861.532 132.684 861.16 132.948C860.788 133.2 860.344 133.326 859.828 133.326C859.108 133.326 858.556 133.14 858.172 132.768C857.788 132.396 857.578 131.796 857.542 130.968ZM879.62 126.468H882.356C882.272 125.724 882.068 125.064 881.744 124.488C881.42 123.912 881.006 123.432 880.502 123.048C880.01 122.652 879.446 122.352 878.81 122.148C878.186 121.944 877.52 121.842 876.812 121.842C875.828 121.842 874.94 122.016 874.148 122.364C873.368 122.712 872.708 123.192 872.168 123.804C871.628 124.416 871.214 125.136 870.926 125.964C870.638 126.78 870.494 127.668 870.494 128.628C870.494 129.564 870.638 130.44 870.926 131.256C871.214 132.06 871.628 132.762 872.168 133.362C872.708 133.962 873.368 134.436 874.148 134.784C874.94 135.12 875.828 135.288 876.812 135.288C877.604 135.288 878.33 135.168 878.99 134.928C879.65 134.688 880.226 134.34 880.718 133.884C881.21 133.428 881.606 132.876 881.906 132.228C882.206 131.58 882.392 130.854 882.464 130.05H879.728C879.62 130.914 879.32 131.61 878.828 132.138C878.348 132.666 877.676 132.93 876.812 132.93C876.176 132.93 875.636 132.81 875.192 132.57C874.748 132.318 874.388 131.988 874.112 131.58C873.836 131.172 873.632 130.716 873.5 130.212C873.38 129.696 873.32 129.168 873.32 128.628C873.32 128.064 873.38 127.518 873.5 126.99C873.632 126.462 873.836 125.994 874.112 125.586C874.388 125.166 874.748 124.836 875.192 124.596C875.636 124.344 876.176 124.218 876.812 124.218C877.16 124.218 877.49 124.278 877.802 124.398C878.126 124.506 878.414 124.662 878.666 124.866C878.918 125.07 879.128 125.31 879.296 125.586C879.464 125.85 879.572 126.144 879.62 126.468ZM886.391 130.356C886.391 129.984 886.427 129.618 886.499 129.258C886.571 128.898 886.691 128.58 886.859 128.304C887.039 128.028 887.273 127.806 887.561 127.638C887.849 127.458 888.209 127.368 888.641 127.368C889.073 127.368 889.433 127.458 889.721 127.638C890.021 127.806 890.255 128.028 890.423 128.304C890.603 128.58 890.729 128.898 890.801 129.258C890.873 129.618 890.909 129.984 890.909 130.356C890.909 130.728 890.873 131.094 890.801 131.454C890.729 131.802 890.603 132.12 890.423 132.408C890.255 132.684 890.021 132.906 889.721 133.074C889.433 133.242 889.073 133.326 888.641 133.326C888.209 133.326 887.849 133.242 887.561 133.074C887.273 132.906 887.039 132.684 886.859 132.408C886.691 132.12 886.571 131.802 886.499 131.454C886.427 131.094 886.391 130.728 886.391 130.356ZM883.835 130.356C883.835 131.1 883.949 131.772 884.177 132.372C884.405 132.972 884.729 133.488 885.149 133.92C885.569 134.34 886.073 134.664 886.661 134.892C887.249 135.12 887.909 135.234 888.641 135.234C889.373 135.234 890.033 135.12 890.621 134.892C891.221 134.664 891.731 134.34 892.151 133.92C892.571 133.488 892.895 132.972 893.123 132.372C893.351 131.772 893.465 131.1 893.465 130.356C893.465 129.612 893.351 128.94 893.123 128.34C892.895 127.728 892.571 127.212 892.151 126.792C891.731 126.36 891.221 126.03 890.621 125.802C890.033 125.562 889.373 125.442 888.641 125.442C887.909 125.442 887.249 125.562 886.661 125.802C886.073 126.03 885.569 126.36 885.149 126.792C884.729 127.212 884.405 127.728 884.177 128.34C883.949 128.94 883.835 129.612 883.835 130.356ZM895.127 125.694V135H897.683V130.122C897.683 129.174 897.839 128.496 898.151 128.088C898.463 127.668 898.967 127.458 899.663 127.458C900.275 127.458 900.701 127.65 900.941 128.034C901.181 128.406 901.301 128.976 901.301 129.744V135H903.857V129.276C903.857 128.7 903.803 128.178 903.695 127.71C903.599 127.23 903.425 126.828 903.173 126.504C902.921 126.168 902.573 125.91 902.129 125.73C901.697 125.538 901.139 125.442 900.455 125.442C899.915 125.442 899.387 125.568 898.871 125.82C898.355 126.06 897.935 126.45 897.611 126.99H897.557V125.694H895.127ZM905.797 125.694V135H908.353V130.122C908.353 129.174 908.509 128.496 908.821 128.088C909.133 127.668 909.637 127.458 910.333 127.458C910.945 127.458 911.371 127.65 911.611 128.034C911.851 128.406 911.971 128.976 911.971 129.744V135H914.527V129.276C914.527 128.7 914.473 128.178 914.365 127.71C914.269 127.23 914.095 126.828 913.843 126.504C913.591 126.168 913.243 125.91 912.799 125.73C912.367 125.538 911.809 125.442 911.125 125.442C910.585 125.442 910.057 125.568 909.541 125.82C909.025 126.06 908.605 126.45 908.281 126.99H908.227V125.694H905.797ZM922.731 129.348H918.573C918.585 129.168 918.621 128.964 918.681 128.736C918.753 128.508 918.867 128.292 919.023 128.088C919.191 127.884 919.407 127.716 919.671 127.584C919.947 127.44 920.289 127.368 920.697 127.368C921.321 127.368 921.783 127.536 922.083 127.872C922.395 128.208 922.611 128.7 922.731 129.348ZM918.573 130.968H925.287C925.335 130.248 925.275 129.558 925.107 128.898C924.939 128.238 924.663 127.65 924.279 127.134C923.907 126.618 923.427 126.21 922.839 125.91C922.251 125.598 921.561 125.442 920.769 125.442C920.061 125.442 919.413 125.568 918.825 125.82C918.249 126.072 917.751 126.42 917.331 126.864C916.911 127.296 916.587 127.812 916.359 128.412C916.131 129.012 916.017 129.66 916.017 130.356C916.017 131.076 916.125 131.736 916.341 132.336C916.569 132.936 916.887 133.452 917.295 133.884C917.703 134.316 918.201 134.652 918.789 134.892C919.377 135.12 920.037 135.234 920.769 135.234C921.825 135.234 922.725 134.994 923.469 134.514C924.213 134.034 924.765 133.236 925.125 132.12H922.875C922.791 132.408 922.563 132.684 922.191 132.948C921.819 133.2 921.375 133.326 920.859 133.326C920.139 133.326 919.587 133.14 919.203 132.768C918.819 132.396 918.609 131.796 918.573 130.968ZM933.139 128.97H935.641C935.605 128.37 935.461 127.854 935.209 127.422C934.957 126.978 934.627 126.612 934.219 126.324C933.823 126.024 933.367 125.802 932.851 125.658C932.347 125.514 931.819 125.442 931.267 125.442C930.511 125.442 929.839 125.568 929.251 125.82C928.663 126.072 928.165 126.426 927.757 126.882C927.349 127.326 927.037 127.86 926.821 128.484C926.617 129.096 926.515 129.762 926.515 130.482C926.515 131.178 926.629 131.82 926.857 132.408C927.085 132.984 927.403 133.482 927.811 133.902C928.219 134.322 928.711 134.652 929.287 134.892C929.875 135.12 930.517 135.234 931.213 135.234C932.449 135.234 933.463 134.91 934.255 134.262C935.047 133.614 935.527 132.672 935.695 131.436H933.229C933.145 132.012 932.935 132.474 932.599 132.822C932.275 133.158 931.807 133.326 931.195 133.326C930.799 133.326 930.463 133.236 930.187 133.056C929.911 132.876 929.689 132.648 929.521 132.372C929.365 132.084 929.251 131.766 929.179 131.418C929.107 131.07 929.071 130.728 929.071 130.392C929.071 130.044 929.107 129.696 929.179 129.348C929.251 128.988 929.371 128.664 929.539 128.376C929.719 128.076 929.947 127.836 930.223 127.656C930.499 127.464 930.841 127.368 931.249 127.368C932.341 127.368 932.971 127.902 933.139 128.97ZM940.379 125.694V122.904H937.823V125.694H936.275V127.404H937.823V132.894C937.823 133.362 937.901 133.74 938.057 134.028C938.213 134.316 938.423 134.538 938.687 134.694C938.963 134.85 939.275 134.952 939.623 135C939.983 135.06 940.361 135.09 940.757 135.09C941.009 135.09 941.267 135.084 941.531 135.072C941.795 135.06 942.035 135.036 942.251 135V133.02C942.131 133.044 942.005 133.062 941.873 133.074C941.741 133.086 941.603 133.092 941.459 133.092C941.027 133.092 940.739 133.02 940.595 132.876C940.451 132.732 940.379 132.444 940.379 132.012V127.404H942.251V125.694H940.379ZM946.095 124.254V122.148H943.539V124.254H946.095ZM943.539 125.694V135H946.095V125.694H943.539ZM953.256 135L956.406 125.694H953.868L951.906 132.048H951.87L949.908 125.694H947.226L950.412 135H953.256ZM960.087 124.254V122.148H957.531V124.254H960.087ZM957.531 125.694V135H960.087V125.694H957.531ZM965.34 125.694V122.904H962.784V125.694H961.236V127.404H962.784V132.894C962.784 133.362 962.862 133.74 963.018 134.028C963.174 134.316 963.384 134.538 963.648 134.694C963.924 134.85 964.236 134.952 964.584 135C964.944 135.06 965.322 135.09 965.718 135.09C965.97 135.09 966.228 135.084 966.492 135.072C966.756 135.06 966.996 135.036 967.212 135V133.02C967.092 133.044 966.966 133.062 966.834 133.074C966.702 133.086 966.564 133.092 966.42 133.092C965.988 133.092 965.7 133.02 965.556 132.876C965.412 132.732 965.34 132.444 965.34 132.012V127.404H967.212V125.694H965.34ZM973.018 136.152L976.906 125.694H974.26L972.226 132.066H972.19L970.084 125.694H967.366L970.624 134.424C970.696 134.604 970.732 134.796 970.732 135C970.732 135.276 970.648 135.528 970.48 135.756C970.324 135.984 970.078 136.116 969.742 136.152C969.49 136.164 969.238 136.158 968.986 136.134C968.734 136.11 968.488 136.086 968.248 136.062V138.168C968.512 138.192 968.77 138.21 969.022 138.222C969.286 138.246 969.55 138.258 969.814 138.258C970.69 138.258 971.374 138.096 971.866 137.772C972.358 137.448 972.742 136.908 973.018 136.152Z" fill="black"/>
<path d="M461 51C466.523 51 471 46.5228 471 41C471 35.4772 466.523 31 461 31C455.477 31 451 35.4772 451 41C451 46.5228 455.477 51 461 51Z" fill="#999999" stroke="black"/>
<path d="M411 51C416.523 51 421 46.5228 421 41C421 35.4772 416.523 31 411 31C405.477 31 401 35.4772 401 41C401 46.5228 405.477 51 411 51Z" fill="#999999" stroke="black"/>
<path d="M411 81C416.523 81 421 76.5228 421 71C421 65.4772 416.523 61 411 61C405.477 61 401 65.4772 401 71C401 76.5228 405.477 81 411 81Z" fill="#999999" stroke="black"/>
<path d="M411 21C416.523 21 421 16.5228 421 11C421 5.47715 416.523 1 411 1C405.477 1 401 5.47715 401 11C401 16.5228 405.477 21 411 21Z" fill="#999999" stroke="black"/>
<path d="M511 51C516.523 51 521 46.5228 521 41C521 35.4772 516.523 31 511 31C505.477 31 501 35.4772 501 41C501 46.5228 505.477 51 511 51Z" fill="#999999" stroke="black"/>
<path d="M511 81C516.523 81 521 76.5228 521 71C521 65.4772 516.523 61 511 61C505.477 61 501 65.4772 501 71C501 76.5228 505.477 81 511 81Z" fill="#999999" stroke="black"/>
<path d="M511 21C516.523 21 521 16.5228 521 11C521 5.47715 516.523 1 511 1C505.477 1 501 5.47715 501 11C501 16.5228 505.477 21 511 21Z" fill="#999999" stroke="black"/>
<path d="M451.102 31.4895C451.372 31.4332 451.546 31.1684 451.489 30.898L450.572 26.4926C450.515 26.2223 450.251 26.0488 449.98 26.1051C449.71 26.1614 449.536 26.4262 449.593 26.6966L450.409 30.6125L446.493 31.4283C446.222 31.4846 446.049 31.7494 446.105 32.0198C446.161 32.2901 446.426 32.4636 446.697 32.4073L451.102 31.4895ZM421.726 12.4182L450.726 31.4182L451.274 30.5818L422.274 11.5818L421.726 12.4182Z" fill="black"/>
<path d="M470.511 30.898C470.454 31.1684 470.628 31.4332 470.898 31.4895L475.303 32.4073C475.574 32.4636 475.839 32.2901 475.895 32.0198C475.951 31.7494 475.778 31.4846 475.507 31.4283L471.591 30.6125L472.407 26.6966C472.464 26.4262 472.29 26.1614 472.02 26.1051C471.749 26.0488 471.485 26.2223 471.428 26.4926L470.511 30.898ZM499.726 11.5818L470.726 30.5818L471.274 31.4182L500.274 12.4182L499.726 11.5818Z" fill="black"/>
<path d="M470.91 50.5082C470.638 50.5581 470.458 50.8187 470.508 51.0903L471.321 55.5163C471.371 55.7879 471.632 55.9676 471.903 55.9177C472.175 55.8678 472.355 55.6072 472.305 55.3356L471.582 51.4014L475.516 50.6788C475.788 50.629 475.968 50.3683 475.918 50.0967C475.868 49.8251 475.607 49.6454 475.336 49.6953L470.91 50.5082ZM500.284 70.5884L471.284 50.5884L470.716 51.4116L499.716 71.4116L500.284 70.5884Z" fill="black"/>
<path d="M471.646 40.6464C471.451 40.8417 471.451 41.1583 471.646 41.3536L474.828 44.5355C475.024 44.7308 475.34 44.7308 475.536 44.5355C475.731 44.3403 475.731 44.0237 475.536 43.8284L472.707 41L475.536 38.1716C475.731 37.9763 475.731 37.6597 475.536 37.4645C475.34 37.2692 475.024 37.2692 474.828 37.4645L471.646 40.6464ZM500 40.5L472 40.5L472 41.5L500 41.5L500 40.5Z" fill="black"/>
<path d="M451.492 51.0903C451.542 50.8187 451.362 50.5581 451.09 50.5082L446.664 49.6953C446.393 49.6454 446.132 49.8251 446.082 50.0967C446.032 50.3683 446.212 50.629 446.484 50.6788L450.418 51.4014L449.695 55.3356C449.645 55.6072 449.825 55.8679 450.097 55.9177C450.368 55.9676 450.629 55.7879 450.679 55.5163L451.492 51.0903ZM422.284 71.4116L451.284 51.4116L450.716 50.5884L421.716 70.5884L422.284 71.4116Z" fill="black"/>
<path d="M450.354 41.3536C450.549 41.1583 450.549 40.8417 450.354 40.6464L447.172 37.4645C446.976 37.2692 446.66 37.2692 446.464 37.4645C446.269 37.6597 446.269 37.9763 446.464 38.1716L449.293 41L446.464 43.8284C446.269 44.0237 446.269 44.3403 446.464 44.5355C446.66 44.7308 446.976 44.7308 447.172 44.5355L450.354 41.3536ZM422 41.5L450 41.5L450 40.5L422 40.5L422 41.5Z" fill="black"/>
<path d="M661 51C666.523 51 671 46.5228 671 41C671 35.4772 666.523 31 661 31C655.477 31 651 35.4772 651 41C651 46.5228 655.477 51 661 51Z" fill="#999999" stroke="black"/>
<path d="M611 51C616.523 51 621 46.5228 621 41C621 35.4772 616.523 31 611 31C605.477 31 601 35.4772 601 41C601 46.5228 605.477 51 611 51Z" fill="#999999" stroke="black"/>
<path d="M611 81C616.523 81 621 76.5228 621 71C621 65.4772 616.523 61 611 61C605.477 61 601 65.4772 601 71C601 76.5228 605.477 81 611 81Z" fill="#999999" stroke="black"/>
<path d="M611 21C616.523 21 621 16.5228 621 11C621 5.47715 616.523 1 611 1C605.477 1 601 5.47715 601 11C601 16.5228 605.477 21 611 21Z" fill="#999999" stroke="black"/>
<path d="M711 51C716.523 51 721 46.5228 721 41C721 35.4772 716.523 31 711 31C705.477 31 701 35.4772 701 41C701 46.5228 705.477 51 711 51Z" fill="#999999" stroke="black"/>
<path d="M711 81C716.523 81 721 76.5228 721 71C721 65.4772 716.523 61 711 61C705.477 61 701 65.4772 701 71C701 76.5228 705.477 81 711 81Z" fill="#999999" stroke="black"/>
<path d="M711 21C716.523 21 721 16.5228 721 11C721 5.47715 716.523 1 711 1C705.477 1 701 5.47715 701 11C701 16.5228 705.477 21 711 21Z" fill="#999999" stroke="black"/>
<path d="M621.898 11.5105C621.628 11.5668 621.454 11.8316 621.511 12.102L622.428 16.5074C622.485 16.7777 622.749 16.9512 623.02 16.8949C623.29 16.8386 623.464 16.5738 623.407 16.3034L622.591 12.3875L626.507 11.5717C626.778 11.5154 626.951 11.2506 626.895 10.9802C626.839 10.7099 626.574 10.5364 626.303 10.5927L621.898 11.5105ZM621.726 12.4182L650.726 31.4182L651.274 30.5818L622.274 11.5818L621.726 12.4182Z" fill="black"/>
<path d="M700.489 12.102C700.546 11.8316 700.372 11.5668 700.102 11.5105L695.697 10.5927C695.426 10.5364 695.161 10.7099 695.105 10.9802C695.049 11.2506 695.222 11.5154 695.493 11.5717L699.409 12.3875L698.593 16.3034C698.536 16.5738 698.71 16.8386 698.98 16.8949C699.251 16.9512 699.515 16.7777 699.572 16.5074L700.489 12.102ZM699.726 11.5818L670.726 30.5818L671.274 31.4182L700.274 12.4182L699.726 11.5818Z" fill="black"/>
<path d="M700.09 71.4918C700.362 71.4419 700.542 71.1813 700.492 70.9097L699.679 66.4837C699.629 66.2121 699.368 66.0324 699.097 66.0823C698.825 66.1321 698.645 66.3928 698.695 66.6644L699.418 70.5986L695.484 71.3212C695.212 71.371 695.032 71.6317 695.082 71.9033C695.132 72.1749 695.393 72.3546 695.664 72.3047L700.09 71.4918ZM700.284 70.5884L671.284 50.5884L670.716 51.4116L699.716 71.4116L700.284 70.5884Z" fill="black"/>
<path d="M700.354 41.3536C700.549 41.1583 700.549 40.8417 700.354 40.6464L697.172 37.4645C696.976 37.2692 696.66 37.2692 696.464 37.4645C696.269 37.6597 696.269 37.9763 696.464 38.1716L699.293 41L696.464 43.8284C696.269 44.0237 696.269 44.3403 696.464 44.5355C696.66 44.7308 696.976 44.7308 697.172 44.5355L700.354 41.3536ZM700 40.5L672 40.5L672 41.5L700 41.5L700 40.5Z" fill="black"/>
<path d="M621.508 70.9097C621.458 71.1813 621.638 71.4419 621.91 71.4918L626.336 72.3047C626.607 72.3546 626.868 72.1749 626.918 71.9033C626.968 71.6317 626.788 71.371 626.516 71.3212L622.582 70.5986L623.305 66.6644C623.355 66.3928 623.175 66.1321 622.903 66.0823C622.632 66.0324 622.371 66.2121 622.321 66.4837L621.508 70.9097ZM622.284 71.4116L651.284 51.4116L650.716 50.5884L621.716 70.5884L622.284 71.4116Z" fill="black"/>
<path d="M621.646 40.6464C621.451 40.8417 621.451 41.1583 621.646 41.3536L624.828 44.5355C625.024 44.7308 625.34 44.7308 625.536 44.5355C625.731 44.3403 625.731 44.0237 625.536 43.8284L622.707 41L625.536 38.1716C625.731 37.9763 625.731 37.6597 625.536 37.4645C625.34 37.2692 625.024 37.2692 624.828 37.4645L621.646 40.6464ZM622 41.5L650 41.5L650 40.5L622 40.5L622 41.5Z" fill="black"/>
<path d="M861 51C866.523 51 871 46.5228 871 41C871 35.4772 866.523 31 861 31C855.477 31 851 35.4772 851 41C851 46.5228 855.477 51 861 51Z" fill="#999999" stroke="black"/>
<path d="M911 51C916.523 51 921 46.5228 921 41C921 35.4772 916.523 31 911 31C905.477 31 901 35.4772 901 41C901 46.5228 905.477 51 911 51Z" fill="#999999" stroke="black"/>
<path d="M961 51C966.523 51 971 46.5228 971 41C971 35.4772 966.523 31 961 31C955.477 31 951 35.4772 951 41C951 46.5228 955.477 51 961 51Z" fill="#999999" stroke="black"/>
<path d="M811 31C816.523 31 821 26.5228 821 21C821 15.4772 816.523 11 811 11C805.477 11 801 15.4772 801 21C801 26.5228 805.477 31 811 31Z" fill="#999999" stroke="black"/>
<path d="M811 71C816.523 71 821 66.5228 821 61C821 55.4772 816.523 51 811 51C805.477 51 801 55.4772 801 61C801 66.5228 805.477 71 811 71Z" fill="#999999" stroke="black"/>
<path d="M821.698 28.6015C821.478 28.7682 821.435 29.0818 821.601 29.3019L824.319 32.8888C824.486 33.109 824.799 33.1522 825.019 32.9855C825.239 32.8187 825.283 32.5051 825.116 32.285L822.7 29.0966L825.889 26.6812C826.109 26.5144 826.152 26.2008 825.985 25.9807C825.819 25.7606 825.505 25.7173 825.285 25.8841L821.698 28.6015ZM851.068 32.5047L822.068 28.5047L821.932 29.4953L850.932 33.4953L851.068 32.5047Z" fill="black"/>
<path d="M821.694 20.6044C821.476 20.7732 821.436 21.0872 821.604 21.3057L824.356 24.8665C824.525 25.085 824.839 25.1253 825.057 24.9564C825.276 24.7876 825.316 24.4736 825.147 24.2551L822.701 21.0899L825.867 18.6441C826.085 18.4753 826.125 18.1613 825.956 17.9428C825.788 17.7243 825.474 17.684 825.255 17.8528L821.694 20.6044ZM900.064 30.5041L822.064 20.5041L821.936 21.4959L899.936 31.4959L900.064 30.5041Z" fill="black"/>
<path d="M821.699 12.601C821.478 12.7674 821.435 13.0809 821.601 13.3013L824.313 16.8925C824.479 17.1129 824.793 17.1566 825.013 16.9902C825.233 16.8238 825.277 16.5103 825.111 16.2899L822.7 13.0977L825.892 10.6873C826.113 10.5209 826.157 10.2074 825.99 9.98699C825.824 9.76661 825.51 9.72286 825.29 9.88927L821.699 12.601ZM951.069 30.5048L822.069 12.5048L821.931 13.4952L950.931 31.4952L951.069 30.5048Z" fill="black"/>
<path d="M900.396 51.3057C900.564 51.0872 900.524 50.7732 900.306 50.6044L896.745 47.8528C896.526 47.684 896.212 47.7243 896.044 47.9428C895.875 48.1613 895.915 48.4753 896.133 48.6441L899.299 51.0899L896.853 54.2551C896.684 54.4736 896.724 54.7876 896.943 54.9564C897.161 55.1253 897.475 55.085 897.644 54.8665L900.396 51.3057ZM822.064 61.4959L900.064 51.4959L899.936 50.5041L821.936 60.5041L822.064 61.4959Z" fill="black"/>
<path d="M951.399 51.3013C951.565 51.0809 951.522 50.7674 951.301 50.601L947.71 47.8893C947.49 47.7229 947.176 47.7666 947.01 47.987C946.843 48.2074 946.887 48.5209 947.108 48.6873L950.3 51.0977L947.889 54.2899C947.723 54.5103 947.767 54.8238 947.987 54.9902C948.207 55.1566 948.521 55.1129 948.687 54.8925L951.399 51.3013ZM822.069 69.4952L951.069 51.4952L950.931 50.5048L821.931 68.5048L822.069 69.4952Z" fill="black"/>
<path d="M851.407 48.2906C851.567 48.0659 851.515 47.7536 851.291 47.5931L847.629 44.9776C847.404 44.8171 847.092 44.8691 846.931 45.0938C846.771 45.3185 846.823 45.6308 847.048 45.7913L850.303 48.1162L847.978 51.3712C847.817 51.5959 847.869 51.9082 848.094 52.0687C848.319 52.2292 848.631 52.1771 848.791 51.9524L851.407 48.2906ZM821.082 53.4932L851.082 48.4932L850.918 47.5068L820.918 52.5068L821.082 53.4932Z" fill="black"/>
</svg>
