<svg width="1652" height="419" viewBox="0 0 1652 419" fill="none" xmlns="http://www.w3.org/2000/svg">
<path d="M80.3127 118C85.8356 118 90.3127 113.523 90.3127 108C90.3127 102.477 85.8356 98 80.3127 98C74.7899 98 70.3127 102.477 70.3127 108C70.3127 113.523 74.7899 118 80.3127 118Z" fill="#999999" stroke="black"/>
<path d="M80.0942 218.002C85.6171 218.002 90.0942 213.525 90.0942 208.002C90.0942 202.479 85.6171 198.002 80.0942 198.002C74.5714 198.002 70.0942 202.479 70.0942 208.002C70.0942 213.525 74.5714 218.002 80.0942 218.002Z" fill="#999999" stroke="black"/>
<path d="M80 118.182V198.182" stroke="black" stroke-width="3"/>
<path d="M78.6999 65.542L78.9879 67H80.7879V60.052H75.3879V62.158H78.2319C78.1479 63.058 77.8479 63.748 77.3319 64.228C76.8279 64.696 76.1079 64.93 75.1719 64.93C74.5359 64.93 73.9959 64.81 73.5519 64.57C73.1079 64.318 72.7479 63.988 72.4719 63.58C72.1959 63.172 71.9919 62.716 71.8599 62.212C71.7399 61.696 71.6799 61.168 71.6799 60.628C71.6799 60.064 71.7399 59.518 71.8599 58.99C71.9919 58.462 72.1959 57.994 72.4719 57.586C72.7479 57.166 73.1079 56.836 73.5519 56.596C73.9959 56.344 74.5359 56.218 75.1719 56.218C75.8559 56.218 76.4379 56.398 76.9179 56.758C77.3979 57.118 77.7219 57.658 77.8899 58.378H80.5899C80.5179 57.646 80.3199 56.998 79.9959 56.434C79.6719 55.87 79.2579 55.396 78.7539 55.012C78.2619 54.628 77.7039 54.34 77.0799 54.148C76.4679 53.944 75.8319 53.842 75.1719 53.842C74.1879 53.842 73.2999 54.016 72.5079 54.364C71.7279 54.712 71.0679 55.192 70.5279 55.804C69.9879 56.416 69.5739 57.136 69.2859 57.964C68.9979 58.78 68.8539 59.668 68.8539 60.628C68.8539 61.564 68.9979 62.44 69.2859 63.256C69.5739 64.06 69.9879 64.762 70.5279 65.362C71.0679 65.962 71.7279 66.436 72.5079 66.784C73.2999 67.12 74.1879 67.288 75.1719 67.288C75.7959 67.288 76.4139 67.162 77.0259 66.91C77.6379 66.646 78.1959 66.19 78.6999 65.542ZM84.7621 60.646C84.7621 60.43 84.7621 60.172 84.7621 59.872C84.7741 59.56 84.7981 59.242 84.8341 58.918C84.8701 58.594 84.9301 58.276 85.0141 57.964C85.0981 57.64 85.2121 57.352 85.3561 57.1C85.5121 56.848 85.7041 56.644 85.9321 56.488C86.1721 56.332 86.4661 56.254 86.8141 56.254C87.1621 56.254 87.4561 56.332 87.6961 56.488C87.9361 56.644 88.1341 56.848 88.2901 57.1C88.4461 57.352 88.5601 57.64 88.6321 57.964C88.7161 58.276 88.7761 58.594 88.8121 58.918C88.8601 59.242 88.8841 59.56 88.8841 59.872C88.8961 60.172 88.9021 60.43 88.9021 60.646C88.9021 61.006 88.8901 61.444 88.8661 61.96C88.8421 62.464 88.7641 62.956 88.6321 63.436C88.5121 63.904 88.3081 64.306 88.0201 64.642C87.7441 64.978 87.3421 65.146 86.8141 65.146C86.2981 65.146 85.9021 64.978 85.6261 64.642C85.3501 64.306 85.1461 63.904 85.0141 63.436C84.8941 62.956 84.8221 62.464 84.7981 61.96C84.7741 61.444 84.7621 61.006 84.7621 60.646ZM82.2061 60.646C82.2061 61.906 82.3261 62.962 82.5661 63.814C82.8181 64.654 83.1541 65.326 83.5741 65.83C83.9941 66.334 84.4801 66.694 85.0321 66.91C85.5961 67.126 86.1901 67.234 86.8141 67.234C87.4501 67.234 88.0441 67.126 88.5961 66.91C89.1601 66.694 89.6521 66.334 90.0721 65.83C90.5041 65.326 90.8401 64.654 91.0801 63.814C91.3321 62.962 91.4581 61.906 91.4581 60.646C91.4581 59.422 91.3321 58.396 91.0801 57.568C90.8401 56.728 90.5041 56.056 90.0721 55.552C89.6521 55.048 89.1601 54.688 88.5961 54.472C88.0441 54.256 87.4501 54.148 86.8141 54.148C86.1901 54.148 85.5961 54.256 85.0321 54.472C84.4801 54.688 83.9941 55.048 83.5741 55.552C83.1541 56.056 82.8181 56.728 82.5661 57.568C82.3261 58.396 82.2061 59.422 82.2061 60.646Z" fill="black"/>
<path d="M10.6902 16.542L10.9782 18H12.7782V11.052H7.37816V13.158H10.2222C10.1382 14.058 9.83816 14.748 9.32216 15.228C8.81816 15.696 8.09816 15.93 7.16216 15.93C6.52616 15.93 5.98616 15.81 5.54216 15.57C5.09816 15.318 4.73816 14.988 4.46216 14.58C4.18616 14.172 3.98216 13.716 3.85016 13.212C3.73016 12.696 3.67016 12.168 3.67016 11.628C3.67016 11.064 3.73016 10.518 3.85016 9.99C3.98216 9.462 4.18616 8.994 4.46216 8.586C4.73816 8.166 5.09816 7.836 5.54216 7.596C5.98616 7.344 6.52616 7.218 7.16216 7.218C7.84616 7.218 8.42816 7.398 8.90816 7.758C9.38816 8.118 9.71216 8.658 9.88016 9.378H12.5802C12.5082 8.646 12.3102 7.998 11.9862 7.434C11.6622 6.87 11.2482 6.396 10.7442 6.012C10.2522 5.628 9.69416 5.34 9.07016 5.148C8.45816 4.944 7.82216 4.842 7.16216 4.842C6.17816 4.842 5.29016 5.016 4.49816 5.364C3.71816 5.712 3.05816 6.192 2.51816 6.804C1.97816 7.416 1.56416 8.136 1.27616 8.964C0.988156 9.78 0.844156 10.668 0.844156 11.628C0.844156 12.564 0.988156 13.44 1.27616 14.256C1.56416 15.06 1.97816 15.762 2.51816 16.362C3.05816 16.962 3.71816 17.436 4.49816 17.784C5.29016 18.12 6.17816 18.288 7.16216 18.288C7.78616 18.288 8.40416 18.162 9.01616 17.91C9.62816 17.646 10.1862 17.19 10.6902 16.542ZM14.7904 8.694V18H17.3464V13.806C17.3464 13.386 17.3884 12.996 17.4724 12.636C17.5564 12.276 17.6944 11.964 17.8864 11.7C18.0904 11.424 18.3544 11.208 18.6784 11.052C19.0024 10.896 19.3984 10.818 19.8664 10.818C20.0224 10.818 20.1844 10.83 20.3524 10.854C20.5204 10.866 20.6644 10.884 20.7844 10.908V8.532C20.5804 8.472 20.3944 8.442 20.2264 8.442C19.9024 8.442 19.5904 8.49 19.2904 8.586C18.9904 8.682 18.7084 8.82 18.4444 9C18.1804 9.168 17.9464 9.378 17.7424 9.63C17.5384 9.87 17.3764 10.134 17.2564 10.422H17.2204V8.694H14.7904ZM21.6785 11.556C21.7145 10.956 21.8645 10.458 22.1285 10.062C22.3925 9.666 22.7285 9.348 23.1365 9.108C23.5445 8.868 24.0005 8.7 24.5045 8.604C25.0205 8.496 25.5365 8.442 26.0525 8.442C26.5205 8.442 26.9945 8.478 27.4745 8.55C27.9545 8.61 28.3925 8.736 28.7885 8.928C29.1845 9.12 29.5085 9.39 29.7605 9.738C30.0125 10.074 30.1385 10.524 30.1385 11.088V15.93C30.1385 16.35 30.1625 16.752 30.2105 17.136C30.2585 17.52 30.3425 17.808 30.4625 18H27.8705C27.8225 17.856 27.7805 17.712 27.7445 17.568C27.7205 17.412 27.7025 17.256 27.6905 17.1C27.2825 17.52 26.8025 17.814 26.2505 17.982C25.6985 18.15 25.1345 18.234 24.5585 18.234C24.1145 18.234 23.7005 18.18 23.3165 18.072C22.9325 17.964 22.5965 17.796 22.3085 17.568C22.0205 17.34 21.7925 17.052 21.6245 16.704C21.4685 16.356 21.3905 15.942 21.3905 15.462C21.3905 14.934 21.4805 14.502 21.6605 14.166C21.8525 13.818 22.0925 13.542 22.3805 13.338C22.6805 13.134 23.0165 12.984 23.3885 12.888C23.7725 12.78 24.1565 12.696 24.5405 12.636C24.9245 12.576 25.3025 12.528 25.6745 12.492C26.0465 12.456 26.3765 12.402 26.6645 12.33C26.9525 12.258 27.1805 12.156 27.3485 12.024C27.5165 11.88 27.5945 11.676 27.5825 11.412C27.5825 11.136 27.5345 10.92 27.4385 10.764C27.3545 10.596 27.2345 10.47 27.0785 10.386C26.9345 10.29 26.7605 10.23 26.5565 10.206C26.3645 10.17 26.1545 10.152 25.9265 10.152C25.4225 10.152 25.0265 10.26 24.7385 10.476C24.4505 10.692 24.2825 11.052 24.2345 11.556H21.6785ZM27.5825 13.446C27.4745 13.542 27.3365 13.62 27.1685 13.68C27.0125 13.728 26.8385 13.77 26.6465 13.806C26.4665 13.842 26.2745 13.872 26.0705 13.896C25.8665 13.92 25.6625 13.95 25.4585 13.986C25.2665 14.022 25.0745 14.07 24.8825 14.13C24.7025 14.19 24.5405 14.274 24.3965 14.382C24.2645 14.478 24.1565 14.604 24.0725 14.76C23.9885 14.916 23.9465 15.114 23.9465 15.354C23.9465 15.582 23.9885 15.774 24.0725 15.93C24.1565 16.086 24.2705 16.212 24.4145 16.308C24.5585 16.392 24.7265 16.452 24.9185 16.488C25.1105 16.524 25.3085 16.542 25.5125 16.542C26.0165 16.542 26.4065 16.458 26.6825 16.29C26.9585 16.122 27.1625 15.924 27.2945 15.696C27.4265 15.456 27.5045 15.216 27.5285 14.976C27.5645 14.736 27.5825 14.544 27.5825 14.4V13.446ZM36.8204 16.326C36.4124 16.326 36.0644 16.242 35.7764 16.074C35.4884 15.906 35.2544 15.69 35.0744 15.426C34.9064 15.15 34.7804 14.832 34.6964 14.472C34.6244 14.112 34.5884 13.746 34.5884 13.374C34.5884 12.99 34.6244 12.618 34.6964 12.258C34.7684 11.898 34.8884 11.58 35.0564 11.304C35.2364 11.028 35.4644 10.806 35.7404 10.638C36.0284 10.458 36.3824 10.368 36.8024 10.368C37.2104 10.368 37.5524 10.458 37.8284 10.638C38.1164 10.806 38.3504 11.034 38.5304 11.322C38.7104 11.598 38.8364 11.916 38.9084 12.276C38.9924 12.636 39.0344 13.002 39.0344 13.374C39.0344 13.746 38.9984 14.112 38.9264 14.472C38.8544 14.832 38.7284 15.15 38.5484 15.426C38.3804 15.69 38.1524 15.906 37.8644 16.074C37.5884 16.242 37.2404 16.326 36.8204 16.326ZM32.1224 8.694V21.258H34.6784V16.848H34.7144C35.0264 17.304 35.4224 17.652 35.9024 17.892C36.3944 18.12 36.9284 18.234 37.5044 18.234C38.1884 18.234 38.7824 18.102 39.2864 17.838C39.8024 17.574 40.2284 17.22 40.5644 16.776C40.9124 16.332 41.1704 15.822 41.3384 15.246C41.5064 14.67 41.5904 14.07 41.5904 13.446C41.5904 12.786 41.5064 12.156 41.3384 11.556C41.1704 10.944 40.9124 10.41 40.5644 9.954C40.2164 9.498 39.7784 9.132 39.2504 8.856C38.7224 8.58 38.0924 8.442 37.3604 8.442C36.7844 8.442 36.2564 8.556 35.7764 8.784C35.2964 9.012 34.9004 9.378 34.5884 9.882H34.5524V8.694H32.1224ZM43.1263 5.148V18H45.6823V13.122C45.6823 12.174 45.8383 11.496 46.1503 11.088C46.4623 10.668 46.9663 10.458 47.6623 10.458C48.2743 10.458 48.7003 10.65 48.9403 11.034C49.1803 11.406 49.3003 11.976 49.3003 12.744V18H51.8563V12.276C51.8563 11.7 51.8023 11.178 51.6943 10.71C51.5983 10.23 51.4243 9.828 51.1723 9.504C50.9203 9.168 50.5723 8.91 50.1283 8.73C49.6963 8.538 49.1383 8.442 48.4543 8.442C47.9743 8.442 47.4823 8.568 46.9783 8.82C46.4743 9.06 46.0603 9.45 45.7363 9.99H45.6823V5.148H43.1263ZM53.8682 5.148V18H56.4242V5.148H53.8682ZM64.7008 12.348H60.5428C60.5548 12.168 60.5908 11.964 60.6508 11.736C60.7228 11.508 60.8368 11.292 60.9928 11.088C61.1608 10.884 61.3768 10.716 61.6408 10.584C61.9168 10.44 62.2588 10.368 62.6668 10.368C63.2908 10.368 63.7528 10.536 64.0528 10.872C64.3648 11.208 64.5808 11.7 64.7008 12.348ZM60.5428 13.968H67.2568C67.3048 13.248 67.2448 12.558 67.0768 11.898C66.9088 11.238 66.6328 10.65 66.2488 10.134C65.8768 9.618 65.3968 9.21 64.8088 8.91C64.2208 8.598 63.5308 8.442 62.7388 8.442C62.0308 8.442 61.3828 8.568 60.7948 8.82C60.2188 9.072 59.7208 9.42 59.3008 9.864C58.8808 10.296 58.5568 10.812 58.3288 11.412C58.1008 12.012 57.9868 12.66 57.9868 13.356C57.9868 14.076 58.0948 14.736 58.3108 15.336C58.5388 15.936 58.8568 16.452 59.2648 16.884C59.6728 17.316 60.1708 17.652 60.7588 17.892C61.3468 18.12 62.0068 18.234 62.7388 18.234C63.7948 18.234 64.6948 17.994 65.4388 17.514C66.1828 17.034 66.7348 16.236 67.0948 15.12H64.8448C64.7608 15.408 64.5328 15.684 64.1608 15.948C63.7888 16.2 63.3448 16.326 62.8288 16.326C62.1088 16.326 61.5568 16.14 61.1728 15.768C60.7888 15.396 60.5788 14.796 60.5428 13.968ZM72.0128 8.694V5.904H69.4568V8.694H67.9088V10.404H69.4568V15.894C69.4568 16.362 69.5348 16.74 69.6908 17.028C69.8468 17.316 70.0568 17.538 70.3208 17.694C70.5968 17.85 70.9088 17.952 71.2568 18C71.6168 18.06 71.9948 18.09 72.3908 18.09C72.6428 18.09 72.9008 18.084 73.1648 18.072C73.4288 18.06 73.6688 18.036 73.8848 18V16.02C73.7648 16.044 73.6388 16.062 73.5068 16.074C73.3748 16.086 73.2368 16.092 73.0928 16.092C72.6608 16.092 72.3728 16.02 72.2288 15.876C72.0848 15.732 72.0128 15.444 72.0128 15.012V10.404H73.8848V8.694H72.0128ZM77.0809 14.976H74.6509C74.6749 15.6 74.8129 16.122 75.0649 16.542C75.3289 16.95 75.6589 17.28 76.0549 17.532C76.4629 17.784 76.9249 17.964 77.4409 18.072C77.9569 18.18 78.4849 18.234 79.0249 18.234C79.5529 18.234 80.0689 18.18 80.5729 18.072C81.0889 17.976 81.5449 17.802 81.9409 17.55C82.3369 17.298 82.6549 16.968 82.8949 16.56C83.1469 16.14 83.2729 15.624 83.2729 15.012C83.2729 14.58 83.1889 14.22 83.0209 13.932C82.8529 13.632 82.6309 13.386 82.3549 13.194C82.0789 12.99 81.7609 12.828 81.4009 12.708C81.0529 12.588 80.6929 12.486 80.3209 12.402C79.9609 12.318 79.6069 12.24 79.2589 12.168C78.9109 12.096 78.5989 12.018 78.3229 11.934C78.0589 11.838 77.8429 11.718 77.6749 11.574C77.5069 11.43 77.4229 11.244 77.4229 11.016C77.4229 10.824 77.4709 10.674 77.5669 10.566C77.6629 10.446 77.7769 10.356 77.9089 10.296C78.0529 10.236 78.2089 10.2 78.3769 10.188C78.5449 10.164 78.7009 10.152 78.8449 10.152C79.3009 10.152 79.6969 10.242 80.0329 10.422C80.3689 10.59 80.5549 10.92 80.5909 11.412H83.0209C82.9729 10.836 82.8229 10.362 82.5709 9.99C82.3309 9.606 82.0249 9.3 81.6529 9.072C81.2809 8.844 80.8549 8.682 80.3749 8.586C79.9069 8.49 79.4209 8.442 78.9169 8.442C78.4129 8.442 77.9209 8.49 77.4409 8.586C76.9609 8.67 76.5289 8.826 76.1449 9.054C75.7609 9.27 75.4489 9.57 75.2089 9.954C74.9809 10.338 74.8669 10.83 74.8669 11.43C74.8669 11.838 74.9509 12.186 75.1189 12.474C75.2869 12.75 75.5089 12.984 75.7849 13.176C76.0609 13.356 76.3729 13.506 76.7209 13.626C77.0809 13.734 77.4469 13.83 77.8189 13.914C78.7309 14.106 79.4389 14.298 79.9429 14.49C80.4589 14.682 80.7169 14.97 80.7169 15.354C80.7169 15.582 80.6629 15.774 80.5549 15.93C80.4469 16.074 80.3089 16.194 80.1409 16.29C79.9849 16.374 79.8049 16.44 79.6009 16.488C79.4089 16.524 79.2229 16.542 79.0429 16.542C78.7909 16.542 78.5449 16.512 78.3049 16.452C78.0769 16.392 77.8729 16.302 77.6929 16.182C77.5129 16.05 77.3629 15.888 77.2429 15.696C77.1349 15.492 77.0809 15.252 77.0809 14.976ZM89.4726 10.242H91.9206C91.9206 9.906 91.9506 9.57 92.0106 9.234C92.0826 8.886 92.1966 8.574 92.3526 8.298C92.5086 8.01 92.7126 7.782 92.9646 7.614C93.2286 7.434 93.5466 7.344 93.9186 7.344C94.4706 7.344 94.9206 7.518 95.2686 7.866C95.6286 8.202 95.8086 8.676 95.8086 9.288C95.8086 9.672 95.7186 10.014 95.5386 10.314C95.3706 10.614 95.1546 10.884 94.8906 11.124C94.6386 11.364 94.3566 11.586 94.0446 11.79C93.7326 11.982 93.4386 12.174 93.1626 12.366C92.6226 12.738 92.1066 13.104 91.6146 13.464C91.1346 13.824 90.7146 14.22 90.3546 14.652C89.9946 15.072 89.7066 15.552 89.4906 16.092C89.2866 16.632 89.1846 17.268 89.1846 18H98.4366V15.804H92.4786C92.7906 15.372 93.1506 14.994 93.5586 14.67C93.9666 14.346 94.3866 14.046 94.8186 13.77C95.2506 13.482 95.6766 13.194 96.0966 12.906C96.5286 12.618 96.9126 12.3 97.2486 11.952C97.5846 11.592 97.8546 11.184 98.0586 10.728C98.2626 10.272 98.3646 9.726 98.3646 9.09C98.3646 8.478 98.2446 7.926 98.0046 7.434C97.7766 6.942 97.4646 6.528 97.0686 6.192C96.6726 5.856 96.2106 5.598 95.6826 5.418C95.1666 5.238 94.6206 5.148 94.0446 5.148C93.2886 5.148 92.6166 5.28 92.0286 5.544C91.4526 5.796 90.9726 6.156 90.5886 6.624C90.2046 7.08 89.9166 7.62 89.7246 8.244C89.5326 8.856 89.4486 9.522 89.4726 10.242ZM105.06 5.148V18H107.706V9.396H107.742L113.088 18H115.914V5.148H113.268V13.77H113.232L107.868 5.148H105.06ZM120.4 13.356C120.4 12.984 120.436 12.618 120.508 12.258C120.58 11.898 120.7 11.58 120.868 11.304C121.048 11.028 121.282 10.806 121.57 10.638C121.858 10.458 122.218 10.368 122.65 10.368C123.082 10.368 123.442 10.458 123.73 10.638C124.03 10.806 124.264 11.028 124.432 11.304C124.612 11.58 124.738 11.898 124.81 12.258C124.882 12.618 124.918 12.984 124.918 13.356C124.918 13.728 124.882 14.094 124.81 14.454C124.738 14.802 124.612 15.12 124.432 15.408C124.264 15.684 124.03 15.906 123.73 16.074C123.442 16.242 123.082 16.326 122.65 16.326C122.218 16.326 121.858 16.242 121.57 16.074C121.282 15.906 121.048 15.684 120.868 15.408C120.7 15.12 120.58 14.802 120.508 14.454C120.436 14.094 120.4 13.728 120.4 13.356ZM117.844 13.356C117.844 14.1 117.958 14.772 118.186 15.372C118.414 15.972 118.738 16.488 119.158 16.92C119.578 17.34 120.082 17.664 120.67 17.892C121.258 18.12 121.918 18.234 122.65 18.234C123.382 18.234 124.042 18.12 124.63 17.892C125.23 17.664 125.74 17.34 126.16 16.92C126.58 16.488 126.904 15.972 127.132 15.372C127.36 14.772 127.474 14.1 127.474 13.356C127.474 12.612 127.36 11.94 127.132 11.34C126.904 10.728 126.58 10.212 126.16 9.792C125.74 9.36 125.23 9.03 124.63 8.802C124.042 8.562 123.382 8.442 122.65 8.442C121.918 8.442 121.258 8.562 120.67 8.802C120.082 9.03 119.578 9.36 119.158 9.792C118.738 10.212 118.414 10.728 118.186 11.34C117.958 11.94 117.844 12.612 117.844 13.356ZM135.742 13.32C135.742 13.704 135.706 14.076 135.634 14.436C135.562 14.796 135.442 15.12 135.274 15.408C135.106 15.684 134.878 15.906 134.59 16.074C134.314 16.242 133.966 16.326 133.546 16.326C133.15 16.326 132.808 16.242 132.52 16.074C132.244 15.894 132.01 15.666 131.818 15.39C131.638 15.102 131.506 14.778 131.422 14.418C131.338 14.058 131.296 13.698 131.296 13.338C131.296 12.954 131.332 12.588 131.404 12.24C131.488 11.88 131.614 11.562 131.782 11.286C131.962 11.01 132.196 10.788 132.484 10.62C132.772 10.452 133.126 10.368 133.546 10.368C133.966 10.368 134.314 10.452 134.59 10.62C134.866 10.788 135.088 11.01 135.256 11.286C135.436 11.55 135.562 11.862 135.634 12.222C135.706 12.57 135.742 12.936 135.742 13.32ZM135.778 16.812V18H138.208V5.148H135.652V9.828H135.616C135.328 9.372 134.932 9.03 134.428 8.802C133.936 8.562 133.414 8.442 132.862 8.442C132.178 8.442 131.578 8.58 131.062 8.856C130.546 9.12 130.114 9.474 129.766 9.918C129.43 10.362 129.172 10.878 128.992 11.466C128.824 12.042 128.74 12.642 128.74 13.266C128.74 13.914 128.824 14.538 128.992 15.138C129.172 15.738 129.43 16.272 129.766 16.74C130.114 17.196 130.552 17.562 131.08 17.838C131.608 18.102 132.22 18.234 132.916 18.234C133.528 18.234 134.074 18.126 134.554 17.91C135.046 17.682 135.442 17.316 135.742 16.812H135.778ZM142.408 13.356C142.408 12.984 142.444 12.618 142.516 12.258C142.588 11.898 142.708 11.58 142.876 11.304C143.056 11.028 143.29 10.806 143.578 10.638C143.866 10.458 144.226 10.368 144.658 10.368C145.09 10.368 145.45 10.458 145.738 10.638C146.038 10.806 146.272 11.028 146.44 11.304C146.62 11.58 146.746 11.898 146.818 12.258C146.89 12.618 146.926 12.984 146.926 13.356C146.926 13.728 146.89 14.094 146.818 14.454C146.746 14.802 146.62 15.12 146.44 15.408C146.272 15.684 146.038 15.906 145.738 16.074C145.45 16.242 145.09 16.326 144.658 16.326C144.226 16.326 143.866 16.242 143.578 16.074C143.29 15.906 143.056 15.684 142.876 15.408C142.708 15.12 142.588 14.802 142.516 14.454C142.444 14.094 142.408 13.728 142.408 13.356ZM139.852 13.356C139.852 14.1 139.966 14.772 140.194 15.372C140.422 15.972 140.746 16.488 141.166 16.92C141.586 17.34 142.09 17.664 142.678 17.892C143.266 18.12 143.926 18.234 144.658 18.234C145.39 18.234 146.05 18.12 146.638 17.892C147.238 17.664 147.748 17.34 148.168 16.92C148.588 16.488 148.912 15.972 149.14 15.372C149.368 14.772 149.482 14.1 149.482 13.356C149.482 12.612 149.368 11.94 149.14 11.34C148.912 10.728 148.588 10.212 148.168 9.792C147.748 9.36 147.238 9.03 146.638 8.802C146.05 8.562 145.39 8.442 144.658 8.442C143.926 8.442 143.266 8.562 142.678 8.802C142.09 9.03 141.586 9.36 141.166 9.792C140.746 10.212 140.422 10.728 140.194 11.34C139.966 11.94 139.852 12.612 139.852 13.356ZM153.124 14.976H150.694C150.718 15.6 150.856 16.122 151.108 16.542C151.372 16.95 151.702 17.28 152.098 17.532C152.506 17.784 152.968 17.964 153.484 18.072C154 18.18 154.528 18.234 155.068 18.234C155.596 18.234 156.112 18.18 156.616 18.072C157.132 17.976 157.588 17.802 157.984 17.55C158.38 17.298 158.698 16.968 158.938 16.56C159.19 16.14 159.316 15.624 159.316 15.012C159.316 14.58 159.232 14.22 159.064 13.932C158.896 13.632 158.674 13.386 158.398 13.194C158.122 12.99 157.804 12.828 157.444 12.708C157.096 12.588 156.736 12.486 156.364 12.402C156.004 12.318 155.65 12.24 155.302 12.168C154.954 12.096 154.642 12.018 154.366 11.934C154.102 11.838 153.886 11.718 153.718 11.574C153.55 11.43 153.466 11.244 153.466 11.016C153.466 10.824 153.514 10.674 153.61 10.566C153.706 10.446 153.82 10.356 153.952 10.296C154.096 10.236 154.252 10.2 154.42 10.188C154.588 10.164 154.744 10.152 154.888 10.152C155.344 10.152 155.74 10.242 156.076 10.422C156.412 10.59 156.598 10.92 156.634 11.412H159.064C159.016 10.836 158.866 10.362 158.614 9.99C158.374 9.606 158.068 9.3 157.696 9.072C157.324 8.844 156.898 8.682 156.418 8.586C155.95 8.49 155.464 8.442 154.96 8.442C154.456 8.442 153.964 8.49 153.484 8.586C153.004 8.67 152.572 8.826 152.188 9.054C151.804 9.27 151.492 9.57 151.252 9.954C151.024 10.338 150.91 10.83 150.91 11.43C150.91 11.838 150.994 12.186 151.162 12.474C151.33 12.75 151.552 12.984 151.828 13.176C152.104 13.356 152.416 13.506 152.764 13.626C153.124 13.734 153.49 13.83 153.862 13.914C154.774 14.106 155.482 14.298 155.986 14.49C156.502 14.682 156.76 14.97 156.76 15.354C156.76 15.582 156.706 15.774 156.598 15.93C156.49 16.074 156.352 16.194 156.184 16.29C156.028 16.374 155.848 16.44 155.644 16.488C155.452 16.524 155.266 16.542 155.086 16.542C154.834 16.542 154.588 16.512 154.348 16.452C154.12 16.392 153.916 16.302 153.736 16.182C153.556 16.05 153.406 15.888 153.286 15.696C153.178 15.492 153.124 15.252 153.124 14.976Z" fill="black"/>
<path d="M284.094 117.82C289.617 117.82 294.094 113.343 294.094 107.82C294.094 102.297 289.617 97.8201 284.094 97.8201C278.571 97.8201 274.094 102.297 274.094 107.82C274.094 113.343 278.571 117.82 284.094 117.82Z" fill="#999999" stroke="black"/>
<path d="M284.094 217.82C289.617 217.82 294.094 213.343 294.094 207.82C294.094 202.297 289.617 197.82 284.094 197.82C278.571 197.82 274.094 202.297 274.094 207.82C274.094 213.343 278.571 217.82 284.094 217.82Z" fill="#999999" stroke="black"/>
<path d="M284.094 317.82C289.617 317.82 294.094 313.343 294.094 307.82C294.094 302.297 289.617 297.82 284.094 297.82C278.571 297.82 274.094 302.297 274.094 307.82C274.094 313.343 278.571 317.82 284.094 317.82Z" fill="#999999" stroke="black"/>
<path d="M438 118C443.523 118 448 113.523 448 108C448 102.477 443.523 98 438 98C432.477 98 428 102.477 428 108C428 113.523 432.477 118 438 118Z" fill="#999999" stroke="black"/>
<path d="M488 218C493.523 218 498 213.523 498 208C498 202.477 493.523 198 488 198C482.477 198 478 202.477 478 208C478 213.523 482.477 218 488 218Z" fill="#999999" stroke="black"/>
<path d="M388 218C393.523 218 398 213.523 398 208C398 202.477 393.523 198 388 198C382.477 198 378 202.477 378 208C378 213.523 382.477 218 388 218Z" fill="#999999" stroke="black"/>
<path d="M284 118V198" stroke="black" stroke-width="3"/>
<path d="M284 218V298" stroke="black" stroke-width="3"/>
<path d="M387.906 198.18L427.906 118.18" stroke="black" stroke-width="3"/>
<path d="M447.906 118.18L487.906 198.18" stroke="black" stroke-width="3"/>
<path d="M477.906 208.18H397.906" stroke="black" stroke-width="3"/>
<path d="M284.69 16.542L284.978 18H286.778V11.052H281.378V13.158H284.222C284.138 14.058 283.838 14.748 283.322 15.228C282.818 15.696 282.098 15.93 281.162 15.93C280.526 15.93 279.986 15.81 279.542 15.57C279.098 15.318 278.738 14.988 278.462 14.58C278.186 14.172 277.982 13.716 277.85 13.212C277.73 12.696 277.67 12.168 277.67 11.628C277.67 11.064 277.73 10.518 277.85 9.99C277.982 9.462 278.186 8.994 278.462 8.586C278.738 8.166 279.098 7.836 279.542 7.596C279.986 7.344 280.526 7.218 281.162 7.218C281.846 7.218 282.428 7.398 282.908 7.758C283.388 8.118 283.712 8.658 283.88 9.378H286.58C286.508 8.646 286.31 7.998 285.986 7.434C285.662 6.87 285.248 6.396 284.744 6.012C284.252 5.628 283.694 5.34 283.07 5.148C282.458 4.944 281.822 4.842 281.162 4.842C280.178 4.842 279.29 5.016 278.498 5.364C277.718 5.712 277.058 6.192 276.518 6.804C275.978 7.416 275.564 8.136 275.276 8.964C274.988 9.78 274.844 10.668 274.844 11.628C274.844 12.564 274.988 13.44 275.276 14.256C275.564 15.06 275.978 15.762 276.518 16.362C277.058 16.962 277.718 17.436 278.498 17.784C279.29 18.12 280.178 18.288 281.162 18.288C281.786 18.288 282.404 18.162 283.016 17.91C283.628 17.646 284.186 17.19 284.69 16.542ZM288.79 8.694V18H291.346V13.806C291.346 13.386 291.388 12.996 291.472 12.636C291.556 12.276 291.694 11.964 291.886 11.7C292.09 11.424 292.354 11.208 292.678 11.052C293.002 10.896 293.398 10.818 293.866 10.818C294.022 10.818 294.184 10.83 294.352 10.854C294.52 10.866 294.664 10.884 294.784 10.908V8.532C294.58 8.472 294.394 8.442 294.226 8.442C293.902 8.442 293.59 8.49 293.29 8.586C292.99 8.682 292.708 8.82 292.444 9C292.18 9.168 291.946 9.378 291.742 9.63C291.538 9.87 291.376 10.134 291.256 10.422H291.22V8.694H288.79ZM295.678 11.556C295.714 10.956 295.864 10.458 296.128 10.062C296.392 9.666 296.728 9.348 297.136 9.108C297.544 8.868 298 8.7 298.504 8.604C299.02 8.496 299.536 8.442 300.052 8.442C300.52 8.442 300.994 8.478 301.474 8.55C301.954 8.61 302.392 8.736 302.788 8.928C303.184 9.12 303.508 9.39 303.76 9.738C304.012 10.074 304.138 10.524 304.138 11.088V15.93C304.138 16.35 304.162 16.752 304.21 17.136C304.258 17.52 304.342 17.808 304.462 18H301.87C301.822 17.856 301.78 17.712 301.744 17.568C301.72 17.412 301.702 17.256 301.69 17.1C301.282 17.52 300.802 17.814 300.25 17.982C299.698 18.15 299.134 18.234 298.558 18.234C298.114 18.234 297.7 18.18 297.316 18.072C296.932 17.964 296.596 17.796 296.308 17.568C296.02 17.34 295.792 17.052 295.624 16.704C295.468 16.356 295.39 15.942 295.39 15.462C295.39 14.934 295.48 14.502 295.66 14.166C295.852 13.818 296.092 13.542 296.38 13.338C296.68 13.134 297.016 12.984 297.388 12.888C297.772 12.78 298.156 12.696 298.54 12.636C298.924 12.576 299.302 12.528 299.674 12.492C300.046 12.456 300.376 12.402 300.664 12.33C300.952 12.258 301.18 12.156 301.348 12.024C301.516 11.88 301.594 11.676 301.582 11.412C301.582 11.136 301.534 10.92 301.438 10.764C301.354 10.596 301.234 10.47 301.078 10.386C300.934 10.29 300.76 10.23 300.556 10.206C300.364 10.17 300.154 10.152 299.926 10.152C299.422 10.152 299.026 10.26 298.738 10.476C298.45 10.692 298.282 11.052 298.234 11.556H295.678ZM301.582 13.446C301.474 13.542 301.336 13.62 301.168 13.68C301.012 13.728 300.838 13.77 300.646 13.806C300.466 13.842 300.274 13.872 300.07 13.896C299.866 13.92 299.662 13.95 299.458 13.986C299.266 14.022 299.074 14.07 298.882 14.13C298.702 14.19 298.54 14.274 298.396 14.382C298.264 14.478 298.156 14.604 298.072 14.76C297.988 14.916 297.946 15.114 297.946 15.354C297.946 15.582 297.988 15.774 298.072 15.93C298.156 16.086 298.27 16.212 298.414 16.308C298.558 16.392 298.726 16.452 298.918 16.488C299.11 16.524 299.308 16.542 299.512 16.542C300.016 16.542 300.406 16.458 300.682 16.29C300.958 16.122 301.162 15.924 301.294 15.696C301.426 15.456 301.504 15.216 301.528 14.976C301.564 14.736 301.582 14.544 301.582 14.4V13.446ZM310.82 16.326C310.412 16.326 310.064 16.242 309.776 16.074C309.488 15.906 309.254 15.69 309.074 15.426C308.906 15.15 308.78 14.832 308.696 14.472C308.624 14.112 308.588 13.746 308.588 13.374C308.588 12.99 308.624 12.618 308.696 12.258C308.768 11.898 308.888 11.58 309.056 11.304C309.236 11.028 309.464 10.806 309.74 10.638C310.028 10.458 310.382 10.368 310.802 10.368C311.21 10.368 311.552 10.458 311.828 10.638C312.116 10.806 312.35 11.034 312.53 11.322C312.71 11.598 312.836 11.916 312.908 12.276C312.992 12.636 313.034 13.002 313.034 13.374C313.034 13.746 312.998 14.112 312.926 14.472C312.854 14.832 312.728 15.15 312.548 15.426C312.38 15.69 312.152 15.906 311.864 16.074C311.588 16.242 311.24 16.326 310.82 16.326ZM306.122 8.694V21.258H308.678V16.848H308.714C309.026 17.304 309.422 17.652 309.902 17.892C310.394 18.12 310.928 18.234 311.504 18.234C312.188 18.234 312.782 18.102 313.286 17.838C313.802 17.574 314.228 17.22 314.564 16.776C314.912 16.332 315.17 15.822 315.338 15.246C315.506 14.67 315.59 14.07 315.59 13.446C315.59 12.786 315.506 12.156 315.338 11.556C315.17 10.944 314.912 10.41 314.564 9.954C314.216 9.498 313.778 9.132 313.25 8.856C312.722 8.58 312.092 8.442 311.36 8.442C310.784 8.442 310.256 8.556 309.776 8.784C309.296 9.012 308.9 9.378 308.588 9.882H308.552V8.694H306.122ZM317.126 5.148V18H319.682V13.122C319.682 12.174 319.838 11.496 320.15 11.088C320.462 10.668 320.966 10.458 321.662 10.458C322.274 10.458 322.7 10.65 322.94 11.034C323.18 11.406 323.3 11.976 323.3 12.744V18H325.856V12.276C325.856 11.7 325.802 11.178 325.694 10.71C325.598 10.23 325.424 9.828 325.172 9.504C324.92 9.168 324.572 8.91 324.128 8.73C323.696 8.538 323.138 8.442 322.454 8.442C321.974 8.442 321.482 8.568 320.978 8.82C320.474 9.06 320.06 9.45 319.736 9.99H319.682V5.148H317.126ZM327.868 5.148V18H330.424V5.148H327.868ZM338.701 12.348H334.543C334.555 12.168 334.591 11.964 334.651 11.736C334.723 11.508 334.837 11.292 334.993 11.088C335.161 10.884 335.377 10.716 335.641 10.584C335.917 10.44 336.259 10.368 336.667 10.368C337.291 10.368 337.753 10.536 338.053 10.872C338.365 11.208 338.581 11.7 338.701 12.348ZM334.543 13.968H341.257C341.305 13.248 341.245 12.558 341.077 11.898C340.909 11.238 340.633 10.65 340.249 10.134C339.877 9.618 339.397 9.21 338.809 8.91C338.221 8.598 337.531 8.442 336.739 8.442C336.031 8.442 335.383 8.568 334.795 8.82C334.219 9.072 333.721 9.42 333.301 9.864C332.881 10.296 332.557 10.812 332.329 11.412C332.101 12.012 331.987 12.66 331.987 13.356C331.987 14.076 332.095 14.736 332.311 15.336C332.539 15.936 332.857 16.452 333.265 16.884C333.673 17.316 334.171 17.652 334.759 17.892C335.347 18.12 336.007 18.234 336.739 18.234C337.795 18.234 338.695 17.994 339.439 17.514C340.183 17.034 340.735 16.236 341.095 15.12H338.845C338.761 15.408 338.533 15.684 338.161 15.948C337.789 16.2 337.345 16.326 336.829 16.326C336.109 16.326 335.557 16.14 335.173 15.768C334.789 15.396 334.579 14.796 334.543 13.968ZM346.013 8.694V5.904H343.457V8.694H341.909V10.404H343.457V15.894C343.457 16.362 343.535 16.74 343.691 17.028C343.847 17.316 344.057 17.538 344.321 17.694C344.597 17.85 344.909 17.952 345.257 18C345.617 18.06 345.995 18.09 346.391 18.09C346.643 18.09 346.901 18.084 347.165 18.072C347.429 18.06 347.669 18.036 347.885 18V16.02C347.765 16.044 347.639 16.062 347.507 16.074C347.375 16.086 347.237 16.092 347.093 16.092C346.661 16.092 346.373 16.02 346.229 15.876C346.085 15.732 346.013 15.444 346.013 15.012V10.404H347.885V8.694H346.013ZM351.081 14.976H348.651C348.675 15.6 348.813 16.122 349.065 16.542C349.329 16.95 349.659 17.28 350.055 17.532C350.463 17.784 350.925 17.964 351.441 18.072C351.957 18.18 352.485 18.234 353.025 18.234C353.553 18.234 354.069 18.18 354.573 18.072C355.089 17.976 355.545 17.802 355.941 17.55C356.337 17.298 356.655 16.968 356.895 16.56C357.147 16.14 357.273 15.624 357.273 15.012C357.273 14.58 357.189 14.22 357.021 13.932C356.853 13.632 356.631 13.386 356.355 13.194C356.079 12.99 355.761 12.828 355.401 12.708C355.053 12.588 354.693 12.486 354.321 12.402C353.961 12.318 353.607 12.24 353.259 12.168C352.911 12.096 352.599 12.018 352.323 11.934C352.059 11.838 351.843 11.718 351.675 11.574C351.507 11.43 351.423 11.244 351.423 11.016C351.423 10.824 351.471 10.674 351.567 10.566C351.663 10.446 351.777 10.356 351.909 10.296C352.053 10.236 352.209 10.2 352.377 10.188C352.545 10.164 352.701 10.152 352.845 10.152C353.301 10.152 353.697 10.242 354.033 10.422C354.369 10.59 354.555 10.92 354.591 11.412H357.021C356.973 10.836 356.823 10.362 356.571 9.99C356.331 9.606 356.025 9.3 355.653 9.072C355.281 8.844 354.855 8.682 354.375 8.586C353.907 8.49 353.421 8.442 352.917 8.442C352.413 8.442 351.921 8.49 351.441 8.586C350.961 8.67 350.529 8.826 350.145 9.054C349.761 9.27 349.449 9.57 349.209 9.954C348.981 10.338 348.867 10.83 348.867 11.43C348.867 11.838 348.951 12.186 349.119 12.474C349.287 12.75 349.509 12.984 349.785 13.176C350.061 13.356 350.373 13.506 350.721 13.626C351.081 13.734 351.447 13.83 351.819 13.914C352.731 14.106 353.439 14.298 353.943 14.49C354.459 14.682 354.717 14.97 354.717 15.354C354.717 15.582 354.663 15.774 354.555 15.93C354.447 16.074 354.309 16.194 354.141 16.29C353.985 16.374 353.805 16.44 353.601 16.488C353.409 16.524 353.223 16.542 353.043 16.542C352.791 16.542 352.545 16.512 352.305 16.452C352.077 16.392 351.873 16.302 351.693 16.182C351.513 16.05 351.363 15.888 351.243 15.696C351.135 15.492 351.081 15.252 351.081 14.976ZM366.911 10.494V12.294C367.223 12.294 367.547 12.306 367.883 12.33C368.231 12.342 368.549 12.408 368.837 12.528C369.125 12.636 369.359 12.816 369.539 13.068C369.731 13.32 369.827 13.686 369.827 14.166C369.827 14.778 369.629 15.264 369.233 15.624C368.837 15.972 368.351 16.146 367.775 16.146C367.403 16.146 367.079 16.08 366.803 15.948C366.539 15.816 366.317 15.642 366.137 15.426C365.957 15.198 365.819 14.934 365.723 14.634C365.627 14.322 365.573 13.998 365.561 13.662H363.131C363.119 14.394 363.221 15.042 363.437 15.606C363.665 16.17 363.983 16.65 364.391 17.046C364.799 17.43 365.291 17.724 365.867 17.928C366.455 18.132 367.103 18.234 367.811 18.234C368.423 18.234 369.011 18.144 369.575 17.964C370.139 17.784 370.637 17.52 371.069 17.172C371.501 16.824 371.843 16.392 372.095 15.876C372.359 15.36 372.491 14.772 372.491 14.112C372.491 13.392 372.293 12.774 371.897 12.258C371.501 11.742 370.955 11.406 370.259 11.25V11.214C370.847 11.046 371.285 10.728 371.573 10.26C371.873 9.792 372.023 9.252 372.023 8.64C372.023 8.076 371.897 7.578 371.645 7.146C371.393 6.714 371.063 6.348 370.655 6.048C370.259 5.748 369.809 5.526 369.305 5.382C368.801 5.226 368.297 5.148 367.793 5.148C367.145 5.148 366.557 5.256 366.029 5.472C365.501 5.676 365.045 5.97 364.661 6.354C364.289 6.738 363.995 7.2 363.779 7.74C363.575 8.268 363.461 8.856 363.437 9.504H365.867C365.855 8.856 366.011 8.322 366.335 7.902C366.671 7.47 367.163 7.254 367.811 7.254C368.279 7.254 368.693 7.398 369.053 7.686C369.413 7.974 369.593 8.388 369.593 8.928C369.593 9.288 369.503 9.576 369.323 9.792C369.155 10.008 368.933 10.176 368.657 10.296C368.393 10.404 368.105 10.47 367.793 10.494C367.481 10.518 367.187 10.518 366.911 10.494ZM379.06 5.148V18H381.706V9.396H381.742L387.088 18H389.914V5.148H387.268V13.77H387.232L381.868 5.148H379.06ZM394.4 13.356C394.4 12.984 394.436 12.618 394.508 12.258C394.58 11.898 394.7 11.58 394.868 11.304C395.048 11.028 395.282 10.806 395.57 10.638C395.858 10.458 396.218 10.368 396.65 10.368C397.082 10.368 397.442 10.458 397.73 10.638C398.03 10.806 398.264 11.028 398.432 11.304C398.612 11.58 398.738 11.898 398.81 12.258C398.882 12.618 398.918 12.984 398.918 13.356C398.918 13.728 398.882 14.094 398.81 14.454C398.738 14.802 398.612 15.12 398.432 15.408C398.264 15.684 398.03 15.906 397.73 16.074C397.442 16.242 397.082 16.326 396.65 16.326C396.218 16.326 395.858 16.242 395.57 16.074C395.282 15.906 395.048 15.684 394.868 15.408C394.7 15.12 394.58 14.802 394.508 14.454C394.436 14.094 394.4 13.728 394.4 13.356ZM391.844 13.356C391.844 14.1 391.958 14.772 392.186 15.372C392.414 15.972 392.738 16.488 393.158 16.92C393.578 17.34 394.082 17.664 394.67 17.892C395.258 18.12 395.918 18.234 396.65 18.234C397.382 18.234 398.042 18.12 398.63 17.892C399.23 17.664 399.74 17.34 400.16 16.92C400.58 16.488 400.904 15.972 401.132 15.372C401.36 14.772 401.474 14.1 401.474 13.356C401.474 12.612 401.36 11.94 401.132 11.34C400.904 10.728 400.58 10.212 400.16 9.792C399.74 9.36 399.23 9.03 398.63 8.802C398.042 8.562 397.382 8.442 396.65 8.442C395.918 8.442 395.258 8.562 394.67 8.802C394.082 9.03 393.578 9.36 393.158 9.792C392.738 10.212 392.414 10.728 392.186 11.34C391.958 11.94 391.844 12.612 391.844 13.356ZM409.742 13.32C409.742 13.704 409.706 14.076 409.634 14.436C409.562 14.796 409.442 15.12 409.274 15.408C409.106 15.684 408.878 15.906 408.59 16.074C408.314 16.242 407.966 16.326 407.546 16.326C407.15 16.326 406.808 16.242 406.52 16.074C406.244 15.894 406.01 15.666 405.818 15.39C405.638 15.102 405.506 14.778 405.422 14.418C405.338 14.058 405.296 13.698 405.296 13.338C405.296 12.954 405.332 12.588 405.404 12.24C405.488 11.88 405.614 11.562 405.782 11.286C405.962 11.01 406.196 10.788 406.484 10.62C406.772 10.452 407.126 10.368 407.546 10.368C407.966 10.368 408.314 10.452 408.59 10.62C408.866 10.788 409.088 11.01 409.256 11.286C409.436 11.55 409.562 11.862 409.634 12.222C409.706 12.57 409.742 12.936 409.742 13.32ZM409.778 16.812V18H412.208V5.148H409.652V9.828H409.616C409.328 9.372 408.932 9.03 408.428 8.802C407.936 8.562 407.414 8.442 406.862 8.442C406.178 8.442 405.578 8.58 405.062 8.856C404.546 9.12 404.114 9.474 403.766 9.918C403.43 10.362 403.172 10.878 402.992 11.466C402.824 12.042 402.74 12.642 402.74 13.266C402.74 13.914 402.824 14.538 402.992 15.138C403.172 15.738 403.43 16.272 403.766 16.74C404.114 17.196 404.552 17.562 405.08 17.838C405.608 18.102 406.22 18.234 406.916 18.234C407.528 18.234 408.074 18.126 408.554 17.91C409.046 17.682 409.442 17.316 409.742 16.812H409.778ZM416.408 13.356C416.408 12.984 416.444 12.618 416.516 12.258C416.588 11.898 416.708 11.58 416.876 11.304C417.056 11.028 417.29 10.806 417.578 10.638C417.866 10.458 418.226 10.368 418.658 10.368C419.09 10.368 419.45 10.458 419.738 10.638C420.038 10.806 420.272 11.028 420.44 11.304C420.62 11.58 420.746 11.898 420.818 12.258C420.89 12.618 420.926 12.984 420.926 13.356C420.926 13.728 420.89 14.094 420.818 14.454C420.746 14.802 420.62 15.12 420.44 15.408C420.272 15.684 420.038 15.906 419.738 16.074C419.45 16.242 419.09 16.326 418.658 16.326C418.226 16.326 417.866 16.242 417.578 16.074C417.29 15.906 417.056 15.684 416.876 15.408C416.708 15.12 416.588 14.802 416.516 14.454C416.444 14.094 416.408 13.728 416.408 13.356ZM413.852 13.356C413.852 14.1 413.966 14.772 414.194 15.372C414.422 15.972 414.746 16.488 415.166 16.92C415.586 17.34 416.09 17.664 416.678 17.892C417.266 18.12 417.926 18.234 418.658 18.234C419.39 18.234 420.05 18.12 420.638 17.892C421.238 17.664 421.748 17.34 422.168 16.92C422.588 16.488 422.912 15.972 423.14 15.372C423.368 14.772 423.482 14.1 423.482 13.356C423.482 12.612 423.368 11.94 423.14 11.34C422.912 10.728 422.588 10.212 422.168 9.792C421.748 9.36 421.238 9.03 420.638 8.802C420.05 8.562 419.39 8.442 418.658 8.442C417.926 8.442 417.266 8.562 416.678 8.802C416.09 9.03 415.586 9.36 415.166 9.792C414.746 10.212 414.422 10.728 414.194 11.34C413.966 11.94 413.852 12.612 413.852 13.356ZM427.124 14.976H424.694C424.718 15.6 424.856 16.122 425.108 16.542C425.372 16.95 425.702 17.28 426.098 17.532C426.506 17.784 426.968 17.964 427.484 18.072C428 18.18 428.528 18.234 429.068 18.234C429.596 18.234 430.112 18.18 430.616 18.072C431.132 17.976 431.588 17.802 431.984 17.55C432.38 17.298 432.698 16.968 432.938 16.56C433.19 16.14 433.316 15.624 433.316 15.012C433.316 14.58 433.232 14.22 433.064 13.932C432.896 13.632 432.674 13.386 432.398 13.194C432.122 12.99 431.804 12.828 431.444 12.708C431.096 12.588 430.736 12.486 430.364 12.402C430.004 12.318 429.65 12.24 429.302 12.168C428.954 12.096 428.642 12.018 428.366 11.934C428.102 11.838 427.886 11.718 427.718 11.574C427.55 11.43 427.466 11.244 427.466 11.016C427.466 10.824 427.514 10.674 427.61 10.566C427.706 10.446 427.82 10.356 427.952 10.296C428.096 10.236 428.252 10.2 428.42 10.188C428.588 10.164 428.744 10.152 428.888 10.152C429.344 10.152 429.74 10.242 430.076 10.422C430.412 10.59 430.598 10.92 430.634 11.412H433.064C433.016 10.836 432.866 10.362 432.614 9.99C432.374 9.606 432.068 9.3 431.696 9.072C431.324 8.844 430.898 8.682 430.418 8.586C429.95 8.49 429.464 8.442 428.96 8.442C428.456 8.442 427.964 8.49 427.484 8.586C427.004 8.67 426.572 8.826 426.188 9.054C425.804 9.27 425.492 9.57 425.252 9.954C425.024 10.338 424.91 10.83 424.91 11.43C424.91 11.838 424.994 12.186 425.162 12.474C425.33 12.75 425.552 12.984 425.828 13.176C426.104 13.356 426.416 13.506 426.764 13.626C427.124 13.734 427.49 13.83 427.862 13.914C428.774 14.106 429.482 14.298 429.986 14.49C430.502 14.682 430.76 14.97 430.76 15.354C430.76 15.582 430.706 15.774 430.598 15.93C430.49 16.074 430.352 16.194 430.184 16.29C430.028 16.374 429.848 16.44 429.644 16.488C429.452 16.524 429.266 16.542 429.086 16.542C428.834 16.542 428.588 16.512 428.348 16.452C428.12 16.392 427.916 16.302 427.736 16.182C427.556 16.05 427.406 15.888 427.286 15.696C427.178 15.492 427.124 15.252 427.124 14.976Z" fill="black"/>
<path d="M282.7 65.542L282.988 67H284.788V60.052H279.388V62.158H282.232C282.148 63.058 281.848 63.748 281.332 64.228C280.828 64.696 280.108 64.93 279.172 64.93C278.536 64.93 277.996 64.81 277.552 64.57C277.108 64.318 276.748 63.988 276.472 63.58C276.196 63.172 275.992 62.716 275.86 62.212C275.74 61.696 275.68 61.168 275.68 60.628C275.68 60.064 275.74 59.518 275.86 58.99C275.992 58.462 276.196 57.994 276.472 57.586C276.748 57.166 277.108 56.836 277.552 56.596C277.996 56.344 278.536 56.218 279.172 56.218C279.856 56.218 280.438 56.398 280.918 56.758C281.398 57.118 281.722 57.658 281.89 58.378H284.59C284.518 57.646 284.32 56.998 283.996 56.434C283.672 55.87 283.258 55.396 282.754 55.012C282.262 54.628 281.704 54.34 281.08 54.148C280.468 53.944 279.832 53.842 279.172 53.842C278.188 53.842 277.3 54.016 276.508 54.364C275.728 54.712 275.068 55.192 274.528 55.804C273.988 56.416 273.574 57.136 273.286 57.964C272.998 58.78 272.854 59.668 272.854 60.628C272.854 61.564 272.998 62.44 273.286 63.256C273.574 64.06 273.988 64.762 274.528 65.362C275.068 65.962 275.728 66.436 276.508 66.784C277.3 67.12 278.188 67.288 279.172 67.288C279.796 67.288 280.414 67.162 281.026 66.91C281.638 66.646 282.196 66.19 282.7 65.542ZM292.884 67V54.4H290.85C290.778 54.88 290.628 55.282 290.4 55.606C290.172 55.93 289.89 56.194 289.554 56.398C289.23 56.59 288.858 56.728 288.438 56.812C288.03 56.884 287.604 56.914 287.16 56.902V58.828H290.328V67H292.884Z" fill="black"/>
<path d="M436.606 65.542L436.894 67H438.694V60.052H433.294V62.158H436.138C436.054 63.058 435.754 63.748 435.238 64.228C434.734 64.696 434.014 64.93 433.078 64.93C432.442 64.93 431.902 64.81 431.458 64.57C431.014 64.318 430.654 63.988 430.378 63.58C430.102 63.172 429.898 62.716 429.766 62.212C429.646 61.696 429.586 61.168 429.586 60.628C429.586 60.064 429.646 59.518 429.766 58.99C429.898 58.462 430.102 57.994 430.378 57.586C430.654 57.166 431.014 56.836 431.458 56.596C431.902 56.344 432.442 56.218 433.078 56.218C433.762 56.218 434.344 56.398 434.824 56.758C435.304 57.118 435.628 57.658 435.796 58.378H438.496C438.424 57.646 438.226 56.998 437.902 56.434C437.578 55.87 437.164 55.396 436.66 55.012C436.168 54.628 435.61 54.34 434.986 54.148C434.374 53.944 433.738 53.842 433.078 53.842C432.094 53.842 431.206 54.016 430.414 54.364C429.634 54.712 428.974 55.192 428.434 55.804C427.894 56.416 427.48 57.136 427.192 57.964C426.904 58.78 426.76 59.668 426.76 60.628C426.76 61.564 426.904 62.44 427.192 63.256C427.48 64.06 427.894 64.762 428.434 65.362C428.974 65.962 429.634 66.436 430.414 66.784C431.206 67.12 432.094 67.288 433.078 67.288C433.702 67.288 434.32 67.162 434.932 66.91C435.544 66.646 436.102 66.19 436.606 65.542ZM440.4 59.242H442.848C442.848 58.906 442.878 58.57 442.938 58.234C443.01 57.886 443.124 57.574 443.28 57.298C443.436 57.01 443.64 56.782 443.892 56.614C444.156 56.434 444.474 56.344 444.846 56.344C445.398 56.344 445.848 56.518 446.196 56.866C446.556 57.202 446.736 57.676 446.736 58.288C446.736 58.672 446.646 59.014 446.466 59.314C446.298 59.614 446.082 59.884 445.818 60.124C445.566 60.364 445.284 60.586 444.972 60.79C444.66 60.982 444.366 61.174 444.09 61.366C443.55 61.738 443.034 62.104 442.542 62.464C442.062 62.824 441.642 63.22 441.282 63.652C440.922 64.072 440.634 64.552 440.418 65.092C440.214 65.632 440.112 66.268 440.112 67H449.364V64.804H443.406C443.718 64.372 444.078 63.994 444.486 63.67C444.894 63.346 445.314 63.046 445.746 62.77C446.178 62.482 446.604 62.194 447.024 61.906C447.456 61.618 447.84 61.3 448.176 60.952C448.512 60.592 448.782 60.184 448.986 59.728C449.19 59.272 449.292 58.726 449.292 58.09C449.292 57.478 449.172 56.926 448.932 56.434C448.704 55.942 448.392 55.528 447.996 55.192C447.6 54.856 447.138 54.598 446.61 54.418C446.094 54.238 445.548 54.148 444.972 54.148C444.216 54.148 443.544 54.28 442.956 54.544C442.38 54.796 441.9 55.156 441.516 55.624C441.132 56.08 440.844 56.62 440.652 57.244C440.46 57.856 440.376 58.522 440.4 59.242Z" fill="black"/>
<path d="M622 118C627.523 118 632 113.523 632 108C632 102.477 627.523 98 622 98C616.477 98 612 102.477 612 108C612 113.523 616.477 118 622 118Z" fill="#999999" stroke="black"/>
<path d="M622 218C627.523 218 632 213.523 632 208C632 202.477 627.523 198 622 198C616.477 198 612 202.477 612 208C612 213.523 616.477 218 622 218Z" fill="#999999" stroke="black"/>
<path d="M622 318C627.523 318 632 313.523 632 308C632 302.477 627.523 298 622 298C616.477 298 612 302.477 612 308C612 313.523 616.477 318 622 318Z" fill="#999999" stroke="black"/>
<path d="M622 418C627.523 418 632 413.523 632 408C632 402.477 627.523 398 622 398C616.477 398 612 402.477 612 408C612 413.523 616.477 418 622 418Z" fill="#999999" stroke="black"/>
<path d="M796 118C801.523 118 806 113.523 806 108C806 102.477 801.523 98 796 98C790.477 98 786 102.477 786 108C786 113.523 790.477 118 796 118Z" fill="#999999" stroke="black"/>
<path d="M796 197C801.523 197 806 192.523 806 187C806 181.477 801.523 177 796 177C790.477 177 786 181.477 786 187C786 192.523 790.477 197 796 197Z" fill="#999999" stroke="black"/>
<path d="M746 267C751.523 267 756 262.523 756 257C756 251.477 751.523 247 746 247C740.477 247 736 251.477 736 257C736 262.523 740.477 267 746 267Z" fill="#999999" stroke="black"/>
<path d="M846 267C851.523 267 856 262.523 856 257C856 251.477 851.523 247 846 247C840.477 247 836 251.477 836 257C836 262.523 840.477 267 846 267Z" fill="#999999" stroke="black"/>
<path d="M1570 118C1575.52 118 1580 113.523 1580 108C1580 102.477 1575.52 98 1570 98C1564.48 98 1560 102.477 1560 108C1560 113.523 1564.48 118 1570 118Z" fill="#999999" stroke="black"/>
<path d="M1570 197C1575.52 197 1580 192.523 1580 187C1580 181.477 1575.52 177 1570 177C1564.48 177 1560 181.477 1560 187C1560 192.523 1564.48 197 1570 197Z" fill="#999999" stroke="black"/>
<path d="M1499 267C1504.52 267 1509 262.523 1509 257C1509 251.477 1504.52 247 1499 247C1493.48 247 1489 251.477 1489 257C1489 262.523 1493.48 267 1499 267Z" fill="#999999" stroke="black"/>
<path d="M1641 267C1646.52 267 1651 262.523 1651 257C1651 251.477 1646.52 247 1641 247C1635.48 247 1631 251.477 1631 257C1631 262.523 1635.48 267 1641 267Z" fill="#999999" stroke="black"/>
<path d="M1192 247C1186.48 247 1182 251.477 1182 257C1182 262.523 1186.48 267 1192 267C1197.52 267 1202 262.523 1202 257C1202 251.477 1197.52 247 1192 247Z" fill="#999999" stroke="black"/>
<path d="M1192 168C1186.48 168 1182 172.477 1182 178C1182 183.523 1186.48 188 1192 188C1197.52 188 1202 183.523 1202 178C1202 172.477 1197.52 168 1192 168Z" fill="#999999" stroke="black"/>
<path d="M1242 98C1236.48 98 1232 102.477 1232 108C1232 113.523 1236.48 118 1242 118C1247.52 118 1252 113.523 1252 108C1252 102.477 1247.52 98 1242 98Z" fill="#999999" stroke="black"/>
<path d="M1142 98C1136.48 98 1132 102.477 1132 108C1132 113.523 1136.48 118 1142 118C1147.52 118 1152 113.523 1152 108C1152 102.477 1147.52 98 1142 98Z" fill="#999999" stroke="black"/>
<path d="M939 118C944.523 118 949 113.523 949 108C949 102.477 944.523 98 939 98C933.477 98 929 102.477 929 108C929 113.523 933.477 118 939 118Z" fill="#999999" stroke="black"/>
<path d="M1039 118C1044.52 118 1049 113.523 1049 108C1049 102.477 1044.52 98 1039 98C1033.48 98 1029 102.477 1029 108C1029 113.523 1033.48 118 1039 118Z" fill="#999999" stroke="black"/>
<path d="M1039 218C1044.52 218 1049 213.523 1049 208C1049 202.477 1044.52 198 1039 198C1033.48 198 1029 202.477 1029 208C1029 213.523 1033.48 218 1039 218Z" fill="#999999" stroke="black"/>
<path d="M939 218C944.523 218 949 213.523 949 208C949 202.477 944.523 198 939 198C933.477 198 929 202.477 929 208C929 213.523 933.477 218 939 218Z" fill="#999999" stroke="black"/>
<path d="M622 118V198" stroke="black" stroke-width="3"/>
<path d="M622 218V298" stroke="black" stroke-width="3"/>
<path d="M622 318V398" stroke="black" stroke-width="3"/>
<path d="M796 118V175" stroke="black" stroke-width="3"/>
<path d="M1039 118L1039 198" stroke="black" stroke-width="3"/>
<path d="M939 198V118" stroke="black" stroke-width="3"/>
<path d="M1192 188L1192.04 247" stroke="black" stroke-width="3"/>
<path d="M1029 208H949" stroke="black" stroke-width="3"/>
<path d="M756 247L786 197" stroke="black" stroke-width="3"/>
<path d="M836 247L806 197" stroke="black" stroke-width="3"/>
<path d="M1570 118V175" stroke="black" stroke-width="3"/>
<path d="M1509 247L1560 197" stroke="black" stroke-width="3"/>
<path d="M1631 247L1580 197" stroke="black" stroke-width="3"/>
<path d="M949 108L1029 108" stroke="black" stroke-width="3"/>
<path d="M1152 108L1232 108" stroke="black" stroke-width="3"/>
<path d="M1152 118L1182 168" stroke="black" stroke-width="3"/>
<path d="M1232 118L1202 168" stroke="black" stroke-width="3"/>
<path d="M1499 246L1560 118" stroke="black" stroke-width="3"/>
<path d="M1580 118L1641 245" stroke="black" stroke-width="3"/>
<path d="M1631 257H1511" stroke="black" stroke-width="3"/>
<path d="M622.69 16.542L622.978 18H624.778V11.052H619.378V13.158H622.222C622.138 14.058 621.838 14.748 621.322 15.228C620.818 15.696 620.098 15.93 619.162 15.93C618.526 15.93 617.986 15.81 617.542 15.57C617.098 15.318 616.738 14.988 616.462 14.58C616.186 14.172 615.982 13.716 615.85 13.212C615.73 12.696 615.67 12.168 615.67 11.628C615.67 11.064 615.73 10.518 615.85 9.99C615.982 9.462 616.186 8.994 616.462 8.586C616.738 8.166 617.098 7.836 617.542 7.596C617.986 7.344 618.526 7.218 619.162 7.218C619.846 7.218 620.428 7.398 620.908 7.758C621.388 8.118 621.712 8.658 621.88 9.378H624.58C624.508 8.646 624.31 7.998 623.986 7.434C623.662 6.87 623.248 6.396 622.744 6.012C622.252 5.628 621.694 5.34 621.07 5.148C620.458 4.944 619.822 4.842 619.162 4.842C618.178 4.842 617.29 5.016 616.498 5.364C615.718 5.712 615.058 6.192 614.518 6.804C613.978 7.416 613.564 8.136 613.276 8.964C612.988 9.78 612.844 10.668 612.844 11.628C612.844 12.564 612.988 13.44 613.276 14.256C613.564 15.06 613.978 15.762 614.518 16.362C615.058 16.962 615.718 17.436 616.498 17.784C617.29 18.12 618.178 18.288 619.162 18.288C619.786 18.288 620.404 18.162 621.016 17.91C621.628 17.646 622.186 17.19 622.69 16.542ZM626.79 8.694V18H629.346V13.806C629.346 13.386 629.388 12.996 629.472 12.636C629.556 12.276 629.694 11.964 629.886 11.7C630.09 11.424 630.354 11.208 630.678 11.052C631.002 10.896 631.398 10.818 631.866 10.818C632.022 10.818 632.184 10.83 632.352 10.854C632.52 10.866 632.664 10.884 632.784 10.908V8.532C632.58 8.472 632.394 8.442 632.226 8.442C631.902 8.442 631.59 8.49 631.29 8.586C630.99 8.682 630.708 8.82 630.444 9C630.18 9.168 629.946 9.378 629.742 9.63C629.538 9.87 629.376 10.134 629.256 10.422H629.22V8.694H626.79ZM633.678 11.556C633.714 10.956 633.864 10.458 634.128 10.062C634.392 9.666 634.728 9.348 635.136 9.108C635.544 8.868 636 8.7 636.504 8.604C637.02 8.496 637.536 8.442 638.052 8.442C638.52 8.442 638.994 8.478 639.474 8.55C639.954 8.61 640.392 8.736 640.788 8.928C641.184 9.12 641.508 9.39 641.76 9.738C642.012 10.074 642.138 10.524 642.138 11.088V15.93C642.138 16.35 642.162 16.752 642.21 17.136C642.258 17.52 642.342 17.808 642.462 18H639.87C639.822 17.856 639.78 17.712 639.744 17.568C639.72 17.412 639.702 17.256 639.69 17.1C639.282 17.52 638.802 17.814 638.25 17.982C637.698 18.15 637.134 18.234 636.558 18.234C636.114 18.234 635.7 18.18 635.316 18.072C634.932 17.964 634.596 17.796 634.308 17.568C634.02 17.34 633.792 17.052 633.624 16.704C633.468 16.356 633.39 15.942 633.39 15.462C633.39 14.934 633.48 14.502 633.66 14.166C633.852 13.818 634.092 13.542 634.38 13.338C634.68 13.134 635.016 12.984 635.388 12.888C635.772 12.78 636.156 12.696 636.54 12.636C636.924 12.576 637.302 12.528 637.674 12.492C638.046 12.456 638.376 12.402 638.664 12.33C638.952 12.258 639.18 12.156 639.348 12.024C639.516 11.88 639.594 11.676 639.582 11.412C639.582 11.136 639.534 10.92 639.438 10.764C639.354 10.596 639.234 10.47 639.078 10.386C638.934 10.29 638.76 10.23 638.556 10.206C638.364 10.17 638.154 10.152 637.926 10.152C637.422 10.152 637.026 10.26 636.738 10.476C636.45 10.692 636.282 11.052 636.234 11.556H633.678ZM639.582 13.446C639.474 13.542 639.336 13.62 639.168 13.68C639.012 13.728 638.838 13.77 638.646 13.806C638.466 13.842 638.274 13.872 638.07 13.896C637.866 13.92 637.662 13.95 637.458 13.986C637.266 14.022 637.074 14.07 636.882 14.13C636.702 14.19 636.54 14.274 636.396 14.382C636.264 14.478 636.156 14.604 636.072 14.76C635.988 14.916 635.946 15.114 635.946 15.354C635.946 15.582 635.988 15.774 636.072 15.93C636.156 16.086 636.27 16.212 636.414 16.308C636.558 16.392 636.726 16.452 636.918 16.488C637.11 16.524 637.308 16.542 637.512 16.542C638.016 16.542 638.406 16.458 638.682 16.29C638.958 16.122 639.162 15.924 639.294 15.696C639.426 15.456 639.504 15.216 639.528 14.976C639.564 14.736 639.582 14.544 639.582 14.4V13.446ZM648.82 16.326C648.412 16.326 648.064 16.242 647.776 16.074C647.488 15.906 647.254 15.69 647.074 15.426C646.906 15.15 646.78 14.832 646.696 14.472C646.624 14.112 646.588 13.746 646.588 13.374C646.588 12.99 646.624 12.618 646.696 12.258C646.768 11.898 646.888 11.58 647.056 11.304C647.236 11.028 647.464 10.806 647.74 10.638C648.028 10.458 648.382 10.368 648.802 10.368C649.21 10.368 649.552 10.458 649.828 10.638C650.116 10.806 650.35 11.034 650.53 11.322C650.71 11.598 650.836 11.916 650.908 12.276C650.992 12.636 651.034 13.002 651.034 13.374C651.034 13.746 650.998 14.112 650.926 14.472C650.854 14.832 650.728 15.15 650.548 15.426C650.38 15.69 650.152 15.906 649.864 16.074C649.588 16.242 649.24 16.326 648.82 16.326ZM644.122 8.694V21.258H646.678V16.848H646.714C647.026 17.304 647.422 17.652 647.902 17.892C648.394 18.12 648.928 18.234 649.504 18.234C650.188 18.234 650.782 18.102 651.286 17.838C651.802 17.574 652.228 17.22 652.564 16.776C652.912 16.332 653.17 15.822 653.338 15.246C653.506 14.67 653.59 14.07 653.59 13.446C653.59 12.786 653.506 12.156 653.338 11.556C653.17 10.944 652.912 10.41 652.564 9.954C652.216 9.498 651.778 9.132 651.25 8.856C650.722 8.58 650.092 8.442 649.36 8.442C648.784 8.442 648.256 8.556 647.776 8.784C647.296 9.012 646.9 9.378 646.588 9.882H646.552V8.694H644.122ZM655.126 5.148V18H657.682V13.122C657.682 12.174 657.838 11.496 658.15 11.088C658.462 10.668 658.966 10.458 659.662 10.458C660.274 10.458 660.7 10.65 660.94 11.034C661.18 11.406 661.3 11.976 661.3 12.744V18H663.856V12.276C663.856 11.7 663.802 11.178 663.694 10.71C663.598 10.23 663.424 9.828 663.172 9.504C662.92 9.168 662.572 8.91 662.128 8.73C661.696 8.538 661.138 8.442 660.454 8.442C659.974 8.442 659.482 8.568 658.978 8.82C658.474 9.06 658.06 9.45 657.736 9.99H657.682V5.148H655.126ZM665.868 5.148V18H668.424V5.148H665.868ZM676.701 12.348H672.543C672.555 12.168 672.591 11.964 672.651 11.736C672.723 11.508 672.837 11.292 672.993 11.088C673.161 10.884 673.377 10.716 673.641 10.584C673.917 10.44 674.259 10.368 674.667 10.368C675.291 10.368 675.753 10.536 676.053 10.872C676.365 11.208 676.581 11.7 676.701 12.348ZM672.543 13.968H679.257C679.305 13.248 679.245 12.558 679.077 11.898C678.909 11.238 678.633 10.65 678.249 10.134C677.877 9.618 677.397 9.21 676.809 8.91C676.221 8.598 675.531 8.442 674.739 8.442C674.031 8.442 673.383 8.568 672.795 8.82C672.219 9.072 671.721 9.42 671.301 9.864C670.881 10.296 670.557 10.812 670.329 11.412C670.101 12.012 669.987 12.66 669.987 13.356C669.987 14.076 670.095 14.736 670.311 15.336C670.539 15.936 670.857 16.452 671.265 16.884C671.673 17.316 672.171 17.652 672.759 17.892C673.347 18.12 674.007 18.234 674.739 18.234C675.795 18.234 676.695 17.994 677.439 17.514C678.183 17.034 678.735 16.236 679.095 15.12H676.845C676.761 15.408 676.533 15.684 676.161 15.948C675.789 16.2 675.345 16.326 674.829 16.326C674.109 16.326 673.557 16.14 673.173 15.768C672.789 15.396 672.579 14.796 672.543 13.968ZM684.013 8.694V5.904H681.457V8.694H679.909V10.404H681.457V15.894C681.457 16.362 681.535 16.74 681.691 17.028C681.847 17.316 682.057 17.538 682.321 17.694C682.597 17.85 682.909 17.952 683.257 18C683.617 18.06 683.995 18.09 684.391 18.09C684.643 18.09 684.901 18.084 685.165 18.072C685.429 18.06 685.669 18.036 685.885 18V16.02C685.765 16.044 685.639 16.062 685.507 16.074C685.375 16.086 685.237 16.092 685.093 16.092C684.661 16.092 684.373 16.02 684.229 15.876C684.085 15.732 684.013 15.444 684.013 15.012V10.404H685.885V8.694H684.013ZM689.081 14.976H686.651C686.675 15.6 686.813 16.122 687.065 16.542C687.329 16.95 687.659 17.28 688.055 17.532C688.463 17.784 688.925 17.964 689.441 18.072C689.957 18.18 690.485 18.234 691.025 18.234C691.553 18.234 692.069 18.18 692.573 18.072C693.089 17.976 693.545 17.802 693.941 17.55C694.337 17.298 694.655 16.968 694.895 16.56C695.147 16.14 695.273 15.624 695.273 15.012C695.273 14.58 695.189 14.22 695.021 13.932C694.853 13.632 694.631 13.386 694.355 13.194C694.079 12.99 693.761 12.828 693.401 12.708C693.053 12.588 692.693 12.486 692.321 12.402C691.961 12.318 691.607 12.24 691.259 12.168C690.911 12.096 690.599 12.018 690.323 11.934C690.059 11.838 689.843 11.718 689.675 11.574C689.507 11.43 689.423 11.244 689.423 11.016C689.423 10.824 689.471 10.674 689.567 10.566C689.663 10.446 689.777 10.356 689.909 10.296C690.053 10.236 690.209 10.2 690.377 10.188C690.545 10.164 690.701 10.152 690.845 10.152C691.301 10.152 691.697 10.242 692.033 10.422C692.369 10.59 692.555 10.92 692.591 11.412H695.021C694.973 10.836 694.823 10.362 694.571 9.99C694.331 9.606 694.025 9.3 693.653 9.072C693.281 8.844 692.855 8.682 692.375 8.586C691.907 8.49 691.421 8.442 690.917 8.442C690.413 8.442 689.921 8.49 689.441 8.586C688.961 8.67 688.529 8.826 688.145 9.054C687.761 9.27 687.449 9.57 687.209 9.954C686.981 10.338 686.867 10.83 686.867 11.43C686.867 11.838 686.951 12.186 687.119 12.474C687.287 12.75 687.509 12.984 687.785 13.176C688.061 13.356 688.373 13.506 688.721 13.626C689.081 13.734 689.447 13.83 689.819 13.914C690.731 14.106 691.439 14.298 691.943 14.49C692.459 14.682 692.717 14.97 692.717 15.354C692.717 15.582 692.663 15.774 692.555 15.93C692.447 16.074 692.309 16.194 692.141 16.29C691.985 16.374 691.805 16.44 691.601 16.488C691.409 16.524 691.223 16.542 691.043 16.542C690.791 16.542 690.545 16.512 690.305 16.452C690.077 16.392 689.873 16.302 689.693 16.182C689.513 16.05 689.363 15.888 689.243 15.696C689.135 15.492 689.081 15.252 689.081 14.976ZM706.423 8.604V12.978H703.111L706.369 8.604H706.423ZM706.423 15.084V18H708.853V15.084H710.527V12.978H708.853V5.4H706.567L701.095 12.744V15.084H706.423ZM717.06 5.148V18H719.706V9.396H719.742L725.088 18H727.914V5.148H725.268V13.77H725.232L719.868 5.148H717.06ZM732.4 13.356C732.4 12.984 732.436 12.618 732.508 12.258C732.58 11.898 732.7 11.58 732.868 11.304C733.048 11.028 733.282 10.806 733.57 10.638C733.858 10.458 734.218 10.368 734.65 10.368C735.082 10.368 735.442 10.458 735.73 10.638C736.03 10.806 736.264 11.028 736.432 11.304C736.612 11.58 736.738 11.898 736.81 12.258C736.882 12.618 736.918 12.984 736.918 13.356C736.918 13.728 736.882 14.094 736.81 14.454C736.738 14.802 736.612 15.12 736.432 15.408C736.264 15.684 736.03 15.906 735.73 16.074C735.442 16.242 735.082 16.326 734.65 16.326C734.218 16.326 733.858 16.242 733.57 16.074C733.282 15.906 733.048 15.684 732.868 15.408C732.7 15.12 732.58 14.802 732.508 14.454C732.436 14.094 732.4 13.728 732.4 13.356ZM729.844 13.356C729.844 14.1 729.958 14.772 730.186 15.372C730.414 15.972 730.738 16.488 731.158 16.92C731.578 17.34 732.082 17.664 732.67 17.892C733.258 18.12 733.918 18.234 734.65 18.234C735.382 18.234 736.042 18.12 736.63 17.892C737.23 17.664 737.74 17.34 738.16 16.92C738.58 16.488 738.904 15.972 739.132 15.372C739.36 14.772 739.474 14.1 739.474 13.356C739.474 12.612 739.36 11.94 739.132 11.34C738.904 10.728 738.58 10.212 738.16 9.792C737.74 9.36 737.23 9.03 736.63 8.802C736.042 8.562 735.382 8.442 734.65 8.442C733.918 8.442 733.258 8.562 732.67 8.802C732.082 9.03 731.578 9.36 731.158 9.792C730.738 10.212 730.414 10.728 730.186 11.34C729.958 11.94 729.844 12.612 729.844 13.356ZM747.742 13.32C747.742 13.704 747.706 14.076 747.634 14.436C747.562 14.796 747.442 15.12 747.274 15.408C747.106 15.684 746.878 15.906 746.59 16.074C746.314 16.242 745.966 16.326 745.546 16.326C745.15 16.326 744.808 16.242 744.52 16.074C744.244 15.894 744.01 15.666 743.818 15.39C743.638 15.102 743.506 14.778 743.422 14.418C743.338 14.058 743.296 13.698 743.296 13.338C743.296 12.954 743.332 12.588 743.404 12.24C743.488 11.88 743.614 11.562 743.782 11.286C743.962 11.01 744.196 10.788 744.484 10.62C744.772 10.452 745.126 10.368 745.546 10.368C745.966 10.368 746.314 10.452 746.59 10.62C746.866 10.788 747.088 11.01 747.256 11.286C747.436 11.55 747.562 11.862 747.634 12.222C747.706 12.57 747.742 12.936 747.742 13.32ZM747.778 16.812V18H750.208V5.148H747.652V9.828H747.616C747.328 9.372 746.932 9.03 746.428 8.802C745.936 8.562 745.414 8.442 744.862 8.442C744.178 8.442 743.578 8.58 743.062 8.856C742.546 9.12 742.114 9.474 741.766 9.918C741.43 10.362 741.172 10.878 740.992 11.466C740.824 12.042 740.74 12.642 740.74 13.266C740.74 13.914 740.824 14.538 740.992 15.138C741.172 15.738 741.43 16.272 741.766 16.74C742.114 17.196 742.552 17.562 743.08 17.838C743.608 18.102 744.22 18.234 744.916 18.234C745.528 18.234 746.074 18.126 746.554 17.91C747.046 17.682 747.442 17.316 747.742 16.812H747.778ZM754.408 13.356C754.408 12.984 754.444 12.618 754.516 12.258C754.588 11.898 754.708 11.58 754.876 11.304C755.056 11.028 755.29 10.806 755.578 10.638C755.866 10.458 756.226 10.368 756.658 10.368C757.09 10.368 757.45 10.458 757.738 10.638C758.038 10.806 758.272 11.028 758.44 11.304C758.62 11.58 758.746 11.898 758.818 12.258C758.89 12.618 758.926 12.984 758.926 13.356C758.926 13.728 758.89 14.094 758.818 14.454C758.746 14.802 758.62 15.12 758.44 15.408C758.272 15.684 758.038 15.906 757.738 16.074C757.45 16.242 757.09 16.326 756.658 16.326C756.226 16.326 755.866 16.242 755.578 16.074C755.29 15.906 755.056 15.684 754.876 15.408C754.708 15.12 754.588 14.802 754.516 14.454C754.444 14.094 754.408 13.728 754.408 13.356ZM751.852 13.356C751.852 14.1 751.966 14.772 752.194 15.372C752.422 15.972 752.746 16.488 753.166 16.92C753.586 17.34 754.09 17.664 754.678 17.892C755.266 18.12 755.926 18.234 756.658 18.234C757.39 18.234 758.05 18.12 758.638 17.892C759.238 17.664 759.748 17.34 760.168 16.92C760.588 16.488 760.912 15.972 761.14 15.372C761.368 14.772 761.482 14.1 761.482 13.356C761.482 12.612 761.368 11.94 761.14 11.34C760.912 10.728 760.588 10.212 760.168 9.792C759.748 9.36 759.238 9.03 758.638 8.802C758.05 8.562 757.39 8.442 756.658 8.442C755.926 8.442 755.266 8.562 754.678 8.802C754.09 9.03 753.586 9.36 753.166 9.792C752.746 10.212 752.422 10.728 752.194 11.34C751.966 11.94 751.852 12.612 751.852 13.356ZM765.124 14.976H762.694C762.718 15.6 762.856 16.122 763.108 16.542C763.372 16.95 763.702 17.28 764.098 17.532C764.506 17.784 764.968 17.964 765.484 18.072C766 18.18 766.528 18.234 767.068 18.234C767.596 18.234 768.112 18.18 768.616 18.072C769.132 17.976 769.588 17.802 769.984 17.55C770.38 17.298 770.698 16.968 770.938 16.56C771.19 16.14 771.316 15.624 771.316 15.012C771.316 14.58 771.232 14.22 771.064 13.932C770.896 13.632 770.674 13.386 770.398 13.194C770.122 12.99 769.804 12.828 769.444 12.708C769.096 12.588 768.736 12.486 768.364 12.402C768.004 12.318 767.65 12.24 767.302 12.168C766.954 12.096 766.642 12.018 766.366 11.934C766.102 11.838 765.886 11.718 765.718 11.574C765.55 11.43 765.466 11.244 765.466 11.016C765.466 10.824 765.514 10.674 765.61 10.566C765.706 10.446 765.82 10.356 765.952 10.296C766.096 10.236 766.252 10.2 766.42 10.188C766.588 10.164 766.744 10.152 766.888 10.152C767.344 10.152 767.74 10.242 768.076 10.422C768.412 10.59 768.598 10.92 768.634 11.412H771.064C771.016 10.836 770.866 10.362 770.614 9.99C770.374 9.606 770.068 9.3 769.696 9.072C769.324 8.844 768.898 8.682 768.418 8.586C767.95 8.49 767.464 8.442 766.96 8.442C766.456 8.442 765.964 8.49 765.484 8.586C765.004 8.67 764.572 8.826 764.188 9.054C763.804 9.27 763.492 9.57 763.252 9.954C763.024 10.338 762.91 10.83 762.91 11.43C762.91 11.838 762.994 12.186 763.162 12.474C763.33 12.75 763.552 12.984 763.828 13.176C764.104 13.356 764.416 13.506 764.764 13.626C765.124 13.734 765.49 13.83 765.862 13.914C766.774 14.106 767.482 14.298 767.986 14.49C768.502 14.682 768.76 14.97 768.76 15.354C768.76 15.582 768.706 15.774 768.598 15.93C768.49 16.074 768.352 16.194 768.184 16.29C768.028 16.374 767.848 16.44 767.644 16.488C767.452 16.524 767.266 16.542 767.086 16.542C766.834 16.542 766.588 16.512 766.348 16.452C766.12 16.392 765.916 16.302 765.736 16.182C765.556 16.05 765.406 15.888 765.286 15.696C765.178 15.492 765.124 15.252 765.124 14.976Z" fill="black"/>
<path d="M794.7 65.542L794.988 67H796.788V60.052H791.388V62.158H794.232C794.148 63.058 793.848 63.748 793.332 64.228C792.828 64.696 792.108 64.93 791.172 64.93C790.536 64.93 789.996 64.81 789.552 64.57C789.108 64.318 788.748 63.988 788.472 63.58C788.196 63.172 787.992 62.716 787.86 62.212C787.74 61.696 787.68 61.168 787.68 60.628C787.68 60.064 787.74 59.518 787.86 58.99C787.992 58.462 788.196 57.994 788.472 57.586C788.748 57.166 789.108 56.836 789.552 56.596C789.996 56.344 790.536 56.218 791.172 56.218C791.856 56.218 792.438 56.398 792.918 56.758C793.398 57.118 793.722 57.658 793.89 58.378H796.59C796.518 57.646 796.32 56.998 795.996 56.434C795.672 55.87 795.258 55.396 794.754 55.012C794.262 54.628 793.704 54.34 793.08 54.148C792.468 53.944 791.832 53.842 791.172 53.842C790.188 53.842 789.3 54.016 788.508 54.364C787.728 54.712 787.068 55.192 786.528 55.804C785.988 56.416 785.574 57.136 785.286 57.964C784.998 58.78 784.854 59.668 784.854 60.628C784.854 61.564 784.998 62.44 785.286 63.256C785.574 64.06 785.988 64.762 786.528 65.362C787.068 65.962 787.728 66.436 788.508 66.784C789.3 67.12 790.188 67.288 791.172 67.288C791.796 67.288 792.414 67.162 793.026 66.91C793.638 66.646 794.196 66.19 794.7 65.542ZM803.444 57.604V61.978H800.132L803.39 57.604H803.444ZM803.444 64.084V67H805.874V64.084H807.548V61.978H805.874V54.4H803.588L798.116 61.744V64.084H803.444Z" fill="black"/>
<path d="M987.7 65.542L987.988 67H989.788V60.052H984.388V62.158H987.232C987.148 63.058 986.848 63.748 986.332 64.228C985.828 64.696 985.108 64.93 984.172 64.93C983.536 64.93 982.996 64.81 982.552 64.57C982.108 64.318 981.748 63.988 981.472 63.58C981.196 63.172 980.992 62.716 980.86 62.212C980.74 61.696 980.68 61.168 980.68 60.628C980.68 60.064 980.74 59.518 980.86 58.99C980.992 58.462 981.196 57.994 981.472 57.586C981.748 57.166 982.108 56.836 982.552 56.596C982.996 56.344 983.536 56.218 984.172 56.218C984.856 56.218 985.438 56.398 985.918 56.758C986.398 57.118 986.722 57.658 986.89 58.378H989.59C989.518 57.646 989.32 56.998 988.996 56.434C988.672 55.87 988.258 55.396 987.754 55.012C987.262 54.628 986.704 54.34 986.08 54.148C985.468 53.944 984.832 53.842 984.172 53.842C983.188 53.842 982.3 54.016 981.508 54.364C980.728 54.712 980.068 55.192 979.528 55.804C978.988 56.416 978.574 57.136 978.286 57.964C977.998 58.78 977.854 59.668 977.854 60.628C977.854 61.564 977.998 62.44 978.286 63.256C978.574 64.06 978.988 64.762 979.528 65.362C980.068 65.962 980.728 66.436 981.508 66.784C982.3 67.12 983.188 67.288 984.172 67.288C984.796 67.288 985.414 67.162 986.026 66.91C986.638 66.646 987.196 66.19 987.7 65.542ZM999.828 56.506V54.4H992.79L991.548 61.366H993.852C994.104 61.018 994.374 60.766 994.662 60.61C994.95 60.442 995.322 60.358 995.778 60.358C996.126 60.358 996.432 60.418 996.696 60.538C996.96 60.658 997.188 60.826 997.38 61.042C997.572 61.258 997.716 61.51 997.812 61.798C997.908 62.086 997.956 62.392 997.956 62.716C997.956 63.028 997.902 63.334 997.794 63.634C997.698 63.922 997.554 64.18 997.362 64.408C997.182 64.624 996.954 64.804 996.678 64.948C996.414 65.08 996.114 65.146 995.778 65.146C995.202 65.146 994.728 64.978 994.356 64.642C993.984 64.294 993.768 63.832 993.708 63.256H991.152C991.164 63.916 991.296 64.498 991.548 65.002C991.812 65.494 992.16 65.908 992.592 66.244C993.024 66.58 993.516 66.832 994.068 67C994.632 67.156 995.22 67.234 995.832 67.234C996.468 67.246 997.068 67.144 997.632 66.928C998.196 66.7 998.688 66.382 999.108 65.974C999.54 65.566 999.882 65.086 1000.13 64.534C1000.39 63.97 1000.51 63.364 1000.51 62.716C1000.51 62.128 1000.42 61.576 1000.24 61.06C1000.07 60.532 999.822 60.076 999.486 59.692C999.162 59.308 998.76 59.002 998.28 58.774C997.8 58.546 997.248 58.432 996.624 58.432C996.12 58.432 995.67 58.51 995.274 58.666C994.878 58.81 994.506 59.056 994.158 59.404L994.122 59.368L994.626 56.506H999.828Z" fill="black"/>
<path d="M1329 118C1334.52 118 1339 113.523 1339 108C1339 102.477 1334.52 98 1329 98C1323.48 98 1319 102.477 1319 108C1319 113.523 1323.48 118 1329 118Z" fill="#999999" stroke="black"/>
<path d="M1429 118C1434.52 118 1439 113.523 1439 108C1439 102.477 1434.52 98 1429 98C1423.48 98 1419 102.477 1419 108C1419 113.523 1423.48 118 1429 118Z" fill="#999999" stroke="black"/>
<path d="M1429 218C1434.52 218 1439 213.523 1439 208C1439 202.477 1434.52 198 1429 198C1423.48 198 1419 202.477 1419 208C1419 213.523 1423.48 218 1429 218Z" fill="#999999" stroke="black"/>
<path d="M1329 218C1334.52 218 1339 213.523 1339 208C1339 202.477 1334.52 198 1329 198C1323.48 198 1319 202.477 1319 208C1319 213.523 1323.48 218 1329 218Z" fill="#999999" stroke="black"/>
<path d="M1429 118L1429 198" stroke="black" stroke-width="3"/>
<path d="M1329 198V118" stroke="black" stroke-width="3"/>
<path d="M1421 200L1337 116" stroke="black" stroke-width="3"/>
<path d="M1419 208H1339" stroke="black" stroke-width="3"/>
<path d="M1339 108L1419 108" stroke="black" stroke-width="3"/>
<path d="M1377.7 65.542L1377.99 67H1379.79V60.052H1374.39V62.158H1377.23C1377.15 63.058 1376.85 63.748 1376.33 64.228C1375.83 64.696 1375.11 64.93 1374.17 64.93C1373.54 64.93 1373 64.81 1372.55 64.57C1372.11 64.318 1371.75 63.988 1371.47 63.58C1371.2 63.172 1370.99 62.716 1370.86 62.212C1370.74 61.696 1370.68 61.168 1370.68 60.628C1370.68 60.064 1370.74 59.518 1370.86 58.99C1370.99 58.462 1371.2 57.994 1371.47 57.586C1371.75 57.166 1372.11 56.836 1372.55 56.596C1373 56.344 1373.54 56.218 1374.17 56.218C1374.86 56.218 1375.44 56.398 1375.92 56.758C1376.4 57.118 1376.72 57.658 1376.89 58.378H1379.59C1379.52 57.646 1379.32 56.998 1379 56.434C1378.67 55.87 1378.26 55.396 1377.75 55.012C1377.26 54.628 1376.7 54.34 1376.08 54.148C1375.47 53.944 1374.83 53.842 1374.17 53.842C1373.19 53.842 1372.3 54.016 1371.51 54.364C1370.73 54.712 1370.07 55.192 1369.53 55.804C1368.99 56.416 1368.57 57.136 1368.29 57.964C1368 58.78 1367.85 59.668 1367.85 60.628C1367.85 61.564 1368 62.44 1368.29 63.256C1368.57 64.06 1368.99 64.762 1369.53 65.362C1370.07 65.962 1370.73 66.436 1371.51 66.784C1372.3 67.12 1373.19 67.288 1374.17 67.288C1374.8 67.288 1375.41 67.162 1376.03 66.91C1376.64 66.646 1377.2 66.19 1377.7 65.542ZM1390.13 56.596V54.4H1381.53V56.776H1387.51C1386.31 58.228 1385.33 59.824 1384.59 61.564C1383.86 63.304 1383.42 65.116 1383.28 67H1386.01C1386.02 66.16 1386.12 65.254 1386.3 64.282C1386.49 63.31 1386.76 62.35 1387.09 61.402C1387.44 60.454 1387.87 59.56 1388.37 58.72C1388.89 57.88 1389.47 57.172 1390.13 56.596Z" fill="black"/>
<path d="M1190.7 65.542L1190.99 67H1192.79V60.052H1187.39V62.158H1190.23C1190.15 63.058 1189.85 63.748 1189.33 64.228C1188.83 64.696 1188.11 64.93 1187.17 64.93C1186.54 64.93 1186 64.81 1185.55 64.57C1185.11 64.318 1184.75 63.988 1184.47 63.58C1184.2 63.172 1183.99 62.716 1183.86 62.212C1183.74 61.696 1183.68 61.168 1183.68 60.628C1183.68 60.064 1183.74 59.518 1183.86 58.99C1183.99 58.462 1184.2 57.994 1184.47 57.586C1184.75 57.166 1185.11 56.836 1185.55 56.596C1186 56.344 1186.54 56.218 1187.17 56.218C1187.86 56.218 1188.44 56.398 1188.92 56.758C1189.4 57.118 1189.72 57.658 1189.89 58.378H1192.59C1192.52 57.646 1192.32 56.998 1192 56.434C1191.67 55.87 1191.26 55.396 1190.75 55.012C1190.26 54.628 1189.7 54.34 1189.08 54.148C1188.47 53.944 1187.83 53.842 1187.17 53.842C1186.19 53.842 1185.3 54.016 1184.51 54.364C1183.73 54.712 1183.07 55.192 1182.53 55.804C1181.99 56.416 1181.57 57.136 1181.29 57.964C1181 58.78 1180.85 59.668 1180.85 60.628C1180.85 61.564 1181 62.44 1181.29 63.256C1181.57 64.06 1181.99 64.762 1182.53 65.362C1183.07 65.962 1183.73 66.436 1184.51 66.784C1185.3 67.12 1186.19 67.288 1187.17 67.288C1187.8 67.288 1188.41 67.162 1189.03 66.91C1189.64 66.646 1190.2 66.19 1190.7 65.542ZM1198.98 60.466C1199.3 60.466 1199.58 60.538 1199.82 60.682C1200.07 60.814 1200.28 60.994 1200.43 61.222C1200.59 61.438 1200.7 61.69 1200.78 61.978C1200.86 62.254 1200.9 62.542 1200.9 62.842C1200.9 63.13 1200.86 63.412 1200.78 63.688C1200.69 63.964 1200.57 64.21 1200.4 64.426C1200.23 64.642 1200.03 64.816 1199.79 64.948C1199.56 65.08 1199.29 65.146 1198.98 65.146C1198.65 65.146 1198.36 65.08 1198.11 64.948C1197.86 64.816 1197.64 64.642 1197.46 64.426C1197.3 64.198 1197.16 63.946 1197.07 63.67C1196.98 63.382 1196.94 63.094 1196.94 62.806C1196.94 62.494 1196.98 62.2 1197.07 61.924C1197.15 61.636 1197.28 61.384 1197.45 61.168C1197.61 60.952 1197.82 60.784 1198.08 60.664C1198.34 60.532 1198.64 60.466 1198.98 60.466ZM1200.81 57.64H1203.24C1203.17 57.076 1203.02 56.578 1202.79 56.146C1202.56 55.714 1202.27 55.354 1201.91 55.066C1201.55 54.766 1201.14 54.538 1200.67 54.382C1200.2 54.226 1199.7 54.148 1199.16 54.148C1198.26 54.148 1197.49 54.346 1196.87 54.742C1196.25 55.138 1195.74 55.654 1195.34 56.29C1194.94 56.914 1194.66 57.616 1194.48 58.396C1194.3 59.176 1194.21 59.956 1194.21 60.736C1194.21 61.54 1194.28 62.332 1194.42 63.112C1194.57 63.88 1194.82 64.57 1195.2 65.182C1195.57 65.794 1196.07 66.292 1196.69 66.676C1197.31 67.048 1198.1 67.234 1199.05 67.234C1199.71 67.234 1200.31 67.12 1200.85 66.892C1201.39 66.652 1201.85 66.328 1202.23 65.92C1202.63 65.5 1202.93 65.014 1203.13 64.462C1203.35 63.898 1203.46 63.292 1203.46 62.644C1203.46 62.14 1203.38 61.642 1203.22 61.15C1203.07 60.658 1202.82 60.22 1202.49 59.836C1202.13 59.44 1201.69 59.128 1201.17 58.9C1200.66 58.66 1200.13 58.54 1199.59 58.54C1198.98 58.54 1198.44 58.648 1197.97 58.864C1197.5 59.08 1197.09 59.44 1196.74 59.944L1196.71 59.908C1196.72 59.56 1196.77 59.164 1196.85 58.72C1196.94 58.276 1197.07 57.862 1197.25 57.478C1197.43 57.082 1197.67 56.752 1197.97 56.488C1198.28 56.212 1198.66 56.074 1199.12 56.074C1199.56 56.074 1199.94 56.23 1200.24 56.542C1200.54 56.854 1200.73 57.22 1200.81 57.64Z" fill="black"/>
<path d="M1568.7 65.542L1568.99 67H1570.79V60.052H1565.39V62.158H1568.23C1568.15 63.058 1567.85 63.748 1567.33 64.228C1566.83 64.696 1566.11 64.93 1565.17 64.93C1564.54 64.93 1564 64.81 1563.55 64.57C1563.11 64.318 1562.75 63.988 1562.47 63.58C1562.2 63.172 1561.99 62.716 1561.86 62.212C1561.74 61.696 1561.68 61.168 1561.68 60.628C1561.68 60.064 1561.74 59.518 1561.86 58.99C1561.99 58.462 1562.2 57.994 1562.47 57.586C1562.75 57.166 1563.11 56.836 1563.55 56.596C1564 56.344 1564.54 56.218 1565.17 56.218C1565.86 56.218 1566.44 56.398 1566.92 56.758C1567.4 57.118 1567.72 57.658 1567.89 58.378H1570.59C1570.52 57.646 1570.32 56.998 1570 56.434C1569.67 55.87 1569.26 55.396 1568.75 55.012C1568.26 54.628 1567.7 54.34 1567.08 54.148C1566.47 53.944 1565.83 53.842 1565.17 53.842C1564.19 53.842 1563.3 54.016 1562.51 54.364C1561.73 54.712 1561.07 55.192 1560.53 55.804C1559.99 56.416 1559.57 57.136 1559.29 57.964C1559 58.78 1558.85 59.668 1558.85 60.628C1558.85 61.564 1559 62.44 1559.29 63.256C1559.57 64.06 1559.99 64.762 1560.53 65.362C1561.07 65.962 1561.73 66.436 1562.51 66.784C1563.3 67.12 1564.19 67.288 1565.17 67.288C1565.8 67.288 1566.41 67.162 1567.03 66.91C1567.64 66.646 1568.2 66.19 1568.7 65.542ZM1574.92 57.82C1574.92 57.532 1574.97 57.28 1575.07 57.064C1575.18 56.848 1575.32 56.668 1575.5 56.524C1575.68 56.38 1575.88 56.272 1576.11 56.2C1576.35 56.116 1576.6 56.074 1576.85 56.074C1577.25 56.074 1577.56 56.134 1577.8 56.254C1578.06 56.374 1578.25 56.524 1578.38 56.704C1578.52 56.884 1578.62 57.076 1578.67 57.28C1578.72 57.472 1578.74 57.652 1578.74 57.82C1578.74 58.36 1578.56 58.774 1578.2 59.062C1577.84 59.338 1577.39 59.476 1576.85 59.476C1576.33 59.476 1575.88 59.338 1575.5 59.062C1575.12 58.774 1574.92 58.36 1574.92 57.82ZM1572.6 57.586C1572.6 58.21 1572.76 58.756 1573.07 59.224C1573.38 59.692 1573.84 60.01 1574.46 60.178V60.214C1573.7 60.394 1573.11 60.754 1572.69 61.294C1572.28 61.834 1572.08 62.506 1572.08 63.31C1572.08 63.994 1572.21 64.582 1572.48 65.074C1572.75 65.566 1573.11 65.974 1573.56 66.298C1574.01 66.622 1574.52 66.856 1575.09 67C1575.66 67.156 1576.26 67.234 1576.87 67.234C1577.46 67.234 1578.03 67.156 1578.6 67C1579.16 66.832 1579.66 66.586 1580.11 66.262C1580.55 65.938 1580.91 65.53 1581.17 65.038C1581.45 64.546 1581.58 63.964 1581.58 63.292C1581.58 62.5 1581.38 61.834 1580.97 61.294C1580.56 60.742 1579.98 60.382 1579.23 60.214V60.178C1579.84 59.974 1580.29 59.638 1580.59 59.17C1580.91 58.702 1581.06 58.156 1581.06 57.532C1581.06 57.22 1580.99 56.872 1580.85 56.488C1580.7 56.092 1580.46 55.726 1580.13 55.39C1579.8 55.042 1579.37 54.748 1578.83 54.508C1578.29 54.268 1577.63 54.148 1576.85 54.148C1576.33 54.148 1575.82 54.22 1575.32 54.364C1574.82 54.508 1574.36 54.724 1573.95 55.012C1573.56 55.3 1573.23 55.66 1572.98 56.092C1572.73 56.524 1572.6 57.022 1572.6 57.586ZM1574.64 63.184C1574.64 62.536 1574.85 62.044 1575.28 61.708C1575.72 61.36 1576.24 61.186 1576.87 61.186C1577.17 61.186 1577.44 61.234 1577.7 61.33C1577.96 61.426 1578.19 61.564 1578.38 61.744C1578.58 61.924 1578.74 62.14 1578.85 62.392C1578.97 62.632 1579.03 62.902 1579.03 63.202C1579.03 63.514 1578.97 63.802 1578.87 64.066C1578.76 64.33 1578.6 64.558 1578.4 64.75C1578.21 64.93 1577.98 65.074 1577.71 65.182C1577.46 65.278 1577.18 65.326 1576.87 65.326C1576.57 65.326 1576.28 65.278 1576 65.182C1575.73 65.074 1575.49 64.93 1575.28 64.75C1575.09 64.558 1574.94 64.33 1574.82 64.066C1574.7 63.802 1574.64 63.508 1574.64 63.184Z" fill="black"/>
<path d="M620.7 65.542L620.988 67H622.788V60.052H617.388V62.158H620.232C620.148 63.058 619.848 63.748 619.332 64.228C618.828 64.696 618.108 64.93 617.172 64.93C616.536 64.93 615.996 64.81 615.552 64.57C615.108 64.318 614.748 63.988 614.472 63.58C614.196 63.172 613.992 62.716 613.86 62.212C613.74 61.696 613.68 61.168 613.68 60.628C613.68 60.064 613.74 59.518 613.86 58.99C613.992 58.462 614.196 57.994 614.472 57.586C614.748 57.166 615.108 56.836 615.552 56.596C615.996 56.344 616.536 56.218 617.172 56.218C617.856 56.218 618.438 56.398 618.918 56.758C619.398 57.118 619.722 57.658 619.89 58.378H622.59C622.518 57.646 622.32 56.998 621.996 56.434C621.672 55.87 621.258 55.396 620.754 55.012C620.262 54.628 619.704 54.34 619.08 54.148C618.468 53.944 617.832 53.842 617.172 53.842C616.188 53.842 615.3 54.016 614.508 54.364C613.728 54.712 613.068 55.192 612.528 55.804C611.988 56.416 611.574 57.136 611.286 57.964C610.998 58.78 610.854 59.668 610.854 60.628C610.854 61.564 610.998 62.44 611.286 63.256C611.574 64.06 611.988 64.762 612.528 65.362C613.068 65.962 613.728 66.436 614.508 66.784C615.3 67.12 616.188 67.288 617.172 67.288C617.796 67.288 618.414 67.162 619.026 66.91C619.638 66.646 620.196 66.19 620.7 65.542ZM627.932 59.494V61.294C628.244 61.294 628.568 61.306 628.904 61.33C629.252 61.342 629.57 61.408 629.858 61.528C630.146 61.636 630.38 61.816 630.56 62.068C630.752 62.32 630.848 62.686 630.848 63.166C630.848 63.778 630.65 64.264 630.254 64.624C629.858 64.972 629.372 65.146 628.796 65.146C628.424 65.146 628.1 65.08 627.824 64.948C627.56 64.816 627.338 64.642 627.158 64.426C626.978 64.198 626.84 63.934 626.744 63.634C626.648 63.322 626.594 62.998 626.582 62.662H624.152C624.14 63.394 624.242 64.042 624.458 64.606C624.686 65.17 625.004 65.65 625.412 66.046C625.82 66.43 626.312 66.724 626.888 66.928C627.476 67.132 628.124 67.234 628.832 67.234C629.444 67.234 630.032 67.144 630.596 66.964C631.16 66.784 631.658 66.52 632.09 66.172C632.522 65.824 632.864 65.392 633.116 64.876C633.38 64.36 633.512 63.772 633.512 63.112C633.512 62.392 633.314 61.774 632.918 61.258C632.522 60.742 631.976 60.406 631.28 60.25V60.214C631.868 60.046 632.306 59.728 632.594 59.26C632.894 58.792 633.044 58.252 633.044 57.64C633.044 57.076 632.918 56.578 632.666 56.146C632.414 55.714 632.084 55.348 631.676 55.048C631.28 54.748 630.83 54.526 630.326 54.382C629.822 54.226 629.318 54.148 628.814 54.148C628.166 54.148 627.578 54.256 627.05 54.472C626.522 54.676 626.066 54.97 625.682 55.354C625.31 55.738 625.016 56.2 624.8 56.74C624.596 57.268 624.482 57.856 624.458 58.504H626.888C626.876 57.856 627.032 57.322 627.356 56.902C627.692 56.47 628.184 56.254 628.832 56.254C629.3 56.254 629.714 56.398 630.074 56.686C630.434 56.974 630.614 57.388 630.614 57.928C630.614 58.288 630.524 58.576 630.344 58.792C630.176 59.008 629.954 59.176 629.678 59.296C629.414 59.404 629.126 59.47 628.814 59.494C628.502 59.518 628.208 59.518 627.932 59.494Z" fill="black"/>
</svg>
