<svg width="127" height="91" viewBox="0 0 127 91" fill="none" xmlns="http://www.w3.org/2000/svg">
<path d="M12.3127 68.818C17.8356 68.818 22.3127 64.3408 22.3127 58.818C22.3127 53.2951 17.8356 48.818 12.3127 48.818C6.7899 48.818 2.31274 53.2951 2.31274 58.818C2.31274 64.3408 6.7899 68.818 12.3127 68.818Z" fill="white" stroke="black"/>
<path d="M116 69C121.523 69 126 64.5228 126 59C126 53.4772 121.523 49 116 49C110.477 49 106 53.4772 106 59C106 64.5228 110.477 69 116 69Z" fill="#999999" stroke="black"/>
<path d="M105.061 60.0607C105.646 59.4749 105.646 58.5251 105.061 57.9393L95.5147 48.3934C94.9289 47.8076 93.9792 47.8076 93.3934 48.3934C92.8076 48.9792 92.8076 49.9289 93.3934 50.5147L101.879 59L93.3934 67.4853C92.8076 68.0711 92.8076 69.0208 93.3934 69.6066C93.9792 70.1924 94.9289 70.1924 95.5147 69.6066L105.061 60.0607ZM24 60.5H104V57.5H24V60.5Z" fill="black"/>
<path d="M10.433 80.646C10.433 80.43 10.433 80.172 10.433 79.872C10.445 79.56 10.469 79.242 10.505 78.918C10.541 78.594 10.601 78.276 10.685 77.964C10.769 77.64 10.883 77.352 11.027 77.1C11.183 76.848 11.375 76.644 11.603 76.488C11.843 76.332 12.137 76.254 12.485 76.254C12.833 76.254 13.127 76.332 13.367 76.488C13.607 76.644 13.805 76.848 13.961 77.1C14.117 77.352 14.231 77.64 14.303 77.964C14.387 78.276 14.447 78.594 14.483 78.918C14.531 79.242 14.555 79.56 14.555 79.872C14.567 80.172 14.573 80.43 14.573 80.646C14.573 81.006 14.561 81.444 14.537 81.96C14.513 82.464 14.435 82.956 14.303 83.436C14.183 83.904 13.979 84.306 13.691 84.642C13.415 84.978 13.013 85.146 12.485 85.146C11.969 85.146 11.573 84.978 11.297 84.642C11.021 84.306 10.817 83.904 10.685 83.436C10.565 82.956 10.493 82.464 10.469 81.96C10.445 81.444 10.433 81.006 10.433 80.646ZM7.87702 80.646C7.87702 81.906 7.99702 82.962 8.23702 83.814C8.48902 84.654 8.82502 85.326 9.24502 85.83C9.66502 86.334 10.151 86.694 10.703 86.91C11.267 87.126 11.861 87.234 12.485 87.234C13.121 87.234 13.715 87.126 14.267 86.91C14.831 86.694 15.323 86.334 15.743 85.83C16.175 85.326 16.511 84.654 16.751 83.814C17.003 82.962 17.129 81.906 17.129 80.646C17.129 79.422 17.003 78.396 16.751 77.568C16.511 76.728 16.175 76.056 15.743 75.552C15.323 75.048 14.831 74.688 14.267 74.472C13.715 74.256 13.121 74.148 12.485 74.148C11.861 74.148 11.267 74.256 10.703 74.472C10.151 74.688 9.66502 75.048 9.24502 75.552C8.82502 76.056 8.48902 76.728 8.23702 77.568C7.99702 78.396 7.87702 79.422 7.87702 80.646Z" fill="black"/>
<path d="M118.555 87V74.4H116.521C116.449 74.88 116.299 75.282 116.071 75.606C115.843 75.93 115.561 76.194 115.225 76.398C114.901 76.59 114.529 76.728 114.109 76.812C113.701 76.884 113.275 76.914 112.831 76.902V78.828H115.999V87H118.555Z" fill="black"/>
<path d="M10.6999 16.542L10.9879 18H12.7879V11.052H7.38792V13.158H10.2319C10.1479 14.058 9.84792 14.748 9.33192 15.228C8.82792 15.696 8.10792 15.93 7.17192 15.93C6.53592 15.93 5.99592 15.81 5.55192 15.57C5.10792 15.318 4.74792 14.988 4.47192 14.58C4.19592 14.172 3.99192 13.716 3.85992 13.212C3.73992 12.696 3.67992 12.168 3.67992 11.628C3.67992 11.064 3.73992 10.518 3.85992 9.99C3.99192 9.462 4.19592 8.994 4.47192 8.586C4.74792 8.166 5.10792 7.836 5.55192 7.596C5.99592 7.344 6.53592 7.218 7.17192 7.218C7.85592 7.218 8.43792 7.398 8.91792 7.758C9.39792 8.118 9.72192 8.658 9.88992 9.378H12.5899C12.5179 8.646 12.3199 7.998 11.9959 7.434C11.6719 6.87 11.2579 6.396 10.7539 6.012C10.2619 5.628 9.70392 5.34 9.07992 5.148C8.46792 4.944 7.83192 4.842 7.17192 4.842C6.18792 4.842 5.29992 5.016 4.50792 5.364C3.72792 5.712 3.06792 6.192 2.52792 6.804C1.98792 7.416 1.57392 8.136 1.28592 8.964C0.997922 9.78 0.853922 10.668 0.853922 11.628C0.853922 12.564 0.997922 13.44 1.28592 14.256C1.57392 15.06 1.98792 15.762 2.52792 16.362C3.06792 16.962 3.72792 17.436 4.50792 17.784C5.29992 18.12 6.18792 18.288 7.17192 18.288C7.79592 18.288 8.41392 18.162 9.02592 17.91C9.63792 17.646 10.1959 17.19 10.6999 16.542ZM16.7621 11.646C16.7621 11.43 16.7621 11.172 16.7621 10.872C16.7741 10.56 16.7981 10.242 16.8341 9.918C16.8701 9.594 16.9301 9.276 17.0141 8.964C17.0981 8.64 17.2121 8.352 17.3561 8.1C17.5121 7.848 17.7041 7.644 17.9321 7.488C18.1721 7.332 18.4661 7.254 18.8141 7.254C19.1621 7.254 19.4561 7.332 19.6961 7.488C19.9361 7.644 20.1341 7.848 20.2901 8.1C20.4461 8.352 20.5601 8.64 20.6321 8.964C20.7161 9.276 20.7761 9.594 20.8121 9.918C20.8601 10.242 20.8841 10.56 20.8841 10.872C20.8961 11.172 20.9021 11.43 20.9021 11.646C20.9021 12.006 20.8901 12.444 20.8661 12.96C20.8421 13.464 20.7641 13.956 20.6321 14.436C20.5121 14.904 20.3081 15.306 20.0201 15.642C19.7441 15.978 19.3421 16.146 18.8141 16.146C18.2981 16.146 17.9021 15.978 17.6261 15.642C17.3501 15.306 17.1461 14.904 17.0141 14.436C16.8941 13.956 16.8221 13.464 16.7981 12.96C16.7741 12.444 16.7621 12.006 16.7621 11.646ZM14.2061 11.646C14.2061 12.906 14.3261 13.962 14.5661 14.814C14.8181 15.654 15.1541 16.326 15.5741 16.83C15.9941 17.334 16.4801 17.694 17.0321 17.91C17.5961 18.126 18.1901 18.234 18.8141 18.234C19.4501 18.234 20.0441 18.126 20.5961 17.91C21.1601 17.694 21.6521 17.334 22.0721 16.83C22.5041 16.326 22.8401 15.654 23.0801 14.814C23.3321 13.962 23.4581 12.906 23.4581 11.646C23.4581 10.422 23.3321 9.396 23.0801 8.568C22.8401 7.728 22.5041 7.056 22.0721 6.552C21.6521 6.048 21.1601 5.688 20.5961 5.472C20.0441 5.256 19.4501 5.148 18.8141 5.148C18.1901 5.148 17.5961 5.256 17.0321 5.472C16.4801 5.688 15.9941 6.048 15.5741 6.552C15.1541 7.056 14.8181 7.728 14.5661 8.568C14.3261 9.396 14.2061 10.422 14.2061 11.646Z" fill="black"/>
</svg>
