<svg width="122" height="210" viewBox="0 0 122 210" fill="none" xmlns="http://www.w3.org/2000/svg">
<path d="M61 60C66.5228 60 71 55.5228 71 50C71 44.4772 66.5228 40 61 40C55.4772 40 51 44.4772 51 50C51 55.5228 55.4772 60 61 60Z" fill="white" stroke="black"/>
<path d="M61 139C66.5228 139 71 134.523 71 129C71 123.477 66.5228 119 61 119C55.4772 119 51 123.477 51 129C51 134.523 55.4772 139 61 139Z" fill="#999999" stroke="black"/>
<path d="M11 209C16.5228 209 21 204.523 21 199C21 193.477 16.5228 189 11 189C5.47715 189 1 193.477 1 199C1 204.523 5.47715 209 11 209Z" fill="white" stroke="black"/>
<path d="M111 209C116.523 209 121 204.523 121 199C121 193.477 116.523 189 111 189C105.477 189 101 193.477 101 199C101 204.523 105.477 209 111 209Z" fill="white" stroke="black"/>
<path d="M59.9393 118.061C60.5251 118.646 61.4749 118.646 62.0607 118.061L71.6066 108.515C72.1924 107.929 72.1924 106.979 71.6066 106.393C71.0208 105.808 70.0711 105.808 69.4853 106.393L61 114.879L52.5147 106.393C51.9289 105.808 50.9792 105.808 50.3934 106.393C49.8076 106.979 49.8076 107.929 50.3934 108.515L59.9393 118.061ZM59.5 60V117H62.5V60H59.5Z" fill="black"/>
<path d="M52.4552 138.636C52.2543 137.833 51.4399 137.344 50.6362 137.545L37.5393 140.819C36.7356 141.02 36.2469 141.834 36.4479 142.638C36.6488 143.442 37.4632 143.93 38.2669 143.729L49.9086 140.819L52.819 152.461C53.0199 153.264 53.8343 153.753 54.638 153.552C55.4417 153.351 55.9304 152.537 55.7294 151.733L52.4552 138.636ZM22.2862 189.772L52.2862 139.772L49.7138 138.228L19.7138 188.228L22.2862 189.772Z" fill="black"/>
<path d="M71.3638 137.545C70.5601 137.344 69.7457 137.832 69.5448 138.636L66.2706 151.733C66.0696 152.537 66.5583 153.351 67.362 153.552C68.1657 153.753 68.9801 153.264 69.181 152.461L72.0914 140.819L83.7331 143.729C84.5368 143.93 85.3512 143.442 85.5521 142.638C85.7531 141.834 85.2644 141.02 84.4607 140.819L71.3638 137.545ZM102.286 188.228L72.2862 138.228L69.7138 139.772L99.7138 189.772L102.286 188.228Z" fill="black"/>
<path d="M79.164 49.242H81.612C81.612 48.906 81.642 48.57 81.702 48.234C81.774 47.886 81.888 47.574 82.044 47.298C82.2 47.01 82.404 46.782 82.656 46.614C82.92 46.434 83.238 46.344 83.61 46.344C84.162 46.344 84.612 46.518 84.96 46.866C85.32 47.202 85.5 47.676 85.5 48.288C85.5 48.672 85.41 49.014 85.23 49.314C85.062 49.614 84.846 49.884 84.582 50.124C84.33 50.364 84.048 50.586 83.736 50.79C83.424 50.982 83.13 51.174 82.854 51.366C82.314 51.738 81.798 52.104 81.306 52.464C80.826 52.824 80.406 53.22 80.046 53.652C79.686 54.072 79.398 54.552 79.182 55.092C78.978 55.632 78.876 56.268 78.876 57H88.128V54.804H82.17C82.482 54.372 82.842 53.994 83.25 53.67C83.658 53.346 84.078 53.046 84.51 52.77C84.942 52.482 85.368 52.194 85.788 51.906C86.22 51.618 86.604 51.3 86.94 50.952C87.276 50.592 87.546 50.184 87.75 49.728C87.954 49.272 88.056 48.726 88.056 48.09C88.056 47.478 87.936 46.926 87.696 46.434C87.468 45.942 87.156 45.528 86.76 45.192C86.364 44.856 85.902 44.598 85.374 44.418C84.858 44.238 84.312 44.148 83.736 44.148C82.98 44.148 82.308 44.28 81.72 44.544C81.144 44.796 80.664 45.156 80.28 45.624C79.896 46.08 79.608 46.62 79.416 47.244C79.224 47.856 79.14 48.522 79.164 49.242ZM93.36 50.934C93.036 50.934 92.748 50.868 92.496 50.736C92.256 50.592 92.058 50.412 91.902 50.196C91.746 49.968 91.626 49.716 91.542 49.44C91.47 49.152 91.434 48.858 91.434 48.558C91.434 48.27 91.476 47.988 91.56 47.712C91.644 47.436 91.77 47.19 91.938 46.974C92.106 46.758 92.31 46.584 92.55 46.452C92.79 46.32 93.06 46.254 93.36 46.254C93.684 46.254 93.972 46.32 94.224 46.452C94.476 46.584 94.686 46.764 94.854 46.992C95.034 47.208 95.166 47.46 95.25 47.748C95.346 48.024 95.394 48.306 95.394 48.594C95.394 48.906 95.352 49.206 95.268 49.494C95.184 49.77 95.058 50.016 94.89 50.232C94.722 50.448 94.512 50.622 94.26 50.754C94.008 50.874 93.708 50.934 93.36 50.934ZM91.524 53.76H89.094C89.166 54.312 89.316 54.804 89.544 55.236C89.772 55.668 90.066 56.034 90.426 56.334C90.786 56.634 91.2 56.856 91.668 57C92.136 57.156 92.64 57.234 93.18 57.234C94.08 57.234 94.842 57.042 95.466 56.658C96.09 56.262 96.6 55.752 96.996 55.128C97.392 54.492 97.68 53.784 97.86 53.004C98.04 52.224 98.13 51.444 98.13 50.664C98.13 49.872 98.058 49.086 97.914 48.306C97.77 47.526 97.512 46.83 97.14 46.218C96.768 45.594 96.27 45.096 95.646 44.724C95.034 44.34 94.248 44.148 93.288 44.148C92.628 44.148 92.028 44.268 91.488 44.508C90.948 44.748 90.48 45.078 90.084 45.498C89.7 45.906 89.4 46.392 89.184 46.956C88.98 47.508 88.878 48.108 88.878 48.756C88.878 49.26 88.956 49.758 89.112 50.25C89.268 50.742 89.514 51.18 89.85 51.564C90.21 51.96 90.648 52.278 91.164 52.518C91.68 52.746 92.208 52.86 92.748 52.86C93.36 52.86 93.9 52.752 94.368 52.536C94.836 52.32 95.244 51.96 95.592 51.456L95.628 51.492C95.604 51.84 95.55 52.236 95.466 52.68C95.394 53.124 95.268 53.544 95.088 53.94C94.908 54.324 94.668 54.654 94.368 54.93C94.068 55.194 93.684 55.326 93.216 55.326C92.772 55.326 92.4 55.17 92.1 54.858C91.8 54.546 91.608 54.18 91.524 53.76Z" fill="black"/>
<path d="M82.602 128.494V130.294C82.914 130.294 83.238 130.306 83.574 130.33C83.922 130.342 84.24 130.408 84.528 130.528C84.816 130.636 85.05 130.816 85.23 131.068C85.422 131.32 85.518 131.686 85.518 132.166C85.518 132.778 85.32 133.264 84.924 133.624C84.528 133.972 84.042 134.146 83.466 134.146C83.094 134.146 82.77 134.08 82.494 133.948C82.23 133.816 82.008 133.642 81.828 133.426C81.648 133.198 81.51 132.934 81.414 132.634C81.318 132.322 81.264 131.998 81.252 131.662H78.822C78.81 132.394 78.912 133.042 79.128 133.606C79.356 134.17 79.674 134.65 80.082 135.046C80.49 135.43 80.982 135.724 81.558 135.928C82.146 136.132 82.794 136.234 83.502 136.234C84.114 136.234 84.702 136.144 85.266 135.964C85.83 135.784 86.328 135.52 86.76 135.172C87.192 134.824 87.534 134.392 87.786 133.876C88.05 133.36 88.182 132.772 88.182 132.112C88.182 131.392 87.984 130.774 87.588 130.258C87.192 129.742 86.646 129.406 85.95 129.25V129.214C86.538 129.046 86.976 128.728 87.264 128.26C87.564 127.792 87.714 127.252 87.714 126.64C87.714 126.076 87.588 125.578 87.336 125.146C87.084 124.714 86.754 124.348 86.346 124.048C85.95 123.748 85.5 123.526 84.996 123.382C84.492 123.226 83.988 123.148 83.484 123.148C82.836 123.148 82.248 123.256 81.72 123.472C81.192 123.676 80.736 123.97 80.352 124.354C79.98 124.738 79.686 125.2 79.47 125.74C79.266 126.268 79.152 126.856 79.128 127.504H81.558C81.546 126.856 81.702 126.322 82.026 125.902C82.362 125.47 82.854 125.254 83.502 125.254C83.97 125.254 84.384 125.398 84.744 125.686C85.104 125.974 85.284 126.388 85.284 126.928C85.284 127.288 85.194 127.576 85.014 127.792C84.846 128.008 84.624 128.176 84.348 128.296C84.084 128.404 83.796 128.47 83.484 128.494C83.172 128.518 82.878 128.518 82.602 128.494ZM91.434 129.646C91.434 129.43 91.434 129.172 91.434 128.872C91.446 128.56 91.47 128.242 91.506 127.918C91.542 127.594 91.602 127.276 91.686 126.964C91.77 126.64 91.884 126.352 92.028 126.1C92.184 125.848 92.376 125.644 92.604 125.488C92.844 125.332 93.138 125.254 93.486 125.254C93.834 125.254 94.128 125.332 94.368 125.488C94.608 125.644 94.806 125.848 94.962 126.1C95.118 126.352 95.232 126.64 95.304 126.964C95.388 127.276 95.448 127.594 95.484 127.918C95.532 128.242 95.556 128.56 95.556 128.872C95.568 129.172 95.574 129.43 95.574 129.646C95.574 130.006 95.562 130.444 95.538 130.96C95.514 131.464 95.436 131.956 95.304 132.436C95.184 132.904 94.98 133.306 94.692 133.642C94.416 133.978 94.014 134.146 93.486 134.146C92.97 134.146 92.574 133.978 92.298 133.642C92.022 133.306 91.818 132.904 91.686 132.436C91.566 131.956 91.494 131.464 91.47 130.96C91.446 130.444 91.434 130.006 91.434 129.646ZM88.878 129.646C88.878 130.906 88.998 131.962 89.238 132.814C89.49 133.654 89.826 134.326 90.246 134.83C90.666 135.334 91.152 135.694 91.704 135.91C92.268 136.126 92.862 136.234 93.486 136.234C94.122 136.234 94.716 136.126 95.268 135.91C95.832 135.694 96.324 135.334 96.744 134.83C97.176 134.326 97.512 133.654 97.752 132.814C98.004 131.962 98.13 130.906 98.13 129.646C98.13 128.422 98.004 127.396 97.752 126.568C97.512 125.728 97.176 125.056 96.744 124.552C96.324 124.048 95.832 123.688 95.268 123.472C94.716 123.256 94.122 123.148 93.486 123.148C92.862 123.148 92.268 123.256 91.704 123.472C91.152 123.688 90.666 124.048 90.246 124.552C89.826 125.056 89.49 125.728 89.238 126.568C88.998 127.396 88.878 128.422 88.878 129.646Z" fill="black"/>
<path d="M54.6989 16.542L54.9869 18H56.7869V11.052H51.3869V13.158H54.2309C54.1469 14.058 53.8469 14.748 53.3309 15.228C52.8269 15.696 52.1069 15.93 51.1709 15.93C50.5349 15.93 49.9949 15.81 49.5509 15.57C49.1069 15.318 48.7469 14.988 48.4709 14.58C48.1949 14.172 47.9909 13.716 47.8589 13.212C47.7389 12.696 47.6789 12.168 47.6789 11.628C47.6789 11.064 47.7389 10.518 47.8589 9.99C47.9909 9.462 48.1949 8.994 48.4709 8.586C48.7469 8.166 49.1069 7.836 49.5509 7.596C49.9949 7.344 50.5349 7.218 51.1709 7.218C51.8549 7.218 52.4369 7.398 52.9169 7.758C53.3969 8.118 53.7209 8.658 53.8889 9.378H56.5889C56.5169 8.646 56.3189 7.998 55.9949 7.434C55.6709 6.87 55.2569 6.396 54.7529 6.012C54.2609 5.628 53.7029 5.34 53.0789 5.148C52.4669 4.944 51.8309 4.842 51.1709 4.842C50.1869 4.842 49.2989 5.016 48.5069 5.364C47.7269 5.712 47.0669 6.192 46.5269 6.804C45.9869 7.416 45.5729 8.136 45.2849 8.964C44.9969 9.78 44.8529 10.668 44.8529 11.628C44.8529 12.564 44.9969 13.44 45.2849 14.256C45.5729 15.06 45.9869 15.762 46.5269 16.362C47.0669 16.962 47.7269 17.436 48.5069 17.784C49.2989 18.12 50.1869 18.288 51.1709 18.288C51.7949 18.288 52.4129 18.162 53.0249 17.91C53.6369 17.646 54.1949 17.19 54.6989 16.542ZM64.8831 18V5.4H62.8491C62.7771 5.88 62.6271 6.282 62.3991 6.606C62.1711 6.93 61.8891 7.194 61.5531 7.398C61.2291 7.59 60.8571 7.728 60.4371 7.812C60.0291 7.884 59.6031 7.914 59.1591 7.902V9.828H62.3271V18H64.8831ZM70.7631 11.646C70.7631 11.43 70.7631 11.172 70.7631 10.872C70.7751 10.56 70.7991 10.242 70.8351 9.918C70.8711 9.594 70.9311 9.276 71.0151 8.964C71.0991 8.64 71.2131 8.352 71.3571 8.1C71.5131 7.848 71.7051 7.644 71.9331 7.488C72.1731 7.332 72.4671 7.254 72.8151 7.254C73.1631 7.254 73.4571 7.332 73.6971 7.488C73.9371 7.644 74.1351 7.848 74.2911 8.1C74.4471 8.352 74.5611 8.64 74.6331 8.964C74.7171 9.276 74.7771 9.594 74.8131 9.918C74.8611 10.242 74.8851 10.56 74.8851 10.872C74.8971 11.172 74.9031 11.43 74.9031 11.646C74.9031 12.006 74.8911 12.444 74.8671 12.96C74.8431 13.464 74.7651 13.956 74.6331 14.436C74.5131 14.904 74.3091 15.306 74.0211 15.642C73.7451 15.978 73.3431 16.146 72.8151 16.146C72.2991 16.146 71.9031 15.978 71.6271 15.642C71.3511 15.306 71.1471 14.904 71.0151 14.436C70.8951 13.956 70.8231 13.464 70.7991 12.96C70.7751 12.444 70.7631 12.006 70.7631 11.646ZM68.2071 11.646C68.2071 12.906 68.3271 13.962 68.5671 14.814C68.8191 15.654 69.1551 16.326 69.5751 16.83C69.9951 17.334 70.4811 17.694 71.0331 17.91C71.5971 18.126 72.1911 18.234 72.8151 18.234C73.4511 18.234 74.0451 18.126 74.5971 17.91C75.1611 17.694 75.6531 17.334 76.0731 16.83C76.5051 16.326 76.8411 15.654 77.0811 14.814C77.3331 13.962 77.4591 12.906 77.4591 11.646C77.4591 10.422 77.3331 9.396 77.0811 8.568C76.8411 7.728 76.5051 7.056 76.0731 6.552C75.6531 6.048 75.1611 5.688 74.5971 5.472C74.0451 5.256 73.4511 5.148 72.8151 5.148C72.1911 5.148 71.5971 5.256 71.0331 5.472C70.4811 5.688 69.9951 6.048 69.5751 6.552C69.1551 7.056 68.8191 7.728 68.5671 8.568C68.3271 9.396 68.2071 10.422 68.2071 11.646Z" fill="black"/>
</svg>
