<?xml version="1.0" encoding="UTF-8" standalone="no"?>
<!DOCTYPE svg PUBLIC "-//W3C//DTD SVG 1.1//EN" "http://www.w3.org/Graphics/SVG/1.1/DTD/svg11.dtd">
<svg width="100%" height="100%" viewBox="0 0 1156 725" version="1.1" xmlns="http://www.w3.org/2000/svg" xmlns:xlink="http://www.w3.org/1999/xlink" xml:space="preserve" xmlns:serif="http://www.serif.com/" style="fill-rule:evenodd;clip-rule:evenodd;">
    <path d="M285.529,263.712L246.114,241.207" style="fill:none;fill-rule:nonzero;stroke:rgb(226,113,181);stroke-width:1px;"/>
    <path d="M243.409,292.813L236.454,247.854" style="fill:none;fill-rule:nonzero;stroke:rgb(226,113,181);stroke-width:1px;"/>
    <path d="M251.333,178.057L238.271,221.583" style="fill:none;fill-rule:nonzero;stroke:rgb(226,113,181);stroke-width:1px;"/>
    <path d="M175.476,230.524L220.921,233.601" style="fill:none;fill-rule:nonzero;stroke:rgb(226,113,181);stroke-width:1px;"/>
    <path d="M194.447,277.918L225.249,244.447" style="fill:none;fill-rule:nonzero;stroke:rgb(226,113,181);stroke-width:1px;"/>
    <path d="M289.166,212.658L246.929,229.51" style="fill:none;fill-rule:nonzero;stroke:rgb(226,113,181);stroke-width:1px;"/>
    <path d="M200.718,186.107L226.681,223.431" style="fill:none;fill-rule:nonzero;stroke:rgb(226,113,181);stroke-width:1px;"/>
    <path d="M243.509,239.719L246.858,239.904L245.37,242.51" style="fill:rgb(226,113,181);fill-rule:nonzero;"/>
    <path d="M235.995,244.89L237.936,247.625L234.972,248.084" style="fill:rgb(226,113,181);fill-rule:nonzero;"/>
    <path d="M237.408,224.456L236.834,221.151L239.707,222.014" style="fill:rgb(226,113,181);fill-rule:nonzero;"/>
    <path d="M223.914,233.804L220.82,235.098L221.022,232.104" style="fill:rgb(226,113,181);fill-rule:nonzero;"/>
    <path d="M227.28,242.239L226.352,245.463L224.145,243.431" style="fill:rgb(226,113,181);fill-rule:nonzero;"/>
    <path d="M244.143,230.622L246.373,228.117L247.485,230.903" style="fill:rgb(226,113,181);fill-rule:nonzero;"/>
    <path d="M228.394,225.893L225.45,224.287L227.912,222.574" style="fill:rgb(226,113,181);fill-rule:nonzero;"/>
    <path d="M234.39,244.513C239.913,244.513 244.39,240.036 244.39,234.513C244.39,228.99 239.913,224.513 234.39,224.513C228.867,224.513 224.39,228.99 224.39,234.513C224.39,240.036 228.867,244.513 234.39,244.513Z" style="fill:rgb(255,92,129);fill-rule:nonzero;stroke:black;stroke-width:1px;"/>
    <path d="M298.919,218.767C304.441,218.767 308.919,214.289 308.919,208.767C308.919,203.244 304.441,198.767 298.919,198.767C293.396,198.767 288.919,203.244 288.919,208.767C288.919,214.289 293.396,218.767 298.919,218.767Z" style="fill:rgb(198,134,233);fill-rule:nonzero;stroke:black;stroke-width:1px;"/>
    <path d="M194.722,187.488C200.245,187.488 204.722,183.011 204.722,177.488C204.722,171.965 200.245,167.488 194.722,167.488C189.199,167.488 184.722,171.965 184.722,177.488C184.722,183.011 189.199,187.488 194.722,187.488Z" style="fill:rgb(198,134,233);fill-rule:nonzero;stroke:black;stroke-width:1px;"/>
    <path d="M294.647,278.918C300.17,278.918 304.647,274.441 304.647,268.918C304.647,263.396 300.17,258.918 294.647,258.918C289.124,258.918 284.647,263.396 284.647,268.918C284.647,274.441 289.124,278.918 294.647,278.918Z" style="fill:rgb(198,134,233);fill-rule:nonzero;stroke:black;stroke-width:1px;"/>
    <path d="M245.014,313.189C250.537,313.189 255.014,308.712 255.014,303.189C255.014,297.667 250.537,293.189 245.014,293.189C239.491,293.189 235.014,297.667 235.014,303.189C235.014,308.712 239.491,313.189 245.014,313.189Z" style="fill:rgb(198,134,233);fill-rule:nonzero;stroke:black;stroke-width:1px;"/>
    <path d="M254.351,178C259.874,178 264.351,173.523 264.351,168C264.351,162.477 259.874,158 254.351,158C248.828,158 244.351,162.477 244.351,168C244.351,173.523 248.828,178 254.351,178Z" style="fill:rgb(198,134,233);fill-rule:nonzero;stroke:black;stroke-width:1px;"/>
    <path d="M165,239.815C170.523,239.815 175,235.338 175,229.815C175,224.292 170.523,219.815 165,219.815C159.477,219.815 155,224.292 155,229.815C155,235.338 159.477,239.815 165,239.815Z" style="fill:rgb(198,134,233);fill-rule:nonzero;stroke:black;stroke-width:1px;"/>
    <path d="M187.337,295.644C192.859,295.644 197.337,291.167 197.337,285.644C197.337,280.121 192.859,275.644 187.337,275.644C181.814,275.644 177.337,280.121 177.337,285.644C177.337,291.167 181.814,295.644 187.337,295.644Z" style="fill:rgb(198,134,233);fill-rule:nonzero;stroke:black;stroke-width:1px;"/>
    <path d="M884.613,246.983L865.018,277.649" style="fill:none;fill-rule:nonzero;stroke:rgb(234,134,21);stroke-width:1px;"/>
    <path d="M847.358,287.515L802.259,280.96" style="fill:none;fill-rule:nonzero;stroke:rgb(117,168,138);stroke-width:1px;"/>
    <path d="M832.221,233.083L852.145,276.743" style="fill:none;fill-rule:nonzero;stroke:rgb(117,168,138);stroke-width:1px;"/>
    <path d="M762.545,206.301L743.393,235.561" style="fill:none;fill-rule:nonzero;stroke:rgb(47,200,137);stroke-width:1px;"/>
    <path d="M779.928,273.563L747.535,253.87" style="fill:none;fill-rule:nonzero;stroke:rgb(47,200,137);stroke-width:1px;"/>
    <path d="M794.933,270.425L820.104,234.578" style="fill:none;fill-rule:nonzero;stroke:rgb(0,202,255);stroke-width:1px;"/>
    <path d="M850.409,281.517L777.732,207.17" style="fill:none;fill-rule:nonzero;stroke:rgb(117,168,138);stroke-width:1px;"/>
    <path d="M896.459,229.655L922.343,194.211" style="fill:none;fill-rule:nonzero;stroke:rgb(164,166,20);stroke-width:1px;"/>
    <path d="M894.814,247.599L912.033,283.441" style="fill:none;fill-rule:nonzero;stroke:rgb(216,134,127);stroke-width:1px;"/>
    <path d="M900.733,238.979L942.115,242.317" style="fill:none;fill-rule:nonzero;stroke:rgb(216,134,127);stroke-width:1px;"/>
    <path d="M808.07,154.693L777.482,187.625" style="fill:none;fill-rule:nonzero;stroke:rgb(0,202,255);stroke-width:1px;"/>
    <path d="M867.089,155.851L828.524,149.271" style="fill:none;fill-rule:nonzero;stroke:rgb(47,200,137);stroke-width:1px;"/>
    <path d="M826.15,213.171L817.417,160.319" style="fill:none;fill-rule:nonzero;stroke:rgb(0,202,255);stroke-width:1px;"/>
    <path d="M886.883,162.206L918.163,177.408" style="fill:none;fill-rule:nonzero;stroke:rgb(95,198,19);stroke-width:1px;"/>
    <path d="M863.403,280.177L863.754,276.841L866.282,278.457" style="fill:rgb(234,134,21);fill-rule:nonzero;"/>
    <path d="M799.29,280.528L802.475,279.475L802.043,282.444" style="fill:rgb(117,168,138);fill-rule:nonzero;"/>
    <path d="M853.39,279.473L850.78,277.366L853.509,276.121" style="fill:rgb(117,168,138);fill-rule:nonzero;"/>
    <path d="M741.75,238.071L742.138,234.74L744.648,236.383" style="fill:rgb(47,200,137);fill-rule:nonzero;"/>
    <path d="M744.972,252.311L748.315,252.588L746.756,255.152" style="fill:rgb(47,200,137);fill-rule:nonzero;"/>
    <path d="M821.828,232.123L821.332,235.44L818.876,233.716" style="fill:rgb(0,202,255);fill-rule:nonzero;"/>
    <path d="M775.635,205.024L778.804,206.121L776.659,208.218" style="fill:rgb(117,168,138);fill-rule:nonzero;"/>
    <path d="M924.113,191.788L923.555,195.096L921.132,193.327" style="fill:rgb(164,166,20);fill-rule:nonzero;"/>
    <path d="M913.332,286.145L910.681,284.09L913.385,282.791" style="fill:rgb(216,134,127);fill-rule:nonzero;"/>
    <path d="M945.105,242.558L941.995,243.812L942.236,240.822" style="fill:rgb(216,134,127);fill-rule:nonzero;"/>
    <path d="M775.441,189.823L776.383,186.604L778.581,188.645" style="fill:rgb(0,202,255);fill-rule:nonzero;"/>
    <path d="M825.566,148.766L828.776,147.792L828.271,150.749" style="fill:rgb(47,200,137);fill-rule:nonzero;"/>
    <path d="M816.928,157.359L818.897,160.075L815.937,160.564" style="fill:rgb(0,202,255);fill-rule:nonzero;"/>
    <path d="M920.861,178.719L917.507,178.757L918.819,176.059" style="fill:rgb(95,198,19);fill-rule:nonzero;"/>
    <path d="M890.266,248.135C895.789,248.135 900.266,243.658 900.266,238.135C900.266,232.612 895.789,228.135 890.266,228.135C884.744,228.135 880.266,232.612 880.266,238.135C880.266,243.658 884.744,248.135 890.266,248.135Z" style="fill:rgb(234,134,21);fill-rule:nonzero;stroke:black;stroke-width:1px;"/>
    <path d="M736,256.857C741.523,256.857 746,252.38 746,246.857C746,241.334 741.523,236.857 736,236.857C730.477,236.857 726,241.334 726,246.857C726,252.38 730.477,256.857 736,256.857Z" style="fill:rgb(95,198,19);fill-rule:nonzero;stroke:black;stroke-width:1px;"/>
    <path d="M955.572,253.402C961.094,253.402 965.572,248.925 965.572,243.402C965.572,237.879 961.094,233.402 955.572,233.402C950.049,233.402 945.572,237.879 945.572,243.402C945.572,248.925 950.049,253.402 955.572,253.402Z" style="fill:rgb(198,134,233);fill-rule:nonzero;stroke:black;stroke-width:1px;"/>
    <path d="M930.305,193.309C935.828,193.309 940.305,188.832 940.305,183.309C940.305,177.786 935.828,173.309 930.305,173.309C924.782,173.309 920.305,177.786 920.305,183.309C920.305,188.832 924.782,193.309 930.305,193.309Z" style="fill:rgb(95,198,19);fill-rule:nonzero;stroke:black;stroke-width:1px;"/>
    <path d="M857.749,299.025C863.272,299.025 867.749,294.548 867.749,289.025C867.749,283.502 863.272,279.025 857.749,279.025C852.226,279.025 847.749,283.502 847.749,289.025C847.749,294.548 852.226,299.025 857.749,299.025Z" style="fill:rgb(234,134,21);fill-rule:nonzero;stroke:black;stroke-width:1px;"/>
    <path d="M768.295,207.516C773.818,207.516 778.295,203.039 778.295,197.516C778.295,191.993 773.818,187.516 768.295,187.516C762.772,187.516 758.295,191.993 758.295,197.516C758.295,203.039 762.772,207.516 768.295,207.516Z" style="fill:rgb(0,202,255);fill-rule:nonzero;stroke:black;stroke-width:1px;"/>
    <path d="M827.862,233.53C833.385,233.53 837.862,229.053 837.862,223.53C837.862,218.007 833.385,213.53 827.862,213.53C822.339,213.53 817.862,218.007 817.862,223.53C817.862,229.053 822.339,233.53 827.862,233.53Z" style="fill:rgb(0,202,255);fill-rule:nonzero;stroke:black;stroke-width:1px;"/>
    <path d="M815.216,157C820.739,157 825.216,152.523 825.216,147C825.216,141.477 820.739,137 815.216,137C809.693,137 805.216,141.477 805.216,147C805.216,152.523 809.693,157 815.216,157Z" style="fill:rgb(0,202,255);fill-rule:nonzero;stroke:black;stroke-width:1px;"/>
    <path d="M917.879,305.609C923.402,305.609 927.879,301.132 927.879,295.609C927.879,290.086 923.402,285.609 917.879,285.609C912.357,285.609 907.879,290.086 907.879,295.609C907.879,301.132 912.357,305.609 917.879,305.609Z" style="fill:rgb(198,134,233);fill-rule:nonzero;stroke:black;stroke-width:1px;"/>
    <path d="M788.9,289.018C794.422,289.018 798.9,284.541 798.9,279.018C798.9,273.495 794.422,269.018 788.9,269.018C783.377,269.018 778.9,273.495 778.9,279.018C778.9,284.541 783.377,289.018 788.9,289.018Z" style="fill:rgb(0,202,255);fill-rule:nonzero;stroke:black;stroke-width:1px;"/>
    <path d="M877.439,167.617C882.962,167.617 887.439,163.14 887.439,157.617C887.439,152.094 882.962,147.617 877.439,147.617C871.916,147.617 867.439,152.094 867.439,157.617C867.439,163.14 871.916,167.617 877.439,167.617Z" style="fill:rgb(95,198,19);fill-rule:nonzero;stroke:black;stroke-width:1px;"/>
    <path d="M263.886,487.421L242.005,516.797" style="fill:none;fill-rule:nonzero;stroke:rgb(216,134,127);stroke-width:1px;"/>
    <path d="M274.516,557.516L244.81,535.631" style="fill:none;fill-rule:nonzero;stroke:rgb(216,134,127);stroke-width:1px;"/>
    <path d="M193.476,498.044L223.043,519.657" style="fill:none;fill-rule:nonzero;stroke:rgb(216,134,127);stroke-width:1px;"/>
    <path d="M204.284,568.243L225.981,538.527" style="fill:none;fill-rule:nonzero;stroke:rgb(216,134,127);stroke-width:1px;"/>
    <path d="M240.214,519.203L240.803,515.901L243.209,517.693" style="fill:rgb(216,134,127);fill-rule:nonzero;"/>
    <path d="M242.395,533.852L245.7,534.424L243.921,536.839" style="fill:rgb(216,134,127);fill-rule:nonzero;"/>
    <path d="M225.465,521.427L222.158,520.868L223.928,518.446" style="fill:rgb(216,134,127);fill-rule:nonzero;"/>
    <path d="M227.75,536.104L227.192,539.411L224.769,537.642" style="fill:rgb(216,134,127);fill-rule:nonzero;"/>
    <path d="M233.941,537.624C239.464,537.624 243.941,533.147 243.941,527.624C243.941,522.101 239.464,517.624 233.941,517.624C228.419,517.624 223.941,522.101 223.941,527.624C223.941,533.147 228.419,537.624 233.941,537.624Z" style="fill:rgb(234,134,21);fill-rule:nonzero;stroke:black;stroke-width:1px;"/>
    <path d="M270.158,489C275.681,489 280.158,484.523 280.158,479C280.158,473.477 275.681,469 270.158,469C264.635,469 260.158,473.477 260.158,479C260.158,484.523 264.635,489 270.158,489Z" style="fill:rgb(198,134,233);fill-rule:nonzero;stroke:black;stroke-width:1px;"/>
    <path d="M282.97,573.744C288.493,573.744 292.97,569.267 292.97,563.744C292.97,558.221 288.493,553.744 282.97,553.744C277.447,553.744 272.97,558.221 272.97,563.744C272.97,569.267 277.447,573.744 282.97,573.744Z" style="fill:rgb(198,134,233);fill-rule:nonzero;stroke:black;stroke-width:1px;"/>
    <path d="M185,501.847C190.523,501.847 195,497.37 195,491.847C195,486.324 190.523,481.847 185,481.847C179.477,481.847 175,486.324 175,491.847C175,497.37 179.477,501.847 185,501.847Z" style="fill:rgb(198,134,233);fill-rule:nonzero;stroke:black;stroke-width:1px;"/>
    <path d="M198.092,586.723C203.615,586.723 208.092,582.246 208.092,576.723C208.092,571.2 203.615,566.723 198.092,566.723C192.569,566.723 188.092,571.2 188.092,576.723C188.092,582.246 192.569,586.723 198.092,586.723Z" style="fill:rgb(198,134,233);fill-rule:nonzero;stroke:black;stroke-width:1px;"/>
    <path d="M815.667,530.269L827.415,496.462" style="fill:none;fill-rule:nonzero;stroke:rgb(23,173,184);stroke-width:1px;"/>
    <path d="M840.175,477.316L880.621,446.262" style="fill:none;fill-rule:nonzero;stroke:rgb(70,171,66);stroke-width:1px;"/>
    <path d="M891.208,448.54L890.773,486.005" style="fill:none;fill-rule:nonzero;stroke:rgb(164,166,20);stroke-width:1px;"/>
    <path d="M888.171,509.715L879.055,547.771" style="fill:none;fill-rule:nonzero;stroke:rgb(234,134,21);stroke-width:1px;"/>
    <path d="M865.925,557.653L825.059,544.362" style="fill:none;fill-rule:nonzero;stroke:rgb(117,168,138);stroke-width:1px;"/>
    <path d="M871.484,570.422L854.578,606.789" style="fill:none;fill-rule:nonzero;stroke:rgb(216,134,127);stroke-width:1px;"/>
    <path d="M886.115,563.372L928.666,573.68" style="fill:none;fill-rule:nonzero;stroke:rgb(216,134,127);stroke-width:1px;"/>
    <path d="M821.62,481.328L787.148,473.3" style="fill:none;fill-rule:nonzero;stroke:rgb(122,139,173);stroke-width:1px;"/>
    <path d="M831.497,473.216L830.306,437.492" style="fill:none;fill-rule:nonzero;stroke:rgb(122,139,173);stroke-width:1px;"/>
    <path d="M881.297,504.341L824.203,533.969" style="fill:none;fill-rule:nonzero;stroke:rgb(117,168,138);stroke-width:1px;"/>
    <path d="M880.477,496.779L844.884,487.214" style="fill:none;fill-rule:nonzero;stroke:rgb(140,139,67);stroke-width:1px;"/>
    <path d="M828.4,493.628L828.832,496.954L825.998,495.97" style="fill:rgb(23,173,184);fill-rule:nonzero;"/>
    <path d="M883.001,444.435L881.535,447.452L879.708,445.072" style="fill:rgb(70,171,66);fill-rule:nonzero;"/>
    <path d="M890.738,489.005L889.273,485.988L892.273,486.023" style="fill:rgb(164,166,20);fill-rule:nonzero;"/>
    <path d="M878.356,550.689L877.596,547.422L880.514,548.121" style="fill:rgb(234,134,21);fill-rule:nonzero;"/>
    <path d="M822.206,543.435L825.523,542.936L824.595,545.789" style="fill:rgb(117,168,138);fill-rule:nonzero;"/>
    <path d="M853.314,609.509L853.218,606.156L855.939,607.421" style="fill:rgb(216,134,127);fill-rule:nonzero;"/>
    <path d="M931.581,574.387L928.312,575.138L929.019,572.222" style="fill:rgb(216,134,127);fill-rule:nonzero;"/>
    <path d="M784.226,472.619L787.488,471.839L786.808,474.76" style="fill:rgb(122,139,173);fill-rule:nonzero;"/>
    <path d="M830.206,434.494L831.805,437.443L828.807,437.542" style="fill:rgb(122,139,173);fill-rule:nonzero;"/>
    <path d="M821.54,535.351L823.512,532.638L824.894,535.3" style="fill:rgb(117,168,138);fill-rule:nonzero;"/>
    <path d="M841.987,486.435L845.273,485.765L844.494,488.662" style="fill:rgb(140,139,67);fill-rule:nonzero;"/>
    <path d="M891.329,448.041C896.852,448.041 901.329,443.563 901.329,438.041C901.329,432.518 896.852,428.041 891.329,428.041C885.806,428.041 881.329,432.518 881.329,438.041C881.329,443.563 885.806,448.041 891.329,448.041Z" style="fill:rgb(95,198,19);fill-rule:nonzero;stroke:black;stroke-width:1px;"/>
    <path d="M890.617,509.504C896.14,509.504 900.617,505.027 900.617,499.504C900.617,493.981 896.14,489.504 890.617,489.504C885.094,489.504 880.617,493.981 880.617,499.504C880.617,505.027 885.094,509.504 890.617,509.504Z" style="fill:rgb(234,134,21);fill-rule:nonzero;stroke:black;stroke-width:1px;"/>
    <path d="M831.846,493.71C837.369,493.71 841.846,489.233 841.846,483.71C841.846,478.187 837.369,473.71 831.846,473.71C826.323,473.71 821.846,478.187 821.846,483.71C821.846,489.233 826.323,493.71 831.846,493.71Z" style="fill:rgb(46,144,114);fill-rule:nonzero;stroke:black;stroke-width:1px;"/>
    <path d="M774,480.237C779.523,480.237 784,475.76 784,470.237C784,464.715 779.523,460.237 774,460.237C768.477,460.237 764,464.715 764,470.237C764,475.76 768.477,480.237 774,480.237Z" style="fill:rgb(198,134,233);fill-rule:nonzero;stroke:black;stroke-width:1px;"/>
    <path d="M875.91,570.9C881.433,570.9 885.91,566.423 885.91,560.9C885.91,555.377 881.433,550.9 875.91,550.9C870.387,550.9 865.91,555.377 865.91,560.9C865.91,566.423 870.387,570.9 875.91,570.9Z" style="fill:rgb(234,134,21);fill-rule:nonzero;stroke:black;stroke-width:1px;"/>
    <path d="M812.221,550.187C817.743,550.187 822.221,545.71 822.221,540.187C822.221,534.664 817.743,530.187 812.221,530.187C806.698,530.187 802.221,534.664 802.221,540.187C802.221,545.71 806.698,550.187 812.221,550.187Z" style="fill:rgb(0,202,255);fill-rule:nonzero;stroke:black;stroke-width:1px;"/>
    <path d="M848.888,629.031C854.41,629.031 858.888,624.554 858.888,619.031C858.888,613.508 854.41,609.031 848.888,609.031C843.365,609.031 838.888,613.508 838.888,619.031C838.888,624.554 843.365,629.031 848.888,629.031Z" style="fill:rgb(198,134,233);fill-rule:nonzero;stroke:black;stroke-width:1px;"/>
    <path d="M941.786,586.859C947.309,586.859 951.786,582.382 951.786,576.859C951.786,571.336 947.309,566.859 941.786,566.859C936.263,566.859 931.786,571.336 931.786,576.859C931.786,582.382 936.263,586.859 941.786,586.859Z" style="fill:rgb(198,134,233);fill-rule:nonzero;stroke:black;stroke-width:1px;"/>
    <path d="M829.856,434C835.379,434 839.856,429.523 839.856,424C839.856,418.477 835.379,414 829.856,414C824.333,414 819.856,418.477 819.856,424C819.856,429.523 824.333,434 829.856,434Z" style="fill:rgb(198,134,233);fill-rule:nonzero;stroke:black;stroke-width:1px;"/>
    <rect x="0.5" y="42.5" width="542" height="682" style="fill:none;stroke:black;stroke-width:1px;"/>
    <rect x="613.5" y="42.5" width="542" height="682" style="fill:none;stroke:black;stroke-width:1px;"/>
    <path d="M14.59,13.504L14.59,19.75C14.379,20.063 14.043,20.414 13.582,20.805C13.121,21.188 12.484,21.523 11.672,21.813C10.867,22.094 9.828,22.234 8.555,22.234C7.516,22.234 6.559,22.055 5.684,21.695C4.816,21.328 4.063,20.797 3.422,20.102C2.789,19.398 2.297,18.547 1.945,17.547C1.602,16.539 1.43,15.398 1.43,14.125L1.43,12.801C1.43,11.527 1.578,10.391 1.875,9.391C2.18,8.391 2.625,7.543 3.211,6.848C3.797,6.145 4.516,5.613 5.367,5.254C6.219,4.887 7.195,4.703 8.297,4.703C9.602,4.703 10.691,4.93 11.566,5.383C12.449,5.828 13.137,6.445 13.629,7.234C14.129,8.023 14.449,8.922 14.59,9.93L12.328,9.93C12.227,9.313 12.023,8.75 11.719,8.242C11.422,7.734 10.996,7.328 10.441,7.023C9.887,6.711 9.172,6.555 8.297,6.555C7.508,6.555 6.824,6.699 6.246,6.988C5.668,7.277 5.191,7.691 4.816,8.23C4.441,8.77 4.16,9.422 3.973,10.188C3.793,10.953 3.703,11.816 3.703,12.777L3.703,14.125C3.703,15.109 3.816,15.988 4.043,16.762C4.277,17.535 4.609,18.195 5.039,18.742C5.469,19.281 5.98,19.691 6.574,19.973C7.176,20.254 7.84,20.395 8.566,20.395C9.371,20.395 10.023,20.328 10.523,20.195C11.023,20.055 11.414,19.891 11.695,19.703C11.977,19.508 12.191,19.324 12.34,19.152L12.34,15.332L8.391,15.332L8.391,13.504L14.59,13.504ZM20.18,11.313L20.18,22L18.012,22L18.012,9.32L20.121,9.32L20.18,11.313ZM24.141,9.25L24.129,11.266C23.949,11.227 23.777,11.203 23.613,11.195C23.457,11.18 23.277,11.172 23.074,11.172C22.574,11.172 22.133,11.25 21.75,11.406C21.367,11.563 21.043,11.781 20.777,12.063C20.512,12.344 20.301,12.68 20.145,13.07C19.996,13.453 19.898,13.875 19.852,14.336L19.242,14.688C19.242,13.922 19.316,13.203 19.465,12.531C19.621,11.859 19.859,11.266 20.18,10.75C20.5,10.227 20.906,9.82 21.398,9.531C21.898,9.234 22.492,9.086 23.18,9.086C23.336,9.086 23.516,9.105 23.719,9.145C23.922,9.176 24.063,9.211 24.141,9.25ZM33.902,19.07L33.902,9.32L36.082,9.32L36.082,22L34.008,22L33.902,19.07ZM34.313,16.398L35.215,16.375C35.215,17.219 35.125,18 34.945,18.719C34.773,19.43 34.492,20.047 34.102,20.57C33.711,21.094 33.199,21.504 32.566,21.801C31.934,22.09 31.164,22.234 30.258,22.234C29.641,22.234 29.074,22.145 28.559,21.965C28.051,21.785 27.613,21.508 27.246,21.133C26.879,20.758 26.594,20.27 26.391,19.668C26.195,19.066 26.098,18.344 26.098,17.5L26.098,9.32L28.266,9.32L28.266,17.523C28.266,18.094 28.328,18.566 28.453,18.941C28.586,19.309 28.762,19.602 28.981,19.82C29.207,20.031 29.457,20.18 29.731,20.266C30.012,20.352 30.301,20.395 30.598,20.395C31.52,20.395 32.25,20.219 32.789,19.867C33.328,19.508 33.715,19.027 33.949,18.426C34.191,17.816 34.313,17.141 34.313,16.398ZM41.555,11.758L41.555,26.875L39.375,26.875L39.375,9.32L41.367,9.32L41.555,11.758ZM50.098,15.555L50.098,15.801C50.098,16.723 49.988,17.578 49.77,18.367C49.551,19.148 49.231,19.828 48.809,20.406C48.395,20.984 47.883,21.434 47.273,21.754C46.664,22.074 45.965,22.234 45.176,22.234C44.371,22.234 43.66,22.102 43.043,21.836C42.426,21.57 41.902,21.184 41.473,20.676C41.043,20.168 40.699,19.559 40.441,18.848C40.191,18.137 40.02,17.336 39.926,16.445L39.926,15.133C40.02,14.195 40.195,13.355 40.453,12.613C40.711,11.871 41.051,11.238 41.473,10.715C41.902,10.184 42.422,9.781 43.031,9.508C43.641,9.227 44.344,9.086 45.141,9.086C45.938,9.086 46.645,9.242 47.262,9.555C47.879,9.859 48.398,10.297 48.82,10.867C49.242,11.438 49.559,12.121 49.77,12.918C49.988,13.707 50.098,14.586 50.098,15.555ZM47.918,15.801L47.918,15.555C47.918,14.922 47.852,14.328 47.719,13.773C47.586,13.211 47.379,12.719 47.098,12.297C46.824,11.867 46.473,11.531 46.043,11.289C45.613,11.039 45.102,10.914 44.508,10.914C43.961,10.914 43.484,11.008 43.078,11.195C42.68,11.383 42.34,11.637 42.059,11.957C41.777,12.27 41.547,12.629 41.367,13.035C41.195,13.434 41.066,13.848 40.981,14.277L40.981,17.313C41.137,17.859 41.356,18.375 41.637,18.859C41.918,19.336 42.293,19.723 42.762,20.02C43.231,20.309 43.82,20.453 44.531,20.453C45.117,20.453 45.621,20.332 46.043,20.09C46.473,19.84 46.824,19.5 47.098,19.07C47.379,18.641 47.586,18.148 47.719,17.594C47.852,17.031 47.918,16.434 47.918,15.801ZM52.289,15.801L52.289,15.531C52.289,14.617 52.422,13.77 52.688,12.988C52.953,12.199 53.336,11.516 53.836,10.938C54.336,10.352 54.941,9.898 55.652,9.578C56.363,9.25 57.16,9.086 58.043,9.086C58.934,9.086 59.734,9.25 60.445,9.578C61.164,9.898 61.773,10.352 62.273,10.938C62.781,11.516 63.168,12.199 63.434,12.988C63.699,13.77 63.832,14.617 63.832,15.531L63.832,15.801C63.832,16.715 63.699,17.563 63.434,18.344C63.168,19.125 62.781,19.809 62.273,20.395C61.773,20.973 61.168,21.426 60.457,21.754C59.754,22.074 58.957,22.234 58.066,22.234C57.176,22.234 56.375,22.074 55.664,21.754C54.953,21.426 54.344,20.973 53.836,20.395C53.336,19.809 52.953,19.125 52.688,18.344C52.422,17.563 52.289,16.715 52.289,15.801ZM54.457,15.531L54.457,15.801C54.457,16.434 54.531,17.031 54.68,17.594C54.828,18.148 55.051,18.641 55.348,19.07C55.652,19.5 56.031,19.84 56.484,20.09C56.938,20.332 57.465,20.453 58.066,20.453C58.66,20.453 59.18,20.332 59.625,20.09C60.078,19.84 60.453,19.5 60.75,19.07C61.047,18.641 61.27,18.148 61.418,17.594C61.574,17.031 61.652,16.434 61.652,15.801L61.652,15.531C61.652,14.906 61.574,14.316 61.418,13.762C61.27,13.199 61.043,12.703 60.738,12.273C60.441,11.836 60.066,11.492 59.613,11.242C59.168,10.992 58.645,10.867 58.043,10.867C57.449,10.867 56.926,10.992 56.473,11.242C56.027,11.492 55.652,11.836 55.348,12.273C55.051,12.703 54.828,13.199 54.68,13.762C54.531,14.316 54.457,14.906 54.457,15.531ZM79.394,4.844L79.394,22L77.227,22L77.227,7.551L72.856,9.145L72.856,7.188L79.055,4.844L79.394,4.844Z" style="fill-rule:nonzero;"/>
    <path d="M351.155,217.047L354.45,217.047C355.198,217.047 355.829,217.161 356.344,217.389C356.863,217.617 357.257,217.954 357.526,218.4C357.8,218.842 357.937,219.387 357.937,220.034C357.937,220.49 357.843,220.907 357.656,221.285C357.474,221.659 357.21,221.978 356.863,222.242C356.521,222.502 356.111,222.696 355.633,222.823L355.264,222.967L352.167,222.967L352.153,221.894L354.491,221.894C354.965,221.894 355.359,221.812 355.674,221.647C355.988,221.479 356.225,221.253 356.385,220.971C356.544,220.688 356.624,220.376 356.624,220.034C356.624,219.651 356.549,219.316 356.398,219.029C356.248,218.742 356.011,218.521 355.688,218.366C355.368,218.207 354.956,218.127 354.45,218.127L352.475,218.127L352.475,227L351.155,227L351.155,217.047ZM356.973,227L354.553,222.488L355.927,222.481L358.381,226.918L358.381,227L356.973,227ZM362.66,227.137C362.145,227.137 361.678,227.05 361.259,226.877C360.844,226.699 360.486,226.451 360.186,226.132C359.889,225.813 359.661,225.435 359.502,224.997C359.342,224.56 359.263,224.081 359.263,223.562L359.263,223.274C359.263,222.673 359.352,222.137 359.529,221.668C359.707,221.194 359.949,220.793 360.254,220.465C360.559,220.137 360.906,219.888 361.293,219.72C361.68,219.551 362.081,219.467 362.496,219.467C363.025,219.467 363.48,219.558 363.863,219.74C364.251,219.923 364.567,220.178 364.813,220.506C365.06,220.829 365.242,221.212 365.36,221.654C365.479,222.092 365.538,222.57 365.538,223.09L365.538,223.657L360.015,223.657L360.015,222.625L364.273,222.625L364.273,222.529C364.255,222.201 364.187,221.882 364.068,221.572C363.954,221.262 363.772,221.007 363.521,220.807C363.271,220.606 362.929,220.506 362.496,220.506C362.209,220.506 361.945,220.567 361.703,220.69C361.462,220.809 361.254,220.987 361.081,221.224C360.908,221.461 360.773,221.75 360.678,222.092C360.582,222.434 360.534,222.828 360.534,223.274L360.534,223.562C360.534,223.912 360.582,224.243 360.678,224.553C360.778,224.858 360.922,225.127 361.108,225.359C361.3,225.592 361.53,225.774 361.799,225.906C362.072,226.038 362.382,226.104 362.729,226.104C363.175,226.104 363.553,226.013 363.863,225.831C364.173,225.649 364.444,225.405 364.677,225.1L365.442,225.708C365.283,225.95 365.08,226.18 364.834,226.398C364.588,226.617 364.285,226.795 363.925,226.932C363.569,227.068 363.148,227.137 362.66,227.137ZM371.677,225.564L371.677,216.5L372.948,216.5L372.948,227L371.786,227L371.677,225.564ZM366.7,223.384L366.7,223.24C366.7,222.675 366.769,222.162 366.905,221.702C367.047,221.237 367.245,220.839 367.5,220.506C367.76,220.173 368.067,219.918 368.423,219.74C368.783,219.558 369.184,219.467 369.626,219.467C370.091,219.467 370.496,219.549 370.843,219.713C371.194,219.872 371.49,220.107 371.731,220.417C371.978,220.722 372.171,221.091 372.312,221.524C372.454,221.957 372.552,222.447 372.606,222.994L372.606,223.623C372.556,224.165 372.458,224.653 372.312,225.086C372.171,225.519 371.978,225.888 371.731,226.193C371.49,226.499 371.194,226.733 370.843,226.897C370.492,227.057 370.082,227.137 369.612,227.137C369.179,227.137 368.783,227.043 368.423,226.856C368.067,226.67 367.76,226.408 367.5,226.07C367.245,225.733 367.047,225.337 366.905,224.881C366.769,224.421 366.7,223.922 366.7,223.384ZM367.972,223.24L367.972,223.384C367.972,223.753 368.008,224.099 368.081,224.423C368.159,224.746 368.277,225.031 368.437,225.277C368.596,225.523 368.799,225.717 369.045,225.858C369.291,225.995 369.585,226.063 369.927,226.063C370.346,226.063 370.69,225.975 370.959,225.797C371.232,225.619 371.451,225.384 371.615,225.093C371.779,224.801 371.907,224.484 371.998,224.143L371.998,222.495C371.943,222.244 371.864,222.003 371.759,221.771C371.659,221.534 371.526,221.324 371.362,221.142C371.203,220.955 371.005,220.807 370.768,220.697C370.535,220.588 370.259,220.533 369.94,220.533C369.594,220.533 369.296,220.606 369.045,220.752C368.799,220.893 368.596,221.089 368.437,221.34C368.277,221.586 368.159,221.873 368.081,222.201C368.008,222.525 367.972,222.871 367.972,223.24ZM382.266,217.929L378.971,227L377.624,227L381.418,217.047L382.286,217.047L382.266,217.929ZM385.027,227L381.726,217.929L381.705,217.047L382.573,217.047L386.381,227L385.027,227ZM384.856,223.315L384.856,224.396L379.265,224.396L379.265,223.315L384.856,223.315Z" style="fill-rule:nonzero;"/>
    <path d="M1008.16,218.047L1011.45,218.047C1012.2,218.047 1012.83,218.161 1013.34,218.389C1013.86,218.617 1014.26,218.954 1014.53,219.4C1014.8,219.842 1014.94,220.387 1014.94,221.034C1014.94,221.49 1014.84,221.907 1014.66,222.285C1014.47,222.659 1014.21,222.978 1013.86,223.242C1013.52,223.502 1013.11,223.696 1012.63,223.823L1012.26,223.967L1009.17,223.967L1009.15,222.894L1011.49,222.894C1011.97,222.894 1012.36,222.812 1012.67,222.647C1012.99,222.479 1013.23,222.253 1013.38,221.971C1013.54,221.688 1013.62,221.376 1013.62,221.034C1013.62,220.651 1013.55,220.316 1013.4,220.029C1013.25,219.742 1013.01,219.521 1012.69,219.366C1012.37,219.207 1011.96,219.127 1011.45,219.127L1009.47,219.127L1009.47,228L1008.16,228L1008.16,218.047ZM1013.97,228L1011.55,223.488L1012.93,223.481L1015.38,227.918L1015.38,228L1013.97,228ZM1019.66,228.137C1019.15,228.137 1018.68,228.05 1018.26,227.877C1017.84,227.699 1017.49,227.451 1017.19,227.132C1016.89,226.813 1016.66,226.435 1016.5,225.997C1016.34,225.56 1016.26,225.081 1016.26,224.562L1016.26,224.274C1016.26,223.673 1016.35,223.137 1016.53,222.668C1016.71,222.194 1016.95,221.793 1017.25,221.465C1017.56,221.137 1017.91,220.888 1018.29,220.72C1018.68,220.551 1019.08,220.467 1019.5,220.467C1020.02,220.467 1020.48,220.558 1020.86,220.74C1021.25,220.923 1021.57,221.178 1021.81,221.506C1022.06,221.829 1022.24,222.212 1022.36,222.654C1022.48,223.092 1022.54,223.57 1022.54,224.09L1022.54,224.657L1017.01,224.657L1017.01,223.625L1021.27,223.625L1021.27,223.529C1021.26,223.201 1021.19,222.882 1021.07,222.572C1020.95,222.262 1020.77,222.007 1020.52,221.807C1020.27,221.606 1019.93,221.506 1019.5,221.506C1019.21,221.506 1018.94,221.567 1018.7,221.69C1018.46,221.809 1018.25,221.987 1018.08,222.224C1017.91,222.461 1017.77,222.75 1017.68,223.092C1017.58,223.434 1017.53,223.828 1017.53,224.274L1017.53,224.562C1017.53,224.912 1017.58,225.243 1017.68,225.553C1017.78,225.858 1017.92,226.127 1018.11,226.359C1018.3,226.592 1018.53,226.774 1018.8,226.906C1019.07,227.038 1019.38,227.104 1019.73,227.104C1020.18,227.104 1020.55,227.013 1020.86,226.831C1021.17,226.649 1021.44,226.405 1021.68,226.1L1022.44,226.708C1022.28,226.95 1022.08,227.18 1021.83,227.398C1021.59,227.617 1021.28,227.795 1020.92,227.932C1020.57,228.068 1020.15,228.137 1019.66,228.137ZM1028.68,226.564L1028.68,217.5L1029.95,217.5L1029.95,228L1028.79,228L1028.68,226.564ZM1023.7,224.384L1023.7,224.24C1023.7,223.675 1023.77,223.162 1023.91,222.702C1024.05,222.237 1024.24,221.839 1024.5,221.506C1024.76,221.173 1025.07,220.918 1025.42,220.74C1025.78,220.558 1026.18,220.467 1026.63,220.467C1027.09,220.467 1027.5,220.549 1027.84,220.713C1028.19,220.872 1028.49,221.107 1028.73,221.417C1028.98,221.722 1029.17,222.091 1029.31,222.524C1029.45,222.957 1029.55,223.447 1029.61,223.994L1029.61,224.623C1029.56,225.165 1029.46,225.653 1029.31,226.086C1029.17,226.519 1028.98,226.888 1028.73,227.193C1028.49,227.499 1028.19,227.733 1027.84,227.897C1027.49,228.057 1027.08,228.137 1026.61,228.137C1026.18,228.137 1025.78,228.043 1025.42,227.856C1025.07,227.67 1024.76,227.408 1024.5,227.07C1024.24,226.733 1024.05,226.337 1023.91,225.881C1023.77,225.421 1023.7,224.922 1023.7,224.384ZM1024.97,224.24L1024.97,224.384C1024.97,224.753 1025.01,225.099 1025.08,225.423C1025.16,225.746 1025.28,226.031 1025.44,226.277C1025.6,226.523 1025.8,226.717 1026.04,226.858C1026.29,226.995 1026.58,227.063 1026.93,227.063C1027.35,227.063 1027.69,226.975 1027.96,226.797C1028.23,226.619 1028.45,226.384 1028.62,226.093C1028.78,225.801 1028.91,225.484 1029,225.143L1029,223.495C1028.94,223.244 1028.86,223.003 1028.76,222.771C1028.66,222.534 1028.53,222.324 1028.36,222.142C1028.2,221.955 1028,221.807 1027.77,221.697C1027.54,221.588 1027.26,221.533 1026.94,221.533C1026.59,221.533 1026.3,221.606 1026.04,221.752C1025.8,221.893 1025.6,222.089 1025.44,222.34C1025.28,222.586 1025.16,222.873 1025.08,223.201C1025.01,223.525 1024.97,223.871 1024.97,224.24ZM1039.13,223.345L1036.61,223.345L1036.59,222.285L1038.88,222.285C1039.26,222.285 1039.59,222.221 1039.87,222.094C1040.16,221.966 1040.38,221.784 1040.53,221.547C1040.69,221.305 1040.77,221.018 1040.77,220.686C1040.77,220.321 1040.7,220.025 1040.56,219.797C1040.42,219.564 1040.21,219.396 1039.92,219.291C1039.64,219.182 1039.28,219.127 1038.84,219.127L1036.9,219.127L1036.9,228L1035.58,228L1035.58,218.047L1038.84,218.047C1039.35,218.047 1039.81,218.099 1040.21,218.204C1040.61,218.304 1040.95,218.464 1041.23,218.683C1041.51,218.897 1041.72,219.17 1041.87,219.503C1042.02,219.836 1042.09,220.234 1042.09,220.699C1042.09,221.109 1041.98,221.481 1041.77,221.813C1041.56,222.142 1041.27,222.41 1040.9,222.62C1040.53,222.83 1040.1,222.964 1039.6,223.023L1039.13,223.345ZM1039.07,228L1036.09,228L1036.83,226.927L1039.07,226.927C1039.49,226.927 1039.84,226.854 1040.13,226.708C1040.43,226.562 1040.66,226.357 1040.81,226.093C1040.97,225.824 1041.04,225.507 1041.04,225.143C1041.04,224.773 1040.98,224.454 1040.84,224.186C1040.71,223.917 1040.51,223.709 1040.22,223.563C1039.94,223.418 1039.58,223.345 1039.13,223.345L1037.25,223.345L1037.26,222.285L1039.83,222.285L1040.11,222.668C1040.59,222.709 1041,222.846 1041.33,223.078C1041.66,223.306 1041.92,223.598 1042.09,223.953C1042.27,224.309 1042.36,224.701 1042.36,225.129C1042.36,225.749 1042.22,226.273 1041.95,226.701C1041.68,227.125 1041.3,227.449 1040.8,227.672C1040.31,227.891 1039.73,228 1039.07,228Z" style="fill-rule:nonzero;"/>
    <path d="M1008.16,517.047L1011.45,517.047C1012.2,517.047 1012.83,517.161 1013.34,517.389C1013.86,517.617 1014.26,517.954 1014.53,518.4C1014.8,518.842 1014.94,519.387 1014.94,520.034C1014.94,520.49 1014.84,520.907 1014.66,521.285C1014.47,521.659 1014.21,521.978 1013.86,522.242C1013.52,522.502 1013.11,522.696 1012.63,522.823L1012.26,522.967L1009.17,522.967L1009.15,521.894L1011.49,521.894C1011.97,521.894 1012.36,521.812 1012.67,521.647C1012.99,521.479 1013.23,521.253 1013.38,520.971C1013.54,520.688 1013.62,520.376 1013.62,520.034C1013.62,519.651 1013.55,519.316 1013.4,519.029C1013.25,518.742 1013.01,518.521 1012.69,518.366C1012.37,518.207 1011.96,518.127 1011.45,518.127L1009.47,518.127L1009.47,527L1008.16,527L1008.16,517.047ZM1013.97,527L1011.55,522.488L1012.93,522.481L1015.38,526.918L1015.38,527L1013.97,527ZM1019.66,527.137C1019.15,527.137 1018.68,527.05 1018.26,526.877C1017.84,526.699 1017.49,526.451 1017.19,526.132C1016.89,525.813 1016.66,525.435 1016.5,524.997C1016.34,524.56 1016.26,524.081 1016.26,523.562L1016.26,523.274C1016.26,522.673 1016.35,522.137 1016.53,521.668C1016.71,521.194 1016.95,520.793 1017.25,520.465C1017.56,520.137 1017.91,519.888 1018.29,519.72C1018.68,519.551 1019.08,519.467 1019.5,519.467C1020.02,519.467 1020.48,519.558 1020.86,519.74C1021.25,519.923 1021.57,520.178 1021.81,520.506C1022.06,520.829 1022.24,521.212 1022.36,521.654C1022.48,522.092 1022.54,522.57 1022.54,523.09L1022.54,523.657L1017.01,523.657L1017.01,522.625L1021.27,522.625L1021.27,522.529C1021.26,522.201 1021.19,521.882 1021.07,521.572C1020.95,521.262 1020.77,521.007 1020.52,520.807C1020.27,520.606 1019.93,520.506 1019.5,520.506C1019.21,520.506 1018.94,520.567 1018.7,520.69C1018.46,520.809 1018.25,520.987 1018.08,521.224C1017.91,521.461 1017.77,521.75 1017.68,522.092C1017.58,522.434 1017.53,522.828 1017.53,523.274L1017.53,523.562C1017.53,523.912 1017.58,524.243 1017.68,524.553C1017.78,524.858 1017.92,525.127 1018.11,525.359C1018.3,525.592 1018.53,525.774 1018.8,525.906C1019.07,526.038 1019.38,526.104 1019.73,526.104C1020.18,526.104 1020.55,526.013 1020.86,525.831C1021.17,525.649 1021.44,525.405 1021.68,525.1L1022.44,525.708C1022.28,525.95 1022.08,526.18 1021.83,526.398C1021.59,526.617 1021.28,526.795 1020.92,526.932C1020.57,527.068 1020.15,527.137 1019.66,527.137ZM1028.68,525.564L1028.68,516.5L1029.95,516.5L1029.95,527L1028.79,527L1028.68,525.564ZM1023.7,523.384L1023.7,523.24C1023.7,522.675 1023.77,522.162 1023.91,521.702C1024.05,521.237 1024.24,520.839 1024.5,520.506C1024.76,520.173 1025.07,519.918 1025.42,519.74C1025.78,519.558 1026.18,519.467 1026.63,519.467C1027.09,519.467 1027.5,519.549 1027.84,519.713C1028.19,519.872 1028.49,520.107 1028.73,520.417C1028.98,520.722 1029.17,521.091 1029.31,521.524C1029.45,521.957 1029.55,522.447 1029.61,522.994L1029.61,523.623C1029.56,524.165 1029.46,524.653 1029.31,525.086C1029.17,525.519 1028.98,525.888 1028.73,526.193C1028.49,526.499 1028.19,526.733 1027.84,526.897C1027.49,527.057 1027.08,527.137 1026.61,527.137C1026.18,527.137 1025.78,527.043 1025.42,526.856C1025.07,526.67 1024.76,526.408 1024.5,526.07C1024.24,525.733 1024.05,525.337 1023.91,524.881C1023.77,524.421 1023.7,523.922 1023.7,523.384ZM1024.97,523.24L1024.97,523.384C1024.97,523.753 1025.01,524.099 1025.08,524.423C1025.16,524.746 1025.28,525.031 1025.44,525.277C1025.6,525.523 1025.8,525.717 1026.04,525.858C1026.29,525.995 1026.58,526.063 1026.93,526.063C1027.35,526.063 1027.69,525.975 1027.96,525.797C1028.23,525.619 1028.45,525.384 1028.62,525.093C1028.78,524.801 1028.91,524.484 1029,524.143L1029,522.495C1028.94,522.244 1028.86,522.003 1028.76,521.771C1028.66,521.534 1028.53,521.324 1028.36,521.142C1028.2,520.955 1028,520.807 1027.77,520.697C1027.54,520.588 1027.26,520.533 1026.94,520.533C1026.59,520.533 1026.3,520.606 1026.04,520.752C1025.8,520.893 1025.6,521.089 1025.44,521.34C1025.28,521.586 1025.16,521.873 1025.08,522.201C1025.01,522.525 1024.97,522.871 1024.97,523.24ZM1041.59,523.835L1042.9,523.835C1042.83,524.464 1042.65,525.027 1042.36,525.523C1042.07,526.02 1041.66,526.414 1041.12,526.706C1040.59,526.993 1039.93,527.137 1039.13,527.137C1038.55,527.137 1038.01,527.027 1037.54,526.809C1037.06,526.59 1036.65,526.28 1036.31,525.879C1035.97,525.473 1035.71,524.988 1035.52,524.423C1035.34,523.853 1035.25,523.22 1035.25,522.522L1035.25,521.531C1035.25,520.834 1035.34,520.203 1035.52,519.638C1035.71,519.068 1035.97,518.58 1036.32,518.175C1036.67,517.769 1037.09,517.457 1037.58,517.238C1038.08,517.02 1038.63,516.91 1039.25,516.91C1040,516.91 1040.63,517.051 1041.15,517.334C1041.67,517.617 1042.08,518.008 1042.36,518.51C1042.65,519.007 1042.83,519.583 1042.9,520.239L1041.59,520.239C1041.53,519.774 1041.41,519.376 1041.23,519.043C1041.06,518.706 1040.82,518.446 1040.5,518.264C1040.18,518.081 1039.76,517.99 1039.25,517.99C1038.8,517.99 1038.41,518.075 1038.08,518.243C1037.74,518.412 1037.46,518.651 1037.24,518.961C1037.01,519.271 1036.84,519.642 1036.73,520.075C1036.62,520.508 1036.56,520.989 1036.56,521.518L1036.56,522.522C1036.56,523.01 1036.61,523.468 1036.71,523.896C1036.81,524.325 1036.97,524.701 1037.18,525.024C1037.39,525.348 1037.66,525.603 1037.98,525.79C1038.3,525.972 1038.69,526.063 1039.13,526.063C1039.69,526.063 1040.14,525.975 1040.47,525.797C1040.8,525.619 1041.05,525.364 1041.22,525.031C1041.39,524.699 1041.52,524.3 1041.59,523.835Z" style="fill-rule:nonzero;"/>
    <path d="M351.155,516.047L354.45,516.047C355.198,516.047 355.829,516.161 356.344,516.389C356.863,516.617 357.257,516.954 357.526,517.4C357.8,517.842 357.937,518.387 357.937,519.034C357.937,519.49 357.843,519.907 357.656,520.285C357.474,520.659 357.21,520.978 356.863,521.242C356.521,521.502 356.111,521.696 355.633,521.823L355.264,521.967L352.167,521.967L352.153,520.894L354.491,520.894C354.965,520.894 355.359,520.812 355.674,520.647C355.988,520.479 356.225,520.253 356.385,519.971C356.544,519.688 356.624,519.376 356.624,519.034C356.624,518.651 356.549,518.316 356.398,518.029C356.248,517.742 356.011,517.521 355.688,517.366C355.368,517.207 354.956,517.127 354.45,517.127L352.475,517.127L352.475,526L351.155,526L351.155,516.047ZM356.973,526L354.553,521.488L355.927,521.481L358.381,525.918L358.381,526L356.973,526ZM362.66,526.137C362.145,526.137 361.678,526.05 361.259,525.877C360.844,525.699 360.486,525.451 360.186,525.132C359.889,524.813 359.661,524.435 359.502,523.997C359.342,523.56 359.263,523.081 359.263,522.562L359.263,522.274C359.263,521.673 359.352,521.137 359.529,520.668C359.707,520.194 359.949,519.793 360.254,519.465C360.559,519.137 360.906,518.888 361.293,518.72C361.68,518.551 362.081,518.467 362.496,518.467C363.025,518.467 363.48,518.558 363.863,518.74C364.251,518.923 364.567,519.178 364.813,519.506C365.06,519.829 365.242,520.212 365.36,520.654C365.479,521.092 365.538,521.57 365.538,522.09L365.538,522.657L360.015,522.657L360.015,521.625L364.273,521.625L364.273,521.529C364.255,521.201 364.187,520.882 364.068,520.572C363.954,520.262 363.772,520.007 363.521,519.807C363.271,519.606 362.929,519.506 362.496,519.506C362.209,519.506 361.945,519.567 361.703,519.69C361.462,519.809 361.254,519.987 361.081,520.224C360.908,520.461 360.773,520.75 360.678,521.092C360.582,521.434 360.534,521.828 360.534,522.274L360.534,522.562C360.534,522.912 360.582,523.243 360.678,523.553C360.778,523.858 360.922,524.127 361.108,524.359C361.3,524.592 361.53,524.774 361.799,524.906C362.072,525.038 362.382,525.104 362.729,525.104C363.175,525.104 363.553,525.013 363.863,524.831C364.173,524.649 364.444,524.405 364.677,524.1L365.442,524.708C365.283,524.95 365.08,525.18 364.834,525.398C364.588,525.617 364.285,525.795 363.925,525.932C363.569,526.068 363.148,526.137 362.66,526.137ZM371.677,524.564L371.677,515.5L372.948,515.5L372.948,526L371.786,526L371.677,524.564ZM366.7,522.384L366.7,522.24C366.7,521.675 366.769,521.162 366.905,520.702C367.047,520.237 367.245,519.839 367.5,519.506C367.76,519.173 368.067,518.918 368.423,518.74C368.783,518.558 369.184,518.467 369.626,518.467C370.091,518.467 370.496,518.549 370.843,518.713C371.194,518.872 371.49,519.107 371.731,519.417C371.978,519.722 372.171,520.091 372.312,520.524C372.454,520.957 372.552,521.447 372.606,521.994L372.606,522.623C372.556,523.165 372.458,523.653 372.312,524.086C372.171,524.519 371.978,524.888 371.731,525.193C371.49,525.499 371.194,525.733 370.843,525.897C370.492,526.057 370.082,526.137 369.612,526.137C369.179,526.137 368.783,526.043 368.423,525.856C368.067,525.67 367.76,525.408 367.5,525.07C367.245,524.733 367.047,524.337 366.905,523.881C366.769,523.421 366.7,522.922 366.7,522.384ZM367.972,522.24L367.972,522.384C367.972,522.753 368.008,523.099 368.081,523.423C368.159,523.746 368.277,524.031 368.437,524.277C368.596,524.523 368.799,524.717 369.045,524.858C369.291,524.995 369.585,525.063 369.927,525.063C370.346,525.063 370.69,524.975 370.959,524.797C371.232,524.619 371.451,524.384 371.615,524.093C371.779,523.801 371.907,523.484 371.998,523.143L371.998,521.495C371.943,521.244 371.864,521.003 371.759,520.771C371.659,520.534 371.526,520.324 371.362,520.142C371.203,519.955 371.005,519.807 370.768,519.697C370.535,519.588 370.259,519.533 369.94,519.533C369.594,519.533 369.296,519.606 369.045,519.752C368.799,519.893 368.596,520.089 368.437,520.34C368.277,520.586 368.159,520.873 368.081,521.201C368.008,521.525 367.972,521.871 367.972,522.24ZM382.129,521.345L379.606,521.345L379.593,520.285L381.883,520.285C382.261,520.285 382.591,520.221 382.874,520.094C383.157,519.966 383.375,519.784 383.53,519.547C383.69,519.305 383.77,519.018 383.77,518.686C383.77,518.321 383.699,518.025 383.558,517.797C383.421,517.564 383.209,517.396 382.922,517.291C382.639,517.182 382.279,517.127 381.842,517.127L379.9,517.127L379.9,526L378.581,526L378.581,516.047L381.842,516.047C382.352,516.047 382.808,516.099 383.209,516.204C383.61,516.304 383.95,516.464 384.228,516.683C384.51,516.897 384.724,517.17 384.87,517.503C385.016,517.836 385.089,518.234 385.089,518.699C385.089,519.109 384.984,519.481 384.774,519.813C384.565,520.142 384.273,520.41 383.899,520.62C383.53,520.83 383.097,520.964 382.601,521.023L382.129,521.345ZM382.067,526L379.087,526L379.832,524.927L382.067,524.927C382.487,524.927 382.842,524.854 383.134,524.708C383.43,524.562 383.656,524.357 383.811,524.093C383.965,523.824 384.043,523.507 384.043,523.143C384.043,522.773 383.977,522.454 383.845,522.186C383.713,521.917 383.505,521.709 383.223,521.563C382.94,521.418 382.576,521.345 382.129,521.345L380.249,521.345L380.263,520.285L382.833,520.285L383.113,520.668C383.592,520.709 383.997,520.846 384.33,521.078C384.663,521.306 384.916,521.598 385.089,521.953C385.267,522.309 385.355,522.701 385.355,523.129C385.355,523.749 385.219,524.273 384.945,524.701C384.676,525.125 384.296,525.449 383.804,525.672C383.312,525.891 382.733,526 382.067,526Z" style="fill-rule:nonzero;"/>
    <path d="M627.59,13.504L627.59,19.75C627.379,20.063 627.043,20.414 626.582,20.805C626.121,21.188 625.484,21.523 624.672,21.813C623.867,22.094 622.828,22.234 621.555,22.234C620.516,22.234 619.559,22.055 618.684,21.695C617.816,21.328 617.062,20.797 616.422,20.102C615.789,19.398 615.297,18.547 614.945,17.547C614.602,16.539 614.43,15.398 614.43,14.125L614.43,12.801C614.43,11.527 614.578,10.391 614.875,9.391C615.18,8.391 615.625,7.543 616.211,6.848C616.797,6.145 617.516,5.613 618.367,5.254C619.219,4.887 620.195,4.703 621.297,4.703C622.602,4.703 623.691,4.93 624.566,5.383C625.449,5.828 626.137,6.445 626.629,7.234C627.129,8.023 627.449,8.922 627.59,9.93L625.328,9.93C625.227,9.313 625.023,8.75 624.719,8.242C624.422,7.734 623.996,7.328 623.441,7.023C622.887,6.711 622.172,6.555 621.297,6.555C620.508,6.555 619.824,6.699 619.246,6.988C618.668,7.277 618.191,7.691 617.816,8.23C617.441,8.77 617.16,9.422 616.973,10.188C616.793,10.953 616.703,11.816 616.703,12.777L616.703,14.125C616.703,15.109 616.816,15.988 617.043,16.762C617.277,17.535 617.609,18.195 618.039,18.742C618.469,19.281 618.98,19.691 619.574,19.973C620.176,20.254 620.84,20.395 621.566,20.395C622.371,20.395 623.023,20.328 623.523,20.195C624.023,20.055 624.414,19.891 624.695,19.703C624.977,19.508 625.191,19.324 625.34,19.152L625.34,15.332L621.391,15.332L621.391,13.504L627.59,13.504ZM633.18,11.313L633.18,22L631.012,22L631.012,9.32L633.121,9.32L633.18,11.313ZM637.141,9.25L637.129,11.266C636.949,11.227 636.777,11.203 636.613,11.195C636.457,11.18 636.277,11.172 636.074,11.172C635.574,11.172 635.133,11.25 634.75,11.406C634.367,11.563 634.043,11.781 633.777,12.063C633.512,12.344 633.301,12.68 633.145,13.07C632.996,13.453 632.898,13.875 632.852,14.336L632.242,14.688C632.242,13.922 632.316,13.203 632.465,12.531C632.621,11.859 632.859,11.266 633.18,10.75C633.5,10.227 633.906,9.82 634.398,9.531C634.898,9.234 635.492,9.086 636.18,9.086C636.336,9.086 636.516,9.105 636.719,9.145C636.922,9.176 637.062,9.211 637.141,9.25ZM646.902,19.07L646.902,9.32L649.082,9.32L649.082,22L647.008,22L646.902,19.07ZM647.312,16.398L648.215,16.375C648.215,17.219 648.125,18 647.945,18.719C647.773,19.43 647.492,20.047 647.102,20.57C646.711,21.094 646.199,21.504 645.566,21.801C644.934,22.09 644.164,22.234 643.258,22.234C642.641,22.234 642.074,22.145 641.559,21.965C641.051,21.785 640.613,21.508 640.246,21.133C639.879,20.758 639.594,20.27 639.391,19.668C639.195,19.066 639.098,18.344 639.098,17.5L639.098,9.32L641.266,9.32L641.266,17.523C641.266,18.094 641.328,18.566 641.453,18.941C641.586,19.309 641.762,19.602 641.98,19.82C642.207,20.031 642.457,20.18 642.73,20.266C643.012,20.352 643.301,20.395 643.598,20.395C644.52,20.395 645.25,20.219 645.789,19.867C646.328,19.508 646.715,19.027 646.949,18.426C647.191,17.816 647.312,17.141 647.312,16.398ZM654.555,11.758L654.555,26.875L652.375,26.875L652.375,9.32L654.367,9.32L654.555,11.758ZM663.098,15.555L663.098,15.801C663.098,16.723 662.988,17.578 662.77,18.367C662.551,19.148 662.23,19.828 661.809,20.406C661.395,20.984 660.883,21.434 660.273,21.754C659.664,22.074 658.965,22.234 658.176,22.234C657.371,22.234 656.66,22.102 656.043,21.836C655.426,21.57 654.902,21.184 654.473,20.676C654.043,20.168 653.699,19.559 653.441,18.848C653.191,18.137 653.02,17.336 652.926,16.445L652.926,15.133C653.02,14.195 653.195,13.355 653.453,12.613C653.711,11.871 654.051,11.238 654.473,10.715C654.902,10.184 655.422,9.781 656.031,9.508C656.641,9.227 657.344,9.086 658.141,9.086C658.938,9.086 659.645,9.242 660.262,9.555C660.879,9.859 661.398,10.297 661.82,10.867C662.242,11.438 662.559,12.121 662.77,12.918C662.988,13.707 663.098,14.586 663.098,15.555ZM660.918,15.801L660.918,15.555C660.918,14.922 660.852,14.328 660.719,13.773C660.586,13.211 660.379,12.719 660.098,12.297C659.824,11.867 659.473,11.531 659.043,11.289C658.613,11.039 658.102,10.914 657.508,10.914C656.961,10.914 656.484,11.008 656.078,11.195C655.68,11.383 655.34,11.637 655.059,11.957C654.777,12.27 654.547,12.629 654.367,13.035C654.195,13.434 654.066,13.848 653.98,14.277L653.98,17.313C654.137,17.859 654.355,18.375 654.637,18.859C654.918,19.336 655.293,19.723 655.762,20.02C656.23,20.309 656.82,20.453 657.531,20.453C658.117,20.453 658.621,20.332 659.043,20.09C659.473,19.84 659.824,19.5 660.098,19.07C660.379,18.641 660.586,18.148 660.719,17.594C660.852,17.031 660.918,16.434 660.918,15.801ZM665.289,15.801L665.289,15.531C665.289,14.617 665.422,13.77 665.688,12.988C665.953,12.199 666.336,11.516 666.836,10.938C667.336,10.352 667.941,9.898 668.652,9.578C669.363,9.25 670.16,9.086 671.043,9.086C671.934,9.086 672.734,9.25 673.445,9.578C674.164,9.898 674.773,10.352 675.273,10.938C675.781,11.516 676.168,12.199 676.434,12.988C676.699,13.77 676.832,14.617 676.832,15.531L676.832,15.801C676.832,16.715 676.699,17.563 676.434,18.344C676.168,19.125 675.781,19.809 675.273,20.395C674.773,20.973 674.168,21.426 673.457,21.754C672.754,22.074 671.957,22.234 671.066,22.234C670.176,22.234 669.375,22.074 668.664,21.754C667.953,21.426 667.344,20.973 666.836,20.395C666.336,19.809 665.953,19.125 665.688,18.344C665.422,17.563 665.289,16.715 665.289,15.801ZM667.457,15.531L667.457,15.801C667.457,16.434 667.531,17.031 667.68,17.594C667.828,18.148 668.051,18.641 668.348,19.07C668.652,19.5 669.031,19.84 669.484,20.09C669.938,20.332 670.465,20.453 671.066,20.453C671.66,20.453 672.18,20.332 672.625,20.09C673.078,19.84 673.453,19.5 673.75,19.07C674.047,18.641 674.27,18.148 674.418,17.594C674.574,17.031 674.652,16.434 674.652,15.801L674.652,15.531C674.652,14.906 674.574,14.316 674.418,13.762C674.27,13.199 674.043,12.703 673.738,12.273C673.441,11.836 673.066,11.492 672.613,11.242C672.168,10.992 671.645,10.867 671.043,10.867C670.449,10.867 669.926,10.992 669.473,11.242C669.027,11.492 668.652,11.836 668.348,12.273C668.051,12.703 667.828,13.199 667.68,13.762C667.531,14.316 667.457,14.906 667.457,15.531ZM696.449,20.219L696.449,22L685.281,22L685.281,20.441L690.871,14.219C691.559,13.453 692.09,12.805 692.465,12.273C692.848,11.734 693.113,11.254 693.262,10.832C693.418,10.402 693.496,9.965 693.496,9.52C693.496,8.957 693.379,8.449 693.145,7.996C692.918,7.535 692.582,7.168 692.137,6.895C691.691,6.621 691.152,6.484 690.52,6.484C689.762,6.484 689.129,6.633 688.621,6.93C688.121,7.219 687.746,7.625 687.496,8.148C687.246,8.672 687.121,9.273 687.121,9.953L684.953,9.953C684.953,8.992 685.164,8.113 685.586,7.316C686.008,6.52 686.633,5.887 687.461,5.418C688.289,4.941 689.309,4.703 690.52,4.703C691.598,4.703 692.52,4.895 693.285,5.277C694.051,5.652 694.637,6.184 695.043,6.871C695.457,7.551 695.664,8.348 695.664,9.262C695.664,9.762 695.578,10.27 695.406,10.785C695.242,11.293 695.012,11.801 694.715,12.309C694.426,12.816 694.086,13.316 693.695,13.809C693.312,14.301 692.902,14.785 692.465,15.262L687.895,20.219L696.449,20.219Z" style="fill-rule:nonzero;"/>
</svg>
