<svg width="500" height="533" viewBox="0 0 500 533" fill="none" xmlns="http://www.w3.org/2000/svg">
<g filter="url(#filter0_b)">
<circle cx="250" cy="250" r="250" fill="#B56576" fill-opacity="0.8"/>
</g>
<g filter="url(#filter1_b)">
<path d="M178 250C178 299.153 138.153 339 89 339C39.8467 339 0 299.153 0 250C0 200.847 39.8467 161 89 161C138.153 161 178 200.847 178 250Z" fill="#355070" fill-opacity="0.8"/>
</g>
<path d="M85 215C87.2091 215 89 213.209 89 211C89 208.791 87.2091 207 85 207C82.7909 207 81 208.791 81 211C81 213.209 82.7909 215 85 215Z" fill="white" stroke="black"/>
<path d="M85 254C87.2091 254 89 252.209 89 250C89 247.791 87.2091 246 85 246C82.7909 246 81 247.791 81 250C81 252.209 82.7909 254 85 254Z" fill="#B56576" stroke="black"/>
<path d="M85 293C87.2091 293 89 291.209 89 289C89 286.791 87.2091 285 85 285C82.7909 285 81 286.791 81 289C81 291.209 82.7909 293 85 293Z" fill="#355070" stroke="black"/>
<path d="M84.6464 246.354C84.8417 246.549 85.1583 246.549 85.3536 246.354L88.5355 243.172C88.7308 242.976 88.7308 242.66 88.5355 242.464C88.3403 242.269 88.0237 242.269 87.8284 242.464L85 245.293L82.1716 242.464C81.9763 242.269 81.6597 242.269 81.4645 242.464C81.2692 242.66 81.2692 242.976 81.4645 243.172L84.6464 246.354ZM84.5 215V246H85.5V215H84.5Z" fill="black"/>
<path d="M84.6464 246.354C84.8417 246.549 85.1583 246.549 85.3536 246.354L88.5355 243.172C88.7308 242.976 88.7308 242.66 88.5355 242.464C88.3403 242.269 88.0237 242.269 87.8284 242.464L85 245.293L82.1716 242.464C81.9763 242.269 81.6597 242.269 81.4645 242.464C81.2692 242.66 81.2692 242.976 81.4645 243.172L84.6464 246.354ZM84.5 215V246H85.5V215H84.5Z" fill="black"/>
<path d="M84.6464 319.354C84.8417 319.549 85.1583 319.549 85.3536 319.354L88.5355 316.172C88.7308 315.976 88.7308 315.66 88.5355 315.464C88.3403 315.269 88.0237 315.269 87.8284 315.464L85 318.293L82.1716 315.464C81.9763 315.269 81.6597 315.269 81.4645 315.464C81.2692 315.66 81.2692 315.976 81.4645 316.172L84.6464 319.354ZM84.5 293V319H85.5V293H84.5Z" fill="black"/>
<path d="M85.3536 253.646C85.1583 253.451 84.8417 253.451 84.6464 253.646L81.4645 256.828C81.2692 257.024 81.2692 257.34 81.4645 257.536C81.6597 257.731 81.9763 257.731 82.1716 257.536L85 254.707L87.8284 257.536C88.0237 257.731 88.3403 257.731 88.5355 257.536C88.7308 257.34 88.7308 257.024 88.5355 256.828L85.3536 253.646ZM85.5 285V254H84.5V285H85.5Z" fill="black"/>
<path d="M93.4533 210.168H93.7933C93.7907 210.083 93.7987 209.999 93.8173 209.916C93.8387 209.831 93.872 209.755 93.9173 209.688C93.9627 209.621 94.02 209.568 94.0893 209.528C94.1613 209.485 94.2467 209.464 94.3453 209.464C94.42 209.464 94.4907 209.476 94.5573 209.5C94.624 209.524 94.6813 209.559 94.7293 209.604C94.78 209.649 94.82 209.704 94.8493 209.768C94.8787 209.829 94.8933 209.899 94.8933 209.976C94.8933 210.075 94.8773 210.161 94.8453 210.236C94.816 210.311 94.7707 210.38 94.7093 210.444C94.6507 210.508 94.576 210.572 94.4853 210.636C94.3947 210.697 94.2893 210.765 94.1693 210.84C94.0707 210.899 93.976 210.961 93.8853 211.028C93.7947 211.095 93.7133 211.172 93.6413 211.26C93.5693 211.348 93.5093 211.452 93.4613 211.572C93.416 211.689 93.3867 211.832 93.3733 212H95.2253V211.7H93.7693C93.7853 211.612 93.8187 211.535 93.8693 211.468C93.9227 211.399 93.9853 211.335 94.0573 211.276C94.132 211.217 94.2133 211.163 94.3013 211.112C94.3893 211.059 94.4773 211.005 94.5653 210.952C94.6533 210.896 94.7387 210.837 94.8213 210.776C94.904 210.715 94.9773 210.647 95.0413 210.572C95.1053 210.495 95.156 210.408 95.1933 210.312C95.2333 210.216 95.2533 210.105 95.2533 209.98C95.2533 209.847 95.2293 209.729 95.1813 209.628C95.136 209.527 95.0733 209.443 94.9933 209.376C94.9133 209.307 94.8187 209.255 94.7093 209.22C94.6027 209.183 94.488 209.164 94.3653 209.164C94.216 209.164 94.0827 209.189 93.9653 209.24C93.848 209.291 93.7493 209.361 93.6693 209.452C93.592 209.54 93.5347 209.645 93.4973 209.768C93.46 209.891 93.4453 210.024 93.4533 210.168ZM96.924 212V209.164H96.664C96.6453 209.271 96.6107 209.359 96.56 209.428C96.5093 209.497 96.4467 209.552 96.372 209.592C96.3 209.632 96.2187 209.66 96.128 209.676C96.0373 209.689 95.944 209.696 95.848 209.696V209.968H96.584V212H96.924Z" fill="black"/>
<path d="M93.4533 249.168H93.7933C93.7907 249.083 93.7987 248.999 93.8173 248.916C93.8387 248.831 93.872 248.755 93.9173 248.688C93.9627 248.621 94.02 248.568 94.0893 248.528C94.1613 248.485 94.2467 248.464 94.3453 248.464C94.42 248.464 94.4907 248.476 94.5573 248.5C94.624 248.524 94.6813 248.559 94.7293 248.604C94.78 248.649 94.82 248.704 94.8493 248.768C94.8787 248.829 94.8933 248.899 94.8933 248.976C94.8933 249.075 94.8773 249.161 94.8453 249.236C94.816 249.311 94.7707 249.38 94.7093 249.444C94.6507 249.508 94.576 249.572 94.4853 249.636C94.3947 249.697 94.2893 249.765 94.1693 249.84C94.0707 249.899 93.976 249.961 93.8853 250.028C93.7947 250.095 93.7133 250.172 93.6413 250.26C93.5693 250.348 93.5093 250.452 93.4613 250.572C93.416 250.689 93.3867 250.832 93.3733 251H95.2253V250.7H93.7693C93.7853 250.612 93.8187 250.535 93.8693 250.468C93.9227 250.399 93.9853 250.335 94.0573 250.276C94.132 250.217 94.2133 250.163 94.3013 250.112C94.3893 250.059 94.4773 250.005 94.5653 249.952C94.6533 249.896 94.7387 249.837 94.8213 249.776C94.904 249.715 94.9773 249.647 95.0413 249.572C95.1053 249.495 95.156 249.408 95.1933 249.312C95.2333 249.216 95.2533 249.105 95.2533 248.98C95.2533 248.847 95.2293 248.729 95.1813 248.628C95.136 248.527 95.0733 248.443 94.9933 248.376C94.9133 248.307 94.8187 248.255 94.7093 248.22C94.6027 248.183 94.488 248.164 94.3653 248.164C94.216 248.164 94.0827 248.189 93.9653 248.24C93.848 248.291 93.7493 248.361 93.6693 248.452C93.592 248.54 93.5347 248.645 93.4973 248.768C93.46 248.891 93.4453 249.024 93.4533 249.168ZM95.676 249.168H96.016C96.0133 249.083 96.0213 248.999 96.04 248.916C96.0613 248.831 96.0947 248.755 96.14 248.688C96.1853 248.621 96.2427 248.568 96.312 248.528C96.384 248.485 96.4693 248.464 96.568 248.464C96.6427 248.464 96.7133 248.476 96.78 248.5C96.8467 248.524 96.904 248.559 96.952 248.604C97.0027 248.649 97.0427 248.704 97.072 248.768C97.1013 248.829 97.116 248.899 97.116 248.976C97.116 249.075 97.1 249.161 97.068 249.236C97.0387 249.311 96.9933 249.38 96.932 249.444C96.8733 249.508 96.7987 249.572 96.708 249.636C96.6173 249.697 96.512 249.765 96.392 249.84C96.2933 249.899 96.1987 249.961 96.108 250.028C96.0173 250.095 95.936 250.172 95.864 250.26C95.792 250.348 95.732 250.452 95.684 250.572C95.6387 250.689 95.6093 250.832 95.596 251H97.448V250.7H95.992C96.008 250.612 96.0413 250.535 96.092 250.468C96.1453 250.399 96.208 250.335 96.28 250.276C96.3547 250.217 96.436 250.163 96.524 250.112C96.612 250.059 96.7 250.005 96.788 249.952C96.876 249.896 96.9613 249.837 97.044 249.776C97.1267 249.715 97.2 249.647 97.264 249.572C97.328 249.495 97.3787 249.408 97.416 249.312C97.456 249.216 97.476 249.105 97.476 248.98C97.476 248.847 97.452 248.729 97.404 248.628C97.3587 248.527 97.296 248.443 97.216 248.376C97.136 248.307 97.0413 248.255 96.932 248.22C96.8253 248.183 96.7107 248.164 96.588 248.164C96.4387 248.164 96.3053 248.189 96.188 248.24C96.0707 248.291 95.972 248.361 95.892 248.452C95.8147 248.54 95.7573 248.645 95.72 248.768C95.6827 248.891 95.668 249.024 95.676 249.168Z" fill="black"/>
<path d="M93.4533 288.168H93.7933C93.7907 288.083 93.7987 287.999 93.8173 287.916C93.8387 287.831 93.872 287.755 93.9173 287.688C93.9627 287.621 94.02 287.568 94.0893 287.528C94.1613 287.485 94.2467 287.464 94.3453 287.464C94.42 287.464 94.4907 287.476 94.5573 287.5C94.624 287.524 94.6813 287.559 94.7293 287.604C94.78 287.649 94.82 287.704 94.8493 287.768C94.8787 287.829 94.8933 287.899 94.8933 287.976C94.8933 288.075 94.8773 288.161 94.8453 288.236C94.816 288.311 94.7707 288.38 94.7093 288.444C94.6507 288.508 94.576 288.572 94.4853 288.636C94.3947 288.697 94.2893 288.765 94.1693 288.84C94.0707 288.899 93.976 288.961 93.8853 289.028C93.7947 289.095 93.7133 289.172 93.6413 289.26C93.5693 289.348 93.5093 289.452 93.4613 289.572C93.416 289.689 93.3867 289.832 93.3733 290H95.2253V289.7H93.7693C93.7853 289.612 93.8187 289.535 93.8693 289.468C93.9227 289.399 93.9853 289.335 94.0573 289.276C94.132 289.217 94.2133 289.163 94.3013 289.112C94.3893 289.059 94.4773 289.005 94.5653 288.952C94.6533 288.896 94.7387 288.837 94.8213 288.776C94.904 288.715 94.9773 288.647 95.0413 288.572C95.1053 288.495 95.156 288.408 95.1933 288.312C95.2333 288.216 95.2533 288.105 95.2533 287.98C95.2533 287.847 95.2293 287.729 95.1813 287.628C95.136 287.527 95.0733 287.443 94.9933 287.376C94.9133 287.307 94.8187 287.255 94.7093 287.22C94.6027 287.183 94.488 287.164 94.3653 287.164C94.216 287.164 94.0827 287.189 93.9653 287.24C93.848 287.291 93.7493 287.361 93.6693 287.452C93.592 287.54 93.5347 287.645 93.4973 287.768C93.46 287.891 93.4453 288.024 93.4533 288.168ZM96.372 288.38V288.668C96.436 288.66 96.504 288.656 96.576 288.656C96.6613 288.656 96.74 288.668 96.812 288.692C96.8867 288.713 96.9507 288.748 97.004 288.796C97.0573 288.841 97.1 288.899 97.132 288.968C97.164 289.035 97.18 289.112 97.18 289.2C97.18 289.285 97.1627 289.363 97.128 289.432C97.096 289.499 97.052 289.556 96.996 289.604C96.94 289.649 96.8747 289.685 96.8 289.712C96.7253 289.736 96.6467 289.748 96.564 289.748C96.3693 289.748 96.2213 289.691 96.12 289.576C96.0187 289.459 95.9653 289.308 95.96 289.124H95.62C95.6173 289.271 95.6373 289.401 95.68 289.516C95.7253 289.631 95.7893 289.728 95.872 289.808C95.9547 289.885 96.0547 289.944 96.172 289.984C96.2893 290.024 96.42 290.044 96.564 290.044C96.6973 290.044 96.8227 290.027 96.94 289.992C97.06 289.955 97.164 289.9 97.252 289.828C97.34 289.756 97.4093 289.667 97.46 289.56C97.5133 289.451 97.54 289.325 97.54 289.184C97.54 289.013 97.4973 288.865 97.412 288.74C97.3293 288.615 97.2013 288.533 97.028 288.496V288.488C97.14 288.437 97.2333 288.363 97.308 288.264C97.3827 288.165 97.42 288.052 97.42 287.924C97.42 287.793 97.3973 287.68 97.352 287.584C97.3093 287.488 97.2493 287.409 97.172 287.348C97.0947 287.287 97.0027 287.241 96.896 287.212C96.792 287.18 96.6787 287.164 96.556 287.164C96.4147 287.164 96.2893 287.187 96.18 287.232C96.0733 287.277 95.984 287.34 95.912 287.42C95.84 287.5 95.784 287.596 95.744 287.708C95.7067 287.82 95.6853 287.944 95.68 288.08H96.02C96.02 287.997 96.0307 287.919 96.052 287.844C96.0733 287.769 96.1053 287.704 96.148 287.648C96.1933 287.592 96.2493 287.548 96.316 287.516C96.3853 287.481 96.4653 287.464 96.556 287.464C96.7 287.464 96.82 287.503 96.916 287.58C97.012 287.655 97.06 287.768 97.06 287.92C97.06 287.995 97.0453 288.061 97.016 288.12C96.9867 288.179 96.9467 288.228 96.896 288.268C96.848 288.305 96.7907 288.335 96.724 288.356C96.66 288.375 96.592 288.384 96.52 288.384H96.448C96.4347 288.384 96.4213 288.384 96.408 288.384C96.3973 288.384 96.3853 288.383 96.372 288.38Z" fill="black"/>
<path d="M93.4533 326.168H93.7933C93.7907 326.083 93.7987 325.999 93.8173 325.916C93.8387 325.831 93.872 325.755 93.9173 325.688C93.9627 325.621 94.02 325.568 94.0893 325.528C94.1613 325.485 94.2467 325.464 94.3453 325.464C94.42 325.464 94.4907 325.476 94.5573 325.5C94.624 325.524 94.6813 325.559 94.7293 325.604C94.78 325.649 94.82 325.704 94.8493 325.768C94.8787 325.829 94.8933 325.899 94.8933 325.976C94.8933 326.075 94.8773 326.161 94.8453 326.236C94.816 326.311 94.7707 326.38 94.7093 326.444C94.6507 326.508 94.576 326.572 94.4853 326.636C94.3947 326.697 94.2893 326.765 94.1693 326.84C94.0707 326.899 93.976 326.961 93.8853 327.028C93.7947 327.095 93.7133 327.172 93.6413 327.26C93.5693 327.348 93.5093 327.452 93.4613 327.572C93.416 327.689 93.3867 327.832 93.3733 328H95.2253V327.7H93.7693C93.7853 327.612 93.8187 327.535 93.8693 327.468C93.9227 327.399 93.9853 327.335 94.0573 327.276C94.132 327.217 94.2133 327.163 94.3013 327.112C94.3893 327.059 94.4773 327.005 94.5653 326.952C94.6533 326.896 94.7387 326.837 94.8213 326.776C94.904 326.715 94.9773 326.647 95.0413 326.572C95.1053 326.495 95.156 326.408 95.1933 326.312C95.2333 326.216 95.2533 326.105 95.2533 325.98C95.2533 325.847 95.2293 325.729 95.1813 325.628C95.136 325.527 95.0733 325.443 94.9933 325.376C94.9133 325.307 94.8187 325.255 94.7093 325.22C94.6027 325.183 94.488 325.164 94.3653 325.164C94.216 325.164 94.0827 325.189 93.9653 325.24C93.848 325.291 93.7493 325.361 93.6693 325.452C93.592 325.54 93.5347 325.645 93.4973 325.768C93.46 325.891 93.4453 326.024 93.4533 326.168ZM96.856 327.036H95.904L96.848 325.648H96.856V327.036ZM97.176 327.036V325.164H96.904L95.612 327.008V327.336H96.856V328H97.176V327.336H97.56V327.036H97.176Z" fill="black"/>
<g filter="url(#filter2_b)">
<path d="M339 89C339 138.153 299.153 178 250 178C200.847 178 161 138.153 161 89C161 39.8467 200.847 0 250 0C299.153 0 339 39.8467 339 89Z" fill="#355070" fill-opacity="0.8"/>
</g>
<path d="M250 107C253.314 107 256 104.314 256 101C256 97.6863 253.314 95 250 95C246.686 95 244 97.6863 244 101C244 104.314 246.686 107 250 107Z" fill="#999999" stroke="black"/>
<path d="M279.5 133L282.215 141.785H291L283.893 147.215L286.607 156L279.5 150.57L272.393 156L275.107 147.215L268 141.785H276.785L279.5 133Z" fill="#B56576" fill-opacity="0.8"/>
<path d="M249.293 94.7071C249.683 95.0976 250.317 95.0976 250.707 94.7071L257.071 88.3431C257.462 87.9526 257.462 87.3195 257.071 86.9289C256.681 86.5384 256.047 86.5384 255.657 86.9289L250 92.5858L244.343 86.9289C243.953 86.5384 243.319 86.5384 242.929 86.9289C242.538 87.3195 242.538 87.9526 242.929 88.3431L249.293 94.7071ZM249 59V94H251V59H249Z" fill="black"/>
<path d="M244.875 107.095C244.742 106.559 244.199 106.233 243.663 106.367L234.932 108.55C234.396 108.684 234.07 109.227 234.204 109.763C234.338 110.298 234.881 110.624 235.417 110.49L243.178 108.55L245.118 116.311C245.252 116.847 245.795 117.173 246.331 117.039C246.866 116.905 247.192 116.362 247.058 115.826L244.875 107.095ZM226.479 138.325L244.763 107.852L243.048 106.823L224.764 137.296L226.479 138.325Z" fill="black"/>
<path d="M256.337 106.367C255.801 106.233 255.258 106.559 255.125 107.095L252.942 115.826C252.808 116.362 253.134 116.905 253.669 117.039C254.205 117.173 254.748 116.847 254.882 116.311L256.822 108.55L264.583 110.49C265.119 110.624 265.662 110.298 265.796 109.763C265.93 109.227 265.604 108.684 265.068 108.55L256.337 106.367ZM275.236 137.296L256.952 106.823L255.237 107.852L273.521 138.325L275.236 137.296Z" fill="black"/>
<path d="M262.407 53.336H263.087C263.081 53.1653 263.097 52.9973 263.135 52.832C263.177 52.6613 263.244 52.5093 263.335 52.376C263.425 52.2427 263.54 52.136 263.679 52.056C263.823 51.9707 263.993 51.928 264.191 51.928C264.34 51.928 264.481 51.952 264.615 52C264.748 52.048 264.863 52.1173 264.959 52.208C265.06 52.2987 265.14 52.408 265.199 52.536C265.257 52.6587 265.287 52.7973 265.287 52.952C265.287 53.1493 265.255 53.3227 265.191 53.472C265.132 53.6213 265.041 53.76 264.919 53.888C264.801 54.016 264.652 54.144 264.471 54.272C264.289 54.3947 264.079 54.5307 263.839 54.68C263.641 54.7973 263.452 54.9227 263.271 55.056C263.089 55.1893 262.927 55.344 262.783 55.52C262.639 55.696 262.519 55.904 262.423 56.144C262.332 56.3787 262.273 56.664 262.247 57H265.951V56.4H263.039C263.071 56.224 263.137 56.0693 263.239 55.936C263.345 55.7973 263.471 55.6693 263.615 55.552C263.764 55.4347 263.927 55.3253 264.103 55.224C264.279 55.1173 264.455 55.0107 264.631 54.904C264.807 54.792 264.977 54.6747 265.143 54.552C265.308 54.4293 265.455 54.2933 265.583 54.144C265.711 53.9893 265.812 53.816 265.887 53.624C265.967 53.432 266.007 53.2107 266.007 52.96C266.007 52.6933 265.959 52.4587 265.863 52.256C265.772 52.0533 265.647 51.8853 265.487 51.752C265.327 51.6133 265.137 51.5093 264.919 51.44C264.705 51.3653 264.476 51.328 264.231 51.328C263.932 51.328 263.665 51.3787 263.431 51.48C263.196 51.5813 262.999 51.7227 262.839 51.904C262.684 52.08 262.569 52.2907 262.495 52.536C262.42 52.7813 262.391 53.048 262.407 53.336ZM267.572 55.632H266.892C266.935 56.1227 267.113 56.488 267.428 56.728C267.743 56.968 268.137 57.088 268.612 57.088C269.3 57.088 269.799 56.8267 270.108 56.304C270.423 55.776 270.58 55.0213 270.58 54.04C270.58 53.5013 270.527 53.0587 270.42 52.712C270.319 52.36 270.18 52.0827 270.004 51.88C269.828 51.6773 269.623 51.536 269.388 51.456C269.153 51.3707 268.903 51.328 268.636 51.328C268.364 51.328 268.113 51.3733 267.884 51.464C267.655 51.5547 267.457 51.6827 267.292 51.848C267.127 52.008 266.999 52.2027 266.908 52.432C266.817 52.656 266.772 52.904 266.772 53.176C266.772 53.4533 266.809 53.7093 266.884 53.944C266.964 54.1787 267.079 54.3787 267.228 54.544C267.383 54.7093 267.572 54.84 267.796 54.936C268.02 55.0267 268.276 55.072 268.564 55.072C268.841 55.072 269.097 55.0027 269.332 54.864C269.567 54.72 269.748 54.528 269.876 54.288L269.892 54.304C269.871 55.0453 269.756 55.5973 269.548 55.96C269.34 56.3173 269.028 56.496 268.612 56.496C268.34 56.496 268.105 56.4213 267.908 56.272C267.711 56.1227 267.599 55.9093 267.572 55.632ZM269.772 53.224C269.772 53.3893 269.745 53.5493 269.692 53.704C269.639 53.8533 269.561 53.9867 269.46 54.104C269.359 54.216 269.236 54.3067 269.092 54.376C268.948 54.44 268.788 54.472 268.612 54.472C268.447 54.472 268.295 54.44 268.156 54.376C268.023 54.3067 267.905 54.216 267.804 54.104C267.708 53.992 267.631 53.864 267.572 53.72C267.519 53.576 267.492 53.4267 267.492 53.272C267.492 53.096 267.511 52.928 267.548 52.768C267.591 52.608 267.655 52.4667 267.74 52.344C267.831 52.216 267.945 52.1147 268.084 52.04C268.228 51.9653 268.401 51.928 268.604 51.928C268.796 51.928 268.964 51.9627 269.108 52.032C269.252 52.1013 269.372 52.1973 269.468 52.32C269.569 52.4373 269.644 52.5733 269.692 52.728C269.745 52.8827 269.772 53.048 269.772 53.224Z" fill="black"/>
<path d="M263.799 101.76V102.336C263.927 102.32 264.063 102.312 264.207 102.312C264.377 102.312 264.535 102.336 264.679 102.384C264.828 102.427 264.956 102.496 265.063 102.592C265.169 102.683 265.255 102.797 265.319 102.936C265.383 103.069 265.415 103.224 265.415 103.4C265.415 103.571 265.38 103.725 265.311 103.864C265.247 103.997 265.159 104.112 265.047 104.208C264.935 104.299 264.804 104.371 264.655 104.424C264.505 104.472 264.348 104.496 264.183 104.496C263.793 104.496 263.497 104.381 263.295 104.152C263.092 103.917 262.985 103.616 262.975 103.248H262.295C262.289 103.541 262.329 103.803 262.415 104.032C262.505 104.261 262.633 104.456 262.799 104.616C262.964 104.771 263.164 104.888 263.399 104.968C263.633 105.048 263.895 105.088 264.183 105.088C264.449 105.088 264.7 105.053 264.935 104.984C265.175 104.909 265.383 104.8 265.559 104.656C265.735 104.512 265.873 104.333 265.975 104.12C266.081 103.901 266.135 103.651 266.135 103.368C266.135 103.027 266.049 102.731 265.879 102.48C265.713 102.229 265.457 102.067 265.111 101.992V101.976C265.335 101.875 265.521 101.725 265.671 101.528C265.82 101.331 265.895 101.104 265.895 100.848C265.895 100.587 265.849 100.36 265.759 100.168C265.673 99.976 265.553 99.8187 265.399 99.696C265.244 99.5733 265.06 99.4827 264.847 99.424C264.639 99.36 264.412 99.328 264.167 99.328C263.884 99.328 263.633 99.3733 263.415 99.464C263.201 99.5547 263.023 99.68 262.879 99.84C262.735 100 262.623 100.192 262.543 100.416C262.468 100.64 262.425 100.888 262.415 101.16H263.095C263.095 100.995 263.116 100.837 263.159 100.688C263.201 100.539 263.265 100.408 263.351 100.296C263.441 100.184 263.553 100.096 263.687 100.032C263.825 99.9627 263.985 99.928 264.167 99.928C264.455 99.928 264.695 100.005 264.887 100.16C265.079 100.309 265.175 100.536 265.175 100.84C265.175 100.989 265.145 101.123 265.087 101.24C265.028 101.357 264.948 101.456 264.847 101.536C264.751 101.611 264.636 101.669 264.503 101.712C264.375 101.749 264.239 101.768 264.095 101.768H263.951C263.924 101.768 263.897 101.768 263.871 101.768C263.849 101.768 263.825 101.765 263.799 101.76ZM267.556 102.208C267.556 102.069 267.556 101.917 267.556 101.752C267.561 101.581 267.575 101.413 267.596 101.248C267.623 101.077 267.657 100.912 267.7 100.752C267.748 100.592 267.815 100.453 267.9 100.336C267.991 100.213 268.103 100.115 268.236 100.04C268.369 99.9653 268.532 99.928 268.724 99.928C268.916 99.928 269.079 99.9653 269.212 100.04C269.345 100.115 269.455 100.213 269.54 100.336C269.631 100.453 269.697 100.592 269.74 100.752C269.788 100.912 269.823 101.077 269.844 101.248C269.871 101.413 269.884 101.581 269.884 101.752C269.889 101.917 269.892 102.069 269.892 102.208C269.892 102.421 269.884 102.661 269.868 102.928C269.857 103.189 269.815 103.437 269.74 103.672C269.671 103.901 269.556 104.096 269.396 104.256C269.236 104.416 269.012 104.496 268.724 104.496C268.436 104.496 268.212 104.416 268.052 104.256C267.892 104.096 267.775 103.901 267.7 103.672C267.631 103.437 267.588 103.189 267.572 102.928C267.561 102.661 267.556 102.421 267.556 102.208ZM266.836 102.216C266.836 102.424 266.841 102.64 266.852 102.864C266.863 103.088 266.889 103.307 266.932 103.52C266.975 103.733 267.036 103.936 267.116 104.128C267.196 104.315 267.305 104.48 267.444 104.624C267.583 104.768 267.756 104.883 267.964 104.968C268.177 105.048 268.431 105.088 268.724 105.088C269.023 105.088 269.276 105.048 269.484 104.968C269.692 104.883 269.865 104.768 270.004 104.624C270.143 104.48 270.252 104.315 270.332 104.128C270.412 103.936 270.473 103.733 270.516 103.52C270.559 103.307 270.585 103.088 270.596 102.864C270.607 102.64 270.612 102.424 270.612 102.216C270.612 102.008 270.607 101.792 270.596 101.568C270.585 101.344 270.559 101.125 270.516 100.912C270.473 100.699 270.412 100.496 270.332 100.304C270.252 100.112 270.143 99.944 270.004 99.8C269.865 99.656 269.689 99.5413 269.476 99.456C269.268 99.3707 269.017 99.328 268.724 99.328C268.431 99.328 268.177 99.3707 267.964 99.456C267.756 99.5413 267.583 99.656 267.444 99.8C267.305 99.944 267.196 100.112 267.116 100.304C267.036 100.496 266.975 100.699 266.932 100.912C266.889 101.125 266.863 101.344 266.852 101.568C266.841 101.792 266.836 102.008 266.836 102.216Z" fill="black"/>
<g filter="url(#filter3_b)">
<path d="M339 411C339 460.153 299.153 500 250 500C200.847 500 161 460.153 161 411C161 361.847 200.847 322 250 322C299.153 322 339 361.847 339 411Z" fill="#355070" fill-opacity="0.8"/>
</g>
<g filter="url(#filter4_b)">
<path d="M500 250C500 299.153 460.153 339 411 339C361.847 339 322 299.153 322 250C322 200.847 361.847 161 411 161C460.153 161 500 200.847 500 250Z" fill="#355070" fill-opacity="0.8"/>
</g>
<path d="M412 311C416.418 311 420 307.418 420 303C420 298.582 416.418 295 412 295C407.582 295 404 298.582 404 303C404 307.418 407.582 311 412 311Z" fill="#999999" stroke="black"/>
<path d="M411.116 295.884C411.604 296.372 412.396 296.372 412.884 295.884L420.839 287.929C421.327 287.441 421.327 286.649 420.839 286.161C420.351 285.673 419.559 285.673 419.071 286.161L412 293.232L404.929 286.161C404.441 285.673 403.649 285.673 403.161 286.161C402.673 286.649 402.673 287.441 403.161 287.929L411.116 295.884ZM410.75 229V295H413.25V229H410.75Z" fill="black"/>
<path d="M428.75 222.812C428.75 222.604 428.75 222.376 428.75 222.128C428.758 221.872 428.778 221.62 428.81 221.372C428.85 221.116 428.902 220.868 428.966 220.628C429.038 220.388 429.138 220.18 429.266 220.004C429.402 219.82 429.57 219.672 429.77 219.56C429.97 219.448 430.214 219.392 430.502 219.392C430.79 219.392 431.034 219.448 431.234 219.56C431.434 219.672 431.598 219.82 431.726 220.004C431.862 220.18 431.962 220.388 432.026 220.628C432.098 220.868 432.15 221.116 432.182 221.372C432.222 221.62 432.242 221.872 432.242 222.128C432.25 222.376 432.254 222.604 432.254 222.812C432.254 223.132 432.242 223.492 432.218 223.892C432.202 224.284 432.138 224.656 432.026 225.008C431.922 225.352 431.75 225.644 431.51 225.884C431.27 226.124 430.934 226.244 430.502 226.244C430.07 226.244 429.734 226.124 429.494 225.884C429.254 225.644 429.078 225.352 428.966 225.008C428.862 224.656 428.798 224.284 428.774 223.892C428.758 223.492 428.75 223.132 428.75 222.812ZM427.67 222.824C427.67 223.136 427.678 223.46 427.694 223.796C427.71 224.132 427.75 224.46 427.814 224.78C427.878 225.1 427.97 225.404 428.09 225.692C428.21 225.972 428.374 226.22 428.582 226.436C428.79 226.652 429.05 226.824 429.362 226.952C429.682 227.072 430.062 227.132 430.502 227.132C430.95 227.132 431.33 227.072 431.642 226.952C431.954 226.824 432.214 226.652 432.422 226.436C432.63 226.22 432.794 225.972 432.914 225.692C433.034 225.404 433.126 225.1 433.19 224.78C433.254 224.46 433.294 224.132 433.31 223.796C433.326 223.46 433.334 223.136 433.334 222.824C433.334 222.512 433.326 222.188 433.31 221.852C433.294 221.516 433.254 221.188 433.19 220.868C433.126 220.548 433.034 220.244 432.914 219.956C432.794 219.668 432.63 219.416 432.422 219.2C432.214 218.984 431.95 218.812 431.63 218.684C431.318 218.556 430.942 218.492 430.502 218.492C430.062 218.492 429.682 218.556 429.362 218.684C429.05 218.812 428.79 218.984 428.582 219.2C428.374 219.416 428.21 219.668 428.09 219.956C427.97 220.244 427.878 220.548 427.814 220.868C427.75 221.188 427.71 221.516 427.694 221.852C427.678 222.188 427.67 222.512 427.67 222.824Z" fill="black"/>
<path d="M431.438 308V299.492H430.658C430.602 299.812 430.498 300.076 430.346 300.284C430.194 300.492 430.006 300.656 429.782 300.776C429.566 300.896 429.322 300.98 429.05 301.028C428.778 301.068 428.498 301.088 428.21 301.088V301.904H430.418V308H431.438Z" fill="black"/>
<path d="M249 388C253.418 388 257 384.418 257 380C257 375.582 253.418 372 249 372C244.582 372 241 375.582 241 380C241 384.418 244.582 388 249 388Z" fill="white" stroke="black"/>
<path d="M248.116 454.884C248.604 455.372 249.396 455.372 249.884 454.884L257.839 446.929C258.327 446.441 258.327 445.649 257.839 445.161C257.351 444.673 256.559 444.673 256.071 445.161L249 452.232L241.929 445.161C241.441 444.673 240.649 444.673 240.161 445.161C239.673 445.649 239.673 446.441 240.161 446.929L248.116 454.884ZM247.75 388V454H250.25V388H247.75Z" fill="black"/>
<path d="M265.75 381.812C265.75 381.604 265.75 381.376 265.75 381.128C265.758 380.872 265.778 380.62 265.81 380.372C265.85 380.116 265.902 379.868 265.966 379.628C266.038 379.388 266.138 379.18 266.266 379.004C266.402 378.82 266.57 378.672 266.77 378.56C266.97 378.448 267.214 378.392 267.502 378.392C267.79 378.392 268.034 378.448 268.234 378.56C268.434 378.672 268.598 378.82 268.726 379.004C268.862 379.18 268.962 379.388 269.026 379.628C269.098 379.868 269.15 380.116 269.182 380.372C269.222 380.62 269.242 380.872 269.242 381.128C269.25 381.376 269.254 381.604 269.254 381.812C269.254 382.132 269.242 382.492 269.218 382.892C269.202 383.284 269.138 383.656 269.026 384.008C268.922 384.352 268.75 384.644 268.51 384.884C268.27 385.124 267.934 385.244 267.502 385.244C267.07 385.244 266.734 385.124 266.494 384.884C266.254 384.644 266.078 384.352 265.966 384.008C265.862 383.656 265.798 383.284 265.774 382.892C265.758 382.492 265.75 382.132 265.75 381.812ZM264.67 381.824C264.67 382.136 264.678 382.46 264.694 382.796C264.71 383.132 264.75 383.46 264.814 383.78C264.878 384.1 264.97 384.404 265.09 384.692C265.21 384.972 265.374 385.22 265.582 385.436C265.79 385.652 266.05 385.824 266.362 385.952C266.682 386.072 267.062 386.132 267.502 386.132C267.95 386.132 268.33 386.072 268.642 385.952C268.954 385.824 269.214 385.652 269.422 385.436C269.63 385.22 269.794 384.972 269.914 384.692C270.034 384.404 270.126 384.1 270.19 383.78C270.254 383.46 270.294 383.132 270.31 382.796C270.326 382.46 270.334 382.136 270.334 381.824C270.334 381.512 270.326 381.188 270.31 380.852C270.294 380.516 270.254 380.188 270.19 379.868C270.126 379.548 270.034 379.244 269.914 378.956C269.794 378.668 269.63 378.416 269.422 378.2C269.214 377.984 268.95 377.812 268.63 377.684C268.318 377.556 267.942 377.492 267.502 377.492C267.062 377.492 266.682 377.556 266.362 377.684C266.05 377.812 265.79 377.984 265.582 378.2C265.374 378.416 265.21 378.668 265.09 378.956C264.97 379.244 264.878 379.548 264.814 379.868C264.75 380.188 264.71 380.516 264.694 380.852C264.678 381.188 264.67 381.512 264.67 381.824Z" fill="black"/>
<path d="M268.438 478V469.492H267.658C267.602 469.812 267.498 470.076 267.346 470.284C267.194 470.492 267.006 470.656 266.782 470.776C266.566 470.896 266.322 470.98 266.05 471.028C265.778 471.068 265.498 471.088 265.21 471.088V471.904H267.418V478H268.438Z" fill="black"/>
<path d="M381.278 188.304V183.588H384.626C385.598 183.588 386.306 183.792 386.75 184.2C387.206 184.596 387.434 185.178 387.434 185.946C387.434 186.714 387.206 187.302 386.75 187.71C386.306 188.118 385.598 188.316 384.626 188.304H381.278ZM379.568 182.148V195H381.278V189.744H385.202C386.498 189.756 387.476 189.426 388.136 188.754C388.808 188.082 389.144 187.146 389.144 185.946C389.144 184.746 388.808 183.816 388.136 183.156C387.476 182.484 386.498 182.148 385.202 182.148H379.568ZM390.934 185.694V195H392.464V190.86C392.464 190.26 392.524 189.732 392.644 189.276C392.764 188.808 392.956 188.412 393.22 188.088C393.484 187.764 393.832 187.518 394.264 187.35C394.696 187.182 395.218 187.098 395.83 187.098V185.478C395.002 185.454 394.318 185.622 393.778 185.982C393.238 186.342 392.782 186.9 392.41 187.656H392.374V185.694H390.934ZM397.782 190.356C397.782 189.792 397.854 189.294 397.998 188.862C398.154 188.418 398.364 188.046 398.628 187.746C398.892 187.446 399.198 187.218 399.546 187.062C399.906 186.906 400.284 186.828 400.68 186.828C401.076 186.828 401.448 186.906 401.796 187.062C402.156 187.218 402.468 187.446 402.732 187.746C402.996 188.046 403.2 188.418 403.344 188.862C403.5 189.294 403.578 189.792 403.578 190.356C403.578 190.92 403.5 191.424 403.344 191.868C403.2 192.3 402.996 192.666 402.732 192.966C402.468 193.254 402.156 193.476 401.796 193.632C401.448 193.788 401.076 193.866 400.68 193.866C400.284 193.866 399.906 193.788 399.546 193.632C399.198 193.476 398.892 193.254 398.628 192.966C398.364 192.666 398.154 192.3 397.998 191.868C397.854 191.424 397.782 190.92 397.782 190.356ZM396.162 190.356C396.162 191.04 396.258 191.676 396.45 192.264C396.642 192.852 396.93 193.368 397.314 193.812C397.698 194.244 398.172 194.586 398.736 194.838C399.3 195.078 399.948 195.198 400.68 195.198C401.424 195.198 402.072 195.078 402.624 194.838C403.188 194.586 403.662 194.244 404.046 193.812C404.43 193.368 404.718 192.852 404.91 192.264C405.102 191.676 405.198 191.04 405.198 190.356C405.198 189.672 405.102 189.036 404.91 188.448C404.718 187.848 404.43 187.332 404.046 186.9C403.662 186.456 403.188 186.108 402.624 185.856C402.072 185.604 401.424 185.478 400.68 185.478C399.948 185.478 399.3 185.604 398.736 185.856C398.172 186.108 397.698 186.456 397.314 186.9C396.93 187.332 396.642 187.848 396.45 188.448C396.258 189.036 396.162 189.672 396.162 190.356ZM412.42 195H413.95V185.694H412.42V195ZM412.42 184.02H413.95V182.148H412.42V184.02ZM407.632 187.044V195H409.162V187.044H410.962V185.694H409.162V184.398C409.162 183.99 409.264 183.714 409.468 183.57C409.672 183.426 409.96 183.354 410.332 183.354C410.464 183.354 410.608 183.366 410.764 183.39C410.92 183.402 411.064 183.432 411.196 183.48V182.148C411.052 182.1 410.884 182.064 410.692 182.04C410.512 182.016 410.35 182.004 410.206 182.004C409.366 182.004 408.724 182.202 408.28 182.598C407.848 182.982 407.632 183.552 407.632 184.308V185.694H406.066V187.044H407.632ZM416.408 182.148V195H417.938V182.148H416.408ZM426.77 189.456H421.424C421.448 189.096 421.526 188.76 421.658 188.448C421.79 188.124 421.97 187.842 422.198 187.602C422.426 187.362 422.696 187.176 423.008 187.044C423.332 186.9 423.692 186.828 424.088 186.828C424.472 186.828 424.82 186.9 425.132 187.044C425.456 187.176 425.732 187.362 425.96 187.602C426.2 187.83 426.386 188.106 426.518 188.43C426.662 188.754 426.746 189.096 426.77 189.456ZM428.246 192.048H426.734C426.602 192.66 426.326 193.116 425.906 193.416C425.498 193.716 424.97 193.866 424.322 193.866C423.818 193.866 423.38 193.782 423.008 193.614C422.636 193.446 422.33 193.224 422.09 192.948C421.85 192.66 421.676 192.336 421.568 191.976C421.46 191.604 421.412 191.214 421.424 190.806H428.39C428.414 190.242 428.36 189.648 428.228 189.024C428.108 188.4 427.88 187.824 427.544 187.296C427.22 186.768 426.782 186.336 426.23 186C425.69 185.652 425.006 185.478 424.178 185.478C423.542 185.478 422.954 185.598 422.414 185.838C421.886 186.078 421.424 186.414 421.028 186.846C420.644 187.278 420.344 187.788 420.128 188.376C419.912 188.964 419.804 189.612 419.804 190.32C419.828 191.028 419.93 191.682 420.11 192.282C420.302 192.882 420.584 193.398 420.956 193.83C421.328 194.262 421.784 194.598 422.324 194.838C422.876 195.078 423.524 195.198 424.268 195.198C425.324 195.198 426.2 194.934 426.896 194.406C427.592 193.878 428.042 193.092 428.246 192.048ZM442.294 183.804V182.454H435.994L434.806 189.078L436.12 189.15C436.42 188.79 436.762 188.502 437.146 188.286C437.542 188.058 437.992 187.944 438.496 187.944C438.928 187.944 439.318 188.016 439.666 188.16C440.026 188.304 440.332 188.508 440.584 188.772C440.836 189.024 441.028 189.33 441.16 189.69C441.304 190.038 441.376 190.422 441.376 190.842C441.376 191.346 441.304 191.79 441.16 192.174C441.016 192.546 440.818 192.858 440.566 193.11C440.326 193.362 440.038 193.554 439.702 193.686C439.378 193.806 439.036 193.866 438.676 193.866C438.292 193.866 437.938 193.812 437.614 193.704C437.302 193.584 437.026 193.422 436.786 193.218C436.558 193.002 436.372 192.756 436.228 192.48C436.096 192.192 436.018 191.886 435.994 191.562H434.464C434.476 192.138 434.59 192.654 434.806 193.11C435.022 193.566 435.316 193.95 435.688 194.262C436.06 194.562 436.486 194.796 436.966 194.964C437.458 195.12 437.98 195.198 438.532 195.198C439.276 195.198 439.924 195.084 440.476 194.856C441.04 194.616 441.508 194.298 441.88 193.902C442.252 193.506 442.528 193.056 442.708 192.552C442.9 192.036 442.996 191.508 442.996 190.968C442.996 190.236 442.888 189.6 442.672 189.06C442.456 188.508 442.162 188.052 441.79 187.692C441.418 187.32 440.98 187.044 440.476 186.864C439.972 186.684 439.438 186.594 438.874 186.594C438.442 186.594 438.004 186.672 437.56 186.828C437.128 186.972 436.774 187.2 436.498 187.512L436.462 187.476L437.146 183.804H442.294Z" fill="white"/>
<path d="M220.278 349.304V344.588H223.626C224.598 344.588 225.306 344.792 225.75 345.2C226.206 345.596 226.434 346.178 226.434 346.946C226.434 347.714 226.206 348.302 225.75 348.71C225.306 349.118 224.598 349.316 223.626 349.304H220.278ZM218.568 343.148V356H220.278V350.744H224.202C225.498 350.756 226.476 350.426 227.136 349.754C227.808 349.082 228.144 348.146 228.144 346.946C228.144 345.746 227.808 344.816 227.136 344.156C226.476 343.484 225.498 343.148 224.202 343.148H218.568ZM229.934 346.694V356H231.464V351.86C231.464 351.26 231.524 350.732 231.644 350.276C231.764 349.808 231.956 349.412 232.22 349.088C232.484 348.764 232.832 348.518 233.264 348.35C233.696 348.182 234.218 348.098 234.83 348.098V346.478C234.002 346.454 233.318 346.622 232.778 346.982C232.238 347.342 231.782 347.9 231.41 348.656H231.374V346.694H229.934ZM236.782 351.356C236.782 350.792 236.854 350.294 236.998 349.862C237.154 349.418 237.364 349.046 237.628 348.746C237.892 348.446 238.198 348.218 238.546 348.062C238.906 347.906 239.284 347.828 239.68 347.828C240.076 347.828 240.448 347.906 240.796 348.062C241.156 348.218 241.468 348.446 241.732 348.746C241.996 349.046 242.2 349.418 242.344 349.862C242.5 350.294 242.578 350.792 242.578 351.356C242.578 351.92 242.5 352.424 242.344 352.868C242.2 353.3 241.996 353.666 241.732 353.966C241.468 354.254 241.156 354.476 240.796 354.632C240.448 354.788 240.076 354.866 239.68 354.866C239.284 354.866 238.906 354.788 238.546 354.632C238.198 354.476 237.892 354.254 237.628 353.966C237.364 353.666 237.154 353.3 236.998 352.868C236.854 352.424 236.782 351.92 236.782 351.356ZM235.162 351.356C235.162 352.04 235.258 352.676 235.45 353.264C235.642 353.852 235.93 354.368 236.314 354.812C236.698 355.244 237.172 355.586 237.736 355.838C238.3 356.078 238.948 356.198 239.68 356.198C240.424 356.198 241.072 356.078 241.624 355.838C242.188 355.586 242.662 355.244 243.046 354.812C243.43 354.368 243.718 353.852 243.91 353.264C244.102 352.676 244.198 352.04 244.198 351.356C244.198 350.672 244.102 350.036 243.91 349.448C243.718 348.848 243.43 348.332 243.046 347.9C242.662 347.456 242.188 347.108 241.624 346.856C241.072 346.604 240.424 346.478 239.68 346.478C238.948 346.478 238.3 346.604 237.736 346.856C237.172 347.108 236.698 347.456 236.314 347.9C235.93 348.332 235.642 348.848 235.45 349.448C235.258 350.036 235.162 350.672 235.162 351.356ZM251.42 356H252.95V346.694H251.42V356ZM251.42 345.02H252.95V343.148H251.42V345.02ZM246.632 348.044V356H248.162V348.044H249.962V346.694H248.162V345.398C248.162 344.99 248.264 344.714 248.468 344.57C248.672 344.426 248.96 344.354 249.332 344.354C249.464 344.354 249.608 344.366 249.764 344.39C249.92 344.402 250.064 344.432 250.196 344.48V343.148C250.052 343.1 249.884 343.064 249.692 343.04C249.512 343.016 249.35 343.004 249.206 343.004C248.366 343.004 247.724 343.202 247.28 343.598C246.848 343.982 246.632 344.552 246.632 345.308V346.694H245.066V348.044H246.632ZM255.408 343.148V356H256.938V343.148H255.408ZM265.77 350.456H260.424C260.448 350.096 260.526 349.76 260.658 349.448C260.79 349.124 260.97 348.842 261.198 348.602C261.426 348.362 261.696 348.176 262.008 348.044C262.332 347.9 262.692 347.828 263.088 347.828C263.472 347.828 263.82 347.9 264.132 348.044C264.456 348.176 264.732 348.362 264.96 348.602C265.2 348.83 265.386 349.106 265.518 349.43C265.662 349.754 265.746 350.096 265.77 350.456ZM267.246 353.048H265.734C265.602 353.66 265.326 354.116 264.906 354.416C264.498 354.716 263.97 354.866 263.322 354.866C262.818 354.866 262.38 354.782 262.008 354.614C261.636 354.446 261.33 354.224 261.09 353.948C260.85 353.66 260.676 353.336 260.568 352.976C260.46 352.604 260.412 352.214 260.424 351.806H267.39C267.414 351.242 267.36 350.648 267.228 350.024C267.108 349.4 266.88 348.824 266.544 348.296C266.22 347.768 265.782 347.336 265.23 347C264.69 346.652 264.006 346.478 263.178 346.478C262.542 346.478 261.954 346.598 261.414 346.838C260.886 347.078 260.424 347.414 260.028 347.846C259.644 348.278 259.344 348.788 259.128 349.376C258.912 349.964 258.804 350.612 258.804 351.32C258.828 352.028 258.93 352.682 259.11 353.282C259.302 353.882 259.584 354.398 259.956 354.83C260.328 355.262 260.784 355.598 261.324 355.838C261.876 356.078 262.524 356.198 263.268 356.198C264.324 356.198 265.2 355.934 265.896 355.406C266.592 354.878 267.042 354.092 267.246 353.048ZM273.626 347.756H275.156C275.144 347.372 275.18 346.994 275.264 346.622C275.36 346.238 275.51 345.896 275.714 345.596C275.918 345.296 276.176 345.056 276.488 344.876C276.812 344.684 277.196 344.588 277.64 344.588C277.976 344.588 278.294 344.642 278.594 344.75C278.894 344.858 279.152 345.014 279.368 345.218C279.596 345.422 279.776 345.668 279.908 345.956C280.04 346.232 280.106 346.544 280.106 346.892C280.106 347.336 280.034 347.726 279.89 348.062C279.758 348.398 279.554 348.71 279.278 348.998C279.014 349.286 278.678 349.574 278.27 349.862C277.862 350.138 277.388 350.444 276.848 350.78C276.404 351.044 275.978 351.326 275.57 351.626C275.162 351.926 274.796 352.274 274.472 352.67C274.148 353.066 273.878 353.534 273.662 354.074C273.458 354.602 273.326 355.244 273.266 356H281.6V354.65H275.048C275.12 354.254 275.27 353.906 275.498 353.606C275.738 353.294 276.02 353.006 276.344 352.742C276.68 352.478 277.046 352.232 277.442 352.004C277.838 351.764 278.234 351.524 278.63 351.284C279.026 351.032 279.41 350.768 279.782 350.492C280.154 350.216 280.484 349.91 280.772 349.574C281.06 349.226 281.288 348.836 281.456 348.404C281.636 347.972 281.726 347.474 281.726 346.91C281.726 346.31 281.618 345.782 281.402 345.326C281.198 344.87 280.916 344.492 280.556 344.192C280.196 343.88 279.77 343.646 279.278 343.49C278.798 343.322 278.282 343.238 277.73 343.238C277.058 343.238 276.458 343.352 275.93 343.58C275.402 343.808 274.958 344.126 274.598 344.534C274.25 344.93 273.992 345.404 273.824 345.956C273.656 346.508 273.59 347.108 273.626 347.756Z" fill="white"/>
<path d="M220.278 26.304V21.588H223.626C224.598 21.588 225.306 21.792 225.75 22.2C226.206 22.596 226.434 23.178 226.434 23.946C226.434 24.714 226.206 25.302 225.75 25.71C225.306 26.118 224.598 26.316 223.626 26.304H220.278ZM218.568 20.148V33H220.278V27.744H224.202C225.498 27.756 226.476 27.426 227.136 26.754C227.808 26.082 228.144 25.146 228.144 23.946C228.144 22.746 227.808 21.816 227.136 21.156C226.476 20.484 225.498 20.148 224.202 20.148H218.568ZM229.934 23.694V33H231.464V28.86C231.464 28.26 231.524 27.732 231.644 27.276C231.764 26.808 231.956 26.412 232.22 26.088C232.484 25.764 232.832 25.518 233.264 25.35C233.696 25.182 234.218 25.098 234.83 25.098V23.478C234.002 23.454 233.318 23.622 232.778 23.982C232.238 24.342 231.782 24.9 231.41 25.656H231.374V23.694H229.934ZM236.782 28.356C236.782 27.792 236.854 27.294 236.998 26.862C237.154 26.418 237.364 26.046 237.628 25.746C237.892 25.446 238.198 25.218 238.546 25.062C238.906 24.906 239.284 24.828 239.68 24.828C240.076 24.828 240.448 24.906 240.796 25.062C241.156 25.218 241.468 25.446 241.732 25.746C241.996 26.046 242.2 26.418 242.344 26.862C242.5 27.294 242.578 27.792 242.578 28.356C242.578 28.92 242.5 29.424 242.344 29.868C242.2 30.3 241.996 30.666 241.732 30.966C241.468 31.254 241.156 31.476 240.796 31.632C240.448 31.788 240.076 31.866 239.68 31.866C239.284 31.866 238.906 31.788 238.546 31.632C238.198 31.476 237.892 31.254 237.628 30.966C237.364 30.666 237.154 30.3 236.998 29.868C236.854 29.424 236.782 28.92 236.782 28.356ZM235.162 28.356C235.162 29.04 235.258 29.676 235.45 30.264C235.642 30.852 235.93 31.368 236.314 31.812C236.698 32.244 237.172 32.586 237.736 32.838C238.3 33.078 238.948 33.198 239.68 33.198C240.424 33.198 241.072 33.078 241.624 32.838C242.188 32.586 242.662 32.244 243.046 31.812C243.43 31.368 243.718 30.852 243.91 30.264C244.102 29.676 244.198 29.04 244.198 28.356C244.198 27.672 244.102 27.036 243.91 26.448C243.718 25.848 243.43 25.332 243.046 24.9C242.662 24.456 242.188 24.108 241.624 23.856C241.072 23.604 240.424 23.478 239.68 23.478C238.948 23.478 238.3 23.604 237.736 23.856C237.172 24.108 236.698 24.456 236.314 24.9C235.93 25.332 235.642 25.848 235.45 26.448C235.258 27.036 235.162 27.672 235.162 28.356ZM251.42 33H252.95V23.694H251.42V33ZM251.42 22.02H252.95V20.148H251.42V22.02ZM246.632 25.044V33H248.162V25.044H249.962V23.694H248.162V22.398C248.162 21.99 248.264 21.714 248.468 21.57C248.672 21.426 248.96 21.354 249.332 21.354C249.464 21.354 249.608 21.366 249.764 21.39C249.92 21.402 250.064 21.432 250.196 21.48V20.148C250.052 20.1 249.884 20.064 249.692 20.04C249.512 20.016 249.35 20.004 249.206 20.004C248.366 20.004 247.724 20.202 247.28 20.598C246.848 20.982 246.632 21.552 246.632 22.308V23.694H245.066V25.044H246.632ZM255.408 20.148V33H256.938V20.148H255.408ZM265.77 27.456H260.424C260.448 27.096 260.526 26.76 260.658 26.448C260.79 26.124 260.97 25.842 261.198 25.602C261.426 25.362 261.696 25.176 262.008 25.044C262.332 24.9 262.692 24.828 263.088 24.828C263.472 24.828 263.82 24.9 264.132 25.044C264.456 25.176 264.732 25.362 264.96 25.602C265.2 25.83 265.386 26.106 265.518 26.43C265.662 26.754 265.746 27.096 265.77 27.456ZM267.246 30.048H265.734C265.602 30.66 265.326 31.116 264.906 31.416C264.498 31.716 263.97 31.866 263.322 31.866C262.818 31.866 262.38 31.782 262.008 31.614C261.636 31.446 261.33 31.224 261.09 30.948C260.85 30.66 260.676 30.336 260.568 29.976C260.46 29.604 260.412 29.214 260.424 28.806H267.39C267.414 28.242 267.36 27.648 267.228 27.024C267.108 26.4 266.88 25.824 266.544 25.296C266.22 24.768 265.782 24.336 265.23 24C264.69 23.652 264.006 23.478 263.178 23.478C262.542 23.478 261.954 23.598 261.414 23.838C260.886 24.078 260.424 24.414 260.028 24.846C259.644 25.278 259.344 25.788 259.128 26.376C258.912 26.964 258.804 27.612 258.804 28.32C258.828 29.028 258.93 29.682 259.11 30.282C259.302 30.882 259.584 31.398 259.956 31.83C260.328 32.262 260.784 32.598 261.324 32.838C261.876 33.078 262.524 33.198 263.268 33.198C264.324 33.198 265.2 32.934 265.896 32.406C266.592 31.878 267.042 31.092 267.246 30.048ZM279.242 33V20.238H278.072C277.988 20.718 277.832 21.114 277.604 21.426C277.376 21.738 277.094 21.984 276.758 22.164C276.434 22.344 276.068 22.47 275.66 22.542C275.252 22.602 274.832 22.632 274.4 22.632V23.856H277.712V33H279.242Z" fill="white"/>
<path d="M220.278 231.304V226.588H223.626C224.598 226.588 225.306 226.792 225.75 227.2C226.206 227.596 226.434 228.178 226.434 228.946C226.434 229.714 226.206 230.302 225.75 230.71C225.306 231.118 224.598 231.316 223.626 231.304H220.278ZM218.568 225.148V238H220.278V232.744H224.202C225.498 232.756 226.476 232.426 227.136 231.754C227.808 231.082 228.144 230.146 228.144 228.946C228.144 227.746 227.808 226.816 227.136 226.156C226.476 225.484 225.498 225.148 224.202 225.148H218.568ZM229.934 228.694V238H231.464V233.86C231.464 233.26 231.524 232.732 231.644 232.276C231.764 231.808 231.956 231.412 232.22 231.088C232.484 230.764 232.832 230.518 233.264 230.35C233.696 230.182 234.218 230.098 234.83 230.098V228.478C234.002 228.454 233.318 228.622 232.778 228.982C232.238 229.342 231.782 229.9 231.41 230.656H231.374V228.694H229.934ZM236.782 233.356C236.782 232.792 236.854 232.294 236.998 231.862C237.154 231.418 237.364 231.046 237.628 230.746C237.892 230.446 238.198 230.218 238.546 230.062C238.906 229.906 239.284 229.828 239.68 229.828C240.076 229.828 240.448 229.906 240.796 230.062C241.156 230.218 241.468 230.446 241.732 230.746C241.996 231.046 242.2 231.418 242.344 231.862C242.5 232.294 242.578 232.792 242.578 233.356C242.578 233.92 242.5 234.424 242.344 234.868C242.2 235.3 241.996 235.666 241.732 235.966C241.468 236.254 241.156 236.476 240.796 236.632C240.448 236.788 240.076 236.866 239.68 236.866C239.284 236.866 238.906 236.788 238.546 236.632C238.198 236.476 237.892 236.254 237.628 235.966C237.364 235.666 237.154 235.3 236.998 234.868C236.854 234.424 236.782 233.92 236.782 233.356ZM235.162 233.356C235.162 234.04 235.258 234.676 235.45 235.264C235.642 235.852 235.93 236.368 236.314 236.812C236.698 237.244 237.172 237.586 237.736 237.838C238.3 238.078 238.948 238.198 239.68 238.198C240.424 238.198 241.072 238.078 241.624 237.838C242.188 237.586 242.662 237.244 243.046 236.812C243.43 236.368 243.718 235.852 243.91 235.264C244.102 234.676 244.198 234.04 244.198 233.356C244.198 232.672 244.102 232.036 243.91 231.448C243.718 230.848 243.43 230.332 243.046 229.9C242.662 229.456 242.188 229.108 241.624 228.856C241.072 228.604 240.424 228.478 239.68 228.478C238.948 228.478 238.3 228.604 237.736 228.856C237.172 229.108 236.698 229.456 236.314 229.9C235.93 230.332 235.642 230.848 235.45 231.448C235.258 232.036 235.162 232.672 235.162 233.356ZM251.42 238H252.95V228.694H251.42V238ZM251.42 227.02H252.95V225.148H251.42V227.02ZM246.632 230.044V238H248.162V230.044H249.962V228.694H248.162V227.398C248.162 226.99 248.264 226.714 248.468 226.57C248.672 226.426 248.96 226.354 249.332 226.354C249.464 226.354 249.608 226.366 249.764 226.39C249.92 226.402 250.064 226.432 250.196 226.48V225.148C250.052 225.1 249.884 225.064 249.692 225.04C249.512 225.016 249.35 225.004 249.206 225.004C248.366 225.004 247.724 225.202 247.28 225.598C246.848 225.982 246.632 226.552 246.632 227.308V228.694H245.066V230.044H246.632ZM255.408 225.148V238H256.938V225.148H255.408ZM265.77 232.456H260.424C260.448 232.096 260.526 231.76 260.658 231.448C260.79 231.124 260.97 230.842 261.198 230.602C261.426 230.362 261.696 230.176 262.008 230.044C262.332 229.9 262.692 229.828 263.088 229.828C263.472 229.828 263.82 229.9 264.132 230.044C264.456 230.176 264.732 230.362 264.96 230.602C265.2 230.83 265.386 231.106 265.518 231.43C265.662 231.754 265.746 232.096 265.77 232.456ZM267.246 235.048H265.734C265.602 235.66 265.326 236.116 264.906 236.416C264.498 236.716 263.97 236.866 263.322 236.866C262.818 236.866 262.38 236.782 262.008 236.614C261.636 236.446 261.33 236.224 261.09 235.948C260.85 235.66 260.676 235.336 260.568 234.976C260.46 234.604 260.412 234.214 260.424 233.806H267.39C267.414 233.242 267.36 232.648 267.228 232.024C267.108 231.4 266.88 230.824 266.544 230.296C266.22 229.768 265.782 229.336 265.23 229C264.69 228.652 264.006 228.478 263.178 228.478C262.542 228.478 261.954 228.598 261.414 228.838C260.886 229.078 260.424 229.414 260.028 229.846C259.644 230.278 259.344 230.788 259.128 231.376C258.912 231.964 258.804 232.612 258.804 233.32C258.828 234.028 258.93 234.682 259.11 235.282C259.302 235.882 259.584 236.398 259.956 236.83C260.328 237.262 260.784 237.598 261.324 237.838C261.876 238.078 262.524 238.198 263.268 238.198C264.324 238.198 265.2 237.934 265.896 237.406C266.592 236.878 267.042 236.092 267.246 235.048ZM276.758 230.71V232.006C277.046 231.97 277.352 231.952 277.676 231.952C278.06 231.952 278.414 232.006 278.738 232.114C279.074 232.21 279.362 232.366 279.602 232.582C279.842 232.786 280.034 233.044 280.178 233.356C280.322 233.656 280.394 234.004 280.394 234.4C280.394 234.784 280.316 235.132 280.16 235.444C280.016 235.744 279.818 236.002 279.566 236.218C279.314 236.422 279.02 236.584 278.684 236.704C278.348 236.812 277.994 236.866 277.622 236.866C276.746 236.866 276.08 236.608 275.624 236.092C275.168 235.564 274.928 234.886 274.904 234.058H273.374C273.362 234.718 273.452 235.306 273.644 235.822C273.848 236.338 274.136 236.776 274.508 237.136C274.88 237.484 275.33 237.748 275.858 237.928C276.386 238.108 276.974 238.198 277.622 238.198C278.222 238.198 278.786 238.12 279.314 237.964C279.854 237.796 280.322 237.55 280.718 237.226C281.114 236.902 281.426 236.5 281.654 236.02C281.894 235.528 282.014 234.964 282.014 234.328C282.014 233.56 281.822 232.894 281.438 232.33C281.066 231.766 280.49 231.4 279.71 231.232V231.196C280.214 230.968 280.634 230.632 280.97 230.188C281.306 229.744 281.474 229.234 281.474 228.658C281.474 228.07 281.372 227.56 281.168 227.128C280.976 226.696 280.706 226.342 280.358 226.066C280.01 225.79 279.596 225.586 279.116 225.454C278.648 225.31 278.138 225.238 277.586 225.238C276.95 225.238 276.386 225.34 275.894 225.544C275.414 225.748 275.012 226.03 274.688 226.39C274.364 226.75 274.112 227.182 273.932 227.686C273.764 228.19 273.668 228.748 273.644 229.36H275.174C275.174 228.988 275.222 228.634 275.318 228.298C275.414 227.962 275.558 227.668 275.75 227.416C275.954 227.164 276.206 226.966 276.506 226.822C276.818 226.666 277.178 226.588 277.586 226.588C278.234 226.588 278.774 226.762 279.206 227.11C279.638 227.446 279.854 227.956 279.854 228.64C279.854 228.976 279.788 229.276 279.656 229.54C279.524 229.804 279.344 230.026 279.116 230.206C278.9 230.374 278.642 230.506 278.342 230.602C278.054 230.686 277.748 230.728 277.424 230.728H277.1C277.04 230.728 276.98 230.728 276.92 230.728C276.872 230.728 276.818 230.722 276.758 230.71Z" fill="white"/>
<path d="M59.2781 188.304V183.588H62.6261C63.5981 183.588 64.3061 183.792 64.7501 184.2C65.2061 184.596 65.4341 185.178 65.4341 185.946C65.4341 186.714 65.2061 187.302 64.7501 187.71C64.3061 188.118 63.5981 188.316 62.6261 188.304H59.2781ZM57.5681 182.148V195H59.2781V189.744H63.2021C64.4981 189.756 65.4761 189.426 66.1361 188.754C66.8081 188.082 67.1441 187.146 67.1441 185.946C67.1441 184.746 66.8081 183.816 66.1361 183.156C65.4761 182.484 64.4981 182.148 63.2021 182.148H57.5681ZM68.9339 185.694V195H70.4639V190.86C70.4639 190.26 70.5239 189.732 70.6439 189.276C70.7639 188.808 70.9559 188.412 71.2199 188.088C71.4839 187.764 71.8319 187.518 72.2639 187.35C72.6959 187.182 73.2179 187.098 73.8299 187.098V185.478C73.0019 185.454 72.3179 185.622 71.7779 185.982C71.2379 186.342 70.7819 186.9 70.4099 187.656H70.3739V185.694H68.9339ZM75.7817 190.356C75.7817 189.792 75.8537 189.294 75.9977 188.862C76.1537 188.418 76.3637 188.046 76.6277 187.746C76.8917 187.446 77.1977 187.218 77.5457 187.062C77.9057 186.906 78.2837 186.828 78.6797 186.828C79.0757 186.828 79.4477 186.906 79.7957 187.062C80.1557 187.218 80.4677 187.446 80.7317 187.746C80.9957 188.046 81.1997 188.418 81.3437 188.862C81.4997 189.294 81.5777 189.792 81.5777 190.356C81.5777 190.92 81.4997 191.424 81.3437 191.868C81.1997 192.3 80.9957 192.666 80.7317 192.966C80.4677 193.254 80.1557 193.476 79.7957 193.632C79.4477 193.788 79.0757 193.866 78.6797 193.866C78.2837 193.866 77.9057 193.788 77.5457 193.632C77.1977 193.476 76.8917 193.254 76.6277 192.966C76.3637 192.666 76.1537 192.3 75.9977 191.868C75.8537 191.424 75.7817 190.92 75.7817 190.356ZM74.1617 190.356C74.1617 191.04 74.2577 191.676 74.4497 192.264C74.6417 192.852 74.9297 193.368 75.3137 193.812C75.6977 194.244 76.1717 194.586 76.7357 194.838C77.2997 195.078 77.9477 195.198 78.6797 195.198C79.4237 195.198 80.0717 195.078 80.6237 194.838C81.1877 194.586 81.6617 194.244 82.0457 193.812C82.4297 193.368 82.7177 192.852 82.9097 192.264C83.1017 191.676 83.1977 191.04 83.1977 190.356C83.1977 189.672 83.1017 189.036 82.9097 188.448C82.7177 187.848 82.4297 187.332 82.0457 186.9C81.6617 186.456 81.1877 186.108 80.6237 185.856C80.0717 185.604 79.4237 185.478 78.6797 185.478C77.9477 185.478 77.2997 185.604 76.7357 185.856C76.1717 186.108 75.6977 186.456 75.3137 186.9C74.9297 187.332 74.6417 187.848 74.4497 188.448C74.2577 189.036 74.1617 189.672 74.1617 190.356ZM90.4196 195H91.9496V185.694H90.4196V195ZM90.4196 184.02H91.9496V182.148H90.4196V184.02ZM85.6316 187.044V195H87.1616V187.044H88.9616V185.694H87.1616V184.398C87.1616 183.99 87.2636 183.714 87.4676 183.57C87.6716 183.426 87.9596 183.354 88.3316 183.354C88.4636 183.354 88.6076 183.366 88.7636 183.39C88.9196 183.402 89.0636 183.432 89.1956 183.48V182.148C89.0516 182.1 88.8836 182.064 88.6916 182.04C88.5116 182.016 88.3496 182.004 88.2056 182.004C87.3656 182.004 86.7236 182.202 86.2796 182.598C85.8476 182.982 85.6316 183.552 85.6316 184.308V185.694H84.0656V187.044H85.6316ZM94.408 182.148V195H95.938V182.148H94.408ZM104.77 189.456H99.4243C99.4483 189.096 99.5263 188.76 99.6583 188.448C99.7903 188.124 99.9703 187.842 100.198 187.602C100.426 187.362 100.696 187.176 101.008 187.044C101.332 186.9 101.692 186.828 102.088 186.828C102.472 186.828 102.82 186.9 103.132 187.044C103.456 187.176 103.732 187.362 103.96 187.602C104.2 187.83 104.386 188.106 104.518 188.43C104.662 188.754 104.746 189.096 104.77 189.456ZM106.246 192.048H104.734C104.602 192.66 104.326 193.116 103.906 193.416C103.498 193.716 102.97 193.866 102.322 193.866C101.818 193.866 101.38 193.782 101.008 193.614C100.636 193.446 100.33 193.224 100.09 192.948C99.8503 192.66 99.6763 192.336 99.5683 191.976C99.4603 191.604 99.4123 191.214 99.4243 190.806H106.39C106.414 190.242 106.36 189.648 106.228 189.024C106.108 188.4 105.88 187.824 105.544 187.296C105.22 186.768 104.782 186.336 104.23 186C103.69 185.652 103.006 185.478 102.178 185.478C101.542 185.478 100.954 185.598 100.414 185.838C99.8863 186.078 99.4243 186.414 99.0283 186.846C98.6443 187.278 98.3443 187.788 98.1283 188.376C97.9123 188.964 97.8043 189.612 97.8043 190.32C97.8283 191.028 97.9303 191.682 98.1103 192.282C98.3023 192.882 98.5843 193.398 98.9563 193.83C99.3283 194.262 99.7843 194.598 100.324 194.838C100.876 195.078 101.524 195.198 102.268 195.198C103.324 195.198 104.2 194.934 104.896 194.406C105.592 193.878 106.042 193.092 106.246 192.048ZM117.936 190.662H113.652L117.9 184.416H117.936V190.662ZM119.376 190.662V182.238H118.152L112.338 190.536V192.012H117.936V195H119.376V192.012H121.104V190.662H119.376Z" fill="white"/>
<path d="M222.751 261.512V260.636H217.243V261.596H221.707C221.259 262.068 220.839 262.584 220.447 263.144C220.063 263.704 219.723 264.3 219.427 264.932C219.131 265.556 218.887 266.212 218.695 266.9C218.511 267.58 218.395 268.28 218.347 269H219.487C219.527 268.336 219.639 267.652 219.823 266.948C220.007 266.244 220.243 265.56 220.531 264.896C220.827 264.232 221.163 263.608 221.539 263.024C221.915 262.44 222.319 261.936 222.751 261.512ZM224.307 267.668V269H225.015C225.023 269.096 225.015 269.2 224.991 269.312C224.975 269.424 224.939 269.532 224.883 269.636C224.827 269.748 224.751 269.848 224.655 269.936C224.567 270.032 224.455 270.104 224.319 270.152V270.752C224.783 270.616 225.119 270.384 225.327 270.056C225.535 269.728 225.639 269.336 225.639 268.88V267.668H224.307ZM232.606 264.14V265.004C232.798 264.98 233.002 264.968 233.218 264.968C233.474 264.968 233.71 265.004 233.926 265.076C234.15 265.14 234.342 265.244 234.502 265.388C234.662 265.524 234.79 265.696 234.886 265.904C234.982 266.104 235.03 266.336 235.03 266.6C235.03 266.856 234.978 267.088 234.874 267.296C234.778 267.496 234.646 267.668 234.478 267.812C234.31 267.948 234.114 268.056 233.89 268.136C233.666 268.208 233.43 268.244 233.182 268.244C232.598 268.244 232.154 268.072 231.85 267.728C231.546 267.376 231.386 266.924 231.37 266.372H230.35C230.342 266.812 230.402 267.204 230.53 267.548C230.666 267.892 230.858 268.184 231.106 268.424C231.354 268.656 231.654 268.832 232.006 268.952C232.358 269.072 232.75 269.132 233.182 269.132C233.582 269.132 233.958 269.08 234.31 268.976C234.67 268.864 234.982 268.7 235.246 268.484C235.51 268.268 235.718 268 235.87 267.68C236.03 267.352 236.11 266.976 236.11 266.552C236.11 266.04 235.982 265.596 235.726 265.22C235.478 264.844 235.094 264.6 234.574 264.488V264.464C234.91 264.312 235.19 264.088 235.414 263.792C235.638 263.496 235.75 263.156 235.75 262.772C235.75 262.38 235.682 262.04 235.546 261.752C235.418 261.464 235.238 261.228 235.006 261.044C234.774 260.86 234.498 260.724 234.178 260.636C233.866 260.54 233.526 260.492 233.158 260.492C232.734 260.492 232.358 260.56 232.03 260.696C231.71 260.832 231.442 261.02 231.226 261.26C231.01 261.5 230.842 261.788 230.722 262.124C230.61 262.46 230.546 262.832 230.53 263.24H231.55C231.55 262.992 231.582 262.756 231.646 262.532C231.71 262.308 231.806 262.112 231.934 261.944C232.07 261.776 232.238 261.644 232.438 261.548C232.646 261.444 232.886 261.392 233.158 261.392C233.59 261.392 233.95 261.508 234.238 261.74C234.526 261.964 234.67 262.304 234.67 262.76C234.67 262.984 234.626 263.184 234.538 263.36C234.45 263.536 234.33 263.684 234.178 263.804C234.034 263.916 233.862 264.004 233.662 264.068C233.47 264.124 233.266 264.152 233.05 264.152H232.834C232.794 264.152 232.754 264.152 232.714 264.152C232.682 264.152 232.646 264.148 232.606 264.14ZM240.93 269V260.492H240.15C240.094 260.812 239.99 261.076 239.838 261.284C239.686 261.492 239.498 261.656 239.274 261.776C239.058 261.896 238.814 261.98 238.542 262.028C238.27 262.068 237.99 262.088 237.702 262.088V262.904H239.91V269H240.93ZM244.322 267.668V269H245.03C245.038 269.096 245.03 269.2 245.006 269.312C244.99 269.424 244.954 269.532 244.898 269.636C244.842 269.748 244.766 269.848 244.67 269.936C244.582 270.032 244.47 270.104 244.334 270.152V270.752C244.798 270.616 245.134 270.384 245.342 270.056C245.55 269.728 245.654 269.336 245.654 268.88V267.668H244.322ZM254.278 269V260.492H253.498C253.442 260.812 253.338 261.076 253.186 261.284C253.034 261.492 252.846 261.656 252.622 261.776C252.406 261.896 252.162 261.98 251.89 262.028C251.618 262.068 251.338 262.088 251.05 262.088V262.904H253.258V269H254.278ZM262.782 261.512V260.636H257.274V261.596H261.738C261.29 262.068 260.87 262.584 260.478 263.144C260.094 263.704 259.754 264.3 259.458 264.932C259.162 265.556 258.918 266.212 258.726 266.9C258.542 267.58 258.426 268.28 258.378 269H259.518C259.558 268.336 259.67 267.652 259.854 266.948C260.038 266.244 260.274 265.56 260.562 264.896C260.858 264.232 261.194 263.608 261.57 263.024C261.946 262.44 262.35 261.936 262.782 261.512ZM264.338 267.668V269H265.046C265.054 269.096 265.046 269.2 265.022 269.312C265.006 269.424 264.97 269.532 264.914 269.636C264.858 269.748 264.782 269.848 264.686 269.936C264.598 270.032 264.486 270.104 264.35 270.152V270.752C264.814 270.616 265.15 270.384 265.358 270.056C265.566 269.728 265.67 269.336 265.67 268.88V267.668H264.338ZM270.549 263.504H271.569C271.561 263.248 271.585 262.996 271.641 262.748C271.705 262.492 271.805 262.264 271.941 262.064C272.077 261.864 272.249 261.704 272.457 261.584C272.673 261.456 272.929 261.392 273.225 261.392C273.449 261.392 273.661 261.428 273.861 261.5C274.061 261.572 274.233 261.676 274.377 261.812C274.529 261.948 274.649 262.112 274.737 262.304C274.825 262.488 274.869 262.696 274.869 262.928C274.869 263.224 274.821 263.484 274.725 263.708C274.637 263.932 274.501 264.14 274.317 264.332C274.141 264.524 273.917 264.716 273.645 264.908C273.373 265.092 273.057 265.296 272.697 265.52C272.401 265.696 272.117 265.884 271.845 266.084C271.573 266.284 271.329 266.516 271.113 266.78C270.897 267.044 270.717 267.356 270.573 267.716C270.437 268.068 270.349 268.496 270.309 269H275.865V268.1H271.497C271.545 267.836 271.645 267.604 271.797 267.404C271.957 267.196 272.145 267.004 272.361 266.828C272.585 266.652 272.829 266.488 273.093 266.336C273.357 266.176 273.621 266.016 273.885 265.856C274.149 265.688 274.405 265.512 274.653 265.328C274.901 265.144 275.121 264.94 275.313 264.716C275.505 264.484 275.657 264.224 275.769 263.936C275.889 263.648 275.949 263.316 275.949 262.94C275.949 262.54 275.877 262.188 275.733 261.884C275.597 261.58 275.409 261.328 275.169 261.128C274.929 260.92 274.645 260.764 274.317 260.66C273.997 260.548 273.653 260.492 273.285 260.492C272.837 260.492 272.437 260.568 272.085 260.72C271.733 260.872 271.437 261.084 271.197 261.356C270.965 261.62 270.793 261.936 270.681 262.304C270.569 262.672 270.525 263.072 270.549 263.504ZM280.961 269V260.492H280.181C280.125 260.812 280.021 261.076 279.869 261.284C279.717 261.492 279.529 261.656 279.305 261.776C279.089 261.896 278.845 261.98 278.573 262.028C278.301 262.068 278.021 262.088 277.733 262.088V262.904H279.941V269H280.961Z" fill="white"/>
<path d="M412 206L415.368 216.365H426.266L417.449 222.771L420.817 233.135L412 226.729L403.183 233.135L406.551 222.771L397.734 216.365H408.632L412 206Z" fill="#B56576"/>
<path d="M249 458L252.368 468.365H263.266L254.449 474.771L257.817 485.135L249 478.729L240.183 485.135L243.551 474.771L234.734 468.365H245.632L249 458Z" fill="#B56576"/>
<path d="M202.5 515L204.743 521.875H212L206.129 526.125L208.371 533L202.5 528.751L196.629 533L198.871 526.125L193 521.875H200.257L202.5 515Z" fill="#B56576"/>
<path d="M217.953 523.288V529H218.673V524.248H218.689L220.473 529H221.121L222.905 524.248H222.921V529H223.641V523.288H222.601L220.793 528.088L218.993 523.288H217.953ZM225.289 526.936C225.289 526.685 225.321 526.464 225.385 526.272C225.455 526.075 225.548 525.909 225.665 525.776C225.783 525.643 225.919 525.541 226.073 525.472C226.233 525.403 226.401 525.368 226.577 525.368C226.753 525.368 226.919 525.403 227.073 525.472C227.233 525.541 227.372 525.643 227.489 525.776C227.607 525.909 227.697 526.075 227.761 526.272C227.831 526.464 227.865 526.685 227.865 526.936C227.865 527.187 227.831 527.411 227.761 527.608C227.697 527.8 227.607 527.963 227.489 528.096C227.372 528.224 227.233 528.323 227.073 528.392C226.919 528.461 226.753 528.496 226.577 528.496C226.401 528.496 226.233 528.461 226.073 528.392C225.919 528.323 225.783 528.224 225.665 528.096C225.548 527.963 225.455 527.8 225.385 527.608C225.321 527.411 225.289 527.187 225.289 526.936ZM224.569 526.936C224.569 527.24 224.612 527.523 224.697 527.784C224.783 528.045 224.911 528.275 225.081 528.472C225.252 528.664 225.463 528.816 225.713 528.928C225.964 529.035 226.252 529.088 226.577 529.088C226.908 529.088 227.196 529.035 227.441 528.928C227.692 528.816 227.903 528.664 228.073 528.472C228.244 528.275 228.372 528.045 228.457 527.784C228.543 527.523 228.585 527.24 228.585 526.936C228.585 526.632 228.543 526.349 228.457 526.088C228.372 525.821 228.244 525.592 228.073 525.4C227.903 525.203 227.692 525.048 227.441 524.936C227.196 524.824 226.908 524.768 226.577 524.768C226.252 524.768 225.964 524.824 225.713 524.936C225.463 525.048 225.252 525.203 225.081 525.4C224.911 525.592 224.783 525.821 224.697 526.088C224.612 526.349 224.569 526.632 224.569 526.936ZM229.803 527.696H229.123C229.134 527.952 229.187 528.171 229.283 528.352C229.379 528.528 229.507 528.672 229.667 528.784C229.827 528.891 230.011 528.968 230.219 529.016C230.427 529.064 230.646 529.088 230.875 529.088C231.083 529.088 231.291 529.067 231.499 529.024C231.712 528.987 231.902 528.917 232.067 528.816C232.238 528.715 232.374 528.581 232.475 528.416C232.582 528.251 232.635 528.043 232.635 527.792C232.635 527.595 232.595 527.429 232.515 527.296C232.44 527.163 232.339 527.053 232.211 526.968C232.088 526.877 231.944 526.805 231.779 526.752C231.619 526.699 231.454 526.653 231.283 526.616C231.123 526.579 230.963 526.544 230.803 526.512C230.643 526.475 230.499 526.432 230.371 526.384C230.243 526.331 230.136 526.267 230.051 526.192C229.971 526.112 229.931 526.013 229.931 525.896C229.931 525.789 229.958 525.704 230.011 525.64C230.064 525.571 230.134 525.517 230.219 525.48C230.304 525.437 230.398 525.408 230.499 525.392C230.606 525.376 230.71 525.368 230.811 525.368C230.923 525.368 231.032 525.381 231.139 525.408C231.251 525.429 231.352 525.467 231.443 525.52C231.534 525.573 231.608 525.645 231.667 525.736C231.726 525.821 231.76 525.931 231.771 526.064H232.451C232.435 525.813 232.382 525.605 232.291 525.44C232.2 525.269 232.078 525.136 231.923 525.04C231.774 524.939 231.6 524.869 231.403 524.832C231.206 524.789 230.99 524.768 230.755 524.768C230.574 524.768 230.39 524.792 230.203 524.84C230.022 524.883 229.856 524.952 229.707 525.048C229.563 525.139 229.443 525.259 229.347 525.408C229.256 525.557 229.211 525.736 229.211 525.944C229.211 526.211 229.278 526.419 229.411 526.568C229.544 526.717 229.71 526.835 229.907 526.92C230.11 527 230.328 527.064 230.563 527.112C230.798 527.155 231.014 527.205 231.211 527.264C231.414 527.317 231.582 527.389 231.715 527.48C231.848 527.571 231.915 527.704 231.915 527.88C231.915 528.008 231.883 528.115 231.819 528.2C231.755 528.28 231.672 528.341 231.571 528.384C231.475 528.427 231.368 528.456 231.251 528.472C231.134 528.488 231.022 528.496 230.915 528.496C230.776 528.496 230.64 528.483 230.507 528.456C230.379 528.429 230.262 528.387 230.155 528.328C230.054 528.264 229.971 528.181 229.907 528.08C229.843 527.973 229.808 527.845 229.803 527.696ZM234.331 524.864V523.624H233.651V524.864H232.947V525.464H233.651V528.096C233.651 528.288 233.67 528.443 233.707 528.56C233.744 528.677 233.8 528.768 233.875 528.832C233.955 528.896 234.056 528.941 234.179 528.968C234.307 528.989 234.459 529 234.635 529H235.155V528.4H234.843C234.736 528.4 234.648 528.397 234.579 528.392C234.515 528.381 234.464 528.363 234.427 528.336C234.39 528.309 234.363 528.272 234.347 528.224C234.336 528.176 234.331 528.112 234.331 528.032V525.464H235.155V524.864H234.331ZM238.113 524.864V529H238.793V527.16C238.793 526.893 238.82 526.659 238.873 526.456C238.926 526.248 239.012 526.072 239.129 525.928C239.246 525.784 239.401 525.675 239.593 525.6C239.785 525.525 240.017 525.488 240.289 525.488V524.768C239.921 524.757 239.617 524.832 239.377 524.992C239.137 525.152 238.934 525.4 238.769 525.736H238.753V524.864H238.113ZM243.532 526.536H241.156C241.167 526.376 241.202 526.227 241.26 526.088C241.319 525.944 241.399 525.819 241.5 525.712C241.602 525.605 241.722 525.523 241.86 525.464C242.004 525.4 242.164 525.368 242.34 525.368C242.511 525.368 242.666 525.4 242.804 525.464C242.948 525.523 243.071 525.605 243.172 525.712C243.279 525.813 243.362 525.936 243.42 526.08C243.484 526.224 243.522 526.376 243.532 526.536ZM244.188 527.688H243.516C243.458 527.96 243.335 528.163 243.148 528.296C242.967 528.429 242.732 528.496 242.444 528.496C242.22 528.496 242.026 528.459 241.86 528.384C241.695 528.309 241.559 528.211 241.452 528.088C241.346 527.96 241.268 527.816 241.22 527.656C241.172 527.491 241.151 527.317 241.156 527.136H244.252C244.263 526.885 244.239 526.621 244.18 526.344C244.127 526.067 244.026 525.811 243.876 525.576C243.732 525.341 243.538 525.149 243.292 525C243.052 524.845 242.748 524.768 242.38 524.768C242.098 524.768 241.836 524.821 241.596 524.928C241.362 525.035 241.156 525.184 240.98 525.376C240.81 525.568 240.676 525.795 240.58 526.056C240.484 526.317 240.436 526.605 240.436 526.92C240.447 527.235 240.492 527.525 240.572 527.792C240.658 528.059 240.783 528.288 240.948 528.48C241.114 528.672 241.316 528.821 241.556 528.928C241.802 529.035 242.09 529.088 242.42 529.088C242.89 529.088 243.279 528.971 243.588 528.736C243.898 528.501 244.098 528.152 244.188 527.688ZM244.981 524.864V530.576H245.661V528.448H245.677C245.752 528.571 245.843 528.675 245.949 528.76C246.061 528.84 246.179 528.904 246.301 528.952C246.424 529 246.547 529.035 246.669 529.056C246.797 529.077 246.912 529.088 247.013 529.088C247.328 529.088 247.603 529.032 247.837 528.92C248.077 528.808 248.275 528.656 248.429 528.464C248.589 528.267 248.707 528.037 248.781 527.776C248.861 527.515 248.901 527.237 248.901 526.944C248.901 526.651 248.861 526.373 248.781 526.112C248.701 525.851 248.581 525.621 248.421 525.424C248.267 525.221 248.069 525.061 247.829 524.944C247.595 524.827 247.317 524.768 246.997 524.768C246.709 524.768 246.445 524.821 246.205 524.928C245.965 525.029 245.789 525.195 245.677 525.424H245.661V524.864H244.981ZM248.181 526.896C248.181 527.099 248.16 527.296 248.117 527.488C248.075 527.68 248.005 527.851 247.909 528C247.813 528.149 247.685 528.269 247.525 528.36C247.371 528.451 247.176 528.496 246.941 528.496C246.707 528.496 246.507 528.453 246.341 528.368C246.176 528.277 246.04 528.16 245.933 528.016C245.832 527.872 245.757 527.707 245.709 527.52C245.661 527.328 245.637 527.131 245.637 526.928C245.637 526.736 245.659 526.547 245.701 526.36C245.749 526.173 245.824 526.008 245.925 525.864C246.027 525.715 246.157 525.595 246.317 525.504C246.477 525.413 246.672 525.368 246.901 525.368C247.12 525.368 247.309 525.411 247.469 525.496C247.635 525.581 247.768 525.696 247.869 525.84C247.976 525.984 248.053 526.149 248.101 526.336C248.155 526.517 248.181 526.704 248.181 526.896ZM249.676 524.864V529H250.356V527.16C250.356 526.893 250.382 526.659 250.436 526.456C250.489 526.248 250.574 526.072 250.692 525.928C250.809 525.784 250.964 525.675 251.156 525.6C251.348 525.525 251.58 525.488 251.852 525.488V524.768C251.484 524.757 251.18 524.832 250.94 524.992C250.7 525.152 250.497 525.4 250.332 525.736H250.316V524.864H249.676ZM255.095 526.536H252.719C252.73 526.376 252.764 526.227 252.823 526.088C252.882 525.944 252.962 525.819 253.063 525.712C253.164 525.605 253.284 525.523 253.423 525.464C253.567 525.4 253.727 525.368 253.903 525.368C254.074 525.368 254.228 525.4 254.367 525.464C254.511 525.523 254.634 525.605 254.735 525.712C254.842 525.813 254.924 525.936 254.983 526.08C255.047 526.224 255.084 526.376 255.095 526.536ZM255.751 527.688H255.079C255.02 527.96 254.898 528.163 254.711 528.296C254.53 528.429 254.295 528.496 254.007 528.496C253.783 528.496 253.588 528.459 253.423 528.384C253.258 528.309 253.122 528.211 253.015 528.088C252.908 527.96 252.831 527.816 252.783 527.656C252.735 527.491 252.714 527.317 252.719 527.136H255.815C255.826 526.885 255.802 526.621 255.743 526.344C255.69 526.067 255.588 525.811 255.439 525.576C255.295 525.341 255.1 525.149 254.855 525C254.615 524.845 254.311 524.768 253.943 524.768C253.66 524.768 253.399 524.821 253.159 524.928C252.924 525.035 252.719 525.184 252.543 525.376C252.372 525.568 252.239 525.795 252.143 526.056C252.047 526.317 251.999 526.605 251.999 526.92C252.01 527.235 252.055 527.525 252.135 527.792C252.22 528.059 252.346 528.288 252.511 528.48C252.676 528.672 252.879 528.821 253.119 528.928C253.364 529.035 253.652 529.088 253.983 529.088C254.452 529.088 254.842 528.971 255.151 528.736C255.46 528.501 255.66 528.152 255.751 527.688ZM256.936 527.696H256.256C256.266 527.952 256.32 528.171 256.416 528.352C256.512 528.528 256.64 528.672 256.8 528.784C256.96 528.891 257.144 528.968 257.352 529.016C257.56 529.064 257.778 529.088 258.008 529.088C258.216 529.088 258.424 529.067 258.632 529.024C258.845 528.987 259.034 528.917 259.2 528.816C259.37 528.715 259.506 528.581 259.608 528.416C259.714 528.251 259.768 528.043 259.768 527.792C259.768 527.595 259.728 527.429 259.648 527.296C259.573 527.163 259.472 527.053 259.344 526.968C259.221 526.877 259.077 526.805 258.912 526.752C258.752 526.699 258.586 526.653 258.416 526.616C258.256 526.579 258.096 526.544 257.936 526.512C257.776 526.475 257.632 526.432 257.504 526.384C257.376 526.331 257.269 526.267 257.184 526.192C257.104 526.112 257.064 526.013 257.064 525.896C257.064 525.789 257.09 525.704 257.144 525.64C257.197 525.571 257.266 525.517 257.352 525.48C257.437 525.437 257.53 525.408 257.632 525.392C257.738 525.376 257.842 525.368 257.944 525.368C258.056 525.368 258.165 525.381 258.272 525.408C258.384 525.429 258.485 525.467 258.576 525.52C258.666 525.573 258.741 525.645 258.8 525.736C258.858 525.821 258.893 525.931 258.904 526.064H259.584C259.568 525.813 259.514 525.605 259.424 525.44C259.333 525.269 259.21 525.136 259.056 525.04C258.906 524.939 258.733 524.869 258.536 524.832C258.338 524.789 258.122 524.768 257.888 524.768C257.706 524.768 257.522 524.792 257.336 524.84C257.154 524.883 256.989 524.952 256.84 525.048C256.696 525.139 256.576 525.259 256.48 525.408C256.389 525.557 256.344 525.736 256.344 525.944C256.344 526.211 256.41 526.419 256.544 526.568C256.677 526.717 256.842 526.835 257.04 526.92C257.242 527 257.461 527.064 257.696 527.112C257.93 527.155 258.146 527.205 258.344 527.264C258.546 527.317 258.714 527.389 258.848 527.48C258.981 527.571 259.048 527.704 259.048 527.88C259.048 528.008 259.016 528.115 258.952 528.2C258.888 528.28 258.805 528.341 258.704 528.384C258.608 528.427 258.501 528.456 258.384 528.472C258.266 528.488 258.154 528.496 258.048 528.496C257.909 528.496 257.773 528.483 257.64 528.456C257.512 528.429 257.394 528.387 257.288 528.328C257.186 528.264 257.104 528.181 257.04 528.08C256.976 527.973 256.941 527.845 256.936 527.696ZM263.392 526.536H261.016C261.026 526.376 261.061 526.227 261.12 526.088C261.178 525.944 261.258 525.819 261.36 525.712C261.461 525.605 261.581 525.523 261.72 525.464C261.864 525.4 262.024 525.368 262.2 525.368C262.37 525.368 262.525 525.4 262.664 525.464C262.808 525.523 262.93 525.605 263.032 525.712C263.138 525.813 263.221 525.936 263.28 526.08C263.344 526.224 263.381 526.376 263.392 526.536ZM264.048 527.688H263.376C263.317 527.96 263.194 528.163 263.008 528.296C262.826 528.429 262.592 528.496 262.304 528.496C262.08 528.496 261.885 528.459 261.72 528.384C261.554 528.309 261.418 528.211 261.312 528.088C261.205 527.96 261.128 527.816 261.08 527.656C261.032 527.491 261.01 527.317 261.016 527.136H264.112C264.122 526.885 264.098 526.621 264.04 526.344C263.986 526.067 263.885 525.811 263.736 525.576C263.592 525.341 263.397 525.149 263.152 525C262.912 524.845 262.608 524.768 262.24 524.768C261.957 524.768 261.696 524.821 261.456 524.928C261.221 525.035 261.016 525.184 260.84 525.376C260.669 525.568 260.536 525.795 260.44 526.056C260.344 526.317 260.296 526.605 260.296 526.92C260.306 527.235 260.352 527.525 260.432 527.792C260.517 528.059 260.642 528.288 260.808 528.48C260.973 528.672 261.176 528.821 261.416 528.928C261.661 529.035 261.949 529.088 262.28 529.088C262.749 529.088 263.138 528.971 263.448 528.736C263.757 528.501 263.957 528.152 264.048 527.688ZM264.817 524.864V529H265.497V526.664C265.497 526.477 265.521 526.307 265.569 526.152C265.622 525.992 265.699 525.853 265.801 525.736C265.902 525.619 266.027 525.528 266.177 525.464C266.331 525.4 266.513 525.368 266.721 525.368C266.982 525.368 267.187 525.443 267.337 525.592C267.486 525.741 267.561 525.944 267.561 526.2V529H268.241V526.28C268.241 526.056 268.217 525.853 268.169 525.672C268.126 525.485 268.049 525.325 267.937 525.192C267.825 525.059 267.678 524.955 267.497 524.88C267.315 524.805 267.089 524.768 266.817 524.768C266.203 524.768 265.755 525.019 265.473 525.52H265.457V524.864H264.817ZM270.206 524.864V523.624H269.526V524.864H268.822V525.464H269.526V528.096C269.526 528.288 269.545 528.443 269.582 528.56C269.619 528.677 269.675 528.768 269.75 528.832C269.83 528.896 269.931 528.941 270.054 528.968C270.182 528.989 270.334 529 270.51 529H271.03V528.4H270.718C270.611 528.4 270.523 528.397 270.454 528.392C270.39 528.381 270.339 528.363 270.302 528.336C270.265 528.309 270.238 528.272 270.222 528.224C270.211 528.176 270.206 528.112 270.206 528.032V525.464H271.03V524.864H270.206ZM275.449 528.984C275.332 529.053 275.169 529.088 274.961 529.088C274.785 529.088 274.644 529.04 274.537 528.944C274.436 528.843 274.385 528.68 274.385 528.456C274.199 528.68 273.98 528.843 273.729 528.944C273.484 529.04 273.217 529.088 272.929 529.088C272.743 529.088 272.564 529.067 272.393 529.024C272.228 528.981 272.084 528.915 271.961 528.824C271.839 528.733 271.74 528.616 271.665 528.472C271.596 528.323 271.561 528.144 271.561 527.936C271.561 527.701 271.601 527.509 271.681 527.36C271.761 527.211 271.865 527.091 271.993 527C272.127 526.904 272.276 526.832 272.441 526.784C272.612 526.736 272.785 526.696 272.961 526.664C273.148 526.627 273.324 526.6 273.489 526.584C273.66 526.563 273.809 526.536 273.937 526.504C274.065 526.467 274.167 526.416 274.241 526.352C274.316 526.283 274.353 526.184 274.353 526.056C274.353 525.907 274.324 525.787 274.265 525.696C274.212 525.605 274.14 525.536 274.049 525.488C273.964 525.44 273.865 525.408 273.753 525.392C273.647 525.376 273.54 525.368 273.433 525.368C273.145 525.368 272.905 525.424 272.713 525.536C272.521 525.643 272.417 525.848 272.401 526.152H271.721C271.732 525.896 271.785 525.68 271.881 525.504C271.977 525.328 272.105 525.187 272.265 525.08C272.425 524.968 272.607 524.888 272.809 524.84C273.017 524.792 273.239 524.768 273.473 524.768C273.66 524.768 273.844 524.781 274.025 524.808C274.212 524.835 274.38 524.891 274.529 524.976C274.679 525.056 274.799 525.171 274.889 525.32C274.98 525.469 275.025 525.664 275.025 525.904V528.032C275.025 528.192 275.033 528.309 275.049 528.384C275.071 528.459 275.135 528.496 275.241 528.496C275.3 528.496 275.369 528.483 275.449 528.456V528.984ZM274.345 526.864C274.26 526.928 274.148 526.976 274.009 527.008C273.871 527.035 273.724 527.059 273.569 527.08C273.42 527.096 273.268 527.117 273.113 527.144C272.959 527.165 272.82 527.203 272.697 527.256C272.575 527.309 272.473 527.387 272.393 527.488C272.319 527.584 272.281 527.717 272.281 527.888C272.281 528 272.303 528.096 272.345 528.176C272.393 528.251 272.452 528.312 272.521 528.36C272.596 528.408 272.681 528.443 272.777 528.464C272.873 528.485 272.975 528.496 273.081 528.496C273.305 528.496 273.497 528.467 273.657 528.408C273.817 528.344 273.948 528.267 274.049 528.176C274.151 528.08 274.225 527.979 274.273 527.872C274.321 527.76 274.345 527.656 274.345 527.56V526.864ZM277.026 524.864V523.624H276.346V524.864H275.642V525.464H276.346V528.096C276.346 528.288 276.365 528.443 276.402 528.56C276.44 528.677 276.496 528.768 276.57 528.832C276.65 528.896 276.752 528.941 276.874 528.968C277.002 528.989 277.154 529 277.33 529H277.85V528.4H277.538C277.432 528.4 277.344 528.397 277.274 528.392C277.21 528.381 277.16 528.363 277.122 528.336C277.085 528.309 277.058 528.272 277.042 528.224C277.032 528.176 277.026 528.112 277.026 528.032V525.464H277.85V524.864H277.026ZM279.326 524.12V523.288H278.646V524.12H279.326ZM278.646 524.864V529H279.326V524.864H278.646ZM282.243 529L283.755 524.864H283.043L281.915 528.312H281.899L280.739 524.864H279.979L281.515 529H282.243ZM287.251 526.536H284.875C284.886 526.376 284.921 526.227 284.979 526.088C285.038 525.944 285.118 525.819 285.219 525.712C285.321 525.605 285.441 525.523 285.579 525.464C285.723 525.4 285.883 525.368 286.059 525.368C286.23 525.368 286.385 525.4 286.523 525.464C286.667 525.523 286.79 525.605 286.891 525.712C286.998 525.813 287.081 525.936 287.139 526.08C287.203 526.224 287.241 526.376 287.251 526.536ZM287.907 527.688H287.235C287.177 527.96 287.054 528.163 286.867 528.296C286.686 528.429 286.451 528.496 286.163 528.496C285.939 528.496 285.745 528.459 285.579 528.384C285.414 528.309 285.278 528.211 285.171 528.088C285.065 527.96 284.987 527.816 284.939 527.656C284.891 527.491 284.87 527.317 284.875 527.136H287.971C287.982 526.885 287.958 526.621 287.899 526.344C287.846 526.067 287.745 525.811 287.595 525.576C287.451 525.341 287.257 525.149 287.011 525C286.771 524.845 286.467 524.768 286.099 524.768C285.817 524.768 285.555 524.821 285.315 524.928C285.081 525.035 284.875 525.184 284.699 525.376C284.529 525.568 284.395 525.795 284.299 526.056C284.203 526.317 284.155 526.605 284.155 526.92C284.166 527.235 284.211 527.525 284.291 527.792C284.377 528.059 284.502 528.288 284.667 528.48C284.833 528.672 285.035 528.821 285.275 528.928C285.521 529.035 285.809 529.088 286.139 529.088C286.609 529.088 286.998 528.971 287.307 528.736C287.617 528.501 287.817 528.152 287.907 527.688ZM291.399 526.936C291.399 526.685 291.431 526.464 291.495 526.272C291.564 526.075 291.657 525.909 291.775 525.776C291.892 525.643 292.028 525.541 292.183 525.472C292.343 525.403 292.511 525.368 292.687 525.368C292.863 525.368 293.028 525.403 293.183 525.472C293.343 525.541 293.481 525.643 293.599 525.776C293.716 525.909 293.807 526.075 293.871 526.272C293.94 526.464 293.975 526.685 293.975 526.936C293.975 527.187 293.94 527.411 293.871 527.608C293.807 527.8 293.716 527.963 293.599 528.096C293.481 528.224 293.343 528.323 293.183 528.392C293.028 528.461 292.863 528.496 292.687 528.496C292.511 528.496 292.343 528.461 292.183 528.392C292.028 528.323 291.892 528.224 291.775 528.096C291.657 527.963 291.564 527.8 291.495 527.608C291.431 527.411 291.399 527.187 291.399 526.936ZM290.679 526.936C290.679 527.24 290.721 527.523 290.807 527.784C290.892 528.045 291.02 528.275 291.191 528.472C291.361 528.664 291.572 528.816 291.823 528.928C292.073 529.035 292.361 529.088 292.687 529.088C293.017 529.088 293.305 529.035 293.551 528.928C293.801 528.816 294.012 528.664 294.183 528.472C294.353 528.275 294.481 528.045 294.567 527.784C294.652 527.523 294.695 527.24 294.695 526.936C294.695 526.632 294.652 526.349 294.567 526.088C294.481 525.821 294.353 525.592 294.183 525.4C294.012 525.203 293.801 525.048 293.551 524.936C293.305 524.824 293.017 524.768 292.687 524.768C292.361 524.768 292.073 524.824 291.823 524.936C291.572 525.048 291.361 525.203 291.191 525.4C291.02 525.592 290.892 525.821 290.807 526.088C290.721 526.349 290.679 526.632 290.679 526.936ZM295.472 524.864V529H296.152V527.16C296.152 526.893 296.179 526.659 296.232 526.456C296.286 526.248 296.371 526.072 296.488 525.928C296.606 525.784 296.76 525.675 296.952 525.6C297.144 525.525 297.376 525.488 297.648 525.488V524.768C297.28 524.757 296.976 524.832 296.736 524.992C296.496 525.152 296.294 525.4 296.128 525.736H296.112V524.864H295.472ZM298.184 523.288V529H298.864V528.448H298.88C298.955 528.571 299.046 528.675 299.152 528.76C299.264 528.84 299.382 528.904 299.504 528.952C299.627 529 299.75 529.035 299.872 529.056C300 529.077 300.115 529.088 300.216 529.088C300.531 529.088 300.806 529.032 301.04 528.92C301.28 528.808 301.478 528.656 301.632 528.464C301.792 528.267 301.91 528.037 301.984 527.776C302.064 527.515 302.104 527.237 302.104 526.944C302.104 526.651 302.064 526.373 301.984 526.112C301.904 525.851 301.784 525.621 301.624 525.424C301.47 525.221 301.272 525.061 301.032 524.944C300.798 524.827 300.52 524.768 300.2 524.768C299.912 524.768 299.648 524.821 299.408 524.928C299.168 525.029 298.992 525.195 298.88 525.424H298.864V523.288H298.184ZM301.384 526.896C301.384 527.099 301.363 527.296 301.32 527.488C301.278 527.68 301.208 527.851 301.112 528C301.016 528.149 300.888 528.269 300.728 528.36C300.574 528.451 300.379 528.496 300.144 528.496C299.91 528.496 299.71 528.453 299.544 528.368C299.379 528.277 299.243 528.16 299.136 528.016C299.035 527.872 298.96 527.707 298.912 527.52C298.864 527.328 298.84 527.131 298.84 526.928C298.84 526.736 298.862 526.547 298.904 526.36C298.952 526.173 299.027 526.008 299.128 525.864C299.23 525.715 299.36 525.595 299.52 525.504C299.68 525.413 299.875 525.368 300.104 525.368C300.323 525.368 300.512 525.411 300.672 525.496C300.838 525.581 300.971 525.696 301.072 525.84C301.179 525.984 301.256 526.149 301.304 526.336C301.358 526.517 301.384 526.704 301.384 526.896ZM303.623 524.12V523.288H302.943V524.12H303.623ZM302.943 524.864V529H303.623V524.864H302.943ZM305.62 524.864V523.624H304.94V524.864H304.236V525.464H304.94V528.096C304.94 528.288 304.959 528.443 304.996 528.56C305.033 528.677 305.089 528.768 305.164 528.832C305.244 528.896 305.345 528.941 305.468 528.968C305.596 528.989 305.748 529 305.924 529H306.444V528.4H306.132C306.025 528.4 305.937 528.397 305.868 528.392C305.804 528.381 305.753 528.363 305.716 528.336C305.679 528.309 305.652 528.272 305.636 528.224C305.625 528.176 305.62 528.112 305.62 528.032V525.464H306.444V524.864H305.62Z" fill="black"/>
<path d="M84.5 320L86.1839 325.182H91.6329L87.2245 328.385L88.9084 333.568L84.5 330.365L80.0916 333.568L81.7755 328.385L77.3671 325.182H82.8161L84.5 320Z" fill="#B56576"/>
<path d="M249.5 37L252.215 45.7852H261L253.893 51.2148L256.607 60L249.5 54.5704L242.393 60L245.107 51.2148L238 45.7852H246.785L249.5 37Z" fill="#B56576" fill-opacity="0.8"/>
<path d="M220.5 133L223.215 141.785H232L224.893 147.215L227.607 156L220.5 150.57L213.393 156L216.107 147.215L209 141.785H217.785L220.5 133Z" fill="#B56576" fill-opacity="0.8"/>
<defs>
<filter id="filter0_b" x="-4" y="-4" width="508" height="508" filterUnits="userSpaceOnUse" color-interpolation-filters="sRGB">
<feFlood flood-opacity="0" result="BackgroundImageFix"/>
<feGaussianBlur in="BackgroundImage" stdDeviation="2"/>
<feComposite in2="SourceAlpha" operator="in" result="effect1_backgroundBlur"/>
<feBlend mode="normal" in="SourceGraphic" in2="effect1_backgroundBlur" result="shape"/>
</filter>
<filter id="filter1_b" x="-4" y="157" width="186" height="186" filterUnits="userSpaceOnUse" color-interpolation-filters="sRGB">
<feFlood flood-opacity="0" result="BackgroundImageFix"/>
<feGaussianBlur in="BackgroundImage" stdDeviation="2"/>
<feComposite in2="SourceAlpha" operator="in" result="effect1_backgroundBlur"/>
<feBlend mode="normal" in="SourceGraphic" in2="effect1_backgroundBlur" result="shape"/>
</filter>
<filter id="filter2_b" x="157" y="-4" width="186" height="186" filterUnits="userSpaceOnUse" color-interpolation-filters="sRGB">
<feFlood flood-opacity="0" result="BackgroundImageFix"/>
<feGaussianBlur in="BackgroundImage" stdDeviation="2"/>
<feComposite in2="SourceAlpha" operator="in" result="effect1_backgroundBlur"/>
<feBlend mode="normal" in="SourceGraphic" in2="effect1_backgroundBlur" result="shape"/>
</filter>
<filter id="filter3_b" x="157" y="318" width="186" height="186" filterUnits="userSpaceOnUse" color-interpolation-filters="sRGB">
<feFlood flood-opacity="0" result="BackgroundImageFix"/>
<feGaussianBlur in="BackgroundImage" stdDeviation="2"/>
<feComposite in2="SourceAlpha" operator="in" result="effect1_backgroundBlur"/>
<feBlend mode="normal" in="SourceGraphic" in2="effect1_backgroundBlur" result="shape"/>
</filter>
<filter id="filter4_b" x="318" y="157" width="186" height="186" filterUnits="userSpaceOnUse" color-interpolation-filters="sRGB">
<feFlood flood-opacity="0" result="BackgroundImageFix"/>
<feGaussianBlur in="BackgroundImage" stdDeviation="2"/>
<feComposite in2="SourceAlpha" operator="in" result="effect1_backgroundBlur"/>
<feBlend mode="normal" in="SourceGraphic" in2="effect1_backgroundBlur" result="shape"/>
</filter>
</defs>
</svg>
