<svg width="2240" height="960" viewBox="0 0 2240 960" fill="none" xmlns="http://www.w3.org/2000/svg">
<circle cx="168" cy="168" r="168" fill="#FF9790"/>
<circle cx="792" cy="168" r="168" fill="#FF9790"/>
<path d="M340 166.5C339.172 166.5 338.5 167.172 338.5 168C338.5 168.828 339.172 169.5 340 169.5V166.5ZM620 169.5C620.828 169.5 621.5 168.828 621.5 168C621.5 167.172 620.828 166.5 620 166.5V169.5ZM340 169.5H620V166.5H340V169.5Z" fill="#C4C4C4"/>
<circle cx="168" cy="792" r="168" fill="#FF9790"/>
<path d="M169.5 340C169.5 339.172 168.828 338.5 168 338.5C167.172 338.5 166.5 339.172 166.5 340H169.5ZM166.5 620C166.5 620.828 167.172 621.5 168 621.5C168.828 621.5 169.5 620.828 169.5 620H166.5ZM166.5 340V620H169.5V340H166.5Z" fill="#C4C4C4"/>
<circle cx="792" cy="792" r="168" fill="#FF9790"/>
<path d="M793.5 340C793.5 339.172 792.828 338.5 792 338.5C791.172 338.5 790.5 339.172 790.5 340H793.5ZM790.5 620C790.5 620.828 791.172 621.5 792 621.5C792.828 621.5 793.5 620.828 793.5 620H790.5ZM790.5 340V620H793.5V340H790.5Z" fill="#C4C4C4"/>
<path d="M340 790.5C339.172 790.5 338.5 791.172 338.5 792C338.5 792.828 339.172 793.5 340 793.5V790.5ZM620 793.5C620.828 793.5 621.5 792.828 621.5 792C621.5 791.172 620.828 790.5 620 790.5V793.5ZM340 793.5H620V790.5H340V793.5Z" fill="#C4C4C4"/>
<circle cx="1448" cy="168" r="168" fill="#85B6FF"/>
<circle cx="2072" cy="168" r="168" fill="#85B6FF"/>
<path d="M1620 166.5C1619.17 166.5 1618.5 167.172 1618.5 168C1618.5 168.828 1619.17 169.5 1620 169.5V166.5ZM1900 169.5C1900.83 169.5 1901.5 168.828 1901.5 168C1901.5 167.172 1900.83 166.5 1900 166.5V169.5ZM1620 169.5H1900V166.5H1620V169.5Z" fill="#85B6FF"/>
<circle cx="1448" cy="792" r="168" fill="#85B6FF"/>
<path d="M1449.5 340C1449.5 339.172 1448.83 338.5 1448 338.5C1447.17 338.5 1446.5 339.172 1446.5 340H1449.5ZM1446.5 620C1446.5 620.828 1447.17 621.5 1448 621.5C1448.83 621.5 1449.5 620.828 1449.5 620H1446.5ZM1446.5 340V620H1449.5V340H1446.5Z" fill="#85B6FF"/>
<circle cx="2072" cy="792" r="168" fill="#85B6FF"/>
<path d="M2073.5 340C2073.5 339.172 2072.83 338.5 2072 338.5C2071.17 338.5 2070.5 339.172 2070.5 340H2073.5ZM2070.5 620C2070.5 620.828 2071.17 621.5 2072 621.5C2072.83 621.5 2073.5 620.828 2073.5 620H2070.5ZM2070.5 340V620H2073.5V340H2070.5Z" fill="#85B6FF"/>
<path d="M1620 790.5C1619.17 790.5 1618.5 791.172 1618.5 792C1618.5 792.828 1619.17 793.5 1620 793.5V790.5ZM1900 793.5C1900.83 793.5 1901.5 792.828 1901.5 792C1901.5 791.172 1900.83 790.5 1900 790.5V793.5ZM1620 793.5H1900V790.5H1620V793.5Z" fill="#85B6FF"/>
<path d="M964 166.5C963.172 166.5 962.5 167.172 962.5 168C962.5 168.828 963.172 169.5 964 169.5V166.5ZM1276 169.5C1276.83 169.5 1277.5 168.828 1277.5 168C1277.5 167.172 1276.83 166.5 1276 166.5V169.5ZM964 169.5H1083V166.5H964V169.5ZM1157 169.5H1276V166.5H1157V169.5Z" fill="#85B6FF"/>
<path d="M1094.28 174V162.364H1098.43C1099.33 162.364 1100.08 162.528 1100.68 162.858C1101.27 163.187 1101.72 163.638 1102.01 164.21C1102.31 164.778 1102.45 165.419 1102.45 166.131C1102.45 166.847 1102.3 167.491 1102.01 168.062C1101.71 168.631 1101.26 169.081 1100.66 169.415C1100.07 169.744 1099.32 169.909 1098.42 169.909H1095.57V168.42H1098.26C1098.83 168.42 1099.3 168.322 1099.65 168.125C1100.01 167.924 1100.27 167.652 1100.44 167.307C1100.6 166.962 1100.69 166.57 1100.69 166.131C1100.69 165.691 1100.6 165.301 1100.44 164.96C1100.27 164.619 1100.01 164.352 1099.65 164.159C1099.29 163.966 1098.82 163.869 1098.24 163.869H1096.03V174H1094.28ZM1109.73 170.381V165.273H1111.43V174H1109.76V172.489H1109.67C1109.47 172.955 1109.15 173.343 1108.71 173.653C1108.27 173.96 1107.72 174.114 1107.06 174.114C1106.5 174.114 1106.01 173.991 1105.58 173.744C1105.15 173.494 1104.81 173.125 1104.56 172.636C1104.32 172.148 1104.2 171.544 1104.2 170.824V165.273H1105.9V170.619C1105.9 171.214 1106.06 171.687 1106.39 172.04C1106.72 172.392 1107.15 172.568 1107.68 172.568C1108 172.568 1108.31 172.489 1108.63 172.33C1108.94 172.17 1109.21 171.93 1109.42 171.608C1109.63 171.286 1109.73 170.877 1109.73 170.381ZM1117.3 174.176C1116.44 174.176 1115.7 173.992 1115.08 173.625C1114.46 173.254 1113.99 172.733 1113.65 172.062C1113.31 171.388 1113.15 170.598 1113.15 169.693C1113.15 168.799 1113.31 168.011 1113.65 167.33C1113.99 166.648 1114.45 166.116 1115.06 165.733C1115.66 165.35 1116.37 165.159 1117.18 165.159C1117.67 165.159 1118.15 165.241 1118.61 165.403C1119.08 165.566 1119.49 165.822 1119.86 166.17C1120.23 166.519 1120.52 166.972 1120.73 167.528C1120.94 168.081 1121.05 168.754 1121.05 169.545V170.148H1114.11V168.875H1119.38C1119.38 168.428 1119.29 168.032 1119.11 167.688C1118.93 167.339 1118.67 167.064 1118.34 166.864C1118.02 166.663 1117.63 166.562 1117.19 166.562C1116.72 166.562 1116.3 166.68 1115.94 166.915C1115.59 167.146 1115.32 167.449 1115.13 167.824C1114.94 168.195 1114.84 168.598 1114.84 169.034V170.028C1114.84 170.612 1114.94 171.108 1115.15 171.517C1115.36 171.926 1115.65 172.239 1116.02 172.455C1116.39 172.667 1116.82 172.773 1117.32 172.773C1117.64 172.773 1117.93 172.727 1118.2 172.636C1118.46 172.542 1118.69 172.402 1118.89 172.216C1119.08 172.03 1119.23 171.801 1119.33 171.528L1120.94 171.818C1120.81 172.292 1120.58 172.706 1120.24 173.062C1119.92 173.415 1119.5 173.689 1119 173.886C1118.5 174.08 1117.94 174.176 1117.3 174.176ZM1124.45 168.818V174H1122.75V165.273H1124.39V166.693H1124.49C1124.69 166.231 1125.01 165.86 1125.44 165.58C1125.87 165.299 1126.41 165.159 1127.07 165.159C1127.66 165.159 1128.18 165.284 1128.63 165.534C1129.08 165.78 1129.42 166.148 1129.67 166.636C1129.92 167.125 1130.04 167.729 1130.04 168.449V174H1128.34V168.653C1128.34 168.021 1128.18 167.527 1127.85 167.17C1127.52 166.811 1127.06 166.631 1126.49 166.631C1126.09 166.631 1125.74 166.716 1125.44 166.886C1125.13 167.057 1124.89 167.307 1124.71 167.636C1124.54 167.962 1124.45 168.356 1124.45 168.818ZM1136.22 165.273V166.636H1131.45V165.273H1136.22ZM1132.73 163.182H1134.43V171.438C1134.43 171.767 1134.47 172.015 1134.57 172.182C1134.67 172.345 1134.8 172.456 1134.95 172.517C1135.11 172.574 1135.29 172.602 1135.47 172.602C1135.61 172.602 1135.73 172.593 1135.83 172.574C1135.93 172.555 1136.01 172.54 1136.07 172.528L1136.37 173.932C1136.28 173.97 1136.14 174.008 1135.95 174.045C1135.77 174.087 1135.54 174.11 1135.27 174.114C1134.82 174.121 1134.41 174.042 1134.02 173.875C1133.64 173.708 1133.32 173.451 1133.08 173.102C1132.85 172.754 1132.73 172.316 1132.73 171.79V163.182ZM1141.59 174.176C1140.73 174.176 1139.99 173.992 1139.36 173.625C1138.75 173.254 1138.27 172.733 1137.93 172.062C1137.6 171.388 1137.43 170.598 1137.43 169.693C1137.43 168.799 1137.6 168.011 1137.93 167.33C1138.27 166.648 1138.74 166.116 1139.34 165.733C1139.95 165.35 1140.66 165.159 1141.47 165.159C1141.96 165.159 1142.44 165.241 1142.9 165.403C1143.36 165.566 1143.78 165.822 1144.14 166.17C1144.51 166.519 1144.8 166.972 1145.01 167.528C1145.22 168.081 1145.33 168.754 1145.33 169.545V170.148H1138.39V168.875H1143.67C1143.67 168.428 1143.57 168.032 1143.39 167.688C1143.21 167.339 1142.96 167.064 1142.63 166.864C1142.3 166.663 1141.92 166.562 1141.48 166.562C1141 166.562 1140.58 166.68 1140.23 166.915C1139.88 167.146 1139.6 167.449 1139.41 167.824C1139.22 168.195 1139.13 168.598 1139.13 169.034V170.028C1139.13 170.612 1139.23 171.108 1139.43 171.517C1139.64 171.926 1139.93 172.239 1140.3 172.455C1140.67 172.667 1141.11 172.773 1141.6 172.773C1141.92 172.773 1142.22 172.727 1142.48 172.636C1142.75 172.542 1142.98 172.402 1143.17 172.216C1143.36 172.03 1143.51 171.801 1143.61 171.528L1145.22 171.818C1145.09 172.292 1144.86 172.706 1144.53 173.062C1144.2 173.415 1143.78 173.689 1143.28 173.886C1142.79 174.08 1142.22 174.176 1141.59 174.176Z" fill="#333333"/>
</svg>
