<?xml version="1.0" encoding="UTF-8" standalone="no"?>
<!DOCTYPE svg PUBLIC "-//W3C//DTD SVG 1.1//EN" "http://www.w3.org/Graphics/SVG/1.1/DTD/svg11.dtd">
<svg width="100%" height="100%" viewBox="0 0 530 466" version="1.1" xmlns="http://www.w3.org/2000/svg" xmlns:xlink="http://www.w3.org/1999/xlink" xml:space="preserve" xmlns:serif="http://www.serif.com/" style="fill-rule:evenodd;clip-rule:evenodd;">
    <g id="edges">
        <path d="M18.314,448.723L169.679,316.142" style="fill:none;fill-rule:nonzero;stroke:rgb(127,103,138);stroke-width:1px;"/>
        <path d="M184.76,297.974L299.412,82.142" style="fill:none;fill-rule:nonzero;stroke:rgb(255,0,68);stroke-width:1px;"/>
        <path d="M189.675,303.585L418.729,218.364" style="fill:none;fill-rule:nonzero;stroke:rgb(255,0,68);stroke-width:1px;"/>
        <path d="M315.852,67.373L506.034,13.805" style="fill:none;fill-rule:nonzero;stroke:rgb(228,0,157);stroke-width:1px;"/>
        <path d="M514.875,19.788L436.722,201.257" style="fill:none;fill-rule:nonzero;stroke:rgb(228,0,157);stroke-width:1px;"/>
        <path d="M312.663,78.118L422.487,203.501" style="fill:none;fill-rule:nonzero;stroke:rgb(255,0,68);stroke-width:1px;"/>
    </g>
    <g id="arrows">
        <g transform="matrix(2.24856,0,0,2.24856,-214.671,-392.254)">
            <path d="M171.935,314.165L170.667,317.27L168.69,315.013" style="fill:rgb(127,103,138);fill-rule:nonzero;"/>
        </g>
        <g transform="matrix(2.5725,0,0,2.5725,-473.203,-124.72)">
            <path d="M300.819,79.492L300.736,82.845L298.087,81.438" style="fill:rgb(255,0,68);fill-rule:nonzero;"/>
        </g>
        <g transform="matrix(2.25288,0,0,2.25288,-528.745,-272.35)">
            <path d="M421.541,217.318L419.252,219.77L418.206,216.958" style="fill:rgb(255,0,68);fill-rule:nonzero;"/>
        </g>
        <g transform="matrix(2.30871,0,0,2.30871,-666.223,-17.1088)">
            <path d="M508.922,12.991L506.441,15.249L505.627,12.361" style="fill:rgb(228,0,157);fill-rule:nonzero;"/>
        </g>
        <g transform="matrix(2.15294,0,0,2.15294,-501.897,-235.307)">
            <path d="M435.535,204.013L435.344,200.664L438.099,201.851" style="fill:rgb(228,0,157);fill-rule:nonzero;"/>
        </g>
        <g transform="matrix(2.26101,0,0,2.26101,-535.253,-259.463)">
            <path d="M424.463,205.758L421.358,204.489L423.615,202.513" style="fill:rgb(255,0,68);fill-rule:nonzero;"/>
        </g>
    </g>
    <g id="nodes">
        <circle cx="10.416" cy="455.641" r="10" style="fill:rgb(0,207,208);stroke:black;stroke-width:1px;"/>
        <circle cx="179.834" cy="307.247" r="10" style="fill:rgb(255,0,68);stroke:black;stroke-width:1px;"/>
        <circle cx="305.745" cy="70.219" r="10" style="fill:rgb(255,0,68);stroke:black;stroke-width:1px;"/>
        <circle cx="519.029" cy="10.145" r="10" style="fill:rgb(201,1,247);stroke:black;stroke-width:1px;"/>
        <circle cx="431.382" cy="213.656" r="10" style="fill:rgb(255,0,68);stroke:black;stroke-width:1px;"/>
    </g>
    <g id="node-labels">
        <g transform="matrix(8,0,0,8,8.1916,458.383)">
            <g>
                <path d="M0.132,-0.349C0.132,-0.366 0.132,-0.386 0.133,-0.407C0.133,-0.428 0.135,-0.448 0.138,-0.47C0.141,-0.491 0.145,-0.511 0.151,-0.531C0.156,-0.551 0.165,-0.569 0.176,-0.584C0.187,-0.599 0.2,-0.611 0.217,-0.62C0.234,-0.629 0.254,-0.634 0.278,-0.634C0.302,-0.634 0.322,-0.629 0.339,-0.62C0.356,-0.611 0.37,-0.599 0.381,-0.584C0.392,-0.569 0.4,-0.551 0.406,-0.531C0.411,-0.511 0.416,-0.491 0.419,-0.47C0.422,-0.448 0.423,-0.428 0.424,-0.407L0.424,-0.349C0.424,-0.322 0.423,-0.293 0.422,-0.26C0.42,-0.227 0.415,-0.196 0.406,-0.167C0.397,-0.137 0.382,-0.113 0.362,-0.093C0.342,-0.073 0.314,-0.063 0.278,-0.063C0.242,-0.063 0.214,-0.073 0.194,-0.093C0.174,-0.113 0.16,-0.137 0.151,-0.167C0.141,-0.196 0.136,-0.227 0.135,-0.26C0.133,-0.293 0.132,-0.322 0.132,-0.349ZM0.042,-0.348C0.042,-0.322 0.043,-0.295 0.044,-0.267C0.045,-0.239 0.049,-0.212 0.054,-0.185C0.059,-0.158 0.067,-0.133 0.077,-0.11C0.087,-0.086 0.101,-0.065 0.118,-0.047C0.135,-0.029 0.157,-0.015 0.184,-0.005C0.21,0.006 0.241,0.011 0.278,0.011C0.315,0.011 0.347,0.006 0.373,-0.005C0.399,-0.015 0.421,-0.029 0.438,-0.047C0.455,-0.065 0.469,-0.086 0.479,-0.11C0.489,-0.133 0.497,-0.158 0.502,-0.185C0.507,-0.212 0.511,-0.239 0.512,-0.267C0.513,-0.295 0.514,-0.322 0.514,-0.348C0.514,-0.374 0.513,-0.401 0.512,-0.429C0.511,-0.457 0.507,-0.484 0.502,-0.511C0.497,-0.538 0.489,-0.563 0.479,-0.587C0.469,-0.611 0.455,-0.632 0.438,-0.65C0.421,-0.668 0.399,-0.682 0.373,-0.693C0.346,-0.704 0.315,-0.709 0.278,-0.709C0.241,-0.709 0.21,-0.704 0.184,-0.693C0.157,-0.682 0.135,-0.668 0.118,-0.65C0.101,-0.632 0.087,-0.611 0.077,-0.587C0.067,-0.563 0.059,-0.538 0.054,-0.511C0.049,-0.484 0.045,-0.457 0.044,-0.429C0.043,-0.401 0.042,-0.374 0.042,-0.348Z" style="fill:white;fill-rule:nonzero;"/>
            </g>
        </g>
        <g transform="matrix(8,0,0,8,177.61,309.85)">
            <g>
                <path d="M0.356,-0L0.356,-0.709L0.291,-0.709C0.286,-0.682 0.278,-0.66 0.265,-0.643C0.252,-0.626 0.237,-0.612 0.219,-0.602C0.2,-0.592 0.18,-0.585 0.157,-0.582C0.134,-0.578 0.111,-0.576 0.087,-0.576L0.087,-0.508L0.271,-0.508L0.271,-0L0.356,-0Z" style="fill:white;fill-rule:nonzero;"/>
            </g>
        </g>
        <g transform="matrix(8,0,0,8,303.521,72.8821)">
            <g>
                <path d="M0.044,-0.458L0.129,-0.458C0.128,-0.479 0.131,-0.501 0.136,-0.522C0.141,-0.543 0.149,-0.561 0.16,-0.578C0.171,-0.595 0.186,-0.608 0.204,-0.619C0.221,-0.629 0.242,-0.634 0.267,-0.634C0.286,-0.634 0.303,-0.631 0.32,-0.625C0.337,-0.619 0.351,-0.61 0.364,-0.599C0.376,-0.588 0.386,-0.574 0.393,-0.559C0.4,-0.543 0.404,-0.525 0.404,-0.506C0.404,-0.481 0.4,-0.46 0.393,-0.441C0.385,-0.422 0.374,-0.405 0.359,-0.389C0.343,-0.373 0.325,-0.357 0.302,-0.342C0.279,-0.326 0.253,-0.309 0.223,-0.29C0.198,-0.275 0.175,-0.26 0.152,-0.243C0.129,-0.226 0.109,-0.207 0.091,-0.185C0.073,-0.163 0.058,-0.137 0.047,-0.108C0.035,-0.078 0.027,-0.042 0.024,-0L0.487,-0L0.487,-0.075L0.123,-0.075C0.127,-0.097 0.135,-0.117 0.149,-0.134C0.162,-0.151 0.177,-0.166 0.196,-0.181C0.214,-0.196 0.234,-0.21 0.256,-0.223C0.278,-0.236 0.3,-0.249 0.322,-0.262C0.344,-0.276 0.365,-0.291 0.386,-0.306C0.407,-0.321 0.425,-0.339 0.441,-0.358C0.457,-0.377 0.47,-0.398 0.48,-0.422C0.489,-0.446 0.494,-0.474 0.494,-0.505C0.494,-0.538 0.488,-0.568 0.477,-0.593C0.465,-0.618 0.449,-0.64 0.429,-0.657C0.409,-0.674 0.386,-0.687 0.359,-0.696C0.331,-0.705 0.303,-0.709 0.272,-0.709C0.235,-0.709 0.201,-0.703 0.172,-0.69C0.143,-0.677 0.118,-0.66 0.099,-0.638C0.079,-0.615 0.064,-0.589 0.055,-0.558C0.046,-0.527 0.042,-0.494 0.044,-0.458Z" style="fill:white;fill-rule:nonzero;"/>
            </g>
        </g>
        <g transform="matrix(8,0,0,8,516.805,12.6984)">
            <g>
                <path d="M0.218,-0.405L0.218,-0.333C0.234,-0.335 0.251,-0.336 0.269,-0.336C0.29,-0.336 0.31,-0.333 0.329,-0.328C0.347,-0.322 0.363,-0.313 0.376,-0.302C0.389,-0.29 0.4,-0.276 0.408,-0.259C0.416,-0.242 0.42,-0.222 0.42,-0.2C0.42,-0.179 0.416,-0.16 0.408,-0.143C0.399,-0.126 0.388,-0.111 0.374,-0.1C0.36,-0.088 0.344,-0.079 0.325,-0.073C0.306,-0.066 0.287,-0.063 0.266,-0.063C0.217,-0.063 0.18,-0.078 0.155,-0.107C0.13,-0.135 0.116,-0.173 0.115,-0.219L0.03,-0.219C0.029,-0.182 0.035,-0.15 0.046,-0.121C0.056,-0.092 0.072,-0.068 0.093,-0.049C0.114,-0.029 0.139,-0.014 0.168,-0.004C0.197,0.006 0.23,0.011 0.266,0.011C0.299,0.011 0.331,0.007 0.361,-0.003C0.39,-0.012 0.416,-0.025 0.438,-0.043C0.46,-0.061 0.478,-0.084 0.491,-0.111C0.503,-0.137 0.51,-0.169 0.51,-0.204C0.51,-0.247 0.5,-0.284 0.479,-0.315C0.458,-0.346 0.425,-0.367 0.382,-0.376L0.382,-0.378C0.41,-0.391 0.433,-0.409 0.452,-0.434C0.471,-0.459 0.48,-0.487 0.48,-0.519C0.48,-0.552 0.474,-0.58 0.464,-0.604C0.452,-0.628 0.437,-0.648 0.418,-0.663C0.399,-0.678 0.376,-0.69 0.35,-0.698C0.323,-0.705 0.295,-0.709 0.264,-0.709C0.229,-0.709 0.198,-0.703 0.171,-0.692C0.143,-0.681 0.121,-0.665 0.103,-0.645C0.085,-0.625 0.071,-0.601 0.062,-0.573C0.052,-0.545 0.046,-0.514 0.045,-0.48L0.13,-0.48C0.13,-0.501 0.133,-0.52 0.138,-0.539C0.143,-0.558 0.152,-0.574 0.163,-0.588C0.173,-0.602 0.188,-0.613 0.205,-0.622C0.222,-0.63 0.241,-0.634 0.264,-0.634C0.3,-0.634 0.33,-0.624 0.354,-0.606C0.378,-0.587 0.39,-0.558 0.39,-0.52C0.39,-0.501 0.386,-0.485 0.379,-0.47C0.372,-0.455 0.362,-0.443 0.35,-0.434C0.337,-0.424 0.323,-0.417 0.307,-0.412C0.29,-0.407 0.273,-0.404 0.255,-0.404L0.227,-0.404C0.224,-0.404 0.221,-0.404 0.218,-0.405Z" style="fill:white;fill-rule:nonzero;"/>
            </g>
        </g>
        <g transform="matrix(8,0,0,8,429.158,216.437)">
            <g>
                <path d="M0.339,-0.241L0.101,-0.241L0.337,-0.588L0.339,-0.588L0.339,-0.241ZM0.419,-0.241L0.419,-0.709L0.351,-0.709L0.028,-0.248L0.028,-0.166L0.339,-0.166L0.339,-0L0.419,-0L0.419,-0.166L0.515,-0.166L0.515,-0.241L0.419,-0.241Z" style="fill:white;fill-rule:nonzero;"/>
            </g>
        </g>
    </g>
</svg>
