<svg width="1050" height="209" viewBox="0 0 1050 209" fill="none" xmlns="http://www.w3.org/2000/svg">
<circle cx="12.5" cy="67.5" r="12.5" fill="#355070"/>
<circle cx="137.5" cy="67.5" r="12.5" fill="#355070"/>
<path d="M125.04 69.0607C125.626 68.4749 125.626 67.5251 125.04 66.9393L115.495 57.3934C114.909 56.8076 113.959 56.8076 113.373 57.3934C112.787 57.9792 112.787 58.9289 113.373 59.5147L121.858 68L113.373 76.4853C112.787 77.0711 112.787 78.0208 113.373 78.6066C113.959 79.1924 114.909 79.1924 115.495 78.6066L125.04 69.0607ZM25 69.5H123.98V66.5H25V69.5Z" fill="black"/>
<path d="M23.9393 66.9393C23.3535 67.5251 23.3535 68.4749 23.9393 69.0607L33.4853 78.6066C34.0711 79.1924 35.0208 79.1924 35.6066 78.6066C36.1924 78.0208 36.1924 77.0711 35.6066 76.4853L27.1213 68L35.6066 59.5147C36.1924 58.9289 36.1924 57.9792 35.6066 57.3934C35.0208 56.8076 34.0711 56.8076 33.4853 57.3934L23.9393 66.9393ZM124.985 66.5L25 66.5V69.5L124.985 69.5V66.5Z" fill="black"/>
<circle cx="674.5" cy="12.5" r="12.5" fill="#6D597A"/>
<circle cx="612.5" cy="126.5" r="12.5" fill="#355070"/>
<circle cx="737.5" cy="126.5" r="12.5" fill="#355070"/>
<path d="M610.556 111.398C610.775 112.197 611.6 112.667 612.399 112.448L625.419 108.879C626.217 108.66 626.688 107.835 626.469 107.036C626.25 106.237 625.424 105.767 624.625 105.986L613.052 109.158L609.88 97.5851C609.661 96.7861 608.836 96.316 608.037 96.535C607.238 96.7541 606.768 97.5793 606.987 98.3782L610.556 111.398ZM659.694 24.2562L610.699 110.259L613.306 111.744L662.301 25.7412L659.694 24.2562Z" fill="black"/>
<path d="M736.629 112.453C737.431 112.658 738.248 112.174 738.453 111.371L741.795 98.2914C742 97.4887 741.516 96.6718 740.713 96.4668C739.91 96.2617 739.093 96.7462 738.888 97.5488L735.918 109.175L724.291 106.205C723.489 106 722.672 106.484 722.467 107.287C722.262 108.09 722.746 108.907 723.549 109.112L736.629 112.453ZM684.71 25.7651L735.71 111.765L738.29 110.235L687.29 24.2349L684.71 25.7651Z" fill="black"/>
<circle cx="974.5" cy="12.5" r="12.5" fill="#355070"/>
<circle cx="912.5" cy="126.5" r="12.5" fill="#355070"/>
<circle cx="1037.5" cy="126.5" r="12.5" fill="#6D597A"/>
<path d="M962.447 24.6035C962.228 23.8046 961.402 23.3344 960.604 23.5534L947.584 27.1218C946.785 27.3407 946.315 28.1659 946.534 28.9649C946.752 29.7639 947.578 30.234 948.377 30.0151L959.95 26.8431L963.122 38.4163C963.341 39.2153 964.166 39.6855 964.965 39.4665C965.764 39.2475 966.234 38.4223 966.015 37.6234L962.447 24.6035ZM913.303 111.743L962.303 25.7426L959.697 24.2574L910.697 110.257L913.303 111.743Z" fill="black"/>
<path d="M1025.04 128.061C1025.63 127.475 1025.63 126.525 1025.04 125.939L1015.49 116.393C1014.91 115.808 1013.96 115.808 1013.37 116.393C1012.79 116.979 1012.79 117.929 1013.37 118.515L1021.86 127L1013.37 135.485C1012.79 136.071 1012.79 137.021 1013.37 137.607C1013.96 138.192 1014.91 138.192 1015.49 137.607L1025.04 128.061ZM925 128.5H1023.98V125.5H925V128.5Z" fill="black"/>
<path d="M1036.63 112.453C1037.43 112.658 1038.25 112.174 1038.45 111.371L1041.79 98.2914C1042 97.4887 1041.52 96.6718 1040.71 96.4668C1039.91 96.2617 1039.09 96.7462 1038.89 97.5488L1035.92 109.175L1024.29 106.205C1023.49 106 1022.67 106.484 1022.47 107.287C1022.26 108.09 1022.75 108.907 1023.55 109.112L1036.63 112.453ZM984.71 25.7651L1035.71 111.765L1038.29 110.235L987.29 24.2349L984.71 25.7651Z" fill="black"/>
<circle cx="374.5" cy="12.5" r="12.5" fill="#6D597A"/>
<circle cx="312.5" cy="126.5" r="12.5" fill="#355070"/>
<circle cx="437.5" cy="126.5" r="12.5" fill="#355070"/>
<path d="M362.447 24.6035C362.228 23.8046 361.402 23.3344 360.604 23.5534L347.584 27.1218C346.785 27.3407 346.315 28.1659 346.534 28.9649C346.752 29.7639 347.578 30.234 348.377 30.0151L359.95 26.8431L363.122 38.4163C363.341 39.2153 364.166 39.6855 364.965 39.4665C365.764 39.2475 366.234 38.4223 366.015 37.6234L362.447 24.6035ZM313.303 111.743L362.303 25.7426L359.697 24.2574L310.697 110.257L313.303 111.743Z" fill="black"/>
<path d="M386.37 23.5471C385.568 23.3421 384.751 23.8266 384.546 24.6292L381.205 37.7092C380.999 38.5118 381.484 39.3287 382.287 39.5338C383.089 39.7388 383.906 39.2543 384.111 38.4517L387.081 26.8251L398.708 29.7951C399.511 30.0002 400.327 29.5157 400.532 28.7131C400.738 27.9104 400.253 27.0935 399.45 26.8885L386.37 23.5471ZM438.291 110.234L387.289 24.2353L384.709 25.7656L435.711 111.765L438.291 110.234Z" fill="black"/>
<path d="M30.57 192.148V205H32.28V199.51H36.456C36.876 199.51 37.212 199.576 37.464 199.708C37.716 199.828 37.92 199.996 38.076 200.212C38.232 200.416 38.346 200.662 38.418 200.95C38.49 201.226 38.55 201.52 38.598 201.832C38.658 202.144 38.694 202.462 38.706 202.786C38.718 203.11 38.73 203.416 38.742 203.704C38.754 203.98 38.778 204.232 38.814 204.46C38.862 204.688 38.946 204.868 39.066 205H40.974C40.794 204.784 40.656 204.538 40.56 204.262C40.476 203.974 40.41 203.674 40.362 203.362C40.314 203.05 40.284 202.732 40.272 202.408C40.26 202.084 40.242 201.766 40.218 201.454C40.182 201.142 40.128 200.842 40.056 200.554C39.996 200.266 39.894 200.008 39.75 199.78C39.618 199.54 39.432 199.336 39.192 199.168C38.964 199 38.664 198.88 38.292 198.808V198.772C39.072 198.556 39.636 198.154 39.984 197.566C40.344 196.978 40.524 196.294 40.524 195.514C40.524 194.47 40.176 193.648 39.48 193.048C38.796 192.448 37.842 192.148 36.618 192.148H30.57ZM35.844 198.07H32.28V193.588H36.528C37.332 193.588 37.914 193.792 38.274 194.2C38.634 194.608 38.814 195.136 38.814 195.784C38.814 196.252 38.73 196.636 38.562 196.936C38.406 197.224 38.19 197.458 37.914 197.638C37.65 197.806 37.338 197.92 36.978 197.98C36.618 198.04 36.24 198.07 35.844 198.07ZM49.1023 199.456H43.7563C43.7803 199.096 43.8583 198.76 43.9903 198.448C44.1223 198.124 44.3023 197.842 44.5303 197.602C44.7583 197.362 45.0283 197.176 45.3403 197.044C45.6643 196.9 46.0243 196.828 46.4203 196.828C46.8043 196.828 47.1523 196.9 47.4643 197.044C47.7883 197.176 48.0643 197.362 48.2923 197.602C48.5323 197.83 48.7183 198.106 48.8503 198.43C48.9943 198.754 49.0783 199.096 49.1023 199.456ZM50.5783 202.048H49.0663C48.9343 202.66 48.6583 203.116 48.2383 203.416C47.8303 203.716 47.3023 203.866 46.6543 203.866C46.1503 203.866 45.7123 203.782 45.3403 203.614C44.9683 203.446 44.6623 203.224 44.4223 202.948C44.1823 202.66 44.0083 202.336 43.9003 201.976C43.7923 201.604 43.7443 201.214 43.7563 200.806H50.7223C50.7463 200.242 50.6923 199.648 50.5603 199.024C50.4403 198.4 50.2123 197.824 49.8763 197.296C49.5523 196.768 49.1143 196.336 48.5623 196C48.0223 195.652 47.3383 195.478 46.5103 195.478C45.8743 195.478 45.2863 195.598 44.7463 195.838C44.2183 196.078 43.7563 196.414 43.3603 196.846C42.9763 197.278 42.6763 197.788 42.4603 198.376C42.2443 198.964 42.1363 199.612 42.1363 200.32C42.1603 201.028 42.2623 201.682 42.4423 202.282C42.6343 202.882 42.9163 203.398 43.2883 203.83C43.6603 204.262 44.1163 204.598 44.6563 204.838C45.2083 205.078 45.8563 205.198 46.6003 205.198C47.6563 205.198 48.5323 204.934 49.2283 204.406C49.9243 203.878 50.3743 203.092 50.5783 202.048ZM58.6263 198.682H60.2103C60.1503 198.13 60.0063 197.656 59.7783 197.26C59.5503 196.852 59.2563 196.516 58.8963 196.252C58.5483 195.988 58.1403 195.796 57.6723 195.676C57.2163 195.544 56.7243 195.478 56.1963 195.478C55.4643 195.478 54.8223 195.61 54.2703 195.874C53.7183 196.126 53.2563 196.48 52.8843 196.936C52.5243 197.38 52.2543 197.908 52.0743 198.52C51.8943 199.12 51.8043 199.768 51.8043 200.464C51.8043 201.16 51.8943 201.802 52.0743 202.39C52.2663 202.966 52.5423 203.464 52.9023 203.884C53.2743 204.304 53.7303 204.628 54.2703 204.856C54.8223 205.084 55.4523 205.198 56.1603 205.198C57.3483 205.198 58.2843 204.886 58.9683 204.262C59.6643 203.638 60.0963 202.75 60.2643 201.598H58.6983C58.6023 202.318 58.3383 202.876 57.9063 203.272C57.4863 203.668 56.8983 203.866 56.1423 203.866C55.6623 203.866 55.2483 203.77 54.9003 203.578C54.5523 203.386 54.2703 203.134 54.0543 202.822C53.8383 202.498 53.6763 202.132 53.5683 201.724C53.4723 201.316 53.4243 200.896 53.4243 200.464C53.4243 199.996 53.4723 199.546 53.5683 199.114C53.6643 198.67 53.8203 198.28 54.0363 197.944C54.2643 197.608 54.5643 197.338 54.9363 197.134C55.3083 196.93 55.7703 196.828 56.3223 196.828C56.9703 196.828 57.4863 196.99 57.8703 197.314C58.2543 197.638 58.5063 198.094 58.6263 198.682ZM63.5962 194.02V192.148H62.0662V194.02H63.5962ZM62.0662 195.694V205H63.5962V195.694H62.0662ZM66.0205 195.694V208.546H67.5505V203.758H67.5865C67.7545 204.034 67.9585 204.268 68.1985 204.46C68.4505 204.64 68.7145 204.784 68.9905 204.892C69.2665 205 69.5425 205.078 69.8185 205.126C70.1065 205.174 70.3645 205.198 70.5925 205.198C71.3005 205.198 71.9185 205.072 72.4465 204.82C72.9865 204.568 73.4305 204.226 73.7785 203.794C74.1385 203.35 74.4025 202.834 74.5705 202.246C74.7505 201.658 74.8405 201.034 74.8405 200.374C74.8405 199.714 74.7505 199.09 74.5705 198.502C74.3905 197.914 74.1205 197.398 73.7605 196.954C73.4125 196.498 72.9685 196.138 72.4285 195.874C71.9005 195.61 71.2765 195.478 70.5565 195.478C69.9085 195.478 69.3145 195.598 68.7745 195.838C68.2345 196.066 67.8385 196.438 67.5865 196.954H67.5505V195.694H66.0205ZM73.2205 200.266C73.2205 200.722 73.1725 201.166 73.0765 201.598C72.9805 202.03 72.8245 202.414 72.6085 202.75C72.3925 203.086 72.1045 203.356 71.7445 203.56C71.3965 203.764 70.9585 203.866 70.4305 203.866C69.9025 203.866 69.4525 203.77 69.0805 203.578C68.7085 203.374 68.4025 203.11 68.1625 202.786C67.9345 202.462 67.7665 202.09 67.6585 201.67C67.5505 201.238 67.4965 200.794 67.4965 200.338C67.4965 199.906 67.5445 199.48 67.6405 199.06C67.7485 198.64 67.9165 198.268 68.1445 197.944C68.3725 197.608 68.6665 197.338 69.0265 197.134C69.3865 196.93 69.8245 196.828 70.3405 196.828C70.8325 196.828 71.2585 196.924 71.6185 197.116C71.9905 197.308 72.2905 197.566 72.5185 197.89C72.7585 198.214 72.9325 198.586 73.0405 199.006C73.1605 199.414 73.2205 199.834 73.2205 200.266ZM76.5824 195.694V205H78.1124V200.86C78.1124 200.26 78.1724 199.732 78.2924 199.276C78.4124 198.808 78.6044 198.412 78.8684 198.088C79.1324 197.764 79.4804 197.518 79.9124 197.35C80.3444 197.182 80.8664 197.098 81.4784 197.098V195.478C80.6504 195.454 79.9664 195.622 79.4264 195.982C78.8864 196.342 78.4304 196.9 78.0584 197.656H78.0224V195.694H76.5824ZM83.4301 200.356C83.4301 199.792 83.5021 199.294 83.6461 198.862C83.8021 198.418 84.0121 198.046 84.2761 197.746C84.5401 197.446 84.8461 197.218 85.1941 197.062C85.5541 196.906 85.9321 196.828 86.3281 196.828C86.7241 196.828 87.0961 196.906 87.4441 197.062C87.8041 197.218 88.1161 197.446 88.3801 197.746C88.6441 198.046 88.8481 198.418 88.9921 198.862C89.1481 199.294 89.2261 199.792 89.2261 200.356C89.2261 200.92 89.1481 201.424 88.9921 201.868C88.8481 202.3 88.6441 202.666 88.3801 202.966C88.1161 203.254 87.8041 203.476 87.4441 203.632C87.0961 203.788 86.7241 203.866 86.3281 203.866C85.9321 203.866 85.5541 203.788 85.1941 203.632C84.8461 203.476 84.5401 203.254 84.2761 202.966C84.0121 202.666 83.8021 202.3 83.6461 201.868C83.5021 201.424 83.4301 200.92 83.4301 200.356ZM81.8101 200.356C81.8101 201.04 81.9061 201.676 82.0981 202.264C82.2901 202.852 82.5781 203.368 82.9621 203.812C83.3461 204.244 83.8201 204.586 84.3841 204.838C84.9481 205.078 85.5961 205.198 86.3281 205.198C87.0721 205.198 87.7201 205.078 88.2721 204.838C88.8361 204.586 89.3101 204.244 89.6941 203.812C90.0781 203.368 90.3661 202.852 90.5581 202.264C90.7501 201.676 90.8461 201.04 90.8461 200.356C90.8461 199.672 90.7501 199.036 90.5581 198.448C90.3661 197.848 90.0781 197.332 89.6941 196.9C89.3101 196.456 88.8361 196.108 88.2721 195.856C87.7201 195.604 87.0721 195.478 86.3281 195.478C85.5961 195.478 84.9481 195.604 84.3841 195.856C83.8201 196.108 83.3461 196.456 82.9621 196.9C82.5781 197.332 82.2901 197.848 82.0981 198.448C81.9061 199.036 81.8101 199.672 81.8101 200.356ZM98.968 198.682H100.552C100.492 198.13 100.348 197.656 100.12 197.26C99.892 196.852 99.598 196.516 99.238 196.252C98.89 195.988 98.482 195.796 98.014 195.676C97.558 195.544 97.066 195.478 96.538 195.478C95.806 195.478 95.164 195.61 94.612 195.874C94.06 196.126 93.598 196.48 93.226 196.936C92.866 197.38 92.596 197.908 92.416 198.52C92.236 199.12 92.146 199.768 92.146 200.464C92.146 201.16 92.236 201.802 92.416 202.39C92.608 202.966 92.884 203.464 93.244 203.884C93.616 204.304 94.072 204.628 94.612 204.856C95.164 205.084 95.794 205.198 96.502 205.198C97.69 205.198 98.626 204.886 99.31 204.262C100.006 203.638 100.438 202.75 100.606 201.598H99.04C98.944 202.318 98.68 202.876 98.248 203.272C97.828 203.668 97.24 203.866 96.484 203.866C96.004 203.866 95.59 203.77 95.242 203.578C94.894 203.386 94.612 203.134 94.396 202.822C94.18 202.498 94.018 202.132 93.91 201.724C93.814 201.316 93.766 200.896 93.766 200.464C93.766 199.996 93.814 199.546 93.91 199.114C94.006 198.67 94.162 198.28 94.378 197.944C94.606 197.608 94.906 197.338 95.278 197.134C95.65 196.93 96.112 196.828 96.664 196.828C97.312 196.828 97.828 196.99 98.212 197.314C98.596 197.638 98.848 198.094 98.968 198.682ZM103.938 194.02V192.148H102.408V194.02H103.938ZM102.408 195.694V205H103.938V195.694H102.408ZM108.432 195.694V192.904H106.902V195.694H105.318V197.044H106.902V202.966C106.902 203.398 106.944 203.746 107.028 204.01C107.112 204.274 107.238 204.478 107.406 204.622C107.586 204.766 107.814 204.868 108.09 204.928C108.378 204.976 108.72 205 109.116 205H110.286V203.65H109.584C109.344 203.65 109.146 203.644 108.99 203.632C108.846 203.608 108.732 203.566 108.648 203.506C108.564 203.446 108.504 203.362 108.468 203.254C108.444 203.146 108.432 203.002 108.432 202.822V197.044H110.286V195.694H108.432ZM115.64 206.242C115.46 206.698 115.28 207.082 115.1 207.394C114.932 207.706 114.74 207.958 114.524 208.15C114.32 208.354 114.086 208.498 113.822 208.582C113.57 208.678 113.276 208.726 112.94 208.726C112.76 208.726 112.58 208.714 112.4 208.69C112.22 208.666 112.046 208.624 111.878 208.564V207.16C112.01 207.22 112.16 207.268 112.328 207.304C112.508 207.352 112.658 207.376 112.778 207.376C113.09 207.376 113.348 207.298 113.552 207.142C113.768 206.998 113.93 206.788 114.038 206.512L114.668 204.946L110.978 195.694H112.706L115.424 203.308H115.46L118.07 195.694H119.69L115.64 206.242Z" fill="black"/>
<path d="M337.114 198.304V193.588H340.462C341.434 193.588 342.142 193.792 342.586 194.2C343.042 194.596 343.27 195.178 343.27 195.946C343.27 196.714 343.042 197.302 342.586 197.71C342.142 198.118 341.434 198.316 340.462 198.304H337.114ZM335.404 192.148V205H337.114V199.744H341.038C342.334 199.756 343.312 199.426 343.972 198.754C344.644 198.082 344.98 197.146 344.98 195.946C344.98 194.746 344.644 193.816 343.972 193.156C343.312 192.484 342.334 192.148 341.038 192.148H335.404ZM347.94 200.356C347.94 199.792 348.012 199.294 348.156 198.862C348.312 198.418 348.522 198.046 348.786 197.746C349.05 197.446 349.356 197.218 349.704 197.062C350.064 196.906 350.442 196.828 350.838 196.828C351.234 196.828 351.606 196.906 351.954 197.062C352.314 197.218 352.626 197.446 352.89 197.746C353.154 198.046 353.358 198.418 353.502 198.862C353.658 199.294 353.736 199.792 353.736 200.356C353.736 200.92 353.658 201.424 353.502 201.868C353.358 202.3 353.154 202.666 352.89 202.966C352.626 203.254 352.314 203.476 351.954 203.632C351.606 203.788 351.234 203.866 350.838 203.866C350.442 203.866 350.064 203.788 349.704 203.632C349.356 203.476 349.05 203.254 348.786 202.966C348.522 202.666 348.312 202.3 348.156 201.868C348.012 201.424 347.94 200.92 347.94 200.356ZM346.32 200.356C346.32 201.04 346.416 201.676 346.608 202.264C346.8 202.852 347.088 203.368 347.472 203.812C347.856 204.244 348.33 204.586 348.894 204.838C349.458 205.078 350.106 205.198 350.838 205.198C351.582 205.198 352.23 205.078 352.782 204.838C353.346 204.586 353.82 204.244 354.204 203.812C354.588 203.368 354.876 202.852 355.068 202.264C355.26 201.676 355.356 201.04 355.356 200.356C355.356 199.672 355.26 199.036 355.068 198.448C354.876 197.848 354.588 197.332 354.204 196.9C353.82 196.456 353.346 196.108 352.782 195.856C352.23 195.604 351.582 195.478 350.838 195.478C350.106 195.478 349.458 195.604 348.894 195.856C348.33 196.108 347.856 196.456 347.472 196.9C347.088 197.332 346.8 197.848 346.608 198.448C346.416 199.036 346.32 199.672 346.32 200.356ZM357.214 195.694V208.546H358.744V203.758H358.78C358.948 204.034 359.152 204.268 359.392 204.46C359.644 204.64 359.908 204.784 360.184 204.892C360.46 205 360.736 205.078 361.012 205.126C361.3 205.174 361.558 205.198 361.786 205.198C362.494 205.198 363.112 205.072 363.64 204.82C364.18 204.568 364.624 204.226 364.972 203.794C365.332 203.35 365.596 202.834 365.764 202.246C365.944 201.658 366.034 201.034 366.034 200.374C366.034 199.714 365.944 199.09 365.764 198.502C365.584 197.914 365.314 197.398 364.954 196.954C364.606 196.498 364.162 196.138 363.622 195.874C363.094 195.61 362.47 195.478 361.75 195.478C361.102 195.478 360.508 195.598 359.968 195.838C359.428 196.066 359.032 196.438 358.78 196.954H358.744V195.694H357.214ZM364.414 200.266C364.414 200.722 364.366 201.166 364.27 201.598C364.174 202.03 364.018 202.414 363.802 202.75C363.586 203.086 363.298 203.356 362.938 203.56C362.59 203.764 362.152 203.866 361.624 203.866C361.096 203.866 360.646 203.77 360.274 203.578C359.902 203.374 359.596 203.11 359.356 202.786C359.128 202.462 358.96 202.09 358.852 201.67C358.744 201.238 358.69 200.794 358.69 200.338C358.69 199.906 358.738 199.48 358.834 199.06C358.942 198.64 359.11 198.268 359.338 197.944C359.566 197.608 359.86 197.338 360.22 197.134C360.58 196.93 361.018 196.828 361.534 196.828C362.026 196.828 362.452 196.924 362.812 197.116C363.184 197.308 363.484 197.566 363.712 197.89C363.952 198.214 364.126 198.586 364.234 199.006C364.354 199.414 364.414 199.834 364.414 200.266ZM375.534 205V195.694H374.004V200.95C374.004 201.37 373.944 201.76 373.824 202.12C373.716 202.468 373.548 202.774 373.32 203.038C373.092 203.302 372.804 203.506 372.456 203.65C372.12 203.794 371.718 203.866 371.25 203.866C370.662 203.866 370.2 203.698 369.864 203.362C369.528 203.026 369.36 202.57 369.36 201.994V195.694H367.83V201.814C367.83 202.318 367.878 202.78 367.974 203.2C368.082 203.608 368.262 203.962 368.514 204.262C368.766 204.562 369.096 204.796 369.504 204.964C369.912 205.12 370.422 205.198 371.034 205.198C371.718 205.198 372.312 205.066 372.816 204.802C373.32 204.526 373.734 204.1 374.058 203.524H374.094V205H375.534ZM377.922 192.148V205H379.452V192.148H377.922ZM390.066 204.964C389.802 205.12 389.436 205.198 388.968 205.198C388.572 205.198 388.254 205.09 388.014 204.874C387.786 204.646 387.672 204.28 387.672 203.776C387.252 204.28 386.76 204.646 386.196 204.874C385.644 205.09 385.044 205.198 384.396 205.198C383.976 205.198 383.574 205.15 383.19 205.054C382.818 204.958 382.494 204.808 382.218 204.604C381.942 204.4 381.72 204.136 381.552 203.812C381.396 203.476 381.318 203.074 381.318 202.606C381.318 202.078 381.408 201.646 381.588 201.31C381.768 200.974 382.002 200.704 382.29 200.5C382.59 200.284 382.926 200.122 383.298 200.014C383.682 199.906 384.072 199.816 384.468 199.744C384.888 199.66 385.284 199.6 385.656 199.564C386.04 199.516 386.376 199.456 386.664 199.384C386.952 199.3 387.18 199.186 387.348 199.042C387.516 198.886 387.6 198.664 387.6 198.376C387.6 198.04 387.534 197.77 387.402 197.566C387.282 197.362 387.12 197.206 386.916 197.098C386.724 196.99 386.502 196.918 386.25 196.882C386.01 196.846 385.77 196.828 385.53 196.828C384.882 196.828 384.342 196.954 383.91 197.206C383.478 197.446 383.244 197.908 383.208 198.592H381.678C381.702 198.016 381.822 197.53 382.038 197.134C382.254 196.738 382.542 196.42 382.902 196.18C383.262 195.928 383.67 195.748 384.126 195.64C384.594 195.532 385.092 195.478 385.62 195.478C386.04 195.478 386.454 195.508 386.862 195.568C387.282 195.628 387.66 195.754 387.996 195.946C388.332 196.126 388.602 196.384 388.806 196.72C389.01 197.056 389.112 197.494 389.112 198.034V202.822C389.112 203.182 389.13 203.446 389.166 203.614C389.214 203.782 389.358 203.866 389.598 203.866C389.73 203.866 389.886 203.836 390.066 203.776V204.964ZM387.582 200.194C387.39 200.338 387.138 200.446 386.826 200.518C386.514 200.578 386.184 200.632 385.836 200.68C385.5 200.716 385.158 200.764 384.81 200.824C384.462 200.872 384.15 200.956 383.874 201.076C383.598 201.196 383.37 201.37 383.19 201.598C383.022 201.814 382.938 202.114 382.938 202.498C382.938 202.75 382.986 202.966 383.082 203.146C383.19 203.314 383.322 203.452 383.478 203.56C383.646 203.668 383.838 203.746 384.054 203.794C384.27 203.842 384.498 203.866 384.738 203.866C385.242 203.866 385.674 203.8 386.034 203.668C386.394 203.524 386.688 203.35 386.916 203.146C387.144 202.93 387.312 202.702 387.42 202.462C387.528 202.21 387.582 201.976 387.582 201.76V200.194ZM391.436 195.694V205H392.966V200.86C392.966 200.26 393.026 199.732 393.146 199.276C393.266 198.808 393.458 198.412 393.722 198.088C393.986 197.764 394.334 197.518 394.766 197.35C395.198 197.182 395.72 197.098 396.332 197.098V195.478C395.504 195.454 394.82 195.622 394.28 195.982C393.74 196.342 393.284 196.9 392.912 197.656H392.876V195.694H391.436ZM399.104 194.02V192.148H397.574V194.02H399.104ZM397.574 195.694V205H399.104V195.694H397.574ZM403.598 195.694V192.904H402.068V195.694H400.484V197.044H402.068V202.966C402.068 203.398 402.11 203.746 402.194 204.01C402.278 204.274 402.404 204.478 402.572 204.622C402.752 204.766 402.98 204.868 403.256 204.928C403.544 204.976 403.886 205 404.282 205H405.452V203.65H404.75C404.51 203.65 404.312 203.644 404.156 203.632C404.012 203.608 403.898 203.566 403.814 203.506C403.73 203.446 403.67 203.362 403.634 203.254C403.61 203.146 403.598 203.002 403.598 202.822V197.044H405.452V195.694H403.598ZM410.806 206.242C410.626 206.698 410.446 207.082 410.266 207.394C410.098 207.706 409.906 207.958 409.69 208.15C409.486 208.354 409.252 208.498 408.988 208.582C408.736 208.678 408.442 208.726 408.106 208.726C407.926 208.726 407.746 208.714 407.566 208.69C407.386 208.666 407.212 208.624 407.044 208.564V207.16C407.176 207.22 407.326 207.268 407.494 207.304C407.674 207.352 407.824 207.376 407.944 207.376C408.256 207.376 408.514 207.298 408.718 207.142C408.934 206.998 409.096 206.788 409.204 206.512L409.834 204.946L406.144 195.694H407.872L410.59 203.308H410.626L413.236 195.694H414.856L410.806 206.242Z" fill="black"/>
<path d="M647.78 199.69L649.958 193.696H649.994L652.136 199.69H647.78ZM649.058 192.148L644.054 205H645.8L647.24 201.13H652.676L654.08 205H655.97L650.948 192.148H649.058ZM663.304 198.682H664.888C664.828 198.13 664.684 197.656 664.456 197.26C664.228 196.852 663.934 196.516 663.574 196.252C663.226 195.988 662.818 195.796 662.35 195.676C661.894 195.544 661.402 195.478 660.874 195.478C660.142 195.478 659.5 195.61 658.948 195.874C658.396 196.126 657.934 196.48 657.562 196.936C657.202 197.38 656.932 197.908 656.752 198.52C656.572 199.12 656.482 199.768 656.482 200.464C656.482 201.16 656.572 201.802 656.752 202.39C656.944 202.966 657.22 203.464 657.58 203.884C657.952 204.304 658.408 204.628 658.948 204.856C659.5 205.084 660.13 205.198 660.838 205.198C662.026 205.198 662.962 204.886 663.646 204.262C664.342 203.638 664.774 202.75 664.942 201.598H663.376C663.28 202.318 663.016 202.876 662.584 203.272C662.164 203.668 661.576 203.866 660.82 203.866C660.34 203.866 659.926 203.77 659.578 203.578C659.23 203.386 658.948 203.134 658.732 202.822C658.516 202.498 658.354 202.132 658.246 201.724C658.15 201.316 658.102 200.896 658.102 200.464C658.102 199.996 658.15 199.546 658.246 199.114C658.342 198.67 658.498 198.28 658.714 197.944C658.942 197.608 659.242 197.338 659.614 197.134C659.986 196.93 660.448 196.828 661 196.828C661.648 196.828 662.164 196.99 662.548 197.314C662.932 197.638 663.184 198.094 663.304 198.682ZM668.778 195.694V192.904H667.248V195.694H665.664V197.044H667.248V202.966C667.248 203.398 667.29 203.746 667.374 204.01C667.458 204.274 667.584 204.478 667.752 204.622C667.932 204.766 668.16 204.868 668.436 204.928C668.724 204.976 669.066 205 669.462 205H670.632V203.65H669.93C669.69 203.65 669.492 203.644 669.336 203.632C669.192 203.608 669.078 203.566 668.994 203.506C668.91 203.446 668.85 203.362 668.814 203.254C668.79 203.146 668.778 203.002 668.778 202.822V197.044H670.632V195.694H668.778ZM673.952 194.02V192.148H672.422V194.02H673.952ZM672.422 195.694V205H673.952V195.694H672.422ZM680.516 205L683.918 195.694H682.316L679.778 203.452H679.742L677.132 195.694H675.422L678.878 205H680.516ZM686.942 194.02V192.148H685.412V194.02H686.942ZM685.412 195.694V205H686.942V195.694H685.412ZM691.436 195.694V192.904H689.906V195.694H688.322V197.044H689.906V202.966C689.906 203.398 689.948 203.746 690.032 204.01C690.116 204.274 690.242 204.478 690.41 204.622C690.59 204.766 690.818 204.868 691.094 204.928C691.382 204.976 691.724 205 692.12 205H693.29V203.65H692.588C692.348 203.65 692.15 203.644 691.994 203.632C691.85 203.608 691.736 203.566 691.652 203.506C691.568 203.446 691.508 203.362 691.472 203.254C691.448 203.146 691.436 203.002 691.436 202.822V197.044H693.29V195.694H691.436ZM698.644 206.242C698.464 206.698 698.284 207.082 698.104 207.394C697.936 207.706 697.744 207.958 697.528 208.15C697.324 208.354 697.09 208.498 696.826 208.582C696.574 208.678 696.28 208.726 695.944 208.726C695.764 208.726 695.584 208.714 695.404 208.69C695.224 208.666 695.05 208.624 694.882 208.564V207.16C695.014 207.22 695.164 207.268 695.332 207.304C695.512 207.352 695.662 207.376 695.782 207.376C696.094 207.376 696.352 207.298 696.556 207.142C696.772 206.998 696.934 206.788 697.042 206.512L697.672 204.946L693.982 195.694H695.71L698.428 203.308H698.464L701.074 195.694H702.694L698.644 206.242Z" fill="black"/>
<path d="M907.646 193.588V205H909.356V193.588H913.64V192.148H903.362V193.588H907.646ZM913.108 195.694V205H914.638V200.86C914.638 200.26 914.698 199.732 914.818 199.276C914.938 198.808 915.13 198.412 915.394 198.088C915.658 197.764 916.006 197.518 916.438 197.35C916.87 197.182 917.392 197.098 918.004 197.098V195.478C917.176 195.454 916.492 195.622 915.952 195.982C915.412 196.342 914.956 196.9 914.584 197.656H914.548V195.694H913.108ZM927.4 204.964C927.136 205.12 926.77 205.198 926.302 205.198C925.906 205.198 925.588 205.09 925.348 204.874C925.12 204.646 925.006 204.28 925.006 203.776C924.586 204.28 924.094 204.646 923.53 204.874C922.978 205.09 922.378 205.198 921.73 205.198C921.31 205.198 920.908 205.15 920.524 205.054C920.152 204.958 919.828 204.808 919.552 204.604C919.276 204.4 919.054 204.136 918.886 203.812C918.73 203.476 918.652 203.074 918.652 202.606C918.652 202.078 918.742 201.646 918.922 201.31C919.102 200.974 919.336 200.704 919.624 200.5C919.924 200.284 920.26 200.122 920.632 200.014C921.016 199.906 921.406 199.816 921.802 199.744C922.222 199.66 922.618 199.6 922.99 199.564C923.374 199.516 923.71 199.456 923.998 199.384C924.286 199.3 924.514 199.186 924.682 199.042C924.85 198.886 924.934 198.664 924.934 198.376C924.934 198.04 924.868 197.77 924.736 197.566C924.616 197.362 924.454 197.206 924.25 197.098C924.058 196.99 923.836 196.918 923.584 196.882C923.344 196.846 923.104 196.828 922.864 196.828C922.216 196.828 921.676 196.954 921.244 197.206C920.812 197.446 920.578 197.908 920.542 198.592H919.012C919.036 198.016 919.156 197.53 919.372 197.134C919.588 196.738 919.876 196.42 920.236 196.18C920.596 195.928 921.004 195.748 921.46 195.64C921.928 195.532 922.426 195.478 922.954 195.478C923.374 195.478 923.788 195.508 924.196 195.568C924.616 195.628 924.994 195.754 925.33 195.946C925.666 196.126 925.936 196.384 926.14 196.72C926.344 197.056 926.446 197.494 926.446 198.034V202.822C926.446 203.182 926.464 203.446 926.5 203.614C926.548 203.782 926.692 203.866 926.932 203.866C927.064 203.866 927.22 203.836 927.4 203.776V204.964ZM924.916 200.194C924.724 200.338 924.472 200.446 924.16 200.518C923.848 200.578 923.518 200.632 923.17 200.68C922.834 200.716 922.492 200.764 922.144 200.824C921.796 200.872 921.484 200.956 921.208 201.076C920.932 201.196 920.704 201.37 920.524 201.598C920.356 201.814 920.272 202.114 920.272 202.498C920.272 202.75 920.32 202.966 920.416 203.146C920.524 203.314 920.656 203.452 920.812 203.56C920.98 203.668 921.172 203.746 921.388 203.794C921.604 203.842 921.832 203.866 922.072 203.866C922.576 203.866 923.008 203.8 923.368 203.668C923.728 203.524 924.022 203.35 924.25 203.146C924.478 202.93 924.646 202.702 924.754 202.462C924.862 202.21 924.916 201.976 924.916 201.76V200.194ZM928.824 195.694V205H930.354V199.744C930.354 199.324 930.408 198.94 930.516 198.592C930.636 198.232 930.81 197.92 931.038 197.656C931.266 197.392 931.548 197.188 931.884 197.044C932.232 196.9 932.64 196.828 933.108 196.828C933.696 196.828 934.158 196.996 934.494 197.332C934.83 197.668 934.998 198.124 934.998 198.7V205H936.528V198.88C936.528 198.376 936.474 197.92 936.366 197.512C936.27 197.092 936.096 196.732 935.844 196.432C935.592 196.132 935.262 195.898 934.854 195.73C934.446 195.562 933.936 195.478 933.324 195.478C931.944 195.478 930.936 196.042 930.3 197.17H930.264V195.694H928.824ZM939.762 202.066H938.232C938.256 202.642 938.376 203.134 938.592 203.542C938.808 203.938 939.096 204.262 939.456 204.514C939.816 204.754 940.23 204.928 940.698 205.036C941.166 205.144 941.658 205.198 942.174 205.198C942.642 205.198 943.11 205.15 943.578 205.054C944.058 204.97 944.484 204.814 944.856 204.586C945.24 204.358 945.546 204.058 945.774 203.686C946.014 203.314 946.134 202.846 946.134 202.282C946.134 201.838 946.044 201.466 945.864 201.166C945.696 200.866 945.468 200.62 945.18 200.428C944.904 200.224 944.58 200.062 944.208 199.942C943.848 199.822 943.476 199.72 943.092 199.636C942.732 199.552 942.372 199.474 942.012 199.402C941.652 199.318 941.328 199.222 941.04 199.114C940.752 198.994 940.512 198.85 940.32 198.682C940.14 198.502 940.05 198.28 940.05 198.016C940.05 197.776 940.11 197.584 940.23 197.44C940.35 197.284 940.506 197.164 940.698 197.08C940.89 196.984 941.1 196.918 941.328 196.882C941.568 196.846 941.802 196.828 942.03 196.828C942.282 196.828 942.528 196.858 942.768 196.918C943.02 196.966 943.248 197.05 943.452 197.17C943.656 197.29 943.824 197.452 943.956 197.656C944.088 197.848 944.166 198.094 944.19 198.394H945.72C945.684 197.83 945.564 197.362 945.36 196.99C945.156 196.606 944.88 196.306 944.532 196.09C944.196 195.862 943.806 195.706 943.362 195.622C942.918 195.526 942.432 195.478 941.904 195.478C941.496 195.478 941.082 195.532 940.662 195.64C940.254 195.736 939.882 195.892 939.546 196.108C939.222 196.312 938.952 196.582 938.736 196.918C938.532 197.254 938.43 197.656 938.43 198.124C938.43 198.724 938.58 199.192 938.88 199.528C939.18 199.864 939.552 200.128 939.996 200.32C940.452 200.5 940.944 200.644 941.472 200.752C942 200.848 942.486 200.962 942.93 201.094C943.386 201.214 943.764 201.376 944.064 201.58C944.364 201.784 944.514 202.084 944.514 202.48C944.514 202.768 944.442 203.008 944.298 203.2C944.154 203.38 943.968 203.518 943.74 203.614C943.524 203.71 943.284 203.776 943.02 203.812C942.756 203.848 942.504 203.866 942.264 203.866C941.952 203.866 941.646 203.836 941.346 203.776C941.058 203.716 940.794 203.62 940.554 203.488C940.326 203.344 940.14 203.158 939.996 202.93C939.852 202.69 939.774 202.402 939.762 202.066ZM949.446 194.02V192.148H947.916V194.02H949.446ZM947.916 195.694V205H949.446V195.694H947.916ZM953.94 195.694V192.904H952.41V195.694H950.826V197.044H952.41V202.966C952.41 203.398 952.452 203.746 952.536 204.01C952.62 204.274 952.746 204.478 952.914 204.622C953.094 204.766 953.322 204.868 953.598 204.928C953.886 204.976 954.228 205 954.624 205H955.794V203.65H955.092C954.852 203.65 954.654 203.644 954.498 203.632C954.354 203.608 954.24 203.566 954.156 203.506C954.072 203.446 954.012 203.362 953.976 203.254C953.952 203.146 953.94 203.002 953.94 202.822V197.044H955.794V195.694H953.94ZM959.114 194.02V192.148H957.584V194.02H959.114ZM957.584 195.694V205H959.114V195.694H957.584ZM965.678 205L969.08 195.694H967.478L964.94 203.452H964.904L962.294 195.694H960.584L964.04 205H965.678ZM976.946 199.456H971.6C971.624 199.096 971.702 198.76 971.834 198.448C971.966 198.124 972.146 197.842 972.374 197.602C972.602 197.362 972.872 197.176 973.184 197.044C973.508 196.9 973.868 196.828 974.264 196.828C974.648 196.828 974.996 196.9 975.308 197.044C975.632 197.176 975.908 197.362 976.136 197.602C976.376 197.83 976.562 198.106 976.694 198.43C976.838 198.754 976.922 199.096 976.946 199.456ZM978.422 202.048H976.91C976.778 202.66 976.502 203.116 976.082 203.416C975.674 203.716 975.146 203.866 974.498 203.866C973.994 203.866 973.556 203.782 973.184 203.614C972.812 203.446 972.506 203.224 972.266 202.948C972.026 202.66 971.852 202.336 971.744 201.976C971.636 201.604 971.588 201.214 971.6 200.806H978.566C978.59 200.242 978.536 199.648 978.404 199.024C978.284 198.4 978.056 197.824 977.72 197.296C977.396 196.768 976.958 196.336 976.406 196C975.866 195.652 975.182 195.478 974.354 195.478C973.718 195.478 973.13 195.598 972.59 195.838C972.062 196.078 971.6 196.414 971.204 196.846C970.82 197.278 970.52 197.788 970.304 198.376C970.088 198.964 969.98 199.612 969.98 200.32C970.004 201.028 970.106 201.682 970.286 202.282C970.478 202.882 970.76 203.398 971.132 203.83C971.504 204.262 971.96 204.598 972.5 204.838C973.052 205.078 973.7 205.198 974.444 205.198C975.5 205.198 976.376 204.934 977.072 204.406C977.768 203.878 978.218 203.092 978.422 202.048ZM994.45 196.018H996.16C996.064 195.334 995.86 194.734 995.548 194.218C995.236 193.69 994.846 193.252 994.378 192.904C993.91 192.556 993.376 192.292 992.776 192.112C992.176 191.932 991.54 191.842 990.868 191.842C989.884 191.842 989.008 192.022 988.24 192.382C987.484 192.73 986.848 193.21 986.332 193.822C985.828 194.434 985.444 195.154 985.18 195.982C984.916 196.798 984.784 197.674 984.784 198.61C984.784 199.546 984.904 200.422 985.144 201.238C985.396 202.054 985.768 202.762 986.26 203.362C986.752 203.962 987.37 204.436 988.114 204.784C988.858 205.12 989.728 205.288 990.724 205.288C992.368 205.288 993.664 204.838 994.612 203.938C995.56 203.038 996.118 201.778 996.286 200.158H994.576C994.54 200.686 994.432 201.178 994.252 201.634C994.072 202.09 993.82 202.486 993.496 202.822C993.184 203.146 992.806 203.404 992.362 203.596C991.93 203.776 991.432 203.866 990.868 203.866C990.1 203.866 989.44 203.722 988.888 203.434C988.336 203.146 987.88 202.762 987.52 202.282C987.172 201.79 986.914 201.22 986.746 200.572C986.578 199.912 986.494 199.216 986.494 198.484C986.494 197.812 986.578 197.164 986.746 196.54C986.914 195.916 987.172 195.364 987.52 194.884C987.88 194.392 988.33 194.002 988.87 193.714C989.422 193.426 990.082 193.282 990.85 193.282C991.75 193.282 992.524 193.51 993.172 193.966C993.832 194.422 994.258 195.106 994.45 196.018ZM998.242 192.148V205H999.772V192.148H998.242ZM1003.26 200.356C1003.26 199.792 1003.33 199.294 1003.47 198.862C1003.63 198.418 1003.84 198.046 1004.1 197.746C1004.37 197.446 1004.67 197.218 1005.02 197.062C1005.38 196.906 1005.76 196.828 1006.16 196.828C1006.55 196.828 1006.92 196.906 1007.27 197.062C1007.63 197.218 1007.94 197.446 1008.21 197.746C1008.47 198.046 1008.68 198.418 1008.82 198.862C1008.98 199.294 1009.05 199.792 1009.05 200.356C1009.05 200.92 1008.98 201.424 1008.82 201.868C1008.68 202.3 1008.47 202.666 1008.21 202.966C1007.94 203.254 1007.63 203.476 1007.27 203.632C1006.92 203.788 1006.55 203.866 1006.16 203.866C1005.76 203.866 1005.38 203.788 1005.02 203.632C1004.67 203.476 1004.37 203.254 1004.1 202.966C1003.84 202.666 1003.63 202.3 1003.47 201.868C1003.33 201.424 1003.26 200.92 1003.26 200.356ZM1001.64 200.356C1001.64 201.04 1001.73 201.676 1001.93 202.264C1002.12 202.852 1002.41 203.368 1002.79 203.812C1003.17 204.244 1003.65 204.586 1004.21 204.838C1004.78 205.078 1005.42 205.198 1006.16 205.198C1006.9 205.198 1007.55 205.078 1008.1 204.838C1008.66 204.586 1009.14 204.244 1009.52 203.812C1009.91 203.368 1010.19 202.852 1010.39 202.264C1010.58 201.676 1010.67 201.04 1010.67 200.356C1010.67 199.672 1010.58 199.036 1010.39 198.448C1010.19 197.848 1009.91 197.332 1009.52 196.9C1009.14 196.456 1008.66 196.108 1008.1 195.856C1007.55 195.604 1006.9 195.478 1006.16 195.478C1005.42 195.478 1004.78 195.604 1004.21 195.856C1003.65 196.108 1003.17 196.456 1002.79 196.9C1002.41 197.332 1002.12 197.848 1001.93 198.448C1001.73 199.036 1001.64 199.672 1001.64 200.356ZM1013.41 202.066H1011.88C1011.91 202.642 1012.03 203.134 1012.24 203.542C1012.46 203.938 1012.75 204.262 1013.11 204.514C1013.47 204.754 1013.88 204.928 1014.35 205.036C1014.82 205.144 1015.31 205.198 1015.83 205.198C1016.29 205.198 1016.76 205.15 1017.23 205.054C1017.71 204.97 1018.14 204.814 1018.51 204.586C1018.89 204.358 1019.2 204.058 1019.43 203.686C1019.67 203.314 1019.79 202.846 1019.79 202.282C1019.79 201.838 1019.7 201.466 1019.52 201.166C1019.35 200.866 1019.12 200.62 1018.83 200.428C1018.56 200.224 1018.23 200.062 1017.86 199.942C1017.5 199.822 1017.13 199.72 1016.74 199.636C1016.38 199.552 1016.02 199.474 1015.66 199.402C1015.3 199.318 1014.98 199.222 1014.69 199.114C1014.4 198.994 1014.16 198.85 1013.97 198.682C1013.79 198.502 1013.7 198.28 1013.7 198.016C1013.7 197.776 1013.76 197.584 1013.88 197.44C1014 197.284 1014.16 197.164 1014.35 197.08C1014.54 196.984 1014.75 196.918 1014.98 196.882C1015.22 196.846 1015.45 196.828 1015.68 196.828C1015.93 196.828 1016.18 196.858 1016.42 196.918C1016.67 196.966 1016.9 197.05 1017.1 197.17C1017.31 197.29 1017.48 197.452 1017.61 197.656C1017.74 197.848 1017.82 198.094 1017.84 198.394H1019.37C1019.34 197.83 1019.22 197.362 1019.01 196.99C1018.81 196.606 1018.53 196.306 1018.18 196.09C1017.85 195.862 1017.46 195.706 1017.01 195.622C1016.57 195.526 1016.08 195.478 1015.56 195.478C1015.15 195.478 1014.73 195.532 1014.31 195.64C1013.91 195.736 1013.53 195.892 1013.2 196.108C1012.87 196.312 1012.6 196.582 1012.39 196.918C1012.18 197.254 1012.08 197.656 1012.08 198.124C1012.08 198.724 1012.23 199.192 1012.53 199.528C1012.83 199.864 1013.2 200.128 1013.65 200.32C1014.1 200.5 1014.6 200.644 1015.12 200.752C1015.65 200.848 1016.14 200.962 1016.58 201.094C1017.04 201.214 1017.42 201.376 1017.72 201.58C1018.02 201.784 1018.17 202.084 1018.17 202.48C1018.17 202.768 1018.09 203.008 1017.95 203.2C1017.81 203.38 1017.62 203.518 1017.39 203.614C1017.18 203.71 1016.94 203.776 1016.67 203.812C1016.41 203.848 1016.16 203.866 1015.92 203.866C1015.6 203.866 1015.3 203.836 1015 203.776C1014.71 203.716 1014.45 203.62 1014.21 203.488C1013.98 203.344 1013.79 203.158 1013.65 202.93C1013.5 202.69 1013.43 202.402 1013.41 202.066ZM1029.18 205V195.694H1027.65V200.95C1027.65 201.37 1027.59 201.76 1027.47 202.12C1027.36 202.468 1027.2 202.774 1026.97 203.038C1026.74 203.302 1026.45 203.506 1026.1 203.65C1025.77 203.794 1025.37 203.866 1024.9 203.866C1024.31 203.866 1023.85 203.698 1023.51 203.362C1023.18 203.026 1023.01 202.57 1023.01 201.994V195.694H1021.48V201.814C1021.48 202.318 1021.53 202.78 1021.62 203.2C1021.73 203.608 1021.91 203.962 1022.16 204.262C1022.41 204.562 1022.74 204.796 1023.15 204.964C1023.56 205.12 1024.07 205.198 1024.68 205.198C1025.37 205.198 1025.96 205.066 1026.46 204.802C1026.97 204.526 1027.38 204.1 1027.71 203.524H1027.74V205H1029.18ZM1031.43 195.694V205H1032.96V200.86C1032.96 200.26 1033.02 199.732 1033.14 199.276C1033.26 198.808 1033.45 198.412 1033.71 198.088C1033.98 197.764 1034.32 197.518 1034.76 197.35C1035.19 197.182 1035.71 197.098 1036.32 197.098V195.478C1035.49 195.454 1034.81 195.622 1034.27 195.982C1033.73 196.342 1033.27 196.9 1032.9 197.656H1032.87V195.694H1031.43ZM1043.62 199.456H1038.27C1038.3 199.096 1038.38 198.76 1038.51 198.448C1038.64 198.124 1038.82 197.842 1039.05 197.602C1039.28 197.362 1039.55 197.176 1039.86 197.044C1040.18 196.9 1040.54 196.828 1040.94 196.828C1041.32 196.828 1041.67 196.9 1041.98 197.044C1042.31 197.176 1042.58 197.362 1042.81 197.602C1043.05 197.83 1043.24 198.106 1043.37 198.43C1043.51 198.754 1043.6 199.096 1043.62 199.456ZM1045.1 202.048H1043.58C1043.45 202.66 1043.18 203.116 1042.76 203.416C1042.35 203.716 1041.82 203.866 1041.17 203.866C1040.67 203.866 1040.23 203.782 1039.86 203.614C1039.49 203.446 1039.18 203.224 1038.94 202.948C1038.7 202.66 1038.53 202.336 1038.42 201.976C1038.31 201.604 1038.26 201.214 1038.27 200.806H1045.24C1045.26 200.242 1045.21 199.648 1045.08 199.024C1044.96 198.4 1044.73 197.824 1044.39 197.296C1044.07 196.768 1043.63 196.336 1043.08 196C1042.54 195.652 1041.86 195.478 1041.03 195.478C1040.39 195.478 1039.8 195.598 1039.26 195.838C1038.74 196.078 1038.27 196.414 1037.88 196.846C1037.49 197.278 1037.19 197.788 1036.98 198.376C1036.76 198.964 1036.65 199.612 1036.65 200.32C1036.68 201.028 1036.78 201.682 1036.96 202.282C1037.15 202.882 1037.43 203.398 1037.81 203.83C1038.18 204.262 1038.63 204.598 1039.17 204.838C1039.73 205.078 1040.37 205.198 1041.12 205.198C1042.17 205.198 1043.05 204.934 1043.75 204.406C1044.44 203.878 1044.89 203.092 1045.1 202.048Z" fill="black"/>
</svg>
