<?xml version="1.0" encoding="UTF-8" standalone="no"?>
<!DOCTYPE svg PUBLIC "-//W3C//DTD SVG 1.1//EN" "http://www.w3.org/Graphics/SVG/1.1/DTD/svg11.dtd">
<svg width="100%" height="100%" viewBox="0 0 127 91" version="1.1" xmlns="http://www.w3.org/2000/svg" xmlns:xlink="http://www.w3.org/1999/xlink" xml:space="preserve" xmlns:serif="http://www.serif.com/" style="fill-rule:evenodd;clip-rule:evenodd;">
    <path d="M12.313,68.818C17.836,68.818 22.313,64.341 22.313,58.818C22.313,53.295 17.836,48.818 12.313,48.818C6.79,48.818 2.313,53.295 2.313,58.818C2.313,64.341 6.79,68.818 12.313,68.818Z" style="fill:white;fill-rule:nonzero;stroke:black;stroke-width:1px;"/>
    <path d="M116,69C121.523,69 126,64.523 126,59C126,53.477 121.523,49 116,49C110.477,49 106,53.477 106,59C106,64.523 110.477,69 116,69Z" style="fill:rgb(153,153,153);fill-rule:nonzero;stroke:black;stroke-width:1px;"/>
    <path d="M105.061,60.061C105.646,59.475 105.646,58.525 105.061,57.939L95.515,48.393C94.929,47.808 93.979,47.808 93.393,48.393C92.808,48.979 92.808,49.929 93.393,50.515L101.879,59L93.393,67.485C92.808,68.071 92.808,69.021 93.393,69.607C93.979,70.192 94.929,70.192 95.515,69.607L105.061,60.061ZM24,60.5L104,60.5L104,57.5L24,57.5L24,60.5Z" style="fill-rule:nonzero;"/>
    <path d="M118.555,87L118.555,74.4L116.521,74.4C116.449,74.88 116.299,75.282 116.071,75.606C115.843,75.93 115.561,76.194 115.225,76.398C114.901,76.59 114.529,76.728 114.109,76.812C113.701,76.884 113.275,76.914 112.831,76.902L112.831,78.828L115.999,78.828L115.999,87L118.555,87Z" style="fill-rule:nonzero;"/>
    <path d="M10.7,16.542L10.988,18L12.788,18L12.788,11.052L7.388,11.052L7.388,13.158L10.232,13.158C10.148,14.058 9.848,14.748 9.332,15.228C8.828,15.696 8.108,15.93 7.172,15.93C6.536,15.93 5.996,15.81 5.552,15.57C5.108,15.318 4.748,14.988 4.472,14.58C4.196,14.172 3.992,13.716 3.86,13.212C3.74,12.696 3.68,12.168 3.68,11.628C3.68,11.064 3.74,10.518 3.86,9.99C3.992,9.462 4.196,8.994 4.472,8.586C4.748,8.166 5.108,7.836 5.552,7.596C5.996,7.344 6.536,7.218 7.172,7.218C7.856,7.218 8.438,7.398 8.918,7.758C9.398,8.118 9.722,8.658 9.89,9.378L12.59,9.378C12.518,8.646 12.32,7.998 11.996,7.434C11.672,6.87 11.258,6.396 10.754,6.012C10.262,5.628 9.704,5.34 9.08,5.148C8.468,4.944 7.832,4.842 7.172,4.842C6.188,4.842 5.3,5.016 4.508,5.364C3.728,5.712 3.068,6.192 2.528,6.804C1.988,7.416 1.574,8.136 1.286,8.964C0.998,9.78 0.854,10.668 0.854,11.628C0.854,12.564 0.998,13.44 1.286,14.256C1.574,15.06 1.988,15.762 2.528,16.362C3.068,16.962 3.728,17.436 4.508,17.784C5.3,18.12 6.188,18.288 7.172,18.288C7.796,18.288 8.414,18.162 9.026,17.91C9.638,17.646 10.196,17.19 10.7,16.542ZM16.762,11.646L16.762,10.872C16.774,10.56 16.798,10.242 16.834,9.918C16.87,9.594 16.93,9.276 17.014,8.964C17.098,8.64 17.212,8.352 17.356,8.1C17.512,7.848 17.704,7.644 17.932,7.488C18.172,7.332 18.466,7.254 18.814,7.254C19.162,7.254 19.456,7.332 19.696,7.488C19.936,7.644 20.134,7.848 20.29,8.1C20.446,8.352 20.56,8.64 20.632,8.964C20.716,9.276 20.776,9.594 20.812,9.918C20.86,10.242 20.884,10.56 20.884,10.872C20.896,11.172 20.902,11.43 20.902,11.646C20.902,12.006 20.89,12.444 20.866,12.96C20.842,13.464 20.764,13.956 20.632,14.436C20.512,14.904 20.308,15.306 20.02,15.642C19.744,15.978 19.342,16.146 18.814,16.146C18.298,16.146 17.902,15.978 17.626,15.642C17.35,15.306 17.146,14.904 17.014,14.436C16.894,13.956 16.822,13.464 16.798,12.96C16.774,12.444 16.762,12.006 16.762,11.646ZM14.206,11.646C14.206,12.906 14.326,13.962 14.566,14.814C14.818,15.654 15.154,16.326 15.574,16.83C15.994,17.334 16.48,17.694 17.032,17.91C17.596,18.126 18.19,18.234 18.814,18.234C19.45,18.234 20.044,18.126 20.596,17.91C21.16,17.694 21.652,17.334 22.072,16.83C22.504,16.326 22.84,15.654 23.08,14.814C23.332,13.962 23.458,12.906 23.458,11.646C23.458,10.422 23.332,9.396 23.08,8.568C22.84,7.728 22.504,7.056 22.072,6.552C21.652,6.048 21.16,5.688 20.596,5.472C20.044,5.256 19.45,5.148 18.814,5.148C18.19,5.148 17.596,5.256 17.032,5.472C16.48,5.688 15.994,6.048 15.574,6.552C15.154,7.056 14.818,7.728 14.566,8.568C14.326,9.396 14.206,10.422 14.206,11.646Z" style="fill-rule:nonzero;"/>
</svg>
