<?xml version="1.0" encoding="UTF-8" standalone="no"?>
<!DOCTYPE svg PUBLIC "-//W3C//DTD SVG 1.1//EN" "http://www.w3.org/Graphics/SVG/1.1/DTD/svg11.dtd">
<svg width="100%" height="100%" viewBox="0 0 770 505" version="1.1" xmlns="http://www.w3.org/2000/svg" xmlns:xlink="http://www.w3.org/1999/xlink" xml:space="preserve" xmlns:serif="http://www.serif.com/" style="fill-rule:evenodd;clip-rule:evenodd;">
    <rect x="1" y="1" width="248" height="248" style="fill:none;stroke:rgb(104,160,192);stroke-width:2px;"/>
    <path d="M21.027,26L21.027,14.832L25.475,14.832C26.478,14.832 27.246,15.12 27.779,15.696C28.323,16.261 28.595,17.04 28.595,18.032C28.595,19.024 28.323,19.808 27.779,20.384C27.246,20.949 26.478,21.232 25.475,21.232L22.371,21.232L22.371,26L21.027,26ZM22.371,20.048L25.475,20.048C26.008,20.048 26.419,19.909 26.707,19.632C27.006,19.355 27.155,18.96 27.155,18.448L27.155,17.616C27.155,17.104 27.006,16.709 26.707,16.432C26.419,16.155 26.008,16.016 25.475,16.016L22.371,16.016L22.371,20.048ZM33.394,26.192C32.828,26.192 32.316,26.091 31.858,25.888C31.41,25.685 31.02,25.397 30.69,25.024C30.37,24.64 30.119,24.187 29.938,23.664C29.767,23.131 29.682,22.533 29.682,21.872C29.682,21.221 29.767,20.629 29.938,20.096C30.119,19.563 30.37,19.109 30.69,18.736C31.02,18.352 31.41,18.059 31.858,17.856C32.316,17.653 32.828,17.552 33.394,17.552C33.948,17.552 34.444,17.653 34.882,17.856C35.319,18.059 35.692,18.341 36.002,18.704C36.311,19.056 36.546,19.477 36.706,19.968C36.876,20.459 36.962,20.997 36.962,21.584L36.962,22.192L31.026,22.192L31.026,22.576C31.026,22.928 31.079,23.259 31.186,23.568C31.303,23.867 31.463,24.128 31.666,24.352C31.879,24.576 32.135,24.752 32.434,24.88C32.743,25.008 33.09,25.072 33.474,25.072C33.996,25.072 34.45,24.949 34.834,24.704C35.228,24.459 35.532,24.107 35.746,23.648L36.658,24.304C36.391,24.869 35.975,25.328 35.41,25.68C34.844,26.021 34.172,26.192 33.394,26.192ZM33.394,18.624C33.042,18.624 32.722,18.688 32.434,18.816C32.146,18.933 31.895,19.104 31.682,19.328C31.479,19.552 31.319,19.819 31.202,20.128C31.084,20.427 31.026,20.757 31.026,21.12L31.026,21.232L35.586,21.232L35.586,21.056C35.586,20.32 35.383,19.733 34.978,19.296C34.583,18.848 34.055,18.624 33.394,18.624ZM39.071,26L39.071,17.744L40.351,17.744L40.351,19.264L40.431,19.264C40.58,18.869 40.847,18.517 41.231,18.208C41.615,17.899 42.143,17.744 42.815,17.744L43.311,17.744L43.311,19.024L42.559,19.024C41.866,19.024 41.322,19.157 40.927,19.424C40.543,19.68 40.351,20.005 40.351,20.4L40.351,26L39.071,26ZM45.456,18.864L44.112,18.864L44.112,17.744L45.456,17.744L45.456,16.08C45.456,15.504 45.606,15.04 45.904,14.688C46.203,14.336 46.656,14.16 47.264,14.16L48.512,14.16L48.512,15.28L46.736,15.28L46.736,17.744L51.36,17.744L51.36,26L50.08,26L50.08,18.864L46.736,18.864L46.736,26L45.456,26L45.456,18.864ZM50.72,15.808C50.443,15.808 50.24,15.744 50.112,15.616C49.995,15.477 49.936,15.301 49.936,15.088L49.936,14.88C49.936,14.667 49.995,14.496 50.112,14.368C50.24,14.229 50.443,14.16 50.72,14.16C50.998,14.16 51.195,14.229 51.312,14.368C51.44,14.496 51.504,14.667 51.504,14.88L51.504,15.088C51.504,15.301 51.44,15.477 51.312,15.616C51.195,15.744 50.998,15.808 50.72,15.808ZM55.447,26C54.999,26 54.657,25.877 54.423,25.632C54.199,25.376 54.087,25.056 54.087,24.672L54.087,14.16L55.367,14.16L55.367,24.88L56.583,24.88L56.583,26L55.447,26ZM62.275,26L62.275,24.816L65.395,24.816L65.395,15.824L65.283,15.824L62.467,18.448L61.683,17.6L64.643,14.832L66.739,14.832L66.739,24.816L69.619,24.816L69.619,26L62.275,26Z" style="fill-rule:nonzero;"/>
    <rect x="256" y="1" width="513" height="503" style="fill:none;stroke:rgb(223,121,112);stroke-width:2px;"/>
    <path d="M276.027,281L276.027,269.832L280.475,269.832C281.478,269.832 282.246,270.12 282.779,270.696C283.323,271.261 283.595,272.04 283.595,273.032C283.595,274.024 283.323,274.808 282.779,275.384C282.246,275.949 281.478,276.232 280.475,276.232L277.371,276.232L277.371,281L276.027,281ZM277.371,275.048L280.475,275.048C281.008,275.048 281.419,274.909 281.707,274.632C282.006,274.355 282.155,273.96 282.155,273.448L282.155,272.616C282.155,272.104 282.006,271.709 281.707,271.432C281.419,271.155 281.008,271.016 280.475,271.016L277.371,271.016L277.371,275.048ZM288.394,281.192C287.828,281.192 287.316,281.091 286.858,280.888C286.41,280.685 286.02,280.397 285.69,280.024C285.37,279.64 285.119,279.187 284.938,278.664C284.767,278.131 284.682,277.533 284.682,276.872C284.682,276.221 284.767,275.629 284.938,275.096C285.119,274.563 285.37,274.109 285.69,273.736C286.02,273.352 286.41,273.059 286.858,272.856C287.316,272.653 287.828,272.552 288.394,272.552C288.948,272.552 289.444,272.653 289.882,272.856C290.319,273.059 290.692,273.341 291.002,273.704C291.311,274.056 291.546,274.477 291.706,274.968C291.876,275.459 291.962,275.997 291.962,276.584L291.962,277.192L286.026,277.192L286.026,277.576C286.026,277.928 286.079,278.259 286.186,278.568C286.303,278.867 286.463,279.128 286.666,279.352C286.879,279.576 287.135,279.752 287.434,279.88C287.743,280.008 288.09,280.072 288.474,280.072C288.996,280.072 289.45,279.949 289.834,279.704C290.228,279.459 290.532,279.107 290.746,278.648L291.658,279.304C291.391,279.869 290.975,280.328 290.41,280.68C289.844,281.021 289.172,281.192 288.394,281.192ZM288.394,273.624C288.042,273.624 287.722,273.688 287.434,273.816C287.146,273.933 286.895,274.104 286.682,274.328C286.479,274.552 286.319,274.819 286.202,275.128C286.084,275.427 286.026,275.757 286.026,276.12L286.026,276.232L290.586,276.232L290.586,276.056C290.586,275.32 290.383,274.733 289.978,274.296C289.583,273.848 289.055,273.624 288.394,273.624ZM294.071,281L294.071,272.744L295.351,272.744L295.351,274.264L295.431,274.264C295.58,273.869 295.847,273.517 296.231,273.208C296.615,272.899 297.143,272.744 297.815,272.744L298.311,272.744L298.311,274.024L297.559,274.024C296.866,274.024 296.322,274.157 295.927,274.424C295.543,274.68 295.351,275.005 295.351,275.4L295.351,281L294.071,281ZM300.456,273.864L299.112,273.864L299.112,272.744L300.456,272.744L300.456,271.08C300.456,270.504 300.606,270.04 300.904,269.688C301.203,269.336 301.656,269.16 302.264,269.16L303.512,269.16L303.512,270.28L301.736,270.28L301.736,272.744L306.36,272.744L306.36,281L305.08,281L305.08,273.864L301.736,273.864L301.736,281L300.456,281L300.456,273.864ZM305.72,270.808C305.443,270.808 305.24,270.744 305.112,270.616C304.995,270.477 304.936,270.301 304.936,270.088L304.936,269.88C304.936,269.667 304.995,269.496 305.112,269.368C305.24,269.229 305.443,269.16 305.72,269.16C305.998,269.16 306.195,269.229 306.312,269.368C306.44,269.496 306.504,269.667 306.504,269.88L306.504,270.088C306.504,270.301 306.44,270.477 306.312,270.616C306.195,270.744 305.998,270.808 305.72,270.808ZM310.447,281C309.999,281 309.657,280.877 309.423,280.632C309.199,280.376 309.087,280.056 309.087,279.672L309.087,269.16L310.367,269.16L310.367,279.88L311.583,279.88L311.583,281L310.447,281ZM324.395,281L317.067,281L317.067,279.624L320.715,276.264C321.238,275.784 321.675,275.277 322.027,274.744C322.379,274.2 322.555,273.656 322.555,273.112L322.555,272.92C322.555,272.301 322.385,271.8 322.043,271.416C321.702,271.032 321.185,270.84 320.491,270.84C320.15,270.84 319.851,270.888 319.595,270.984C319.339,271.08 319.115,271.213 318.923,271.384C318.742,271.555 318.587,271.757 318.459,271.992C318.342,272.216 318.246,272.461 318.171,272.728L316.971,272.264C317.078,271.933 317.222,271.613 317.403,271.304C317.595,270.984 317.83,270.701 318.107,270.456C318.395,270.211 318.737,270.013 319.131,269.864C319.537,269.715 320.011,269.64 320.555,269.64C321.099,269.64 321.585,269.72 322.011,269.88C322.438,270.04 322.795,270.264 323.083,270.552C323.371,270.84 323.59,271.181 323.739,271.576C323.899,271.971 323.979,272.408 323.979,272.888C323.979,273.325 323.915,273.731 323.787,274.104C323.67,274.477 323.505,274.835 323.291,275.176C323.078,275.507 322.817,275.832 322.507,276.152C322.209,276.472 321.883,276.792 321.531,277.112L318.523,279.816L324.395,279.816L324.395,281Z" style="fill-rule:nonzero;"/>
    <path d="M271.027,26L271.027,14.832L275.475,14.832C276.478,14.832 277.246,15.12 277.779,15.696C278.323,16.261 278.595,17.04 278.595,18.032C278.595,19.024 278.323,19.808 277.779,20.384C277.246,20.949 276.478,21.232 275.475,21.232L272.371,21.232L272.371,26L271.027,26ZM272.371,20.048L275.475,20.048C276.008,20.048 276.419,19.909 276.707,19.632C277.006,19.355 277.155,18.96 277.155,18.448L277.155,17.616C277.155,17.104 277.006,16.709 276.707,16.432C276.419,16.155 276.008,16.016 275.475,16.016L272.371,16.016L272.371,20.048ZM283.394,26.192C282.828,26.192 282.316,26.091 281.858,25.888C281.41,25.685 281.02,25.397 280.69,25.024C280.37,24.64 280.119,24.187 279.938,23.664C279.767,23.131 279.682,22.533 279.682,21.872C279.682,21.221 279.767,20.629 279.938,20.096C280.119,19.563 280.37,19.109 280.69,18.736C281.02,18.352 281.41,18.059 281.858,17.856C282.316,17.653 282.828,17.552 283.394,17.552C283.948,17.552 284.444,17.653 284.882,17.856C285.319,18.059 285.692,18.341 286.002,18.704C286.311,19.056 286.546,19.477 286.706,19.968C286.876,20.459 286.962,20.997 286.962,21.584L286.962,22.192L281.026,22.192L281.026,22.576C281.026,22.928 281.079,23.259 281.186,23.568C281.303,23.867 281.463,24.128 281.666,24.352C281.879,24.576 282.135,24.752 282.434,24.88C282.743,25.008 283.09,25.072 283.474,25.072C283.996,25.072 284.45,24.949 284.834,24.704C285.228,24.459 285.532,24.107 285.746,23.648L286.658,24.304C286.391,24.869 285.975,25.328 285.41,25.68C284.844,26.021 284.172,26.192 283.394,26.192ZM283.394,18.624C283.042,18.624 282.722,18.688 282.434,18.816C282.146,18.933 281.895,19.104 281.682,19.328C281.479,19.552 281.319,19.819 281.202,20.128C281.084,20.427 281.026,20.757 281.026,21.12L281.026,21.232L285.586,21.232L285.586,21.056C285.586,20.32 285.383,19.733 284.978,19.296C284.583,18.848 284.055,18.624 283.394,18.624ZM289.071,26L289.071,17.744L290.351,17.744L290.351,19.264L290.431,19.264C290.58,18.869 290.847,18.517 291.231,18.208C291.615,17.899 292.143,17.744 292.815,17.744L293.311,17.744L293.311,19.024L292.559,19.024C291.866,19.024 291.322,19.157 290.927,19.424C290.543,19.68 290.351,20.005 290.351,20.4L290.351,26L289.071,26ZM295.456,18.864L294.112,18.864L294.112,17.744L295.456,17.744L295.456,16.08C295.456,15.504 295.606,15.04 295.904,14.688C296.203,14.336 296.656,14.16 297.264,14.16L298.512,14.16L298.512,15.28L296.736,15.28L296.736,17.744L301.36,17.744L301.36,26L300.08,26L300.08,18.864L296.736,18.864L296.736,26L295.456,26L295.456,18.864ZM300.72,15.808C300.443,15.808 300.24,15.744 300.112,15.616C299.995,15.477 299.936,15.301 299.936,15.088L299.936,14.88C299.936,14.667 299.995,14.496 300.112,14.368C300.24,14.229 300.443,14.16 300.72,14.16C300.998,14.16 301.195,14.229 301.312,14.368C301.44,14.496 301.504,14.667 301.504,14.88L301.504,15.088C301.504,15.301 301.44,15.477 301.312,15.616C301.195,15.744 300.998,15.808 300.72,15.808ZM305.447,26C304.999,26 304.657,25.877 304.423,25.632C304.199,25.376 304.087,25.056 304.087,24.672L304.087,14.16L305.367,14.16L305.367,24.88L306.583,24.88L306.583,26L305.447,26ZM315.043,19.568C315.801,19.568 316.366,19.397 316.739,19.056C317.123,18.704 317.315,18.256 317.315,17.712L317.315,17.6C317.315,17.013 317.129,16.576 316.755,16.288C316.393,15.989 315.913,15.84 315.315,15.84C314.739,15.84 314.27,15.968 313.907,16.224C313.545,16.469 313.246,16.805 313.011,17.232L312.019,16.464C312.158,16.24 312.323,16.021 312.515,15.808C312.718,15.584 312.953,15.387 313.219,15.216C313.486,15.045 313.795,14.907 314.147,14.8C314.499,14.693 314.899,14.64 315.347,14.64C315.817,14.64 316.259,14.704 316.675,14.832C317.091,14.949 317.449,15.131 317.747,15.376C318.057,15.611 318.297,15.904 318.467,16.256C318.649,16.608 318.739,17.008 318.739,17.456C318.739,17.819 318.681,18.144 318.563,18.432C318.457,18.72 318.307,18.971 318.115,19.184C317.923,19.397 317.694,19.579 317.427,19.728C317.171,19.877 316.894,19.989 316.595,20.064L316.595,20.128C316.894,20.192 317.182,20.299 317.459,20.448C317.747,20.587 317.998,20.773 318.211,21.008C318.435,21.232 318.611,21.509 318.739,21.84C318.878,22.16 318.947,22.528 318.947,22.944C318.947,23.424 318.857,23.867 318.675,24.272C318.494,24.667 318.238,25.008 317.907,25.296C317.577,25.573 317.177,25.792 316.707,25.952C316.238,26.112 315.721,26.192 315.155,26.192C314.675,26.192 314.249,26.139 313.875,26.032C313.502,25.925 313.171,25.781 312.883,25.6C312.595,25.419 312.339,25.216 312.115,24.992C311.902,24.768 311.71,24.533 311.539,24.288L312.547,23.52C312.686,23.744 312.835,23.947 312.995,24.128C313.166,24.309 313.353,24.464 313.555,24.592C313.758,24.72 313.987,24.821 314.243,24.896C314.499,24.96 314.798,24.992 315.139,24.992C315.929,24.992 316.526,24.816 316.931,24.464C317.337,24.101 317.539,23.589 317.539,22.928L317.539,22.8C317.539,22.139 317.337,21.632 316.931,21.28C316.526,20.917 315.929,20.736 315.139,20.736L313.827,20.736L313.827,19.568L315.043,19.568Z" style="fill-rule:nonzero;"/>
    <path d="M16.027,282L16.027,270.832L20.475,270.832C21.478,270.832 22.246,271.12 22.779,271.696C23.323,272.261 23.595,273.04 23.595,274.032C23.595,275.024 23.323,275.808 22.779,276.384C22.246,276.949 21.478,277.232 20.475,277.232L17.371,277.232L17.371,282L16.027,282ZM17.371,276.048L20.475,276.048C21.008,276.048 21.419,275.909 21.707,275.632C22.006,275.355 22.155,274.96 22.155,274.448L22.155,273.616C22.155,273.104 22.006,272.709 21.707,272.432C21.419,272.155 21.008,272.016 20.475,272.016L17.371,272.016L17.371,276.048ZM28.394,282.192C27.828,282.192 27.316,282.091 26.858,281.888C26.41,281.685 26.02,281.397 25.69,281.024C25.37,280.64 25.119,280.187 24.938,279.664C24.767,279.131 24.682,278.533 24.682,277.872C24.682,277.221 24.767,276.629 24.938,276.096C25.119,275.563 25.37,275.109 25.69,274.736C26.02,274.352 26.41,274.059 26.858,273.856C27.316,273.653 27.828,273.552 28.394,273.552C28.948,273.552 29.444,273.653 29.882,273.856C30.319,274.059 30.692,274.341 31.002,274.704C31.311,275.056 31.546,275.477 31.706,275.968C31.876,276.459 31.962,276.997 31.962,277.584L31.962,278.192L26.026,278.192L26.026,278.576C26.026,278.928 26.079,279.259 26.186,279.568C26.303,279.867 26.463,280.128 26.666,280.352C26.879,280.576 27.135,280.752 27.434,280.88C27.743,281.008 28.09,281.072 28.474,281.072C28.996,281.072 29.45,280.949 29.834,280.704C30.228,280.459 30.532,280.107 30.746,279.648L31.658,280.304C31.391,280.869 30.975,281.328 30.41,281.68C29.844,282.021 29.172,282.192 28.394,282.192ZM28.394,274.624C28.042,274.624 27.722,274.688 27.434,274.816C27.146,274.933 26.895,275.104 26.682,275.328C26.479,275.552 26.319,275.819 26.202,276.128C26.084,276.427 26.026,276.757 26.026,277.12L26.026,277.232L30.586,277.232L30.586,277.056C30.586,276.32 30.383,275.733 29.978,275.296C29.583,274.848 29.055,274.624 28.394,274.624ZM34.071,282L34.071,273.744L35.351,273.744L35.351,275.264L35.431,275.264C35.58,274.869 35.847,274.517 36.231,274.208C36.615,273.899 37.143,273.744 37.815,273.744L38.311,273.744L38.311,275.024L37.559,275.024C36.866,275.024 36.322,275.157 35.927,275.424C35.543,275.68 35.351,276.005 35.351,276.4L35.351,282L34.071,282ZM40.456,274.864L39.112,274.864L39.112,273.744L40.456,273.744L40.456,272.08C40.456,271.504 40.606,271.04 40.904,270.688C41.203,270.336 41.656,270.16 42.264,270.16L43.512,270.16L43.512,271.28L41.736,271.28L41.736,273.744L46.36,273.744L46.36,282L45.08,282L45.08,274.864L41.736,274.864L41.736,282L40.456,282L40.456,274.864ZM45.72,271.808C45.443,271.808 45.24,271.744 45.112,271.616C44.995,271.477 44.936,271.301 44.936,271.088L44.936,270.88C44.936,270.667 44.995,270.496 45.112,270.368C45.24,270.229 45.443,270.16 45.72,270.16C45.998,270.16 46.195,270.229 46.312,270.368C46.44,270.496 46.504,270.667 46.504,270.88L46.504,271.088C46.504,271.301 46.44,271.477 46.312,271.616C46.195,271.744 45.998,271.808 45.72,271.808ZM50.447,282C49.999,282 49.657,281.877 49.423,281.632C49.199,281.376 49.087,281.056 49.087,280.672L49.087,270.16L50.367,270.16L50.367,280.88L51.583,280.88L51.583,282L50.447,282ZM63.835,272.016L58.939,272.016L58.619,276.272L58.731,276.272C58.998,275.899 59.297,275.6 59.627,275.376C59.969,275.152 60.432,275.04 61.019,275.04C61.499,275.04 61.942,275.12 62.347,275.28C62.753,275.44 63.105,275.669 63.403,275.968C63.702,276.256 63.931,276.613 64.091,277.04C64.262,277.467 64.347,277.952 64.347,278.496C64.347,279.04 64.262,279.541 64.091,280C63.92,280.448 63.67,280.837 63.339,281.168C63.019,281.488 62.624,281.739 62.155,281.92C61.697,282.101 61.174,282.192 60.587,282.192C60.118,282.192 59.702,282.139 59.339,282.032C58.987,281.925 58.673,281.781 58.395,281.6C58.118,281.419 57.873,281.216 57.659,280.992C57.457,280.768 57.27,280.533 57.099,280.288L58.107,279.52C58.246,279.744 58.39,279.947 58.539,280.128C58.699,280.309 58.87,280.464 59.051,280.592C59.243,280.72 59.462,280.821 59.707,280.896C59.953,280.96 60.246,280.992 60.587,280.992C61.355,280.992 61.937,280.789 62.331,280.384C62.726,279.979 62.923,279.408 62.923,278.672L62.923,278.512C62.923,277.776 62.726,277.205 62.331,276.8C61.937,276.395 61.355,276.192 60.587,276.192C60.075,276.192 59.67,276.288 59.371,276.48C59.083,276.661 58.822,276.88 58.587,277.136L57.451,276.976L57.851,270.832L63.835,270.832L63.835,272.016Z" style="fill-rule:nonzero;"/>
    <rect x="261" y="256" width="248" height="243" style="fill:none;stroke:rgb(236,185,63);stroke-width:2px;"/>
    <rect x="1" y="256" width="248" height="248" style="fill:none;stroke:rgb(90,136,99);stroke-width:2px;"/>
    <path d="M531.027,282L531.027,270.832L535.475,270.832C536.478,270.832 537.246,271.12 537.779,271.696C538.323,272.261 538.595,273.04 538.595,274.032C538.595,275.024 538.323,275.808 537.779,276.384C537.246,276.949 536.478,277.232 535.475,277.232L532.371,277.232L532.371,282L531.027,282ZM532.371,276.048L535.475,276.048C536.008,276.048 536.419,275.909 536.707,275.632C537.006,275.355 537.155,274.96 537.155,274.448L537.155,273.616C537.155,273.104 537.006,272.709 536.707,272.432C536.419,272.155 536.008,272.016 535.475,272.016L532.371,272.016L532.371,276.048ZM543.394,282.192C542.828,282.192 542.316,282.091 541.858,281.888C541.41,281.685 541.02,281.397 540.69,281.024C540.37,280.64 540.119,280.187 539.938,279.664C539.767,279.131 539.682,278.533 539.682,277.872C539.682,277.221 539.767,276.629 539.938,276.096C540.119,275.563 540.37,275.109 540.69,274.736C541.02,274.352 541.41,274.059 541.858,273.856C542.316,273.653 542.828,273.552 543.394,273.552C543.948,273.552 544.444,273.653 544.882,273.856C545.319,274.059 545.692,274.341 546.002,274.704C546.311,275.056 546.546,275.477 546.706,275.968C546.876,276.459 546.962,276.997 546.962,277.584L546.962,278.192L541.026,278.192L541.026,278.576C541.026,278.928 541.079,279.259 541.186,279.568C541.303,279.867 541.463,280.128 541.666,280.352C541.879,280.576 542.135,280.752 542.434,280.88C542.743,281.008 543.09,281.072 543.474,281.072C543.996,281.072 544.45,280.949 544.834,280.704C545.228,280.459 545.532,280.107 545.746,279.648L546.658,280.304C546.391,280.869 545.975,281.328 545.41,281.68C544.844,282.021 544.172,282.192 543.394,282.192ZM543.394,274.624C543.042,274.624 542.722,274.688 542.434,274.816C542.146,274.933 541.895,275.104 541.682,275.328C541.479,275.552 541.319,275.819 541.202,276.128C541.084,276.427 541.026,276.757 541.026,277.12L541.026,277.232L545.586,277.232L545.586,277.056C545.586,276.32 545.383,275.733 544.978,275.296C544.583,274.848 544.055,274.624 543.394,274.624ZM549.071,282L549.071,273.744L550.351,273.744L550.351,275.264L550.431,275.264C550.58,274.869 550.847,274.517 551.231,274.208C551.615,273.899 552.143,273.744 552.815,273.744L553.311,273.744L553.311,275.024L552.559,275.024C551.866,275.024 551.322,275.157 550.927,275.424C550.543,275.68 550.351,276.005 550.351,276.4L550.351,282L549.071,282ZM555.456,274.864L554.112,274.864L554.112,273.744L555.456,273.744L555.456,272.08C555.456,271.504 555.606,271.04 555.904,270.688C556.203,270.336 556.656,270.16 557.264,270.16L558.512,270.16L558.512,271.28L556.736,271.28L556.736,273.744L561.36,273.744L561.36,282L560.08,282L560.08,274.864L556.736,274.864L556.736,282L555.456,282L555.456,274.864ZM560.72,271.808C560.443,271.808 560.24,271.744 560.112,271.616C559.995,271.477 559.936,271.301 559.936,271.088L559.936,270.88C559.936,270.667 559.995,270.496 560.112,270.368C560.24,270.229 560.443,270.16 560.72,270.16C560.998,270.16 561.195,270.229 561.312,270.368C561.44,270.496 561.504,270.667 561.504,270.88L561.504,271.088C561.504,271.301 561.44,271.477 561.312,271.616C561.195,271.744 560.998,271.808 560.72,271.808ZM565.447,282C564.999,282 564.657,281.877 564.423,281.632C564.199,281.376 564.087,281.056 564.087,280.672L564.087,270.16L565.367,270.16L565.367,280.88L566.583,280.88L566.583,282L565.447,282ZM576.867,282L576.867,279.808L571.475,279.808L571.475,278.624L576.147,270.832L578.147,270.832L578.147,278.688L579.763,278.688L579.763,279.808L578.147,279.808L578.147,282L576.867,282ZM572.739,278.688L576.867,278.688L576.867,271.872L576.787,271.872L572.739,278.688Z" style="fill-rule:nonzero;"/>
    <rect x="516" y="256" width="248" height="243" style="fill:none;stroke:rgb(214,146,180);stroke-width:2px;"/>
    <path d="M117,107C121.971,107 126,102.971 126,98C126,93.029 121.971,89 117,89C112.029,89 108,93.029 108,98C108,102.971 112.029,107 117,107Z" style="fill:rgb(153,153,153);fill-rule:nonzero;stroke:black;stroke-width:1px;"/>
    <path d="M117,209C121.971,209 126,204.971 126,200C126,195.029 121.971,191 117,191C112.029,191 108,195.029 108,200C108,204.971 112.029,209 117,209Z" style="fill:rgb(104,160,192);fill-rule:nonzero;stroke:black;stroke-width:1px;"/>
    <path d="M116.293,189.707C116.683,190.098 117.317,190.098 117.707,189.707L124.071,183.343C124.462,182.953 124.462,182.319 124.071,181.929C123.681,181.538 123.047,181.538 122.657,181.929L117,187.586L111.343,181.929C110.953,181.538 110.319,181.538 109.929,181.929C109.538,182.319 109.538,182.953 109.929,183.343L116.293,189.707ZM116,109L116,189L118,189L118,109L116,109Z" style="fill-rule:nonzero;"/>
    <path d="M140.142,203L140.142,196L139.012,196C138.972,196.267 138.888,196.49 138.762,196.67C138.635,196.85 138.478,196.997 138.292,197.11C138.112,197.217 137.905,197.293 137.672,197.34C137.445,197.38 137.208,197.397 136.962,197.39L136.962,198.46L138.722,198.46L138.722,203L140.142,203Z" style="fill-rule:nonzero;"/>
    <path d="M116.278,54.19L116.438,55L117.438,55L117.438,51.14L114.438,51.14L114.438,52.31L116.018,52.31C115.971,52.81 115.804,53.193 115.518,53.46C115.238,53.72 114.838,53.85 114.318,53.85C113.964,53.85 113.664,53.783 113.418,53.65C113.171,53.51 112.971,53.327 112.818,53.1C112.664,52.873 112.551,52.62 112.478,52.34C112.411,52.053 112.378,51.76 112.378,51.46C112.378,51.147 112.411,50.843 112.478,50.55C112.551,50.257 112.664,49.997 112.818,49.77C112.971,49.537 113.171,49.353 113.418,49.22C113.664,49.08 113.964,49.01 114.318,49.01C114.698,49.01 115.021,49.11 115.288,49.31C115.554,49.51 115.734,49.81 115.828,50.21L117.328,50.21C117.288,49.803 117.178,49.443 116.998,49.13C116.818,48.817 116.588,48.553 116.308,48.34C116.034,48.127 115.724,47.967 115.378,47.86C115.038,47.747 114.684,47.69 114.318,47.69C113.771,47.69 113.278,47.787 112.838,47.98C112.404,48.173 112.038,48.44 111.738,48.78C111.438,49.12 111.208,49.52 111.048,49.98C110.888,50.433 110.808,50.927 110.808,51.46C110.808,51.98 110.888,52.467 111.048,52.92C111.208,53.367 111.438,53.757 111.738,54.09C112.038,54.423 112.404,54.687 112.838,54.88C113.278,55.067 113.771,55.16 114.318,55.16C114.664,55.16 115.008,55.09 115.348,54.95C115.688,54.803 115.998,54.55 116.278,54.19ZM119.646,51.47L119.646,51.04C119.652,50.867 119.666,50.69 119.686,50.51C119.706,50.33 119.739,50.153 119.786,49.98C119.832,49.8 119.896,49.64 119.976,49.5C120.062,49.36 120.169,49.247 120.296,49.16C120.429,49.073 120.592,49.03 120.786,49.03C120.979,49.03 121.142,49.073 121.276,49.16C121.409,49.247 121.519,49.36 121.606,49.5C121.692,49.64 121.756,49.8 121.796,49.98C121.842,50.153 121.876,50.33 121.896,50.51C121.922,50.69 121.936,50.867 121.936,51.04C121.942,51.207 121.946,51.35 121.946,51.47C121.946,51.67 121.939,51.913 121.926,52.2C121.912,52.48 121.869,52.753 121.796,53.02C121.729,53.28 121.616,53.503 121.456,53.69C121.302,53.877 121.079,53.97 120.786,53.97C120.499,53.97 120.279,53.877 120.126,53.69C119.972,53.503 119.859,53.28 119.786,53.02C119.719,52.753 119.679,52.48 119.666,52.2C119.652,51.913 119.646,51.67 119.646,51.47ZM118.226,51.47C118.226,52.17 118.292,52.757 118.426,53.23C118.566,53.697 118.752,54.07 118.986,54.35C119.219,54.63 119.489,54.83 119.796,54.95C120.109,55.07 120.439,55.13 120.786,55.13C121.139,55.13 121.469,55.07 121.776,54.95C122.089,54.83 122.362,54.63 122.596,54.35C122.836,54.07 123.022,53.697 123.156,53.23C123.296,52.757 123.366,52.17 123.366,51.47C123.366,50.79 123.296,50.22 123.156,49.76C123.022,49.293 122.836,48.92 122.596,48.64C122.362,48.36 122.089,48.16 121.776,48.04C121.469,47.92 121.139,47.86 120.786,47.86C120.439,47.86 120.109,47.92 119.796,48.04C119.489,48.16 119.219,48.36 118.986,48.64C118.752,48.92 118.566,49.293 118.426,49.76C118.292,50.22 118.226,50.79 118.226,51.47Z" style="fill-rule:nonzero;"/>
    <path d="M377,363C381.971,363 386,358.971 386,354C386,349.029 381.971,345 377,345C372.029,345 368,349.029 368,354C368,358.971 372.029,363 377,363Z" style="fill:rgb(236,185,63);fill-rule:nonzero;stroke:black;stroke-width:1px;"/>
    <path d="M377,465C381.971,465 386,460.971 386,456C386,451.029 381.971,447 377,447C372.029,447 368,451.029 368,456C368,460.971 372.029,465 377,465Z" style="fill:rgb(153,153,153);fill-rule:nonzero;stroke:black;stroke-width:1px;"/>
    <path d="M376.293,445.707C376.683,446.098 377.317,446.098 377.707,445.707L384.071,439.343C384.462,438.953 384.462,438.319 384.071,437.929C383.681,437.538 383.047,437.538 382.657,437.929L377,443.586L371.343,437.929C370.953,437.538 370.319,437.538 369.929,437.929C369.538,438.319 369.538,438.953 369.929,439.343L376.293,445.707ZM376,365L376,445L378,445L378,365L376,365Z" style="fill-rule:nonzero;"/>
    <path d="M397.852,355.47L397.852,355.04C397.858,354.867 397.872,354.69 397.892,354.51C397.912,354.33 397.945,354.153 397.992,353.98C398.038,353.8 398.102,353.64 398.182,353.5C398.268,353.36 398.375,353.247 398.502,353.16C398.635,353.073 398.798,353.03 398.992,353.03C399.185,353.03 399.348,353.073 399.482,353.16C399.615,353.247 399.725,353.36 399.812,353.5C399.898,353.64 399.962,353.8 400.002,353.98C400.048,354.153 400.082,354.33 400.102,354.51C400.128,354.69 400.142,354.867 400.142,355.04C400.148,355.207 400.152,355.35 400.152,355.47C400.152,355.67 400.145,355.913 400.132,356.2C400.118,356.48 400.075,356.753 400.002,357.02C399.935,357.28 399.822,357.503 399.662,357.69C399.508,357.877 399.285,357.97 398.992,357.97C398.705,357.97 398.485,357.877 398.332,357.69C398.178,357.503 398.065,357.28 397.992,357.02C397.925,356.753 397.885,356.48 397.872,356.2C397.858,355.913 397.852,355.67 397.852,355.47ZM396.432,355.47C396.432,356.17 396.498,356.757 396.632,357.23C396.772,357.697 396.958,358.07 397.192,358.35C397.425,358.63 397.695,358.83 398.002,358.95C398.315,359.07 398.645,359.13 398.992,359.13C399.345,359.13 399.675,359.07 399.982,358.95C400.295,358.83 400.568,358.63 400.802,358.35C401.042,358.07 401.228,357.697 401.362,357.23C401.502,356.757 401.572,356.17 401.572,355.47C401.572,354.79 401.502,354.22 401.362,353.76C401.228,353.293 401.042,352.92 400.802,352.64C400.568,352.36 400.295,352.16 399.982,352.04C399.675,351.92 399.345,351.86 398.992,351.86C398.645,351.86 398.315,351.92 398.002,352.04C397.695,352.16 397.425,352.36 397.192,352.64C396.958,352.92 396.772,353.293 396.632,353.76C396.498,354.22 396.432,354.79 396.432,355.47Z" style="fill-rule:nonzero;"/>
    <path d="M376.278,310.19L376.438,311L377.438,311L377.438,307.14L374.438,307.14L374.438,308.31L376.018,308.31C375.971,308.81 375.804,309.193 375.518,309.46C375.238,309.72 374.838,309.85 374.318,309.85C373.964,309.85 373.664,309.783 373.418,309.65C373.171,309.51 372.971,309.327 372.818,309.1C372.664,308.873 372.551,308.62 372.478,308.34C372.411,308.053 372.378,307.76 372.378,307.46C372.378,307.147 372.411,306.843 372.478,306.55C372.551,306.257 372.664,305.997 372.818,305.77C372.971,305.537 373.171,305.353 373.418,305.22C373.664,305.08 373.964,305.01 374.318,305.01C374.698,305.01 375.021,305.11 375.288,305.31C375.554,305.51 375.734,305.81 375.828,306.21L377.328,306.21C377.288,305.803 377.178,305.443 376.998,305.13C376.818,304.817 376.588,304.553 376.308,304.34C376.034,304.127 375.724,303.967 375.378,303.86C375.038,303.747 374.684,303.69 374.318,303.69C373.771,303.69 373.278,303.787 372.838,303.98C372.404,304.173 372.038,304.44 371.738,304.78C371.438,305.12 371.208,305.52 371.048,305.98C370.888,306.433 370.808,306.927 370.808,307.46C370.808,307.98 370.888,308.467 371.048,308.92C371.208,309.367 371.438,309.757 371.738,310.09C372.038,310.423 372.404,310.687 372.838,310.88C373.278,311.067 373.771,311.16 374.318,311.16C374.664,311.16 375.008,311.09 375.348,310.95C375.688,310.803 375.998,310.55 376.278,310.19ZM379.646,307.47L379.646,307.04C379.652,306.867 379.666,306.69 379.686,306.51C379.706,306.33 379.739,306.153 379.786,305.98C379.832,305.8 379.896,305.64 379.976,305.5C380.062,305.36 380.169,305.247 380.296,305.16C380.429,305.073 380.592,305.03 380.786,305.03C380.979,305.03 381.142,305.073 381.276,305.16C381.409,305.247 381.519,305.36 381.606,305.5C381.692,305.64 381.756,305.8 381.796,305.98C381.842,306.153 381.876,306.33 381.896,306.51C381.922,306.69 381.936,306.867 381.936,307.04C381.942,307.207 381.946,307.35 381.946,307.47C381.946,307.67 381.939,307.913 381.926,308.2C381.912,308.48 381.869,308.753 381.796,309.02C381.729,309.28 381.616,309.503 381.456,309.69C381.302,309.877 381.079,309.97 380.786,309.97C380.499,309.97 380.279,309.877 380.126,309.69C379.972,309.503 379.859,309.28 379.786,309.02C379.719,308.753 379.679,308.48 379.666,308.2C379.652,307.913 379.646,307.67 379.646,307.47ZM378.226,307.47C378.226,308.17 378.292,308.757 378.426,309.23C378.566,309.697 378.752,310.07 378.986,310.35C379.219,310.63 379.489,310.83 379.796,310.95C380.109,311.07 380.439,311.13 380.786,311.13C381.139,311.13 381.469,311.07 381.776,310.95C382.089,310.83 382.362,310.63 382.596,310.35C382.836,310.07 383.022,309.697 383.156,309.23C383.296,308.757 383.366,308.17 383.366,307.47C383.366,306.79 383.296,306.22 383.156,305.76C383.022,305.293 382.836,304.92 382.596,304.64C382.362,304.36 382.089,304.16 381.776,304.04C381.469,303.92 381.139,303.86 380.786,303.86C380.439,303.86 380.109,303.92 379.796,304.04C379.489,304.16 379.219,304.36 378.986,304.64C378.752,304.92 378.566,305.293 378.426,305.76C378.292,306.22 378.226,306.79 378.226,307.47Z" style="fill-rule:nonzero;"/>
    <path d="M117.5,318C120.538,318 123,315.538 123,312.5C123,309.462 120.538,307 117.5,307C114.462,307 112,309.462 112,312.5C112,315.538 114.462,318 117.5,318Z" style="fill:rgb(153,153,153);fill-rule:nonzero;stroke:black;stroke-width:1px;"/>
    <path d="M117.5,373C120.538,373 123,370.538 123,367.5C123,364.462 120.538,362 117.5,362C114.462,362 112,364.462 112,367.5C112,370.538 114.462,373 117.5,373Z" style="fill:rgb(153,153,153);fill-rule:nonzero;stroke:black;stroke-width:1px;"/>
    <path d="M117.5,427C120.538,427 123,424.538 123,421.5C123,418.462 120.538,416 117.5,416C114.462,416 112,418.462 112,421.5C112,424.538 114.462,427 117.5,427Z" style="fill:rgb(153,153,153);fill-rule:nonzero;stroke:black;stroke-width:1px;"/>
    <path d="M117.5,483C120.538,483 123,480.538 123,477.5C123,474.462 120.538,472 117.5,472C114.462,472 112,474.462 112,477.5C112,480.538 114.462,483 117.5,483Z" style="fill:rgb(90,136,99);fill-rule:nonzero;stroke:black;stroke-width:1px;"/>
    <path d="M116.646,362.354C116.842,362.549 117.158,362.549 117.354,362.354L120.536,359.172C120.731,358.976 120.731,358.66 120.536,358.464C120.34,358.269 120.024,358.269 119.828,358.464L117,361.293L114.172,358.464C113.976,358.269 113.66,358.269 113.464,358.464C113.269,358.66 113.269,358.976 113.464,359.172L116.646,362.354ZM116.5,318L116.5,362L117.5,362L117.5,318L116.5,318Z" style="fill-rule:nonzero;"/>
    <path d="M116.646,472.354C116.842,472.549 117.158,472.549 117.354,472.354L120.536,469.172C120.731,468.976 120.731,468.66 120.536,468.464C120.34,468.269 120.024,468.269 119.828,468.464L117,471.293L114.172,468.464C113.976,468.269 113.66,468.269 113.464,468.464C113.269,468.66 113.269,468.976 113.464,469.172L116.646,472.354ZM116.5,427L116.5,472L117.5,472L117.5,427L116.5,427Z" style="fill-rule:nonzero;"/>
    <path d="M117.354,372.646C117.158,372.451 116.842,372.451 116.646,372.646L113.464,375.828C113.269,376.024 113.269,376.34 113.464,376.536C113.66,376.731 113.976,376.731 114.172,376.536L117,373.707L119.828,376.536C120.024,376.731 120.34,376.731 120.536,376.536C120.731,376.34 120.731,376.024 120.536,375.828L117.354,372.646ZM117.5,416L117.5,373L116.5,373L116.5,416L117.5,416Z" style="fill-rule:nonzero;"/>
    <path d="M129.813,476.69L131.173,476.69C131.173,476.503 131.19,476.317 131.223,476.13C131.263,475.937 131.327,475.763 131.413,475.61C131.5,475.45 131.613,475.323 131.753,475.23C131.9,475.13 132.077,475.08 132.283,475.08C132.59,475.08 132.84,475.177 133.033,475.37C133.233,475.557 133.333,475.82 133.333,476.16C133.333,476.373 133.283,476.563 133.183,476.73C133.09,476.897 132.97,477.047 132.823,477.18C132.683,477.313 132.527,477.437 132.353,477.55C132.18,477.657 132.017,477.763 131.863,477.87C131.563,478.077 131.277,478.28 131.003,478.48C130.737,478.68 130.503,478.9 130.303,479.14C130.103,479.373 129.943,479.64 129.823,479.94C129.71,480.24 129.653,480.593 129.653,481L134.793,481L134.793,479.78L131.483,479.78C131.657,479.54 131.857,479.33 132.083,479.15C132.31,478.97 132.543,478.803 132.783,478.65C133.023,478.49 133.26,478.33 133.493,478.17C133.733,478.01 133.947,477.833 134.133,477.64C134.32,477.44 134.47,477.213 134.583,476.96C134.697,476.707 134.753,476.403 134.753,476.05C134.753,475.71 134.687,475.403 134.553,475.13C134.427,474.857 134.253,474.627 134.033,474.44C133.813,474.253 133.557,474.11 133.263,474.01C132.977,473.91 132.673,473.86 132.353,473.86C131.933,473.86 131.56,473.933 131.233,474.08C130.913,474.22 130.647,474.42 130.433,474.68C130.22,474.933 130.06,475.233 129.953,475.58C129.847,475.92 129.8,476.29 129.813,476.69ZM138.12,475.78L138.12,478.21L136.28,478.21L138.09,475.78L138.12,475.78ZM138.12,479.38L138.12,481L139.47,481L139.47,479.38L140.4,479.38L140.4,478.21L139.47,478.21L139.47,474L138.2,474L135.16,478.08L135.16,479.38L138.12,479.38Z" style="fill-rule:nonzero;"/>
    <path d="M116.778,289.19L116.938,290L117.938,290L117.938,286.14L114.938,286.14L114.938,287.31L116.518,287.31C116.471,287.81 116.304,288.193 116.018,288.46C115.738,288.72 115.338,288.85 114.818,288.85C114.464,288.85 114.164,288.783 113.918,288.65C113.671,288.51 113.471,288.327 113.318,288.1C113.164,287.873 113.051,287.62 112.978,287.34C112.911,287.053 112.878,286.76 112.878,286.46C112.878,286.147 112.911,285.843 112.978,285.55C113.051,285.257 113.164,284.997 113.318,284.77C113.471,284.537 113.671,284.353 113.918,284.22C114.164,284.08 114.464,284.01 114.818,284.01C115.198,284.01 115.521,284.11 115.788,284.31C116.054,284.51 116.234,284.81 116.328,285.21L117.828,285.21C117.788,284.803 117.678,284.443 117.498,284.13C117.318,283.817 117.088,283.553 116.808,283.34C116.534,283.127 116.224,282.967 115.878,282.86C115.538,282.747 115.184,282.69 114.818,282.69C114.271,282.69 113.778,282.787 113.338,282.98C112.904,283.173 112.538,283.44 112.238,283.78C111.938,284.12 111.708,284.52 111.548,284.98C111.388,285.433 111.308,285.927 111.308,286.46C111.308,286.98 111.388,287.467 111.548,287.92C111.708,288.367 111.938,288.757 112.238,289.09C112.538,289.423 112.904,289.687 113.338,289.88C113.778,290.067 114.271,290.16 114.818,290.16C115.164,290.16 115.508,290.09 115.848,289.95C116.188,289.803 116.498,289.55 116.778,289.19ZM120.236,284.9C120.236,284.74 120.262,284.6 120.316,284.48C120.376,284.36 120.456,284.26 120.556,284.18C120.656,284.1 120.769,284.04 120.896,284C121.029,283.953 121.166,283.93 121.306,283.93C121.526,283.93 121.702,283.963 121.836,284.03C121.976,284.097 122.082,284.18 122.156,284.28C122.236,284.38 122.289,284.487 122.316,284.6C122.342,284.707 122.356,284.807 122.356,284.9C122.356,285.2 122.256,285.43 122.056,285.59C121.856,285.743 121.606,285.82 121.306,285.82C121.019,285.82 120.769,285.743 120.556,285.59C120.342,285.43 120.236,285.2 120.236,284.9ZM118.946,284.77C118.946,285.117 119.032,285.42 119.206,285.68C119.379,285.94 119.636,286.117 119.976,286.21L119.976,286.23C119.556,286.33 119.229,286.53 118.996,286.83C118.769,287.13 118.656,287.503 118.656,287.95C118.656,288.33 118.729,288.657 118.876,288.93C119.029,289.203 119.229,289.43 119.476,289.61C119.729,289.79 120.012,289.92 120.326,290C120.646,290.087 120.976,290.13 121.316,290.13C121.642,290.13 121.962,290.087 122.276,290C122.589,289.907 122.869,289.77 123.116,289.59C123.362,289.41 123.559,289.183 123.706,288.91C123.859,288.637 123.936,288.313 123.936,287.94C123.936,287.5 123.822,287.13 123.596,286.83C123.369,286.523 123.046,286.323 122.626,286.23L122.626,286.21C122.966,286.097 123.219,285.91 123.386,285.65C123.559,285.39 123.646,285.087 123.646,284.74C123.646,284.567 123.606,284.373 123.526,284.16C123.446,283.94 123.312,283.737 123.126,283.55C122.946,283.357 122.706,283.193 122.406,283.06C122.106,282.927 121.739,282.86 121.306,282.86C121.019,282.86 120.736,282.9 120.456,282.98C120.176,283.06 119.922,283.18 119.696,283.34C119.476,283.5 119.296,283.7 119.156,283.94C119.016,284.18 118.946,284.457 118.946,284.77ZM120.076,287.88C120.076,287.52 120.196,287.247 120.436,287.06C120.676,286.867 120.969,286.77 121.316,286.77C121.482,286.77 121.636,286.797 121.776,286.85C121.922,286.903 122.049,286.98 122.156,287.08C122.269,287.18 122.356,287.3 122.416,287.44C122.482,287.573 122.516,287.723 122.516,287.89C122.516,288.063 122.486,288.223 122.426,288.37C122.366,288.517 122.279,288.643 122.166,288.75C122.059,288.85 121.932,288.93 121.786,288.99C121.646,289.043 121.489,289.07 121.316,289.07C121.149,289.07 120.989,289.043 120.836,288.99C120.682,288.93 120.549,288.85 120.436,288.75C120.329,288.643 120.242,288.517 120.176,288.37C120.109,288.223 120.076,288.06 120.076,287.88Z" style="fill-rule:nonzero;"/>
    <path d="M639.5,344C643.642,344 647,340.418 647,336C647,331.582 643.642,328 639.5,328C635.358,328 632,331.582 632,336C632,340.418 635.358,344 639.5,344Z" style="fill:rgb(214,146,180);fill-rule:nonzero;stroke:black;stroke-width:1px;"/>
    <path d="M639.5,404C643.642,404 647,400.642 647,396.5C647,392.358 643.642,389 639.5,389C635.358,389 632,392.358 632,396.5C632,400.642 635.358,404 639.5,404Z" style="fill:rgb(153,153,153);fill-rule:nonzero;stroke:black;stroke-width:1px;"/>
    <path d="M601,458C605.418,458 609,454.642 609,450.5C609,446.358 605.418,443 601,443C596.582,443 593,446.358 593,450.5C593,454.642 596.582,458 601,458Z" style="fill:rgb(214,146,180);fill-rule:nonzero;stroke:black;stroke-width:1px;"/>
    <path d="M678.5,458C682.642,458 686,454.642 686,450.5C686,446.358 682.642,443 678.5,443C674.358,443 671,446.358 671,450.5C671,454.642 674.358,458 678.5,458Z" style="fill:rgb(214,146,180);fill-rule:nonzero;stroke:black;stroke-width:1px;"/>
    <path d="M639.646,387.354C639.842,387.549 640.158,387.549 640.354,387.354L643.536,384.172C643.731,383.976 643.731,383.66 643.536,383.464C643.34,383.269 643.024,383.269 642.828,383.464L640,386.293L637.172,383.464C636.976,383.269 636.66,383.269 636.464,383.464C636.269,383.66 636.269,383.976 636.464,384.172L639.646,387.354ZM639.5,344L639.5,387L640.5,387L640.5,344L639.5,344Z" style="fill-rule:nonzero;"/>
    <path d="M632.235,404.087C632.168,403.819 631.897,403.656 631.629,403.723L627.263,404.815C626.995,404.882 626.832,405.153 626.899,405.421C626.966,405.689 627.238,405.852 627.506,405.785L631.386,404.815L632.356,408.695C632.423,408.963 632.695,409.126 632.963,409.059C633.231,408.992 633.393,408.721 633.326,408.453L632.235,404.087ZM608.929,443.216L632.179,404.466L631.321,403.951L608.071,442.701L608.929,443.216Z" style="fill-rule:nonzero;"/>
    <path d="M647.371,403.723C647.103,403.656 646.832,403.819 646.765,404.087L645.674,408.453C645.607,408.721 645.769,408.992 646.037,409.059C646.305,409.126 646.577,408.963 646.644,408.695L647.614,404.815L651.494,405.785C651.762,405.852 652.034,405.689 652.101,405.421C652.168,405.153 652.005,404.882 651.737,404.815L647.371,403.723ZM670.929,442.701L647.679,403.951L646.821,404.466L670.071,443.216L670.929,442.701Z" style="fill-rule:nonzero;"/>
    <path d="M655.313,334.69L656.673,334.69C656.673,334.503 656.69,334.317 656.723,334.13C656.763,333.937 656.827,333.763 656.913,333.61C657,333.45 657.113,333.323 657.253,333.23C657.4,333.13 657.577,333.08 657.783,333.08C658.09,333.08 658.34,333.177 658.533,333.37C658.733,333.557 658.833,333.82 658.833,334.16C658.833,334.373 658.783,334.563 658.683,334.73C658.59,334.897 658.47,335.047 658.323,335.18C658.183,335.313 658.027,335.437 657.853,335.55C657.68,335.657 657.517,335.763 657.363,335.87C657.063,336.077 656.777,336.28 656.503,336.48C656.237,336.68 656.003,336.9 655.803,337.14C655.603,337.373 655.443,337.64 655.323,337.94C655.21,338.24 655.153,338.593 655.153,339L660.293,339L660.293,337.78L656.983,337.78C657.157,337.54 657.357,337.33 657.583,337.15C657.81,336.97 658.043,336.803 658.283,336.65C658.523,336.49 658.76,336.33 658.993,336.17C659.233,336.01 659.447,335.833 659.633,335.64C659.82,335.44 659.97,335.213 660.083,334.96C660.197,334.707 660.253,334.403 660.253,334.05C660.253,333.71 660.187,333.403 660.053,333.13C659.927,332.857 659.753,332.627 659.533,332.44C659.313,332.253 659.057,332.11 658.763,332.01C658.477,331.91 658.173,331.86 657.853,331.86C657.433,331.86 657.06,331.933 656.733,332.08C656.413,332.22 656.147,332.42 655.933,332.68C655.72,332.933 655.56,333.233 655.453,333.58C655.347,333.92 655.3,334.29 655.313,334.69ZM663.2,335.63C663.02,335.63 662.86,335.593 662.72,335.52C662.587,335.44 662.477,335.34 662.39,335.22C662.303,335.093 662.237,334.953 662.19,334.8C662.15,334.64 662.13,334.477 662.13,334.31C662.13,334.15 662.153,333.993 662.2,333.84C662.247,333.687 662.317,333.55 662.41,333.43C662.503,333.31 662.617,333.213 662.75,333.14C662.883,333.067 663.033,333.03 663.2,333.03C663.38,333.03 663.54,333.067 663.68,333.14C663.82,333.213 663.937,333.313 664.03,333.44C664.13,333.56 664.203,333.7 664.25,333.86C664.303,334.013 664.33,334.17 664.33,334.33C664.33,334.503 664.307,334.67 664.26,334.83C664.213,334.983 664.143,335.12 664.05,335.24C663.957,335.36 663.84,335.457 663.7,335.53C663.56,335.597 663.393,335.63 663.2,335.63ZM662.18,337.2L660.83,337.2C660.87,337.507 660.953,337.78 661.08,338.02C661.207,338.26 661.37,338.463 661.57,338.63C661.77,338.797 662,338.92 662.26,339C662.52,339.087 662.8,339.13 663.1,339.13C663.6,339.13 664.023,339.023 664.37,338.81C664.717,338.59 665,338.307 665.22,337.96C665.44,337.607 665.6,337.213 665.7,336.78C665.8,336.347 665.85,335.913 665.85,335.48C665.85,335.04 665.81,334.603 665.73,334.17C665.65,333.737 665.507,333.35 665.3,333.01C665.093,332.663 664.817,332.387 664.47,332.18C664.13,331.967 663.693,331.86 663.16,331.86C662.793,331.86 662.46,331.927 662.16,332.06C661.86,332.193 661.6,332.377 661.38,332.61C661.167,332.837 661,333.107 660.88,333.42C660.767,333.727 660.71,334.06 660.71,334.42C660.71,334.7 660.753,334.977 660.84,335.25C660.927,335.523 661.063,335.767 661.25,335.98C661.45,336.2 661.693,336.377 661.98,336.51C662.267,336.637 662.56,336.7 662.86,336.7C663.2,336.7 663.5,336.64 663.76,336.52C664.02,336.4 664.247,336.2 664.44,335.92L664.46,335.94C664.447,336.133 664.417,336.353 664.37,336.6C664.33,336.847 664.26,337.08 664.16,337.3C664.06,337.513 663.927,337.697 663.76,337.85C663.593,337.997 663.38,338.07 663.12,338.07C662.873,338.07 662.667,337.983 662.5,337.81C662.333,337.637 662.227,337.433 662.18,337.2Z" style="fill-rule:nonzero;"/>
    <path d="M635.999,308.19L636.159,309L637.159,309L637.159,305.14L634.159,305.14L634.159,306.31L635.739,306.31C635.693,306.81 635.526,307.193 635.239,307.46C634.959,307.72 634.559,307.85 634.039,307.85C633.686,307.85 633.386,307.783 633.139,307.65C632.893,307.51 632.693,307.327 632.539,307.1C632.386,306.873 632.273,306.62 632.199,306.34C632.133,306.053 632.099,305.76 632.099,305.46C632.099,305.147 632.133,304.843 632.199,304.55C632.273,304.257 632.386,303.997 632.539,303.77C632.693,303.537 632.893,303.353 633.139,303.22C633.386,303.08 633.686,303.01 634.039,303.01C634.419,303.01 634.743,303.11 635.009,303.31C635.276,303.51 635.456,303.81 635.549,304.21L637.049,304.21C637.009,303.803 636.899,303.443 636.719,303.13C636.539,302.817 636.309,302.553 636.029,302.34C635.756,302.127 635.446,301.967 635.099,301.86C634.759,301.747 634.406,301.69 634.039,301.69C633.493,301.69 632.999,301.787 632.559,301.98C632.126,302.173 631.759,302.44 631.459,302.78C631.159,303.12 630.929,303.52 630.769,303.98C630.609,304.433 630.529,304.927 630.529,305.46C630.529,305.98 630.609,306.467 630.769,306.92C630.929,307.367 631.159,307.757 631.459,308.09C631.759,308.423 632.126,308.687 632.559,308.88C632.999,309.067 633.493,309.16 634.039,309.16C634.386,309.16 634.729,309.09 635.069,308.95C635.409,308.803 635.719,308.55 635.999,308.19ZM641.657,309L641.657,302L640.527,302C640.487,302.267 640.404,302.49 640.277,302.67C640.151,302.85 639.994,302.997 639.807,303.11C639.627,303.217 639.421,303.293 639.187,303.34C638.961,303.38 638.724,303.397 638.477,303.39L638.477,304.46L640.237,304.46L640.237,309L641.657,309ZM644.924,305.47L644.924,305.04C644.931,304.867 644.944,304.69 644.964,304.51C644.984,304.33 645.017,304.153 645.064,303.98C645.111,303.8 645.174,303.64 645.254,303.5C645.341,303.36 645.447,303.247 645.574,303.16C645.707,303.073 645.871,303.03 646.064,303.03C646.257,303.03 646.421,303.073 646.554,303.16C646.687,303.247 646.797,303.36 646.884,303.5C646.971,303.64 647.034,303.8 647.074,303.98C647.121,304.153 647.154,304.33 647.174,304.51C647.201,304.69 647.214,304.867 647.214,305.04C647.221,305.207 647.224,305.35 647.224,305.47C647.224,305.67 647.217,305.913 647.204,306.2C647.191,306.48 647.147,306.753 647.074,307.02C647.007,307.28 646.894,307.503 646.734,307.69C646.581,307.877 646.357,307.97 646.064,307.97C645.777,307.97 645.557,307.877 645.404,307.69C645.251,307.503 645.137,307.28 645.064,307.02C644.997,306.753 644.957,306.48 644.944,306.2C644.931,305.913 644.924,305.67 644.924,305.47ZM643.504,305.47C643.504,306.17 643.571,306.757 643.704,307.23C643.844,307.697 644.031,308.07 644.264,308.35C644.497,308.63 644.767,308.83 645.074,308.95C645.387,309.07 645.717,309.13 646.064,309.13C646.417,309.13 646.747,309.07 647.054,308.95C647.367,308.83 647.641,308.63 647.874,308.35C648.114,308.07 648.301,307.697 648.434,307.23C648.574,306.757 648.644,306.17 648.644,305.47C648.644,304.79 648.574,304.22 648.434,303.76C648.301,303.293 648.114,302.92 647.874,302.64C647.641,302.36 647.367,302.16 647.054,302.04C646.747,301.92 646.417,301.86 646.064,301.86C645.717,301.86 645.387,301.92 645.074,302.04C644.767,302.16 644.497,302.36 644.264,302.64C644.031,302.92 643.844,303.293 643.704,303.76C643.571,304.22 643.504,304.79 643.504,305.47Z" style="fill-rule:nonzero;"/>
    <path d="M641.5,87C645.642,87 649,83.642 649,79.5C649,75.358 645.642,72 641.5,72C637.358,72 634,75.358 634,79.5C634,83.642 637.358,87 641.5,87Z" style="fill:rgb(223,121,112);fill-rule:nonzero;stroke:black;stroke-width:1px;"/>
    <path d="M641.5,148C645.642,148 649,144.642 649,140.5C649,136.358 645.642,133 641.5,133C637.358,133 634,136.358 634,140.5C634,144.642 637.358,148 641.5,148Z" style="fill:rgb(153,153,153);fill-rule:nonzero;stroke:black;stroke-width:1px;"/>
    <path d="M604.5,199C608.642,199 612,195.642 612,191.5C612,187.358 608.642,184 604.5,184C600.358,184 597,187.358 597,191.5C597,195.642 600.358,199 604.5,199Z" style="fill:rgb(223,121,112);fill-rule:nonzero;stroke:black;stroke-width:1px;"/>
    <path d="M678.5,199C682.642,199 686,195.642 686,191.5C686,187.358 682.642,184 678.5,184C674.358,184 671,187.358 671,191.5C671,195.642 674.358,199 678.5,199Z" style="fill:rgb(223,121,112);fill-rule:nonzero;stroke:black;stroke-width:1px;"/>
    <path d="M642.354,87.646C642.158,87.451 641.842,87.451 641.646,87.646L638.464,90.828C638.269,91.024 638.269,91.34 638.464,91.536C638.66,91.731 638.976,91.731 639.172,91.536L642,88.707L644.828,91.536C645.024,91.731 645.34,91.731 645.536,91.536C645.731,91.34 645.731,91.024 645.536,90.828L642.354,87.646ZM642.5,132L642.5,88L641.5,88L641.5,132L642.5,132Z" style="fill-rule:nonzero;"/>
    <path d="M603.92,184.222C603.95,184.496 604.197,184.694 604.472,184.664L608.944,184.167C609.219,184.136 609.417,183.889 609.386,183.615C609.356,183.34 609.108,183.142 608.834,183.173L604.858,183.615L604.417,179.639C604.386,179.365 604.139,179.167 603.865,179.197C603.59,179.228 603.392,179.475 603.423,179.749L603.92,184.222ZM633.693,146.771L604.026,183.854L604.807,184.479L634.474,147.396L633.693,146.771Z" style="fill-rule:nonzero;"/>
    <path d="M678.528,184.664C678.803,184.694 679.05,184.496 679.08,184.222L679.577,179.749C679.608,179.475 679.41,179.228 679.135,179.197C678.861,179.167 678.614,179.365 678.583,179.639L678.142,183.615L674.166,183.173C673.892,183.142 673.644,183.34 673.614,183.615C673.583,183.889 673.781,184.136 674.056,184.167L678.528,184.664ZM648.526,147.396L678.193,184.479L678.974,183.854L649.307,146.771L648.526,147.396Z" style="fill-rule:nonzero;"/>
    <path d="M658.723,80.83L658.723,81.83C658.897,81.83 659.077,81.837 659.263,81.85C659.457,81.857 659.633,81.893 659.793,81.96C659.953,82.02 660.083,82.12 660.183,82.26C660.29,82.4 660.343,82.603 660.343,82.87C660.343,83.21 660.233,83.48 660.013,83.68C659.793,83.873 659.523,83.97 659.203,83.97C658.997,83.97 658.817,83.933 658.663,83.86C658.517,83.787 658.393,83.69 658.293,83.57C658.193,83.443 658.117,83.297 658.063,83.13C658.01,82.957 657.98,82.777 657.973,82.59L656.623,82.59C656.617,82.997 656.673,83.357 656.793,83.67C656.92,83.983 657.097,84.25 657.323,84.47C657.55,84.683 657.823,84.847 658.143,84.96C658.47,85.073 658.83,85.13 659.223,85.13C659.563,85.13 659.89,85.08 660.203,84.98C660.517,84.88 660.793,84.733 661.033,84.54C661.273,84.347 661.463,84.107 661.603,83.82C661.75,83.533 661.823,83.207 661.823,82.84C661.823,82.44 661.713,82.097 661.493,81.81C661.273,81.523 660.97,81.337 660.583,81.25L660.583,81.23C660.91,81.137 661.153,80.96 661.313,80.7C661.48,80.44 661.563,80.14 661.563,79.8C661.563,79.487 661.493,79.21 661.353,78.97C661.213,78.73 661.03,78.527 660.803,78.36C660.583,78.193 660.333,78.07 660.053,77.99C659.773,77.903 659.493,77.86 659.213,77.86C658.853,77.86 658.527,77.92 658.233,78.04C657.94,78.153 657.687,78.317 657.473,78.53C657.267,78.743 657.103,79 656.983,79.3C656.87,79.593 656.807,79.92 656.793,80.28L658.143,80.28C658.137,79.92 658.223,79.623 658.403,79.39C658.59,79.15 658.863,79.03 659.223,79.03C659.483,79.03 659.713,79.11 659.913,79.27C660.113,79.43 660.213,79.66 660.213,79.96C660.213,80.16 660.163,80.32 660.063,80.44C659.97,80.56 659.847,80.653 659.693,80.72C659.547,80.78 659.387,80.817 659.213,80.83C659.04,80.843 658.877,80.843 658.723,80.83ZM665.92,85L665.92,78L664.79,78C664.75,78.267 664.667,78.49 664.54,78.67C664.413,78.85 664.257,78.997 664.07,79.11C663.89,79.217 663.683,79.293 663.45,79.34C663.223,79.38 662.987,79.397 662.74,79.39L662.74,80.46L664.5,80.46L664.5,85L665.92,85Z" style="fill-rule:nonzero;"/>
    <path d="M638.499,52.19L638.659,53L639.659,53L639.659,49.14L636.659,49.14L636.659,50.31L638.239,50.31C638.193,50.81 638.026,51.193 637.739,51.46C637.459,51.72 637.059,51.85 636.539,51.85C636.186,51.85 635.886,51.783 635.639,51.65C635.393,51.51 635.193,51.327 635.039,51.1C634.886,50.873 634.773,50.62 634.699,50.34C634.633,50.053 634.599,49.76 634.599,49.46C634.599,49.147 634.633,48.843 634.699,48.55C634.773,48.257 634.886,47.997 635.039,47.77C635.193,47.537 635.393,47.353 635.639,47.22C635.886,47.08 636.186,47.01 636.539,47.01C636.919,47.01 637.243,47.11 637.509,47.31C637.776,47.51 637.956,47.81 638.049,48.21L639.549,48.21C639.509,47.803 639.399,47.443 639.219,47.13C639.039,46.817 638.809,46.553 638.529,46.34C638.256,46.127 637.946,45.967 637.599,45.86C637.259,45.747 636.906,45.69 636.539,45.69C635.993,45.69 635.499,45.787 635.059,45.98C634.626,46.173 634.259,46.44 633.959,46.78C633.659,47.12 633.429,47.52 633.269,47.98C633.109,48.433 633.029,48.927 633.029,49.46C633.029,49.98 633.109,50.467 633.269,50.92C633.429,51.367 633.659,51.757 633.959,52.09C634.259,52.423 634.626,52.687 635.059,52.88C635.499,53.067 635.993,53.16 636.539,53.16C636.886,53.16 637.229,53.09 637.569,52.95C637.909,52.803 638.219,52.55 638.499,52.19ZM644.157,53L644.157,46L643.027,46C642.987,46.267 642.904,46.49 642.777,46.67C642.651,46.85 642.494,46.997 642.307,47.11C642.127,47.217 641.921,47.293 641.687,47.34C641.461,47.38 641.224,47.397 640.977,47.39L640.977,48.46L642.737,48.46L642.737,53L644.157,53ZM649.714,53L649.714,46L648.584,46C648.544,46.267 648.461,46.49 648.334,46.67C648.207,46.85 648.051,46.997 647.864,47.11C647.684,47.217 647.477,47.293 647.244,47.34C647.017,47.38 646.781,47.397 646.534,47.39L646.534,48.46L648.294,48.46L648.294,53L649.714,53Z" style="fill-rule:nonzero;"/>
    <path d="M377.5,88C381.09,88 384,85.09 384,81.5C384,77.91 381.09,75 377.5,75C373.91,75 371,77.91 371,81.5C371,85.09 373.91,88 377.5,88Z" style="fill:rgb(223,121,112);fill-rule:nonzero;stroke:black;stroke-width:1px;"/>
    <path d="M377.5,153C381.09,153 384,150.09 384,146.5C384,142.91 381.09,140 377.5,140C373.91,140 371,142.91 371,146.5C371,150.09 373.91,153 377.5,153Z" style="fill:rgb(153,153,153);fill-rule:nonzero;stroke:black;stroke-width:1px;"/>
    <path d="M377.5,217C381.09,217 384,214.09 384,210.5C384,206.91 381.09,204 377.5,204C373.91,204 371,206.91 371,210.5C371,214.09 373.91,217 377.5,217Z" style="fill:rgb(153,153,153);fill-rule:nonzero;stroke:black;stroke-width:1px;"/>
    <path d="M377.646,140.354C377.842,140.549 378.158,140.549 378.354,140.354L381.536,137.172C381.731,136.976 381.731,136.66 381.536,136.464C381.34,136.269 381.024,136.269 380.828,136.464L378,139.293L375.172,136.464C374.976,136.269 374.66,136.269 374.464,136.464C374.269,136.66 374.269,136.976 374.464,137.172L377.646,140.354ZM377.5,88L377.5,140L378.5,140L378.5,88L377.5,88Z" style="fill-rule:nonzero;"/>
    <path d="M378.354,152.646C378.158,152.451 377.842,152.451 377.646,152.646L374.464,155.828C374.269,156.024 374.269,156.34 374.464,156.536C374.66,156.731 374.976,156.731 375.172,156.536L378,153.707L380.828,156.536C381.024,156.731 381.34,156.731 381.536,156.536C381.731,156.34 381.731,156.024 381.536,155.828L378.354,152.646ZM378.5,204L378.5,153L377.5,153L377.5,204L378.5,204Z" style="fill-rule:nonzero;"/>
    <path d="M394.892,80.22L394.892,79L390.112,79L390.112,80.32L393.432,80.32C392.765,81.127 392.225,82.013 391.812,82.98C391.405,83.947 391.162,84.953 391.082,86L392.602,86C392.608,85.533 392.662,85.03 392.762,84.49C392.868,83.95 393.015,83.417 393.202,82.89C393.395,82.363 393.632,81.867 393.912,81.4C394.198,80.933 394.525,80.54 394.892,80.22Z" style="fill-rule:nonzero;"/>
    <path d="M376.778,52.19L376.938,53L377.938,53L377.938,49.14L374.938,49.14L374.938,50.31L376.518,50.31C376.471,50.81 376.304,51.193 376.018,51.46C375.738,51.72 375.338,51.85 374.818,51.85C374.464,51.85 374.164,51.783 373.918,51.65C373.671,51.51 373.471,51.327 373.318,51.1C373.164,50.873 373.051,50.62 372.978,50.34C372.911,50.053 372.878,49.76 372.878,49.46C372.878,49.147 372.911,48.843 372.978,48.55C373.051,48.257 373.164,47.997 373.318,47.77C373.471,47.537 373.671,47.353 373.918,47.22C374.164,47.08 374.464,47.01 374.818,47.01C375.198,47.01 375.521,47.11 375.788,47.31C376.054,47.51 376.234,47.81 376.328,48.21L377.828,48.21C377.788,47.803 377.678,47.443 377.498,47.13C377.318,46.817 377.088,46.553 376.808,46.34C376.534,46.127 376.224,45.967 375.878,45.86C375.538,45.747 375.184,45.69 374.818,45.69C374.271,45.69 373.778,45.787 373.338,45.98C372.904,46.173 372.538,46.44 372.238,46.78C371.938,47.12 371.708,47.52 371.548,47.98C371.388,48.433 371.308,48.927 371.308,49.46C371.308,49.98 371.388,50.467 371.548,50.92C371.708,51.367 371.938,51.757 372.238,52.09C372.538,52.423 372.904,52.687 373.338,52.88C373.778,53.067 374.271,53.16 374.818,53.16C375.164,53.16 375.508,53.09 375.848,52.95C376.188,52.803 376.498,52.55 376.778,52.19ZM380.796,48.83L380.796,49.83C380.969,49.83 381.149,49.837 381.336,49.85C381.529,49.857 381.706,49.893 381.866,49.96C382.026,50.02 382.156,50.12 382.256,50.26C382.362,50.4 382.416,50.603 382.416,50.87C382.416,51.21 382.306,51.48 382.086,51.68C381.866,51.873 381.596,51.97 381.276,51.97C381.069,51.97 380.889,51.933 380.736,51.86C380.589,51.787 380.466,51.69 380.366,51.57C380.266,51.443 380.189,51.297 380.136,51.13C380.082,50.957 380.052,50.777 380.046,50.59L378.696,50.59C378.689,50.997 378.746,51.357 378.866,51.67C378.992,51.983 379.169,52.25 379.396,52.47C379.622,52.683 379.896,52.847 380.216,52.96C380.542,53.073 380.902,53.13 381.296,53.13C381.636,53.13 381.962,53.08 382.276,52.98C382.589,52.88 382.866,52.733 383.106,52.54C383.346,52.347 383.536,52.107 383.676,51.82C383.822,51.533 383.896,51.207 383.896,50.84C383.896,50.44 383.786,50.097 383.566,49.81C383.346,49.523 383.042,49.337 382.656,49.25L382.656,49.23C382.982,49.137 383.226,48.96 383.386,48.7C383.552,48.44 383.636,48.14 383.636,47.8C383.636,47.487 383.566,47.21 383.426,46.97C383.286,46.73 383.102,46.527 382.876,46.36C382.656,46.193 382.406,46.07 382.126,45.99C381.846,45.903 381.566,45.86 381.286,45.86C380.926,45.86 380.599,45.92 380.306,46.04C380.012,46.153 379.759,46.317 379.546,46.53C379.339,46.743 379.176,47 379.056,47.3C378.942,47.593 378.879,47.92 378.866,48.28L380.216,48.28C380.209,47.92 380.296,47.623 380.476,47.39C380.662,47.15 380.936,47.03 381.296,47.03C381.556,47.03 381.786,47.11 381.986,47.27C382.186,47.43 382.286,47.66 382.286,47.96C382.286,48.16 382.236,48.32 382.136,48.44C382.042,48.56 381.919,48.653 381.766,48.72C381.619,48.78 381.459,48.817 381.286,48.83C381.112,48.843 380.949,48.843 380.796,48.83Z" style="fill-rule:nonzero;"/>
    <path d="M456,77C458.761,77 461,74.761 461,72C461,69.239 458.761,67 456,67C453.239,67 451,69.239 451,72C451,74.761 453.239,77 456,77Z" style="fill:rgb(223,121,112);fill-rule:nonzero;stroke:black;stroke-width:1px;"/>
    <path d="M456,124C458.761,124 461,121.761 461,119C461,116.239 458.761,114 456,114C453.239,114 451,116.239 451,119C451,121.761 453.239,124 456,124Z" style="fill:rgb(153,153,153);fill-rule:nonzero;stroke:black;stroke-width:1px;"/>
    <path d="M456,170C458.761,170 461,167.761 461,165C461,162.239 458.761,160 456,160C453.239,160 451,162.239 451,165C451,167.761 453.239,170 456,170Z" style="fill:rgb(153,153,153);fill-rule:nonzero;stroke:black;stroke-width:1px;"/>
    <path d="M456,217C458.761,217 461,214.761 461,212C461,209.239 458.761,207 456,207C453.239,207 451,209.239 451,212C451,214.761 453.239,217 456,217Z" style="fill:rgb(153,153,153);fill-rule:nonzero;stroke:black;stroke-width:1px;"/>
    <path d="M546,77C548.761,77 551,74.761 551,72C551,69.239 548.761,67 546,67C543.239,67 541,69.239 541,72C541,74.761 543.239,77 546,77Z" style="fill:rgb(223,121,112);fill-rule:nonzero;stroke:black;stroke-width:1px;"/>
    <path d="M546,124C548.761,124 551,121.761 551,119C551,116.239 548.761,114 546,114C543.239,114 541,116.239 541,119C541,121.761 543.239,124 546,124Z" style="fill:rgb(153,153,153);fill-rule:nonzero;stroke:black;stroke-width:1px;"/>
    <path d="M546,171C548.761,171 551,168.761 551,166C551,163.239 548.761,161 546,161C543.239,161 541,163.239 541,166C541,168.761 543.239,171 546,171Z" style="fill:rgb(153,153,153);fill-rule:nonzero;stroke:black;stroke-width:1px;"/>
    <path d="M546,217C548.761,217 551,214.761 551,212C551,209.239 548.761,207 546,207C543.239,207 541,209.239 541,212C541,214.761 543.239,217 546,217Z" style="fill:rgb(153,153,153);fill-rule:nonzero;stroke:black;stroke-width:1px;"/>
    <path d="M545.646,114.354C545.842,114.549 546.158,114.549 546.354,114.354L549.536,111.172C549.731,110.976 549.731,110.66 549.536,110.464C549.34,110.269 549.024,110.269 548.828,110.464L546,113.293L543.172,110.464C542.976,110.269 542.66,110.269 542.464,110.464C542.269,110.66 542.269,110.976 542.464,111.172L545.646,114.354ZM545.5,77L545.5,114L546.5,114L546.5,77L545.5,77Z" style="fill-rule:nonzero;"/>
    <path d="M545.646,114.354C545.842,114.549 546.158,114.549 546.354,114.354L549.536,111.172C549.731,110.976 549.731,110.66 549.536,110.464C549.34,110.269 549.024,110.269 548.828,110.464L546,113.293L543.172,110.464C542.976,110.269 542.66,110.269 542.464,110.464C542.269,110.66 542.269,110.976 542.464,111.172L545.646,114.354ZM545.5,77L545.5,114L546.5,114L546.5,77L545.5,77Z" style="fill-rule:nonzero;"/>
    <path d="M545.646,207.354C545.842,207.549 546.158,207.549 546.354,207.354L549.536,204.172C549.731,203.976 549.731,203.66 549.536,203.464C549.34,203.269 549.024,203.269 548.828,203.464L546,206.293L543.172,203.464C542.976,203.269 542.66,203.269 542.464,203.464C542.269,203.66 542.269,203.976 542.464,204.172L545.646,207.354ZM545.5,170L545.5,207L546.5,207L546.5,170L545.5,170Z" style="fill-rule:nonzero;"/>
    <path d="M455.646,114.354C455.842,114.549 456.158,114.549 456.354,114.354L459.536,111.172C459.731,110.976 459.731,110.66 459.536,110.464C459.34,110.269 459.024,110.269 458.828,110.464L456,113.293L453.172,110.464C452.976,110.269 452.66,110.269 452.464,110.464C452.269,110.66 452.269,110.976 452.464,111.172L455.646,114.354ZM455.5,77L455.5,114L456.5,114L456.5,77L455.5,77Z" style="fill-rule:nonzero;"/>
    <path d="M455.646,161.354C455.842,161.549 456.158,161.549 456.354,161.354L459.536,158.172C459.731,157.976 459.731,157.66 459.536,157.464C459.34,157.269 459.024,157.269 458.828,157.464L456,160.293L453.172,157.464C452.976,157.269 452.66,157.269 452.464,157.464C452.269,157.66 452.269,157.976 452.464,158.172L455.646,161.354ZM455.5,124L455.5,161L456.5,161L456.5,124L455.5,124Z" style="fill-rule:nonzero;"/>
    <path d="M456.354,169.646C456.158,169.451 455.842,169.451 455.646,169.646L452.464,172.828C452.269,173.024 452.269,173.34 452.464,173.536C452.66,173.731 452.976,173.731 453.172,173.536L456,170.707L458.828,173.536C459.024,173.731 459.34,173.731 459.536,173.536C459.731,173.34 459.731,173.024 459.536,172.828L456.354,169.646ZM456.5,207L456.5,170L455.5,170L455.5,207L456.5,207Z" style="fill-rule:nonzero;"/>
    <path d="M546.354,123.646C546.158,123.451 545.842,123.451 545.646,123.646L542.464,126.828C542.269,127.024 542.269,127.34 542.464,127.536C542.66,127.731 542.976,127.731 543.172,127.536L546,124.707L548.828,127.536C549.024,127.731 549.34,127.731 549.536,127.536C549.731,127.34 549.731,127.024 549.536,126.828L546.354,123.646ZM546.5,161L546.5,124L545.5,124L545.5,161L546.5,161Z" style="fill-rule:nonzero;"/>
    <path d="M468.363,75L468.363,68L467.233,68C467.193,68.267 467.11,68.49 466.983,68.67C466.857,68.85 466.7,68.997 466.513,69.11C466.333,69.217 466.127,69.293 465.893,69.34C465.667,69.38 465.43,69.397 465.183,69.39L465.183,70.46L466.943,70.46L466.943,75L468.363,75ZM475.17,69.22L475.17,68L470.39,68L470.39,69.32L473.71,69.32C473.043,70.127 472.503,71.013 472.09,71.98C471.683,72.947 471.44,73.953 471.36,75L472.88,75C472.887,74.533 472.94,74.03 473.04,73.49C473.147,72.95 473.293,72.417 473.48,71.89C473.673,71.363 473.91,70.867 474.19,70.4C474.477,69.933 474.803,69.54 475.17,69.22Z" style="fill-rule:nonzero;"/>
    <path d="M554.813,70.69L556.173,70.69C556.173,70.503 556.19,70.317 556.223,70.13C556.263,69.937 556.327,69.763 556.413,69.61C556.5,69.45 556.613,69.323 556.753,69.23C556.9,69.13 557.077,69.08 557.283,69.08C557.59,69.08 557.84,69.177 558.033,69.37C558.233,69.557 558.333,69.82 558.333,70.16C558.333,70.373 558.283,70.563 558.183,70.73C558.09,70.897 557.97,71.047 557.823,71.18C557.683,71.313 557.527,71.437 557.353,71.55C557.18,71.657 557.017,71.763 556.863,71.87C556.563,72.077 556.277,72.28 556.003,72.48C555.737,72.68 555.503,72.9 555.303,73.14C555.103,73.373 554.943,73.64 554.823,73.94C554.71,74.24 554.653,74.593 554.653,75L559.793,75L559.793,73.78L556.483,73.78C556.657,73.54 556.857,73.33 557.083,73.15C557.31,72.97 557.543,72.803 557.783,72.65C558.023,72.49 558.26,72.33 558.493,72.17C558.733,72.01 558.947,71.833 559.133,71.64C559.32,71.44 559.47,71.213 559.583,70.96C559.697,70.707 559.753,70.403 559.753,70.05C559.753,69.71 559.687,69.403 559.553,69.13C559.427,68.857 559.253,68.627 559.033,68.44C558.813,68.253 558.557,68.11 558.263,68.01C557.977,67.91 557.673,67.86 557.353,67.86C556.933,67.86 556.56,67.933 556.233,68.08C555.913,68.22 555.647,68.42 555.433,68.68C555.22,68.933 555.06,69.233 554.953,69.58C554.847,69.92 554.8,70.29 554.813,70.69ZM563.92,75L563.92,68L562.79,68C562.75,68.267 562.667,68.49 562.54,68.67C562.413,68.85 562.257,68.997 562.07,69.11C561.89,69.217 561.683,69.293 561.45,69.34C561.223,69.38 560.987,69.397 560.74,69.39L560.74,70.46L562.5,70.46L562.5,75L563.92,75Z" style="fill-rule:nonzero;"/>
    <path d="M456.278,52.19L456.438,53L457.438,53L457.438,49.14L454.438,49.14L454.438,50.31L456.018,50.31C455.971,50.81 455.804,51.193 455.518,51.46C455.238,51.72 454.838,51.85 454.318,51.85C453.964,51.85 453.664,51.783 453.418,51.65C453.171,51.51 452.971,51.327 452.818,51.1C452.664,50.873 452.551,50.62 452.478,50.34C452.411,50.053 452.378,49.76 452.378,49.46C452.378,49.147 452.411,48.843 452.478,48.55C452.551,48.257 452.664,47.997 452.818,47.77C452.971,47.537 453.171,47.353 453.418,47.22C453.664,47.08 453.964,47.01 454.318,47.01C454.698,47.01 455.021,47.11 455.288,47.31C455.554,47.51 455.734,47.81 455.828,48.21L457.328,48.21C457.288,47.803 457.178,47.443 456.998,47.13C456.818,46.817 456.588,46.553 456.308,46.34C456.034,46.127 455.724,45.967 455.378,45.86C455.038,45.747 454.684,45.69 454.318,45.69C453.771,45.69 453.278,45.787 452.838,45.98C452.404,46.173 452.038,46.44 451.738,46.78C451.438,47.12 451.208,47.52 451.048,47.98C450.888,48.433 450.808,48.927 450.808,49.46C450.808,49.98 450.888,50.467 451.048,50.92C451.208,51.367 451.438,51.757 451.738,52.09C452.038,52.423 452.404,52.687 452.838,52.88C453.278,53.067 453.771,53.16 454.318,53.16C454.664,53.16 455.008,53.09 455.348,52.95C455.688,52.803 455.998,52.55 456.278,52.19ZM463.186,47.22L463.186,46L458.406,46L458.406,47.32L461.726,47.32C461.059,48.127 460.519,49.013 460.106,49.98C459.699,50.947 459.456,51.953 459.376,53L460.896,53C460.902,52.533 460.956,52.03 461.056,51.49C461.162,50.95 461.309,50.417 461.496,49.89C461.689,49.363 461.926,48.867 462.206,48.4C462.492,47.933 462.819,47.54 463.186,47.22Z" style="fill-rule:nonzero;"/>
    <path d="M547.778,52.19L547.938,53L548.938,53L548.938,49.14L545.938,49.14L545.938,50.31L547.518,50.31C547.471,50.81 547.304,51.193 547.018,51.46C546.738,51.72 546.338,51.85 545.818,51.85C545.464,51.85 545.164,51.783 544.918,51.65C544.671,51.51 544.471,51.327 544.318,51.1C544.164,50.873 544.051,50.62 543.978,50.34C543.911,50.053 543.878,49.76 543.878,49.46C543.878,49.147 543.911,48.843 543.978,48.55C544.051,48.257 544.164,47.997 544.318,47.77C544.471,47.537 544.671,47.353 544.918,47.22C545.164,47.08 545.464,47.01 545.818,47.01C546.198,47.01 546.521,47.11 546.788,47.31C547.054,47.51 547.234,47.81 547.328,48.21L548.828,48.21C548.788,47.803 548.678,47.443 548.498,47.13C548.318,46.817 548.088,46.553 547.808,46.34C547.534,46.127 547.224,45.967 546.878,45.86C546.538,45.747 546.184,45.69 545.818,45.69C545.271,45.69 544.778,45.787 544.338,45.98C543.904,46.173 543.538,46.44 543.238,46.78C542.938,47.12 542.708,47.52 542.548,47.98C542.388,48.433 542.308,48.927 542.308,49.46C542.308,49.98 542.388,50.467 542.548,50.92C542.708,51.367 542.938,51.757 543.238,52.09C543.538,52.423 543.904,52.687 544.338,52.88C544.778,53.067 545.271,53.16 545.818,53.16C546.164,53.16 546.508,53.09 546.848,52.95C547.188,52.803 547.498,52.55 547.778,52.19ZM551.236,47.9C551.236,47.74 551.262,47.6 551.316,47.48C551.376,47.36 551.456,47.26 551.556,47.18C551.656,47.1 551.769,47.04 551.896,47C552.029,46.953 552.166,46.93 552.306,46.93C552.526,46.93 552.702,46.963 552.836,47.03C552.976,47.097 553.082,47.18 553.156,47.28C553.236,47.38 553.289,47.487 553.316,47.6C553.342,47.707 553.356,47.807 553.356,47.9C553.356,48.2 553.256,48.43 553.056,48.59C552.856,48.743 552.606,48.82 552.306,48.82C552.019,48.82 551.769,48.743 551.556,48.59C551.342,48.43 551.236,48.2 551.236,47.9ZM549.946,47.77C549.946,48.117 550.032,48.42 550.206,48.68C550.379,48.94 550.636,49.117 550.976,49.21L550.976,49.23C550.556,49.33 550.229,49.53 549.996,49.83C549.769,50.13 549.656,50.503 549.656,50.95C549.656,51.33 549.729,51.657 549.876,51.93C550.029,52.203 550.229,52.43 550.476,52.61C550.729,52.79 551.012,52.92 551.326,53C551.646,53.087 551.976,53.13 552.316,53.13C552.642,53.13 552.962,53.087 553.276,53C553.589,52.907 553.869,52.77 554.116,52.59C554.362,52.41 554.559,52.183 554.706,51.91C554.859,51.637 554.936,51.313 554.936,50.94C554.936,50.5 554.822,50.13 554.596,49.83C554.369,49.523 554.046,49.323 553.626,49.23L553.626,49.21C553.966,49.097 554.219,48.91 554.386,48.65C554.559,48.39 554.646,48.087 554.646,47.74C554.646,47.567 554.606,47.373 554.526,47.16C554.446,46.94 554.312,46.737 554.126,46.55C553.946,46.357 553.706,46.193 553.406,46.06C553.106,45.927 552.739,45.86 552.306,45.86C552.019,45.86 551.736,45.9 551.456,45.98C551.176,46.06 550.922,46.18 550.696,46.34C550.476,46.5 550.296,46.7 550.156,46.94C550.016,47.18 549.946,47.457 549.946,47.77ZM551.076,50.88C551.076,50.52 551.196,50.247 551.436,50.06C551.676,49.867 551.969,49.77 552.316,49.77C552.482,49.77 552.636,49.797 552.776,49.85C552.922,49.903 553.049,49.98 553.156,50.08C553.269,50.18 553.356,50.3 553.416,50.44C553.482,50.573 553.516,50.723 553.516,50.89C553.516,51.063 553.486,51.223 553.426,51.37C553.366,51.517 553.279,51.643 553.166,51.75C553.059,51.85 552.932,51.93 552.786,51.99C552.646,52.043 552.489,52.07 552.316,52.07C552.149,52.07 551.989,52.043 551.836,51.99C551.682,51.93 551.549,51.85 551.436,51.75C551.329,51.643 551.242,51.517 551.176,51.37C551.109,51.223 551.076,51.06 551.076,50.88Z" style="fill-rule:nonzero;"/>
</svg>
