<?xml version="1.0" encoding="utf-8"?>
<svg xmlns="http://www.w3.org/2000/svg" xmlns:xlink="http://www.w3.org/1999/xlink" xml:space="preserve" width="792" height="792" viewBox="0 0 792 792"><g fill="#2ec4b6">
<g transform="translate(264,48) scale(4.12)"><circle cx="3" cy="3" r="2.5"/></g>
<g transform="translate(384,48) scale(4.12)"><circle cx="3" cy="3" r="2.5"/></g>
<g transform="translate(432,48) scale(4.12)"><path d="M6,5.5H3C1.6,5.5,0.5,4.4,0.5,3v0c0-1.4,1.1-2.5,2.5-2.5h3V5.5z"/></g>
<g transform="translate(456,48) scale(4.12)"><rect y="0.5" width="6" height="5"/></g>
<g transform="translate(480,48) scale(4.12)"><rect y="0.5" width="6" height="5"/></g>
<g transform="translate(504,48) scale(4.12)"><path d="M3,5.5H0v-5h3c1.4,0,2.5,1.1,2.5,2.5v0C5.5,4.4,4.4,5.5,3,5.5z"/></g>
<g transform="translate(240,72) scale(4.12)"><path d="M6,5.5H3C1.6,5.5,0.5,4.4,0.5,3v0c0-1.4,1.1-2.5,2.5-2.5h3V5.5z"/></g>
<g transform="translate(264,72) scale(4.12)"><path d="M3,5.5H0v-5h3c1.4,0,2.5,1.1,2.5,2.5v0C5.5,4.4,4.4,5.5,3,5.5z"/></g>
<g transform="translate(312,72) scale(4.12)"><path d="M6,5.5H3C1.6,5.5,0.5,4.4,0.5,3v0c0-1.4,1.1-2.5,2.5-2.5h3V5.5z"/></g>
<g transform="translate(336,72) scale(4.12)"><rect y="0.5" width="6" height="5"/></g>
<g transform="translate(360,72) scale(4.12)"><path d="M3,5.5H0v-5h3c1.4,0,2.5,1.1,2.5,2.5v0C5.5,4.4,4.4,5.5,3,5.5z"/></g>
<g transform="translate(408,72) scale(4.12)"><path d="M6,5.5H3C1.6,5.5,0.5,4.4,0.5,3v0c0-1.4,1.1-2.5,2.5-2.5h3V5.5z"/></g>
<g transform="translate(432,72) scale(4.12)"><rect y="0.5" width="6" height="5"/></g>
<g transform="translate(456,72) scale(4.12)"><path d="M3,5.5H0v-5h3c1.4,0,2.5,1.1,2.5,2.5v0C5.5,4.4,4.4,5.5,3,5.5z"/></g>
<g transform="translate(264,96) scale(4.12)"><path d="M6,5.5H3C1.6,5.5,0.5,4.4,0.5,3v0c0-1.4,1.1-2.5,2.5-2.5h3V5.5z"/></g>
<g transform="translate(288,96) scale(4.12)"><rect y="0.5" width="6" height="5"/></g>
<g transform="translate(312,96) scale(4.12)"><path d="M3,5.5H0v-5h3c1.4,0,2.5,1.1,2.5,2.5v0C5.5,4.4,4.4,5.5,3,5.5z"/></g>
<g transform="translate(384,96) scale(4.12)"><path d="M6,5.5H3C1.6,5.5,0.5,4.4,0.5,3v0c0-1.4,1.1-2.5,2.5-2.5h3V5.5z"/></g>
<g transform="translate(408,96) scale(4.12)"><rect y="0.5" width="6" height="5"/></g>
<g transform="translate(432,96) scale(4.12)"><path d="M3,5.5H0v-5h3c1.4,0,2.5,1.1,2.5,2.5v0C5.5,4.4,4.4,5.5,3,5.5z"/></g>
<g transform="translate(480,96) scale(4.12)"><path d="M6,5.5H3C1.6,5.5,0.5,4.4,0.5,3v0c0-1.4,1.1-2.5,2.5-2.5h3V5.5z"/></g>
<g transform="translate(504,96) scale(4.12)"><path d="M3,5.5H0v-5h3c1.4,0,2.5,1.1,2.5,2.5v0C5.5,4.4,4.4,5.5,3,5.5z"/></g>
<g transform="translate(240,120) scale(4.12)"><path d="M6,5.5H3C1.6,5.5,0.5,4.4,0.5,3v0c0-1.4,1.1-2.5,2.5-2.5h3V5.5z"/></g>
<g transform="translate(264,120) scale(4.12)"><path d="M3,5.5H0v-5h3c1.4,0,2.5,1.1,2.5,2.5v0C5.5,4.4,4.4,5.5,3,5.5z"/></g>
<g transform="translate(312,120) scale(4.12)"><circle cx="3" cy="3" r="2.5"/></g>
<g transform="translate(360,120) scale(4.12)"><path d="M6,5.5H3C1.6,5.5,0.5,4.4,0.5,3v0c0-1.4,1.1-2.5,2.5-2.5h3V5.5z"/></g>
<g transform="translate(384,120) scale(4.12)"><rect y="0.5" width="6" height="5"/></g>
<g transform="translate(408,120) scale(4.12)"><rect y="0.5" width="6" height="5"/></g>
<g transform="translate(432,120) scale(4.12)"><rect y="0.5" width="6" height="5"/></g>
<g transform="translate(456,120) scale(4.12)"><path d="M3,5.5H0v-5h3c1.4,0,2.5,1.1,2.5,2.5v0C5.5,4.4,4.4,5.5,3,5.5z"/></g>
<g transform="translate(288,144) scale(4.12)"><circle cx="3" cy="3" r="2.5"/></g>
<g transform="translate(336,144) scale(4.12)"><circle cx="3" cy="3" r="2.5"/></g>
<g transform="translate(384,144) scale(4.12)"><circle cx="3" cy="3" r="2.5"/></g>
<g transform="translate(432,144) scale(4.12)"><path d="M6,5.5H3C1.6,5.5,0.5,4.4,0.5,3v0c0-1.4,1.1-2.5,2.5-2.5h3V5.5z"/></g>
<g transform="translate(456,144) scale(4.12)"><rect y="0.5" width="6" height="5"/></g>
<g transform="translate(480,144) scale(4.12)"><rect y="0.5" width="6" height="5"/></g>
<g transform="translate(504,144) scale(4.12)"><rect y="0.5" width="6" height="5"/></g>
<g transform="translate(528,144) scale(4.12)"><path d="M3,5.5H0v-5h3c1.4,0,2.5,1.1,2.5,2.5v0C5.5,4.4,4.4,5.5,3,5.5z"/></g>
<g transform="translate(240,168) scale(4.12)"><circle cx="3" cy="3" r="2.5"/></g>
<g transform="translate(288,168) scale(4.12)"><circle cx="3" cy="3" r="2.5"/></g>
<g transform="translate(384,168) scale(4.12)"><path d="M6,5.5H3C1.6,5.5,0.5,4.4,0.5,3v0c0-1.4,1.1-2.5,2.5-2.5h3V5.5z"/></g>
<g transform="translate(408,168) scale(4.12)"><path d="M3,5.5H0v-5h3c1.4,0,2.5,1.1,2.5,2.5v0C5.5,4.4,4.4,5.5,3,5.5z"/></g>
<g transform="translate(480,168) scale(4.12)"><circle cx="3" cy="3" r="2.5"/></g>
<g transform="translate(528,168) scale(4.12)"><circle cx="3" cy="3" r="2.5"/></g>
<g transform="translate(240,192) scale(4.12)"><circle cx="3" cy="3" r="2.5"/></g>
<g transform="translate(288,192) scale(4.12)"><circle cx="3" cy="3" r="2.5"/></g>
<g transform="translate(336,192) scale(4.12)"><circle cx="3" cy="3" r="2.5"/></g>
<g transform="translate(384,192) scale(4.12)"><circle cx="3" cy="3" r="2.5"/></g>
<g transform="translate(432,192) scale(4.12)"><circle cx="3" cy="3" r="2.5"/></g>
<g transform="translate(480,192) scale(4.12)"><circle cx="3" cy="3" r="2.5"/></g>
<g transform="translate(528,192) scale(4.12)"><circle cx="3" cy="3" r="2.5"/></g>
<g transform="translate(336,216) scale(4.12)"><circle cx="3" cy="3" r="2.5"/></g>
<g transform="translate(408,216) scale(4.12)"><path d="M6,5.5H3C1.6,5.5,0.5,4.4,0.5,3v0c0-1.4,1.1-2.5,2.5-2.5h3V5.5z"/></g>
<g transform="translate(432,216) scale(4.12)"><path d="M3,5.5H0v-5h3c1.4,0,2.5,1.1,2.5,2.5v0C5.5,4.4,4.4,5.5,3,5.5z"/></g>
<g transform="translate(528,216) scale(4.12)"><circle cx="3" cy="3" r="2.5"/></g>
<g transform="translate(48,240) scale(4.12)"><path d="M6,5.5H3C1.6,5.5,0.5,4.4,0.5,3v0c0-1.4,1.1-2.5,2.5-2.5h3V5.5z"/></g>
<g transform="translate(72,240) scale(4.12)"><rect y="0.5" width="6" height="5"/></g>
<g transform="translate(96,240) scale(4.12)"><rect y="0.5" width="6" height="5"/></g>
<g transform="translate(120,240) scale(4.12)"><rect y="0.5" width="6" height="5"/></g>
<g transform="translate(144,240) scale(4.12)"><path d="M3,5.5H0v-5h3c1.4,0,2.5,1.1,2.5,2.5v0C5.5,4.4,4.4,5.5,3,5.5z"/></g>
<g transform="translate(192,240) scale(4.12)"><path d="M6,5.5H3C1.6,5.5,0.5,4.4,0.5,3v0c0-1.4,1.1-2.5,2.5-2.5h3V5.5z"/></g>
<g transform="translate(216,240) scale(4.12)"><rect y="0.5" width="6" height="5"/></g>
<g transform="translate(240,240) scale(4.12)"><rect y="0.5" width="6" height="5"/></g>
<g transform="translate(264,240) scale(4.12)"><rect y="0.5" width="6" height="5"/></g>
<g transform="translate(288,240) scale(4.12)"><path d="M3,5.5H0v-5h3c1.4,0,2.5,1.1,2.5,2.5v0C5.5,4.4,4.4,5.5,3,5.5z"/></g>
<g transform="translate(336,240) scale(4.12)"><path d="M6,5.5H3C1.6,5.5,0.5,4.4,0.5,3v0c0-1.4,1.1-2.5,2.5-2.5h3V5.5z"/></g>
<g transform="translate(360,240) scale(4.12)"><rect y="0.5" width="6" height="5"/></g>
<g transform="translate(384,240) scale(4.12)"><path d="M3,5.5H0v-5h3c1.4,0,2.5,1.1,2.5,2.5v0C5.5,4.4,4.4,5.5,3,5.5z"/></g>
<g transform="translate(456,240) scale(4.12)"><circle cx="3" cy="3" r="2.5"/></g>
<g transform="translate(528,240) scale(4.12)"><path d="M6,5.5H3C1.6,5.5,0.5,4.4,0.5,3v0c0-1.4,1.1-2.5,2.5-2.5h3V5.5z"/></g>
<g transform="translate(552,240) scale(4.12)"><path d="M3,5.5H0v-5h3c1.4,0,2.5,1.1,2.5,2.5v0C5.5,4.4,4.4,5.5,3,5.5z"/></g>
<g transform="translate(600,240) scale(4.12)"><circle cx="3" cy="3" r="2.5"/></g>
<g transform="translate(648,240) scale(4.12)"><circle cx="3" cy="3" r="2.5"/></g>
<g transform="translate(696,240) scale(4.12)"><circle cx="3" cy="3" r="2.5"/></g>
<g transform="translate(120,264) scale(4.12)"><path d="M6,5.5H3C1.6,5.5,0.5,4.4,0.5,3v0c0-1.4,1.1-2.5,2.5-2.5h3V5.5z"/></g>
<g transform="translate(144,264) scale(4.12)"><path d="M3,5.5H0v-5h3c1.4,0,2.5,1.1,2.5,2.5v0C5.5,4.4,4.4,5.5,3,5.5z"/></g>
<g transform="translate(216,264) scale(4.12)"><path d="M6,5.5H3C1.6,5.5,0.5,4.4,0.5,3v0c0-1.4,1.1-2.5,2.5-2.5h3V5.5z"/></g>
<g transform="translate(240,264) scale(4.12)"><rect y="0.5" width="6" height="5"/></g>
<g transform="translate(264,264) scale(4.12)"><path d="M3,5.5H0v-5h3c1.4,0,2.5,1.1,2.5,2.5v0C5.5,4.4,4.4,5.5,3,5.5z"/></g>
<g transform="translate(432,264) scale(4.12)"><path d="M6,5.5H3C1.6,5.5,0.5,4.4,0.5,3v0c0-1.4,1.1-2.5,2.5-2.5h3V5.5z"/></g>
<g transform="translate(456,264) scale(4.12)"><rect y="0.5" width="6" height="5"/></g>
<g transform="translate(480,264) scale(4.12)"><rect y="0.5" width="6" height="5"/></g>
<g transform="translate(504,264) scale(4.12)"><rect y="0.5" width="6" height="5"/></g>
<g transform="translate(528,264) scale(4.12)"><rect y="0.5" width="6" height="5"/></g>
<g transform="translate(552,264) scale(4.12)"><rect y="0.5" width="6" height="5"/></g>
<g transform="translate(576,264) scale(4.12)"><rect y="0.5" width="6" height="5"/></g>
<g transform="translate(600,264) scale(4.12)"><rect y="0.5" width="6" height="5"/></g>
<g transform="translate(624,264) scale(4.12)"><path d="M3,5.5H0v-5h3c1.4,0,2.5,1.1,2.5,2.5v0C5.5,4.4,4.4,5.5,3,5.5z"/></g>
<g transform="translate(720,264) scale(4.12)"><circle cx="3" cy="3" r="2.5"/></g>
<g transform="translate(48,288) scale(4.12)"><circle cx="3" cy="3" r="2.5"/></g>
<g transform="translate(120,288) scale(4.12)"><path d="M6,5.5H3C1.6,5.5,0.5,4.4,0.5,3v0c0-1.4,1.1-2.5,2.5-2.5h3V5.5z"/></g>
<g transform="translate(144,288) scale(4.12)"><path d="M3,5.5H0v-5h3c1.4,0,2.5,1.1,2.5,2.5v0C5.5,4.4,4.4,5.5,3,5.5z"/></g>
<g transform="translate(192,288) scale(4.12)"><path d="M6,5.5H3C1.6,5.5,0.5,4.4,0.5,3v0c0-1.4,1.1-2.5,2.5-2.5h3V5.5z"/></g>
<g transform="translate(216,288) scale(4.12)"><rect y="0.5" width="6" height="5"/></g>
<g transform="translate(240,288) scale(4.12)"><rect y="0.5" width="6" height="5"/></g>
<g transform="translate(264,288) scale(4.12)"><path d="M3,5.5H0v-5h3c1.4,0,2.5,1.1,2.5,2.5v0C5.5,4.4,4.4,5.5,3,5.5z"/></g>
<g transform="translate(312,288) scale(4.12)"><path d="M6,5.5H3C1.6,5.5,0.5,4.4,0.5,3v0c0-1.4,1.1-2.5,2.5-2.5h3V5.5z"/></g>
<g transform="translate(336,288) scale(4.12)"><path d="M3,5.5H0v-5h3c1.4,0,2.5,1.1,2.5,2.5v0C5.5,4.4,4.4,5.5,3,5.5z"/></g>
<g transform="translate(384,288) scale(4.12)"><path d="M6,5.5H3C1.6,5.5,0.5,4.4,0.5,3v0c0-1.4,1.1-2.5,2.5-2.5h3V5.5z"/></g>
<g transform="translate(408,288) scale(4.12)"><rect y="0.5" width="6" height="5"/></g>
<g transform="translate(432,288) scale(4.12)"><rect y="0.5" width="6" height="5"/></g>
<g transform="translate(456,288) scale(4.12)"><path d="M3,5.5H0v-5h3c1.4,0,2.5,1.1,2.5,2.5v0C5.5,4.4,4.4,5.5,3,5.5z"/></g>
<g transform="translate(576,288) scale(4.12)"><path d="M6,5.5H3C1.6,5.5,0.5,4.4,0.5,3v0c0-1.4,1.1-2.5,2.5-2.5h3V5.5z"/></g>
<g transform="translate(600,288) scale(4.12)"><path d="M3,5.5H0v-5h3c1.4,0,2.5,1.1,2.5,2.5v0C5.5,4.4,4.4,5.5,3,5.5z"/></g>
<g transform="translate(96,312) scale(4.12)"><path d="M6,5.5H3C1.6,5.5,0.5,4.4,0.5,3v0c0-1.4,1.1-2.5,2.5-2.5h3V5.5z"/></g>
<g transform="translate(120,312) scale(4.12)"><rect y="0.5" width="6" height="5"/></g>
<g transform="translate(144,312) scale(4.12)"><rect y="0.5" width="6" height="5"/></g>
<g transform="translate(168,312) scale(4.12)"><path d="M3,5.5H0v-5h3c1.4,0,2.5,1.1,2.5,2.5v0C5.5,4.4,4.4,5.5,3,5.5z"/></g>
<g transform="translate(264,312) scale(4.12)"><path d="M6,5.5H3C1.6,5.5,0.5,4.4,0.5,3v0c0-1.4,1.1-2.5,2.5-2.5h3V5.5z"/></g>
<g transform="translate(288,312) scale(4.12)"><rect y="0.5" width="6" height="5"/></g>
<g transform="translate(312,312) scale(4.12)"><path d="M3,5.5H0v-5h3c1.4,0,2.5,1.1,2.5,2.5v0C5.5,4.4,4.4,5.5,3,5.5z"/></g>
<g transform="translate(384,312) scale(4.12)"><circle cx="3" cy="3" r="2.5"/></g>
<g transform="translate(576,312) scale(4.12)"><circle cx="3" cy="3" r="2.5"/></g>
<g transform="translate(624,312) scale(4.12)"><path d="M6,5.5H3C1.6,5.5,0.5,4.4,0.5,3v0c0-1.4,1.1-2.5,2.5-2.5h3V5.5z"/></g>
<g transform="translate(648,312) scale(4.12)"><path d="M3,5.5H0v-5h3c1.4,0,2.5,1.1,2.5,2.5v0C5.5,4.4,4.4,5.5,3,5.5z"/></g>
<g transform="translate(696,312) scale(4.12)"><circle cx="3" cy="3" r="2.5"/></g>
<g transform="translate(168,336) scale(4.12)"><path d="M6,5.5H3C1.6,5.5,0.5,4.4,0.5,3v0c0-1.4,1.1-2.5,2.5-2.5h3V5.5z"/></g>
<g transform="translate(192,336) scale(4.12)"><rect y="0.5" width="6" height="5"/></g>
<g transform="translate(216,336) scale(4.12)"><rect y="0.5" width="6" height="5"/></g>
<g transform="translate(240,336) scale(4.12)"><rect y="0.5" width="6" height="5"/></g>
<g transform="translate(264,336) scale(4.12)"><path d="M3,5.5H0v-5h3c1.4,0,2.5,1.1,2.5,2.5v0C5.5,4.4,4.4,5.5,3,5.5z"/></g>
<g transform="translate(312,336) scale(4.12)"><circle cx="3" cy="3" r="2.5"/></g>
<g transform="translate(360,336) scale(4.12)"><path d="M6,5.5H3C1.6,5.5,0.5,4.4,0.5,3v0c0-1.4,1.1-2.5,2.5-2.5h3V5.5z"/></g>
<g transform="translate(384,336) scale(4.12)"><rect y="0.5" width="6" height="5"/></g>
<g transform="translate(408,336) scale(4.12)"><path d="M3,5.5H0v-5h3c1.4,0,2.5,1.1,2.5,2.5v0C5.5,4.4,4.4,5.5,3,5.5z"/></g>
<g transform="translate(456,336) scale(4.12)"><path d="M6,5.5H3C1.6,5.5,0.5,4.4,0.5,3v0c0-1.4,1.1-2.5,2.5-2.5h3V5.5z"/></g>
<g transform="translate(480,336) scale(4.12)"><rect y="0.5" width="6" height="5"/></g>
<g transform="translate(504,336) scale(4.12)"><path d="M3,5.5H0v-5h3c1.4,0,2.5,1.1,2.5,2.5v0C5.5,4.4,4.4,5.5,3,5.5z"/></g>
<g transform="translate(648,336) scale(4.12)"><path d="M6,5.5H3C1.6,5.5,0.5,4.4,0.5,3v0c0-1.4,1.1-2.5,2.5-2.5h3V5.5z"/></g>
<g transform="translate(672,336) scale(4.12)"><path d="M3,5.5H0v-5h3c1.4,0,2.5,1.1,2.5,2.5v0C5.5,4.4,4.4,5.5,3,5.5z"/></g>
<g transform="translate(120,360) scale(4.12)"><circle cx="3" cy="3" r="2.5"/></g>
<g transform="translate(240,360) scale(4.12)"><path d="M6,5.5H3C1.6,5.5,0.5,4.4,0.5,3v0c0-1.4,1.1-2.5,2.5-2.5h3V5.5z"/></g>
<g transform="translate(264,360) scale(4.12)"><rect y="0.5" width="6" height="5"/></g>
<g transform="translate(288,360) scale(4.12)"><path d="M3,5.5H0v-5h3c1.4,0,2.5,1.1,2.5,2.5v0C5.5,4.4,4.4,5.5,3,5.5z"/></g>
<g transform="translate(336,360) scale(4.12)"><circle cx="3" cy="3" r="2.5"/></g>
<g transform="translate(384,360) scale(4.12)"><path d="M6,5.5H3C1.6,5.5,0.5,4.4,0.5,3v0c0-1.4,1.1-2.5,2.5-2.5h3V5.5z"/></g>
<g transform="translate(408,360) scale(4.12)"><rect y="0.5" width="6" height="5"/></g>
<g transform="translate(432,360) scale(4.12)"><rect y="0.5" width="6" height="5"/></g>
<g transform="translate(456,360) scale(4.12)"><rect y="0.5" width="6" height="5"/></g>
<g transform="translate(480,360) scale(4.12)"><rect y="0.5" width="6" height="5"/></g>
<g transform="translate(504,360) scale(4.12)"><rect y="0.5" width="6" height="5"/></g>
<g transform="translate(528,360) scale(4.12)"><path d="M3,5.5H0v-5h3c1.4,0,2.5,1.1,2.5,2.5v0C5.5,4.4,4.4,5.5,3,5.5z"/></g>
<g transform="translate(576,360) scale(4.12)"><path d="M6,5.5H3C1.6,5.5,0.5,4.4,0.5,3v0c0-1.4,1.1-2.5,2.5-2.5h3V5.5z"/></g>
<g transform="translate(600,360) scale(4.12)"><rect y="0.5" width="6" height="5"/></g>
<g transform="translate(624,360) scale(4.12)"><path d="M3,5.5H0v-5h3c1.4,0,2.5,1.1,2.5,2.5v0C5.5,4.4,4.4,5.5,3,5.5z"/></g>
<g transform="translate(720,360) scale(4.12)"><circle cx="3" cy="3" r="2.5"/></g>
<g transform="translate(48,384) scale(4.12)"><circle cx="3" cy="3" r="2.5"/></g>
<g transform="translate(120,384) scale(4.12)"><path d="M6,5.5H3C1.6,5.5,0.5,4.4,0.5,3v0c0-1.4,1.1-2.5,2.5-2.5h3V5.5z"/></g>
<g transform="translate(144,384) scale(4.12)"><rect y="0.5" width="6" height="5"/></g>
<g transform="translate(168,384) scale(4.12)"><rect y="0.5" width="6" height="5"/></g>
<g transform="translate(192,384) scale(4.12)"><path d="M3,5.5H0v-5h3c1.4,0,2.5,1.1,2.5,2.5v0C5.5,4.4,4.4,5.5,3,5.5z"/></g>
<g transform="translate(264,384) scale(4.12)"><circle cx="3" cy="3" r="2.5"/></g>
<g transform="translate(360,384) scale(4.12)"><circle cx="3" cy="3" r="2.5"/></g>
<g transform="translate(408,384) scale(4.12)"><circle cx="3" cy="3" r="2.5"/></g>
<g transform="translate(456,384) scale(4.12)"><circle cx="3" cy="3" r="2.5"/></g>
<g transform="translate(552,384) scale(4.12)"><circle cx="3" cy="3" r="2.5"/></g>
<g transform="translate(600,384) scale(4.12)"><path d="M6,5.5H3C1.6,5.5,0.5,4.4,0.5,3v0c0-1.4,1.1-2.5,2.5-2.5h3V5.5z"/></g>
<g transform="translate(624,384) scale(4.12)"><rect y="0.5" width="6" height="5"/></g>
<g transform="translate(648,384) scale(4.12)"><rect y="0.5" width="6" height="5"/></g>
<g transform="translate(672,384) scale(4.12)"><path d="M3,5.5H0v-5h3c1.4,0,2.5,1.1,2.5,2.5v0C5.5,4.4,4.4,5.5,3,5.5z"/></g>
<g transform="translate(48,408) scale(4.12)"><circle cx="3" cy="3" r="2.5"/></g>
<g transform="translate(96,408) scale(4.12)"><path d="M6,5.5H3C1.6,5.5,0.5,4.4,0.5,3v0c0-1.4,1.1-2.5,2.5-2.5h3V5.5z"/></g>
<g transform="translate(120,408) scale(4.12)"><rect y="0.5" width="6" height="5"/></g>
<g transform="translate(144,408) scale(4.12)"><path d="M3,5.5H0v-5h3c1.4,0,2.5,1.1,2.5,2.5v0C5.5,4.4,4.4,5.5,3,5.5z"/></g>
<g transform="translate(264,408) scale(4.12)"><path d="M6,5.5H3C1.6,5.5,0.5,4.4,0.5,3v0c0-1.4,1.1-2.5,2.5-2.5h3V5.5z"/></g>
<g transform="translate(288,408) scale(4.12)"><path d="M3,5.5H0v-5h3c1.4,0,2.5,1.1,2.5,2.5v0C5.5,4.4,4.4,5.5,3,5.5z"/></g>
<g transform="translate(336,408) scale(4.12)"><circle cx="3" cy="3" r="2.5"/></g>
<g transform="translate(408,408) scale(4.12)"><path d="M6,5.5H3C1.6,5.5,0.5,4.4,0.5,3v0c0-1.4,1.1-2.5,2.5-2.5h3V5.5z"/></g>
<g transform="translate(432,408) scale(4.12)"><path d="M3,5.5H0v-5h3c1.4,0,2.5,1.1,2.5,2.5v0C5.5,4.4,4.4,5.5,3,5.5z"/></g>
<g transform="translate(528,408) scale(4.12)"><path d="M6,5.5H3C1.6,5.5,0.5,4.4,0.5,3v0c0-1.4,1.1-2.5,2.5-2.5h3V5.5z"/></g>
<g transform="translate(552,408) scale(4.12)"><rect y="0.5" width="6" height="5"/></g>
<g transform="translate(576,408) scale(4.12)"><path d="M3,5.5H0v-5h3c1.4,0,2.5,1.1,2.5,2.5v0C5.5,4.4,4.4,5.5,3,5.5z"/></g>
<g transform="translate(696,408) scale(4.12)"><circle cx="3" cy="3" r="2.5"/></g>
<g transform="translate(96,432) scale(4.12)"><circle cx="3" cy="3" r="2.5"/></g>
<g transform="translate(192,432) scale(4.12)"><circle cx="3" cy="3" r="2.5"/></g>
<g transform="translate(288,432) scale(4.12)"><circle cx="3" cy="3" r="2.5"/></g>
<g transform="translate(336,432) scale(4.12)"><path d="M6,5.5H3C1.6,5.5,0.5,4.4,0.5,3v0c0-1.4,1.1-2.5,2.5-2.5h3V5.5z"/></g>
<g transform="translate(360,432) scale(4.12)"><rect y="0.5" width="6" height="5"/></g>
<g transform="translate(384,432) scale(4.12)"><path d="M3,5.5H0v-5h3c1.4,0,2.5,1.1,2.5,2.5v0C5.5,4.4,4.4,5.5,3,5.5z"/></g>
<g transform="translate(528,432) scale(4.12)"><circle cx="3" cy="3" r="2.5"/></g>
<g transform="translate(648,432) scale(4.12)"><path d="M6,5.5H3C1.6,5.5,0.5,4.4,0.5,3v0c0-1.4,1.1-2.5,2.5-2.5h3V5.5z"/></g>
<g transform="translate(672,432) scale(4.12)"><path d="M3,5.5H0v-5h3c1.4,0,2.5,1.1,2.5,2.5v0C5.5,4.4,4.4,5.5,3,5.5z"/></g>
<g transform="translate(48,456) scale(4.12)"><path d="M6,5.5H3C1.6,5.5,0.5,4.4,0.5,3v0c0-1.4,1.1-2.5,2.5-2.5h3V5.5z"/></g>
<g transform="translate(72,456) scale(4.12)"><path d="M3,5.5H0v-5h3c1.4,0,2.5,1.1,2.5,2.5v0C5.5,4.4,4.4,5.5,3,5.5z"/></g>
<g transform="translate(168,456) scale(4.12)"><circle cx="3" cy="3" r="2.5"/></g>
<g transform="translate(216,456) scale(4.12)"><path d="M6,5.5H3C1.6,5.5,0.5,4.4,0.5,3v0c0-1.4,1.1-2.5,2.5-2.5h3V5.5z"/></g>
<g transform="translate(240,456) scale(4.12)"><path d="M3,5.5H0v-5h3c1.4,0,2.5,1.1,2.5,2.5v0C5.5,4.4,4.4,5.5,3,5.5z"/></g>
<g transform="translate(360,456) scale(4.12)"><circle cx="3" cy="3" r="2.5"/></g>
<g transform="translate(432,456) scale(4.12)"><path d="M6,5.5H3C1.6,5.5,0.5,4.4,0.5,3v0c0-1.4,1.1-2.5,2.5-2.5h3V5.5z"/></g>
<g transform="translate(456,456) scale(4.12)"><rect y="0.5" width="6" height="5"/></g>
<g transform="translate(480,456) scale(4.12)"><rect y="0.5" width="6" height="5"/></g>
<g transform="translate(504,456) scale(4.12)"><rect y="0.5" width="6" height="5"/></g>
<g transform="translate(528,456) scale(4.12)"><path d="M3,5.5H0v-5h3c1.4,0,2.5,1.1,2.5,2.5v0C5.5,4.4,4.4,5.5,3,5.5z"/></g>
<g transform="translate(576,456) scale(4.12)"><path d="M6,5.5H3C1.6,5.5,0.5,4.4,0.5,3v0c0-1.4,1.1-2.5,2.5-2.5h3V5.5z"/></g>
<g transform="translate(600,456) scale(4.12)"><rect y="0.5" width="6" height="5"/></g>
<g transform="translate(624,456) scale(4.12)"><path d="M3,5.5H0v-5h3c1.4,0,2.5,1.1,2.5,2.5v0C5.5,4.4,4.4,5.5,3,5.5z"/></g>
<g transform="translate(672,456) scale(4.12)"><circle cx="3" cy="3" r="2.5"/></g>
<g transform="translate(720,456) scale(4.12)"><circle cx="3" cy="3" r="2.5"/></g>
<g transform="translate(48,480) scale(4.12)"><circle cx="3" cy="3" r="2.5"/></g>
<g transform="translate(96,480) scale(4.12)"><circle cx="3" cy="3" r="2.5"/></g>
<g transform="translate(168,480) scale(4.12)"><path d="M6,5.5H3C1.6,5.5,0.5,4.4,0.5,3v0c0-1.4,1.1-2.5,2.5-2.5h3V5.5z"/></g>
<g transform="translate(192,480) scale(4.12)"><rect y="0.5" width="6" height="5"/></g>
<g transform="translate(216,480) scale(4.12)"><rect y="0.5" width="6" height="5"/></g>
<g transform="translate(240,480) scale(4.12)"><path d="M3,5.5H0v-5h3c1.4,0,2.5,1.1,2.5,2.5v0C5.5,4.4,4.4,5.5,3,5.5z"/></g>
<g transform="translate(312,480) scale(4.12)"><path d="M6,5.5H3C1.6,5.5,0.5,4.4,0.5,3v0c0-1.4,1.1-2.5,2.5-2.5h3V5.5z"/></g>
<g transform="translate(336,480) scale(4.12)"><path d="M3,5.5H0v-5h3c1.4,0,2.5,1.1,2.5,2.5v0C5.5,4.4,4.4,5.5,3,5.5z"/></g>
<g transform="translate(408,480) scale(4.12)"><path d="M6,5.5H3C1.6,5.5,0.5,4.4,0.5,3v0c0-1.4,1.1-2.5,2.5-2.5h3V5.5z"/></g>
<g transform="translate(432,480) scale(4.12)"><rect y="0.5" width="6" height="5"/></g>
<g transform="translate(456,480) scale(4.12)"><path d="M3,5.5H0v-5h3c1.4,0,2.5,1.1,2.5,2.5v0C5.5,4.4,4.4,5.5,3,5.5z"/></g>
<g transform="translate(528,480) scale(4.12)"><circle cx="3" cy="3" r="2.5"/></g>
<g transform="translate(600,480) scale(4.12)"><circle cx="3" cy="3" r="2.5"/></g>
<g transform="translate(672,480) scale(4.12)"><circle cx="3" cy="3" r="2.5"/></g>
<g transform="translate(48,504) scale(4.12)"><circle cx="3" cy="3" r="2.5"/></g>
<g transform="translate(120,504) scale(4.12)"><path d="M6,5.5H3C1.6,5.5,0.5,4.4,0.5,3v0c0-1.4,1.1-2.5,2.5-2.5h3V5.5z"/></g>
<g transform="translate(144,504) scale(4.12)"><path d="M3,5.5H0v-5h3c1.4,0,2.5,1.1,2.5,2.5v0C5.5,4.4,4.4,5.5,3,5.5z"/></g>
<g transform="translate(240,504) scale(4.12)"><path d="M6,5.5H3C1.6,5.5,0.5,4.4,0.5,3v0c0-1.4,1.1-2.5,2.5-2.5h3V5.5z"/></g>
<g transform="translate(264,504) scale(4.12)"><rect y="0.5" width="6" height="5"/></g>
<g transform="translate(288,504) scale(4.12)"><rect y="0.5" width="6" height="5"/></g>
<g transform="translate(312,504) scale(4.12)"><path d="M3,5.5H0v-5h3c1.4,0,2.5,1.1,2.5,2.5v0C5.5,4.4,4.4,5.5,3,5.5z"/></g>
<g transform="translate(384,504) scale(4.12)"><path d="M6,5.5H3C1.6,5.5,0.5,4.4,0.5,3v0c0-1.4,1.1-2.5,2.5-2.5h3V5.5z"/></g>
<g transform="translate(408,504) scale(4.12)"><path d="M3,5.5H0v-5h3c1.4,0,2.5,1.1,2.5,2.5v0C5.5,4.4,4.4,5.5,3,5.5z"/></g>
<g transform="translate(552,504) scale(4.12)"><circle cx="3" cy="3" r="2.5"/></g>
<g transform="translate(600,504) scale(4.12)"><circle cx="3" cy="3" r="2.5"/></g>
<g transform="translate(696,504) scale(4.12)"><circle cx="3" cy="3" r="2.5"/></g>
<g transform="translate(48,528) scale(4.12)"><circle cx="3" cy="3" r="2.5"/></g>
<g transform="translate(168,528) scale(4.12)"><path d="M6,5.5H3C1.6,5.5,0.5,4.4,0.5,3v0c0-1.4,1.1-2.5,2.5-2.5h3V5.5z"/></g>
<g transform="translate(192,528) scale(4.12)"><rect y="0.5" width="6" height="5"/></g>
<g transform="translate(216,528) scale(4.12)"><rect y="0.5" width="6" height="5"/></g>
<g transform="translate(240,528) scale(4.12)"><path d="M3,5.5H0v-5h3c1.4,0,2.5,1.1,2.5,2.5v0C5.5,4.4,4.4,5.5,3,5.5z"/></g>
<g transform="translate(312,528) scale(4.12)"><circle cx="3" cy="3" r="2.5"/></g>
<g transform="translate(360,528) scale(4.12)"><path d="M6,5.5H3C1.6,5.5,0.5,4.4,0.5,3v0c0-1.4,1.1-2.5,2.5-2.5h3V5.5z"/></g>
<g transform="translate(384,528) scale(4.12)"><rect y="0.5" width="6" height="5"/></g>
<g transform="translate(408,528) scale(4.12)"><path d="M3,5.5H0v-5h3c1.4,0,2.5,1.1,2.5,2.5v0C5.5,4.4,4.4,5.5,3,5.5z"/></g>
<g transform="translate(456,528) scale(4.12)"><circle cx="3" cy="3" r="2.5"/></g>
<g transform="translate(504,528) scale(4.12)"><path d="M6,5.5H3C1.6,5.5,0.5,4.4,0.5,3v0c0-1.4,1.1-2.5,2.5-2.5h3V5.5z"/></g>
<g transform="translate(528,528) scale(4.12)"><rect y="0.5" width="6" height="5"/></g>
<g transform="translate(552,528) scale(4.12)"><rect y="0.5" width="6" height="5"/></g>
<g transform="translate(576,528) scale(4.12)"><rect y="0.5" width="6" height="5"/></g>
<g transform="translate(600,528) scale(4.12)"><rect y="0.5" width="6" height="5"/></g>
<g transform="translate(624,528) scale(4.12)"><path d="M3,5.5H0v-5h3c1.4,0,2.5,1.1,2.5,2.5v0C5.5,4.4,4.4,5.5,3,5.5z"/></g>
<g transform="translate(672,528) scale(4.12)"><path d="M6,5.5H3C1.6,5.5,0.5,4.4,0.5,3v0c0-1.4,1.1-2.5,2.5-2.5h3V5.5z"/></g>
<g transform="translate(696,528) scale(4.12)"><rect y="0.5" width="6" height="5"/></g>
<g transform="translate(720,528) scale(4.12)"><path d="M3,5.5H0v-5h3c1.4,0,2.5,1.1,2.5,2.5v0C5.5,4.4,4.4,5.5,3,5.5z"/></g>
<g transform="translate(240,552) scale(4.12)"><circle cx="3" cy="3" r="2.5"/></g>
<g transform="translate(288,552) scale(4.12)"><circle cx="3" cy="3" r="2.5"/></g>
<g transform="translate(336,552) scale(4.12)"><path d="M6,5.5H3C1.6,5.5,0.5,4.4,0.5,3v0c0-1.4,1.1-2.5,2.5-2.5h3V5.5z"/></g>
<g transform="translate(360,552) scale(4.12)"><path d="M3,5.5H0v-5h3c1.4,0,2.5,1.1,2.5,2.5v0C5.5,4.4,4.4,5.5,3,5.5z"/></g>
<g transform="translate(432,552) scale(4.12)"><circle cx="3" cy="3" r="2.5"/></g>
<g transform="translate(528,552) scale(4.12)"><circle cx="3" cy="3" r="2.5"/></g>
<g transform="translate(624,552) scale(4.12)"><path d="M6,5.5H3C1.6,5.5,0.5,4.4,0.5,3v0c0-1.4,1.1-2.5,2.5-2.5h3V5.5z"/></g>
<g transform="translate(648,552) scale(4.12)"><rect y="0.5" width="6" height="5"/></g>
<g transform="translate(672,552) scale(4.12)"><rect y="0.5" width="6" height="5"/></g>
<g transform="translate(696,552) scale(4.12)"><rect y="0.5" width="6" height="5"/></g>
<g transform="translate(720,552) scale(4.12)"><path d="M3,5.5H0v-5h3c1.4,0,2.5,1.1,2.5,2.5v0C5.5,4.4,4.4,5.5,3,5.5z"/></g>
<g transform="translate(240,576) scale(4.12)"><path d="M6,5.5H3C1.6,5.5,0.5,4.4,0.5,3v0c0-1.4,1.1-2.5,2.5-2.5h3V5.5z"/></g>
<g transform="translate(264,576) scale(4.12)"><path d="M3,5.5H0v-5h3c1.4,0,2.5,1.1,2.5,2.5v0C5.5,4.4,4.4,5.5,3,5.5z"/></g>
<g transform="translate(360,576) scale(4.12)"><path d="M6,5.5H3C1.6,5.5,0.5,4.4,0.5,3v0c0-1.4,1.1-2.5,2.5-2.5h3V5.5z"/></g>
<g transform="translate(384,576) scale(4.12)"><rect y="0.5" width="6" height="5"/></g>
<g transform="translate(408,576) scale(4.12)"><path d="M3,5.5H0v-5h3c1.4,0,2.5,1.1,2.5,2.5v0C5.5,4.4,4.4,5.5,3,5.5z"/></g>
<g transform="translate(456,576) scale(4.12)"><path d="M6,5.5H3C1.6,5.5,0.5,4.4,0.5,3v0c0-1.4,1.1-2.5,2.5-2.5h3V5.5z"/></g>
<g transform="translate(480,576) scale(4.12)"><rect y="0.5" width="6" height="5"/></g>
<g transform="translate(504,576) scale(4.12)"><rect y="0.5" width="6" height="5"/></g>
<g transform="translate(528,576) scale(4.12)"><path d="M3,5.5H0v-5h3c1.4,0,2.5,1.1,2.5,2.5v0C5.5,4.4,4.4,5.5,3,5.5z"/></g>
<g transform="translate(576,576) scale(4.12)"><circle cx="3" cy="3" r="2.5"/></g>
<g transform="translate(624,576) scale(4.12)"><path d="M6,5.5H3C1.6,5.5,0.5,4.4,0.5,3v0c0-1.4,1.1-2.5,2.5-2.5h3V5.5z"/></g>
<g transform="translate(648,576) scale(4.12)"><rect y="0.5" width="6" height="5"/></g>
<g transform="translate(672,576) scale(4.12)"><path d="M3,5.5H0v-5h3c1.4,0,2.5,1.1,2.5,2.5v0C5.5,4.4,4.4,5.5,3,5.5z"/></g>
<g transform="translate(264,600) scale(4.12)"><circle cx="3" cy="3" r="2.5"/></g>
<g transform="translate(336,600) scale(4.12)"><circle cx="3" cy="3" r="2.5"/></g>
<g transform="translate(408,600) scale(4.12)"><path d="M6,5.5H3C1.6,5.5,0.5,4.4,0.5,3v0c0-1.4,1.1-2.5,2.5-2.5h3V5.5z"/></g>
<g transform="translate(432,600) scale(4.12)"><path d="M3,5.5H0v-5h3c1.4,0,2.5,1.1,2.5,2.5v0C5.5,4.4,4.4,5.5,3,5.5z"/></g>
<g transform="translate(480,600) scale(4.12)"><path d="M6,5.5H3C1.6,5.5,0.5,4.4,0.5,3v0c0-1.4,1.1-2.5,2.5-2.5h3V5.5z"/></g>
<g transform="translate(504,600) scale(4.12)"><rect y="0.5" width="6" height="5"/></g>
<g transform="translate(528,600) scale(4.12)"><path d="M3,5.5H0v-5h3c1.4,0,2.5,1.1,2.5,2.5v0C5.5,4.4,4.4,5.5,3,5.5z"/></g>
<g transform="translate(624,600) scale(4.12)"><circle cx="3" cy="3" r="2.5"/></g>
<g transform="translate(720,600) scale(4.12)"><circle cx="3" cy="3" r="2.5"/></g>
<g transform="translate(240,624) scale(4.12)"><circle cx="3" cy="3" r="2.5"/></g>
<g transform="translate(288,624) scale(4.12)"><circle cx="3" cy="3" r="2.5"/></g>
<g transform="translate(336,624) scale(4.12)"><path d="M6,5.5H3C1.6,5.5,0.5,4.4,0.5,3v0c0-1.4,1.1-2.5,2.5-2.5h3V5.5z"/></g>
<g transform="translate(360,624) scale(4.12)"><rect y="0.5" width="6" height="5"/></g>
<g transform="translate(384,624) scale(4.12)"><rect y="0.5" width="6" height="5"/></g>
<g transform="translate(408,624) scale(4.12)"><rect y="0.5" width="6" height="5"/></g>
<g transform="translate(432,624) scale(4.12)"><rect y="0.5" width="6" height="5"/></g>
<g transform="translate(456,624) scale(4.12)"><path d="M3,5.5H0v-5h3c1.4,0,2.5,1.1,2.5,2.5v0C5.5,4.4,4.4,5.5,3,5.5z"/></g>
<g transform="translate(528,624) scale(4.12)"><path d="M6,5.5H3C1.6,5.5,0.5,4.4,0.5,3v0c0-1.4,1.1-2.5,2.5-2.5h3V5.5z"/></g>
<g transform="translate(552,624) scale(4.12)"><rect y="0.5" width="6" height="5"/></g>
<g transform="translate(576,624) scale(4.12)"><rect y="0.5" width="6" height="5"/></g>
<g transform="translate(600,624) scale(4.12)"><rect y="0.5" width="6" height="5"/></g>
<g transform="translate(624,624) scale(4.12)"><path d="M3,5.5H0v-5h3c1.4,0,2.5,1.1,2.5,2.5v0C5.5,4.4,4.4,5.5,3,5.5z"/></g>
<g transform="translate(672,624) scale(4.12)"><path d="M6,5.5H3C1.6,5.5,0.5,4.4,0.5,3v0c0-1.4,1.1-2.5,2.5-2.5h3V5.5z"/></g>
<g transform="translate(696,624) scale(4.12)"><rect y="0.5" width="6" height="5"/></g>
<g transform="translate(720,624) scale(4.12)"><path d="M3,5.5H0v-5h3c1.4,0,2.5,1.1,2.5,2.5v0C5.5,4.4,4.4,5.5,3,5.5z"/></g>
<g transform="translate(240,648) scale(4.12)"><path d="M6,5.5H3C1.6,5.5,0.5,4.4,0.5,3v0c0-1.4,1.1-2.5,2.5-2.5h3V5.5z"/></g>
<g transform="translate(264,648) scale(4.12)"><rect y="0.5" width="6" height="5"/></g>
<g transform="translate(288,648) scale(4.12)"><path d="M3,5.5H0v-5h3c1.4,0,2.5,1.1,2.5,2.5v0C5.5,4.4,4.4,5.5,3,5.5z"/></g>
<g transform="translate(432,648) scale(4.12)"><circle cx="3" cy="3" r="2.5"/></g>
<g transform="translate(480,648) scale(4.12)"><path d="M6,5.5H3C1.6,5.5,0.5,4.4,0.5,3v0c0-1.4,1.1-2.5,2.5-2.5h3V5.5z"/></g>
<g transform="translate(504,648) scale(4.12)"><rect y="0.5" width="6" height="5"/></g>
<g transform="translate(528,648) scale(4.12)"><rect y="0.5" width="6" height="5"/></g>
<g transform="translate(552,648) scale(4.12)"><path d="M3,5.5H0v-5h3c1.4,0,2.5,1.1,2.5,2.5v0C5.5,4.4,4.4,5.5,3,5.5z"/></g>
<g transform="translate(648,648) scale(4.12)"><path d="M6,5.5H3C1.6,5.5,0.5,4.4,0.5,3v0c0-1.4,1.1-2.5,2.5-2.5h3V5.5z"/></g>
<g transform="translate(672,648) scale(4.12)"><rect y="0.5" width="6" height="5"/></g>
<g transform="translate(696,648) scale(4.12)"><rect y="0.5" width="6" height="5"/></g>
<g transform="translate(720,648) scale(4.12)"><path d="M3,5.5H0v-5h3c1.4,0,2.5,1.1,2.5,2.5v0C5.5,4.4,4.4,5.5,3,5.5z"/></g>
<g transform="translate(240,672) scale(4.12)"><path d="M6,5.5H3C1.6,5.5,0.5,4.4,0.5,3v0c0-1.4,1.1-2.5,2.5-2.5h3V5.5z"/></g>
<g transform="translate(264,672) scale(4.12)"><path d="M3,5.5H0v-5h3c1.4,0,2.5,1.1,2.5,2.5v0C5.5,4.4,4.4,5.5,3,5.5z"/></g>
<g transform="translate(312,672) scale(4.12)"><path d="M6,5.5H3C1.6,5.5,0.5,4.4,0.5,3v0c0-1.4,1.1-2.5,2.5-2.5h3V5.5z"/></g>
<g transform="translate(336,672) scale(4.12)"><rect y="0.5" width="6" height="5"/></g>
<g transform="translate(360,672) scale(4.12)"><rect y="0.5" width="6" height="5"/></g>
<g transform="translate(384,672) scale(4.12)"><rect y="0.5" width="6" height="5"/></g>
<g transform="translate(408,672) scale(4.12)"><rect y="0.5" width="6" height="5"/></g>
<g transform="translate(432,672) scale(4.12)"><rect y="0.5" width="6" height="5"/></g>
<g transform="translate(456,672) scale(4.12)"><rect y="0.5" width="6" height="5"/></g>
<g transform="translate(480,672) scale(4.12)"><rect y="0.5" width="6" height="5"/></g>
<g transform="translate(504,672) scale(4.12)"><path d="M3,5.5H0v-5h3c1.4,0,2.5,1.1,2.5,2.5v0C5.5,4.4,4.4,5.5,3,5.5z"/></g>
<g transform="translate(552,672) scale(4.12)"><path d="M6,5.5H3C1.6,5.5,0.5,4.4,0.5,3v0c0-1.4,1.1-2.5,2.5-2.5h3V5.5z"/></g>
<g transform="translate(576,672) scale(4.12)"><rect y="0.5" width="6" height="5"/></g>
<g transform="translate(600,672) scale(4.12)"><rect y="0.5" width="6" height="5"/></g>
<g transform="translate(624,672) scale(4.12)"><rect y="0.5" width="6" height="5"/></g>
<g transform="translate(648,672) scale(4.12)"><rect y="0.5" width="6" height="5"/></g>
<g transform="translate(672,672) scale(4.12)"><rect y="0.5" width="6" height="5"/></g>
<g transform="translate(696,672) scale(4.12)"><path d="M3,5.5H0v-5h3c1.4,0,2.5,1.1,2.5,2.5v0C5.5,4.4,4.4,5.5,3,5.5z"/></g>
<g transform="translate(240,696) scale(4.12)"><path d="M6,5.5H3C1.6,5.5,0.5,4.4,0.5,3v0c0-1.4,1.1-2.5,2.5-2.5h3V5.5z"/></g>
<g transform="translate(264,696) scale(4.12)"><path d="M3,5.5H0v-5h3c1.4,0,2.5,1.1,2.5,2.5v0C5.5,4.4,4.4,5.5,3,5.5z"/></g>
<g transform="translate(312,696) scale(4.12)"><circle cx="3" cy="3" r="2.5"/></g>
<g transform="translate(384,696) scale(4.12)"><path d="M6,5.5H3C1.6,5.5,0.5,4.4,0.5,3v0c0-1.4,1.1-2.5,2.5-2.5h3V5.5z"/></g>
<g transform="translate(408,696) scale(4.12)"><path d="M3,5.5H0v-5h3c1.4,0,2.5,1.1,2.5,2.5v0C5.5,4.4,4.4,5.5,3,5.5z"/></g>
<g transform="translate(480,696) scale(4.12)"><circle cx="3" cy="3" r="2.5"/></g>
<g transform="translate(528,696) scale(4.12)"><circle cx="3" cy="3" r="2.5"/></g>
<g transform="translate(576,696) scale(4.12)"><circle cx="3" cy="3" r="2.5"/></g>
<g transform="translate(648,696) scale(4.12)"><circle cx="3" cy="3" r="2.5"/></g>
<g transform="translate(696,696) scale(4.12)"><circle cx="3" cy="3" r="2.5"/></g>
<g transform="translate(240,720) scale(4.12)"><circle cx="3" cy="3" r="2.5"/></g>
<g transform="translate(312,720) scale(4.12)"><path d="M6,5.5H3C1.6,5.5,0.5,4.4,0.5,3v0c0-1.4,1.1-2.5,2.5-2.5h3V5.5z"/></g>
<g transform="translate(336,720) scale(4.12)"><path d="M3,5.5H0v-5h3c1.4,0,2.5,1.1,2.5,2.5v0C5.5,4.4,4.4,5.5,3,5.5z"/></g>
<g transform="translate(456,720) scale(4.12)"><circle cx="3" cy="3" r="2.5"/></g>
<g transform="translate(504,720) scale(4.12)"><circle cx="3" cy="3" r="2.5"/></g>
<g transform="translate(552,720) scale(4.12)"><path d="M6,5.5H3C1.6,5.5,0.5,4.4,0.5,3v0c0-1.4,1.1-2.5,2.5-2.5h3V5.5z"/></g>
<g transform="translate(576,720) scale(4.12)"><path d="M3,5.5H0v-5h3c1.4,0,2.5,1.1,2.5,2.5v0C5.5,4.4,4.4,5.5,3,5.5z"/></g>
<g transform="translate(624,720) scale(4.12)"><path d="M6,5.5H3C1.6,5.5,0.5,4.4,0.5,3v0c0-1.4,1.1-2.5,2.5-2.5h3V5.5z"/></g>
<g transform="translate(648,720) scale(4.12)"><rect y="0.5" width="6" height="5"/></g>
<g transform="translate(672,720) scale(4.12)"><path d="M3,5.5H0v-5h3c1.4,0,2.5,1.1,2.5,2.5v0C5.5,4.4,4.4,5.5,3,5.5z"/></g>
<g transform="translate(48,48)"><g transform="scale(12)"><path d="M4.5,14h5.1C12,14,14,12,14,9.6V4.5C14,2,12,0,9.5,0H4.4C2,0,0,2,0,4.4v5.1C0,12,2,14,4.5,14z M12,4.8v4.4 c0,1.5-1.3,2.8-2.8,2.8H4.8C3.2,12,2,10.8,2,9.2V4.8C2,3.3,3.3,2,4.8,2h4.4C10.8,2,12,3.2,12,4.8z"/></g></g>
<g transform="translate(576,48)"><g transform="scale(12)"><path d="M4.5,14h5.1C12,14,14,12,14,9.6V4.5C14,2,12,0,9.5,0H4.4C2,0,0,2,0,4.4v5.1C0,12,2,14,4.5,14z M12,4.8v4.4 c0,1.5-1.3,2.8-2.8,2.8H4.8C3.2,12,2,10.8,2,9.2V4.8C2,3.3,3.3,2,4.8,2h4.4C10.8,2,12,3.2,12,4.8z"/></g></g>
<g transform="translate(48,576)"><g transform="scale(12)"><path d="M4.5,14h5.1C12,14,14,12,14,9.6V4.5C14,2,12,0,9.5,0H4.4C2,0,0,2,0,4.4v5.1C0,12,2,14,4.5,14z M12,4.8v4.4 c0,1.5-1.3,2.8-2.8,2.8H4.8C3.2,12,2,10.8,2,9.2V4.8C2,3.3,3.3,2,4.8,2h4.4C10.8,2,12,3.2,12,4.8z"/></g></g>
<g transform="translate(96,96)"><g transform="scale(12)"><path d="M6,1.8C5.9,1,5.3,0.4,4.5,0.3C3.9,0.2,3.4,0.5,3,0.9C2.6,0.5,2.1,0.3,1.6,0.3C0.8,0.4,0.1,1,0,1.8 C0,2.3,0.1,2.7,0.3,3l0,0l0,0c0.1,0.1,0.2,0.2,0.3,0.3l1.9,2.2c0.3,0.3,0.7,0.3,0.9,0l1.8-1.9c0.1-0.1,0.3-0.3,0.4-0.5 C5.9,2.8,6.1,2.3,6,1.8z"/></g></g>
<g transform="translate(624,96)"><g transform="scale(12)"><path d="M6,1.8C5.9,1,5.3,0.4,4.5,0.3C3.9,0.2,3.4,0.5,3,0.9C2.6,0.5,2.1,0.3,1.6,0.3C0.8,0.4,0.1,1,0,1.8 C0,2.3,0.1,2.7,0.3,3l0,0l0,0c0.1,0.1,0.2,0.2,0.3,0.3l1.9,2.2c0.3,0.3,0.7,0.3,0.9,0l1.8-1.9c0.1-0.1,0.3-0.3,0.4-0.5 C5.9,2.8,6.1,2.3,6,1.8z"/></g></g>
<g transform="translate(96,624)"><g transform="scale(12)"><path d="M6,1.8C5.9,1,5.3,0.4,4.5,0.3C3.9,0.2,3.4,0.5,3,0.9C2.6,0.5,2.1,0.3,1.6,0.3C0.8,0.4,0.1,1,0,1.8 C0,2.3,0.1,2.7,0.3,3l0,0l0,0c0.1,0.1,0.2,0.2,0.3,0.3l1.9,2.2c0.3,0.3,0.7,0.3,0.9,0l1.8-1.9c0.1-0.1,0.3-0.3,0.4-0.5 C5.9,2.8,6.1,2.3,6,1.8z"/></g></g>
</g></svg>
