<svg height="984" viewBox="0 0 984 984" width="984" xmlns="http://www.w3.org/2000/svg" xmlns:xlink="http://www.w3.org/1999/xlink"><radialGradient id="a" cx="50%" cy="50%" gradientUnits="userSpaceOnUse" r="50%"><stop offset="0" stop-color="#0bd5e6"/><stop offset="1" stop-color="#00a5d5"/></radialGradient><mask id="b"><g fill="#fff"><circle cx="252.36" cy="60.36" r="12.36" stroke-width="4.12"/><circle cx="300.36" cy="60.36" r="12.36" stroke-width="4.12"/><circle cx="324.36" cy="60.36" r="12.36" stroke-width="4.12"/><circle cx="396.36" cy="60.36" r="12.36" stroke-width="4.12"/><circle cx="444.36" cy="60.36" r="12.36" stroke-width="4.12"/><circle cx="468.36" cy="60.36" r="12.36" stroke-width="4.12"/><circle cx="492.36" cy="60.36" r="12.36" stroke-width="4.12"/><circle cx="612.36" cy="60.36" r="12.36" stroke-width="4.12"/><circle cx="684.36" cy="60.36" r="12.36" stroke-width="4.12"/><circle cx="732.36" cy="60.36" r="12.36" stroke-width="4.12"/><circle cx="252.36" cy="84.36" r="12.36" stroke-width="4.12"/><circle cx="300.36" cy="84.36" r="12.36" stroke-width="4.12"/><circle cx="396.36" cy="84.36" r="12.36" stroke-width="4.12"/><circle cx="420.36" cy="84.36" r="12.36" stroke-width="4.12"/><circle cx="468.36" cy="84.36" r="12.36" stroke-width="4.12"/><circle cx="492.36" cy="84.36" r="12.36" stroke-width="4.12"/><circle cx="540.36" cy="84.36" r="12.36" stroke-width="4.12"/><circle cx="588.36" cy="84.36" r="12.36" stroke-width="4.12"/><circle cx="612.36" cy="84.36" r="12.36" stroke-width="4.12"/><circle cx="660.36" cy="84.36" r="12.36" stroke-width="4.12"/><circle cx="708.36" cy="84.36" r="12.36" stroke-width="4.12"/><circle cx="732.36" cy="84.36" r="12.36" stroke-width="4.12"/><circle cx="252.36" cy="108.36" r="12.36" stroke-width="4.12"/><circle cx="276.36" cy="108.36" r="12.36" stroke-width="4.12"/><circle cx="348.36" cy="108.36" r="12.36" stroke-width="4.12"/><circle cx="372.36" cy="108.36" r="12.36" stroke-width="4.12"/><circle cx="444.36" cy="108.36" r="12.36" stroke-width="4.12"/><circle cx="468.36" cy="108.36" r="12.36" stroke-width="4.12"/><circle cx="492.36" cy="108.36" r="12.36" stroke-width="4.12"/><circle cx="516.36" cy="108.36" r="12.36" stroke-width="4.12"/><circle cx="540.36" cy="108.36" r="12.36" stroke-width="4.12"/><circle cx="612.36" cy="108.36" r="12.36" stroke-width="4.12"/><circle cx="636.36" cy="108.36" r="12.36" stroke-width="4.12"/><circle cx="708.36" cy="108.36" r="12.36" stroke-width="4.12"/><circle cx="300.36" cy="132.36" r="12.36" stroke-width="4.12"/><circle cx="348.36" cy="132.36" r="12.36" stroke-width="4.12"/><circle cx="420.36" cy="132.36" r="12.36" stroke-width="4.12"/><circle cx="444.36" cy="132.36" r="12.36" stroke-width="4.12"/><circle cx="540.36" cy="132.36" r="12.36" stroke-width="4.12"/><circle cx="612.36" cy="132.36" r="12.36" stroke-width="4.12"/><circle cx="660.36" cy="132.36" r="12.36" stroke-width="4.12"/><circle cx="684.36" cy="132.36" r="12.36" stroke-width="4.12"/><circle cx="276.36" cy="156.36" r="12.36" stroke-width="4.12"/><circle cx="324.36" cy="156.36" r="12.36" stroke-width="4.12"/><circle cx="372.36" cy="156.36" r="12.36" stroke-width="4.12"/><circle cx="396.36" cy="156.36" r="12.36" stroke-width="4.12"/><circle cx="516.36" cy="156.36" r="12.36" stroke-width="4.12"/><circle cx="540.36" cy="156.36" r="12.36" stroke-width="4.12"/><circle cx="636.36" cy="156.36" r="12.36" stroke-width="4.12"/><circle cx="660.36" cy="156.36" r="12.36" stroke-width="4.12"/><circle cx="252.36" cy="180.36" r="12.36" stroke-width="4.12"/><circle cx="276.36" cy="180.36" r="12.36" stroke-width="4.12"/><circle cx="300.36" cy="180.36" r="12.36" stroke-width="4.12"/><circle cx="324.36" cy="180.36" r="12.36" stroke-width="4.12"/><circle cx="420.36" cy="180.36" r="12.36" stroke-width="4.12"/><circle cx="540.36" cy="180.36" r="12.36" stroke-width="4.12"/><circle cx="708.36" cy="180.36" r="12.36" stroke-width="4.12"/><circle cx="732.36" cy="180.36" r="12.36" stroke-width="4.12"/><circle cx="252.36" cy="204.36" r="12.36" stroke-width="4.12"/><circle cx="300.36" cy="204.36" r="12.36" stroke-width="4.12"/><circle cx="348.36" cy="204.36" r="12.36" stroke-width="4.12"/><circle cx="396.36" cy="204.36" r="12.36" stroke-width="4.12"/><circle cx="444.36" cy="204.36" r="12.36" stroke-width="4.12"/><circle cx="492.36" cy="204.36" r="12.36" stroke-width="4.12"/><circle cx="540.36" cy="204.36" r="12.36" stroke-width="4.12"/><circle cx="588.36" cy="204.36" r="12.36" stroke-width="4.12"/><circle cx="636.36" cy="204.36" r="12.36" stroke-width="4.12"/><circle cx="684.36" cy="204.36" r="12.36" stroke-width="4.12"/><circle cx="732.36" cy="204.36" r="12.36" stroke-width="4.12"/><circle cx="252.36" cy="228.36" r="12.36" stroke-width="4.12"/><circle cx="372.36" cy="228.36" r="12.36" stroke-width="4.12"/><circle cx="468.36" cy="228.36" r="12.36" stroke-width="4.12"/><circle cx="492.36" cy="228.36" r="12.36" stroke-width="4.12"/><circle cx="564.36" cy="228.36" r="12.36" stroke-width="4.12"/><circle cx="588.36" cy="228.36" r="12.36" stroke-width="4.12"/><circle cx="612.36" cy="228.36" r="12.36" stroke-width="4.12"/><circle cx="636.36" cy="228.36" r="12.36" stroke-width="4.12"/><circle cx="684.36" cy="228.36" r="12.36" stroke-width="4.12"/><circle cx="732.36" cy="228.36" r="12.36" stroke-width="4.12"/><circle cx="108.36" cy="252.36" r="12.36" stroke-width="4.12"/><circle cx="132.36" cy="252.36" r="12.36" stroke-width="4.12"/><circle cx="156.36" cy="252.36" r="12.36" stroke-width="4.12"/><circle cx="204.36" cy="252.36" r="12.36" stroke-width="4.12"/><circle cx="252.36" cy="252.36" r="12.36" stroke-width="4.12"/><circle cx="276.36" cy="252.36" r="12.36" stroke-width="4.12"/><circle cx="324.36" cy="252.36" r="12.36" stroke-width="4.12"/><circle cx="444.36" cy="252.36" r="12.36" stroke-width="4.12"/><circle cx="468.36" cy="252.36" r="12.36" stroke-width="4.12"/><circle cx="492.36" cy="252.36" r="12.36" stroke-width="4.12"/><circle cx="516.36" cy="252.36" r="12.36" stroke-width="4.12"/><circle cx="540.36" cy="252.36" r="12.36" stroke-width="4.12"/><circle cx="588.36" cy="252.36" r="12.36" stroke-width="4.12"/><circle cx="660.36" cy="252.36" r="12.36" stroke-width="4.12"/><circle cx="684.36" cy="252.36" r="12.36" stroke-width="4.12"/><circle cx="756.36" cy="252.36" r="12.36" stroke-width="4.12"/><circle cx="780.36" cy="252.36" r="12.36" stroke-width="4.12"/><circle cx="804.36" cy="252.36" r="12.36" stroke-width="4.12"/><circle cx="876.36" cy="252.36" r="12.36" stroke-width="4.12"/><circle cx="900.36" cy="252.36" r="12.36" stroke-width="4.12"/><circle cx="924.36" cy="252.36" r="12.36" stroke-width="4.12"/><circle cx="84.36" cy="276.36" r="12.36" stroke-width="4.12"/><circle cx="108.36" cy="276.36" r="12.36" stroke-width="4.12"/><circle cx="132.36" cy="276.36" r="12.36" stroke-width="4.12"/><circle cx="156.36" cy="276.36" r="12.36" stroke-width="4.12"/><circle cx="228.36" cy="276.36" r="12.36" stroke-width="4.12"/><circle cx="276.36" cy="276.36" r="12.36" stroke-width="4.12"/><circle cx="348.36" cy="276.36" r="12.36" stroke-width="4.12"/><circle cx="372.36" cy="276.36" r="12.36" stroke-width="4.12"/><circle cx="396.36" cy="276.36" r="12.36" stroke-width="4.12"/><circle cx="516.36" cy="276.36" r="12.36" stroke-width="4.12"/><circle cx="540.36" cy="276.36" r="12.36" stroke-width="4.12"/><circle cx="588.36" cy="276.36" r="12.36" stroke-width="4.12"/><circle cx="636.36" cy="276.36" r="12.36" stroke-width="4.12"/><circle cx="660.36" cy="276.36" r="12.36" stroke-width="4.12"/><circle cx="732.36" cy="276.36" r="12.36" stroke-width="4.12"/><circle cx="756.36" cy="276.36" r="12.36" stroke-width="4.12"/><circle cx="804.36" cy="276.36" r="12.36" stroke-width="4.12"/><circle cx="852.36" cy="276.36" r="12.36" stroke-width="4.12"/><circle cx="84.36" cy="300.36" r="12.36" stroke-width="4.12"/><circle cx="156.36" cy="300.36" r="12.36" stroke-width="4.12"/><circle cx="204.36" cy="300.36" r="12.36" stroke-width="4.12"/><circle cx="228.36" cy="300.36" r="12.36" stroke-width="4.12"/><circle cx="276.36" cy="300.36" r="12.36" stroke-width="4.12"/><circle cx="420.36" cy="300.36" r="12.36" stroke-width="4.12"/><circle cx="444.36" cy="300.36" r="12.36" stroke-width="4.12"/><circle cx="492.36" cy="300.36" r="12.36" stroke-width="4.12"/><circle cx="564.36" cy="300.36" r="12.36" stroke-width="4.12"/><circle cx="588.36" cy="300.36" r="12.36" stroke-width="4.12"/><circle cx="612.36" cy="300.36" r="12.36" stroke-width="4.12"/><circle cx="660.36" cy="300.36" r="12.36" stroke-width="4.12"/><circle cx="684.36" cy="300.36" r="12.36" stroke-width="4.12"/><circle cx="708.36" cy="300.36" r="12.36" stroke-width="4.12"/><circle cx="780.36" cy="300.36" r="12.36" stroke-width="4.12"/><circle cx="804.36" cy="300.36" r="12.36" stroke-width="4.12"/><circle cx="828.36" cy="300.36" r="12.36" stroke-width="4.12"/><circle cx="876.36" cy="300.36" r="12.36" stroke-width="4.12"/><circle cx="924.36" cy="300.36" r="12.36" stroke-width="4.12"/><circle cx="252.36" cy="324.36" r="12.36" stroke-width="4.12"/><circle cx="276.36" cy="324.36" r="12.36" stroke-width="4.12"/><circle cx="300.36" cy="324.36" r="12.36" stroke-width="4.12"/><circle cx="396.36" cy="324.36" r="12.36" stroke-width="4.12"/><circle cx="444.36" cy="324.36" r="12.36" stroke-width="4.12"/><circle cx="468.36" cy="324.36" r="12.36" stroke-width="4.12"/><circle cx="636.36" cy="324.36" r="12.36" stroke-width="4.12"/><circle cx="684.36" cy="324.36" r="12.36" stroke-width="4.12"/><circle cx="780.36" cy="324.36" r="12.36" stroke-width="4.12"/><circle cx="84.36" cy="348.36" r="12.36" stroke-width="4.12"/><circle cx="204.36" cy="348.36" r="12.36" stroke-width="4.12"/><circle cx="228.36" cy="348.36" r="12.36" stroke-width="4.12"/><circle cx="300.36" cy="348.36" r="12.36" stroke-width="4.12"/><circle cx="324.36" cy="348.36" r="12.36" stroke-width="4.12"/><circle cx="348.36" cy="348.36" r="12.36" stroke-width="4.12"/><circle cx="372.36" cy="348.36" r="12.36" stroke-width="4.12"/><circle cx="444.36" cy="348.36" r="12.36" stroke-width="4.12"/><circle cx="468.36" cy="348.36" r="12.36" stroke-width="4.12"/><circle cx="564.36" cy="348.36" r="12.36" stroke-width="4.12"/><circle cx="612.36" cy="348.36" r="12.36" stroke-width="4.12"/><circle cx="660.36" cy="348.36" r="12.36" stroke-width="4.12"/><circle cx="684.36" cy="348.36" r="12.36" stroke-width="4.12"/><circle cx="708.36" cy="348.36" r="12.36" stroke-width="4.12"/><circle cx="756.36" cy="348.36" r="12.36" stroke-width="4.12"/><circle cx="780.36" cy="348.36" r="12.36" stroke-width="4.12"/><circle cx="828.36" cy="348.36" r="12.36" stroke-width="4.12"/><circle cx="852.36" cy="348.36" r="12.36" stroke-width="4.12"/><circle cx="876.36" cy="348.36" r="12.36" stroke-width="4.12"/><circle cx="924.36" cy="348.36" r="12.36" stroke-width="4.12"/><circle cx="60.36" cy="372.36" r="12.36" stroke-width="4.12"/><circle cx="108.36" cy="372.36" r="12.36" stroke-width="4.12"/><circle cx="132.36" cy="372.36" r="12.36" stroke-width="4.12"/><circle cx="156.36" cy="372.36" r="12.36" stroke-width="4.12"/><circle cx="252.36" cy="372.36" r="12.36" stroke-width="4.12"/><circle cx="300.36" cy="372.36" r="12.36" stroke-width="4.12"/><circle cx="324.36" cy="372.36" r="12.36" stroke-width="4.12"/><circle cx="372.36" cy="372.36" r="12.36" stroke-width="4.12"/><circle cx="420.36" cy="372.36" r="12.36" stroke-width="4.12"/><circle cx="468.36" cy="372.36" r="12.36" stroke-width="4.12"/><circle cx="540.36" cy="372.36" r="12.36" stroke-width="4.12"/><circle cx="612.36" cy="372.36" r="12.36" stroke-width="4.12"/><circle cx="684.36" cy="372.36" r="12.36" stroke-width="4.12"/><circle cx="732.36" cy="372.36" r="12.36" stroke-width="4.12"/><circle cx="756.36" cy="372.36" r="12.36" stroke-width="4.12"/><circle cx="852.36" cy="372.36" r="12.36" stroke-width="4.12"/><circle cx="876.36" cy="372.36" r="12.36" stroke-width="4.12"/><circle cx="108.36" cy="396.36" r="12.36" stroke-width="4.12"/><circle cx="132.36" cy="396.36" r="12.36" stroke-width="4.12"/><circle cx="204.36" cy="396.36" r="12.36" stroke-width="4.12"/><circle cx="228.36" cy="396.36" r="12.36" stroke-width="4.12"/><circle cx="252.36" cy="396.36" r="12.36" stroke-width="4.12"/><circle cx="276.36" cy="396.36" r="12.36" stroke-width="4.12"/><circle cx="300.36" cy="396.36" r="12.36" stroke-width="4.12"/><circle cx="324.36" cy="396.36" r="12.36" stroke-width="4.12"/><circle cx="372.36" cy="396.36" r="12.36" stroke-width="4.12"/><circle cx="396.36" cy="396.36" r="12.36" stroke-width="4.12"/><circle cx="540.36" cy="396.36" r="12.36" stroke-width="4.12"/><circle cx="588.36" cy="396.36" r="12.36" stroke-width="4.12"/><circle cx="612.36" cy="396.36" r="12.36" stroke-width="4.12"/><circle cx="684.36" cy="396.36" r="12.36" stroke-width="4.12"/><circle cx="708.36" cy="396.36" r="12.36" stroke-width="4.12"/><circle cx="756.36" cy="396.36" r="12.36" stroke-width="4.12"/><circle cx="780.36" cy="396.36" r="12.36" stroke-width="4.12"/><circle cx="804.36" cy="396.36" r="12.36" stroke-width="4.12"/><circle cx="828.36" cy="396.36" r="12.36" stroke-width="4.12"/><circle cx="852.36" cy="396.36" r="12.36" stroke-width="4.12"/><circle cx="900.36" cy="396.36" r="12.36" stroke-width="4.12"/><circle cx="924.36" cy="396.36" r="12.36" stroke-width="4.12"/><circle cx="60.36" cy="420.36" r="12.36" stroke-width="4.12"/><circle cx="108.36" cy="420.36" r="12.36" stroke-width="4.12"/><circle cx="132.36" cy="420.36" r="12.36" stroke-width="4.12"/><circle cx="276.36" cy="420.36" r="12.36" stroke-width="4.12"/><circle cx="300.36" cy="420.36" r="12.36" stroke-width="4.12"/><circle cx="324.36" cy="420.36" r="12.36" stroke-width="4.12"/><circle cx="348.36" cy="420.36" r="12.36" stroke-width="4.12"/><circle cx="420.36" cy="420.36" r="12.36" stroke-width="4.12"/><circle cx="468.36" cy="420.36" r="12.36" stroke-width="4.12"/><circle cx="540.36" cy="420.36" r="12.36" stroke-width="4.12"/><circle cx="588.36" cy="420.36" r="12.36" stroke-width="4.12"/><circle cx="780.36" cy="420.36" r="12.36" stroke-width="4.12"/><circle cx="804.36" cy="420.36" r="12.36" stroke-width="4.12"/><circle cx="828.36" cy="420.36" r="12.36" stroke-width="4.12"/><circle cx="900.36" cy="420.36" r="12.36" stroke-width="4.12"/><circle cx="924.36" cy="420.36" r="12.36" stroke-width="4.12"/><circle cx="60.36" cy="444.36" r="12.36" stroke-width="4.12"/><circle cx="84.36" cy="444.36" r="12.36" stroke-width="4.12"/><circle cx="132.36" cy="444.36" r="12.36" stroke-width="4.12"/><circle cx="156.36" cy="444.36" r="12.36" stroke-width="4.12"/><circle cx="204.36" cy="444.36" r="12.36" stroke-width="4.12"/><circle cx="276.36" cy="444.36" r="12.36" stroke-width="4.12"/><circle cx="300.36" cy="444.36" r="12.36" stroke-width="4.12"/><circle cx="372.36" cy="444.36" r="12.36" stroke-width="4.12"/><circle cx="420.36" cy="444.36" r="12.36" stroke-width="4.12"/><circle cx="444.36" cy="444.36" r="12.36" stroke-width="4.12"/><circle cx="540.36" cy="444.36" r="12.36" stroke-width="4.12"/><circle cx="564.36" cy="444.36" r="12.36" stroke-width="4.12"/><circle cx="612.36" cy="444.36" r="12.36" stroke-width="4.12"/><circle cx="636.36" cy="444.36" r="12.36" stroke-width="4.12"/><circle cx="660.36" cy="444.36" r="12.36" stroke-width="4.12"/><circle cx="684.36" cy="444.36" r="12.36" stroke-width="4.12"/><circle cx="708.36" cy="444.36" r="12.36" stroke-width="4.12"/><circle cx="780.36" cy="444.36" r="12.36" stroke-width="4.12"/><circle cx="804.36" cy="444.36" r="12.36" stroke-width="4.12"/><circle cx="828.36" cy="444.36" r="12.36" stroke-width="4.12"/><circle cx="876.36" cy="444.36" r="12.36" stroke-width="4.12"/><circle cx="60.36" cy="468.36" r="12.36" stroke-width="4.12"/><circle cx="132.36" cy="468.36" r="12.36" stroke-width="4.12"/><circle cx="180.36" cy="468.36" r="12.36" stroke-width="4.12"/><circle cx="228.36" cy="468.36" r="12.36" stroke-width="4.12"/><circle cx="252.36" cy="468.36" r="12.36" stroke-width="4.12"/><circle cx="324.36" cy="468.36" r="12.36" stroke-width="4.12"/><circle cx="396.36" cy="468.36" r="12.36" stroke-width="4.12"/><circle cx="492.36" cy="468.36" r="12.36" stroke-width="4.12"/><circle cx="612.36" cy="468.36" r="12.36" stroke-width="4.12"/><circle cx="636.36" cy="468.36" r="12.36" stroke-width="4.12"/><circle cx="660.36" cy="468.36" r="12.36" stroke-width="4.12"/><circle cx="732.36" cy="468.36" r="12.36" stroke-width="4.12"/><circle cx="804.36" cy="468.36" r="12.36" stroke-width="4.12"/><circle cx="852.36" cy="468.36" r="12.36" stroke-width="4.12"/><circle cx="60.36" cy="492.36" r="12.36" stroke-width="4.12"/><circle cx="108.36" cy="492.36" r="12.36" stroke-width="4.12"/><circle cx="180.36" cy="492.36" r="12.36" stroke-width="4.12"/><circle cx="204.36" cy="492.36" r="12.36" stroke-width="4.12"/><circle cx="300.36" cy="492.36" r="12.36" stroke-width="4.12"/><circle cx="420.36" cy="492.36" r="12.36" stroke-width="4.12"/><circle cx="492.36" cy="492.36" r="12.36" stroke-width="4.12"/><circle cx="516.36" cy="492.36" r="12.36" stroke-width="4.12"/><circle cx="540.36" cy="492.36" r="12.36" stroke-width="4.12"/><circle cx="564.36" cy="492.36" r="12.36" stroke-width="4.12"/><circle cx="708.36" cy="492.36" r="12.36" stroke-width="4.12"/><circle cx="732.36" cy="492.36" r="12.36" stroke-width="4.12"/><circle cx="756.36" cy="492.36" r="12.36" stroke-width="4.12"/><circle cx="828.36" cy="492.36" r="12.36" stroke-width="4.12"/><circle cx="876.36" cy="492.36" r="12.36" stroke-width="4.12"/><circle cx="900.36" cy="492.36" r="12.36" stroke-width="4.12"/><circle cx="924.36" cy="492.36" r="12.36" stroke-width="4.12"/><circle cx="60.36" cy="516.36" r="12.36" stroke-width="4.12"/><circle cx="108.36" cy="516.36" r="12.36" stroke-width="4.12"/><circle cx="156.36" cy="516.36" r="12.36" stroke-width="4.12"/><circle cx="276.36" cy="516.36" r="12.36" stroke-width="4.12"/><circle cx="324.36" cy="516.36" r="12.36" stroke-width="4.12"/><circle cx="444.36" cy="516.36" r="12.36" stroke-width="4.12"/><circle cx="492.36" cy="516.36" r="12.36" stroke-width="4.12"/><circle cx="516.36" cy="516.36" r="12.36" stroke-width="4.12"/><circle cx="564.36" cy="516.36" r="12.36" stroke-width="4.12"/><circle cx="684.36" cy="516.36" r="12.36" stroke-width="4.12"/><circle cx="732.36" cy="516.36" r="12.36" stroke-width="4.12"/><circle cx="756.36" cy="516.36" r="12.36" stroke-width="4.12"/><circle cx="900.36" cy="516.36" r="12.36" stroke-width="4.12"/><circle cx="84.36" cy="540.36" r="12.36" stroke-width="4.12"/><circle cx="108.36" cy="540.36" r="12.36" stroke-width="4.12"/><circle cx="156.36" cy="540.36" r="12.36" stroke-width="4.12"/><circle cx="204.36" cy="540.36" r="12.36" stroke-width="4.12"/><circle cx="228.36" cy="540.36" r="12.36" stroke-width="4.12"/><circle cx="300.36" cy="540.36" r="12.36" stroke-width="4.12"/><circle cx="348.36" cy="540.36" r="12.36" stroke-width="4.12"/><circle cx="372.36" cy="540.36" r="12.36" stroke-width="4.12"/><circle cx="444.36" cy="540.36" r="12.36" stroke-width="4.12"/><circle cx="468.36" cy="540.36" r="12.36" stroke-width="4.12"/><circle cx="492.36" cy="540.36" r="12.36" stroke-width="4.12"/><circle cx="516.36" cy="540.36" r="12.36" stroke-width="4.12"/><circle cx="540.36" cy="540.36" r="12.36" stroke-width="4.12"/><circle cx="564.36" cy="540.36" r="12.36" stroke-width="4.12"/><circle cx="636.36" cy="540.36" r="12.36" stroke-width="4.12"/><circle cx="660.36" cy="540.36" r="12.36" stroke-width="4.12"/><circle cx="684.36" cy="540.36" r="12.36" stroke-width="4.12"/><circle cx="708.36" cy="540.36" r="12.36" stroke-width="4.12"/><circle cx="756.36" cy="540.36" r="12.36" stroke-width="4.12"/><circle cx="780.36" cy="540.36" r="12.36" stroke-width="4.12"/><circle cx="804.36" cy="540.36" r="12.36" stroke-width="4.12"/><circle cx="828.36" cy="540.36" r="12.36" stroke-width="4.12"/><circle cx="852.36" cy="540.36" r="12.36" stroke-width="4.12"/><circle cx="876.36" cy="540.36" r="12.36" stroke-width="4.12"/><circle cx="84.36" cy="564.36" r="12.36" stroke-width="4.12"/><circle cx="132.36" cy="564.36" r="12.36" stroke-width="4.12"/><circle cx="252.36" cy="564.36" r="12.36" stroke-width="4.12"/><circle cx="324.36" cy="564.36" r="12.36" stroke-width="4.12"/><circle cx="348.36" cy="564.36" r="12.36" stroke-width="4.12"/><circle cx="372.36" cy="564.36" r="12.36" stroke-width="4.12"/><circle cx="396.36" cy="564.36" r="12.36" stroke-width="4.12"/><circle cx="444.36" cy="564.36" r="12.36" stroke-width="4.12"/><circle cx="492.36" cy="564.36" r="12.36" stroke-width="4.12"/><circle cx="636.36" cy="564.36" r="12.36" stroke-width="4.12"/><circle cx="660.36" cy="564.36" r="12.36" stroke-width="4.12"/><circle cx="684.36" cy="564.36" r="12.36" stroke-width="4.12"/><circle cx="780.36" cy="564.36" r="12.36" stroke-width="4.12"/><circle cx="804.36" cy="564.36" r="12.36" stroke-width="4.12"/><circle cx="876.36" cy="564.36" r="12.36" stroke-width="4.12"/><circle cx="924.36" cy="564.36" r="12.36" stroke-width="4.12"/><circle cx="84.36" cy="588.36" r="12.36" stroke-width="4.12"/><circle cx="132.36" cy="588.36" r="12.36" stroke-width="4.12"/><circle cx="204.36" cy="588.36" r="12.36" stroke-width="4.12"/><circle cx="252.36" cy="588.36" r="12.36" stroke-width="4.12"/><circle cx="276.36" cy="588.36" r="12.36" stroke-width="4.12"/><circle cx="300.36" cy="588.36" r="12.36" stroke-width="4.12"/><circle cx="324.36" cy="588.36" r="12.36" stroke-width="4.12"/><circle cx="396.36" cy="588.36" r="12.36" stroke-width="4.12"/><circle cx="444.36" cy="588.36" r="12.36" stroke-width="4.12"/><circle cx="468.36" cy="588.36" r="12.36" stroke-width="4.12"/><circle cx="540.36" cy="588.36" r="12.36" stroke-width="4.12"/><circle cx="564.36" cy="588.36" r="12.36" stroke-width="4.12"/><circle cx="588.36" cy="588.36" r="12.36" stroke-width="4.12"/><circle cx="612.36" cy="588.36" r="12.36" stroke-width="4.12"/><circle cx="636.36" cy="588.36" r="12.36" stroke-width="4.12"/><circle cx="660.36" cy="588.36" r="12.36" stroke-width="4.12"/><circle cx="684.36" cy="588.36" r="12.36" stroke-width="4.12"/><circle cx="708.36" cy="588.36" r="12.36" stroke-width="4.12"/><circle cx="756.36" cy="588.36" r="12.36" stroke-width="4.12"/><circle cx="780.36" cy="588.36" r="12.36" stroke-width="4.12"/><circle cx="852.36" cy="588.36" r="12.36" stroke-width="4.12"/><circle cx="876.36" cy="588.36" r="12.36" stroke-width="4.12"/><circle cx="900.36" cy="588.36" r="12.36" stroke-width="4.12"/><circle cx="924.36" cy="588.36" r="12.36" stroke-width="4.12"/><circle cx="60.36" cy="612.36" r="12.36" stroke-width="4.12"/><circle cx="84.36" cy="612.36" r="12.36" stroke-width="4.12"/><circle cx="108.36" cy="612.36" r="12.36" stroke-width="4.12"/><circle cx="132.36" cy="612.36" r="12.36" stroke-width="4.12"/><circle cx="252.36" cy="612.36" r="12.36" stroke-width="4.12"/><circle cx="372.36" cy="612.36" r="12.36" stroke-width="4.12"/><circle cx="420.36" cy="612.36" r="12.36" stroke-width="4.12"/><circle cx="540.36" cy="612.36" r="12.36" stroke-width="4.12"/><circle cx="564.36" cy="612.36" r="12.36" stroke-width="4.12"/><circle cx="588.36" cy="612.36" r="12.36" stroke-width="4.12"/><circle cx="612.36" cy="612.36" r="12.36" stroke-width="4.12"/><circle cx="636.36" cy="612.36" r="12.36" stroke-width="4.12"/><circle cx="780.36" cy="612.36" r="12.36" stroke-width="4.12"/><circle cx="804.36" cy="612.36" r="12.36" stroke-width="4.12"/><circle cx="924.36" cy="612.36" r="12.36" stroke-width="4.12"/><circle cx="60.36" cy="636.36" r="12.36" stroke-width="4.12"/><circle cx="132.36" cy="636.36" r="12.36" stroke-width="4.12"/><circle cx="204.36" cy="636.36" r="12.36" stroke-width="4.12"/><circle cx="300.36" cy="636.36" r="12.36" stroke-width="4.12"/><circle cx="420.36" cy="636.36" r="12.36" stroke-width="4.12"/><circle cx="516.36" cy="636.36" r="12.36" stroke-width="4.12"/><circle cx="540.36" cy="636.36" r="12.36" stroke-width="4.12"/><circle cx="612.36" cy="636.36" r="12.36" stroke-width="4.12"/><circle cx="636.36" cy="636.36" r="12.36" stroke-width="4.12"/><circle cx="660.36" cy="636.36" r="12.36" stroke-width="4.12"/><circle cx="684.36" cy="636.36" r="12.36" stroke-width="4.12"/><circle cx="732.36" cy="636.36" r="12.36" stroke-width="4.12"/><circle cx="756.36" cy="636.36" r="12.36" stroke-width="4.12"/><circle cx="780.36" cy="636.36" r="12.36" stroke-width="4.12"/><circle cx="804.36" cy="636.36" r="12.36" stroke-width="4.12"/><circle cx="828.36" cy="636.36" r="12.36" stroke-width="4.12"/><circle cx="852.36" cy="636.36" r="12.36" stroke-width="4.12"/><circle cx="876.36" cy="636.36" r="12.36" stroke-width="4.12"/><circle cx="900.36" cy="636.36" r="12.36" stroke-width="4.12"/><circle cx="60.36" cy="660.36" r="12.36" stroke-width="4.12"/><circle cx="108.36" cy="660.36" r="12.36" stroke-width="4.12"/><circle cx="156.36" cy="660.36" r="12.36" stroke-width="4.12"/><circle cx="180.36" cy="660.36" r="12.36" stroke-width="4.12"/><circle cx="300.36" cy="660.36" r="12.36" stroke-width="4.12"/><circle cx="348.36" cy="660.36" r="12.36" stroke-width="4.12"/><circle cx="396.36" cy="660.36" r="12.36" stroke-width="4.12"/><circle cx="420.36" cy="660.36" r="12.36" stroke-width="4.12"/><circle cx="492.36" cy="660.36" r="12.36" stroke-width="4.12"/><circle cx="540.36" cy="660.36" r="12.36" stroke-width="4.12"/><circle cx="732.36" cy="660.36" r="12.36" stroke-width="4.12"/><circle cx="804.36" cy="660.36" r="12.36" stroke-width="4.12"/><circle cx="876.36" cy="660.36" r="12.36" stroke-width="4.12"/><circle cx="60.36" cy="684.36" r="12.36" stroke-width="4.12"/><circle cx="108.36" cy="684.36" r="12.36" stroke-width="4.12"/><circle cx="156.36" cy="684.36" r="12.36" stroke-width="4.12"/><circle cx="204.36" cy="684.36" r="12.36" stroke-width="4.12"/><circle cx="228.36" cy="684.36" r="12.36" stroke-width="4.12"/><circle cx="252.36" cy="684.36" r="12.36" stroke-width="4.12"/><circle cx="276.36" cy="684.36" r="12.36" stroke-width="4.12"/><circle cx="324.36" cy="684.36" r="12.36" stroke-width="4.12"/><circle cx="372.36" cy="684.36" r="12.36" stroke-width="4.12"/><circle cx="420.36" cy="684.36" r="12.36" stroke-width="4.12"/><circle cx="444.36" cy="684.36" r="12.36" stroke-width="4.12"/><circle cx="468.36" cy="684.36" r="12.36" stroke-width="4.12"/><circle cx="516.36" cy="684.36" r="12.36" stroke-width="4.12"/><circle cx="540.36" cy="684.36" r="12.36" stroke-width="4.12"/><circle cx="564.36" cy="684.36" r="12.36" stroke-width="4.12"/><circle cx="612.36" cy="684.36" r="12.36" stroke-width="4.12"/><circle cx="636.36" cy="684.36" r="12.36" stroke-width="4.12"/><circle cx="660.36" cy="684.36" r="12.36" stroke-width="4.12"/><circle cx="708.36" cy="684.36" r="12.36" stroke-width="4.12"/><circle cx="732.36" cy="684.36" r="12.36" stroke-width="4.12"/><circle cx="780.36" cy="684.36" r="12.36" stroke-width="4.12"/><circle cx="804.36" cy="684.36" r="12.36" stroke-width="4.12"/><circle cx="852.36" cy="684.36" r="12.36" stroke-width="4.12"/><circle cx="900.36" cy="684.36" r="12.36" stroke-width="4.12"/><circle cx="924.36" cy="684.36" r="12.36" stroke-width="4.12"/><circle cx="60.36" cy="708.36" r="12.36" stroke-width="4.12"/><circle cx="132.36" cy="708.36" r="12.36" stroke-width="4.12"/><circle cx="156.36" cy="708.36" r="12.36" stroke-width="4.12"/><circle cx="228.36" cy="708.36" r="12.36" stroke-width="4.12"/><circle cx="252.36" cy="708.36" r="12.36" stroke-width="4.12"/><circle cx="348.36" cy="708.36" r="12.36" stroke-width="4.12"/><circle cx="372.36" cy="708.36" r="12.36" stroke-width="4.12"/><circle cx="444.36" cy="708.36" r="12.36" stroke-width="4.12"/><circle cx="468.36" cy="708.36" r="12.36" stroke-width="4.12"/><circle cx="492.36" cy="708.36" r="12.36" stroke-width="4.12"/><circle cx="564.36" cy="708.36" r="12.36" stroke-width="4.12"/><circle cx="612.36" cy="708.36" r="12.36" stroke-width="4.12"/><circle cx="708.36" cy="708.36" r="12.36" stroke-width="4.12"/><circle cx="732.36" cy="708.36" r="12.36" stroke-width="4.12"/><circle cx="756.36" cy="708.36" r="12.36" stroke-width="4.12"/><circle cx="804.36" cy="708.36" r="12.36" stroke-width="4.12"/><circle cx="900.36" cy="708.36" r="12.36" stroke-width="4.12"/><circle cx="924.36" cy="708.36" r="12.36" stroke-width="4.12"/><circle cx="60.36" cy="732.36" r="12.36" stroke-width="4.12"/><circle cx="132.36" cy="732.36" r="12.36" stroke-width="4.12"/><circle cx="156.36" cy="732.36" r="12.36" stroke-width="4.12"/><circle cx="204.36" cy="732.36" r="12.36" stroke-width="4.12"/><circle cx="252.36" cy="732.36" r="12.36" stroke-width="4.12"/><circle cx="300.36" cy="732.36" r="12.36" stroke-width="4.12"/><circle cx="372.36" cy="732.36" r="12.36" stroke-width="4.12"/><circle cx="420.36" cy="732.36" r="12.36" stroke-width="4.12"/><circle cx="540.36" cy="732.36" r="12.36" stroke-width="4.12"/><circle cx="588.36" cy="732.36" r="12.36" stroke-width="4.12"/><circle cx="612.36" cy="732.36" r="12.36" stroke-width="4.12"/><circle cx="636.36" cy="732.36" r="12.36" stroke-width="4.12"/><circle cx="660.36" cy="732.36" r="12.36" stroke-width="4.12"/><circle cx="684.36" cy="732.36" r="12.36" stroke-width="4.12"/><circle cx="708.36" cy="732.36" r="12.36" stroke-width="4.12"/><circle cx="732.36" cy="732.36" r="12.36" stroke-width="4.12"/><circle cx="756.36" cy="732.36" r="12.36" stroke-width="4.12"/><circle cx="780.36" cy="732.36" r="12.36" stroke-width="4.12"/><circle cx="804.36" cy="732.36" r="12.36" stroke-width="4.12"/><circle cx="828.36" cy="732.36" r="12.36" stroke-width="4.12"/><circle cx="876.36" cy="732.36" r="12.36" stroke-width="4.12"/><circle cx="900.36" cy="732.36" r="12.36" stroke-width="4.12"/><circle cx="924.36" cy="732.36" r="12.36" stroke-width="4.12"/><circle cx="252.36" cy="756.36" r="12.36" stroke-width="4.12"/><circle cx="276.36" cy="756.36" r="12.36" stroke-width="4.12"/><circle cx="300.36" cy="756.36" r="12.36" stroke-width="4.12"/><circle cx="372.36" cy="756.36" r="12.36" stroke-width="4.12"/><circle cx="396.36" cy="756.36" r="12.36" stroke-width="4.12"/><circle cx="468.36" cy="756.36" r="12.36" stroke-width="4.12"/><circle cx="492.36" cy="756.36" r="12.36" stroke-width="4.12"/><circle cx="564.36" cy="756.36" r="12.36" stroke-width="4.12"/><circle cx="612.36" cy="756.36" r="12.36" stroke-width="4.12"/><circle cx="660.36" cy="756.36" r="12.36" stroke-width="4.12"/><circle cx="732.36" cy="756.36" r="12.36" stroke-width="4.12"/><circle cx="828.36" cy="756.36" r="12.36" stroke-width="4.12"/><circle cx="300.36" cy="780.36" r="12.36" stroke-width="4.12"/><circle cx="324.36" cy="780.36" r="12.36" stroke-width="4.12"/><circle cx="348.36" cy="780.36" r="12.36" stroke-width="4.12"/><circle cx="420.36" cy="780.36" r="12.36" stroke-width="4.12"/><circle cx="444.36" cy="780.36" r="12.36" stroke-width="4.12"/><circle cx="468.36" cy="780.36" r="12.36" stroke-width="4.12"/><circle cx="492.36" cy="780.36" r="12.36" stroke-width="4.12"/><circle cx="732.36" cy="780.36" r="12.36" stroke-width="4.12"/><circle cx="780.36" cy="780.36" r="12.36" stroke-width="4.12"/><circle cx="828.36" cy="780.36" r="12.36" stroke-width="4.12"/><circle cx="852.36" cy="780.36" r="12.36" stroke-width="4.12"/><circle cx="900.36" cy="780.36" r="12.36" stroke-width="4.12"/><circle cx="924.36" cy="780.36" r="12.36" stroke-width="4.12"/><circle cx="276.36" cy="804.36" r="12.36" stroke-width="4.12"/><circle cx="300.36" cy="804.36" r="12.36" stroke-width="4.12"/><circle cx="324.36" cy="804.36" r="12.36" stroke-width="4.12"/><circle cx="372.36" cy="804.36" r="12.36" stroke-width="4.12"/><circle cx="396.36" cy="804.36" r="12.36" stroke-width="4.12"/><circle cx="444.36" cy="804.36" r="12.36" stroke-width="4.12"/><circle cx="492.36" cy="804.36" r="12.36" stroke-width="4.12"/><circle cx="540.36" cy="804.36" r="12.36" stroke-width="4.12"/><circle cx="636.36" cy="804.36" r="12.36" stroke-width="4.12"/><circle cx="732.36" cy="804.36" r="12.36" stroke-width="4.12"/><circle cx="828.36" cy="804.36" r="12.36" stroke-width="4.12"/><circle cx="900.36" cy="804.36" r="12.36" stroke-width="4.12"/><circle cx="252.36" cy="828.36" r="12.36" stroke-width="4.12"/><circle cx="324.36" cy="828.36" r="12.36" stroke-width="4.12"/><circle cx="348.36" cy="828.36" r="12.36" stroke-width="4.12"/><circle cx="372.36" cy="828.36" r="12.36" stroke-width="4.12"/><circle cx="420.36" cy="828.36" r="12.36" stroke-width="4.12"/><circle cx="468.36" cy="828.36" r="12.36" stroke-width="4.12"/><circle cx="540.36" cy="828.36" r="12.36" stroke-width="4.12"/><circle cx="564.36" cy="828.36" r="12.36" stroke-width="4.12"/><circle cx="588.36" cy="828.36" r="12.36" stroke-width="4.12"/><circle cx="636.36" cy="828.36" r="12.36" stroke-width="4.12"/><circle cx="660.36" cy="828.36" r="12.36" stroke-width="4.12"/><circle cx="684.36" cy="828.36" r="12.36" stroke-width="4.12"/><circle cx="708.36" cy="828.36" r="12.36" stroke-width="4.12"/><circle cx="732.36" cy="828.36" r="12.36" stroke-width="4.12"/><circle cx="756.36" cy="828.36" r="12.36" stroke-width="4.12"/><circle cx="780.36" cy="828.36" r="12.36" stroke-width="4.12"/><circle cx="804.36" cy="828.36" r="12.36" stroke-width="4.12"/><circle cx="828.36" cy="828.36" r="12.36" stroke-width="4.12"/><circle cx="876.36" cy="828.36" r="12.36" stroke-width="4.12"/><circle cx="900.36" cy="828.36" r="12.36" stroke-width="4.12"/><circle cx="252.36" cy="852.36" r="12.36" stroke-width="4.12"/><circle cx="300.36" cy="852.36" r="12.36" stroke-width="4.12"/><circle cx="324.36" cy="852.36" r="12.36" stroke-width="4.12"/><circle cx="348.36" cy="852.36" r="12.36" stroke-width="4.12"/><circle cx="492.36" cy="852.36" r="12.36" stroke-width="4.12"/><circle cx="516.36" cy="852.36" r="12.36" stroke-width="4.12"/><circle cx="540.36" cy="852.36" r="12.36" stroke-width="4.12"/><circle cx="636.36" cy="852.36" r="12.36" stroke-width="4.12"/><circle cx="684.36" cy="852.36" r="12.36" stroke-width="4.12"/><circle cx="732.36" cy="852.36" r="12.36" stroke-width="4.12"/><circle cx="780.36" cy="852.36" r="12.36" stroke-width="4.12"/><circle cx="828.36" cy="852.36" r="12.36" stroke-width="4.12"/><circle cx="876.36" cy="852.36" r="12.36" stroke-width="4.12"/><circle cx="252.36" cy="876.36" r="12.36" stroke-width="4.12"/><circle cx="276.36" cy="876.36" r="12.36" stroke-width="4.12"/><circle cx="324.36" cy="876.36" r="12.36" stroke-width="4.12"/><circle cx="396.36" cy="876.36" r="12.36" stroke-width="4.12"/><circle cx="420.36" cy="876.36" r="12.36" stroke-width="4.12"/><circle cx="468.36" cy="876.36" r="12.36" stroke-width="4.12"/><circle cx="684.36" cy="876.36" r="12.36" stroke-width="4.12"/><circle cx="732.36" cy="876.36" r="12.36" stroke-width="4.12"/><circle cx="756.36" cy="876.36" r="12.36" stroke-width="4.12"/><circle cx="804.36" cy="876.36" r="12.36" stroke-width="4.12"/><circle cx="876.36" cy="876.36" r="12.36" stroke-width="4.12"/><circle cx="924.36" cy="876.36" r="12.36" stroke-width="4.12"/><circle cx="276.36" cy="900.36" r="12.36" stroke-width="4.12"/><circle cx="300.36" cy="900.36" r="12.36" stroke-width="4.12"/><circle cx="348.36" cy="900.36" r="12.36" stroke-width="4.12"/><circle cx="420.36" cy="900.36" r="12.36" stroke-width="4.12"/><circle cx="444.36" cy="900.36" r="12.36" stroke-width="4.12"/><circle cx="516.36" cy="900.36" r="12.36" stroke-width="4.12"/><circle cx="540.36" cy="900.36" r="12.36" stroke-width="4.12"/><circle cx="612.36" cy="900.36" r="12.36" stroke-width="4.12"/><circle cx="708.36" cy="900.36" r="12.36" stroke-width="4.12"/><circle cx="732.36" cy="900.36" r="12.36" stroke-width="4.12"/><circle cx="756.36" cy="900.36" r="12.36" stroke-width="4.12"/><circle cx="804.36" cy="900.36" r="12.36" stroke-width="4.12"/><circle cx="924.36" cy="900.36" r="12.36" stroke-width="4.12"/><circle cx="324.36" cy="924.36" r="12.36" stroke-width="4.12"/><circle cx="348.36" cy="924.36" r="12.36" stroke-width="4.12"/><circle cx="396.36" cy="924.36" r="12.36" stroke-width="4.12"/><circle cx="444.36" cy="924.36" r="12.36" stroke-width="4.12"/><circle cx="468.36" cy="924.36" r="12.36" stroke-width="4.12"/><circle cx="516.36" cy="924.36" r="12.36" stroke-width="4.12"/><circle cx="540.36" cy="924.36" r="12.36" stroke-width="4.12"/><circle cx="564.36" cy="924.36" r="12.36" stroke-width="4.12"/><circle cx="636.36" cy="924.36" r="12.36" stroke-width="4.12"/><circle cx="660.36" cy="924.36" r="12.36" stroke-width="4.12"/><circle cx="684.36" cy="924.36" r="12.36" stroke-width="4.12"/><circle cx="828.36" cy="924.36" r="12.36" stroke-width="4.12"/><circle cx="876.36" cy="924.36" r="12.36" stroke-width="4.12"/><circle cx="900.36" cy="924.36" r="12.36" stroke-width="4.12"/><circle cx="924.36" cy="924.36" r="12.36" stroke-width="4.12"/><path d="m0 0v14h14v-14zm12 12h-10v-10h10z" transform="matrix(12 0 0 12 48 48)"/><path d="m0 0v14h14v-14zm12 12h-10v-10h10z" transform="matrix(12 0 0 12 768 48)"/><path d="m0 0v14h14v-14zm12 12h-10v-10h10z" transform="matrix(12 0 0 12 48 768)"/><circle cx="132" cy="132" r="36" stroke-width="12"/><circle cx="852" cy="132" r="36" stroke-width="12"/><circle cx="132" cy="852" r="36" stroke-width="12"/></g></mask><path d="m0 0h984v984h-984z" fill="#fff"/><path d="m0 0h984v984h-984z" fill="url(#a)" mask="url(#b)"/></svg>