<?xml version="1.0" encoding="utf-8"?>
<svg xmlns="http://www.w3.org/2000/svg" xmlns:xlink="http://www.w3.org/1999/xlink" xml:space="preserve" width="984" height="984" viewBox="0 0 984 984"><defs><radialGradient id="pattern-mask" cx="50%" cy="50%" r="50%" fx="50%" fy="50%" gradientUnits="userSpaceOnUse"><stop offset="0%" stop-color="#0bd5e6"/><stop offset="100%" stop-color="#00a5d5"/></radialGradient>
<mask id="qrmask"><g fill="#ffffff"><g>
<g transform="translate(240,48) scale(4.12)"><circle cx="3" cy="3" r="3"/></g>
<g transform="translate(288,48) scale(4.12)"><circle cx="3" cy="3" r="3"/></g>
<g transform="translate(312,48) scale(4.12)"><circle cx="3" cy="3" r="3"/></g>
<g transform="translate(384,48) scale(4.12)"><circle cx="3" cy="3" r="3"/></g>
<g transform="translate(432,48) scale(4.12)"><circle cx="3" cy="3" r="3"/></g>
<g transform="translate(456,48) scale(4.12)"><circle cx="3" cy="3" r="3"/></g>
<g transform="translate(480,48) scale(4.12)"><circle cx="3" cy="3" r="3"/></g>
<g transform="translate(600,48) scale(4.12)"><circle cx="3" cy="3" r="3"/></g>
<g transform="translate(672,48) scale(4.12)"><circle cx="3" cy="3" r="3"/></g>
<g transform="translate(720,48) scale(4.12)"><circle cx="3" cy="3" r="3"/></g>
<g transform="translate(240,72) scale(4.12)"><circle cx="3" cy="3" r="3"/></g>
<g transform="translate(288,72) scale(4.12)"><circle cx="3" cy="3" r="3"/></g>
<g transform="translate(384,72) scale(4.12)"><circle cx="3" cy="3" r="3"/></g>
<g transform="translate(408,72) scale(4.12)"><circle cx="3" cy="3" r="3"/></g>
<g transform="translate(456,72) scale(4.12)"><circle cx="3" cy="3" r="3"/></g>
<g transform="translate(480,72) scale(4.12)"><circle cx="3" cy="3" r="3"/></g>
<g transform="translate(528,72) scale(4.12)"><circle cx="3" cy="3" r="3"/></g>
<g transform="translate(576,72) scale(4.12)"><circle cx="3" cy="3" r="3"/></g>
<g transform="translate(600,72) scale(4.12)"><circle cx="3" cy="3" r="3"/></g>
<g transform="translate(648,72) scale(4.12)"><circle cx="3" cy="3" r="3"/></g>
<g transform="translate(696,72) scale(4.12)"><circle cx="3" cy="3" r="3"/></g>
<g transform="translate(720,72) scale(4.12)"><circle cx="3" cy="3" r="3"/></g>
<g transform="translate(240,96) scale(4.12)"><circle cx="3" cy="3" r="3"/></g>
<g transform="translate(264,96) scale(4.12)"><circle cx="3" cy="3" r="3"/></g>
<g transform="translate(336,96) scale(4.12)"><circle cx="3" cy="3" r="3"/></g>
<g transform="translate(360,96) scale(4.12)"><circle cx="3" cy="3" r="3"/></g>
<g transform="translate(432,96) scale(4.12)"><circle cx="3" cy="3" r="3"/></g>
<g transform="translate(456,96) scale(4.12)"><circle cx="3" cy="3" r="3"/></g>
<g transform="translate(480,96) scale(4.12)"><circle cx="3" cy="3" r="3"/></g>
<g transform="translate(504,96) scale(4.12)"><circle cx="3" cy="3" r="3"/></g>
<g transform="translate(528,96) scale(4.12)"><circle cx="3" cy="3" r="3"/></g>
<g transform="translate(600,96) scale(4.12)"><circle cx="3" cy="3" r="3"/></g>
<g transform="translate(624,96) scale(4.12)"><circle cx="3" cy="3" r="3"/></g>
<g transform="translate(696,96) scale(4.12)"><circle cx="3" cy="3" r="3"/></g>
<g transform="translate(288,120) scale(4.12)"><circle cx="3" cy="3" r="3"/></g>
<g transform="translate(336,120) scale(4.12)"><circle cx="3" cy="3" r="3"/></g>
<g transform="translate(408,120) scale(4.12)"><circle cx="3" cy="3" r="3"/></g>
<g transform="translate(432,120) scale(4.12)"><circle cx="3" cy="3" r="3"/></g>
<g transform="translate(528,120) scale(4.12)"><circle cx="3" cy="3" r="3"/></g>
<g transform="translate(600,120) scale(4.12)"><circle cx="3" cy="3" r="3"/></g>
<g transform="translate(648,120) scale(4.12)"><circle cx="3" cy="3" r="3"/></g>
<g transform="translate(672,120) scale(4.12)"><circle cx="3" cy="3" r="3"/></g>
<g transform="translate(264,144) scale(4.12)"><circle cx="3" cy="3" r="3"/></g>
<g transform="translate(312,144) scale(4.12)"><circle cx="3" cy="3" r="3"/></g>
<g transform="translate(360,144) scale(4.12)"><circle cx="3" cy="3" r="3"/></g>
<g transform="translate(384,144) scale(4.12)"><circle cx="3" cy="3" r="3"/></g>
<g transform="translate(504,144) scale(4.12)"><circle cx="3" cy="3" r="3"/></g>
<g transform="translate(528,144) scale(4.12)"><circle cx="3" cy="3" r="3"/></g>
<g transform="translate(624,144) scale(4.12)"><circle cx="3" cy="3" r="3"/></g>
<g transform="translate(648,144) scale(4.12)"><circle cx="3" cy="3" r="3"/></g>
<g transform="translate(240,168) scale(4.12)"><circle cx="3" cy="3" r="3"/></g>
<g transform="translate(264,168) scale(4.12)"><circle cx="3" cy="3" r="3"/></g>
<g transform="translate(288,168) scale(4.12)"><circle cx="3" cy="3" r="3"/></g>
<g transform="translate(312,168) scale(4.12)"><circle cx="3" cy="3" r="3"/></g>
<g transform="translate(408,168) scale(4.12)"><circle cx="3" cy="3" r="3"/></g>
<g transform="translate(528,168) scale(4.12)"><circle cx="3" cy="3" r="3"/></g>
<g transform="translate(696,168) scale(4.12)"><circle cx="3" cy="3" r="3"/></g>
<g transform="translate(720,168) scale(4.12)"><circle cx="3" cy="3" r="3"/></g>
<g transform="translate(240,192) scale(4.12)"><circle cx="3" cy="3" r="3"/></g>
<g transform="translate(288,192) scale(4.12)"><circle cx="3" cy="3" r="3"/></g>
<g transform="translate(336,192) scale(4.12)"><circle cx="3" cy="3" r="3"/></g>
<g transform="translate(384,192) scale(4.12)"><circle cx="3" cy="3" r="3"/></g>
<g transform="translate(432,192) scale(4.12)"><circle cx="3" cy="3" r="3"/></g>
<g transform="translate(480,192) scale(4.12)"><circle cx="3" cy="3" r="3"/></g>
<g transform="translate(528,192) scale(4.12)"><circle cx="3" cy="3" r="3"/></g>
<g transform="translate(576,192) scale(4.12)"><circle cx="3" cy="3" r="3"/></g>
<g transform="translate(624,192) scale(4.12)"><circle cx="3" cy="3" r="3"/></g>
<g transform="translate(672,192) scale(4.12)"><circle cx="3" cy="3" r="3"/></g>
<g transform="translate(720,192) scale(4.12)"><circle cx="3" cy="3" r="3"/></g>
<g transform="translate(240,216) scale(4.12)"><circle cx="3" cy="3" r="3"/></g>
<g transform="translate(360,216) scale(4.12)"><circle cx="3" cy="3" r="3"/></g>
<g transform="translate(456,216) scale(4.12)"><circle cx="3" cy="3" r="3"/></g>
<g transform="translate(480,216) scale(4.12)"><circle cx="3" cy="3" r="3"/></g>
<g transform="translate(552,216) scale(4.12)"><circle cx="3" cy="3" r="3"/></g>
<g transform="translate(576,216) scale(4.12)"><circle cx="3" cy="3" r="3"/></g>
<g transform="translate(600,216) scale(4.12)"><circle cx="3" cy="3" r="3"/></g>
<g transform="translate(624,216) scale(4.12)"><circle cx="3" cy="3" r="3"/></g>
<g transform="translate(672,216) scale(4.12)"><circle cx="3" cy="3" r="3"/></g>
<g transform="translate(720,216) scale(4.12)"><circle cx="3" cy="3" r="3"/></g>
<g transform="translate(96,240) scale(4.12)"><circle cx="3" cy="3" r="3"/></g>
<g transform="translate(120,240) scale(4.12)"><circle cx="3" cy="3" r="3"/></g>
<g transform="translate(144,240) scale(4.12)"><circle cx="3" cy="3" r="3"/></g>
<g transform="translate(192,240) scale(4.12)"><circle cx="3" cy="3" r="3"/></g>
<g transform="translate(240,240) scale(4.12)"><circle cx="3" cy="3" r="3"/></g>
<g transform="translate(264,240) scale(4.12)"><circle cx="3" cy="3" r="3"/></g>
<g transform="translate(312,240) scale(4.12)"><circle cx="3" cy="3" r="3"/></g>
<g transform="translate(432,240) scale(4.12)"><circle cx="3" cy="3" r="3"/></g>
<g transform="translate(456,240) scale(4.12)"><circle cx="3" cy="3" r="3"/></g>
<g transform="translate(480,240) scale(4.12)"><circle cx="3" cy="3" r="3"/></g>
<g transform="translate(504,240) scale(4.12)"><circle cx="3" cy="3" r="3"/></g>
<g transform="translate(528,240) scale(4.12)"><circle cx="3" cy="3" r="3"/></g>
<g transform="translate(576,240) scale(4.12)"><circle cx="3" cy="3" r="3"/></g>
<g transform="translate(648,240) scale(4.12)"><circle cx="3" cy="3" r="3"/></g>
<g transform="translate(672,240) scale(4.12)"><circle cx="3" cy="3" r="3"/></g>
<g transform="translate(744,240) scale(4.12)"><circle cx="3" cy="3" r="3"/></g>
<g transform="translate(768,240) scale(4.12)"><circle cx="3" cy="3" r="3"/></g>
<g transform="translate(792,240) scale(4.12)"><circle cx="3" cy="3" r="3"/></g>
<g transform="translate(864,240) scale(4.12)"><circle cx="3" cy="3" r="3"/></g>
<g transform="translate(888,240) scale(4.12)"><circle cx="3" cy="3" r="3"/></g>
<g transform="translate(912,240) scale(4.12)"><circle cx="3" cy="3" r="3"/></g>
<g transform="translate(72,264) scale(4.12)"><circle cx="3" cy="3" r="3"/></g>
<g transform="translate(96,264) scale(4.12)"><circle cx="3" cy="3" r="3"/></g>
<g transform="translate(120,264) scale(4.12)"><circle cx="3" cy="3" r="3"/></g>
<g transform="translate(144,264) scale(4.12)"><circle cx="3" cy="3" r="3"/></g>
<g transform="translate(216,264) scale(4.12)"><circle cx="3" cy="3" r="3"/></g>
<g transform="translate(264,264) scale(4.12)"><circle cx="3" cy="3" r="3"/></g>
<g transform="translate(336,264) scale(4.12)"><circle cx="3" cy="3" r="3"/></g>
<g transform="translate(360,264) scale(4.12)"><circle cx="3" cy="3" r="3"/></g>
<g transform="translate(384,264) scale(4.12)"><circle cx="3" cy="3" r="3"/></g>
<g transform="translate(504,264) scale(4.12)"><circle cx="3" cy="3" r="3"/></g>
<g transform="translate(528,264) scale(4.12)"><circle cx="3" cy="3" r="3"/></g>
<g transform="translate(576,264) scale(4.12)"><circle cx="3" cy="3" r="3"/></g>
<g transform="translate(624,264) scale(4.12)"><circle cx="3" cy="3" r="3"/></g>
<g transform="translate(648,264) scale(4.12)"><circle cx="3" cy="3" r="3"/></g>
<g transform="translate(720,264) scale(4.12)"><circle cx="3" cy="3" r="3"/></g>
<g transform="translate(744,264) scale(4.12)"><circle cx="3" cy="3" r="3"/></g>
<g transform="translate(792,264) scale(4.12)"><circle cx="3" cy="3" r="3"/></g>
<g transform="translate(840,264) scale(4.12)"><circle cx="3" cy="3" r="3"/></g>
<g transform="translate(72,288) scale(4.12)"><circle cx="3" cy="3" r="3"/></g>
<g transform="translate(144,288) scale(4.12)"><circle cx="3" cy="3" r="3"/></g>
<g transform="translate(192,288) scale(4.12)"><circle cx="3" cy="3" r="3"/></g>
<g transform="translate(216,288) scale(4.12)"><circle cx="3" cy="3" r="3"/></g>
<g transform="translate(264,288) scale(4.12)"><circle cx="3" cy="3" r="3"/></g>
<g transform="translate(408,288) scale(4.12)"><circle cx="3" cy="3" r="3"/></g>
<g transform="translate(432,288) scale(4.12)"><circle cx="3" cy="3" r="3"/></g>
<g transform="translate(480,288) scale(4.12)"><circle cx="3" cy="3" r="3"/></g>
<g transform="translate(552,288) scale(4.12)"><circle cx="3" cy="3" r="3"/></g>
<g transform="translate(576,288) scale(4.12)"><circle cx="3" cy="3" r="3"/></g>
<g transform="translate(600,288) scale(4.12)"><circle cx="3" cy="3" r="3"/></g>
<g transform="translate(648,288) scale(4.12)"><circle cx="3" cy="3" r="3"/></g>
<g transform="translate(672,288) scale(4.12)"><circle cx="3" cy="3" r="3"/></g>
<g transform="translate(696,288) scale(4.12)"><circle cx="3" cy="3" r="3"/></g>
<g transform="translate(768,288) scale(4.12)"><circle cx="3" cy="3" r="3"/></g>
<g transform="translate(792,288) scale(4.12)"><circle cx="3" cy="3" r="3"/></g>
<g transform="translate(816,288) scale(4.12)"><circle cx="3" cy="3" r="3"/></g>
<g transform="translate(864,288) scale(4.12)"><circle cx="3" cy="3" r="3"/></g>
<g transform="translate(912,288) scale(4.12)"><circle cx="3" cy="3" r="3"/></g>
<g transform="translate(240,312) scale(4.12)"><circle cx="3" cy="3" r="3"/></g>
<g transform="translate(264,312) scale(4.12)"><circle cx="3" cy="3" r="3"/></g>
<g transform="translate(288,312) scale(4.12)"><circle cx="3" cy="3" r="3"/></g>
<g transform="translate(384,312) scale(4.12)"><circle cx="3" cy="3" r="3"/></g>
<g transform="translate(432,312) scale(4.12)"><circle cx="3" cy="3" r="3"/></g>
<g transform="translate(456,312) scale(4.12)"><circle cx="3" cy="3" r="3"/></g>
<g transform="translate(624,312) scale(4.12)"><circle cx="3" cy="3" r="3"/></g>
<g transform="translate(672,312) scale(4.12)"><circle cx="3" cy="3" r="3"/></g>
<g transform="translate(768,312) scale(4.12)"><circle cx="3" cy="3" r="3"/></g>
<g transform="translate(72,336) scale(4.12)"><circle cx="3" cy="3" r="3"/></g>
<g transform="translate(192,336) scale(4.12)"><circle cx="3" cy="3" r="3"/></g>
<g transform="translate(216,336) scale(4.12)"><circle cx="3" cy="3" r="3"/></g>
<g transform="translate(288,336) scale(4.12)"><circle cx="3" cy="3" r="3"/></g>
<g transform="translate(312,336) scale(4.12)"><circle cx="3" cy="3" r="3"/></g>
<g transform="translate(336,336) scale(4.12)"><circle cx="3" cy="3" r="3"/></g>
<g transform="translate(360,336) scale(4.12)"><circle cx="3" cy="3" r="3"/></g>
<g transform="translate(432,336) scale(4.12)"><circle cx="3" cy="3" r="3"/></g>
<g transform="translate(456,336) scale(4.12)"><circle cx="3" cy="3" r="3"/></g>
<g transform="translate(552,336) scale(4.12)"><circle cx="3" cy="3" r="3"/></g>
<g transform="translate(600,336) scale(4.12)"><circle cx="3" cy="3" r="3"/></g>
<g transform="translate(648,336) scale(4.12)"><circle cx="3" cy="3" r="3"/></g>
<g transform="translate(672,336) scale(4.12)"><circle cx="3" cy="3" r="3"/></g>
<g transform="translate(696,336) scale(4.12)"><circle cx="3" cy="3" r="3"/></g>
<g transform="translate(744,336) scale(4.12)"><circle cx="3" cy="3" r="3"/></g>
<g transform="translate(768,336) scale(4.12)"><circle cx="3" cy="3" r="3"/></g>
<g transform="translate(816,336) scale(4.12)"><circle cx="3" cy="3" r="3"/></g>
<g transform="translate(840,336) scale(4.12)"><circle cx="3" cy="3" r="3"/></g>
<g transform="translate(864,336) scale(4.12)"><circle cx="3" cy="3" r="3"/></g>
<g transform="translate(912,336) scale(4.12)"><circle cx="3" cy="3" r="3"/></g>
<g transform="translate(48,360) scale(4.12)"><circle cx="3" cy="3" r="3"/></g>
<g transform="translate(96,360) scale(4.12)"><circle cx="3" cy="3" r="3"/></g>
<g transform="translate(120,360) scale(4.12)"><circle cx="3" cy="3" r="3"/></g>
<g transform="translate(144,360) scale(4.12)"><circle cx="3" cy="3" r="3"/></g>
<g transform="translate(240,360) scale(4.12)"><circle cx="3" cy="3" r="3"/></g>
<g transform="translate(288,360) scale(4.12)"><circle cx="3" cy="3" r="3"/></g>
<g transform="translate(312,360) scale(4.12)"><circle cx="3" cy="3" r="3"/></g>
<g transform="translate(360,360) scale(4.12)"><circle cx="3" cy="3" r="3"/></g>
<g transform="translate(408,360) scale(4.12)"><circle cx="3" cy="3" r="3"/></g>
<g transform="translate(456,360) scale(4.12)"><circle cx="3" cy="3" r="3"/></g>
<g transform="translate(528,360) scale(4.12)"><circle cx="3" cy="3" r="3"/></g>
<g transform="translate(600,360) scale(4.12)"><circle cx="3" cy="3" r="3"/></g>
<g transform="translate(672,360) scale(4.12)"><circle cx="3" cy="3" r="3"/></g>
<g transform="translate(720,360) scale(4.12)"><circle cx="3" cy="3" r="3"/></g>
<g transform="translate(744,360) scale(4.12)"><circle cx="3" cy="3" r="3"/></g>
<g transform="translate(840,360) scale(4.12)"><circle cx="3" cy="3" r="3"/></g>
<g transform="translate(864,360) scale(4.12)"><circle cx="3" cy="3" r="3"/></g>
<g transform="translate(96,384) scale(4.12)"><circle cx="3" cy="3" r="3"/></g>
<g transform="translate(120,384) scale(4.12)"><circle cx="3" cy="3" r="3"/></g>
<g transform="translate(192,384) scale(4.12)"><circle cx="3" cy="3" r="3"/></g>
<g transform="translate(216,384) scale(4.12)"><circle cx="3" cy="3" r="3"/></g>
<g transform="translate(240,384) scale(4.12)"><circle cx="3" cy="3" r="3"/></g>
<g transform="translate(264,384) scale(4.12)"><circle cx="3" cy="3" r="3"/></g>
<g transform="translate(288,384) scale(4.12)"><circle cx="3" cy="3" r="3"/></g>
<g transform="translate(312,384) scale(4.12)"><circle cx="3" cy="3" r="3"/></g>
<g transform="translate(360,384) scale(4.12)"><circle cx="3" cy="3" r="3"/></g>
<g transform="translate(384,384) scale(4.12)"><circle cx="3" cy="3" r="3"/></g>
<g transform="translate(528,384) scale(4.12)"><circle cx="3" cy="3" r="3"/></g>
<g transform="translate(576,384) scale(4.12)"><circle cx="3" cy="3" r="3"/></g>
<g transform="translate(600,384) scale(4.12)"><circle cx="3" cy="3" r="3"/></g>
<g transform="translate(672,384) scale(4.12)"><circle cx="3" cy="3" r="3"/></g>
<g transform="translate(696,384) scale(4.12)"><circle cx="3" cy="3" r="3"/></g>
<g transform="translate(744,384) scale(4.12)"><circle cx="3" cy="3" r="3"/></g>
<g transform="translate(768,384) scale(4.12)"><circle cx="3" cy="3" r="3"/></g>
<g transform="translate(792,384) scale(4.12)"><circle cx="3" cy="3" r="3"/></g>
<g transform="translate(816,384) scale(4.12)"><circle cx="3" cy="3" r="3"/></g>
<g transform="translate(840,384) scale(4.12)"><circle cx="3" cy="3" r="3"/></g>
<g transform="translate(888,384) scale(4.12)"><circle cx="3" cy="3" r="3"/></g>
<g transform="translate(912,384) scale(4.12)"><circle cx="3" cy="3" r="3"/></g>
<g transform="translate(48,408) scale(4.12)"><circle cx="3" cy="3" r="3"/></g>
<g transform="translate(96,408) scale(4.12)"><circle cx="3" cy="3" r="3"/></g>
<g transform="translate(120,408) scale(4.12)"><circle cx="3" cy="3" r="3"/></g>
<g transform="translate(264,408) scale(4.12)"><circle cx="3" cy="3" r="3"/></g>
<g transform="translate(288,408) scale(4.12)"><circle cx="3" cy="3" r="3"/></g>
<g transform="translate(312,408) scale(4.12)"><circle cx="3" cy="3" r="3"/></g>
<g transform="translate(336,408) scale(4.12)"><circle cx="3" cy="3" r="3"/></g>
<g transform="translate(408,408) scale(4.12)"><circle cx="3" cy="3" r="3"/></g>
<g transform="translate(456,408) scale(4.12)"><circle cx="3" cy="3" r="3"/></g>
<g transform="translate(528,408) scale(4.12)"><circle cx="3" cy="3" r="3"/></g>
<g transform="translate(576,408) scale(4.12)"><circle cx="3" cy="3" r="3"/></g>
<g transform="translate(768,408) scale(4.12)"><circle cx="3" cy="3" r="3"/></g>
<g transform="translate(792,408) scale(4.12)"><circle cx="3" cy="3" r="3"/></g>
<g transform="translate(816,408) scale(4.12)"><circle cx="3" cy="3" r="3"/></g>
<g transform="translate(888,408) scale(4.12)"><circle cx="3" cy="3" r="3"/></g>
<g transform="translate(912,408) scale(4.12)"><circle cx="3" cy="3" r="3"/></g>
<g transform="translate(48,432) scale(4.12)"><circle cx="3" cy="3" r="3"/></g>
<g transform="translate(72,432) scale(4.12)"><circle cx="3" cy="3" r="3"/></g>
<g transform="translate(120,432) scale(4.12)"><circle cx="3" cy="3" r="3"/></g>
<g transform="translate(144,432) scale(4.12)"><circle cx="3" cy="3" r="3"/></g>
<g transform="translate(192,432) scale(4.12)"><circle cx="3" cy="3" r="3"/></g>
<g transform="translate(264,432) scale(4.12)"><circle cx="3" cy="3" r="3"/></g>
<g transform="translate(288,432) scale(4.12)"><circle cx="3" cy="3" r="3"/></g>
<g transform="translate(360,432) scale(4.12)"><circle cx="3" cy="3" r="3"/></g>
<g transform="translate(408,432) scale(4.12)"><circle cx="3" cy="3" r="3"/></g>
<g transform="translate(432,432) scale(4.12)"><circle cx="3" cy="3" r="3"/></g>
<g transform="translate(528,432) scale(4.12)"><circle cx="3" cy="3" r="3"/></g>
<g transform="translate(552,432) scale(4.12)"><circle cx="3" cy="3" r="3"/></g>
<g transform="translate(600,432) scale(4.12)"><circle cx="3" cy="3" r="3"/></g>
<g transform="translate(624,432) scale(4.12)"><circle cx="3" cy="3" r="3"/></g>
<g transform="translate(648,432) scale(4.12)"><circle cx="3" cy="3" r="3"/></g>
<g transform="translate(672,432) scale(4.12)"><circle cx="3" cy="3" r="3"/></g>
<g transform="translate(696,432) scale(4.12)"><circle cx="3" cy="3" r="3"/></g>
<g transform="translate(768,432) scale(4.12)"><circle cx="3" cy="3" r="3"/></g>
<g transform="translate(792,432) scale(4.12)"><circle cx="3" cy="3" r="3"/></g>
<g transform="translate(816,432) scale(4.12)"><circle cx="3" cy="3" r="3"/></g>
<g transform="translate(864,432) scale(4.12)"><circle cx="3" cy="3" r="3"/></g>
<g transform="translate(48,456) scale(4.12)"><circle cx="3" cy="3" r="3"/></g>
<g transform="translate(120,456) scale(4.12)"><circle cx="3" cy="3" r="3"/></g>
<g transform="translate(168,456) scale(4.12)"><circle cx="3" cy="3" r="3"/></g>
<g transform="translate(216,456) scale(4.12)"><circle cx="3" cy="3" r="3"/></g>
<g transform="translate(240,456) scale(4.12)"><circle cx="3" cy="3" r="3"/></g>
<g transform="translate(312,456) scale(4.12)"><circle cx="3" cy="3" r="3"/></g>
<g transform="translate(384,456) scale(4.12)"><circle cx="3" cy="3" r="3"/></g>
<g transform="translate(480,456) scale(4.12)"><circle cx="3" cy="3" r="3"/></g>
<g transform="translate(600,456) scale(4.12)"><circle cx="3" cy="3" r="3"/></g>
<g transform="translate(624,456) scale(4.12)"><circle cx="3" cy="3" r="3"/></g>
<g transform="translate(648,456) scale(4.12)"><circle cx="3" cy="3" r="3"/></g>
<g transform="translate(720,456) scale(4.12)"><circle cx="3" cy="3" r="3"/></g>
<g transform="translate(792,456) scale(4.12)"><circle cx="3" cy="3" r="3"/></g>
<g transform="translate(840,456) scale(4.12)"><circle cx="3" cy="3" r="3"/></g>
<g transform="translate(48,480) scale(4.12)"><circle cx="3" cy="3" r="3"/></g>
<g transform="translate(96,480) scale(4.12)"><circle cx="3" cy="3" r="3"/></g>
<g transform="translate(168,480) scale(4.12)"><circle cx="3" cy="3" r="3"/></g>
<g transform="translate(192,480) scale(4.12)"><circle cx="3" cy="3" r="3"/></g>
<g transform="translate(288,480) scale(4.12)"><circle cx="3" cy="3" r="3"/></g>
<g transform="translate(408,480) scale(4.12)"><circle cx="3" cy="3" r="3"/></g>
<g transform="translate(480,480) scale(4.12)"><circle cx="3" cy="3" r="3"/></g>
<g transform="translate(504,480) scale(4.12)"><circle cx="3" cy="3" r="3"/></g>
<g transform="translate(528,480) scale(4.12)"><circle cx="3" cy="3" r="3"/></g>
<g transform="translate(552,480) scale(4.12)"><circle cx="3" cy="3" r="3"/></g>
<g transform="translate(696,480) scale(4.12)"><circle cx="3" cy="3" r="3"/></g>
<g transform="translate(720,480) scale(4.12)"><circle cx="3" cy="3" r="3"/></g>
<g transform="translate(744,480) scale(4.12)"><circle cx="3" cy="3" r="3"/></g>
<g transform="translate(816,480) scale(4.12)"><circle cx="3" cy="3" r="3"/></g>
<g transform="translate(864,480) scale(4.12)"><circle cx="3" cy="3" r="3"/></g>
<g transform="translate(888,480) scale(4.12)"><circle cx="3" cy="3" r="3"/></g>
<g transform="translate(912,480) scale(4.12)"><circle cx="3" cy="3" r="3"/></g>
<g transform="translate(48,504) scale(4.12)"><circle cx="3" cy="3" r="3"/></g>
<g transform="translate(96,504) scale(4.12)"><circle cx="3" cy="3" r="3"/></g>
<g transform="translate(144,504) scale(4.12)"><circle cx="3" cy="3" r="3"/></g>
<g transform="translate(264,504) scale(4.12)"><circle cx="3" cy="3" r="3"/></g>
<g transform="translate(312,504) scale(4.12)"><circle cx="3" cy="3" r="3"/></g>
<g transform="translate(432,504) scale(4.12)"><circle cx="3" cy="3" r="3"/></g>
<g transform="translate(480,504) scale(4.12)"><circle cx="3" cy="3" r="3"/></g>
<g transform="translate(504,504) scale(4.12)"><circle cx="3" cy="3" r="3"/></g>
<g transform="translate(552,504) scale(4.12)"><circle cx="3" cy="3" r="3"/></g>
<g transform="translate(672,504) scale(4.12)"><circle cx="3" cy="3" r="3"/></g>
<g transform="translate(720,504) scale(4.12)"><circle cx="3" cy="3" r="3"/></g>
<g transform="translate(744,504) scale(4.12)"><circle cx="3" cy="3" r="3"/></g>
<g transform="translate(888,504) scale(4.12)"><circle cx="3" cy="3" r="3"/></g>
<g transform="translate(72,528) scale(4.12)"><circle cx="3" cy="3" r="3"/></g>
<g transform="translate(96,528) scale(4.12)"><circle cx="3" cy="3" r="3"/></g>
<g transform="translate(144,528) scale(4.12)"><circle cx="3" cy="3" r="3"/></g>
<g transform="translate(192,528) scale(4.12)"><circle cx="3" cy="3" r="3"/></g>
<g transform="translate(216,528) scale(4.12)"><circle cx="3" cy="3" r="3"/></g>
<g transform="translate(288,528) scale(4.12)"><circle cx="3" cy="3" r="3"/></g>
<g transform="translate(336,528) scale(4.12)"><circle cx="3" cy="3" r="3"/></g>
<g transform="translate(360,528) scale(4.12)"><circle cx="3" cy="3" r="3"/></g>
<g transform="translate(432,528) scale(4.12)"><circle cx="3" cy="3" r="3"/></g>
<g transform="translate(456,528) scale(4.12)"><circle cx="3" cy="3" r="3"/></g>
<g transform="translate(480,528) scale(4.12)"><circle cx="3" cy="3" r="3"/></g>
<g transform="translate(504,528) scale(4.12)"><circle cx="3" cy="3" r="3"/></g>
<g transform="translate(528,528) scale(4.12)"><circle cx="3" cy="3" r="3"/></g>
<g transform="translate(552,528) scale(4.12)"><circle cx="3" cy="3" r="3"/></g>
<g transform="translate(624,528) scale(4.12)"><circle cx="3" cy="3" r="3"/></g>
<g transform="translate(648,528) scale(4.12)"><circle cx="3" cy="3" r="3"/></g>
<g transform="translate(672,528) scale(4.12)"><circle cx="3" cy="3" r="3"/></g>
<g transform="translate(696,528) scale(4.12)"><circle cx="3" cy="3" r="3"/></g>
<g transform="translate(744,528) scale(4.12)"><circle cx="3" cy="3" r="3"/></g>
<g transform="translate(768,528) scale(4.12)"><circle cx="3" cy="3" r="3"/></g>
<g transform="translate(792,528) scale(4.12)"><circle cx="3" cy="3" r="3"/></g>
<g transform="translate(816,528) scale(4.12)"><circle cx="3" cy="3" r="3"/></g>
<g transform="translate(840,528) scale(4.12)"><circle cx="3" cy="3" r="3"/></g>
<g transform="translate(864,528) scale(4.12)"><circle cx="3" cy="3" r="3"/></g>
<g transform="translate(72,552) scale(4.12)"><circle cx="3" cy="3" r="3"/></g>
<g transform="translate(120,552) scale(4.12)"><circle cx="3" cy="3" r="3"/></g>
<g transform="translate(240,552) scale(4.12)"><circle cx="3" cy="3" r="3"/></g>
<g transform="translate(312,552) scale(4.12)"><circle cx="3" cy="3" r="3"/></g>
<g transform="translate(336,552) scale(4.12)"><circle cx="3" cy="3" r="3"/></g>
<g transform="translate(360,552) scale(4.12)"><circle cx="3" cy="3" r="3"/></g>
<g transform="translate(384,552) scale(4.12)"><circle cx="3" cy="3" r="3"/></g>
<g transform="translate(432,552) scale(4.12)"><circle cx="3" cy="3" r="3"/></g>
<g transform="translate(480,552) scale(4.12)"><circle cx="3" cy="3" r="3"/></g>
<g transform="translate(624,552) scale(4.12)"><circle cx="3" cy="3" r="3"/></g>
<g transform="translate(648,552) scale(4.12)"><circle cx="3" cy="3" r="3"/></g>
<g transform="translate(672,552) scale(4.12)"><circle cx="3" cy="3" r="3"/></g>
<g transform="translate(768,552) scale(4.12)"><circle cx="3" cy="3" r="3"/></g>
<g transform="translate(792,552) scale(4.12)"><circle cx="3" cy="3" r="3"/></g>
<g transform="translate(864,552) scale(4.12)"><circle cx="3" cy="3" r="3"/></g>
<g transform="translate(912,552) scale(4.12)"><circle cx="3" cy="3" r="3"/></g>
<g transform="translate(72,576) scale(4.12)"><circle cx="3" cy="3" r="3"/></g>
<g transform="translate(120,576) scale(4.12)"><circle cx="3" cy="3" r="3"/></g>
<g transform="translate(192,576) scale(4.12)"><circle cx="3" cy="3" r="3"/></g>
<g transform="translate(240,576) scale(4.12)"><circle cx="3" cy="3" r="3"/></g>
<g transform="translate(264,576) scale(4.12)"><circle cx="3" cy="3" r="3"/></g>
<g transform="translate(288,576) scale(4.12)"><circle cx="3" cy="3" r="3"/></g>
<g transform="translate(312,576) scale(4.12)"><circle cx="3" cy="3" r="3"/></g>
<g transform="translate(384,576) scale(4.12)"><circle cx="3" cy="3" r="3"/></g>
<g transform="translate(432,576) scale(4.12)"><circle cx="3" cy="3" r="3"/></g>
<g transform="translate(456,576) scale(4.12)"><circle cx="3" cy="3" r="3"/></g>
<g transform="translate(528,576) scale(4.12)"><circle cx="3" cy="3" r="3"/></g>
<g transform="translate(552,576) scale(4.12)"><circle cx="3" cy="3" r="3"/></g>
<g transform="translate(576,576) scale(4.12)"><circle cx="3" cy="3" r="3"/></g>
<g transform="translate(600,576) scale(4.12)"><circle cx="3" cy="3" r="3"/></g>
<g transform="translate(624,576) scale(4.12)"><circle cx="3" cy="3" r="3"/></g>
<g transform="translate(648,576) scale(4.12)"><circle cx="3" cy="3" r="3"/></g>
<g transform="translate(672,576) scale(4.12)"><circle cx="3" cy="3" r="3"/></g>
<g transform="translate(696,576) scale(4.12)"><circle cx="3" cy="3" r="3"/></g>
<g transform="translate(744,576) scale(4.12)"><circle cx="3" cy="3" r="3"/></g>
<g transform="translate(768,576) scale(4.12)"><circle cx="3" cy="3" r="3"/></g>
<g transform="translate(840,576) scale(4.12)"><circle cx="3" cy="3" r="3"/></g>
<g transform="translate(864,576) scale(4.12)"><circle cx="3" cy="3" r="3"/></g>
<g transform="translate(888,576) scale(4.12)"><circle cx="3" cy="3" r="3"/></g>
<g transform="translate(912,576) scale(4.12)"><circle cx="3" cy="3" r="3"/></g>
<g transform="translate(48,600) scale(4.12)"><circle cx="3" cy="3" r="3"/></g>
<g transform="translate(72,600) scale(4.12)"><circle cx="3" cy="3" r="3"/></g>
<g transform="translate(96,600) scale(4.12)"><circle cx="3" cy="3" r="3"/></g>
<g transform="translate(120,600) scale(4.12)"><circle cx="3" cy="3" r="3"/></g>
<g transform="translate(240,600) scale(4.12)"><circle cx="3" cy="3" r="3"/></g>
<g transform="translate(360,600) scale(4.12)"><circle cx="3" cy="3" r="3"/></g>
<g transform="translate(408,600) scale(4.12)"><circle cx="3" cy="3" r="3"/></g>
<g transform="translate(528,600) scale(4.12)"><circle cx="3" cy="3" r="3"/></g>
<g transform="translate(552,600) scale(4.12)"><circle cx="3" cy="3" r="3"/></g>
<g transform="translate(576,600) scale(4.12)"><circle cx="3" cy="3" r="3"/></g>
<g transform="translate(600,600) scale(4.12)"><circle cx="3" cy="3" r="3"/></g>
<g transform="translate(624,600) scale(4.12)"><circle cx="3" cy="3" r="3"/></g>
<g transform="translate(768,600) scale(4.12)"><circle cx="3" cy="3" r="3"/></g>
<g transform="translate(792,600) scale(4.12)"><circle cx="3" cy="3" r="3"/></g>
<g transform="translate(912,600) scale(4.12)"><circle cx="3" cy="3" r="3"/></g>
<g transform="translate(48,624) scale(4.12)"><circle cx="3" cy="3" r="3"/></g>
<g transform="translate(120,624) scale(4.12)"><circle cx="3" cy="3" r="3"/></g>
<g transform="translate(192,624) scale(4.12)"><circle cx="3" cy="3" r="3"/></g>
<g transform="translate(288,624) scale(4.12)"><circle cx="3" cy="3" r="3"/></g>
<g transform="translate(408,624) scale(4.12)"><circle cx="3" cy="3" r="3"/></g>
<g transform="translate(504,624) scale(4.12)"><circle cx="3" cy="3" r="3"/></g>
<g transform="translate(528,624) scale(4.12)"><circle cx="3" cy="3" r="3"/></g>
<g transform="translate(600,624) scale(4.12)"><circle cx="3" cy="3" r="3"/></g>
<g transform="translate(624,624) scale(4.12)"><circle cx="3" cy="3" r="3"/></g>
<g transform="translate(648,624) scale(4.12)"><circle cx="3" cy="3" r="3"/></g>
<g transform="translate(672,624) scale(4.12)"><circle cx="3" cy="3" r="3"/></g>
<g transform="translate(720,624) scale(4.12)"><circle cx="3" cy="3" r="3"/></g>
<g transform="translate(744,624) scale(4.12)"><circle cx="3" cy="3" r="3"/></g>
<g transform="translate(768,624) scale(4.12)"><circle cx="3" cy="3" r="3"/></g>
<g transform="translate(792,624) scale(4.12)"><circle cx="3" cy="3" r="3"/></g>
<g transform="translate(816,624) scale(4.12)"><circle cx="3" cy="3" r="3"/></g>
<g transform="translate(840,624) scale(4.12)"><circle cx="3" cy="3" r="3"/></g>
<g transform="translate(864,624) scale(4.12)"><circle cx="3" cy="3" r="3"/></g>
<g transform="translate(888,624) scale(4.12)"><circle cx="3" cy="3" r="3"/></g>
<g transform="translate(48,648) scale(4.12)"><circle cx="3" cy="3" r="3"/></g>
<g transform="translate(96,648) scale(4.12)"><circle cx="3" cy="3" r="3"/></g>
<g transform="translate(144,648) scale(4.12)"><circle cx="3" cy="3" r="3"/></g>
<g transform="translate(168,648) scale(4.12)"><circle cx="3" cy="3" r="3"/></g>
<g transform="translate(288,648) scale(4.12)"><circle cx="3" cy="3" r="3"/></g>
<g transform="translate(336,648) scale(4.12)"><circle cx="3" cy="3" r="3"/></g>
<g transform="translate(384,648) scale(4.12)"><circle cx="3" cy="3" r="3"/></g>
<g transform="translate(408,648) scale(4.12)"><circle cx="3" cy="3" r="3"/></g>
<g transform="translate(480,648) scale(4.12)"><circle cx="3" cy="3" r="3"/></g>
<g transform="translate(528,648) scale(4.12)"><circle cx="3" cy="3" r="3"/></g>
<g transform="translate(720,648) scale(4.12)"><circle cx="3" cy="3" r="3"/></g>
<g transform="translate(792,648) scale(4.12)"><circle cx="3" cy="3" r="3"/></g>
<g transform="translate(864,648) scale(4.12)"><circle cx="3" cy="3" r="3"/></g>
<g transform="translate(48,672) scale(4.12)"><circle cx="3" cy="3" r="3"/></g>
<g transform="translate(96,672) scale(4.12)"><circle cx="3" cy="3" r="3"/></g>
<g transform="translate(144,672) scale(4.12)"><circle cx="3" cy="3" r="3"/></g>
<g transform="translate(192,672) scale(4.12)"><circle cx="3" cy="3" r="3"/></g>
<g transform="translate(216,672) scale(4.12)"><circle cx="3" cy="3" r="3"/></g>
<g transform="translate(240,672) scale(4.12)"><circle cx="3" cy="3" r="3"/></g>
<g transform="translate(264,672) scale(4.12)"><circle cx="3" cy="3" r="3"/></g>
<g transform="translate(312,672) scale(4.12)"><circle cx="3" cy="3" r="3"/></g>
<g transform="translate(360,672) scale(4.12)"><circle cx="3" cy="3" r="3"/></g>
<g transform="translate(408,672) scale(4.12)"><circle cx="3" cy="3" r="3"/></g>
<g transform="translate(432,672) scale(4.12)"><circle cx="3" cy="3" r="3"/></g>
<g transform="translate(456,672) scale(4.12)"><circle cx="3" cy="3" r="3"/></g>
<g transform="translate(504,672) scale(4.12)"><circle cx="3" cy="3" r="3"/></g>
<g transform="translate(528,672) scale(4.12)"><circle cx="3" cy="3" r="3"/></g>
<g transform="translate(552,672) scale(4.12)"><circle cx="3" cy="3" r="3"/></g>
<g transform="translate(600,672) scale(4.12)"><circle cx="3" cy="3" r="3"/></g>
<g transform="translate(624,672) scale(4.12)"><circle cx="3" cy="3" r="3"/></g>
<g transform="translate(648,672) scale(4.12)"><circle cx="3" cy="3" r="3"/></g>
<g transform="translate(696,672) scale(4.12)"><circle cx="3" cy="3" r="3"/></g>
<g transform="translate(720,672) scale(4.12)"><circle cx="3" cy="3" r="3"/></g>
<g transform="translate(768,672) scale(4.12)"><circle cx="3" cy="3" r="3"/></g>
<g transform="translate(792,672) scale(4.12)"><circle cx="3" cy="3" r="3"/></g>
<g transform="translate(840,672) scale(4.12)"><circle cx="3" cy="3" r="3"/></g>
<g transform="translate(888,672) scale(4.12)"><circle cx="3" cy="3" r="3"/></g>
<g transform="translate(912,672) scale(4.12)"><circle cx="3" cy="3" r="3"/></g>
<g transform="translate(48,696) scale(4.12)"><circle cx="3" cy="3" r="3"/></g>
<g transform="translate(120,696) scale(4.12)"><circle cx="3" cy="3" r="3"/></g>
<g transform="translate(144,696) scale(4.12)"><circle cx="3" cy="3" r="3"/></g>
<g transform="translate(216,696) scale(4.12)"><circle cx="3" cy="3" r="3"/></g>
<g transform="translate(240,696) scale(4.12)"><circle cx="3" cy="3" r="3"/></g>
<g transform="translate(336,696) scale(4.12)"><circle cx="3" cy="3" r="3"/></g>
<g transform="translate(360,696) scale(4.12)"><circle cx="3" cy="3" r="3"/></g>
<g transform="translate(432,696) scale(4.12)"><circle cx="3" cy="3" r="3"/></g>
<g transform="translate(456,696) scale(4.12)"><circle cx="3" cy="3" r="3"/></g>
<g transform="translate(480,696) scale(4.12)"><circle cx="3" cy="3" r="3"/></g>
<g transform="translate(552,696) scale(4.12)"><circle cx="3" cy="3" r="3"/></g>
<g transform="translate(600,696) scale(4.12)"><circle cx="3" cy="3" r="3"/></g>
<g transform="translate(696,696) scale(4.12)"><circle cx="3" cy="3" r="3"/></g>
<g transform="translate(720,696) scale(4.12)"><circle cx="3" cy="3" r="3"/></g>
<g transform="translate(744,696) scale(4.12)"><circle cx="3" cy="3" r="3"/></g>
<g transform="translate(792,696) scale(4.12)"><circle cx="3" cy="3" r="3"/></g>
<g transform="translate(888,696) scale(4.12)"><circle cx="3" cy="3" r="3"/></g>
<g transform="translate(912,696) scale(4.12)"><circle cx="3" cy="3" r="3"/></g>
<g transform="translate(48,720) scale(4.12)"><circle cx="3" cy="3" r="3"/></g>
<g transform="translate(120,720) scale(4.12)"><circle cx="3" cy="3" r="3"/></g>
<g transform="translate(144,720) scale(4.12)"><circle cx="3" cy="3" r="3"/></g>
<g transform="translate(192,720) scale(4.12)"><circle cx="3" cy="3" r="3"/></g>
<g transform="translate(240,720) scale(4.12)"><circle cx="3" cy="3" r="3"/></g>
<g transform="translate(288,720) scale(4.12)"><circle cx="3" cy="3" r="3"/></g>
<g transform="translate(360,720) scale(4.12)"><circle cx="3" cy="3" r="3"/></g>
<g transform="translate(408,720) scale(4.12)"><circle cx="3" cy="3" r="3"/></g>
<g transform="translate(528,720) scale(4.12)"><circle cx="3" cy="3" r="3"/></g>
<g transform="translate(576,720) scale(4.12)"><circle cx="3" cy="3" r="3"/></g>
<g transform="translate(600,720) scale(4.12)"><circle cx="3" cy="3" r="3"/></g>
<g transform="translate(624,720) scale(4.12)"><circle cx="3" cy="3" r="3"/></g>
<g transform="translate(648,720) scale(4.12)"><circle cx="3" cy="3" r="3"/></g>
<g transform="translate(672,720) scale(4.12)"><circle cx="3" cy="3" r="3"/></g>
<g transform="translate(696,720) scale(4.12)"><circle cx="3" cy="3" r="3"/></g>
<g transform="translate(720,720) scale(4.12)"><circle cx="3" cy="3" r="3"/></g>
<g transform="translate(744,720) scale(4.12)"><circle cx="3" cy="3" r="3"/></g>
<g transform="translate(768,720) scale(4.12)"><circle cx="3" cy="3" r="3"/></g>
<g transform="translate(792,720) scale(4.12)"><circle cx="3" cy="3" r="3"/></g>
<g transform="translate(816,720) scale(4.12)"><circle cx="3" cy="3" r="3"/></g>
<g transform="translate(864,720) scale(4.12)"><circle cx="3" cy="3" r="3"/></g>
<g transform="translate(888,720) scale(4.12)"><circle cx="3" cy="3" r="3"/></g>
<g transform="translate(912,720) scale(4.12)"><circle cx="3" cy="3" r="3"/></g>
<g transform="translate(240,744) scale(4.12)"><circle cx="3" cy="3" r="3"/></g>
<g transform="translate(264,744) scale(4.12)"><circle cx="3" cy="3" r="3"/></g>
<g transform="translate(288,744) scale(4.12)"><circle cx="3" cy="3" r="3"/></g>
<g transform="translate(360,744) scale(4.12)"><circle cx="3" cy="3" r="3"/></g>
<g transform="translate(384,744) scale(4.12)"><circle cx="3" cy="3" r="3"/></g>
<g transform="translate(456,744) scale(4.12)"><circle cx="3" cy="3" r="3"/></g>
<g transform="translate(480,744) scale(4.12)"><circle cx="3" cy="3" r="3"/></g>
<g transform="translate(552,744) scale(4.12)"><circle cx="3" cy="3" r="3"/></g>
<g transform="translate(600,744) scale(4.12)"><circle cx="3" cy="3" r="3"/></g>
<g transform="translate(648,744) scale(4.12)"><circle cx="3" cy="3" r="3"/></g>
<g transform="translate(720,744) scale(4.12)"><circle cx="3" cy="3" r="3"/></g>
<g transform="translate(816,744) scale(4.12)"><circle cx="3" cy="3" r="3"/></g>
<g transform="translate(288,768) scale(4.12)"><circle cx="3" cy="3" r="3"/></g>
<g transform="translate(312,768) scale(4.12)"><circle cx="3" cy="3" r="3"/></g>
<g transform="translate(336,768) scale(4.12)"><circle cx="3" cy="3" r="3"/></g>
<g transform="translate(408,768) scale(4.12)"><circle cx="3" cy="3" r="3"/></g>
<g transform="translate(432,768) scale(4.12)"><circle cx="3" cy="3" r="3"/></g>
<g transform="translate(456,768) scale(4.12)"><circle cx="3" cy="3" r="3"/></g>
<g transform="translate(480,768) scale(4.12)"><circle cx="3" cy="3" r="3"/></g>
<g transform="translate(720,768) scale(4.12)"><circle cx="3" cy="3" r="3"/></g>
<g transform="translate(768,768) scale(4.12)"><circle cx="3" cy="3" r="3"/></g>
<g transform="translate(816,768) scale(4.12)"><circle cx="3" cy="3" r="3"/></g>
<g transform="translate(840,768) scale(4.12)"><circle cx="3" cy="3" r="3"/></g>
<g transform="translate(888,768) scale(4.12)"><circle cx="3" cy="3" r="3"/></g>
<g transform="translate(912,768) scale(4.12)"><circle cx="3" cy="3" r="3"/></g>
<g transform="translate(264,792) scale(4.12)"><circle cx="3" cy="3" r="3"/></g>
<g transform="translate(288,792) scale(4.12)"><circle cx="3" cy="3" r="3"/></g>
<g transform="translate(312,792) scale(4.12)"><circle cx="3" cy="3" r="3"/></g>
<g transform="translate(360,792) scale(4.12)"><circle cx="3" cy="3" r="3"/></g>
<g transform="translate(384,792) scale(4.12)"><circle cx="3" cy="3" r="3"/></g>
<g transform="translate(432,792) scale(4.12)"><circle cx="3" cy="3" r="3"/></g>
<g transform="translate(480,792) scale(4.12)"><circle cx="3" cy="3" r="3"/></g>
<g transform="translate(528,792) scale(4.12)"><circle cx="3" cy="3" r="3"/></g>
<g transform="translate(624,792) scale(4.12)"><circle cx="3" cy="3" r="3"/></g>
<g transform="translate(720,792) scale(4.12)"><circle cx="3" cy="3" r="3"/></g>
<g transform="translate(816,792) scale(4.12)"><circle cx="3" cy="3" r="3"/></g>
<g transform="translate(888,792) scale(4.12)"><circle cx="3" cy="3" r="3"/></g>
<g transform="translate(240,816) scale(4.12)"><circle cx="3" cy="3" r="3"/></g>
<g transform="translate(312,816) scale(4.12)"><circle cx="3" cy="3" r="3"/></g>
<g transform="translate(336,816) scale(4.12)"><circle cx="3" cy="3" r="3"/></g>
<g transform="translate(360,816) scale(4.12)"><circle cx="3" cy="3" r="3"/></g>
<g transform="translate(408,816) scale(4.12)"><circle cx="3" cy="3" r="3"/></g>
<g transform="translate(456,816) scale(4.12)"><circle cx="3" cy="3" r="3"/></g>
<g transform="translate(528,816) scale(4.12)"><circle cx="3" cy="3" r="3"/></g>
<g transform="translate(552,816) scale(4.12)"><circle cx="3" cy="3" r="3"/></g>
<g transform="translate(576,816) scale(4.12)"><circle cx="3" cy="3" r="3"/></g>
<g transform="translate(624,816) scale(4.12)"><circle cx="3" cy="3" r="3"/></g>
<g transform="translate(648,816) scale(4.12)"><circle cx="3" cy="3" r="3"/></g>
<g transform="translate(672,816) scale(4.12)"><circle cx="3" cy="3" r="3"/></g>
<g transform="translate(696,816) scale(4.12)"><circle cx="3" cy="3" r="3"/></g>
<g transform="translate(720,816) scale(4.12)"><circle cx="3" cy="3" r="3"/></g>
<g transform="translate(744,816) scale(4.12)"><circle cx="3" cy="3" r="3"/></g>
<g transform="translate(768,816) scale(4.12)"><circle cx="3" cy="3" r="3"/></g>
<g transform="translate(792,816) scale(4.12)"><circle cx="3" cy="3" r="3"/></g>
<g transform="translate(816,816) scale(4.12)"><circle cx="3" cy="3" r="3"/></g>
<g transform="translate(864,816) scale(4.12)"><circle cx="3" cy="3" r="3"/></g>
<g transform="translate(888,816) scale(4.12)"><circle cx="3" cy="3" r="3"/></g>
<g transform="translate(240,840) scale(4.12)"><circle cx="3" cy="3" r="3"/></g>
<g transform="translate(288,840) scale(4.12)"><circle cx="3" cy="3" r="3"/></g>
<g transform="translate(312,840) scale(4.12)"><circle cx="3" cy="3" r="3"/></g>
<g transform="translate(336,840) scale(4.12)"><circle cx="3" cy="3" r="3"/></g>
<g transform="translate(480,840) scale(4.12)"><circle cx="3" cy="3" r="3"/></g>
<g transform="translate(504,840) scale(4.12)"><circle cx="3" cy="3" r="3"/></g>
<g transform="translate(528,840) scale(4.12)"><circle cx="3" cy="3" r="3"/></g>
<g transform="translate(624,840) scale(4.12)"><circle cx="3" cy="3" r="3"/></g>
<g transform="translate(672,840) scale(4.12)"><circle cx="3" cy="3" r="3"/></g>
<g transform="translate(720,840) scale(4.12)"><circle cx="3" cy="3" r="3"/></g>
<g transform="translate(768,840) scale(4.12)"><circle cx="3" cy="3" r="3"/></g>
<g transform="translate(816,840) scale(4.12)"><circle cx="3" cy="3" r="3"/></g>
<g transform="translate(864,840) scale(4.12)"><circle cx="3" cy="3" r="3"/></g>
<g transform="translate(240,864) scale(4.12)"><circle cx="3" cy="3" r="3"/></g>
<g transform="translate(264,864) scale(4.12)"><circle cx="3" cy="3" r="3"/></g>
<g transform="translate(312,864) scale(4.12)"><circle cx="3" cy="3" r="3"/></g>
<g transform="translate(384,864) scale(4.12)"><circle cx="3" cy="3" r="3"/></g>
<g transform="translate(408,864) scale(4.12)"><circle cx="3" cy="3" r="3"/></g>
<g transform="translate(456,864) scale(4.12)"><circle cx="3" cy="3" r="3"/></g>
<g transform="translate(672,864) scale(4.12)"><circle cx="3" cy="3" r="3"/></g>
<g transform="translate(720,864) scale(4.12)"><circle cx="3" cy="3" r="3"/></g>
<g transform="translate(744,864) scale(4.12)"><circle cx="3" cy="3" r="3"/></g>
<g transform="translate(792,864) scale(4.12)"><circle cx="3" cy="3" r="3"/></g>
<g transform="translate(864,864) scale(4.12)"><circle cx="3" cy="3" r="3"/></g>
<g transform="translate(912,864) scale(4.12)"><circle cx="3" cy="3" r="3"/></g>
<g transform="translate(264,888) scale(4.12)"><circle cx="3" cy="3" r="3"/></g>
<g transform="translate(288,888) scale(4.12)"><circle cx="3" cy="3" r="3"/></g>
<g transform="translate(336,888) scale(4.12)"><circle cx="3" cy="3" r="3"/></g>
<g transform="translate(408,888) scale(4.12)"><circle cx="3" cy="3" r="3"/></g>
<g transform="translate(432,888) scale(4.12)"><circle cx="3" cy="3" r="3"/></g>
<g transform="translate(504,888) scale(4.12)"><circle cx="3" cy="3" r="3"/></g>
<g transform="translate(528,888) scale(4.12)"><circle cx="3" cy="3" r="3"/></g>
<g transform="translate(600,888) scale(4.12)"><circle cx="3" cy="3" r="3"/></g>
<g transform="translate(696,888) scale(4.12)"><circle cx="3" cy="3" r="3"/></g>
<g transform="translate(720,888) scale(4.12)"><circle cx="3" cy="3" r="3"/></g>
<g transform="translate(744,888) scale(4.12)"><circle cx="3" cy="3" r="3"/></g>
<g transform="translate(792,888) scale(4.12)"><circle cx="3" cy="3" r="3"/></g>
<g transform="translate(912,888) scale(4.12)"><circle cx="3" cy="3" r="3"/></g>
<g transform="translate(312,912) scale(4.12)"><circle cx="3" cy="3" r="3"/></g>
<g transform="translate(336,912) scale(4.12)"><circle cx="3" cy="3" r="3"/></g>
<g transform="translate(384,912) scale(4.12)"><circle cx="3" cy="3" r="3"/></g>
<g transform="translate(432,912) scale(4.12)"><circle cx="3" cy="3" r="3"/></g>
<g transform="translate(456,912) scale(4.12)"><circle cx="3" cy="3" r="3"/></g>
<g transform="translate(504,912) scale(4.12)"><circle cx="3" cy="3" r="3"/></g>
<g transform="translate(528,912) scale(4.12)"><circle cx="3" cy="3" r="3"/></g>
<g transform="translate(552,912) scale(4.12)"><circle cx="3" cy="3" r="3"/></g>
<g transform="translate(624,912) scale(4.12)"><circle cx="3" cy="3" r="3"/></g>
<g transform="translate(648,912) scale(4.12)"><circle cx="3" cy="3" r="3"/></g>
<g transform="translate(672,912) scale(4.12)"><circle cx="3" cy="3" r="3"/></g>
<g transform="translate(816,912) scale(4.12)"><circle cx="3" cy="3" r="3"/></g>
<g transform="translate(864,912) scale(4.12)"><circle cx="3" cy="3" r="3"/></g>
<g transform="translate(888,912) scale(4.12)"><circle cx="3" cy="3" r="3"/></g>
<g transform="translate(912,912) scale(4.12)"><circle cx="3" cy="3" r="3"/></g>
<g transform="translate(48,48)"><g transform="scale(12)"><path d="M0,0v14h14V0H0z M12,12H2V2h10V12z"/></g></g>
<g transform="translate(768,48)"><g transform="scale(12)"><path d="M0,0v14h14V0H0z M12,12H2V2h10V12z"/></g></g>
<g transform="translate(48,768)"><g transform="scale(12)"><path d="M0,0v14h14V0H0z M12,12H2V2h10V12z"/></g></g>
<g transform="translate(96,96)"><g transform="scale(12)"><circle cx="3" cy="3" r="3"/></g></g>
<g transform="translate(816,96)"><g transform="scale(12)"><circle cx="3" cy="3" r="3"/></g></g>
<g transform="translate(96,816)"><g transform="scale(12)"><circle cx="3" cy="3" r="3"/></g></g>
</g></g></mask></defs><rect width="984" height="984" fill="#ffffff" x="0" y="0"/><rect x="0" y="0" width="984" height="984" mask="url(#qrmask)" fill="url(#pattern-mask)"/></svg>
